<!-- Created with Inkscape (http://www.inkscape.org/) -->
<svg xmlns:rdf="http://www.w3.org/1999/02/22-rdf-syntax-ns#" xmlns="http://www.w3.org/2000/svg" xml:space="preserve" height="600" width="600" version="1.1" xmlns:cc="http://creativecommons.org/ns#" xmlns:dc="http://purl.org/dc/elements/1.1/"><metadata><rdf:RDF><cc:Work rdf:about=""><dc:format>image/svg+xml</dc:format><dc:type rdf:resource="http://purl.org/dc/dcmitype/StillImage"/><dc:title/></cc:Work></rdf:RDF></metadata><g fill-rule="nonzero" transform="matrix(1.25,0,0,-1.25,-2.4375,600.71245)"><path fill="#ec1d24" d="M241.95,480.57c132.63-0.04,240.09-107.5,240-240,0.09-132.61-107.37-240.07-240-240-132.48-0.07289-239.94,107.39-240,240,0.0586,132.5,107.52,239.96,240,240"/><path fill="#FFF" d="M241.95,432.82c106.23-0.1,192.28-86.15,192.25-192.25,0.03-106.21-86.02-192.27-192.25-192.25-106.08-0.015-192.14,86.044-192.04,192.25-0.095,106.1,85.962,192.15,192.04,192.25"/><path fill="#000" d="m80.119,204.65,38.873,6.9718c1.2553-20.57,18.241-30.204,34.648-30.211,17.565,0.007,27.706,9.1338,27.676,24.296,0.0299,15.005-8.5898,22.357-26.62,22.394h-17.113v32.324c42.241,0.0898,42.254,19.648,42.254,19.648-0.0123,14.414-10.66,22.778-30,22.817-17.167-0.0387-28.322-6.3768-31.056-28.732l-38.028,5.7042c4.5106,34.144,33.41,54.933,69.93,54.93,39.282,0.004,65.394-23.574,65.493-52.817-0.0986-10.558-0.60563-28.051-19.437-37.394,20.859-10.685,19.845-21.079,19.859-39.93-0.0141-35.908-17-56.697-66.761-56.62-40.238-0.0775-63.813,18.937-69.718,56.62"/><path fill="#000" d="m333.64,146.98c-50.298-0.0352-75.65,32.415-75.634,92.535-0.0158,63.088,26.35,93.764,75.211,93.803,51.532-0.0387,75.868-33.25,75.845-93.592,0.0229-59.824-24.82-92.782-75.423-92.746"/><path fill="#FFF" d="m333.85,299.3c-26.678,0.005-38.34-19.516-38.239-59.366-0.10035-36.965,12.322-59.021,38.239-58.944,26.053-0.0775,37.968,19.695,38.028,58.944-0.0599,38.583-11.975,59.371-38.028,59.366"/></g></svg>
