<?xml version="1.0" encoding="UTF-8" standalone="no"?>
<!-- Created with Inkscape (http://www.inkscape.org/) -->
<svg xmlns:dc="http://purl.org/dc/elements/1.1/" xmlns:cc="http://creativecommons.org/ns#" xmlns:rdf="http://www.w3.org/1999/02/22-rdf-syntax-ns#" xmlns:svg="http://www.w3.org/2000/svg" xmlns="http://www.w3.org/2000/svg" xmlns:inkscape="http://www.inkscape.org/namespaces/inkscape" version="1.1" width="193.78999" height="299.07999" id="svg2" xml:space="preserve"><metadata id="metadata8"><rdf:RDF><cc:Work rdf:about=""><dc:format>image/svg+xml</dc:format><dc:type rdf:resource="http://purl.org/dc/dcmitype/StillImage"/></cc:Work></rdf:RDF></metadata><defs id="defs6"><clipPath id="clipPath20"><path d="M 0,239.28 H 155.03 V 0.02 H 0 v 239.26 z" inkscape:connector-curvature="0" id="path22"/></clipPath></defs><g transform="matrix(1.25,0,0,-1.25,0,299.09)" id="g10"><g transform="translate(154.53,17.824)" id="g12"><path d="m 0,0 c 0,-9.568 -7.756,-17.324 -17.324,-17.324 h -119.38 c -9.568,0 -17.324,7.756 -17.324,17.324 v 203.63 c 0,9.568 7.756,17.324 17.324,17.324 h 119.38 c 9.564,0 17.32,-7.75 17.32,-17.32 V 0.004" inkscape:connector-curvature="0" id="path14" style="fill:#ffffff"/></g><g id="g16"><g clip-path="url(#clipPath20)" id="g18"><g transform="translate(154.53,17.824)" id="g24"><path d="m 0,0 c 0,-9.568 -7.756,-17.324 -17.324,-17.324 h -119.38 c -9.568,0 -17.324,7.756 -17.324,17.324 v 203.63 c 0,9.568 7.756,17.324 17.324,17.324 h 119.38 c 9.564,0 17.32,-7.75 17.32,-17.32 V 0.004 z" inkscape:connector-curvature="0" id="path26" style="fill:none;stroke:#0079c1"/></g></g></g><g transform="translate(146.22,17.824)" id="g28"><path d="m 0,0 c 0,-4.98 -4.035,-9.016 -9.015,-9.016 h -119.38 c -4.979,0 -9.015,4.036 -9.015,9.016 v 203.63 c 0,4.979 4.036,9.015 9.015,9.015 h 119.38 c 4.98,0 9.015,-4.036 9.015,-9.015 L 0.005,0.01" inkscape:connector-curvature="0" id="path30" style="fill:#0079c1"/></g><g transform="translate(65.262,125.08)" id="g32"><path d="m 0,0 h -19.146 v 90.678 h 48.248 c 10.851,0 19.65,-8.798 19.65,-19.65 V 54.964 c 0,-10.852 -8.799,-19.649 -19.65,-19.649 H 0 V 0" inkscape:connector-curvature="0" id="path34" style="fill:#ffffff"/></g><g transform="translate(65.262,200.88)" id="g36"><path d="m 0,0 h 21.152 c 5.038,0 9.124,-4.085 9.124,-9.123 v -7.346 c 0,-5.039 -4.086,-9.124 -9.124,-9.124 H 0 V 0" inkscape:connector-curvature="0" id="path38" style="fill:#0079c1"/></g><g transform="translate(108.11,43.981)" id="g40"><path d="m 0,0 c 3.313,1.029 3.744,4.006 3.744,4.006 l 3.587,15.533 c 1.235,5.354 -3.728,6.799 -3.728,6.799 L 4.844,44.292 C 5.385,51.814 -0.166,54.42 -2.6,54.981 l -37.758,8.718 c -2.433,0.562 -8.564,0.653 -11.375,-6.344 l -6.756,-16.681 c 0,0 -5.095,0.876 -6.331,-4.478 l -3.586,-15.533 c 0,0 -0.918,-2.863 1.609,-5.241 l -2.8,-12.126 c 0,0 1.226,-3.017 5.12,-3.916 3.893,-0.899 6.012,1.431 6.012,1.431 l 2.565,11.113 c 0,0 15.402,-4.432 22.094,-5.978 6.692,-1.544 22.478,-4.313 22.478,-4.313 l -2.565,-11.112 c 0,0 0.882,-3.024 4.776,-3.923 0.399,-0.092 0.782,-0.151 1.15,-0.184 H -35.45 v 12.75 h -33.625 v -20.25 H 7.3 v 7.5 H -6.535 c 2.352,0.221 3.735,1.459 3.735,1.459 L 0,0" inkscape:connector-curvature="0" id="path42" style="fill:#ffffff"/></g><g transform="translate(81.593,81.502)" id="g44"><path d="m 0,0 c 4.705,-1.087 18.408,-5.105 22.181,-5.976 4.786,-1.105 4.982,3.634 4.982,3.634 l 0.429,5.37 c 0.157,4.576 -2.997,7.306 -6.074,8.386 -0.533,0.187 -10.768,3.319 -11.742,3.545 l -12.004,2.77 c -0.974,0.226 -11.545,1.897 -12.107,1.963 -3.239,0.378 -7.27,-0.692 -9.135,-4.875 l -1.969,-5.014 c 0,0 -1.9,-4.345 2.885,-5.451 C -18.782,3.481 -4.704,1.085 0,0" inkscape:connector-curvature="0" id="path46" style="fill:#0079c1"/></g><g transform="translate(27.922,8.808)" id="g48"><path d="m 0,0 h -10.098 c -4.98,0 -9.016,4.036 -9.016,9.016 v 4.063 l 120.43,208.58 h 7.973 c 4.98,0 9.015,-4.036 9.015,-9.015 v -7.845 L 0.004,-0.001" inkscape:connector-curvature="0" id="path50" style="fill:#ec1d24"/></g></g></svg>