<?xml version="1.0" encoding="UTF-8" standalone="no"?>
<!-- Created with Inkscape (http://www.inkscape.org/) -->

<svg
   xmlns:dc="http://purl.org/dc/elements/1.1/"
   xmlns:cc="http://creativecommons.org/ns#"
   xmlns:rdf="http://www.w3.org/1999/02/22-rdf-syntax-ns#"
   xmlns:svg="http://www.w3.org/2000/svg"
   xmlns="http://www.w3.org/2000/svg"
   xmlns:sodipodi="http://sodipodi.sourceforge.net/DTD/sodipodi-0.dtd"
   xmlns:inkscape="http://www.inkscape.org/namespaces/inkscape"
   width="425.59253"
   height="791.61884"
   id="svg2947"
   version="1.1"
   inkscape:version="0.47 r22583"
   sodipodi:docname="UK traffic sign 543 1.svg">
  <defs
     id="defs2949">
    <inkscape:perspective
       sodipodi:type="inkscape:persp3d"
       inkscape:vp_x="0 : 526.18109 : 1"
       inkscape:vp_y="0 : 1000 : 0"
       inkscape:vp_z="744.09448 : 526.18109 : 1"
       inkscape:persp3d-origin="372.04724 : 350.78739 : 1"
       id="perspective2955" />
    <inkscape:perspective
       id="perspective2982"
       inkscape:persp3d-origin="187.815 : 45.626668 : 1"
       inkscape:vp_z="375.63 : 68.440002 : 1"
       inkscape:vp_y="0 : 1000 : 0"
       inkscape:vp_x="0 : 68.440002 : 1"
       sodipodi:type="inkscape:persp3d" />
    <inkscape:perspective
       id="perspective3797"
       inkscape:persp3d-origin="0.5 : 0.33333333 : 1"
       inkscape:vp_z="1 : 0.5 : 1"
       inkscape:vp_y="0 : 1000 : 0"
       inkscape:vp_x="0 : 0.5 : 1"
       sodipodi:type="inkscape:persp3d" />
    <inkscape:perspective
       id="perspective4701"
       inkscape:persp3d-origin="0.5 : 0.33333333 : 1"
       inkscape:vp_z="1 : 0.5 : 1"
       inkscape:vp_y="0 : 1000 : 0"
       inkscape:vp_x="0 : 0.5 : 1"
       sodipodi:type="inkscape:persp3d" />
    <clipPath
       clipPathUnits="userSpaceOnUse"
       id="clipPath3104">
      <path
         d="m 22.11,25.795 267.236,0 0,418.677 -267.236,0 0,-418.677 z"
         id="path3106" />
    </clipPath>
    <inkscape:perspective
       id="perspective4975"
       inkscape:persp3d-origin="0.5 : 0.33333333 : 1"
       inkscape:vp_z="1 : 0.5 : 1"
       inkscape:vp_y="0 : 1000 : 0"
       inkscape:vp_x="0 : 0.5 : 1"
       sodipodi:type="inkscape:persp3d" />
    <inkscape:perspective
       id="perspective6010"
       inkscape:persp3d-origin="0.5 : 0.33333333 : 1"
       inkscape:vp_z="1 : 0.5 : 1"
       inkscape:vp_y="0 : 1000 : 0"
       inkscape:vp_x="0 : 0.5 : 1"
       sodipodi:type="inkscape:persp3d" />
    <clipPath
       clipPathUnits="userSpaceOnUse"
       id="clipPath5370">
      <path
         d="m 34.016,36.469 255.118,0 0,485.105 -255.118,0 0,-485.105 z"
         id="path5372" />
    </clipPath>
    <clipPath
       clipPathUnits="userSpaceOnUse"
       id="clipPath5360">
      <path
         d="m 31.181,30.409 261,0 0,494 -261,0 0,-494 z"
         id="path5362" />
    </clipPath>
    <inkscape:perspective
       id="perspective6118"
       inkscape:persp3d-origin="0.5 : 0.33333333 : 1"
       inkscape:vp_z="1 : 0.5 : 1"
       inkscape:vp_y="0 : 1000 : 0"
       inkscape:vp_x="0 : 0.5 : 1"
       sodipodi:type="inkscape:persp3d" />
    <clipPath
       clipPathUnits="userSpaceOnUse"
       id="clipPath5370-2">
      <path
         d="m 34.016,36.469 255.118,0 0,485.105 -255.118,0 0,-485.105 z"
         id="path5372-6" />
    </clipPath>
    <clipPath
       clipPathUnits="userSpaceOnUse"
       id="clipPath5360-5">
      <path
         d="m 31.181,30.409 261,0 0,494 -261,0 0,-494 z"
         id="path5362-7" />
    </clipPath>
    <inkscape:perspective
       id="perspective8380"
       inkscape:persp3d-origin="0.5 : 0.33333333 : 1"
       inkscape:vp_z="1 : 0.5 : 1"
       inkscape:vp_y="0 : 1000 : 0"
       inkscape:vp_x="0 : 0.5 : 1"
       sodipodi:type="inkscape:persp3d" />
    <inkscape:perspective
       id="perspective9041"
       inkscape:persp3d-origin="0.5 : 0.33333333 : 1"
       inkscape:vp_z="1 : 0.5 : 1"
       inkscape:vp_y="0 : 1000 : 0"
       inkscape:vp_x="0 : 0.5 : 1"
       sodipodi:type="inkscape:persp3d" />
    <inkscape:perspective
       id="perspective9702"
       inkscape:persp3d-origin="0.5 : 0.33333333 : 1"
       inkscape:vp_z="1 : 0.5 : 1"
       inkscape:vp_y="0 : 1000 : 0"
       inkscape:vp_x="0 : 0.5 : 1"
       sodipodi:type="inkscape:persp3d" />
    <inkscape:perspective
       id="perspective10096"
       inkscape:persp3d-origin="211.875 : 243.12667 : 1"
       inkscape:vp_z="423.75 : 364.69 : 1"
       inkscape:vp_y="0 : 1000 : 0"
       inkscape:vp_x="0 : 364.69 : 1"
       sodipodi:type="inkscape:persp3d" />
  </defs>
  <sodipodi:namedview
     id="base"
     pagecolor="#ffffff"
     bordercolor="#666666"
     borderopacity="1.0"
     inkscape:pageopacity="0.0"
     inkscape:pageshadow="2"
     inkscape:zoom="0.29534138"
     inkscape:cx="216.4607"
     inkscape:cy="-138.56916"
     inkscape:document-units="px"
     inkscape:current-layer="layer1"
     showgrid="false"
     inkscape:window-width="1600"
     inkscape:window-height="838"
     inkscape:window-x="-8"
     inkscape:window-y="-8"
     inkscape:window-maximized="1" />
  <metadata
     id="metadata2952">
    <rdf:RDF>
      <cc:Work
         rdf:about="">
        <dc:format>image/svg+xml</dc:format>
        <dc:type
           rdf:resource="http://purl.org/dc/dcmitype/StillImage" />
        <dc:title></dc:title>
      </cc:Work>
    </rdf:RDF>
  </metadata>
  <g
     inkscape:label="Livello 1"
     inkscape:groupmode="layer"
     id="layer1"
     transform="translate(-330.204,944.0157)">
    <g
       id="g6697"
       transform="matrix(7.7318605,0,0,-7.7318605,755.79653,-923.41802)">
      <path
         d="m 0,0 c 0,1.476 -1.188,2.664 -2.664,2.664 l -49.716,0 c -1.476,0 -2.664,-1.188 -2.664,-2.664 l 0,-97.056 c 0,-1.477 1.188,-2.664 2.664,-2.664 l 49.716,0 c 1.476,0 2.664,1.187 2.664,2.664 L 0,0 z"
         style="fill:#1a1a18;fill-opacity:1;fill-rule:evenodd;stroke:none"
         id="path6699" />
    </g>
    <g
       id="g6701"
       transform="matrix(7.7318605,0,0,-7.7318605,735.19822,-304.93095)">
      <path
         d="m 0,0 c 0.756,0 1.332,-0.576 1.332,-1.333 l 0,-15.731 c 0,-0.72 -0.576,-1.332 -1.332,-1.332 l -49.716,0 c -0.72,0 -1.332,0.612 -1.332,1.332 l 0,15.731 c 0,0.757 0.612,1.333 1.332,1.333 L 0,0 z"
         style="fill:#ffd300;fill-opacity:1;fill-rule:evenodd;stroke:none"
         id="path6703" />
    </g>
    <g
       id="g6705"
       transform="matrix(7.7318605,0,0,-7.7318605,745.49579,-923.41802)">
      <path
         d="m 0,0 c 0,0.72 -0.576,1.332 -1.332,1.332 l -49.716,0 C -51.768,1.332 -52.38,0.72 -52.38,0 l 0,-58.284 c 0,-0.72 0.612,-1.333 1.332,-1.333 l 49.716,0 c 0.756,0 1.332,0.613 1.332,1.333 L 0,0 z"
         style="fill:#ffffff;fill-opacity:1;fill-rule:evenodd;stroke:none"
         id="path6707" />
    </g>
    <g
       id="g6709"
       transform="matrix(7.7318605,0,0,-7.7318605,735.19822,-452.17657)">
      <path
         d="m 0,0 c 0.756,0 1.332,-0.576 1.332,-1.332 l 0,-15.048 c 0,-0.756 -0.576,-1.332 -1.332,-1.332 l -49.716,0 c -0.72,0 -1.332,0.576 -1.332,1.332 l 0,15.048 c 0,0.756 0.612,1.332 1.332,1.332 L 0,0 z"
         style="fill:#ffffff;fill-opacity:1;fill-rule:evenodd;stroke:none"
         id="path6711" />
    </g>
    <g
       id="g6713"
       transform="matrix(7.7318605,0,0,-7.7318605,516.4181,-751.95634)">
      <path
         d="m 0,0 c -9.648,-1.728 -16.056,-10.908 -14.364,-20.556 1.692,-9.648 10.872,-16.093 20.52,-14.364 9.648,1.692 16.092,10.872 14.364,20.52 C 18.828,-4.752 9.648,1.692 0,0"
         style="fill:#dd0029;fill-opacity:1;fill-rule:evenodd;stroke:none"
         id="path6715" />
    </g>
    <g
       id="g6717"
       transform="matrix(7.7318605,0,0,-7.7318605,521.42775,-724.67827)">
      <path
         d="m 0,0 c -7.704,-1.368 -12.852,-8.712 -11.484,-16.416 1.332,-7.705 8.676,-12.888 16.38,-11.52 7.704,1.368 12.852,8.712 11.484,16.416 C 15.048,-3.78 7.704,1.368 0,0"
         style="fill:#ffffff;fill-opacity:1;fill-rule:evenodd;stroke:none"
         id="path6719" />
    </g>
    <g
       id="g6721"
       transform="matrix(7.7318605,0,0,-7.7318605,502.50203,-663.72028)">
      <path
         d="m 0,0 0,0 c 0.517,0 0.936,-0.419 0.936,-0.936 0,-0.516 -0.419,-0.936 -0.936,-0.936 -0.517,0 -0.936,0.42 -0.936,0.936 C -0.936,-0.419 -0.517,0 0,0 m 0,0.576 0,0 c 0.835,0 1.512,-0.678 1.512,-1.512 0,-0.835 -0.677,-1.512 -1.512,-1.512 -0.835,0 -1.512,0.677 -1.512,1.512 0,0.834 0.677,1.512 1.512,1.512 m 0,0.936 0,0 c 1.351,0 2.448,-1.097 2.448,-2.448 0,-1.351 -1.097,-2.448 -2.448,-2.448 -1.352,0 -2.448,1.097 -2.448,2.448 0,1.351 1.096,2.448 2.448,2.448"
         style="fill:#1a1a18;fill-opacity:1;fill-rule:evenodd;stroke:none"
         id="path6723" />
    </g>
    <g
       id="g6725"
       transform="matrix(7.7318605,0,0,-7.7318605,583.77625,-663.72028)">
      <path
         d="m 0,0 0,0 c 0.517,0 0.936,-0.419 0.936,-0.936 0,-0.516 -0.419,-0.936 -0.936,-0.936 -0.517,0 -0.936,0.42 -0.936,0.936 C -0.936,-0.419 -0.517,0 0,0 m 0,0.576 0,0 c 0.835,0 1.512,-0.678 1.512,-1.512 0,-0.835 -0.677,-1.512 -1.512,-1.512 -0.835,0 -1.512,0.677 -1.512,1.512 0,0.834 0.677,1.512 1.512,1.512 m 0,0.936 0,0 c 1.352,0 2.448,-1.097 2.448,-2.448 0,-1.351 -1.096,-2.448 -2.448,-2.448 -1.351,0 -2.448,1.097 -2.448,2.448 0,1.351 1.097,2.448 2.448,2.448"
         style="fill:#1a1a18;fill-opacity:1;fill-rule:evenodd;stroke:none"
         id="path6727" />
    </g>
    <g
       id="g6729"
       transform="matrix(7.7318605,0,0,-7.7318605,582.94242,-669.56556)">
      <path
         d="M 0,0 0.324,-1.008 -0.432,-1.224 -0.792,-0.216 0,0 z"
         style="fill:#1a1a18;fill-opacity:1;fill-rule:evenodd;stroke:none"
         id="path6731" />
    </g>
    <g
       id="g6733"
       transform="matrix(7.7318605,0,0,-7.7318605,508.06714,-658.71016)">
      <path
         d="M 0,0 1.224,1.98 0.432,2.448 -0.792,0.468 0,0 z"
         style="fill:#1a1a18;fill-opacity:1;fill-rule:evenodd;stroke:none"
         id="path6735" />
    </g>
    <g
       id="g6737"
       transform="matrix(7.7318605,0,0,-7.7318605,565.13137,-660.65859)">
      <path
         d="M 0,0 C 0.143,0.576 0.468,1.08 0.936,1.404 1.008,1.476 0.972,1.548 0.864,1.548 l -1.008,0 0,-1.548 C -0.144,-0.108 0,-0.144 0,0 m -2.592,3.636 -1.944,-1.08 1.584,-0.648 1.044,1.044 0,-10e-4 C -2.232,3.168 -2.377,3.312 -2.592,3.636 M 3.564,2.196 C 4.643,1.728 5.4,0.684 5.4,-0.54 l -1.008,0 -0.504,1.296 -1.656,0.72 -1.693,-1.116 0,-2.088 -2.123,0 -10e-4,0 -2.591,0 c -0.864,0 -1.152,0.612 -1.152,1.188 0,1.512 -1.26,2.772 -2.772,2.772 l -0.072,0 0,1.008 0.648,0 c 0.468,0 1.26,0.252 1.548,0.72 l 1.296,1.98 c 0.144,0.252 0.252,0.108 0.216,-0.036 L -4.968,3.744 C -5.04,3.456 -4.753,3.276 -4.464,3.528 l 0.648,0.612 0.648,1.116 0,0.144 0,0.036 c -0.318,0 -0.576,0.21 -0.576,0.468 l 0,0.756 -0.217,0 c 0.073,0.504 0.361,0.936 0.973,0.936 0.648,0 0.972,-0.432 0.972,-0.936 0,-0.504 -0.108,-0.504 -0.18,-0.648 l 0,-0.324 c 0.072,0 0.18,-0.036 0.288,-0.072 C -1.764,5.544 -1.224,5.364 -1.116,5.292 -1.008,5.22 -0.972,5.22 -0.828,5.076 L 0.396,3.78 C 0.648,3.528 0.684,3.204 0.684,2.951 l 2.448,0 C 3.492,2.951 3.6,2.736 3.6,2.34 L 3.564,2.196 z"
         style="fill:#1a1a18;fill-opacity:1;fill-rule:evenodd;stroke:none"
         id="path6739" />
    </g>
    <g
       id="g6741"
       transform="matrix(7.7318605,0,0,-7.7318605,511.68681,-556.27847)">
      <path
         d="m 0,0 0,0.432 3.708,0 3.708,0 0,-0.432 -2.34,-0.108 -1.368,0 -1.404,0 L 0,0 z m 3.708,1.584 3.708,0 0,-0.576 -3.708,0 -0.036,0 -3.708,0 0,0.576 3.708,0 0.036,0 z M 0,2.628 0,2.196 l 3.708,0 3.708,0 0,0.432 -2.34,0.108 -1.368,0 -1.404,0 L 0,2.628 z m -1.584,3.276 0.216,1.152 C -1.116,8.28 0.18,8.46 1.512,8.46 l 2.196,0 2.196,0 c 1.332,0 2.628,-0.18 2.844,-1.404 L 8.964,5.904 C 9.072,5.22 8.712,4.968 7.956,5.004 L 3.708,5.184 -0.54,5.004 c -0.756,-0.036 -1.116,0.216 -1.044,0.9 m -0.144,-2.196 0,0 c 0.556,0 1.008,-0.452 1.008,-1.008 0,-0.556 -0.452,-1.008 -1.008,-1.008 -0.557,0 -1.008,0.452 -1.008,1.008 0,0.556 0.451,1.008 1.008,1.008 m 10.872,0 0,0 C 9.7,3.708 10.152,3.256 10.152,2.7 10.152,2.144 9.7,1.692 9.144,1.692 8.587,1.692 8.136,2.144 8.136,2.7 c 0,0.556 0.451,1.008 1.008,1.008 m -11.7,0.72 0.756,3.852 c 0.072,0.432 0.576,1.26 1.62,1.26 l 3.888,0 3.888,0 c 1.008,0 1.548,-0.828 1.62,-1.26 L 9.972,4.428 C 10.476,4.32 10.98,3.852 10.98,3.312 l 0,-3.204 c 0,-0.468 -0.432,-0.864 -0.612,-1.008 l 0,-2.34 c -0.324,-0.324 -0.648,-0.54 -1.08,-0.54 -0.432,0 -0.864,0.252 -1.116,0.54 l 0,2.232 -2.016,-0.144 -2.448,0 -2.448,0 -2.016,0.144 0,-2.232 c -0.252,-0.288 -0.72,-0.54 -1.116,-0.54 -0.432,0 -0.756,0.216 -1.08,0.54 l 0,2.34 c -0.216,0.144 -0.612,0.54 -0.612,1.008 l 0,3.204 c 0,0.54 0.504,1.008 1.008,1.116"
         style="fill:#1a1a18;fill-opacity:1;fill-rule:evenodd;stroke:none"
         id="path6743" />
    </g>
    <g
       id="g6745"
       transform="matrix(7.7318605,0,0,-7.7318605,424.00508,-432.41393)">
      <path
         d="m 0,0 -1.62,0 0,-4.968 3.348,0 0,0.936 -2.376,0 0,1.08 2.016,0 0,0.936 -2.016,0 0,1.08 2.232,0 L 1.584,0 0.756,0 0,0 z"
         style="fill:#1a1a18;fill-opacity:1;fill-rule:evenodd;stroke:none"
         id="path6747" />
    </g>
    <g
       id="g6749"
       transform="matrix(7.7318605,0,0,-7.7318605,467.7087,-394.00212)">
      <path
         d="m 0,0 0.396,0 -1.224,1.908 1.08,1.655 -1.08,0 -0.54,-0.863 -0.576,0.863 -1.044,0 1.08,-1.655 L -3.132,0 -2.088,0 -1.368,1.08 -0.684,0 -0.36,0 0,0 z"
         style="fill:#1a1a18;fill-opacity:1;fill-rule:evenodd;stroke:none"
         id="path6751" />
    </g>
    <g
       id="g6753"
       transform="matrix(7.7318605,0,0,-7.7318605,499.99562,-414.04298)">
      <path
         d="m 0,0 -0.828,-0.252 c -0.108,0.252 -0.324,0.54 -0.72,0.54 -0.396,0 -0.828,-0.36 -0.828,-1.116 0,-0.756 0.396,-1.152 0.828,-1.152 0.396,0 0.648,0.396 0.72,0.612 l 0.9,-0.18 c -0.108,-0.468 -0.684,-1.224 -1.584,-1.224 -0.936,0 -1.8,0.756 -1.8,1.944 0,1.188 0.936,1.908 1.728,1.908 C -0.792,1.08 -0.18,0.576 0,0"
         style="fill:#1a1a18;fill-opacity:1;fill-rule:evenodd;stroke:none"
         id="path6755" />
    </g>
    <g
       id="g6757"
       transform="matrix(7.7318605,0,0,-7.7318605,511.12889,-405.12814)">
      <path
         d="m 0,0 2.34,0 c 0.036,0.433 -0.144,2.233 -1.656,2.233 -1.332,0 -1.62,-1.44 -1.62,-1.872 0,-0.468 0.288,-1.908 1.728,-1.908 0.828,0 1.26,0.468 1.368,0.612 l -0.54,0.54 c 0,0 -0.288,-0.324 -0.792,-0.324 C 0.288,-0.719 0,-0.359 0,0 m 0,0.721 1.44,0 C 1.44,1.045 1.152,1.405 0.72,1.405 0.252,1.405 0,1.045 0,0.721"
         style="fill:#1a1a18;fill-opacity:1;fill-rule:evenodd;stroke:none"
         id="path6759" />
    </g>
    <g
       id="g6761"
       transform="matrix(7.7318605,0,0,-7.7318605,541.7471,-420.44501)">
      <path
         d="m 0,0 0,0.143 -0.9,0 0,-4.571 0.9,0 0,1.26 c 0,0 0.324,-0.324 1.008,-0.324 1.224,0 1.62,1.296 1.62,1.872 0,0.468 -0.18,0.971 -0.468,1.296 C 1.908,0 1.512,0.288 0.936,0.288 0.612,0.288 0.252,0.144 0,0 m 0,-1.224 0,-0.684 c 0,-0.36 0.288,-0.72 0.828,-0.72 0.504,0 0.828,0.504 0.828,1.044 0,0.576 -0.288,1.08 -0.828,1.08 C 0.288,-0.504 0,-0.9 0,-1.224"
         style="fill:#1a1a18;fill-opacity:1;fill-rule:evenodd;stroke:none"
         id="path6763" />
    </g>
    <g
       id="g6765"
       transform="matrix(7.7318605,0,0,-7.7318605,585.72592,-394.8371)">
      <path
         d="M 0,0 -0.144,0.756 C -0.792,0.539 -0.972,0.72 -0.972,0.9 l 0,1.763 0.9,0 0,0.792 -0.9,0 0,1.405 -0.936,-0.252 0,-1.153 -0.576,0 0,-0.792 0.576,0 0,-2.087 c 0,-0.432 0.288,-0.792 0.972,-0.792 0.504,0 0.828,0.144 0.936,0.216"
         style="fill:#1a1a18;fill-opacity:1;fill-rule:evenodd;stroke:none"
         id="path6767" />
    </g>
    <g
       id="g6769"
       transform="matrix(7.7318605,0,0,-7.7318605,624.13904,-426.01196)">
      <path
         d="M 0,0 0.144,0.792 C -0.54,1.044 -1.728,0.972 -1.728,0 l 0,-0.577 -0.576,0 0,-0.792 0.576,0 0,-2.771 0.864,0 0,2.771 0.792,0 0,0.792 -0.792,0 0,0.325 C -0.864,0.108 -0.36,0.072 0,0"
         style="fill:#1a1a18;fill-opacity:1;fill-rule:evenodd;stroke:none"
         id="path6771" />
    </g>
    <g
       id="g6773"
       transform="matrix(7.7318605,0,0,-7.7318605,641.39652,-422.39271)">
      <path
         d="m 0,0 c -0.864,0 -1.728,-0.684 -1.728,-1.908 0,-1.224 0.828,-1.944 1.728,-1.944 0.864,0 1.728,0.72 1.728,1.944 C 1.728,-0.684 0.864,0 0,0 m 0,-0.792 c -0.396,0 -0.828,-0.36 -0.828,-1.116 0,-0.792 0.432,-1.152 0.828,-1.152 0.36,0 0.792,0.36 0.792,1.152 0,0.756 -0.396,1.116 -0.792,1.116"
         style="fill:#1a1a18;fill-opacity:1;fill-rule:evenodd;stroke:none"
         id="path6775" />
    </g>
    <g
       id="g6777"
       transform="matrix(7.7318605,0,0,-7.7318605,677.85879,-415.15655)">
      <path
         d="m 0,0 0,0.9 c -0.864,0 -1.008,-0.216 -1.224,-0.432 l 0,0.36 -0.9,0 0,-3.564 0.9,0 0,1.764 C -1.224,-0.432 -0.648,0 0,0"
         style="fill:#1a1a18;fill-opacity:1;fill-rule:evenodd;stroke:none"
         id="path6779" />
    </g>
    <g
       id="g6781"
       transform="matrix(7.7318605,0,0,-7.7318605,463.81301,-339.16769)">
      <path
         d="m 0,0 -0.108,0.792 c -0.432,-0.072 -0.648,0 -0.648,0.216 l 0,3.96 -0.9,0 0,-4.356 c 0,-0.36 0.216,-0.72 0.936,-0.72 C -0.36,-0.108 0,0 0,0"
         style="fill:#1a1a18;fill-opacity:1;fill-rule:evenodd;stroke:none"
         id="path6783" />
    </g>
    <g
       id="g6785"
       transform="matrix(7.7318605,0,0,-7.7318605,479.95535,-367.55913)">
      <path
         d="m 0,0 c -0.864,0 -1.728,-0.684 -1.728,-1.908 0,-1.26 0.828,-1.98 1.728,-1.98 0.864,0 1.728,0.72 1.728,1.98 C 1.728,-0.684 0.864,0 0,0 m 0,-0.792 c -0.396,0 -0.828,-0.36 -0.828,-1.152 0,-0.756 0.432,-1.116 0.828,-1.116 0.36,0 0.792,0.36 0.792,1.116 0,0.792 -0.396,1.152 -0.792,1.152"
         style="fill:#1a1a18;fill-opacity:1;fill-rule:evenodd;stroke:none"
         id="path6787" />
    </g>
    <g
       id="g6789"
       transform="matrix(7.7318605,0,0,-7.7318605,521.7073,-346.68311)">
      <path
         d="M 0,0 0,1.836 C 0,2.304 -0.468,2.7 -1.44,2.7 -2.232,2.7 -2.736,2.34 -2.916,2.232 l 0.36,-0.684 c 0.324,0.18 0.972,0.324 1.224,0.324 0.288,0 0.396,-0.18 0.396,-0.324 l 0,-0.18 c -0.324,0 -1.08,-0.144 -1.404,-0.252 -0.288,-0.108 -0.792,-0.288 -0.792,-1.008 0,-0.72 0.72,-1.188 1.476,-1.188 0.612,0 0.828,0.36 0.828,0.36 0,0 0.324,-0.36 0.864,-0.36 l 0.36,0.72 C -0.036,-0.288 0,-0.144 0,0 m -0.936,0.648 0,-0.684 c 0,-0.252 -0.504,-0.252 -0.612,-0.252 -0.072,0 -0.612,0 -0.612,0.432 0,0.468 0.648,0.504 1.224,0.504"
         style="fill:#1a1a18;fill-opacity:1;fill-rule:evenodd;stroke:none"
         id="path6791" />
    </g>
    <g
       id="g6793"
       transform="matrix(7.7318605,0,0,-7.7318605,548.70889,-364.49726)">
      <path
         d="m 0,0 0,1.692 0.936,0 0,-4.968 -0.936,0 0,0.144 c 0,0 -0.36,-0.288 -0.936,-0.288 -0.54,0 -1.656,0.432 -1.656,1.908 0,1.475 1.188,1.872 1.62,1.872 C -0.54,0.36 -0.36,0.252 0,0 m 0,-1.224 0,-0.684 c 0,-0.288 -0.253,-0.72 -0.792,-0.72 -0.54,0 -0.828,0.432 -0.828,1.116 0,0.648 0.36,1.008 0.828,1.008 0.432,0 0.792,-0.288 0.792,-0.72"
         style="fill:#1a1a18;fill-opacity:1;fill-rule:evenodd;stroke:none"
         id="path6795" />
    </g>
    <path
       d="m 562.62131,-366.44494 6.95862,0 0,27.55635 -6.95862,0 0,-27.55635 z"
       style="fill:#1a1a18;fill-opacity:1;fill-rule:evenodd;stroke:none"
       id="path6797" />
    <g
       id="g6799"
       transform="matrix(7.7318605,0,0,-7.7318605,564.94261,-377.05381)">
      <path
         d="m 0,0 c 0.278,0 0.504,-0.226 0.504,-0.504 0,-0.279 -0.226,-0.504 -0.504,-0.504 -0.278,0 -0.504,0.225 -0.504,0.504 C -0.504,-0.226 -0.278,0 0,0"
         style="fill:#1a1a18;fill-opacity:1;fill-rule:evenodd;stroke:none"
         id="path6801" />
    </g>
    <g
       id="g6803"
       transform="matrix(7.7318605,0,0,-7.7318605,602.14839,-357.26024)">
      <path
         d="m 0,0 0,-2.34 -0.936,0 0,2.232 c 0,0.252 -0.18,0.54 -0.576,0.54 -0.396,0 -0.756,-0.36 -0.756,-0.828 l 0,-1.944 -0.936,0 0,3.564 0.936,0 0,-0.288 c 0,0 0.36,0.36 0.9,0.36 C -0.54,1.296 0,0.612 0,0"
         style="fill:#1a1a18;fill-opacity:1;fill-rule:evenodd;stroke:none"
         id="path6805" />
    </g>
    <g
       id="g6807"
       transform="matrix(7.7318605,0,0,-7.7318605,626.64287,-353.64179)">
      <path
         d="m 0,0 c 0,0.36 -0.18,0.756 -0.648,0.756 -0.468,0 -0.648,-0.432 -0.648,-0.756 0,-0.324 0.144,-0.792 0.648,-0.792 C -0.18,-0.792 0,-0.396 0,0 m -2.34,-2.664 0.432,0.756 c 0.18,-0.072 0.504,-0.288 1.152,-0.288 0.9,0 0.756,0.684 0.756,0.684 0,0 -0.324,-0.18 -0.72,-0.18 -1.584,0 -1.62,1.692 -1.62,1.692 0,0 0,0.792 0.54,1.26 0.324,0.288 0.648,0.396 1.08,0.396 0.144,0 0.504,-0.036 0.72,-0.18 l 0,0.216 0.936,0 0,-3.636 c 0,-0.792 -1.116,-1.116 -1.692,-1.116 -0.576,0 -1.224,0.18 -1.584,0.396"
         style="fill:#1a1a18;fill-opacity:1;fill-rule:evenodd;stroke:none"
         id="path6809" />
    </g>
    <g
       id="g6811"
       transform="matrix(7.7318605,0,0,-7.7318605,380.86444,-913.95422)">
      <path
         d="m 0,0 -2.304,0 0,-5.004 0.972,0 0,1.8 1.152,0 c 1.044,0 1.548,0.756 1.548,1.584 C 1.368,-0.756 0.792,0 0,0 m -0.36,-0.9 -0.972,0 0,-1.44 0.972,0 c 0.432,0 0.756,0.396 0.756,0.72 0,0.36 -0.288,0.72 -0.756,0.72"
         style="fill:#1a1a18;fill-opacity:1;fill-rule:evenodd;stroke:none"
         id="path6813" />
    </g>
    <g
       id="g6815"
       transform="matrix(7.7318605,0,0,-7.7318605,412.5972,-913.67587)">
      <path
         d="m 0,0 -1.62,0 0,-4.932 3.348,0 0,0.9 -2.377,0 0,1.116 2.017,0 0,0.936 -2.017,0 0,1.08 2.233,0 0,0.9 L 0.756,0 0,0 z"
         style="fill:#1a1a18;fill-opacity:1;fill-rule:evenodd;stroke:none"
         id="path6817" />
    </g>
    <g
       id="g6819"
       transform="matrix(7.7318605,0,0,-7.7318605,450.4524,-913.67587)">
      <path
         d="m 0,0 -1.728,0 0,-4.932 1.728,0 c 1.332,0 2.34,0.864 2.34,2.448 C 2.34,-0.792 1.152,0 0,0 m 0,-0.9 -0.72,0 0,-3.132 0.72,0 c 0.612,0 1.368,0.36 1.368,1.548 C 1.368,-1.296 0.612,-0.9 0,-0.9"
         style="fill:#1a1a18;fill-opacity:1;fill-rule:evenodd;stroke:none"
         id="path6821" />
    </g>
    <g
       id="g6823"
       transform="matrix(7.7318605,0,0,-7.7318605,490.53129,-913.67587)">
      <path
         d="m 0,0 -1.62,0 0,-4.932 3.384,0 0,0.9 -2.412,0 0,1.116 2.016,0 0,0.936 -2.016,0 0,1.08 2.232,0 0,0.9 L 0.756,0 0,0 z"
         style="fill:#1a1a18;fill-opacity:1;fill-rule:evenodd;stroke:none"
         id="path6825" />
    </g>
    <g
       id="g6827"
       transform="matrix(7.7318605,0,0,-7.7318605,511.96213,-881.66596)">
      <path
         d="M 0,0 0.72,0.72 C 1.656,0.072 2.412,0 2.592,0 2.88,0 3.132,0.252 3.132,0.576 3.132,0.9 2.916,1.044 2.736,1.116 2.556,1.152 1.872,1.296 1.62,1.332 1.332,1.404 0.397,1.656 0.397,2.772 c 0,1.08 0.792,1.476 1.691,1.476 0.9,0 1.548,-0.252 2.124,-0.792 L 3.528,2.808 C 3.169,3.096 2.7,3.312 2.016,3.312 1.62,3.312 1.548,2.916 1.548,2.808 1.548,2.664 1.62,2.376 1.908,2.34 2.16,2.268 2.844,2.088 2.952,2.088 3.24,2.052 4.212,1.692 4.212,0.648 4.212,-0.288 3.6,-0.936 2.448,-0.936 1.296,-0.936 0.397,-0.36 0,0"
         style="fill:#1a1a18;fill-opacity:1;fill-rule:evenodd;stroke:none"
         id="path6829" />
    </g>
    <g
       id="g6831"
       transform="matrix(7.7318605,0,0,-7.7318605,573.47868,-906.71713)">
      <path
         d="m 0,0 -0.54,0 0,-4.032 -0.972,0 0,4.032 -1.44,0 0,0.9 3.78,0 0,-0.9 L 0.252,0 0,0 z"
         style="fill:#1a1a18;fill-opacity:1;fill-rule:evenodd;stroke:none"
         id="path6833" />
    </g>
    <g
       id="g6835"
       transform="matrix(7.7318605,0,0,-7.7318605,606.04714,-913.95422)">
      <path
         d="m 0,0 -2.34,0 0,-4.968 1.008,0 0,1.944 0.72,0 1.116,-1.944 1.08,0 -1.152,1.944 c 0.36,0.072 1.044,0.504 1.044,1.512 C 1.476,-0.54 0.792,0 0,0 m -0.253,-0.9 -1.079,0 0,-1.224 1.079,0 c 0.469,0 0.649,0.324 0.649,0.612 0,0.288 -0.18,0.612 -0.649,0.612"
         style="fill:#1a1a18;fill-opacity:1;fill-rule:evenodd;stroke:none"
         id="path6837" />
    </g>
    <path
       d="m 629.14622,-913.67513 7.79362,0 0,38.13354 -7.79362,0 0,-38.13354 z"
       style="fill:#1a1a18;fill-opacity:1;fill-rule:evenodd;stroke:none"
       id="path6839" />
    <g
       id="g6841"
       transform="matrix(7.7318605,0,0,-7.7318605,659.21262,-882.22266)">
      <path
         d="m 0,0 -0.576,0 -0.288,-0.864 -1.008,0 1.584,4.932 1.26,0 1.62,-4.932 -1.044,0 L 1.26,0 0.648,0 0,0 z m 0.144,0.9 -0.432,0 0.612,1.944 0.648,-1.944 -0.396,0 -0.432,0 z"
         style="fill:#1a1a18;fill-opacity:1;fill-rule:evenodd;stroke:none"
         id="path6843" />
    </g>
    <g
       id="g6845"
       transform="matrix(7.7318605,0,0,-7.7318605,692.33278,-913.67587)">
      <path
         d="m 0,0 0.396,0 2.412,-3.42 0,3.42 0.972,0 0,-4.968 -1.116,0 -2.232,3.384 0,-3.384 -1.008,0 0,4.968 0.252,0 L 0,0 z"
         style="fill:#1a1a18;fill-opacity:1;fill-rule:evenodd;stroke:none"
         id="path6847" />
    </g>
    <g
       id="g6849"
       transform="matrix(7.7318605,0,0,-7.7318605,434.86304,-850.21282)">
      <path
         d="m 0,0 -2.736,0 0,-1.476 3.672,0 -3.78,-5.184 0,-1.62 5.94,0 0,1.62 -3.96,0 3.816,5.184 L 2.952,0 1.008,0 0,0 z"
         style="fill:#1a1a18;fill-opacity:1;fill-rule:evenodd;stroke:none"
         id="path6851" />
    </g>
    <g
       id="g6853"
       transform="matrix(7.7318605,0,0,-7.7318605,499.71489,-851.0478)">
      <path
         d="m 0,0 c -1.584,0 -3.924,-1.224 -3.924,-4.248 0,-2.988 2.268,-4.212 3.924,-4.212 1.62,0 3.888,1.224 3.888,4.212 C 3.888,-1.224 1.584,0 0,0 m 0,-1.62 c -1.116,0 -2.196,-0.864 -2.196,-2.664 0,-1.8 1.116,-2.664 2.196,-2.664 1.08,0 2.16,0.864 2.16,2.664 0,1.8 -1.044,2.664 -2.16,2.664"
         style="fill:#1a1a18;fill-opacity:1;fill-rule:evenodd;stroke:none"
         id="path6855" />
    </g>
    <g
       id="g6857"
       transform="matrix(7.7318605,0,0,-7.7318605,553.99433,-850.21282)">
      <path
         d="M 0,0 0.648,0 4.68,-5.688 4.68,0 6.3,0 l 0,-8.28 -1.872,0 -3.744,5.652 0,-5.652 -1.62,0 0,8.28 L -0.54,0 0,0 z"
         style="fill:#1a1a18;fill-opacity:1;fill-rule:evenodd;stroke:none"
         id="path6859" />
    </g>
    <g
       id="g6861"
       transform="matrix(7.7318605,0,0,-7.7318605,644.73735,-850.21282)">
      <path
         d="m 0,0 -2.7,0 0,-8.244 5.616,0 0,1.548 -3.996,0 0,1.8 3.384,0 0,1.548 -3.384,0 0,1.8 3.744,0 L 2.664,0 1.296,0 0,0 z"
         style="fill:#1a1a18;fill-opacity:1;fill-rule:evenodd;stroke:none"
         id="path6863" />
    </g>
    <g
       id="g6865"
       transform="matrix(7.7318605,0,0,-7.7318605,549.82097,-248.42663)">
      <path
         d="m 0,0 -0.576,0 -0.288,-0.901 -1.008,0 1.584,4.969 1.26,0 1.62,-4.969 -1.044,0 L 1.26,0 0.648,0 0,0 z m 0.144,0.9 -0.432,0 0.648,1.944 0.612,-1.944 -0.396,0 -0.432,0 z"
         style="fill:#1a1a18;fill-opacity:1;fill-rule:evenodd;stroke:none"
         id="path6867" />
    </g>
    <g
       id="g6869"
       transform="matrix(7.7318605,0,0,-7.7318605,593.80108,-242.303)">
      <path
         d="m 0,0 -0.18,0.756 c -0.648,-0.18 -0.828,0 -0.828,0.144 l 0,1.764 0.936,0 0,0.792 -0.936,0 0,1.404 -0.936,-0.252 0,-1.152 -0.54,0 0,-0.792 0.54,0 0,-2.088 c 0,-0.432 0.288,-0.792 0.972,-0.792 0.504,0 0.828,0.18 0.972,0.216"
         style="fill:#1a1a18;fill-opacity:1;fill-rule:evenodd;stroke:none"
         id="path6871" />
    </g>
    <g
       id="g6873"
       transform="matrix(7.7318605,0,0,-7.7318605,638.88834,-248.98327)">
      <path
         d="M 0,0 0,1.836 C 0,2.34 -0.468,2.7 -1.44,2.7 -2.232,2.7 -2.736,2.34 -2.952,2.232 l 0.396,-0.684 c 0.324,0.216 0.972,0.324 1.225,0.324 0.287,0 0.396,-0.18 0.396,-0.288 l 0,-0.216 C -1.26,1.368 -2.052,1.224 -2.34,1.116 -2.628,1.044 -3.132,0.828 -3.132,0.108 c 0,-0.684 0.72,-1.152 1.476,-1.152 0.612,0 0.828,0.36 0.828,0.36 0,0 0.289,-0.396 0.828,-0.396 l 0.397,0.72 C -0.036,-0.252 0,-0.108 0,0 m -0.935,0.648 0,-0.684 c 0,-0.252 -0.505,-0.252 -0.613,-0.252 -0.072,0 -0.648,0 -0.648,0.432 0,0.467 0.684,0.504 1.261,0.504"
         style="fill:#1a1a18;fill-opacity:1;fill-rule:evenodd;stroke:none"
         id="path6875" />
    </g>
    <g
       id="g6877"
       transform="matrix(7.7318605,0,0,-7.7318605,671.73518,-259.56045)">
      <path
         d="m 0,0 0,-2.341 -0.936,0 0,2.233 c 0,0.288 -0.216,0.54 -0.576,0.54 -0.396,0 -0.756,-0.36 -0.756,-0.828 l 0,-1.945 -0.936,0 0,3.565 0.936,0 0,-0.288 c 0,0 0.36,0.36 0.9,0.36 C -0.54,1.296 0,0.612 0,0"
         style="fill:#1a1a18;fill-opacity:1;fill-rule:evenodd;stroke:none"
         id="path6879" />
    </g>
    <g
       id="g6881"
       transform="matrix(7.7318605,0,0,-7.7318605,692.33278,-237.0144)">
      <path
         d="m 0,0 1.44,4.14 -1.008,0 -0.684,-2.196 -0.72,2.196 -0.972,0 1.188,-3.384 C -0.684,0.504 -0.792,0.252 -1.26,0.288 l -0.324,0.036 -0.108,-0.792 0.54,-0.072 C -0.468,-0.648 -0.144,-0.396 0,0"
         style="fill:#1a1a18;fill-opacity:1;fill-rule:evenodd;stroke:none"
         id="path6883" />
    </g>
    <g
       id="g6885"
       transform="matrix(7.7318605,0,0,-7.7318605,582.66405,-187.46852)">
      <path
         d="M 0,0 -0.18,0.792 C -0.828,0.576 -1.008,0.756 -1.008,0.9 l 0,1.764 0.936,0 0,0.792 -0.936,0 0,1.403 -0.936,-0.251 0,-1.152 -0.54,0 0,-0.792 0.54,0 0,-2.053 0,0.001 c 0,-0.468 0.288,-0.792 0.972,-0.792 0.504,0 0.828,0.144 0.972,0.18"
         style="fill:#1a1a18;fill-opacity:1;fill-rule:evenodd;stroke:none"
         id="path6887" />
    </g>
    <path
       d="m 587.95078,-214.18915 7.23711,0 0,27.55635 -7.23711,0 0,-27.55635 z"
       style="fill:#1a1a18;fill-opacity:1;fill-rule:evenodd;stroke:none"
       id="path6889" />
    <g
       id="g6891"
       transform="matrix(7.7318605,0,0,-7.7318605,590.92362,-224.89078)">
      <path
         d="m 0,0 c 0.278,0 0.504,-0.226 0.504,-0.504 0,-0.278 -0.226,-0.504 -0.504,-0.504 -0.278,0 -0.504,0.226 -0.504,0.504 C -0.504,-0.226 -0.278,0 0,0"
         style="fill:#1a1a18;fill-opacity:1;fill-rule:evenodd;stroke:none"
         id="path6893" />
    </g>
    <g
       id="g6895"
       transform="matrix(7.7318605,0,0,-7.7318605,642.50989,-205.56114)">
      <path
         d="m 0,0 0,-2.448 -0.9,0 0,2.196 c 0,0.324 -0.288,0.576 -0.576,0.576 -0.288,0 -0.612,-0.252 -0.612,-0.684 l 0,-2.088 -0.9,0 0,2.196 c 0,0.324 -0.288,0.576 -0.54,0.576 -0.252,0 -0.648,-0.181 -0.648,-0.684 l 0,-2.088 -0.936,0 0,3.564 0.936,0 0,-0.216 c 0,0 0.324,0.288 0.936,0.288 0.54,0 0.864,-0.36 0.864,-0.36 -0.036,0 0.36,0.396 0.972,0.396 C -0.504,1.224 0,0.576 0,0"
         style="fill:#1a1a18;fill-opacity:1;fill-rule:evenodd;stroke:none"
         id="path6897" />
    </g>
    <g
       id="g6899"
       transform="matrix(7.7318605,0,0,-7.7318605,656.42478,-198.04583)">
      <path
         d="M 0,0 2.34,0 C 2.376,0.432 2.196,2.196 0.684,2.196 -0.612,2.196 -0.9,0.792 -0.9,0.324 c 0,-0.432 0.252,-1.872 1.692,-1.872 0.864,0 1.296,0.468 1.404,0.576 L 1.62,-0.396 c 0,0 -0.252,-0.36 -0.792,-0.36 C 0.288,-0.756 0,-0.36 0,0 m 0,0.684 1.44,0 c 0,0.324 -0.288,0.72 -0.72,0.72 C 0.288,1.404 0,1.044 0,0.684"
         style="fill:#1a1a18;fill-opacity:1;fill-rule:evenodd;stroke:none"
         id="path6901" />
    </g>
    <g
       id="g6903"
       transform="matrix(7.7318605,0,0,-7.7318605,434.12024,-287.61164)">
      <path
         d="m 0,0 c 3.895,0 7.056,-3.161 7.056,-7.056 0,-3.895 -3.161,-7.056 -7.056,-7.056 -3.895,0 -7.056,3.161 -7.056,7.056 C -7.056,-3.161 -3.895,0 0,0"
         style="fill:#dd0029;fill-opacity:1;fill-rule:evenodd;stroke:none"
         id="path6905" />
    </g>
    <g
       id="g6907"
       transform="matrix(7.7318605,0,0,-7.7318605,434.12024,-276.75611)">
      <path
         d="m 0,0 c 3.12,0 5.652,-2.532 5.652,-5.652 0,-3.12 -2.532,-5.652 -5.652,-5.652 -3.12,0 -5.652,2.532 -5.652,5.652 C -5.652,-2.532 -3.12,0 0,0"
         style="fill:#0070ba;fill-opacity:1;fill-rule:evenodd;stroke:none"
         id="path6909" />
    </g>
    <g
       id="g6911"
       transform="matrix(7.7318605,0,0,-7.7318605,403.68703,-272.086)">
      <path
         d="m 0,0 -1.116,-1.116 9,-8.964 L 9,-9 0,0 z"
         style="fill:#dd0029;fill-opacity:1;fill-rule:evenodd;stroke:none"
         id="path6913" />
    </g>
  </g>
</svg>
