<?xml version="1.0" encoding="UTF-8" standalone="no"?>
<svg
   xmlns:dc="http://purl.org/dc/elements/1.1/"
   xmlns:cc="http://creativecommons.org/ns#"
   xmlns:rdf="http://www.w3.org/1999/02/22-rdf-syntax-ns#"
   xmlns:svg="http://www.w3.org/2000/svg"
   xmlns="http://www.w3.org/2000/svg"
   xmlns:sodipodi="http://sodipodi.sourceforge.net/DTD/sodipodi-0.dtd"
   xmlns:inkscape="http://www.inkscape.org/namespaces/inkscape"
   width="903.40002"
   height="903.39996"
   viewBox="-50 -30 90.339973 90.339994"
   id="svg2"
   version="1.1"
   inkscape:version="0.48.4 r9939"
   sodipodi:docname="AJAX.svg">
  <metadata
     id="metadata14">
    <rdf:RDF>
      <cc:Work
         rdf:about="">
        <dc:format>image/svg+xml</dc:format>
        <dc:type
           rdf:resource="http://purl.org/dc/dcmitype/StillImage" />
        <dc:title></dc:title>
      </cc:Work>
    </rdf:RDF>
  </metadata>
  <defs
     id="defs12" />
  <sodipodi:namedview
     pagecolor="#ffffff"
     bordercolor="#666666"
     borderopacity="1"
     objecttolerance="10"
     gridtolerance="10"
     guidetolerance="10"
     inkscape:pageopacity="0"
     inkscape:pageshadow="2"
     inkscape:window-width="1920"
     inkscape:window-height="1057"
     id="namedview10"
     showgrid="false"
     fit-margin-top="1.7"
     fit-margin-left="1.7"
     fit-margin-right="1.7"
     fit-margin-bottom="1.7"
     inkscape:zoom="0.5"
     inkscape:cx="461.70003"
     inkscape:cy="352.79028"
     inkscape:window-x="-8"
     inkscape:window-y="-8"
     inkscape:window-maximized="1"
     inkscape:current-layer="svg2"
     showguides="true"
     inkscape:guide-bbox="true" />
  <path
     inkscape:connector-curvature="0"
     id="path3124"
     d="m -4.8300201,-29.83 c 24.8528191,0 45.0000051,20.1471651 45.0000051,44.999989 0,24.852815 -20.147186,45.000007 -45.0000051,45.000007 -24.8528099,0 -44.9999939,-20.147192 -44.9999939,-45.000007 C -49.830013,-9.6828349 -29.68283,-29.83 -4.8300201,-29.83 z"
     style="fill:#ffffff;fill-opacity:1;stroke:#0079c1;stroke-opacity:1;stroke-width:0.29999998999999999;stroke-miterlimit:4;stroke-dasharray:none"
     sodipodi:nodetypes="sssss" />
  <path
     sodipodi:nodetypes="sssss"
     style="fill:#0079c1;fill-opacity:1;stroke:none"
     d="m -4.830021,58.315996 c 23.828882,0 43.146006,-19.317104 43.146006,-43.145989 0,-23.828885 -19.317124,-43.146007 -43.146006,-43.146007 -23.828877,0 -43.145993,19.317122 -43.145993,43.146007 0,23.828885 19.317116,43.145989 43.145993,43.145989 z"
     id="path3607"
     inkscape:connector-curvature="0" />
  <path
     inkscape:connector-curvature="0"
     style="fill:#ffffff;fill-rule:nonzero;stroke:none"
     d="m 18.393704,11.019856 c -1.731481,0 -3.382622,0.343923 -4.885026,0.974831 L 8.4834754,3.237996 9.43756,0.612172 c 2.506858,-0.243938 3.410915,-2.5473957 3.410915,-2.9382174 0,-0.39082 -0.46502,-0.39082 -0.46502,-0.39082 l -10.8679483,0 c -0.2419636,0 -1.04196611,0.2047341 -1.04196611,1.0609267 0,0.8558895 0.91195771,1.0047143 0.91195771,1.0047143 L 6.1497224,0.397822 4.99554,3.573031 l -23.090339,0 c 0.285747,-1.066192 0.461869,-1.724417 0.461869,-1.724417 0,0 0.198514,-0.645059 0.198514,-0.917928 0,-1.2933109 -0.959692,-2.2600799 -1.36463,-2.4779831 -0.08055,-0.043702 -0.350678,-0.1645561 -0.350678,-0.5274044 0,-0.3628788 0.210897,-0.6669128 0.673027,-0.6669128 l 4.813704,0 0,-3.2008144 -6.054328,0 c 0,0 -3.17572,0.2979439 -3.17572,3.5482572 0,1.9000992 0.942969,2.3323867 1.687346,2.7787945 0.248021,0.149128 0.471157,0.769434 0.371847,1.116547 -0.05796,0.202786 -1.535929,5.748705 -2.756627,10.330935 -1.387795,-0.524276 -2.891945,-0.812249 -4.463286,-0.812249 -6.976573,0 -12.632256,5.655796 -12.632256,12.631988 0,6.976357 5.655682,12.63215 12.632255,12.63215 6.976284,0 12.631992,-5.655793 12.631992,-12.63215 0,-4.240941 -2.090762,-7.993808 -5.297001,-10.285088 0.137173,-0.512427 0.277349,-1.035716 0.418445,-1.562295 l 14.6697252,10.249544 c -0.1595542,0.5042 -0.2464364,1.040982 -0.2464364,1.597839 0,2.921201 2.3686084,5.289657 5.28981129,5.289657 0.52262557,0 1.02717094,-0.07601 1.50371849,-0.217214 l 0.78426222,1.707435 -1.34804307,0 0,1.712039 1.51031497,0 c 0.2374819,0.374859 0.6555859,0.623668 1.1321425,0.623668 0.4765565,0 0.8941836,-0.248809 1.1318096,-0.623668 l 1.473443,0 0,-1.712039 -2.2067137,0 -1.1015257,-2.341964 C 3.4285996,27.350901 4.2635655,26.187655 4.571937,24.824472 l 1.2075227,0.01843 c 0.6085188,6.408641 6.0457953,11.441094 12.6142173,11.441094 6.976519,0 12.632301,-5.655793 12.632301,-12.63215 0,-6.976192 -5.655783,-12.631988 -12.632301,-12.631988 z"
     id="path15" />
  <path
     inkscape:connector-curvature="0"
     style="fill:#0079c1;fill-opacity:1;fill-rule:nonzero;stroke:none"
     d="m -0.58725291,20.336038 c 1.83149321,0 3.31579051,1.484627 3.31579051,3.315806 0,1.831511 -1.4842973,3.316136 -3.31579051,3.316136 -1.83118769,0 -3.31582699,-1.484625 -3.31582699,-3.316136 0,-1.831179 1.4846393,-3.315806 3.31582699,-3.315806 z"
     id="path17" />
  <path
     inkscape:connector-curvature="0"
     style="fill:#0079c1;fill-opacity:1;fill-rule:nonzero;stroke:none"
     d="m -0.38026183,18.36663 c -0.0686673,-0.0026 -0.13743305,-0.0042 -0.20694608,-0.0042 -0.55158649,0 -1.08343669,0.08426 -1.58368029,0.241254 l -0.7852703,-1.669588 1.4385703,0 0,-1.711712 -1.4734528,0 c -0.2374908,-0.374889 -0.6552529,-0.623698 -1.1318005,-0.623698 -0.4762416,0 -0.8945346,0.248809 -1.1321514,0.623668 l -1.5103062,0 0,1.711712 2.2672637,0 1.0436043,2.272521 c -0.1242757,0.08031 -0.2445915,0.165873 -0.3613615,0.256049 L -19.429172,8.55388 c 0.168239,-0.62663 0.331375,-1.236805 0.486925,-1.817359 l 22.7881857,0 -4.22611953,11.630172 z"
     id="path19" />
  <path
     inkscape:connector-curvature="0"
     style="fill:#0079c1;fill-opacity:1;fill-rule:nonzero;stroke:none"
     d="M 10.757559,13.589236 7.0668908,7.135014 2.5992042,19.429664 c 0.9886616,0.747414 1.7067765,1.834471 1.9805988,3.087073 l 1.2331718,0 c 0.3241935,-3.639654 2.1918923,-6.835334 4.9445842,-8.927501 z"
     id="path21" />
  <path
     inkscape:connector-curvature="0"
     style="fill:#0079c1;fill-opacity:1;fill-rule:nonzero;stroke:none"
     d="m 12.612432,16.884967 c -1.642267,1.411562 -2.7974462,3.380971 -3.0748766,5.641314 l 6.3251956,0 -3.250319,-5.641314 z"
     id="path23" />
  <path
     inkscape:connector-curvature="0"
     style="fill:#0079c1;fill-opacity:1;fill-rule:nonzero;stroke:none"
     d="m 15.389165,15.295354 4.418981,7.668317 c 0,0 0.214055,0.353466 0.214055,0.734908 0,1.125893 -1.153525,1.125893 -1.702484,1.125893 l -8.7563604,0.01712 c 0.5891034,4.35613 4.3129994,7.731833 8.8303924,7.731833 4.927153,0 8.921578,-3.994434 8.921578,-8.921574 0,-4.926811 -3.994425,-8.921247 -8.921578,-8.921247 -1.067633,0 -2.055944,0.220821 -3.004449,0.564756 z"
     id="path25" />
  <path
     inkscape:connector-curvature="0"
     style="fill:#0079c1;fill-opacity:1;fill-rule:nonzero;stroke:none"
     d="m -21.776062,17.3138 c -0.430398,1.606069 -0.728312,2.71781 -0.76944,2.870518 -0.975459,3.622539 -4.698222,4.739546 -5.458653,4.739546 -0.818911,0 -1.315158,-0.545997 -1.315158,-1.315132 0,-0.769465 0.620622,-0.992603 0.84366,-1.166046 2.828623,-2.208343 3.2754,-4.565446 3.2754,-4.565446 0,0 0.257496,-0.968248 0.647594,-2.433127 -1.075067,-0.459112 -2.258481,-0.713516 -3.500993,-0.713516 -4.927344,0 -8.921714,3.994437 -8.921714,8.921247 0,4.927141 3.99437,8.921575 8.921714,8.921575 4.927072,0 8.921416,-3.994434 8.921416,-8.921575 0,-2.478872 -1.011773,-4.721115 -2.643826,-6.338044 z"
     id="path27" />
</svg>
