<?xml version="1.0" encoding="UTF-8" standalone="no"?>
<!-- Created with Inkscape (http://www.inkscape.org/) -->

<svg
   xmlns:dc="http://purl.org/dc/elements/1.1/"
   xmlns:cc="http://creativecommons.org/ns#"
   xmlns:rdf="http://www.w3.org/1999/02/22-rdf-syntax-ns#"
   xmlns:svg="http://www.w3.org/2000/svg"
   xmlns="http://www.w3.org/2000/svg"
   xmlns:inkscape="http://www.inkscape.org/namespaces/inkscape"
   version="1.1"
   width="367.35001"
   height="749.40002"
   id="svg2"
   xml:space="preserve"><defs
     id="defs36" /><metadata
     id="metadata8"><rdf:RDF><cc:Work
         rdf:about=""><dc:format>image/svg+xml</dc:format><dc:type
           rdf:resource="http://purl.org/dc/dcmitype/StillImage" /></cc:Work></rdf:RDF></metadata><g
     transform="matrix(1.25,0,0,-1.25,-1.6125,750.34)"
     id="g10"><path
       d="M 295.17,17.07 C 295.22,8.0564 287.94,0.781 278.97,0.75 H 17.49 C 8.5562,0.78082 1.281,8.0564 1.29,17.07 v 566.88 c -0.0093,8.994 7.2662,16.269 16.2,16.32 h 261.48 c 8.974,-0.051 16.249,-7.326 16.2,-16.32 V 17.07"
       inkscape:connector-curvature="0"
       id="path12" /><path
       d="m 286.77,17.07 c 0.011,-4.353 -3.486,-7.8509 -7.8,-7.8 H 17.49 c -4.273,-0.0509 -7.7709,3.447 -7.8,7.8 v 279.96 c 0.0291,4.315 3.527,7.812 7.8,7.8 h 261.48 c 4.314,0.012 7.811,-3.485 7.8,-7.8 V 17.07"
       inkscape:connector-curvature="0"
       id="path14"
       style="fill:#ffffff" /><path
       d="m 286.77,321.15 c 0.011,-4.372 -3.486,-7.869 -7.8,-7.92 H 17.49 c -4.273,0.051 -7.7709,3.548 -7.8,7.92 v 262.8 c 0.0291,4.333 3.527,7.831 7.8,7.8 h 261.48 c 4.314,0.031 7.811,-3.467 7.8,-7.8 v -262.8"
       inkscape:connector-curvature="0"
       id="path16"
       style="fill:#ffffff" /><path
       d="M 148.65,567.99 C 212.26,568 263.79,516.46 263.73,452.91 263.79,389.33 212.26,337.8 148.65,337.83 85.126,337.8 33.59,389.33 33.57,452.91 c 0.024,63.553 51.556,115.08 115.08,115.08"
       inkscape:connector-curvature="0"
       id="path18"
       style="fill:#808080" /><path
       d="m 221.85,396.99 c 11.792,15.539 18.834,34.901 18.84,55.92 -0.006,50.792 -41.194,91.98 -92.04,91.92 -20.965,0.06 -40.327,-6.982 -55.8,-18.84 l 129,-129"
       inkscape:connector-curvature="0"
       id="path20"
       style="fill:#ffffff" /><path
       d="m 75.33,508.35 c -11.692,-15.371 -18.631,-34.601 -18.6,-55.44 -0.031,-50.818 41.156,-92.005 91.92,-92.04 20.892,0.035 40.122,6.974 55.56,18.72 L 75.33,508.35"
       inkscape:connector-curvature="0"
       id="path22"
       style="fill:#ffffff" /><path
       d="m 74.85,216.15 c 9.56,0.032 17.334,-7.742 17.28,-17.28 0.054,-9.642 -7.72,-17.417 -17.28,-17.4 -9.621,-0.017 -17.395,7.758 -17.4,17.4 0.005,9.538 7.779,17.312 17.4,17.28"
       inkscape:connector-curvature="0"
       id="path24" /><path
       d="m 229.53,198.87 h 22.08 v 82.2 c 0,0 0.082,4.832 -4.32,4.8 H 110.37 c -4.374,0.032 -4.32,-4.8 -4.32,-4.8 v -38.52 h -8.88 v 23.76 c 0,0 -0.059,4.956 -4.2,4.92 H 63.09 c 0,0 -9.466,0.493 -11.4,-10.08 l -4.44,-25.56 c 0,0 -4.882,-1.215 -4.92,-6.36 0.038,-1.214 0.24,-2.52 0.24,-2.52 l 6,-27.84 h 7.08 c -0.056,10.62 8.552,19.173 19.2,19.2 10.587,-0.027 19.195,-8.635 19.2,-19.2 h 100.8 c -0.027,-9.642 7.748,-17.417 17.28,-17.4 9.648,-0.017 17.423,7.758 17.4,17.4"
       inkscape:connector-curvature="0"
       id="path26" /><path
       d="m 74.85,207.51 c 4.765,-0.01 8.652,-3.897 8.64,-8.64 0.012,-4.848 -3.875,-8.735 -8.64,-8.76 -4.826,0.025 -8.713,3.912 -8.76,8.76 0.047,4.743 3.934,8.63 8.76,8.64"
       inkscape:connector-curvature="0"
       id="path28"
       style="fill:#ffffff" /><path
       d="m 212.13,207.51 c 4.853,-0.01 8.741,-3.897 8.76,-8.64 -0.019,-4.848 -3.907,-8.735 -8.76,-8.76 -4.737,0.025 -8.624,3.912 -8.64,8.76 0.016,4.743 3.903,8.63 8.64,8.64"
       inkscape:connector-curvature="0"
       id="path30"
       style="fill:#ffffff" /><path
       d="m 55.41,242.55 h 26.16 v 21.84 H 64.29 c 0,0 -5.093,-0.049 -5.64,-3.24 l -3.24,-18.6"
       inkscape:connector-curvature="0"
       id="path32"
       style="fill:#ffffff" /><path
       d="m 223.17,268.59 h -11.04 v -33.24 h -6.6 v 33.24 h -11.04 v 5.88 h 28.68 v -5.88"
       inkscape:connector-curvature="0"
       id="path34"
       style="fill:#ffffff" /><path
       d="m 175.65,265.23 h -27.6 l -2.28,-12.72 c 4.653,2.491 6.795,3.206 11.4,3.24 13.963,-0.034 22.086,-9.14 22.08,-21.6 0.006,-13.339 -9.099,-21.908 -23.04,-21.96 -11.768,0.052 -20.249,6.033 -22.92,16.44 l 10.08,2.88 c 1.786,-6.324 6.249,-9.895 12.72,-9.84 7.009,-0.055 12.276,5.39 12.24,12.84 0.036,7.458 -5.231,12.457 -12.48,12.48 -4.892,-0.023 -8.463,-1.987 -10.8,-6 l -11.04,2.04 4.68,31.44 h 36.96 v -9.24"
       inkscape:connector-curvature="0"
       id="path36"
       style="fill:#ffffff" /><path
       d="m 89.97,123.51 h 20.04 v -9.36 H 79.05 v 9.36 l 18.6,25.32 H 79.41 v 8.88 h 29.64 v -8.88 L 89.97,123.51"
       inkscape:connector-curvature="0"
       id="path38" /><path
       d="m 114.81,129.39 c 0.001,12.599 7.398,17.222 14.76,17.28 6.755,-0.058 15.139,-4.681 15.12,-17.28 0.019,-9.347 -6.084,-16.375 -14.64,-16.32 -9.444,-0.055 -15.239,6.418 -15.24,16.32"
       inkscape:connector-curvature="0"
       id="path40" /><path
       d="m 136.29,129.39 c -0.027,7.297 -2.554,9.578 -6.24,9.6 -4.698,-0.022 -6.609,-3.844 -6.6,-9.6 -0.009,-5.094 2.457,-8.916 6.6,-8.88 4.056,-0.036 6.213,3.786 6.24,8.88"
       inkscape:connector-curvature="0"
       id="path42"
       style="fill:#ffffff" /><path
       d="m 164.13,145.47 c 1.323,0.587 2.864,0.772 4.32,0.72 6.804,0.052 11.921,-5.188 11.88,-11.52 v -20.52 h -8.16 v 17.88 c 0.002,3.486 -1.724,6.322 -5.16,6.36 -3.961,-0.038 -6.55,-2.381 -6.6,-5.52 v -18.72 h -8.16 v 31.2 h 8.4 v -2.28 c 1.659,1.385 2.152,1.878 3.48,2.4"
       inkscape:connector-curvature="0"
       id="path44" /><path
       d="m 210.21,123.99 5.04,-5.4 c -4.033,-3.602 -6.683,-5.143 -12.36,-5.16 -9.673,0.017 -15.591,7.168 -15.6,16.68 0.009,8.55 5.495,16.009 13.92,15.96 9.206,0.049 14.877,-6.794 14.88,-17.04 v -2.16 h -20.64 c 0.233,-3.56 3.5,-6.149 7.68,-6.12 2.293,-0.029 3.587,0.341 7.08,3.24"
       inkscape:connector-curvature="0"
       id="path46" /><path
       d="m 195.45,133.23 h 12.72 c -0.22,3.087 -3.302,5.861 -6.36,5.88 -3.168,-0.019 -5.819,-2.484 -6.36,-5.88"
       inkscape:connector-curvature="0"
       id="path48"
       style="fill:#ffffff" /><path
       d="M 73.41,69.27 V 59.43 H 51.21 V 47.79 H 77.73 V 36.63 H 40.29 V 90.99 H 75.21 V 80.67 h -24 v -11.4 h 22.2"
       inkscape:connector-curvature="0"
       id="path50" /><path
       d="m 92.49,90.99 h 12 l 24.72,-36.48 v 36.48 h 10.92 V 36.63 H 128.25 L 103.41,73.11 V 36.63 H 92.49 v 54.36"
       inkscape:connector-curvature="0"
       id="path52" /><path
       d="M 202.53,64.47 C 202.58,47.988 190.76,36.636 177.09,36.63 h -19.68 v 54.36 h 21.12 c 13.78,0.009 24.05,-10.879 24,-26.52"
       inkscape:connector-curvature="0"
       id="path54" /><path
       d="m 191.25,64.47 c -0.021,13.324 -8.979,15.95 -13.56,15.96 h -8.88 V 47.67 h 7.68 c 9.102,0.009 14.739,5.646 14.76,16.8"
       inkscape:connector-curvature="0"
       id="path56"
       style="fill:#ffffff" /><path
       d="m 243.93,52.11 c 0.003,2.982 -1.232,4.912 -7.08,6.12 l -9.24,1.92 c -5.453,1.042 -12.634,5.753 -12.6,14.88 -0.034,8.71 7.919,17.127 20.64,17.16 0,0 14.306,-0.033 21.48,-8.52 l -7.92,-7.8 c -6.358,5.477 -13.92,5.52 -13.92,5.52 -4.948,-0.043 -7.882,-2.437 -7.92,-6 0.038,-2.846 2.123,-4.7 11.52,-6 10.294,-1.402 17.321,-7.812 17.4,-16.8 0.076,-7.614 -4.171,-17.189 -23.04,-17.16 -10.707,-0.029 -15.726,2.828 -23.16,10.32 l 9.24,7.08 c 5.144,-4.997 8.696,-6.541 14.52,-6.6 6.145,0.059 10.083,1.912 10.08,5.88"
       inkscape:connector-curvature="0"
       id="path58" /><path
       d="m 38.01,313.23 h -6.48 l 255.24,255.24 v -6.48 L 38.01,313.23"
       inkscape:connector-curvature="0"
       id="path60" /><path
       d="m 25.05,313.23 h -6.6 l 268.32,268.32 v -6.48 L 25.05,313.23"
       inkscape:connector-curvature="0"
       id="path62" /><path
       d="m 13.17,314.55 c -1.28,0.823 -2.316,2.067 -2.88,3.48 l 272.64,272.76 c 1.358,-0.791 2.454,-1.971 3.12,-3.36 L 13.17,314.55"
       inkscape:connector-curvature="0"
       id="path64" /><path
       d="m 9.69,324.03 v 6.6 l 261.12,261.12 h 6.48 L 9.69,324.03"
       inkscape:connector-curvature="0"
       id="path66" /><path
       d="m 9.69,337.11 v 6.6 l 248.04,248.04 h 6.6 L 9.69,337.11"
       inkscape:connector-curvature="0"
       id="path68" /></g></svg>