<?xml version="1.0" encoding="UTF-8" standalone="no"?>
<!-- Created with Inkscape (http://www.inkscape.org/) -->

<svg
   xmlns:dc="http://purl.org/dc/elements/1.1/"
   xmlns:cc="http://creativecommons.org/ns#"
   xmlns:rdf="http://www.w3.org/1999/02/22-rdf-syntax-ns#"
   xmlns:svg="http://www.w3.org/2000/svg"
   xmlns="http://www.w3.org/2000/svg"
   xmlns:sodipodi="http://sodipodi.sourceforge.net/DTD/sodipodi-0.dtd"
   xmlns:inkscape="http://www.inkscape.org/namespaces/inkscape"
   version="1.1"
   width="255.15839"
   height="331"
   id="svg2"
   xml:space="preserve"
   inkscape:version="0.48.2 r9819"
   sodipodi:docname="UK traffic sign 674.svg"><sodipodi:namedview
     pagecolor="#ffffff"
     bordercolor="#666666"
     borderopacity="1"
     objecttolerance="10"
     gridtolerance="10"
     guidetolerance="10"
     inkscape:pageopacity="0"
     inkscape:pageshadow="2"
     inkscape:window-width="1680"
     inkscape:window-height="922"
     id="namedview16"
     showgrid="false"
     showguides="true"
     inkscape:guide-bbox="true"
     fit-margin-top="0"
     fit-margin-left="0"
     fit-margin-right="0"
     fit-margin-bottom="0"
     inkscape:zoom="1.4118633"
     inkscape:cx="161.66683"
     inkscape:cy="171.44455"
     inkscape:window-x="0"
     inkscape:window-y="24"
     inkscape:window-maximized="1"
     inkscape:current-layer="svg2" /><defs
     id="defs17" /><metadata
     id="metadata8"><rdf:RDF><cc:Work
         rdf:about=""><dc:format>image/svg+xml</dc:format><dc:type
           rdf:resource="http://purl.org/dc/dcmitype/StillImage" /><dc:title></dc:title></cc:Work></rdf:RDF></metadata><path
     style="fill:#000000;fill-opacity:1"
     d="M 9.9009895,0 245.2574,0 c 5.48514,0 9.90099,4.4158413 9.90099,9.9009895 l 0,311.1980205 c 0,5.48515 -4.41585,9.90099 -9.90099,9.90099 L 9.9009895,331 C 4.4158413,331 0,326.58416 0,321.09901 L 0,9.9009895 C 0,4.4158413 4.4158413,0 9.9009895,0 z"
     id="rect3771" /><path
     style="fill:#ffffff;fill-rule:evenodd"
     id="path18"
     inkscape:connector-curvature="0"
     d="m 248.8315,12.177503 c 0,-3.4249998 -2.88125,-6.3049994 -6.48,-6.3049994 l -229.612503,0.0125 c -0.05862,-0.00625 -0.119625,-0.00625 -0.173375,-0.00625 -3.4814996,0 -6.3061246,2.8262496 -6.3061246,6.3049994 V 318.45875 c 0,3.60375 2.880875,6.485 6.4843746,6.485 H 242.35637 c 3.59875,0 6.48,-2.88125 6.48,-6.485 V 12.183753" /><path
     style="fill:#ec1d24;fill-opacity:1;fill-rule:evenodd"
     id="path20"
     inkscape:connector-curvature="0"
     d="m 127.2565,20.652503 c 58.6525,0 106.25,47.595 106.25,106.237497 0,58.6375 -47.5975,106.23125 -106.25,106.23125 -58.647503,0 -106.247503,-47.59375 -106.247503,-106.23125 0,-58.642497 47.6,-106.237497 106.247503,-106.237497" /><path
     style="fill:#ffffff;fill-rule:evenodd"
     id="path22"
     inkscape:connector-curvature="0"
     d="m 127.4815,42.040003 c 47.0225,0 85.18125,38.07375 85.18125,84.987497 0,46.915 -38.15875,84.98625 -85.18125,84.98625 -47.018753,0 -85.177503,-38.07125 -85.177503,-84.98625 0,-46.913747 38.15875,-84.987497 85.177503,-84.987497" /><path
     style="fill:#231f20;fill-rule:evenodd"
     id="path24"
     inkscape:connector-curvature="0"
     d="m 169.9565,101.315 c 8.28625,0 16.7525,4.86375 17.11,25.57125 0.18,20.5225 -7.56375,26.82625 -17.11,26.82625 -9.54625,0 -17.29,-6.30375 -17.10875,-26.82625 0.36625,-20.7075 8.6475,-25.57125 17.10875,-25.57125 m 0,-14.764997 c 11.3475,-0.18125 33.315,6.30375 33.315,40.873747 0,34.39 -20.7075,41.235 -33.315,41.235 -12.6025,0 -33.49625,-6.845 -33.49625,-41.235 0,-34.569997 22.15375,-41.054997 33.49625,-40.873747" /><path
     style="fill:#231f20;fill-rule:evenodd"
     id="path26"
     inkscape:connector-curvature="0"
     d="m 76.851497,116.615 h -16.38625 c -0.358875,-14.40375 7.746625,-31.867497 32.05625,-31.867497 23.772503,0 28.996253,20.349997 28.996253,27.551247 0,7.2025 -0.72263,21.245 -30.437503,39.43375 H 120.609 v 14.21875 H 63.165247 v -14.76 c 25.215,-17.29 41.598753,-25.92875 41.598753,-37.8125 0,-6.66125 -5.578633,-13.867499 -14.582503,-13.867499 -9.006375,0 -13.33,8.644999 -13.33,17.103749" /><path
     style="fill:#231f20;fill-rule:evenodd"
     id="path28"
     inkscape:connector-curvature="0"
     d="M 203.6315,251.84 H 188.149 v 47.535 h 32.23125 v -8.81875 h -23.0475 v -10.625 h 19.44375 v -8.82375 h -19.44375 v -10.43875 h 21.6075 V 251.84 H 203.6315" /><path
     style="fill:#231f20;fill-rule:evenodd"
     id="path30"
     inkscape:connector-curvature="0"
     d="m 136.1065,251.84 h 3.59875 l 23.4075,32.77375 V 251.84 h 9.185 v 47.715 h -10.8 L 140.0665,267.1475 v 32.4075 h -9.54625 V 251.84 h 5.58625" /><path
     style="fill:#231f20;fill-rule:evenodd"
     id="path32"
     inkscape:connector-curvature="0"
     d="m 95.940247,260.49 c -6.4795,0 -12.605,5.03875 -12.605,15.3025 0,10.44 6.484375,15.48875 12.605,15.48875 6.303753,0 12.602503,-5.04875 12.602503,-15.48875 0,-10.26375 -6.11812,-15.3025 -12.602503,-15.3025 m 0,-9.365 c -9.003875,0 -22.51,7.1975 -22.51,24.4875 0,17.285 13.145,24.4875 22.51,24.4875 9.545883,0 22.510003,-7.2025 22.510003,-24.4875 0,-17.29 -13.325,-24.4875 -22.510003,-24.4875" /><path
     style="fill:#231f20;fill-rule:evenodd"
     id="path34"
     inkscape:connector-curvature="0"
     d="m 47.681497,251.84 h -15.67125 v 8.4675 h 21.07125 l -21.97,29.8875 v 9.18 h 34.395 v -9.18 h -22.87125 l 22.15125,-29.8875 V 251.84 h -17.105" /></svg>