<?xml version="1.0" encoding="UTF-8" standalone="no"?>
<!-- Created with Inkscape (http://www.inkscape.org/) -->

<svg
   xmlns:dc="http://purl.org/dc/elements/1.1/"
   xmlns:cc="http://creativecommons.org/ns#"
   xmlns:rdf="http://www.w3.org/1999/02/22-rdf-syntax-ns#"
   xmlns:svg="http://www.w3.org/2000/svg"
   xmlns="http://www.w3.org/2000/svg"
   xmlns:inkscape="http://www.inkscape.org/namespaces/inkscape"
   version="1.1"
   width="212.42"
   height="212.39"
   id="svg2"
   xml:space="preserve"><metadata
     id="metadata8"><rdf:RDF><cc:Work
         rdf:about=""><dc:format>image/svg+xml</dc:format><dc:type
           rdf:resource="http://purl.org/dc/dcmitype/StillImage" /></cc:Work></rdf:RDF></metadata><defs
     id="defs6"><clipPath
       id="clipPath16"><path
         d="M 0.059998,169.98 H 170 V 0.06 H 0.059998 v 169.92 z"
         inkscape:connector-curvature="0"
         id="path18" /></clipPath></defs><g
     transform="matrix(1.25,0,0,-1.25,-0.074998,212.47)"
     id="g10"><g
       id="g12"><g
         clip-path="url(#clipPath16)"
         id="g14"><path
           d="m 85,169.98 c 46.918,0 85,-38.076 85,-84.988 C 170,38.075 131.92,0 85,0 38.08,0 0,38.075 0,84.987 c 0,46.912 38.08,84.988 85,84.988"
           inkscape:connector-curvature="0"
           id="path20"
           style="fill:#ec1d24;fill-rule:evenodd" /></g></g><path
       d="m 85,153.04 c 37.535,0 68,-30.461 68,-67.993 0,-37.531 -30.465,-67.988 -68,-67.988 -37.537,0 -68,30.457 -68,67.988 0,37.532 30.463,67.993 68,67.993"
       inkscape:connector-curvature="0"
       id="path22"
       style="fill:#ffffff;fill-rule:evenodd" /><path
       d="m 62.66,84.575 c 0,2.736 -2.015,5.041 -4.752,5.041 -2.74,0 -4.9,-2.305 -4.9,-5.041 0,-2.735 2.015,-5.184 4.9,-5.184 1.727,0 4.752,1.441 4.752,5.184 m -0.289,11.957 c 1.729,0.72 3.606,1.439 5.477,2.16 -1.297,3.023 -3.172,6.051 -9.94,6.051 -6.773,0 -11.672,-4.899 -11.672,-15.416 0,-5.471 2.16,-9.506 3.748,-11.67 1.44,-2.016 4.895,-3.598 8.211,-3.598 3.313,0 10.373,1.871 10.373,10.516 0,8.789 -6.629,10.373 -9.507,10.373 -3.03,0 -5.622,-1.297 -6.485,-2.16 0,4.607 3.168,6.48 5.188,6.48 2.16,0 3.455,-0.721 4.607,-2.736"
       inkscape:connector-curvature="0"
       id="path24"
       style="fill:#231f20;fill-rule:evenodd" /><path
       d="m 81.32,89.475 v 4.32"
       inkscape:connector-curvature="0"
       id="path26"
       style="fill:none;stroke:#231f20;stroke-width:9.36400032;stroke-miterlimit:10" /><path
       d="M 77.355,105.9 72.6,97.832 h 4.9 l 4.752,8.068 h -4.897"
       inkscape:connector-curvature="0"
       id="path28"
       style="fill:#231f20;fill-rule:evenodd" /><path
       d="m 123.17,105.9 -4.609,-8.068 h 4.898 l 4.609,8.068 h -4.898"
       inkscape:connector-curvature="0"
       id="path30"
       style="fill:#231f20;fill-rule:evenodd" /><path
       d="m 130.95,105.9 -4.758,-8.068 h 5.047 l 4.61,8.068 h -4.899"
       inkscape:connector-curvature="0"
       id="path32"
       style="fill:#231f20;fill-rule:evenodd" /><path
       d="m 108.76,84.575 c 0,2.736 -2.016,5.041 -4.754,5.041 -2.738,0 -4.754,-2.305 -4.754,-5.041 0,-2.735 1.875,-5.184 4.754,-5.184 1.871,0 4.754,1.441 4.754,5.184 m -0.289,11.957 c 1.73,0.72 3.601,1.439 5.476,2.16 -1.297,3.023 -3.172,6.051 -9.941,6.051 -6.77,0 -11.668,-4.899 -11.668,-15.416 0,-5.471 2.16,-9.506 3.742,-11.67 1.441,-2.016 4.898,-3.598 8.211,-3.598 3.461,0 10.52,1.871 10.52,10.516 0,8.789 -6.774,10.373 -9.653,10.373 -3.023,0 -5.621,-1.297 -6.484,-2.16 0,4.607 3.172,6.48 5.332,6.48 2.16,0 3.312,-0.721 4.465,-2.736"
       inkscape:connector-curvature="0"
       id="path34"
       style="fill:#231f20;fill-rule:evenodd" /><path
       d="M 22.9,101.86 43.211,84.864 22.9,67.868 v 33.992"
       inkscape:connector-curvature="0"
       id="path36"
       style="fill:#231f20;fill-rule:evenodd" /><path
       d="m 146.51,68.157 -20.317,17.138 20.317,16.996 V 68.157"
       inkscape:connector-curvature="0"
       id="path38"
       style="fill:#231f20;fill-rule:evenodd" /></g></svg>