<?xml version="1.0" encoding="UTF-8" standalone="no"?>
<!-- Created with Inkscape (http://www.inkscape.org/) -->
<svg xmlns:dc="http://purl.org/dc/elements/1.1/" xmlns:cc="http://creativecommons.org/ns#" xmlns:rdf="http://www.w3.org/1999/02/22-rdf-syntax-ns#" xmlns:svg="http://www.w3.org/2000/svg" xmlns="http://www.w3.org/2000/svg" xmlns:inkscape="http://www.inkscape.org/namespaces/inkscape" version="1.1" width="385.89999" height="207.41" id="svg2" xml:space="preserve"><metadata id="metadata8"><rdf:RDF><cc:Work rdf:about=""><dc:format>image/svg+xml</dc:format><dc:type rdf:resource="http://purl.org/dc/dcmitype/StillImage"/></cc:Work></rdf:RDF></metadata><defs id="defs6"><clipPath id="clipPath16"><path d="M 0.014999,165.93 H 308.735 V 0 H 0.014999 v 165.93 z" inkscape:connector-curvature="0" id="path18"/></clipPath></defs><g transform="matrix(1.25,0,0,-1.25,-0.018749,207.41)" id="g10"><g id="g12"><g clip-path="url(#clipPath16)" id="g14"><g transform="translate(12.824,165.94)" id="g20"><path d="m 0,0 c -7.0605,0 -12.824,-5.76 -12.824,-12.818 v -140.3 c 0,-7.059 5.7635,-12.82 12.824,-12.82 h 283.23 c 7.062,0 12.683,5.761 12.683,12.82 v 140.3 c 0,7.06 -5.62,12.82 -12.68,12.82 H 0.003" inkscape:connector-curvature="0" id="path22" style="fill:#231f20;fill-rule:evenodd"/></g></g></g><g transform="translate(12.824,159.46)" id="g24"><path d="m 0,0 c -3.6035,0 -6.3398,-2.736 -6.3398,-6.34 v -140.3 c 0,-3.598 2.7363,-6.484 6.3398,-6.484 h 283.23 c 3.457,0 6.34,2.886 6.34,6.484 v 140.3 c 0,3.604 -2.883,6.34 -6.34,6.34 H 0" inkscape:connector-curvature="0" id="path26" style="fill:#ffffff;fill-rule:evenodd"/></g><g transform="translate(54.168,40.765)" id="g28"><path d="M 0,0 H -3.455 V -15.125 H 0 c 2.885,0 6.484,1.875 6.484,7.492 C 6.484,-1.871 2.885,0 0,0 m 0.145,4.324 h -8.356 v -23.769 h 8.356 c 6.339,0 11.095,4.18 11.095,11.812 0,8.067 -5.619,11.957 -11.095,11.957" inkscape:connector-curvature="0" id="path30" style="fill:#231f20;fill-rule:evenodd"/></g><g transform="translate(213.08,33.711)" id="g32"><path d="m 0,0 -4.039,-1.297 c -0.43,1.152 -1.582,2.734 -3.453,2.734 -1.879,0 -4.039,-1.871 -4.039,-5.477 0,-3.597 2.019,-5.468 4.039,-5.468 2.016,0 3.168,2.015 3.453,3.023 l 4.324,-1.008 c -0.429,-2.16 -3.172,-5.906 -7.636,-5.906 -4.465,0 -8.5,3.602 -8.5,9.359 0,5.766 4.464,9.223 8.214,9.223 C -3.894,5.183 -0.871,2.734 0,0" inkscape:connector-curvature="0" id="path34" style="fill:#231f20;fill-rule:evenodd"/></g><g transform="translate(72.105,21.179)" id="g36"><path d="M 0,0 V 17.141" inkscape:connector-curvature="0" id="path38" style="fill:none;stroke:#231f20;stroke-width:4.46799994;stroke-miterlimit:10"/></g><g transform="translate(71.936,45.125)" id="g40"><path d="m 0,0 c 1.354,0 2.449,-1.094 2.449,-2.446 0,-1.351 -1.095,-2.449 -2.449,-2.449 -1.352,0 -2.447,1.098 -2.447,2.449 C -2.447,-1.094 -1.352,0 0,0" inkscape:connector-curvature="0" id="path42" style="fill:#231f20;fill-rule:evenodd"/></g><g transform="translate(221,37.023)" id="g44"><path d="M 0,0 V 7.922 H -4.32 V -15.703 H 0 v 4.609 l 1.875,1.875 4.32,-6.484 h 5.477 l -6.773,9.508 7.062,7.343 H 6.051 L 0,-5.187 V 0" inkscape:connector-curvature="0" id="path46" style="fill:#231f20;fill-rule:evenodd"/></g><g transform="translate(124.47,21.179)" id="g48"><path d="M 0,0 -0.578,4.032 C -2.592,3.453 -3.6,3.887 -3.6,4.895 V 23.766 H -8.069 V 3.024 c 0,-1.727 1.157,-3.602 4.469,-3.602 C -1.873,-0.578 0,0 0,0" inkscape:connector-curvature="0" id="path50" style="fill:#231f20;fill-rule:evenodd"/></g><g transform="translate(100.27,31.687)" id="g52"><path d="m 0,0 v -3.164 c 0,-1.727 1.151,-3.457 3.743,-3.457 2.593,0 4.033,2.305 4.033,5.039 0,2.738 -1.44,5.043 -4.033,5.043 C 1.151,3.461 0,1.59 0,0 M 0,5.91 V 6.633 H -4.468 V -15.266 H 0 v 6.055 c 0,0 1.44,-1.73 4.608,-1.73 6.051,0 7.779,6.48 7.779,9.215 0,2.164 -0.863,4.613 -2.16,6.195 C 8.932,5.91 7.2,7.207 4.463,7.352 2.879,7.352 1.151,6.633 0,5.91" inkscape:connector-curvature="0" id="path54" style="fill:#231f20;fill-rule:evenodd"/></g><g transform="translate(77.365,24.058)" id="g56"><path d="M 0,0 3.455,2.879 C 4.611,1.442 7.203,0.145 8.356,0.145 c 1.152,0 2.304,0.863 2.304,1.726 0,0.867 -0.72,1.297 -1.297,1.442 C 8.787,3.457 6.483,4.031 6.051,4.176 5.619,4.32 1.44,5.039 1.44,9.074 c 0,4.321 4.611,5.329 7.203,5.329 2.591,0 5.045,-0.719 6.916,-2.446 L 12.818,8.934 C 11.092,10.371 9.94,10.805 8.643,10.805 7.348,10.805 6.34,10.371 6.34,9.363 6.34,8.211 7.059,8.211 7.49,8.067 7.779,7.918 10.66,7.344 11.379,7.199 12.1,7.055 15.416,6.047 15.416,2.016 15.416,-1.871 11.811,-3.457 8.211,-3.457 4.756,-3.457 1.15,-1.582 0,0" inkscape:connector-curvature="0" id="path58" style="fill:#231f20;fill-rule:evenodd"/></g><g transform="translate(136.43,28.953)" id="g60"><path d="m 0,0 v -3.164 c 0,-1.297 -2.45,-1.297 -2.887,-1.297 -0.43,0 -3.024,0 -3.024,2.156 C -5.911,-0.141 -2.743,0 0,0 m 4.461,-3.164 v 8.929 c 0,2.305 -2.157,4.032 -6.911,4.032 -3.746,0 -6.195,-1.586 -7.058,-2.161 L -7.637,4.324 C -6.196,5.336 -3.172,5.91 -1.875,5.91 -0.579,5.91 0,5.047 0,4.468 V 3.461 c -1.442,0 -5.188,-0.578 -6.774,-1.157 -1.297,-0.429 -3.742,-1.437 -3.742,-4.894 0,-3.313 3.453,-5.617 7.055,-5.617 3.027,0 4.035,1.73 4.035,1.73 0,0 1.441,-1.73 4.031,-1.875 L 6.484,-4.75 C 4.32,-4.321 4.461,-3.602 4.461,-3.164" inkscape:connector-curvature="0" id="path62" style="fill:#231f20;fill-rule:evenodd"/></g><g transform="translate(154.01,18.437)" id="g64"><path d="M 0,0 6.918,19.883 H 2.16 L -1.297,9.367 -4.613,19.883 h -4.75 L -3.746,3.606 c 0.429,-1.153 0,-2.454 -2.449,-2.165 l -1.442,0.145 -0.574,-3.746 2.59,-0.434 C -2.305,-3.023 -0.719,-1.871 0,0" inkscape:connector-curvature="0" id="path66" style="fill:#231f20;fill-rule:evenodd"/></g><g transform="translate(185.7,21.609)" id="g68"><path d="M 0,0 -0.863,3.742 C -4.031,2.734 -4.894,3.602 -4.894,4.465 v 8.355 h 4.465 v 3.891 h -4.465 v 6.769 l -4.325,-1.3 v -5.469 h -2.734 V 12.82 h 2.734 V 2.883 c 0,-2.164 1.301,-3.746 4.614,-3.746 2.301,0 4.031,0.722 4.605,0.863" inkscape:connector-curvature="0" id="path70" style="fill:#231f20;fill-rule:evenodd"/></g><g transform="translate(191.18,21.179)" id="g72"><path d="M 0,0 V 17.141" inkscape:connector-curvature="0" id="path74" style="fill:none;stroke:#231f20;stroke-width:4.32399988;stroke-miterlimit:10"/></g><g transform="translate(191.04,45.125)" id="g76"><path d="m 0,0 c 1.352,0 2.449,-1.094 2.449,-2.446 0,-1.351 -1.097,-2.449 -2.449,-2.449 -1.351,0 -2.445,1.098 -2.445,2.449 C -2.445,-1.094 -1.351,0 0,0" inkscape:connector-curvature="0" id="path78" style="fill:#231f20;fill-rule:evenodd"/></g><g transform="translate(239.59,31.546)" id="g80"><path d="M 0,0 H 6.766 C 6.766,1.586 5.469,3.317 3.453,3.317 1.293,3.317 0,1.731 0,0 m 0,-3.457 h 11.234 c 0.145,2.161 -0.718,10.805 -7.925,10.805 -6.34,0 -7.778,-6.918 -7.778,-9.074 0,-2.164 1.297,-9.074 8.356,-9.074 3.89,0 6.05,2.304 6.484,2.879 L 7.633,-5.328 H 7.629 c 0,0 -1.149,-1.586 -3.742,-1.586 C 1.293,-6.914 0,-5.039 0,-3.457" inkscape:connector-curvature="0" id="path82" style="fill:#231f20;fill-rule:evenodd"/></g><g transform="translate(265.52,21.609)" id="g84"><path d="M 0,0 -0.719,3.742 C -3.891,2.734 -4.754,3.602 -4.754,4.465 v 8.355 h 4.465 v 3.891 h -4.465 v 6.769 l -4.321,-1.3 v -5.469 h -2.886 V 12.82 h 2.886 V 2.883 c 0,-2.164 1.297,-3.746 4.606,-3.746 2.305,0 4.039,0.722 4.469,0.863" inkscape:connector-curvature="0" id="path86" style="fill:#231f20;fill-rule:evenodd"/></g><g transform="translate(144.36,132.24)" id="g88"><path d="m 0,0 h -4.753 v -6.772 h 4.609 c 2.16,0 3.746,1.727 3.746,3.456 C 3.602,-1.732 2.161,0 0,0 M 1.586,4.32 H -9.363 v -23.912 h 4.61 v 8.5 h 5.476 c 5.039,0 7.633,3.744 7.633,7.776 0,4.037 -2.738,7.636 -6.77,7.636" inkscape:connector-curvature="0" id="path90" style="fill:#231f20;fill-rule:evenodd"/></g><g transform="translate(165.39,120.42)" id="g92"><path d="m 0,0 v -3.172 c 0,-1.295 -2.59,-1.295 -2.879,-1.295 -0.43,0 -3.172,0 -3.172,2.16 C -6.051,-0.145 -2.735,0 0,0 M 4.468,-3.172 V 5.76 c 0,2.304 -2.308,4.033 -6.914,4.033 -3.75,0 -6.339,-1.584 -7.203,-2.16 L -7.778,4.32 c 1.438,1.008 4.61,1.584 5.907,1.584 C -0.574,5.904 0,5.041 0,4.465 V 3.457 c -1.582,0 -5.332,-0.721 -6.77,-1.152 -1.441,-0.432 -3.746,-1.44 -3.746,-4.901 0,-3.312 3.457,-5.615 6.918,-5.615 3.024,0 4.031,1.727 4.031,1.727 0,0 1.586,-1.727 4.18,-1.872 l 1.727,3.6 c -2.016,0.432 -1.872,1.152 -1.872,1.584" inkscape:connector-curvature="0" id="path94" style="fill:#231f20;fill-rule:evenodd"/></g><g transform="translate(227.48,123.02)" id="g96"><path d="M 0,0 H 6.915 C 6.915,1.584 5.622,3.312 3.461,3.312 1.297,3.312 0,1.729 0,0 m 0,-3.455 h 11.239 c 0.289,2.16 -0.578,10.656 -7.778,10.656 -6.484,0 -7.781,-6.769 -7.781,-8.928 0,-2.164 1.297,-9.076 8.211,-9.076 4.035,0 6.051,2.16 6.625,2.879 l -2.734,2.592 c 0,0 -1.297,-1.584 -3.746,-1.584 C 1.442,-6.916 0,-5.043 0,-3.455" inkscape:connector-curvature="0" id="path98" style="fill:#231f20;fill-rule:evenodd"/></g><g transform="translate(208.03,128.78)" id="g100"><path d="M 0,0 V 7.637 H -4.465 V -16.131 H 0 v 10.084 c 0,1.584 1.442,3.024 3.024,3.024 1.59,0 3.316,-1.008 3.316,-3.024 v -10.084 h 4.32 v 11.668 c 0,3.313 -2.878,5.76 -6.191,5.76 C 1.586,1.297 0.578,0.289 0,0" inkscape:connector-curvature="0" id="path102" style="fill:#231f20;fill-rule:evenodd"/></g><g transform="translate(252.84,125.9)" id="g104"><path d="M 0,0 V 4.176 C -4.176,4.32 -4.75,3.168 -5.762,2.16 v 1.729 h -4.465 v -17.141 h 4.465 v 8.5 C -5.762,-2.16 -3.023,0 0,0" inkscape:connector-curvature="0" id="path106" style="fill:#231f20;fill-rule:evenodd"/></g><g transform="translate(182.82,109.91)" id="g108"><path d="M 0,0 6.918,19.877 H 2.16 L -1.152,9.363 -4.609,19.877 H -9.363 L -3.742,3.6 c 0.43,-1.153 0,-2.448 -2.453,-2.16 l -1.441,0.144 -0.575,-3.889 2.59,-0.287 C -2.304,-3.023 -0.718,-1.871 0,0" inkscape:connector-curvature="0" id="path110" style="fill:#231f20;fill-rule:evenodd"/></g><g transform="translate(260.62,123.02)" id="g112"><path d="M 0,0 H 6.77 C 6.77,1.584 5.621,3.312 3.457,3.312 1.297,3.312 0,1.729 0,0 m 0,-3.455 h 11.235 c 0.144,2.16 -0.719,10.656 -7.922,10.656 -6.336,0 -7.778,-6.769 -7.778,-8.928 0,-2.164 1.297,-9.076 8.207,-9.076 4.036,0 6.196,2.16 6.629,2.879 l -2.734,2.592 c 0,0 -1.152,-1.584 -3.75,-1.584 C 1.297,-6.916 0,-5.043 0,-3.455" inkscape:connector-curvature="0" id="path114" style="fill:#231f20;fill-rule:evenodd"/></g><g transform="translate(183.25,90.318)" id="g116"><path d="m 0,0 v -11.67 h -4.465 v 10.518 c 0,1.584 -1.301,2.736 -2.598,2.736 -1.437,0 -3.023,-1.297 -3.023,-3.313 v -9.941 h -4.469 v 10.518 c 0,1.584 -1.293,2.736 -2.445,2.736 -1.297,0 -3.168,-1.008 -3.168,-3.313 v -9.941 h -4.324 V 5.477 h 4.324 V 4.469 c 0,0 1.582,1.15 4.461,1.15 2.598,0 4.18,-1.73 4.18,-1.73 0,0 1.875,1.875 4.753,1.875 C -2.449,5.764 0,2.736 0,0" inkscape:connector-curvature="0" id="path118" style="fill:#231f20;fill-rule:evenodd"/></g><g transform="translate(144.79,79.082)" id="g120"><path d="M 0,0 -0.863,3.746 C -4.035,2.738 -4.902,3.606 -4.902,4.324 v 8.496 h 4.468 v 3.893 h -4.468 v 6.623 l -4.317,-1.152 v -5.471 h -2.742 V 12.82 h 2.742 V 2.887 c 0,-2.164 1.293,-3.895 4.606,-3.895 2.304,0 4.035,0.864 4.613,1.008" inkscape:connector-curvature="0" id="path122" style="fill:#231f20;fill-rule:evenodd"/></g><g transform="translate(124.33,86.429)" id="g124"><path d="m 0,0 v -3.312 c 0,-1.149 -2.447,-1.149 -2.879,-1.149 -0.433,0 -3.025,0 -3.025,2.014 C -5.904,-0.143 -2.736,0 0,0 M 4.469,-3.168 V 5.76 c 0,2.308 -2.16,4.037 -6.916,4.037 -3.744,0 -6.197,-1.584 -7.205,-2.16 L -7.779,4.32 c 1.588,1.008 4.611,1.584 5.908,1.584 C -0.574,5.904 0,4.897 0,4.465 V 3.457 c -1.584,0 -5.328,-0.721 -6.767,-1.152 -1.444,-0.432 -3.748,-1.44 -3.748,-4.897 0,-3.459 3.46,-5.619 7.06,-5.619 2.881,0 3.889,1.727 3.889,1.727 0,0 1.586,-1.727 4.179,-1.871 l 1.727,3.597 c -2.016,0.297 -1.871,1.016 -1.871,1.59" inkscape:connector-curvature="0" id="path126" style="fill:#231f20;fill-rule:evenodd"/></g><g transform="translate(278.77,89.021)" id="g128"><path d="M 0,0 H 6.914 C 6.914,1.584 5.617,3.313 3.457,3.313 1.296,3.313 0,1.584 0,0 m 0,-3.455 h 11.378 c 0.145,2.16 -0.718,10.66 -8.066,10.66 -6.336,0 -7.777,-6.771 -7.777,-8.932 0,-2.16 1.297,-9.22 8.355,-9.22 4.031,0 6.047,2.304 6.625,2.879 l -2.738,2.74 c 0,0 -1.293,-1.584 -3.887,-1.584 -2.453,0 -3.89,1.728 -3.89,3.457" inkscape:connector-curvature="0" id="path130" style="fill:#231f20;fill-rule:evenodd"/></g><g transform="translate(197.66,86.429)" id="g132"><path d="m 0,0 v -3.312 c 0,-1.149 -2.59,-1.149 -2.883,-1.149 -0.433,0 -3.168,0 -3.168,2.014 C -6.051,-0.143 -2.738,0 0,0 M 4.465,-3.168 V 5.76 c 0,2.308 -2.305,4.037 -6.914,4.037 -3.746,0 -6.34,-1.584 -7.203,-2.16 L -7.781,4.32 c 1.441,1.008 4.609,1.584 5.91,1.584 C -0.574,5.904 0,4.897 0,4.465 V 3.457 c -1.582,0 -5.332,-0.721 -6.773,-1.152 -1.438,-0.576 -3.742,-1.44 -3.742,-4.897 0,-3.459 3.457,-5.619 6.91,-5.619 3.031,0 4.039,1.727 4.039,1.727 0,0 1.582,-1.727 4.176,-1.871 l 1.73,3.597 c -2.02,0.297 -1.875,1.016 -1.875,1.59" inkscape:connector-curvature="0" id="path134" style="fill:#231f20;fill-rule:evenodd"/></g><g transform="translate(222.01,91.181)" id="g136"><path d="m 0,0 -4.035,-1.439 c -0.434,1.297 -1.586,2.736 -3.457,2.736 -1.871,0 -4.036,-1.729 -4.036,-5.328 0,-3.6 2.02,-5.479 4.036,-5.479 2.015,0 3.168,1.879 3.457,2.887 l 4.324,-0.865 c -0.578,-2.162 -3.172,-5.905 -7.637,-5.905 -4.469,0 -8.5,3.598 -8.5,9.362 0,5.76 4.465,9.221 8.211,9.221 C -3.891,5.19 -0.863,2.592 0,0" inkscape:connector-curvature="0" id="path138" style="fill:#231f20;fill-rule:evenodd"/></g><g transform="translate(247.79,78.656)" id="g140"><path d="M 0,0 V 16.994" inkscape:connector-curvature="0" id="path142" style="fill:none;stroke:#231f20;stroke-width:4.32399988;stroke-miterlimit:10"/></g><g transform="translate(247.62,102.42)" id="g144"><path d="m 0,0 c 1.352,0 2.449,-1.096 2.449,-2.447 0,-1.352 -1.097,-2.448 -2.449,-2.448 -1.351,0 -2.449,1.096 -2.449,2.448 C -2.449,-1.096 -1.351,0 0,0" inkscape:connector-curvature="0" id="path146" style="fill:#231f20;fill-rule:evenodd"/></g><g transform="translate(229.78,94.787)" id="g148"><path d="m 0,0 v 7.631 h -4.465 v -23.77 H 0 v 10.086 c 0,1.584 1.442,3.024 3.028,3.024 1.582,0 3.312,-1.008 3.312,-3.024 v -10.086 h 4.324 v 11.67 C 10.664,-1.156 7.781,1.15 4.61,1.15 1.731,1.15 0.578,0.287 0,0" inkscape:connector-curvature="0" id="path150" style="fill:#231f20;fill-rule:evenodd"/></g><g transform="translate(270.27,89.886)" id="g152"><path d="m 0,0 v -11.238 h -4.465 v 10.662 c 0,1.295 -1.008,2.592 -2.883,2.592 -1.875,0 -3.602,-1.584 -3.602,-3.889 v -9.365 h -4.324 V 5.764 h 4.324 V 4.611 c 0,0 1.871,1.584 4.321,1.584 C -2.739,6.195 0,3.023 0,0" inkscape:connector-curvature="0" id="path154" style="fill:#231f20;fill-rule:evenodd"/></g><g transform="translate(17,142.75)" id="g156"><path d="m 0,0 c 0,3.34 2.713,6.053 6.053,6.053 0.047,0 0.095,0 0.148,-0.004 l 72.891,0.004 c 3.316,0 6.053,-2.592 6.053,-6.053 v -72.883 c 0,-3.316 -2.737,-6.055 -6.053,-6.055 H 6.197 C 2.736,-78.938 0,-76.199 0,-72.883 V 0" inkscape:connector-curvature="0" id="path158" style="fill:#0079c1;fill-rule:evenodd"/></g><g transform="translate(68.144,127.19)" id="g160"><path d="m 0,0 h -15.129 v -18.291 h 14.985 c 3.58,0 6.484,2.904 6.484,6.48 l -0.149,5.332 c 0.004,0.047 0.004,0.096 0.004,0.143 C 6.195,-2.891 3.443,-0.08 0,0 M -28.668,10.518 H 6.34 c 7.473,0 13.541,-6.069 13.541,-13.541 l -0.145,-12.245 c 0,-7.476 -6,-13.539 -13.396,-13.539 h -21.469 v -25.351 h -13.539 v 64.676 -39.325" inkscape:connector-curvature="0" id="path162" style="fill:#ffffff;fill-rule:evenodd"/></g></g></svg>