<?xml version="1.0" encoding="UTF-8" standalone="no"?>
<!-- Created with Inkscape (http://www.inkscape.org/) -->

<svg
   xmlns:dc="http://purl.org/dc/elements/1.1/"
   xmlns:cc="http://creativecommons.org/ns#"
   xmlns:rdf="http://www.w3.org/1999/02/22-rdf-syntax-ns#"
   xmlns:svg="http://www.w3.org/2000/svg"
   xmlns="http://www.w3.org/2000/svg"
   xmlns:inkscape="http://www.inkscape.org/namespaces/inkscape"
   version="1.1"
   width="401.73999"
   height="355.04999"
   id="svg2"
   xml:space="preserve"><defs
     id="defs19" /><metadata
     id="metadata8"><rdf:RDF><cc:Work
         rdf:about=""><dc:format>image/svg+xml</dc:format><dc:type
           rdf:resource="http://purl.org/dc/dcmitype/StillImage" /></cc:Work></rdf:RDF></metadata><g
     transform="matrix(1.25,0,0,-1.25,-2.8766,355.61)"
     id="g10"><path
       d="m 302.85,0.45001 c 7.174,0.19849 14.112,4.0063 18,10.68 3.837,6.707 3.666,14.619 0.24,20.88 l -139.8,242.28 c -3.8,6.129 -10.566,10.234 -18.24,10.2 -7.777,0.034 -14.543,-4.071 -18.24,-10.2 L 4.89,32.01001 c -3.406,-6.261 -3.5771,-14.173 0.24,-20.88 3.9081,-6.6737 10.846,-10.482 18,-10.68 h 279.72"
       inkscape:connector-curvature="0"
       id="path12"
       style="fill:#ec1d24" /><path
       d="M 163.05,248.61 35.97,28.53 H 290.13 L 163.05,248.61"
       inkscape:connector-curvature="0"
       id="path14"
       style="fill:#ffffff" /><path
       d="m 137.37,185.01 25.68,-44.4 25.56,44.4 h -51.24"
       inkscape:connector-curvature="0"
       id="path16" /><path
       d="m 162.57,111.81 c 28.934,-0.011 54.807,-12.993 72.12,-33.48 l 0.12,-40.2 h 38.64 l -38.52,66.6 c -19.647,16.243 -44.848,26.02 -72.36,26.04 -27.455,-0.02 -52.656,-9.797 -72.24,-26.04 L 51.81,38.13 h 38.64 v 40.2 c 17.37,20.487 43.244,33.469 72.12,33.48"
       inkscape:connector-curvature="0"
       id="path18" /><path
       d="m 104.37,49.65 v 22.44 h -5.04 v 5.64 h 1.56 c 2.122,0.031 3.106,0.358 3.72,1.32 0.322,0.63 0.51,1.38 0.6,3.6 h 5.76 v -33 h -6.6"
       inkscape:connector-curvature="0"
       id="path20" /><path
       d="m 130.77,76.89 c -3.618,-0.019 -5.538,-2.127 -5.52,-6 v -0.96 h -7.32 v 1.08 c 0.044,8.343 4.867,12.417 12.6,12.36 8.142,0.057 12.871,-4.111 12.84,-11.16 0.031,-5.969 -1.748,-8.17 -9.84,-14.16 l -2.88,-2.16 h 12.12 v -6.24 h -24.48 v 6 c 18.228,11.481 17.619,12.979 17.64,16.32 -0.021,3.074 -1.894,4.901 -5.16,4.92"
       inkscape:connector-curvature="0"
       id="path22" /><path
       d="m 154.65,75.57 h -7.2 l 5.28,9.12 h 7.08 l -5.16,-9.12"
       inkscape:connector-curvature="0"
       id="path24" /><path
       d="m 186.33,75.81 c -0.893,0.873 -2.11,1.388 -3.6,1.44 -3.474,-0.052 -5.441,-2.487 -5.76,-7.2 2.473,1.857 4.018,2.419 6.6,2.4 6.784,0.019 10.998,-4.336 11.04,-11.4 -0.042,-2.582 -0.65,-4.877 -1.92,-6.96 -2.008,-3.489 -5.239,-5.128 -9.96,-5.16 -8.672,0.032 -13.214,5.838 -13.2,17.04 -0.014,11.556 4.575,17.41 13.56,17.4 5.906,0.01 9.371,-2.285 11.04,-7.44 l -6.36,-2.28 c -0.554,1.113 -0.881,1.629 -1.44,2.16"
       inkscape:connector-curvature="0"
       id="path26" /><path
       d="m 182.37,55.29 c 3.208,-0.007 5.362,2.288 5.4,5.76 -0.038,3.084 -2.192,5.378 -5.28,5.4 -3.234,-0.022 -5.482,-2.316 -5.52,-5.64 0.038,-3.326 2.286,-5.527 5.4,-5.52"
       inkscape:connector-curvature="0"
       id="path28"
       style="fill:#ffffff" /><path
       d="m 205.77,75.57 h -7.08 l 5.16,9.12 h 7.08 l -5.16,-9.12"
       inkscape:connector-curvature="0"
       id="path30" /><path
       d="m 215.25,75.57 h -7.08 l 5.16,9.12 h 7.08 l -5.16,-9.12"
       inkscape:connector-curvature="0"
       id="path32" /><path
       d="m 151.65,65.61 h 11.28 v 5.76 h -11.28 v -5.76 z"
       inkscape:connector-curvature="0"
       id="path34" /></g></svg>