<?xml version="1.0" encoding="UTF-8" standalone="no"?>
<!-- Created with Inkscape (http://www.inkscape.org/) -->

<svg
   xmlns:dc="http://purl.org/dc/elements/1.1/"
   xmlns:cc="http://creativecommons.org/ns#"
   xmlns:rdf="http://www.w3.org/1999/02/22-rdf-syntax-ns#"
   xmlns:svg="http://www.w3.org/2000/svg"
   xmlns="http://www.w3.org/2000/svg"
   xmlns:inkscape="http://www.inkscape.org/namespaces/inkscape"
   version="1.1"
   width="340.79999"
   height="340.79999"
   id="svg2"
   xml:space="preserve"><defs
     id="defs12" /><metadata
     id="metadata8"><rdf:RDF><cc:Work
         rdf:about=""><dc:format>image/svg+xml</dc:format><dc:type
           rdf:resource="http://purl.org/dc/dcmitype/StillImage" /></cc:Work></rdf:RDF></metadata><g
     transform="matrix(1.25,0,0,-1.25,-2.4375,341.51)"
     id="g10"><path
       d="M 138.27,273.21 C 213.6,273.18 274.64,212.15 274.59,136.89 274.64,61.566 213.6,0.53 138.27,0.57 63.021,0.52861 1.98,61.566 1.95,136.89 1.9833,212.15 63.021,273.18 138.27,273.21"
       inkscape:connector-curvature="0"
       id="path12"
       style="fill:#ec1d24" /><path
       d="m 138.27,246.09 c 60.337,-0.058 109.22,-48.938 109.2,-109.2 C 247.49,76.562 198.61,27.68 138.27,27.69 78.016,27.681 29.14,76.562 29.19,136.89 c -0.054,60.262 48.826,109.14 109.08,109.2"
       inkscape:connector-curvature="0"
       id="path14"
       style="fill:#ffffff" /><path
       d="m 71.55,151.53 v -2.28 H 50.43 v 4.92 c -0.008,24.146 18.568,35.666 37.56,35.64 13.839,0.026 38.895,-3.574 38.88,-34.2 0.015,-15.021 -5.457,-27.261 -26.64,-42.84 l -10.2,-7.44 h 34.68 V 86.49 h -70.8 v 18.96 c 36.975,24.051 52.239,33.699 52.2,49.68 0.039,9.363 -6.441,15.986 -16.32,15.96 -11.289,0.026 -18.2,-7.605 -18.24,-19.56"
       inkscape:connector-curvature="0"
       id="path16" /><path
       d="m 189.27,83.73 c -28.475,-0.02 -42.875,18.412 -42.84,52.56 -0.035,35.834 14.941,53.258 42.72,53.28 29.243,-0.022 43.067,-18.886 43.08,-53.16 -0.013,-33.98 -14.125,-52.7 -42.96,-52.68"
       inkscape:connector-curvature="0"
       id="path18" /><path
       d="m 189.51,170.25 c -15.18,0.003 -21.803,-11.085 -21.84,-33.72 0.037,-20.996 7.092,-33.524 21.84,-33.48 14.772,-0.044 21.54,11.187 21.48,33.48 0.06,21.915 -6.708,33.723 -21.48,33.72"
       inkscape:connector-curvature="0"
       id="path20"
       style="fill:#ffffff" /></g></svg>