<?xml version="1.0" encoding="UTF-8" standalone="no"?>
<svg
   xmlns:dc="http://purl.org/dc/elements/1.1/"
   xmlns:cc="http://creativecommons.org/ns#"
   xmlns:rdf="http://www.w3.org/1999/02/22-rdf-syntax-ns#"
   xmlns:svg="http://www.w3.org/2000/svg"
   xmlns="http://www.w3.org/2000/svg"
   xmlns:sodipodi="http://sodipodi.sourceforge.net/DTD/sodipodi-0.dtd"
   xmlns:inkscape="http://www.inkscape.org/namespaces/inkscape"
   width="903.40002"
   height="903.40002"
   viewBox="-50 -30 90.33999 90.34"
   id="svg2"
   version="1.1"
   inkscape:version="0.48.4 r9939"
   sodipodi:docname="AJAX.svg">
  <metadata
     id="metadata14">
    <rdf:RDF>
      <cc:Work
         rdf:about="">
        <dc:format>image/svg+xml</dc:format>
        <dc:type
           rdf:resource="http://purl.org/dc/dcmitype/StillImage" />
        <dc:title></dc:title>
      </cc:Work>
    </rdf:RDF>
  </metadata>
  <defs
     id="defs12" />
  <sodipodi:namedview
     pagecolor="#ffffff"
     bordercolor="#666666"
     borderopacity="1"
     objecttolerance="10"
     gridtolerance="10"
     guidetolerance="10"
     inkscape:pageopacity="0"
     inkscape:pageshadow="2"
     inkscape:window-width="1920"
     inkscape:window-height="1057"
     id="namedview10"
     showgrid="false"
     fit-margin-top="1.7"
     fit-margin-left="1.7"
     fit-margin-right="1.7"
     fit-margin-bottom="1.7"
     inkscape:zoom="0.5"
     inkscape:cx="436.73366"
     inkscape:cy="401.84492"
     inkscape:window-x="-8"
     inkscape:window-y="-8"
     inkscape:window-maximized="1"
     inkscape:current-layer="svg2"
     showguides="true"
     inkscape:guide-bbox="true" />
  <path
     inkscape:connector-curvature="0"
     id="path3124"
     d="m -4.8300146,-29.83 c 24.8528156,0 45.0000076,20.147166 45.0000076,44.999985 0,24.852813 -20.147192,45.000014 -45.0000076,45.000014 -24.8528064,0 -44.9999904,-20.147201 -44.9999904,-45.000014 0,-24.852819 20.147184,-44.999985 44.9999904,-44.999985 z"
     style="fill:#ffffff;fill-opacity:1;stroke:#0079c1;stroke-opacity:1;stroke-width:0.29999998999999999;stroke-miterlimit:4;stroke-dasharray:none"
     sodipodi:nodetypes="sssss" />
  <path
     sodipodi:nodetypes="sssss"
     style="fill:#0079c1;fill-opacity:1;stroke:none"
     d="m -4.830016,58.315999 c 23.828879,0 43.146009,-19.317113 43.146009,-43.145996 0,-23.828878 -19.31713,-43.146005 -43.146009,-43.146005 -23.828873,0 -43.14599,19.317127 -43.14599,43.146005 0,23.828883 19.317117,43.145996 43.14599,43.145996 z"
     id="path3607"
     inkscape:connector-curvature="0" />
  <path
     sodipodi:nodetypes="cssccsscc"
     inkscape:connector-curvature="0"
     style="fill:#ffffff;fill-rule:nonzero;stroke:none"
     d="m 16.391885,47.129006 0,-44.5989 c 0,-4.174839 -3.384702,-7.558983 -7.5593154,-7.558983 l -37.4406846,0 0,10.4371561 32.9638552,0 c 0.834822,0 1.5114995,0.677168 1.5114995,1.511819 l 0,40.2089079 z"
     id="path3790" />
  <path
     style="fill:#ffffff;fill-opacity:1;stroke:none"
     d="m -25.604014,-14.786314 -14.975991,14.975996 14.976,14.975999 14.826239,-7e-6 -14.975999,-14.975992 14.975945,-14.975996 z"
     id="path3827"
     inkscape:connector-curvature="0"
     sodipodi:nodetypes="ccccccc" />
</svg>
