<?xml version="1.0" encoding="UTF-8" standalone="no"?>
<!-- Created with Inkscape (http://www.inkscape.org/) -->

<svg
   xmlns:dc="http://purl.org/dc/elements/1.1/"
   xmlns:cc="http://creativecommons.org/ns#"
   xmlns:rdf="http://www.w3.org/1999/02/22-rdf-syntax-ns#"
   xmlns:svg="http://www.w3.org/2000/svg"
   xmlns="http://www.w3.org/2000/svg"
   xmlns:inkscape="http://www.inkscape.org/namespaces/inkscape"
   version="1.1"
   width="422.32999"
   height="245.2"
   id="svg2"
   xml:space="preserve"><metadata
     id="metadata8"><rdf:RDF><cc:Work
         rdf:about=""><dc:format>image/svg+xml</dc:format><dc:type
           rdf:resource="http://purl.org/dc/dcmitype/StillImage" /></cc:Work></rdf:RDF></metadata><defs
     id="defs6"><clipPath
       id="clipPath20"><path
         d="M 0.014999,196.16 H 337.875 V 0 H 0.014999 v 196.16 z"
         inkscape:connector-curvature="0"
         id="path22" /></clipPath></defs><g
     transform="matrix(1.25,0,0,-1.25,-0.018749,245.2)"
     id="g10"><g
       transform="translate(337.38,24.876)"
       id="g12"><path
         d="m 0,0 c 0,-13.462 -10.914,-24.376 -24.375,-24.376 h -288.12 c -13.461,0 -24.375,10.914 -24.375,24.376 v 146.41 c 0,13.462 10.914,24.375 24.375,24.375 h 288.12 c 13.466,0 24.38,-10.91 24.38,-24.37 V 0.005"
         inkscape:connector-curvature="0"
         id="path14"
         style="fill:#ffffff" /></g><g
       id="g16"><g
         clip-path="url(#clipPath20)"
         id="g18"><g
           transform="translate(337.38,24.876)"
           id="g24"><path
             d="m 0,0 c 0,-13.462 -10.914,-24.376 -24.375,-24.376 h -288.12 c -13.461,0 -24.375,10.914 -24.375,24.376 v 146.41 c 0,13.462 10.914,24.375 24.375,24.375 h 288.12 c 13.466,0 24.38,-10.91 24.38,-24.37 V 0.005 z"
             inkscape:connector-curvature="0"
             id="path26"
             style="fill:none;stroke:#0079c1" /></g></g></g><g
       transform="translate(324.72,24.876)"
       id="g28"><path
         d="m 0,0 c 0,-6.472 -5.246,-11.718 -11.717,-11.718 h -288.12 c -6.471,0 -11.717,5.246 -11.717,11.718 v 146.41 c 0,6.471 5.246,11.717 11.717,11.717 h 288.12 c 6.474,-0.01 11.72,-5.25 11.72,-11.72 V -0.003"
         inkscape:connector-curvature="0"
         id="path30"
         style="fill:#0079c1" /></g><g
       transform="translate(101.07,138.71)"
       id="g32"><path
         d="M 0,0 V -6.979 H -19.785 V -20.463 H 3.049 v -7.25 H -28.187 V 19.649 H 1.694 V 12.602 H -20.259 V 0 H 0"
         inkscape:connector-curvature="0"
         id="path34"
         style="fill:#ffffff" /></g><g
       transform="translate(142.16,134.44)"
       id="g36"><path
         d="m 0,0 v -23.444 h -7.453 v 21.818 c 0,1.22 -1.83,5.624 -5.963,5.624 -3.727,0 -6.979,-3.591 -6.979,-7.047 v -20.395 h -7.657 v 33.811 h 7.657 V 7.318 c 2.506,3.862 9.282,3.862 9.282,3.862 C -5.76,11.18 0,6.234 0,0"
         inkscape:connector-curvature="0"
         id="path38"
         style="fill:#ffffff" /></g><g
       transform="translate(173.42,113.78)"
       id="g40"><path
         d="m 0,0 c -3.862,-3.252 -9.282,-3.252 -9.282,-3.252 -3.66,0 -14.5,3.591 -14.5,17.481 0,10.231 5.759,17.616 14.771,17.616 4.065,0 6.775,-1.084 9.011,-3.658 V 44.719 H 7.453 V -2.778 H 0 V 0"
         inkscape:connector-curvature="0"
         id="path42"
         style="fill:#ffffff" /></g><g
       transform="translate(173.42,125.23)"
       id="g44"><path
         d="m 0,0 v 6.098 c 0,3.93 -3.862,7.386 -7.521,7.386 -4.675,0 -8.537,-5.15 -8.537,-10.503 0,-5.691 4.065,-10.163 8.334,-10.163 C -4.337,-7.182 0,-3.998 0,0"
         inkscape:connector-curvature="0"
         id="path46"
         style="fill:#0079c1" /></g><g
       transform="translate(210.64,127.94)"
       id="g48"><path
         d="m 0,0 c 0,10.638 6.167,18.091 16.263,18.091 10.027,0 15.99,-7.318 15.99,-18.091 0,-11.993 -7.86,-17.82 -15.99,-17.82 C 6.777,-17.82 0,-10.096 0,0"
         inkscape:connector-curvature="0"
         id="path50"
         style="fill:#ffffff" /></g><g
       transform="translate(235.64,127.94)"
       id="g52"><path
         d="m 0,0 c 0,6.504 -3.388,10.841 -8.809,10.841 -5.352,0 -8.537,-4.404 -8.537,-10.841 0,-6.301 3.185,-10.773 8.606,-10.773 C -3.456,-10.773 0,-6.234 0,0"
         inkscape:connector-curvature="0"
         id="path54"
         style="fill:#0079c1" /></g><g
       transform="translate(262.99,147.79)"
       id="g56"><path
         d="M 0,0 V -2.981 H 6.165 V -9.283 H 0 v -27.509 h -7.453 v 27.509 h -5.556 v 6.302 h 5.556 v 6.233 c 0,4.947 4.945,7.521 10.028,7.521 1.964,0 3.794,-0.338 5.691,-0.745 L 7.521,3.862 H 3.997 C 1.084,3.862 0,2.507 0,0"
         inkscape:connector-curvature="0"
         id="path58"
         style="fill:#ffffff" /></g><g
       transform="translate(41.606,90.738)"
       id="g60"><path
         d="m 0,0 h 7.453 v -16.532 c 2.236,2.575 4.946,3.659 9.079,3.659 9.012,0 14.704,-7.386 14.704,-17.617 0,-13.891 -10.841,-17.482 -14.5,-17.482 0,0 -5.421,0 -9.283,3.253 v -2.778 H 0 V 0"
         inkscape:connector-curvature="0"
         id="path62"
         style="fill:#ffffff" /></g><g
       transform="translate(56.648,70.953)"
       id="g64"><path
         d="m 0,0 c -3.659,0 -7.589,-3.455 -7.589,-7.385 v -6.098 c 0,-3.998 4.337,-7.182 7.792,-7.182 4.269,0 8.266,4.472 8.266,10.163 C 8.469,-5.149 4.675,0 0,0"
         inkscape:connector-curvature="0"
         id="path66"
         style="fill:#0079c1" /></g><g
       transform="translate(81.287,53.54)"
       id="g68"><path
         d="M 0,0 V 23.241 H 7.386 V 1.558 c 0,-2.033 1.016,-5.894 5.962,-5.894 3.659,0 6.911,3.93 6.911,7.317 v 20.26 h 7.589 v -33.54 H 20.259 V -7.25 C 17.888,-11.316 11.18,-11.316 11.18,-11.316 4.336,-11.316 0,-6.911 0,0"
         inkscape:connector-curvature="0"
         id="path70"
         style="fill:#ffffff" /></g><g
       transform="translate(125.5,67.769)"
       id="g72"><path
         d="m 0,0 c 0,-1.694 1.965,-2.981 4.946,-3.591 6.031,-1.22 5.218,-1.152 7.047,-1.897 3.727,-1.355 5.963,-4.201 5.963,-8.877 0,-5.623 -4.676,-10.976 -12.129,-10.976 -5.149,0 -8.537,1.016 -14.974,6.167 l 4.811,4.809 c 3.32,-3.049 5.895,-4.064 9.214,-4.064 3.592,0 5.557,1.084 5.557,3.59 0,2.507 -1.355,2.507 -8.402,4.54 -8.469,2.439 -9.215,6.912 -9.215,10.164 0,4.674 3.455,10.569 13.212,10.569 0,0 7.115,0 11.722,-4.878 L 13.687,0.407 C 10.231,3.863 5.895,3.863 5.895,3.863 2.372,3.863 0,2.237 0,0"
         inkscape:connector-curvature="0"
         id="path74"
         style="fill:#ffffff" /></g><g
       transform="translate(183.04,49.813)"
       id="g76"><path
         d="m 0,0 c 0,0 1.355,0 3.998,0.475 l 0.881,-6.64 C 1.761,-6.708 -1.83,-6.708 -1.83,-6.708 -8.876,-7.317 -10.57,-3.794 -10.57,4.337 V 40.79 h 7.453 V 4.743 C -3.117,1.22 -2.303,0 0,0"
         inkscape:connector-curvature="0"
         id="path78"
         style="fill:#ffffff" /></g><g
       transform="translate(204.21,42.699)"
       id="g80"><path
         d="m 0,0 c -6.708,0 -12.602,4.811 -12.602,11.045 0,4.064 3.591,9.485 10.976,10.299 l 9.215,1.015 v 1.424 c 0,3.184 -1.355,5.081 -5.217,5.081 0,0 -5.353,0 -10.571,-2.71 l -2.913,5.759 c 4.133,2.372 9.758,3.591 13.823,3.591 10.976,0 12.399,-9.147 12.399,-11.179 V 8.943 c 0,-1.76 0.609,-2.505 2.846,-3.455 L 14.704,-0.406 C 11.451,0.745 10.367,1.287 9.012,2.981 4.879,0 0,0 0,0"
         inkscape:connector-curvature="0"
         id="path82"
         style="fill:#ffffff" /></g><g
       transform="translate(199.2,53.404)"
       id="g84"><path
         d="m 0,0 c 0,-2.71 2.845,-4.743 5.963,-4.743 3.794,0 6.639,2.169 6.639,4.811 V 5.624 L 4.946,4.879 C 1.626,4.54 0,2.372 0,0"
         inkscape:connector-curvature="0"
         id="path86"
         style="fill:#0079c1" /></g><g
       transform="translate(259.42,66.685)"
       id="g88"><path
         d="m 0,0 v -23.444 h -7.455 v 21.817 c 0,1.22 -1.829,5.624 -5.962,5.624 -3.726,0 -6.979,-3.59 -6.979,-7.046 v -20.395 h -7.656 v 33.811 h 7.656 V 7.318 c 2.508,3.862 9.282,3.862 9.282,3.862 C -5.76,11.18 0,6.233 0,0"
         inkscape:connector-curvature="0"
         id="path90"
         style="fill:#ffffff" /></g><g
       transform="translate(266.96,60.248)"
       id="g92"><path
         d="m 0,0 c 0,10.638 6.437,17.617 15.923,17.617 9.079,0 14.702,-6.572 14.702,-19.107 V -2.71 H 7.927 c 0.814,-5.151 3.592,-7.86 8.537,-7.86 0,0 4.879,0 7.996,3.32 l 4.472,-5.624 C 24.121,-17.955 16.6,-17.955 16.6,-17.955 6.233,-17.955 0,-11.111 0,0"
         inkscape:connector-curvature="0"
         id="path94"
         style="fill:#ffffff" /></g><g
       transform="translate(274.89,63.229)"
       id="g96"><path
         d="M 0,0 H 15.178 C 14.907,5.082 12.4,8.199 8.064,8.199 3.862,8.199 0.542,5.692 0,0"
         inkscape:connector-curvature="0"
         id="path98"
         style="fill:#0079c1" /></g></g></svg>