<?xml version="1.0" encoding="UTF-8" standalone="no"?>
<!-- Created with Inkscape (http://www.inkscape.org/) -->
<svg xmlns:dc="http://purl.org/dc/elements/1.1/" xmlns:cc="http://creativecommons.org/ns#" xmlns:rdf="http://www.w3.org/1999/02/22-rdf-syntax-ns#" xmlns:svg="http://www.w3.org/2000/svg" xmlns="http://www.w3.org/2000/svg" xmlns:sodipodi="http://sodipodi.sourceforge.net/DTD/sodipodi-0.dtd" xmlns:inkscape="http://www.inkscape.org/namespaces/inkscape" width="439.92389" height="757.77332" id="svg2947" version="1.1" inkscape:version="0.47 r22583" sodipodi:docname="UK traffic sign 618 2.svg">
  <defs id="defs2949">
    <inkscape:perspective sodipodi:type="inkscape:persp3d" inkscape:vp_x="0 : 526.18109 : 1" inkscape:vp_y="0 : 1000 : 0" inkscape:vp_z="744.09448 : 526.18109 : 1" inkscape:persp3d-origin="372.04724 : 350.78739 : 1" id="perspective2955"/>
    <inkscape:perspective id="perspective2982" inkscape:persp3d-origin="187.815 : 45.626668 : 1" inkscape:vp_z="375.63 : 68.440002 : 1" inkscape:vp_y="0 : 1000 : 0" inkscape:vp_x="0 : 68.440002 : 1" sodipodi:type="inkscape:persp3d"/>
    <inkscape:perspective id="perspective3797" inkscape:persp3d-origin="0.5 : 0.33333333 : 1" inkscape:vp_z="1 : 0.5 : 1" inkscape:vp_y="0 : 1000 : 0" inkscape:vp_x="0 : 0.5 : 1" sodipodi:type="inkscape:persp3d"/>
    <inkscape:perspective id="perspective4701" inkscape:persp3d-origin="0.5 : 0.33333333 : 1" inkscape:vp_z="1 : 0.5 : 1" inkscape:vp_y="0 : 1000 : 0" inkscape:vp_x="0 : 0.5 : 1" sodipodi:type="inkscape:persp3d"/>
    <clipPath clipPathUnits="userSpaceOnUse" id="clipPath3104">
      <path d="m 22.11,25.795 267.236,0 0,418.677 -267.236,0 0,-418.677 z" id="path3106"/>
    </clipPath>
    <inkscape:perspective id="perspective4975" inkscape:persp3d-origin="0.5 : 0.33333333 : 1" inkscape:vp_z="1 : 0.5 : 1" inkscape:vp_y="0 : 1000 : 0" inkscape:vp_x="0 : 0.5 : 1" sodipodi:type="inkscape:persp3d"/>
    <inkscape:perspective id="perspective6010" inkscape:persp3d-origin="0.5 : 0.33333333 : 1" inkscape:vp_z="1 : 0.5 : 1" inkscape:vp_y="0 : 1000 : 0" inkscape:vp_x="0 : 0.5 : 1" sodipodi:type="inkscape:persp3d"/>
    <clipPath clipPathUnits="userSpaceOnUse" id="clipPath5370">
      <path d="m 34.016,36.469 255.118,0 0,485.105 -255.118,0 0,-485.105 z" id="path5372"/>
    </clipPath>
    <clipPath clipPathUnits="userSpaceOnUse" id="clipPath5360">
      <path d="m 31.181,30.409 261,0 0,494 -261,0 0,-494 z" id="path5362"/>
    </clipPath>
    <inkscape:perspective id="perspective6118" inkscape:persp3d-origin="0.5 : 0.33333333 : 1" inkscape:vp_z="1 : 0.5 : 1" inkscape:vp_y="0 : 1000 : 0" inkscape:vp_x="0 : 0.5 : 1" sodipodi:type="inkscape:persp3d"/>
    <clipPath clipPathUnits="userSpaceOnUse" id="clipPath5370-2">
      <path d="m 34.016,36.469 255.118,0 0,485.105 -255.118,0 0,-485.105 z" id="path5372-6"/>
    </clipPath>
    <clipPath clipPathUnits="userSpaceOnUse" id="clipPath5360-5">
      <path d="m 31.181,30.409 261,0 0,494 -261,0 0,-494 z" id="path5362-7"/>
    </clipPath>
    <inkscape:perspective id="perspective8380" inkscape:persp3d-origin="0.5 : 0.33333333 : 1" inkscape:vp_z="1 : 0.5 : 1" inkscape:vp_y="0 : 1000 : 0" inkscape:vp_x="0 : 0.5 : 1" sodipodi:type="inkscape:persp3d"/>
    <inkscape:perspective id="perspective9041" inkscape:persp3d-origin="0.5 : 0.33333333 : 1" inkscape:vp_z="1 : 0.5 : 1" inkscape:vp_y="0 : 1000 : 0" inkscape:vp_x="0 : 0.5 : 1" sodipodi:type="inkscape:persp3d"/>
    <inkscape:perspective id="perspective9702" inkscape:persp3d-origin="0.5 : 0.33333333 : 1" inkscape:vp_z="1 : 0.5 : 1" inkscape:vp_y="0 : 1000 : 0" inkscape:vp_x="0 : 0.5 : 1" sodipodi:type="inkscape:persp3d"/>
    <inkscape:perspective id="perspective10096" inkscape:persp3d-origin="211.875 : 243.12667 : 1" inkscape:vp_z="423.75 : 364.69 : 1" inkscape:vp_y="0 : 1000 : 0" inkscape:vp_x="0 : 364.69 : 1" sodipodi:type="inkscape:persp3d"/>
    <inkscape:perspective id="perspective11188" inkscape:persp3d-origin="0.5 : 0.33333333 : 1" inkscape:vp_z="1 : 0.5 : 1" inkscape:vp_y="0 : 1000 : 0" inkscape:vp_x="0 : 0.5 : 1" sodipodi:type="inkscape:persp3d"/>
    <clipPath clipPathUnits="userSpaceOnUse" id="clipPath10834">
      <path d="m 28.346,37.475 76,0 0,311.753 -76,0 0,-311.753 z" id="path10836"/>
    </clipPath>
  </defs>
  <sodipodi:namedview id="base" pagecolor="#ffffff" bordercolor="#666666" borderopacity="1.0" inkscape:pageopacity="0.0" inkscape:pageshadow="2" inkscape:zoom="0.29534138" inkscape:cx="220.46036" inkscape:cy="357.13137" inkscape:document-units="px" inkscape:current-layer="layer1" showgrid="false" inkscape:window-width="1600" inkscape:window-height="838" inkscape:window-x="-8" inkscape:window-y="-8" inkscape:window-maximized="1"/>
  <metadata id="metadata2952">
    <rdf:RDF>
      <cc:Work rdf:about="">
        <dc:format>image/svg+xml</dc:format>
        <dc:type rdf:resource="http://purl.org/dc/dcmitype/StillImage"/>
        <dc:title/>
      </cc:Work>
    </rdf:RDF>
  </metadata>
  <g inkscape:label="Livello 1" inkscape:groupmode="layer" id="layer1" transform="translate(-326.20433,143.59666)">
    <g transform="matrix(6.2442179,0,0,-6.2442179,149.19388,2008.7441)" id="g10830">
      <g id="g10832" clip-path="url(#clipPath10834)">
        <g id="g10838" transform="translate(63.573898,344.69341)">
          <path d="m 0,0 -32.328,0 c -1.6,0 -2.898,-1.297 -2.898,-2.898 l 0,-115.56 c 0,-1.601 1.298,-2.898 2.898,-2.898 l 64.656,0 c 1.601,0 2.899,1.297 2.899,2.898 l 0,115.56 C 35.227,-1.297 33.929,0 32.328,0 L 0,0 z" style="fill:#1a1a18;fill-opacity:1;fill-rule:evenodd;stroke:none" id="path10840"/>
        </g>
        <g id="g10842" transform="translate(63.573898,343.2534)">
          <path d="m 0,0 -32.346,0 c -0.795,0 -1.44,-0.645 -1.44,-1.44 l 0,-76.716 c 0,-0.795 0.645,-1.44 1.44,-1.44 l 64.693,0 c 0.795,0 1.439,0.645 1.439,1.44 l 0,76.716 C 33.786,-0.645 33.142,0 32.347,0 L 0,0 z" style="fill:#ffffff;fill-opacity:1;fill-rule:evenodd;stroke:none" id="path10844"/>
        </g>
        <g id="g10846" transform="translate(63.573898,262.1812)">
          <path d="m 0,0 -32.346,0 c -0.795,0 -1.44,-0.645 -1.44,-1.44 l 0,-34.524 c 0,-0.795 0.645,-1.44 1.44,-1.44 l 64.693,0 c 0.795,0 1.439,0.645 1.439,1.44 l 0,34.524 C 33.786,-0.645 33.142,0 32.347,0 L 0,0 z" style="fill:#ffffff;fill-opacity:1;fill-rule:evenodd;stroke:none" id="path10848"/>
        </g>
        <g id="g10850" transform="translate(63.712601,308.8291)">
          <path d="m 0,0 c 10.811,0 19.584,-8.757 19.584,-19.548 0,-10.79 -8.773,-19.548 -19.584,-19.548 -10.81,0 -19.585,8.758 -19.585,19.548 C -19.585,-8.757 -10.81,0 0,0" style="fill:#0070ba;fill-opacity:1;fill-rule:evenodd;stroke:none" id="path10852"/>
        </g>
        <g id="g10854" transform="translate(75.832794,273.7735)">
          <path d="M 0,0 3.384,3.384 -24.265,30.996 -27.612,27.612 0,0 z" style="fill:#dd0029;fill-opacity:1;fill-rule:evenodd;stroke:none" id="path10856"/>
        </g>
        <g id="g10858" transform="translate(51.424499,301.56551)">
          <path d="m 0,0 c -6.804,-6.804 -6.804,-17.784 0,-24.588 6.804,-6.768 17.784,-6.768 24.588,0 6.804,6.804 6.804,17.784 0,24.588 C 17.784,6.768 6.804,6.768 0,0 m -3.06,3.06 c -8.496,-8.46 -8.496,-22.212 0,-30.708 8.46,-8.496 22.248,-8.496 30.708,0 8.496,8.496 8.496,22.248 0,30.708 -8.46,8.496 -22.248,8.496 -30.708,0" style="fill:#dd0029;fill-opacity:1;fill-rule:evenodd;stroke:none" id="path10860"/>
        </g>
        <g id="g10862" transform="translate(71.440201,259.40919)">
          <path d="m 0,0 -1.439,0 0,-5.112 1.007,0 0,2.088 2.088,0 0,0.936 -2.088,0 0,1.116 2.304,0 L 1.872,0 0.828,0 0,0 z" style="fill:#1a1a18;fill-opacity:1;fill-rule:evenodd;stroke:none" id="path10864"/>
        </g>
        <path d="m 77.056,257.934 0.935,0 0,-3.636 -0.935,0 0,3.636 z" style="fill:#1a1a18;fill-opacity:1;fill-rule:evenodd;stroke:none" id="path10866"/>
        <g id="g10868" transform="translate(77.512497,259.30521)">
          <path d="m 0,0 c 0.298,0 0.54,-0.226 0.54,-0.504 0,-0.278 -0.242,-0.504 -0.54,-0.504 -0.298,0 -0.54,0.226 -0.54,0.504 C -0.54,-0.226 -0.298,0 0,0" style="fill:#1a1a18;fill-opacity:1;fill-rule:evenodd;stroke:none" id="path10870"/>
        </g>
        <g id="g10872" transform="translate(63.376297,256.7095)">
          <path d="m 0,0 0,-2.412 -0.936,0 0,2.304 c 0,0.288 -0.216,0.54 -0.612,0.54 -0.396,0 -0.756,-0.36 -0.756,-0.828 l 0,-2.016 -0.972,0 0,3.636 0.972,0 0,-0.252 c 0,0 0.36,0.36 0.9,0.36 C -0.576,1.332 0,0.648 0,0" style="fill:#1a1a18;fill-opacity:1;fill-rule:evenodd;stroke:none" id="path10874"/>
        </g>
        <g id="g10876" transform="translate(57.472397,258.07719)">
          <path d="m 0,0 c -0.9,0 -1.764,-0.72 -1.764,-1.98 0,-1.26 0.864,-1.98 1.764,-1.98 0.9,0 1.764,0.72 1.764,1.98 C 1.764,-0.72 0.864,0 0,0 m 0,-0.828 c -0.396,0 -0.828,-0.36 -0.828,-1.152 0,-0.792 0.432,-1.152 0.828,-1.152 0.396,0 0.828,0.36 0.828,1.152 0,0.792 -0.432,1.152 -0.828,1.152" style="fill:#1a1a18;fill-opacity:1;fill-rule:evenodd;stroke:none" id="path10878"/>
        </g>
        <path d="m 65.68,256.854 1.584,0 0,-0.756 -1.584,0 0,0.756 z" style="fill:#1a1a18;fill-opacity:1;fill-rule:evenodd;stroke:none" id="path10880"/>
        <g id="g10882" transform="translate(54.556503,256.49319)">
          <path d="m 0,0 0,-2.196 -0.972,0 0,3.744 -1.548,-2.16 -1.548,2.124 0,-3.708 -0.972,0 0,5.112 1.224,0 L -2.52,1.08 -1.26,2.916 0,2.916 0,1.44 0,0 z" style="fill:#1a1a18;fill-opacity:1;fill-rule:evenodd;stroke:none" id="path10884"/>
        </g>
        <g id="g10886" transform="translate(76.192093,257.1416)">
          <path d="m 0,0 0,0.9 c -0.899,0 -1.044,-0.252 -1.26,-0.468 l 0,0.36 -0.935,0 0,-3.6 0.935,0 0,1.8 C -1.26,-0.468 -0.647,0 0,0" style="fill:#1a1a18;fill-opacity:1;fill-rule:evenodd;stroke:none" id="path10888"/>
        </g>
        <g id="g10890" transform="translate(54.124206,246.9532)">
          <path d="m 0,0 0,1.872 c 0,0.504 -0.468,0.864 -1.44,0.864 -0.792,0 -1.332,-0.36 -1.548,-0.468 l 0.432,-0.684 c 0.288,0.18 0.972,0.324 1.224,0.324 0.288,0 0.396,-0.216 0.396,-0.324 l 0,-0.18 c -0.324,0 -1.116,-0.144 -1.44,-0.252 -0.288,-0.108 -0.792,-0.324 -0.792,-1.044 0,-0.72 0.756,-1.188 1.512,-1.188 0.612,0 0.828,0.36 0.828,0.36 0,0 0.324,-0.396 0.864,-0.396 L 0.432,-0.36 C 0,-0.288 0,-0.144 0,0 m -0.936,0.648 0,-0.684 c 0,-0.288 -0.54,-0.252 -0.612,-0.252 -0.072,0 -0.648,0 -0.648,0.432 0,0.468 0.684,0.504 1.26,0.504" style="fill:#1a1a18;fill-opacity:1;fill-rule:evenodd;stroke:none" id="path10892"/>
        </g>
        <g id="g10894" transform="translate(60.460297,248.4292)">
          <path d="m 0,0 0,-2.484 -0.936,0 0,2.232 c 0,0.36 -0.288,0.612 -0.576,0.612 -0.288,0 -0.612,-0.288 -0.612,-0.72 l 0,-2.124 -0.936,0 0,2.232 c 0,0.36 -0.288,0.612 -0.54,0.612 -0.288,0 -0.684,-0.216 -0.684,-0.72 l 0,-2.124 -0.936,0 0,3.636 0.936,0 0,-0.216 c 0,0 0.36,0.288 0.972,0.288 0.54,0 0.864,-0.396 0.864,-0.396 0,0 0.396,0.396 1.008,0.396 C -0.504,1.224 0,0.612 0,0" style="fill:#1a1a18;fill-opacity:1;fill-rule:evenodd;stroke:none" id="path10896"/>
        </g>
        <g id="g10898" transform="translate(85.768402,249.4375)">
          <path d="m 0,0 0,0.144 -0.936,0 0,-4.644 0.936,0 0,1.296 c 0,0 0.324,-0.36 1.008,-0.36 1.26,0 1.656,1.368 1.656,1.944 0,0.468 -0.18,0.972 -0.468,1.296 C 1.944,0 1.548,0.288 0.972,0.288 0.612,0.288 0.252,0.18 0,0 m 0,-1.26 0,-0.684 c 0,-0.36 0.288,-0.72 0.828,-0.72 0.54,0 0.864,0.504 0.864,1.08 0,0.576 -0.324,1.044 -0.864,1.044 C 0.252,-0.54 0,-0.936 0,-1.26" style="fill:#1a1a18;fill-opacity:1;fill-rule:evenodd;stroke:none" id="path10900"/>
        </g>
        <g id="g10902" transform="translate(38.272202,246.8252)">
          <path d="m 0,0 c 0.278,0 0.504,-0.226 0.504,-0.504 0,-0.278 -0.226,-0.504 -0.504,-0.504 -0.278,0 -0.504,0.226 -0.504,0.504 C -0.504,-0.226 -0.278,0 0,0" style="fill:#1a1a18;fill-opacity:1;fill-rule:evenodd;stroke:none" id="path10904"/>
        </g>
        <g id="g10906" transform="translate(42.820602,248.53709)">
          <path d="m 0,0 c 0.036,0 0.576,0.253 0.576,1.044 0,0.756 -0.684,1.477 -1.872,1.477 -1.152,0 -1.872,-0.577 -1.944,-1.549 l 1.044,-0.108 c 0.072,0.468 0.324,0.756 0.972,0.756 0.648,0 0.756,-0.468 0.756,-0.648 0,-0.432 -0.288,-0.612 -1.116,-0.612 l 0,-0.828 c 0.216,-0.036 0.756,-0.036 0.9,-0.108 0.252,-0.216 0.252,-0.359 0.252,-0.54 0,-0.108 0,-0.684 -0.756,-0.684 -0.756,0 -0.936,0.396 -1.008,0.792 L -3.24,-1.187 c 0.108,-0.865 0.72,-1.549 2.052,-1.549 1.296,0 1.872,0.9 1.872,1.584 C 0.684,-0.468 0.252,-0.036 0,0" style="fill:#1a1a18;fill-opacity:1;fill-rule:evenodd;stroke:none" id="path10908"/>
        </g>
        <g id="g10910" transform="translate(69.388504,249.7256)">
          <path d="M 0,0 C 0.288,0.108 0.612,0.216 0.935,0.36 0.72,0.864 0.396,1.368 -0.756,1.368 c -1.116,0 -1.98,-0.828 -1.98,-2.628 0,-0.9 0.36,-1.584 0.648,-1.944 0.252,-0.36 0.828,-0.648 1.403,-0.648 0.577,0 1.765,0.324 1.765,1.8 0,1.476 -1.152,1.764 -1.62,1.764 -0.504,0 -0.972,-0.216 -1.116,-0.36 0,0.792 0.54,1.116 0.9,1.116 C -0.397,0.468 -0.18,0.324 0,0 m 0.072,-2.052 c 0,0.468 -0.36,0.863 -0.828,0.863 -0.468,0 -0.792,-0.395 -0.792,-0.863 0,-0.468 0.324,-0.864 0.792,-0.864 0.324,0 0.828,0.216 0.828,0.864" style="fill:#1a1a18;fill-opacity:1;fill-rule:evenodd;stroke:none" id="path10912"/>
        </g>
        <g id="g10914" transform="translate(34.756607,251.09331)">
          <path d="m 0,0 c 0.828,0 1.872,-0.396 1.872,-1.512 0,-0.828 -0.612,-0.972 -0.612,-0.972 0,0 0.72,-0.18 0.72,-1.188 0,-0.972 -0.792,-1.584 -1.98,-1.584 -1.189,0 -1.98,0.612 -1.98,1.584 0,1.008 0.72,1.188 0.72,1.188 0,0 -0.612,0.144 -0.612,0.972 C -1.872,-0.396 -0.828,0 0,0 m 0.036,-4.32 c -0.54,0 -0.936,0.252 -0.936,0.684 0,0.468 0.432,0.648 0.9,0.648 0.504,0 0.936,-0.18 0.936,-0.648 C 0.936,-4.068 0.54,-4.32 0,-4.32 l 0.036,0 z m 0,2.196 c -0.396,0 -0.792,0.18 -0.792,0.612 0,0.432 0.396,0.612 0.756,0.612 0.396,0 0.792,-0.18 0.792,-0.612 0,-0.432 -0.396,-0.612 -0.792,-0.612 l 0.036,0 z" style="fill:#1a1a18;fill-opacity:1;fill-rule:evenodd;stroke:none" id="path10916"/>
        </g>
        <g id="g10918" transform="translate(46.780502,251.05769)">
          <path d="m 0,0 c 0.756,0 2.16,-0.432 2.16,-2.629 0,-2.195 -1.332,-2.627 -2.16,-2.627 -0.792,0 -2.124,0.432 -2.124,2.627 C -2.124,-0.432 -0.72,0 0,0 m 0,-0.972 c 0.54,0 1.08,-0.288 1.116,-1.62 0,-1.296 -0.504,-1.728 -1.116,-1.728 -0.576,0 -1.08,0.432 -1.08,1.728 0.036,1.332 0.576,1.62 1.08,1.62" style="fill:#1a1a18;fill-opacity:1;fill-rule:evenodd;stroke:none" id="path10920"/>
        </g>
        <path d="m 62.728,248.501 1.584,0 0,-0.756 -1.584,0 0,0.756 z" style="fill:#1a1a18;fill-opacity:1;fill-rule:evenodd;stroke:none" id="path10922"/>
        <g id="g10924" transform="translate(71.991898,246.8252)">
          <path d="m 0,0 c 0.278,0 0.505,-0.226 0.505,-0.504 0,-0.278 -0.227,-0.504 -0.505,-0.504 -0.277,0 -0.504,0.226 -0.504,0.504 C -0.504,-0.226 -0.277,0 0,0" style="fill:#1a1a18;fill-opacity:1;fill-rule:evenodd;stroke:none" id="path10926"/>
        </g>
        <g id="g10928" transform="translate(76.552597,248.53709)">
          <path d="m 0,0 c 0.072,0 0.612,0.253 0.612,1.044 0,0.756 -0.72,1.477 -1.872,1.477 -1.188,0 -1.872,-0.577 -1.98,-1.549 l 1.08,-0.108 c 0.072,0.468 0.324,0.756 0.971,0.756 0.649,0 0.756,-0.468 0.721,-0.648 0,-0.432 -0.252,-0.612 -1.116,-0.612 l 0,-0.828 c 0.252,-0.036 0.756,-0.036 0.899,-0.108 0.289,-0.216 0.289,-0.359 0.289,-0.54 0,-0.108 0,-0.684 -0.756,-0.684 -0.756,0 -0.936,0.396 -1.008,0.792 l -1.08,-0.179 c 0.144,-0.865 0.719,-1.549 2.051,-1.549 1.332,0 1.873,0.9 1.873,1.584 C 0.684,-0.468 0.288,-0.036 0,0" style="fill:#1a1a18;fill-opacity:1;fill-rule:evenodd;stroke:none" id="path10930"/>
        </g>
        <g id="g10932" transform="translate(80.512405,251.05769)">
          <path d="m 0,0 c 0.72,0 2.124,-0.432 2.124,-2.629 0,-2.195 -1.296,-2.627 -2.124,-2.627 -0.792,0 -2.124,0.432 -2.124,2.627 C -2.124,-0.432 -0.72,0 0,0 m 0,-0.972 c 0.54,0 1.08,-0.288 1.08,-1.62 C 1.116,-3.888 0.612,-4.32 0,-4.32 c -0.612,0 -1.08,0.432 -1.08,1.728 0.036,1.332 0.54,1.62 1.08,1.62" style="fill:#1a1a18;fill-opacity:1;fill-rule:evenodd;stroke:none" id="path10934"/>
        </g>
        <g id="g10936" transform="translate(94.444199,248.4292)">
          <path d="m 0,0 0,-2.484 -0.936,0 0,2.232 c 0,0.36 -0.288,0.612 -0.576,0.612 -0.288,0 -0.612,-0.288 -0.612,-0.72 l 0,-2.124 -0.936,0 0,2.232 c 0,0.36 -0.288,0.612 -0.54,0.612 -0.252,0 -0.648,-0.216 -0.648,-0.72 l 0,-2.124 -0.936,0 0,3.636 0.936,0 0,-0.216 c 0,0 0.324,0.288 0.936,0.288 0.54,0 0.9,-0.396 0.865,-0.396 0,0 0.395,0.396 1.007,0.396 C -0.504,1.224 0,0.612 0,0" style="fill:#1a1a18;fill-opacity:1;fill-rule:evenodd;stroke:none" id="path10938"/>
        </g>
        <g id="g10940" transform="translate(48.040298,237.3054)">
          <path d="M 0,0 0.756,0.72 C 1.692,0.072 2.448,0 2.664,0 2.916,0 3.204,0.252 3.204,0.576 3.204,0.9 2.952,1.08 2.772,1.116 2.628,1.152 1.908,1.296 1.62,1.368 1.332,1.44 0.432,1.692 0.432,2.808 c 0,1.116 0.792,1.512 1.692,1.512 0.9,0 1.584,-0.252 2.16,-0.792 L 3.6,2.844 C 3.24,3.132 2.736,3.384 2.052,3.384 1.656,3.384 1.548,2.988 1.548,2.844 1.548,2.736 1.656,2.448 1.944,2.376 2.196,2.34 2.916,2.16 3.024,2.124 3.312,2.088 4.284,1.692 4.284,0.648 4.284,-0.288 3.672,-0.936 2.484,-0.936 1.332,-0.936 0.396,-0.396 0,0" style="fill:#1a1a18;fill-opacity:1;fill-rule:evenodd;stroke:none" id="path10942"/>
        </g>
        <g id="g10944" transform="translate(70.360199,239.82539)">
          <path d="m 0,0 0,1.692 0.936,0 0,-5.04 -0.936,0 0,0.144 c 0,0 -0.396,-0.288 -0.972,-0.288 -0.54,0 -1.656,0.468 -1.656,1.944 0,1.476 1.152,1.908 1.584,1.908 C -0.576,0.36 -0.396,0.252 0,0 m 0,-1.224 0,-0.72 C 0,-2.268 -0.288,-2.7 -0.828,-2.7 c -0.54,0 -0.828,0.468 -0.828,1.152 0,0.684 0.36,1.008 0.828,1.008 C -0.359,-0.54 0,-0.828 0,-1.224" style="fill:#1a1a18;fill-opacity:1;fill-rule:evenodd;stroke:none" id="path10946"/>
        </g>
        <g id="g10948" transform="translate(62.872299,236.7294)">
          <path d="m 0,0 0,-0.252 0.936,0 0,3.636 L 0,3.384 0,1.368 C 0,0.828 -0.432,0.54 -0.792,0.54 c -0.36,0 -0.576,0.288 -0.576,0.612 l 0,2.232 -0.936,0 0,-2.448 c 0,-0.648 0.576,-1.26 1.368,-1.26 0.468,0 0.828,0.216 0.936,0.324" style="fill:#1a1a18;fill-opacity:1;fill-rule:evenodd;stroke:none" id="path10950"/>
        </g>
        <g id="g10952" transform="translate(77.9207,235.9014)">
          <path d="m 0,0 1.44,4.212 -1.008,0 -0.684,-2.232 -0.756,2.232 -1.009,0 1.225,-3.456 C -0.721,0.504 -0.828,0.216 -1.296,0.288 l -0.324,0.036 -0.109,-0.828 0.54,-0.072 C -0.504,-0.684 -0.145,-0.432 0,0" style="fill:#1a1a18;fill-opacity:1;fill-rule:evenodd;stroke:none" id="path10954"/>
        </g>
        <g id="g10956" transform="translate(56.320602,237.4494)">
          <path d="m 0,0 0,1.908 c 0,0.468 -0.468,0.828 -1.476,0.828 -0.792,0 -1.296,-0.324 -1.512,-0.432 l 0.396,-0.72 c 0.324,0.216 0.972,0.36 1.26,0.36 0.252,0 0.396,-0.216 0.396,-0.324 l 0,-0.216 c -0.324,0 -1.116,-0.144 -1.44,-0.252 -0.288,-0.108 -0.792,-0.324 -0.792,-1.044 0,-0.72 0.72,-1.188 1.476,-1.188 0.648,0 0.864,0.396 0.864,0.396 0,0 0.324,-0.396 0.864,-0.432 l 0.36,0.756 C -0.036,-0.252 0,-0.108 0,0 m -0.936,0.684 0,-0.684 c 0,-0.288 -0.54,-0.288 -0.612,-0.288 -0.108,0 -0.648,0 -0.648,0.468 0,0.468 0.684,0.468 1.26,0.504" style="fill:#1a1a18;fill-opacity:1;fill-rule:evenodd;stroke:none" id="path10958"/>
        </g>
        <g id="g10960" transform="translate(59.704407,236.54939)">
          <path d="m 0,0 -0.18,0.792 c -0.648,-0.18 -0.828,0 -0.828,0.144 l 0,1.8 0.936,0 0,0.828 -0.936,0 0,1.44 -0.936,-0.288 0,-1.152 -0.576,0 0,-0.828 0.576,0 0,-2.124 c 0,-0.432 0.288,-0.792 0.972,-0.792 0.504,0 0.864,0.144 0.972,0.18" style="fill:#1a1a18;fill-opacity:1;fill-rule:evenodd;stroke:none" id="path10962"/>
        </g>
        <g id="g10964" transform="translate(66.976303,239.2854)">
          <path d="m 0,0 0,0.9 c -0.9,0 -1.044,-0.216 -1.26,-0.468 l 0,0.396 -0.936,0 0,-3.636 0.936,0 0,1.8 C -1.26,-0.468 -0.647,0 0,0" style="fill:#1a1a18;fill-opacity:1;fill-rule:evenodd;stroke:none" id="path10966"/>
        </g>
        <g id="g10968" transform="translate(75.1483,237.4494)">
          <path d="m 0,0 0,1.908 c 0,0.468 -0.468,0.828 -1.476,0.828 -0.756,0 -1.295,-0.324 -1.512,-0.432 l 0.396,-0.72 c 0.324,0.216 0.972,0.36 1.26,0.36 0.252,0 0.396,-0.216 0.396,-0.324 l 0,-0.216 c -0.324,0 -1.116,-0.144 -1.44,-0.252 -0.288,-0.108 -0.792,-0.324 -0.792,-1.044 0,-0.72 0.72,-1.188 1.477,-1.188 0.647,0 0.863,0.396 0.863,0.396 0,0 0.324,-0.396 0.864,-0.432 L 0.433,-0.36 C -0.036,-0.252 0,-0.108 0,0 m -0.936,0.684 0,-0.684 c 0,-0.288 -0.54,-0.288 -0.612,-0.288 -0.108,0 -0.648,0 -0.648,0.468 0,0.468 0.684,0.468 1.26,0.504" style="fill:#1a1a18;fill-opacity:1;fill-rule:evenodd;stroke:none" id="path10970"/>
        </g>
        <g id="g10972" transform="translate(68.236099,233.2014)">
          <path d="m 0,0 0.9,0 0,-5.076 -1.007,0 0,3.528 -0.829,0 0,0.792 0.144,0 C -0.576,-0.756 -0.143,-0.72 0,0" style="fill:#1a1a18;fill-opacity:1;fill-rule:evenodd;stroke:none" id="path10974"/>
        </g>
        <g id="g10976" transform="translate(54.880707,229.0974)">
          <path d="m 0,0 0,1.908 c 0,0.504 -0.504,0.864 -1.476,0.864 -0.792,0 -1.332,-0.36 -1.548,-0.468 l 0.432,-0.72 c 0.288,0.216 0.972,0.36 1.224,0.36 0.288,0 0.396,-0.216 0.396,-0.324 l 0,-0.216 C -1.296,1.404 -2.088,1.26 -2.412,1.152 -2.7,1.08 -3.204,0.864 -3.204,0.144 c 0,-0.72 0.756,-1.224 1.512,-1.224 0.612,0 0.828,0.396 0.828,0.396 0,0 0.324,-0.396 0.864,-0.396 l 0.395,0.756 C -0.036,-0.252 0,-0.108 0,0 m -0.972,0.684 0,-0.684 c 0,-0.288 -0.504,-0.252 -0.613,-0.252 -0.071,0 -0.647,0 -0.647,0.432 0,0.468 0.684,0.504 1.26,0.504" style="fill:#1a1a18;fill-opacity:1;fill-rule:evenodd;stroke:none" id="path10978"/>
        </g>
        <g id="g10980" transform="translate(61.1082,230.60941)">
          <path d="m 0,0 0,-2.484 -0.936,0 0,2.232 c 0,0.324 -0.288,0.576 -0.576,0.576 -0.288,0 -0.612,-0.252 -0.612,-0.72 l 0,-2.088 -0.936,0 0,2.232 c 0,0.324 -0.288,0.576 -0.54,0.576 -0.288,0 -0.684,-0.18 -0.684,-0.684 l 0,-2.124 -0.936,0 0,3.636 0.936,0 0,-0.216 c 0,0 0.36,0.252 0.972,0.252 0.54,0 0.864,-0.36 0.864,-0.36 0,0 0.396,0.396 1.008,0.396 C -0.504,1.224 0,0.576 0,0" style="fill:#1a1a18;fill-opacity:1;fill-rule:evenodd;stroke:none" id="path10982"/>
        </g>
        <g id="g10984" transform="translate(38.992401,229.0654)">
          <path d="m 0,0 c 0.278,0 0.504,-0.226 0.504,-0.504 0,-0.278 -0.226,-0.504 -0.504,-0.504 -0.278,0 -0.504,0.226 -0.504,0.504 C -0.504,-0.226 -0.278,0 0,0" style="fill:#1a1a18;fill-opacity:1;fill-rule:evenodd;stroke:none" id="path10986"/>
        </g>
        <g id="g10988" transform="translate(43.612503,230.71741)">
          <path d="m 0,0 c 0.036,0 0.576,0.252 0.576,1.008 0,0.792 -0.684,1.512 -1.872,1.512 -1.152,0 -1.872,-0.576 -1.944,-1.548 l 1.044,-0.144 c 0.072,0.468 0.324,0.756 0.972,0.756 0.648,0 0.756,-0.432 0.756,-0.612 0,-0.468 -0.288,-0.612 -1.116,-0.612 l 0,-0.864 c 0.216,0 0.72,0 0.9,-0.108 0.288,-0.18 0.288,-0.324 0.288,-0.504 0,-0.108 -0.036,-0.684 -0.792,-0.684 -0.756,0 -0.936,0.396 -1.008,0.792 L -3.24,-1.224 c 0.108,-0.864 0.72,-1.512 2.052,-1.512 1.332,0 1.872,0.864 1.872,1.584 C 0.684,-0.468 0.252,-0.036 0,0" style="fill:#1a1a18;fill-opacity:1;fill-rule:evenodd;stroke:none" id="path10990"/>
        </g>
        <g id="g10992" transform="translate(35.548599,233.27341)">
          <path d="m 0,0 c 0.828,0 1.872,-0.396 1.872,-1.512 0,-0.828 -0.612,-0.972 -0.612,-0.972 0,0 0.72,-0.18 0.72,-1.188 0,-0.972 -0.792,-1.584 -1.98,-1.584 -1.188,0 -1.98,0.612 -1.98,1.584 0,1.008 0.72,1.188 0.72,1.188 0,0 -0.612,0.144 -0.612,0.972 C -1.872,-0.396 -0.828,0 0,0 m 0,-4.32 c -0.54,0 -0.9,0.252 -0.9,0.684 0,0.432 0.432,0.648 0.9,0.648 0.468,0 0.936,-0.216 0.936,-0.648 C 0.936,-4.068 0.54,-4.32 0,-4.32 m 0,2.196 c -0.36,0 -0.756,0.18 -0.756,0.612 0,0.396 0.396,0.612 0.756,0.612 0.36,0 0.792,-0.216 0.792,-0.612 0,-0.432 -0.396,-0.612 -0.792,-0.612" style="fill:#1a1a18;fill-opacity:1;fill-rule:evenodd;stroke:none" id="path10994"/>
        </g>
        <g id="g10996" transform="translate(47.536301,233.2014)">
          <path d="M 0,0 C 0.72,0.036 2.124,-0.396 2.124,-2.592 2.124,-4.788 0.792,-5.22 0,-5.22 c -0.828,0 -2.16,0.432 -2.16,2.628 0,2.196 1.44,2.628 2.16,2.592 m 0,-0.936 c 0.54,0 1.044,-0.324 1.08,-1.62 0,-1.332 -0.504,-1.728 -1.08,-1.728 -0.612,0 -1.116,0.396 -1.116,1.728 0.036,1.296 0.576,1.62 1.116,1.62" style="fill:#1a1a18;fill-opacity:1;fill-rule:evenodd;stroke:none" id="path10998"/>
        </g>
        <path d="m 63.412,230.681 1.585,0 0,-0.756 -1.585,0 0,0.756 z" style="fill:#1a1a18;fill-opacity:1;fill-rule:evenodd;stroke:none" id="path11000"/>
        <g id="g11002" transform="translate(84.976303,231.6174)">
          <path d="m 0,0 0,0.144 -0.936,0 0,-4.68 0.936,0 0,1.332 c 0,0 0.324,-0.36 1.008,-0.36 1.26,0 1.656,1.332 1.656,1.944 0,0.468 -0.18,0.972 -0.468,1.296 C 1.944,0 1.548,0.288 0.972,0.288 0.612,0.288 0.252,0.144 0,0 m 0,-1.26 0,-0.684 c 0,-0.36 0.288,-0.72 0.828,-0.72 0.54,0 0.864,0.504 0.864,1.08 0,0.576 -0.324,1.044 -0.864,1.044 C 0.288,-0.54 0,-0.936 0,-1.26" style="fill:#1a1a18;fill-opacity:1;fill-rule:evenodd;stroke:none" id="path11004"/>
        </g>
        <g id="g11006" transform="translate(70.912796,229.0654)">
          <path d="m 0,0 c 0.277,0 0.504,-0.226 0.504,-0.504 0,-0.278 -0.227,-0.504 -0.504,-0.504 -0.278,0 -0.505,0.226 -0.505,0.504 C -0.505,-0.226 -0.278,0 0,0" style="fill:#1a1a18;fill-opacity:1;fill-rule:evenodd;stroke:none" id="path11008"/>
        </g>
        <g id="g11010" transform="translate(75.580902,230.71741)">
          <path d="m 0,0 c 0.035,0 0.611,0.252 0.611,1.008 0,0.792 -0.719,1.512 -1.908,1.512 -1.151,0 -1.871,-0.576 -1.943,-1.548 l 1.044,-0.144 c 0.107,0.468 0.324,0.756 0.971,0.756 0.685,0 0.756,-0.432 0.756,-0.612 0,-0.468 -0.252,-0.612 -1.115,-0.612 l 0,-0.864 c 0.252,0 0.756,0 0.899,-0.108 0.288,-0.18 0.288,-0.324 0.288,-0.504 0,-0.108 0,-0.684 -0.792,-0.684 -0.755,0 -0.9,0.396 -1.007,0.792 L -3.24,-1.224 c 0.107,-0.864 0.719,-1.512 2.051,-1.512 1.332,0 1.873,0.864 1.873,1.584 C 0.684,-0.468 0.252,-0.036 0,0" style="fill:#1a1a18;fill-opacity:1;fill-rule:evenodd;stroke:none" id="path11012"/>
        </g>
        <g id="g11014" transform="translate(79.612106,233.2014)">
          <path d="M 0,0 C 0.721,0.036 2.124,-0.396 2.124,-2.592 2.124,-4.788 0.792,-5.22 0,-5.22 c -0.828,0 -2.124,0.432 -2.124,2.628 0,2.196 1.404,2.628 2.124,2.592 m 0,-0.936 c 0.54,0 1.044,-0.324 1.08,-1.62 0,-1.332 -0.468,-1.728 -1.08,-1.728 -0.611,0 -1.115,0.396 -1.115,1.728 0.035,1.296 0.575,1.62 1.115,1.62" style="fill:#1a1a18;fill-opacity:1;fill-rule:evenodd;stroke:none" id="path11016"/>
        </g>
        <g id="g11018" transform="translate(93.6521,230.60941)">
          <path d="m 0,0 0,-2.484 -0.936,0 0,2.232 c 0,0.324 -0.251,0.576 -0.576,0.576 -0.288,0 -0.612,-0.252 -0.612,-0.72 l 0,-2.088 -0.936,0 0,2.232 c 0,0.324 -0.288,0.576 -0.54,0.576 -0.252,0 -0.648,-0.18 -0.648,-0.684 l 0,-2.124 -0.936,0 0,3.636 0.936,0 0,-0.216 c 0,0 0.324,0.252 0.936,0.252 0.577,0 0.9,-0.36 0.864,-0.36 0,0 0.396,0.396 1.009,0.396 C -0.504,1.224 0,0.576 0,0" style="fill:#1a1a18;fill-opacity:1;fill-rule:evenodd;stroke:none" id="path11020"/>
        </g>
        <g id="g11022" transform="translate(79.756607,326.1172)">
          <path d="m 0,0 -3.312,0 0,-10.152 6.875,0 0,1.908 -4.895,0 0,2.232 4.14,0 0,1.872 -4.14,0 0,2.232 4.607,0 L 3.275,0 1.584,0 0,0 z" style="fill:#1a1a18;fill-opacity:1;fill-rule:evenodd;stroke:none" id="path11024"/>
        </g>
        <g id="g11026" transform="translate(65.428406,326.1172)">
          <path d="m 0,0 0.828,0 4.932,-7.02 0,7.02 1.98,0 0,-10.188 -2.304,0 -4.572,6.912 0,-6.912 -2.016,0 0,10.188 0.504,0 L 0,0 z" style="fill:#1a1a18;fill-opacity:1;fill-rule:evenodd;stroke:none" id="path11028"/>
        </g>
        <g id="g11030" transform="translate(56.896301,326.2256)">
          <path d="m 0,0 c -1.944,0 -4.788,-1.512 -4.788,-5.184 0,-3.708 2.772,-5.184 4.788,-5.184 2.016,0 4.788,1.476 4.788,5.184 C 4.788,-1.512 1.944,0 0,0 m 0,-1.98 c -1.368,0 -2.664,-1.044 -2.664,-3.24 0,-2.232 1.332,-3.312 2.664,-3.312 1.332,0 2.7,1.08 2.7,3.312 0,2.196 -1.332,3.24 -2.7,3.24" style="fill:#1a1a18;fill-opacity:1;fill-rule:evenodd;stroke:none" id="path11032"/>
        </g>
        <g id="g11034" transform="translate(46.600296,326.1172)">
          <path d="m 0,0 -3.312,0 0,-1.836 4.5,0 -4.68,-6.336 0,-1.98 7.344,0 0,1.98 -4.896,0 4.68,6.336 L 3.636,0 1.26,0 0,0 z" style="fill:#1a1a18;fill-opacity:1;fill-rule:evenodd;stroke:none" id="path11036"/>
        </g>
        <g id="g11038" transform="translate(42.028595,336.5215)">
          <path d="m 0,0 -1.584,-0.612 c -0.288,0.72 -0.756,1.548 -1.98,1.548 -1.224,0 -2.088,-1.116 -2.088,-2.556 0,-1.44 0.9,-2.592 2.088,-2.592 1.224,0 1.8,1.008 2.016,1.584 L 0,-3.24 l 0,0 c -0.396,-0.936 -1.44,-2.52 -3.528,-2.52 -2.196,0 -3.816,1.764 -3.816,4.176 0,2.412 1.836,4.068 3.78,4.068 1.98,0 3.06,-1.296 3.564,-2.484" style="fill:#1a1a18;fill-opacity:1;fill-rule:evenodd;stroke:none" id="path11040"/>
        </g>
        <g id="g11042" transform="translate(76.084701,330.79739)">
          <path d="M 0,0 -0.181,1.332 C -0.864,1.152 -1.225,1.296 -1.225,1.62 l 0,6.444 -1.475,0 0,-7.056 C -2.7,0.432 -2.305,-0.18 -1.188,-0.18 -0.612,-0.18 0,0 0,0" style="fill:#1a1a18;fill-opacity:1;fill-rule:evenodd;stroke:none" id="path11044"/>
        </g>
        <g id="g11046" transform="translate(45.916305,336.8096)">
          <path d="m 0,0 c -1.404,0 -2.808,-1.152 -2.808,-3.168 0,-1.98 1.368,-3.168 2.808,-3.168 1.44,0 2.844,1.188 2.844,3.168 C 2.844,-1.152 1.404,0 0,0 m 0,-1.332 c -0.612,0 -1.332,-0.576 -1.332,-1.836 0,-1.26 0.72,-1.836 1.332,-1.836 0.612,0 1.332,0.576 1.332,1.836 0,1.26 -0.684,1.836 -1.332,1.836" style="fill:#1a1a18;fill-opacity:1;fill-rule:evenodd;stroke:none" id="path11048"/>
        </g>
        <g id="g11050" transform="translate(81.880707,333.13721)">
          <path d="M 0,0 3.815,0 C 3.888,0.72 3.6,3.636 1.151,3.636 c -2.159,0 -2.664,-2.34 -2.664,-3.06 0,-0.72 0.469,-3.096 2.845,-3.096 1.332,0 2.052,0.756 2.232,0.972 l -0.936,0.9 c 0,0 -0.433,-0.54 -1.296,-0.54 C 0.468,-1.188 0,-0.576 0,0 m 0,1.152 2.34,0 C 2.34,1.692 1.908,2.304 1.188,2.304 0.468,2.304 0,1.728 0,1.152" style="fill:#1a1a18;fill-opacity:1;fill-rule:evenodd;stroke:none" id="path11052"/>
        </g>
        <g id="g11054" transform="translate(90.988098,336.16119)">
          <path d="m 0,0 0,2.7 1.513,0 0,-8.1 -1.513,0 0,0.288 c 0,0 -0.611,-0.504 -1.512,-0.504 -0.864,0 -2.664,0.756 -2.664,3.132 0,2.376 1.872,3.06 2.556,3.06 C -0.899,0.576 -0.575,0.396 0,0 M 0,-1.979 0,-3.132 C 0,-3.6 -0.395,-4.32 -1.26,-4.32 c -0.899,0 -1.368,0.72 -1.368,1.836 0,1.08 0.576,1.62 1.332,1.62 C -0.54,-0.864 0,-1.296 0,-1.979" style="fill:#1a1a18;fill-opacity:1;fill-rule:evenodd;stroke:none" id="path11056"/>
        </g>
        <g id="g11058" transform="translate(60.676498,330.94141)">
          <path d="M 0,0 -0.288,1.26 C -1.332,0.936 -1.656,1.224 -1.656,1.476 l 0,2.88 1.548,0 0,1.296 -1.548,0 0,2.304 -1.476,-0.432 0,-1.872 -0.936,0 0,-1.296 0.936,0 0,-3.384 c 0,-0.72 0.468,-1.296 1.584,-1.296 0.792,0 1.368,0.252 1.548,0.324" style="fill:#1a1a18;fill-opacity:1;fill-rule:evenodd;stroke:none" id="path11060"/>
        </g>
        <g id="g11062" transform="translate(55.312302,334.57719)">
          <path d="m 0,0 0,-3.78 -1.512,0 0,3.636 c 0,0.432 -0.36,0.864 -0.972,0.864 -0.648,0 -1.224,-0.54 -1.224,-1.332 l 0,-3.168 -1.512,0 0,5.796 1.512,0 0,-0.432 c 0,0 0.612,0.576 1.44,0.576 C -0.9,2.16 0,1.044 0,0" style="fill:#1a1a18;fill-opacity:1;fill-rule:evenodd;stroke:none" id="path11064"/>
        </g>
        <g id="g11066" transform="translate(65.320007,335.29739)">
          <path d="m 0,0 0,1.44 c -1.439,0 -1.655,-0.36 -1.979,-0.72 l 0,0.576 -1.513,0 0,-5.796 1.513,0 0,2.88 C -1.979,-0.756 -1.044,0 0,0" style="fill:#1a1a18;fill-opacity:1;fill-rule:evenodd;stroke:none" id="path11068"/>
        </g>
        <g id="g11070" transform="translate(69.208695,336.8096)">
          <path d="m 0,0 c -1.404,0 -2.809,-1.152 -2.809,-3.168 0,-1.98 1.369,-3.168 2.809,-3.168 1.44,0 2.844,1.188 2.844,3.168 C 2.844,-1.152 1.403,0 0,0 m 0,-1.332 c -0.612,0 -1.332,-0.576 -1.332,-1.836 0,-1.26 0.72,-1.836 1.332,-1.836 0.611,0 1.332,0.576 1.332,1.836 0,1.26 -0.684,1.836 -1.332,1.836" style="fill:#1a1a18;fill-opacity:1;fill-rule:evenodd;stroke:none" id="path11072"/>
        </g>
        <g id="g11074" transform="translate(79.720505,330.79739)">
          <path d="m 0,0 -0.144,1.332 c -0.72,-0.18 -1.08,-0.036 -1.08,0.288 l 0,6.444 -1.476,0 0,-7.056 C -2.7,0.432 -2.304,-0.18 -1.189,-0.18 -0.576,-0.18 0,0 0,0" style="fill:#1a1a18;fill-opacity:1;fill-rule:evenodd;stroke:none" id="path11076"/>
        </g>
      </g>
    </g>
  </g>
</svg>