<?xml version="1.0" encoding="UTF-8" standalone="no"?>
<!-- Created with Inkscape (http://www.inkscape.org/) -->

<svg
   xmlns:dc="http://purl.org/dc/elements/1.1/"
   xmlns:cc="http://creativecommons.org/ns#"
   xmlns:rdf="http://www.w3.org/1999/02/22-rdf-syntax-ns#"
   xmlns:svg="http://www.w3.org/2000/svg"
   xmlns="http://www.w3.org/2000/svg"
   xmlns:inkscape="http://www.inkscape.org/namespaces/inkscape"
   version="1.1"
   width="457.95001"
   height="280.37"
   id="svg2"
   xml:space="preserve"><metadata
     id="metadata8"><rdf:RDF><cc:Work
         rdf:about=""><dc:format>image/svg+xml</dc:format><dc:type
           rdf:resource="http://purl.org/dc/dcmitype/StillImage" /></cc:Work></rdf:RDF></metadata><defs
     id="defs6"><clipPath
       id="clipPath16"><path
         d="M 0,224.3 H 366.36 V 0 H 0 v 224.3 z"
         inkscape:connector-curvature="0"
         id="path18" /></clipPath></defs><g
     transform="matrix(1.25,0,0,-1.25,0,280.37)"
     id="g10"><g
       id="g12"><g
         clip-path="url(#clipPath16)"
         id="g14"><g
           transform="translate(366.36,18.281)"
           id="g20"><path
             d="m 0,0 c 0,-10.096 -8.185,-18.281 -18.282,-18.281 h -329.8 c -10.096,0 -18.281,8.185 -18.281,18.281 v 187.74 c 0,10.096 8.185,18.281 18.281,18.281 h 329.8 c 10.095,0 18.28,-8.19 18.28,-18.28 V 0.001"
             inkscape:connector-curvature="0"
             id="path22"
             style="fill:#231f20" /></g></g></g><g
       transform="translate(356.87,18.281)"
       id="g24"><path
         d="m 0,0 c 0,-4.854 -3.934,-8.789 -8.789,-8.789 h -329.8 c -4.853,0 -8.788,3.935 -8.788,8.789 v 187.74 c 0,4.853 3.935,8.788 8.788,8.788 h 329.8 C -3.934,196.528 0,192.593 0,187.74 L 0.001,0"
         inkscape:connector-curvature="0"
         id="path26"
         style="fill:#ffffff" /></g><g
       transform="translate(190.42,184.29)"
       id="g28"><path
         d="m 0,0 c 0,-9.647 -6.898,-16.274 -14.877,-16.274 h -11.496 v 31.737 h 12.307 C -5.996,15.463 0,9.107 0,0"
         inkscape:connector-curvature="0"
         id="path30"
         style="fill:#231f20" /></g><g
       transform="translate(183.8,184.25)"
       id="g32"><path
         d="m 0,0 c 0,7.799 -5.23,9.332 -7.935,9.332 h -5.139 V -9.783 H -8.61 C -3.291,-9.783 0,-6.492 0,0"
         inkscape:connector-curvature="0"
         id="path34"
         style="fill:#ffffff" /></g><g
       transform="translate(194.05,179.15)"
       id="g36"><path
         d="m 0,0 c 0,9.242 5.409,12.623 10.819,12.623 4.914,0 11.045,-3.381 11.045,-12.623 0,-6.807 -4.463,-11.947 -10.73,-11.947 C 4.237,-11.947 0,-7.213 0,0"
         inkscape:connector-curvature="0"
         id="path38"
         style="fill:#231f20" /></g><g
       transform="translate(209.74,179.15)"
       id="g40"><path
         d="m 0,0 c 0,5.365 -1.847,7.033 -4.553,7.033 -3.426,0 -4.824,-2.795 -4.824,-7.033 0,-3.697 1.804,-6.492 4.824,-6.492 C -1.577,-6.492 0,-3.697 0,0"
         inkscape:connector-curvature="0"
         id="path42"
         style="fill:#ffffff" /></g><g
       transform="translate(220.04,179.15)"
       id="g44"><path
         d="m 0,0 c 0,7.168 3.742,12.308 11.091,12.308 4.327,0 8.61,-2.841 10.187,-7.484 L 15.418,2.615 C 14.652,5.139 13.119,6.808 10.774,6.808 7.619,6.808 6.357,3.742 6.357,0 c 0,-3.967 1.171,-6.582 4.508,-6.582 2.299,0 3.516,1.262 4.553,4.148 l 6.041,-2.209 C 19.431,-9.783 16.32,-11.992 10.955,-11.992 3.742,-11.992 0,-7.258 0,0"
         inkscape:connector-curvature="0"
         id="path46"
         style="fill:#231f20" /></g><g
       transform="translate(247.87,185.6)"
       id="g48"><path
         d="M 0,0 H -3.606 V 5.185 H 0 v 7.212 l 6.222,1.714 V 5.185 h 5.86 V 0 H 6.357 v -10.279 c 0,-2.299 0.856,-2.524 1.758,-2.524 0.902,0 1.578,0.18 3.381,0.541 l 1.398,-5.094 c -2.84,-0.767 -5.41,-1.038 -7.078,-1.038 -2.163,0 -5.816,1.127 -5.816,5.411 V 0"
         inkscape:connector-curvature="0"
         id="path50"
         style="fill:#231f20" /></g><g
       transform="translate(263.43,179.15)"
       id="g52"><path
         d="m 0,0 c 0,9.242 5.41,12.623 10.82,12.623 4.914,0 11.045,-3.381 11.045,-12.623 0,-6.807 -4.463,-11.947 -10.73,-11.947 C 4.238,-11.947 0,-7.213 0,0"
         inkscape:connector-curvature="0"
         id="path54"
         style="fill:#231f20" /></g><g
       transform="translate(279.12,179.15)"
       id="g56"><path
         d="m 0,0 c 0,5.365 -1.848,7.033 -4.553,7.033 -3.425,0 -4.824,-2.795 -4.824,-7.033 0,-3.697 1.804,-6.492 4.824,-6.492 C -1.577,-6.492 0,-3.697 0,0"
         inkscape:connector-curvature="0"
         id="path58"
         style="fill:#ffffff" /></g><g
       transform="translate(296.95,188.62)"
       id="g60"><path
         d="m 0,0 c 1.352,1.803 3.652,2.66 5.996,2.66 0.315,0 0.586,0 1.126,-0.045 V -3.291 C 5.139,-3.381 4.553,-3.381 4.553,-3.381 1.984,-3.471 -0.136,-5.274 -0.136,-8.926 V -20.602 H -6.222 V 2.344 h 6.086 L 0,0"
         inkscape:connector-curvature="0"
         id="path62"
         style="fill:#231f20" /></g><g
       transform="translate(186.62,133.56)"
       id="g64"><path
         d="m 0,0 c 0,-6.808 -3.877,-11.631 -9.783,-11.631 -3.11,0 -3.561,0.316 -6.356,2.119 v -8.476 h -6.041 v 29.754 h 6.041 v -1.217 c 1.938,1.578 3.156,2.254 5.77,2.254 C -3.561,12.803 0,7.709 0,0"
         inkscape:connector-curvature="0"
         id="path66"
         style="fill:#231f20" /></g><g
       transform="translate(170.48,131.76)"
       id="g68"><path
         d="m 0,0 c 0,-2.39 2.66,-4.463 5.049,-4.463 3.471,0 4.779,2.705 4.779,6.672 0,4.328 -1.308,6.852 -5.004,6.852 C 0.406,9.061 0,5.139 0,3.561 V 0"
         inkscape:connector-curvature="0"
         id="path70"
         style="fill:#ffffff" /></g><g
       transform="translate(207.08,129.6)"
       id="g72"><path
         d="m 0,0 3.652,-3.967 c -2.93,-2.66 -4.87,-3.787 -9.016,-3.787 -7.079,0 -11.406,5.23 -11.406,12.217 0,6.222 4.011,11.677 10.188,11.677 6.718,0 10.864,-5.005 10.864,-12.488 V 2.074 h -15.056 c 0.135,-2.615 2.524,-4.508 5.545,-4.508 1.713,0 2.66,0.27 5.229,2.434"
         inkscape:connector-curvature="0"
         id="path74"
         style="fill:#231f20" /></g><g
       transform="translate(196.3,136.31)"
       id="g76"><path
         d="M 0,0 H 9.241 C 9.106,2.254 6.851,4.283 4.597,4.283 2.299,4.283 0.36,2.48 0,0"
         inkscape:connector-curvature="0"
         id="path78"
         style="fill:#ffffff" /></g><g
       transform="translate(222.86,142.94)"
       id="g80"><path
         d="m 0,0 c 1.353,1.803 3.652,2.66 5.996,2.66 0.316,0 0.586,0 1.127,-0.045 v -5.906 c -1.983,-0.09 -2.57,-0.09 -2.57,-0.09 -2.568,-0.09 -4.688,-1.893 -4.688,-5.545 V -20.602 H -6.22 V 2.344 h 6.085 L 0,0"
         inkscape:connector-curvature="0"
         id="path82"
         style="fill:#231f20" /></g><g
       transform="translate(259.57,139.96)"
       id="g84"><path
         d="m 0,0 c -2.66,0 -3.922,-1.939 -3.922,-4.373 v -13.254 h -6.266 v 13.074 c 0,3.111 -1.218,4.553 -3.201,4.553 -2.48,0 -4.012,-2.074 -4.012,-4.373 v -13.254 h -6.041 V 5.185 h 6.041 V 3.472 c 1.894,1.713 3.156,2.344 5.229,2.344 2.931,0 3.877,-0.406 6.177,-2.885 2.434,2.434 4.147,2.975 6.717,2.975 4.914,0 8.565,-4.508 8.565,-9.287 V -17.627 H 3.156 V -4.553 C 3.156,-1.442 1.939,0 0,0"
         inkscape:connector-curvature="0"
         id="path86"
         style="fill:#231f20" /></g><path
       d="m 275.46,122.34 h 6.04 v 22.946 h -6.04 V 122.34 z"
       inkscape:connector-curvature="0"
       id="path88"
       style="fill:#231f20" /><g
       transform="translate(274.96,151.01)"
       id="g90"><path
         d="m 0,0 c 0,1.893 1.533,3.517 3.427,3.517 1.983,0 3.516,-1.624 3.516,-3.562 0,-1.894 -1.533,-3.472 -3.471,-3.472 C 1.533,-3.517 0,-1.939 0,0"
         inkscape:connector-curvature="0"
         id="path92"
         style="fill:#231f20" /></g><g
       transform="translate(289.89,139.92)"
       id="g94"><path
         d="M 0,0 H -3.607 V 5.184 H 0 v 7.213 l 6.22,1.714 V 5.184 h 5.862 V 0 H 6.356 v -10.279 c 0,-2.299 0.857,-2.524 1.758,-2.524 0.902,0 1.578,0.18 3.382,0.541 l 1.397,-5.095 c -2.84,-0.766 -5.41,-1.037 -7.078,-1.037 -2.164,0 -5.815,1.127 -5.815,5.411 V 0"
         inkscape:connector-curvature="0"
         id="path96"
         style="fill:#231f20" /></g><g
       transform="translate(167.03,100.06)"
       id="g98"><path
         d="m 0,0 c 4.688,0 8.656,-4.149 8.656,-9.559 v -13.84 H 2.479 v 13.976 c 0,2.39 -1.262,3.696 -3.967,3.696 -2.84,0 -4.283,-2.253 -4.283,-4.778 v -12.894 h -6.086 V 8.429 h 6.086 V -2.12 C -3.336,-0.317 -2.029,0 0,0"
         inkscape:connector-curvature="0"
         id="path100"
         style="fill:#231f20" /></g><g
       transform="translate(180.37,87.792)"
       id="g102"><path
         d="m 0,0 c 0,9.242 5.41,12.622 10.819,12.622 4.914,0 11.045,-3.38 11.045,-12.622 0,-6.808 -4.463,-11.947 -10.729,-11.947 C 4.237,-11.947 0,-7.214 0,0"
         inkscape:connector-curvature="0"
         id="path104"
         style="fill:#231f20" /></g><g
       transform="translate(196.06,87.792)"
       id="g106"><path
         d="M 0,0 C 0,5.364 -1.849,7.033 -4.554,7.033 -7.98,7.033 -9.377,4.237 -9.377,0 c 0,-3.697 1.802,-6.492 4.823,-6.492 C -1.579,-6.492 0,-3.697 0,0"
         inkscape:connector-curvature="0"
         id="path108"
         style="fill:#ffffff" /></g><g
       transform="translate(207.85,108.58)"
       id="g110"><path
         d="m 0,0 h 6.041 v -23.398 c 0,-2.435 0.405,-3.021 1.713,-3.11 0.766,-0.045 1.397,0 2.253,0.225 l 0.587,-5.32 C 8.475,-32.144 6.446,-32.505 5.004,-32.505 3.516,-32.505 0,-32.008 0,-26.689 V 0"
         inkscape:connector-curvature="0"
         id="path112"
         style="fill:#231f20" /></g><g
       transform="translate(220.87,87.927)"
       id="g114"><path
         d="m 0,0 c 0,6.628 3.292,12.352 9.963,12.352 2.345,0 3.878,-0.315 6.312,-1.938 v 10.143 h 6.176 v -31.828 h -6.176 v 1.398 C 14.292,-11.541 12.397,-11.812 9.783,-11.812 3.472,-11.812 0,-7.077 0,0"
         inkscape:connector-curvature="0"
         id="path116"
         style="fill:#231f20" /></g><g
       transform="translate(232.32,81.57)"
       id="g118"><path
         d="m 0,0 c 3.156,0 4.869,1.714 4.869,4.825 v 3.606 c 0,2.704 -1.848,4.824 -4.734,4.824 -3.606,0 -5.409,-2.75 -5.409,-6.673 C -5.274,2.525 -3.471,0 0,0"
         inkscape:connector-curvature="0"
         id="path120"
         style="fill:#ffffff" /></g><g
       transform="translate(265.01,83.914)"
       id="g122"><path
         d="m 0,0 3.651,-3.967 c -2.93,-2.659 -4.868,-3.787 -9.016,-3.787 -7.078,0 -11.406,5.231 -11.406,12.218 0,6.222 4.013,11.677 10.189,11.677 6.717,0 10.865,-5.005 10.865,-12.488 V 2.074 h -15.058 c 0.135,-2.615 2.525,-4.507 5.545,-4.507 1.713,0 2.66,0.27 5.23,2.433"
         inkscape:connector-curvature="0"
         id="path124"
         style="fill:#231f20" /></g><g
       transform="translate(254.24,90.632)"
       id="g126"><path
         d="M 0,0 H 9.243 C 9.107,2.255 6.853,4.282 4.598,4.282 2.299,4.282 0.361,2.479 0,0"
         inkscape:connector-curvature="0"
         id="path128"
         style="fill:#ffffff" /></g><g
       transform="translate(280.8,97.259)"
       id="g130"><path
         d="m 0,0 c 1.352,1.804 3.651,2.66 5.996,2.66 0.316,0 0.587,0 1.128,-0.046 v -5.905 c -1.984,-0.09 -2.57,-0.09 -2.57,-0.09 -2.571,-0.09 -4.689,-1.894 -4.689,-5.546 V -20.603 H -6.221 V 2.345 h 6.086 L 0,0"
         inkscape:connector-curvature="0"
         id="path132"
         style="fill:#231f20" /></g><g
       transform="translate(301.54,91.082)"
       id="g134"><path
         d="m 0,0 3.787,-0.54 c 4.013,-0.541 6.401,-3.337 6.401,-6.897 0,-4.599 -3.832,-7.8 -9.287,-7.8 -4.733,0 -7.933,1.173 -10.954,4.193 l 4.508,3.967 c 1.849,-1.894 3.923,-2.976 6.132,-2.976 1.803,0 3.246,0.767 3.246,1.939 0,0.946 -0.947,1.849 -2.841,2.209 l -3.967,0.766 c -3.516,0.676 -5.591,3.336 -5.591,6.448 0,4.597 3.562,7.528 9.422,7.528 3.202,0 5.907,-0.541 9.062,-3.381 L 6.042,1.353 C 4.463,3.202 2.796,3.787 0.722,3.787 -1.037,3.787 -2.254,2.796 -2.254,1.669 -2.254,0.902 -1.849,0.227 0,0"
         inkscape:connector-curvature="0"
         id="path136"
         style="fill:#231f20" /></g><g
       transform="translate(182.4,42.111)"
       id="g138"><path
         d="m 0,0 c 0,9.242 5.41,12.623 10.82,12.623 4.914,0 11.045,-3.381 11.045,-12.623 0,-6.808 -4.463,-11.947 -10.73,-11.947 C 4.238,-11.947 0,-7.213 0,0"
         inkscape:connector-curvature="0"
         id="path140"
         style="fill:#231f20" /></g><g
       transform="translate(198.09,42.111)"
       id="g142"><path
         d="m 0,0 c 0,5.365 -1.848,7.033 -4.553,7.033 -3.426,0 -4.824,-2.796 -4.824,-7.033 0,-3.697 1.804,-6.493 4.824,-6.493 C -1.577,-6.493 0,-3.697 0,0"
         inkscape:connector-curvature="0"
         id="path144"
         style="fill:#ffffff" /></g><g
       transform="translate(218.49,53.877)"
       id="g146"><path
         d="m 0,0 c 0.946,0.451 2.074,0.586 3.155,0.586 4.96,0 8.703,-3.832 8.703,-8.43 V -22.901 H 5.862 v 13.073 c 0,2.569 -1.263,4.644 -3.743,4.644 -2.93,0 -4.824,-1.713 -4.824,-4.013 v -13.704 h -6.041 v 22.856 h 6.222 V -1.713 C -1.352,-0.722 -0.992,-0.36 0,0"
         inkscape:connector-curvature="0"
         id="path148"
         style="fill:#231f20" /></g><g
       transform="translate(236.86,62.894)"
       id="g150"><path
         d="m 0,0 h 6.04 v -23.398 c 0,-2.434 0.407,-3.02 1.714,-3.111 0.767,-0.045 1.398,0 2.254,0.226 l 0.586,-5.32 C 8.476,-32.144 6.447,-32.505 5.004,-32.505 3.517,-32.505 0,-32.009 0,-26.689 V 0"
         inkscape:connector-curvature="0"
         id="path152"
         style="fill:#231f20" /></g><g
       transform="translate(262.32,27.864)"
       id="g154"><path
         d="m 0,0 c -0.766,-2.298 -2.209,-4.463 -5.274,-4.463 0,0 -1.623,0 -6.266,0.587 l 0.586,5.365 c 0.676,-0.181 2.254,-0.316 3.245,-0.316 1.082,0 2.119,0.586 2.119,1.848 0,0.406 0.045,0.947 -0.18,1.578 l -7.439,21.054 h 5.996 l 5.004,-13.66 4.869,13.66 H 8.791 L 0,0"
         inkscape:connector-curvature="0"
         id="path156"
         style="fill:#231f20" /></g><g
       transform="translate(131.37,56.174)"
       id="g158"><path
         d="m 0,0 c 4.075,0 7.38,3.305 7.38,7.38 v 101.43 c 0,4.076 -3.305,7.379 -7.38,7.379 h -101.81 c -4.076,0 -7.38,-3.303 -7.38,-7.379 V 7.38 c 0,-4.075 3.304,-7.38 7.38,-7.38 H 0"
         inkscape:connector-curvature="0"
         id="path160"
         style="fill:#0079c1" /></g><g
       transform="translate(99.801,157.07)"
       id="g162"><path
         d="M 0,0 C 10.723,0 19.417,-8.756 19.417,-19.479 V -33.815 C 19.417,-44.539 10.723,-53.232 0,-53.232 h -28.289 v -34.919 h -18.79 V 0 H 0"
         inkscape:connector-curvature="0"
         id="path164"
         style="fill:#ffffff" /></g><g
       transform="translate(92.024,118.05)"
       id="g166"><path
         d="m 0,0 c 4.683,0 8.518,3.803 8.518,8.486 v 7.51 c 0,4.683 -3.797,8.479 -8.479,8.479 H -20.358 V 0 H 0"
         inkscape:connector-curvature="0"
         id="path168"
         style="fill:#0079c1" /></g></g></svg>