<?xml version="1.0" encoding="UTF-8" standalone="no"?>
<!-- Created with Inkscape (http://www.inkscape.org/) -->

<svg
   xmlns:dc="http://purl.org/dc/elements/1.1/"
   xmlns:cc="http://creativecommons.org/ns#"
   xmlns:rdf="http://www.w3.org/1999/02/22-rdf-syntax-ns#"
   xmlns:svg="http://www.w3.org/2000/svg"
   xmlns="http://www.w3.org/2000/svg"
   xmlns:inkscape="http://www.inkscape.org/namespaces/inkscape"
   version="1.1"
   width="552.38"
   height="358.38"
   id="svg2"
   xml:space="preserve"><defs
     id="defs61" /><metadata
     id="metadata8"><rdf:RDF><cc:Work
         rdf:about=""><dc:format>image/svg+xml</dc:format><dc:type
           rdf:resource="http://purl.org/dc/dcmitype/StillImage" /></cc:Work></rdf:RDF></metadata><g
     transform="matrix(1.25,0,0,-1.25,-103.78,680.41)"
     id="g10"><g
       transform="scale(0.1,0.1)"
       id="g12"><path
         d="m 5249.2,2771.2 c 0.22,-107.55 -87.09,-194.86 -195,-195 h -4029 c -107.41,0.14 -194.72,87.45 -195,195 v 2477 c 0.281,108.05 87.59,195.36 195,195 h 4029 c 107.91,0.36 195.22,-86.95 195,-195 v -2477"
         inkscape:connector-curvature="0"
         id="path14" /><path
         d="m 5148.2,2771.2 c -0.04,-51.63 -42.01,-93.6 -94,-94 h -4029 c -51.488,0.4 -93.457,42.37 -93,94 v 2477 c -0.457,52.13 41.512,94.1 93,94 h 4029 c 51.99,0.1 93.96,-41.87 94,-94 v -2477"
         inkscape:connector-curvature="0"
         id="path16"
         style="fill:#ffffff" /><path
         d="m 1774.2,4894.2 h -79 v -137 h -81 v 381 h 152 c 115.86,0.38 133.75,-97.19 134,-124 -0.25,-37.69 -32.23,-119.54 -126,-120"
         inkscape:connector-curvature="0"
         id="path18" /><path
         d="m 1820.2,5014.2 c 0.07,34.4 -22.16,51.75 -53,52 h -72 v -103 h 71 c 25.88,-0.24 54.07,19.27 54,51"
         inkscape:connector-curvature="0"
         id="path20"
         style="fill:#ffffff" /><path
         d="m 1952.2,5141.2 h 72 v -282 c 0.46,-29.04 5.34,-36.09 21,-37 9.28,-0.71 16.87,-0.17 27,3 l 7,-64 c -25.27,-6.93 -49.66,-11.27 -67,-11 -17.89,-0.27 -60.17,5.7 -60,70 v 321"
         inkscape:connector-curvature="0"
         id="path22" /><path
         d="m 2209.2,4749.2 c -60.44,0.19 -95.67,33.8 -96,86 0.33,46.99 28.52,96.32 161,96 v 15 c -0.22,16.76 -16.48,27.06 -41,27 -21.56,0.06 -57.33,-12.41 -83,-28 l -36,54 c 19.93,14.17 67.09,40.73 117,41 76.93,-0.27 116.5,-29.54 116,-83 v -114 c 0.5,-24.43 7,-31.47 32,-36 l -25,-57 c -13.01,-0.27 -49.33,4.61 -68,28 -24.15,-23.39 -46.91,-28.81 -77,-29"
         inkscape:connector-curvature="0"
         id="path24" /><path
         d="m 2232.2,4810.2 c 30.39,0.44 43.95,9.12 44,32 v 35 l -56,-9 c -24.28,-3.35 -29.16,-16.36 -29,-32 -0.16,-17.43 10.68,-25.56 41,-26"
         inkscape:connector-curvature="0"
         id="path26"
         style="fill:#ffffff" /><path
         d="m 2557.2,4719.2 c -9.2,-27.26 -26.54,-53.28 -63,-53 0,0 -19.91,-0.28 -76,7 l 7,64 c 8.43,-1.9 27.41,-3.53 39,-4 13.34,0.47 25.8,7.52 26,23 -0.2,4.57 0.35,11.08 -2,19 l -90,253 h 72 l 60,-164 59,164 h 74 l -106,-309"
         inkscape:connector-curvature="0"
         id="path28" /><path
         d="m 3116.2,4866.2 c 0.05,20.33 -8.62,33.88 -49,42 l -65,14 c -38.8,7.15 -89.21,40.21 -89,104 -0.21,61.43 55.62,120.51 145,121 0,0 100.33,-0.49 151,-60 l -56,-55 c -44.54,38.63 -98,39 -98,39 -34.35,-0.37 -54.95,-17.18 -55,-42 0.05,-20.17 14.69,-33.18 80,-42 72.91,-10.15 122.24,-55.14 123,-119 0.32,-52.68 -29.49,-119.89 -162,-120 -75.09,0.11 -110.32,20.16 -162,73 l 65,49 c 35.46,-34.62 60.39,-45.46 102,-45 42.41,-0.46 70.05,12.55 70,41"
         inkscape:connector-curvature="0"
         id="path30" /><path
         d="m 3304.2,4968.2 h -44 v 63 h 44 v 86 l 74,21 v -107 h 71 v -63 h -69 v -123 c 0,-28.05 10.3,-30.76 21,-31 10.98,0.24 19.11,2.41 41,7 l 17,-62 c -34.55,-8.72 -65.45,-11.98 -86,-12 -25.53,0.02 -69.43,13.57 -69,65 v 156"
         inkscape:connector-curvature="0"
         id="path32" /><path
         d="m 3583.2,5004.2 c 16.72,22.18 44.37,32.48 73,32 3.35,0.48 6.6,0.48 13,0 v -71 c -23.75,-1.16 -31,-1 -31,-1 -30.69,-1.24 -56.16,-22.92 -56,-67 v -140 h -73 v 276 h 73 l 1,-29"
         inkscape:connector-curvature="0"
         id="path34" /><path
         d="m 3926.2,4844.2 44,-48 c -35.66,-31.63 -58.97,-45.18 -109,-45 -84.94,-0.18 -136.98,62.7 -137,147 0.02,74.52 48.27,140.1 123,140 80.29,0.1 130.16,-60.07 130,-150 v -19 h -181 c 1.74,-31.45 30.47,-54.22 67,-54 20.38,-0.22 31.77,3.03 63,29"
         inkscape:connector-curvature="0"
         id="path36" /><path
         d="m 3796.2,4925.2 h 111 c -1.39,26.92 -28.5,51.31 -56,51 -27.24,0.31 -50.55,-21.37 -55,-51"
         inkscape:connector-curvature="0"
         id="path38"
         style="fill:#ffffff" /><path
         d="m 4227.2,4844.2 44,-48 c -35.19,-31.63 -58.5,-45.18 -108,-45 -85.46,-0.18 -137.5,62.7 -138,147 0.5,74.52 48.74,140.1 123,140 80.77,0.1 130.63,-60.07 131,-150 v -19 h -181 c 1.22,-31.45 29.95,-54.22 66,-54 20.86,-0.22 32.24,3.03 63,29"
         inkscape:connector-curvature="0"
         id="path40" /><path
         d="m 4098.2,4925.2 h 111 c -1.91,26.92 -29.02,51.31 -56,51 -27.77,0.31 -51.07,-21.37 -55,-51"
         inkscape:connector-curvature="0"
         id="path42"
         style="fill:#ffffff" /><path
         d="m 4367.2,4968.2 h -44 v 63 h 44 v 86 l 74,21 v -107 h 71 v -63 h -69 v -123 c -0.03,-28.05 10.27,-30.76 21,-31 10.95,0.24 19.09,2.41 41,7 l 17,-62 c -34.58,-8.72 -65.48,-11.98 -86,-12 -25.55,0.02 -69.45,13.57 -69,65 v 156"
         inkscape:connector-curvature="0"
         id="path44" /><path
         d="m 1158.2,4188.2 c -0.36,39.73 15.36,66.29 53,84 -35.48,19.15 -47.4,43 -47,79 -0.4,51.81 48.38,109.81 137,110 94.59,-0.19 135.79,-48.43 136,-111 -0.21,-35 -11.59,-58.85 -46,-79 38.2,-18.33 51.75,-44.35 52,-83 -0.25,-75.18 -49.57,-122.34 -142,-122 -92.95,-0.34 -143.36,46.82 -143,122"
         inkscape:connector-curvature="0"
         id="path46" /><path
         d="m 1358.2,4346.2 c -0.35,28.09 -20.95,45.97 -57,46 -39.29,-0.03 -59.89,-16.83 -60,-45 0.11,-27.66 21.25,-45.01 60,-45 36.59,-0.01 56.65,16.8 57,44"
         inkscape:connector-curvature="0"
         id="path48"
         style="fill:#ffffff" /><path
         d="m 1366.2,4183.2 c 0.32,31.72 -21.9,51.24 -65,51 -42.54,0.24 -66.39,-19.28 -66,-50 -0.39,-29.98 22.91,-48.96 66,-49 43.1,0.04 65.32,19.02 65,48"
         inkscape:connector-curvature="0"
         id="path50"
         style="fill:#ffffff" /><path
         d="m 1707.2,4068.2 c -59.73,0.37 -94.96,33.98 -95,87 0.04,46.17 28.23,95.5 160,95 v 16 c 0.49,15.94 -15.77,26.23 -41,26 -20.85,0.23 -56.62,-12.23 -83,-28 l -35,54 c 19.64,14.35 66.8,40.91 117,41 76.64,-0.09 116.2,-29.36 116,-82 v -115 c 0.2,-24.25 6.71,-31.29 32,-36 l -25,-57 c -13.3,-0.09 -49.62,4.79 -68,28 -24.44,-23.21 -47.2,-28.63 -78,-29"
         inkscape:connector-curvature="0"
         id="path52" /><path
         d="m 1731.2,4130.2 c 30.11,-0.38 43.66,8.29 44,31 v 35 l -56,-8 c -24.57,-4.17 -29.45,-17.18 -29,-32 -0.45,-18.25 10.39,-26.38 41,-26"
         inkscape:connector-curvature="0"
         id="path54"
         style="fill:#ffffff" /><path
         d="m 2210.2,4288.2 c -32.31,-0.1 -47.49,-23.41 -47,-53 v -159 h -76 v 157 c 0.17,37.55 -14.47,54.9 -38,55 -30.13,-0.1 -48.56,-25.04 -49,-53 v -159 h -72 v 274 h 72 v -20 c 23.21,20.23 38.38,27.82 63,28 35.55,-0.18 46.93,-5.05 75,-35 28.85,29.4 49.45,35.91 80,36 59.43,-0.09 103.33,-54.3 103,-112 v -171 h -73 v 157 c -0.39,37.55 -15.02,54.9 -38,55"
         inkscape:connector-curvature="0"
         id="path56" /><path
         d="m 2599.2,4287.2 h -43 v 63 h 43 v 86 l 75,21 v -107 h 70 v -63 h -68 v -123 c -0.44,-27.87 9.86,-30.58 21,-31 10.54,0.42 18.67,2.59 40,7 l 17,-61 c -33.99,-9.55 -64.89,-12.8 -85,-13 -25.96,0.2 -69.87,13.75 -70,65 v 156"
         inkscape:connector-curvature="0"
         id="path58" /><path
         d="m 2786.2,4210.2 c 0.34,110.96 65.38,151.62 130,152 59.51,-0.38 133.23,-41.04 133,-152 0.23,-82 -53.43,-143.8 -129,-144 -82.71,0.2 -133.66,57.12 -134,144"
         inkscape:connector-curvature="0"
         id="path60" /><path
         d="m 2975.2,4210.2 c -0.03,64.35 -22.25,84.4 -55,84 -40.97,0.4 -57.78,-33.2 -58,-84 0.22,-44.61 21.9,-78.21 58,-78 36,-0.21 54.97,33.39 55,78"
         inkscape:connector-curvature="0"
         id="path62"
         style="fill:#ffffff" /><path
         d="m 3383.2,4249.2 45,-6 c 48.68,-6.59 77.4,-40.2 77,-83 0.4,-55.31 -45.67,-93.8 -111,-94 -57.17,0.2 -95.66,14.3 -132,51 l 54,47 c 22.45,-22.45 47.39,-35.46 74,-35 21.63,-0.46 38.97,8.75 39,23 -0.03,11.23 -11.41,22.07 -34,26 l -48,10 c -42.15,7.75 -67.09,39.73 -67,77 -0.09,55.42 42.73,90.65 113,91 38.68,-0.35 71.21,-6.85 109,-41 l -46,-49 c -19.44,21.9 -39.49,28.95 -64,29 -21.57,-0.05 -36.2,-11.98 -36,-26 -0.2,-8.75 4.68,-16.87 27,-20"
         inkscape:connector-curvature="0"
         id="path64" /><path
         d="m 3707.2,4078.2 c -11.11,-5.84 -23.58,-6.92 -37,-7 -59.21,0.08 -103.66,43.98 -104,99 v 181 h 72 v -157 c 0.43,-31.31 15.61,-54.08 46,-54 35.2,-0.08 57.42,18.35 57,46 v 165 h 74 v -275 h -76 v 20 c -13.3,-11.91 -19.8,-14.08 -32,-18"
         inkscape:connector-curvature="0"
         id="path66" /><path
         d="m 3998.2,4351.2 c 11.03,5.74 24.58,7.36 38,7 59.21,0.36 104.2,-45.71 104,-101 v -181 h -72 v 157 c 0.11,31.05 -15.07,55.98 -45,56 -35.11,-0.02 -57.87,-20.61 -58,-48 v -165 h -73 v 275 h 75 v -20 c 14.39,11.64 18.72,15.98 31,20"
         inkscape:connector-curvature="0"
         id="path68" /><path
         d="m 4310.2,4249.2 46,-6 c 47.87,-6.59 76.59,-40.2 77,-83 -0.41,-55.31 -46.48,-93.8 -112,-94 -56.98,0.2 -95.46,14.3 -132,51 l 54,47 c 22.64,-22.45 47.58,-35.46 74,-35 21.82,-0.46 39.17,8.75 39,23 0.17,11.23 -11.21,22.07 -34,26 l -48,10 c -41.96,7.75 -66.89,39.73 -67,77 0.11,55.42 42.93,90.65 113,91 38.88,-0.35 71.4,-6.85 109,-41 l -46,-49 c -19.25,21.9 -39.3,28.95 -64,29 -21.37,-0.05 -36.01,-11.98 -36,-26 -0.01,-8.75 4.87,-16.87 27,-20"
         inkscape:connector-curvature="0"
         id="path70" /><path
         d="m 4676.2,4163.2 44,-47 c -35.13,-32.45 -58.43,-46 -108,-46 -85.4,0 -137.44,62.87 -137,147 -0.44,74.69 47.8,140.28 122,140 80.83,0.28 130.7,-59.89 131,-150 v -19 h -181 c 1.28,-31.28 30.01,-54.04 66,-54 20.92,-0.04 32.3,3.21 63,29"
         inkscape:connector-curvature="0"
         id="path72" /><path
         d="m 4547.2,4244.2 h 111 c -1.85,27.09 -28.96,51.49 -56,51 -27.7,0.49 -51.01,-21.2 -55,-51"
         inkscape:connector-curvature="0"
         id="path74"
         style="fill:#ffffff" /><path
         d="m 4816.2,4287.2 h -44 v 63 h 44 v 86 l 74,21 v -107 h 71 v -63 h -69 v -123 c 0.04,-27.87 10.34,-30.58 21,-31 11.02,0.42 19.15,2.59 41,7 l 17,-61 c -34.52,-9.55 -65.41,-12.8 -85,-13 -26.49,0.2 -70.39,13.75 -70,65 v 156"
         inkscape:connector-curvature="0"
         id="path76" /><path
         d="m 1930.2,3543.2 44,-48 c -35.11,-31.53 -58.41,-45.08 -108,-45 -85.38,-0.08 -137.42,62.8 -137,147 -0.42,74.62 47.82,140.21 122,140 80.85,0.21 130.71,-59.96 131,-150 v -19 h -181 c 1.3,-31.35 30.03,-54.12 66,-54 20.94,-0.12 32.32,3.14 63,29"
         inkscape:connector-curvature="0"
         id="path78" /><path
         d="m 1801.2,3624.2 h 111 c -1.83,27.02 -28.94,51.41 -56,51 -27.68,0.41 -50.99,-21.27 -55,-51"
         inkscape:connector-curvature="0"
         id="path80"
         style="fill:#ffffff" /><path
         d="m 2114.2,3602.2 -86,128 h 81 l 45,-67 41,67 h 85 l -84,-128 96,-146 h -82 l -56,83 -54,-83 h -82 l 96,146"
         inkscape:connector-curvature="0"
         id="path82" /><path
         d="m 2325.2,3590.2 c -0.36,85.96 44.63,147.75 133,148 52.02,-0.25 103.51,-34.4 122,-90 l -70,-27 c -9.2,30.56 -27.63,50.62 -56,51 -37.75,-0.38 -52.93,-37.24 -53,-82 0.07,-47.93 14.16,-79.37 54,-79 27.92,-0.37 42.55,14.81 55,50 l 73,-27 c -24.74,-61.86 -62.14,-88.41 -127,-88 -86.37,-0.41 -131.36,56.5 -131,144"
         inkscape:connector-curvature="0"
         id="path84" /><path
         d="m 2821.2,3543.2 44,-48 c -35.04,-31.53 -58.35,-45.08 -108,-45 -85.32,-0.08 -137.36,62.8 -137,147 -0.36,74.62 47.89,140.21 122,140 80.91,0.21 130.78,-59.96 131,-150 v -19 h -181 c 1.36,-31.35 30.09,-54.12 66,-54 21,-0.12 32.39,3.14 63,29"
         inkscape:connector-curvature="0"
         id="path86" /><path
         d="m 2692.2,3624.2 h 111 c -1.77,27.02 -28.87,51.41 -56,51 -27.62,0.41 -50.93,-21.27 -55,-51"
         inkscape:connector-curvature="0"
         id="path88"
         style="fill:#ffffff" /><path
         d="m 3199.2,3591.2 c 0.19,-82 -46.43,-139.99 -117,-140 -37.84,0.01 -43.25,3.8 -77,25 v -101 h -72 v 357 h 72 v -14 c 23.45,18.66 38.08,26.8 70,27 81.37,-0.2 124.19,-61.46 124,-154"
         inkscape:connector-curvature="0"
         id="path90" /><path
         d="m 3005.2,3569.2 c 0.14,-28.55 32.12,-53.49 61,-53 41.59,-0.49 57.3,32.04 57,80 0.3,51.77 -15.41,82.13 -60,82 -52.98,0.13 -57.86,-47.04 -58,-66 v -43"
         inkscape:connector-curvature="0"
         id="path92"
         style="fill:#ffffff" /><path
         d="m 3283.2,3667.2 h -43 v 63 h 43 v 86 l 75,21 v -107 h 70 v -63 h -68 v -123 c -0.5,-27.95 9.8,-30.66 21,-31 10.48,0.34 18.62,2.51 40,7 l 17,-61 c -34.05,-9.62 -64.95,-12.87 -85,-13 -26.02,0.13 -69.92,13.68 -70,65 v 156"
         inkscape:connector-curvature="0"
         id="path94" /><path
         d="m 3759.2,3732.2 h 54 v -64 h -54 v -210 h -73 v 210 h -43 v 64 h 43 v 33 c 0.04,42.13 27.14,74.11 72,74 18.02,0.11 53.79,-3.14 72,-6 l -13,-61 c -20.93,-0.1 -28,0 -28,0 -21.66,-0.1 -29.79,-0.1 -30,-27 v -13"
         inkscape:connector-curvature="0"
         id="path96" /><path
         d="m 3861.2,3590.2 c 0.35,110.89 65.4,151.54 130,152 59.52,-0.46 133.24,-41.11 133,-152 0.24,-82.08 -53.42,-143.87 -129,-144 -82.7,0.13 -133.65,57.04 -134,144"
         inkscape:connector-curvature="0"
         id="path98" /><path
         d="m 4050.2,3590.2 c -0.02,64.27 -22.24,84.33 -55,84 -40.96,0.33 -57.76,-33.28 -58,-84 0.24,-44.68 21.92,-78.29 58,-78 36.01,-0.29 54.98,33.32 55,78"
         inkscape:connector-curvature="0"
         id="path100"
         style="fill:#ffffff" /><path
         d="m 4264.2,3704.2 c 16.64,21.28 44.29,31.58 72,32 4.27,-0.42 7.52,-0.42 14,-1 v -71 c -23.82,-1.05 -31,-1 -31,-1 -30.77,-1.14 -56.24,-22.82 -56,-67 v -140 h -73 v 276 h 73 l 1,-28"
         inkscape:connector-curvature="0"
         id="path102" /><path
         d="m 2296.2,2906.2 c -59.94,0.22 -95.17,33.83 -95,86 -0.17,47.02 28.02,96.35 160,96 v 16 c 0.28,15.79 -15.98,26.09 -41,26 -21.06,0.09 -56.83,-12.38 -83,-28 l -35,54 c 19.43,14.2 66.59,40.76 117,41 76.43,-0.24 115.99,-29.51 116,-83 v -114 c -0.01,-24.4 6.5,-31.45 32,-36 l -26,-57 c -12.51,-0.24 -48.83,4.64 -67,28 -24.65,-23.36 -47.41,-28.78 -78,-29"
         inkscape:connector-curvature="0"
         id="path104" /><path
         d="m 2320.2,2967.2 c 29.89,0.47 43.45,9.14 43,32 v 35 l -55,-9 c -24.78,-3.32 -29.66,-16.33 -30,-32 0.34,-17.4 11.18,-25.53 42,-26"
         inkscape:connector-curvature="0"
         id="path106"
         style="fill:#ffffff" /><path
         d="m 2497.2,3048.2 c 0.08,85.88 45.07,147.67 133,148 52.46,-0.33 103.96,-34.48 123,-90 l -71,-27 c -8.75,30.49 -27.18,50.54 -55,51 -38.31,-0.46 -53.49,-37.32 -53,-82 -0.49,-48 13.61,-79.45 54,-79 27.36,-0.45 42,14.73 54,49 l 73,-26 c -24.3,-61.93 -61.7,-88.49 -126,-88 -86.93,-0.49 -131.92,56.43 -132,144"
         inkscape:connector-curvature="0"
         id="path108" /><path
         d="m 2792.2,3048.2 c -0.45,85.88 44.54,147.67 133,148 51.93,-0.33 103.42,-34.48 122,-90 l -70,-27 c -9.29,30.49 -27.72,50.54 -56,51 -37.85,-0.46 -53.03,-37.32 -53,-82 -0.03,-48 14.07,-79.45 54,-79 27.82,-0.45 42.46,14.73 55,49 l 73,-26 c -24.83,-61.93 -62.23,-88.49 -127,-88 -86.46,-0.49 -131.45,56.43 -131,144"
         inkscape:connector-curvature="0"
         id="path110" /><path
         d="m 3288.2,3001.2 44,-48 c -35.14,-31.6 -58.45,-45.15 -108,-45 -85.41,-0.15 -137.45,62.72 -137,147 -0.45,74.54 47.79,140.13 122,140 80.82,0.13 130.68,-60.04 131,-150 v -19 h -181 c 1.27,-31.43 30,-54.19 66,-54 20.91,-0.19 32.29,3.06 63,29"
         inkscape:connector-curvature="0"
         id="path112" /><path
         d="m 3159.2,3082.2 h 111 c -1.87,26.95 -28.97,51.34 -56,51 -27.71,0.34 -51.02,-21.34 -55,-51"
         inkscape:connector-curvature="0"
         id="path114"
         style="fill:#ffffff" /><path
         d="m 3497.2,3087.2 46,-6 c 47.75,-6.75 76.48,-40.35 76,-83 0.48,-55.46 -45.59,-93.95 -111,-94 -57.1,0.05 -95.58,14.14 -132,50 l 54,48 c 22.53,-22.6 47.46,-35.61 74,-36 21.7,0.39 39.05,9.6 39,24 0.05,11.08 -11.33,21.92 -34,26 l -48,9 c -42.08,8.6 -67.01,40.58 -67,78 -0.01,55.27 42.81,90.5 113,91 38.76,-0.5 71.28,-7 109,-41 l -46,-49 c -19.36,21.75 -39.42,28.8 -64,29 -21.49,-0.2 -36.13,-12.13 -36,-26 -0.13,-8.89 4.75,-17.03 27,-20"
         inkscape:connector-curvature="0"
         id="path116" /><path
         d="m 3770.2,3087.2 46,-6 c 48.17,-6.75 76.9,-40.35 77,-83 -0.1,-55.46 -46.18,-93.95 -112,-94 -56.68,0.05 -95.16,14.14 -131,50 l 54,48 c 21.95,-22.6 46.88,-35.61 73,-36 22.13,0.39 39.47,9.6 39,24 0.47,11.08 -10.91,21.92 -34,26 l -47,9 c -42.66,8.6 -67.59,40.58 -68,78 0.41,55.27 43.23,90.5 114,91 38.18,-0.5 70.7,-7 109,-41 l -47,-49 c -18.94,21.75 -39,28.8 -64,29 -21.07,-0.2 -35.71,-12.13 -36,-26 0.29,-8.89 5.17,-17.03 27,-20"
         inkscape:connector-curvature="0"
         id="path118" /></g></g></svg>