<?xml version="1.0" encoding="utf-8"?>
<!-- Generator: Adobe Illustrator 26.0.2, SVG Export Plug-In . SVG Version: 6.00 Build 0)  -->
<svg version="1.1" id="Layer_1" xmlns="http://www.w3.org/2000/svg" xmlns:xlink="http://www.w3.org/1999/xlink" x="0px" y="0px"
	 viewBox="0 0 960 640" style="enable-background:new 0 0 960 640;" xml:space="preserve">
<style type="text/css">
	.st0{fill-rule:evenodd;clip-rule:evenodd;}
	.st1{fill-rule:evenodd;clip-rule:evenodd;fill:#FFFFFF;}
	.st2{fill-rule:evenodd;clip-rule:evenodd;fill:#006FB6;}
</style>
<g>
	<path class="st0" d="M275.5,132.8c-11.9,0-21.4,9.6-21.4,21.3c0,129.5,0,202.2,0,331.7c0,11.7,9.6,21.3,21.4,21.3
		c138.7,0,270.4,0,409.1,0c11.9,0,21.4-9.6,21.4-21.3c0-129.5,0-202.1,0-331.7c0-11.7-9.6-21.3-21.4-21.3
		C545.9,132.8,414.1,132.8,275.5,132.8L275.5,132.8z"/>
	<path class="st1" d="M275.5,143.6c-5.9,0-10.7,4.8-10.7,10.6c0,129.5,0,202.2,0,331.7c0,5.8,4.8,10.7,10.7,10.7
		c138.7,0,270.4,0,409.1,0c5.9,0,10.7-4.9,10.7-10.7c0-129.5,0-202.1,0-331.7c0-5.8-4.8-10.6-10.7-10.6
		C545.9,143.6,414.1,143.6,275.5,143.6L275.5,143.6z"/>
	<path class="st2" d="M333.1,433.7c3.8,0,7-2.9,7-6.4c0-3.6-3.2-6.5-7-6.5c-3.9,0-7,2.9-7,6.5C326.2,430.8,329.2,433.7,333.1,433.7
		L333.1,433.7z"/>
	<path class="st2" d="M334.1,433.7c3.9,0,7-2.9,7-6.4c0-3.6-3-6.5-7-6.5c-3.8,0-7,2.9-7,6.5C327.2,430.8,330.4,433.7,334.1,433.7
		L334.1,433.7z"/>
	<path class="st2" d="M374.6,433.7c-3.9,0-7-2.9-7-6.4c0-3.6,3-6.5,7-6.5c3.8,0,7,2.9,7,6.5C381.5,430.8,378.3,433.7,374.6,433.7
		L374.6,433.7z"/>
	<path class="st2" d="M373.4,433.7c-3.8,0-6.9-2.9-6.9-6.4c0-3.6,3.2-6.5,6.9-6.5c3.9,0,7,2.9,7,6.5
		C380.4,430.8,377.3,433.7,373.4,433.7L373.4,433.7z"/>
	<path class="st2" d="M282.6,171.5c0-5.7,4.5-10.1,10.1-10.1l0,0H415l0,0c5.7,0,10.1,4.5,10.1,10.1l0,0v122.3l0,0
		c0,5.5-4.5,10.1-10.1,10.1l0,0H292.7l0,0c-5.7,0-10.1-4.6-10.1-10.1l0,0V171.5L282.6,171.5z"/>
	<path class="st1" d="M368.1,197.6h-25.4v13.5v5.9v11.3h25.2v-0.1c5.9,0,10.8-4.7,10.9-10.6l0.1-9.1
		C378.9,202.5,374.1,197.6,368.1,197.6L368.1,197.6z M319.9,180.1h58.8l0,0c12.6,0,22.8,10.2,22.8,22.8l-0.1,20.6
		c0,12.5-10,22.7-22.5,22.8l0,0h-36.2v12l0,0v30.4h-22.8l0,0V180.1L319.9,180.1v66.1V180.1z"/>
	<path class="st0" d="M605,241.8v19.4h-7.2v-17.5l0,0c0-2.8-2.2-4.8-4.5-4.8c-2.3,0-4.9,2.2-4.9,5.8l0,0v16.5h-7.4v-17.7l0,0
		c0-2.6-2.2-4.6-4.3-4.6c-2,0-5.1,1.7-5.1,5.7l0,0v16.7h-7.4v-28.7h7.4v1.7l0,0c0,0,2.6-2.2,7.4-2.2c4.3,0,7,3,7,3s3-3.2,7.8-3.2
		C601.1,232,605,237,605,241.8L605,241.8z"/>
	<path class="st0" d="M481.1,243.7v5.2l0,0c0,2.9,2.2,5.9,6.5,5.9c4.2,0,6.7-4.1,6.7-8.5c0-4.5-2.3-8.4-6.7-8.4
		C483.1,237.9,481.1,241.1,481.1,243.7L481.1,243.7z M481.1,233.8v-1.3h-7.4v36.8h7.4v-10.3l0,0c0,0,2.5,2.9,7.8,2.9
		c10.1,0,13.2-10.7,13.2-15.4c0-3.6-1.4-7.7-3.8-10.3c-2-2.5-5.1-4.8-9.7-4.8C486,231.4,483.1,232.5,481.1,233.8L481.1,233.8z"/>
	<path class="st0" d="M557.3,239.1V232l0,0c-7,0-8.1,1.7-9.9,3.5l0,0v-2.9h-7.4v28.7h7.4v-14.3l0,0
		C547.5,242.7,552.2,239.1,557.3,239.1L557.3,239.1z"/>
	<path class="st0" d="M514.6,244H526l0,0c0-2.8-2-5.7-5.7-5.7C516.7,238.3,514.6,241.1,514.6,244L514.6,244z M514.6,249.6h18.8l0,0
		c0.4-3.6-1-18-13.2-18c-10.7,0-13,11.4-13,15.1c0,3.6,2.2,15.4,13.9,15.4c6.7,0,10.1-3.8,11-4.8l0,0l-4.6-4.5l0,0
		c0,0-2,2.8-6.2,2.8C516.9,255.6,514.6,252.5,514.6,249.6L514.6,249.6z"/>
	<polygon class="st0" points="613.7,232.7 620.9,232.7 620.9,261.4 613.7,261.4 	"/>
	<path class="st0" d="M616.9,221.2c2.2,0,4.1,1.8,4.1,4.1c0,2.2-1.8,4.1-4.1,4.1c-2.2,0-4.1-1.8-4.1-4.1
		C612.9,223,614.7,221.2,616.9,221.2"/>
	<path class="st0" d="M647.7,260.5l-1.3-6.2l0,0c-5.2,1.6-6.7,0.1-6.7-1l0,0v-14.3h7.4v-6.4h-7.4v-11.3l-7.4,2.2v9.1h-4.6v6.4h4.6
		v16.8l0,0c0,3.6,2.2,6.4,7.7,6.4C644.1,262.1,646.9,260.8,647.7,260.5L647.7,260.5z"/>
	<path class="st0" d="M604.4,379.9l11.5-33.3h-8l-5.7,17.7l-5.6-17.7h-8l9.6,27.4l0,0c0.6,2-0.3,4.2-4.2,3.6l0,0l-2.5-0.3l-0.9,6.4
		l4.3,0.7l0,0C600.5,385.1,603.2,383.1,604.4,379.9L604.4,379.9z"/>
	<path class="st0" d="M518.8,352.2c-3.2,0-6.5,2.8-6.5,9c0,6.2,3.5,9.1,6.5,9.1l0,0c3,0,6.5-2.9,6.5-9.1
		C525.3,355,521.8,352.2,518.8,352.2L518.8,352.2z M518.8,345.7c-7,0-13.9,5.6-13.9,15.5s6.8,15.6,13.9,15.6l0,0
		c7.1,0,13.9-5.8,13.9-15.6C532.7,351.4,525.7,345.7,518.8,345.7L518.8,345.7z"/>
	<path class="st0" d="M565.1,356.6v18.8h-7.4v-18.1l0,0c0-2.2-1.7-4.2-4.9-4.2c-3,0-5.9,2.8-5.9,6.5l0,0v15.8h-7.4v-28.7h7.4v2.2
		l0,0c0,0,3-2.9,7.3-2.9C560.6,346,565.1,351.5,565.1,356.6L565.1,356.6z"/>
	<path class="st0" d="M586.6,375.4l-0.9-6.7l0,0c-3.3,0.9-5.2,0.1-5.2-1.4l0,0v-31.9h-7.4v34.8l0,0c0,2.9,2,6.1,7.5,6.1
		C583.7,376.3,586.6,375.4,586.6,375.4L586.6,375.4z"/>
	<path class="st0" d="M469.9,291.2v-12.8h-7.4v40h7.4v-17.1l0,0c0-2.6,2.5-5.1,5.1-5.1c2.6,0,5.5,1.7,5.5,5.1l0,0v17.1h7.4v-19.6
		l0,0c0-5.8-4.9-9.7-10.3-9.7C472.7,289.2,470.9,290.8,469.9,291.2L469.9,291.2z"/>
	<path class="st0" d="M542.7,318.3l-0.9-6.7l0,0c-3.5,0.9-5.2,0.1-5.2-1.5l0,0v-31.7h-7.4v34.8l0,0c0,2.9,1.9,5.9,7.5,5.9
		C539.6,319.2,542.7,318.3,542.7,318.3L542.7,318.3z"/>
	<path class="st0" d="M508.6,295.1c-3.2,0-6.5,2.9-6.5,9.1s3.5,9,6.5,9l0,0c3,0,6.5-2.8,6.5-9C515.1,298,511.7,295.1,508.6,295.1
		L508.6,295.1z M508.6,288.6c-7,0-13.9,5.7-13.9,15.5c0,9.9,6.8,15.7,13.9,15.7l0,0c7.1,0,13.9-5.8,13.9-15.7
		C522.5,294.3,515.6,288.6,508.6,288.6L508.6,288.6z"/>
	<path class="st0" d="M566.7,301.7c0,1.9,0,3.8,0,5.7c0,2.3-2.2,5.8-6.4,5.8c-4.3,0-6.8-3.6-6.8-9c0-5.4,2.9-8.1,6.7-8.1
		C563.8,296,566.7,298.2,566.7,301.7L566.7,301.7z M566.7,291.8c0-4.5,0-9,0-13.5c2.3,0,4.8,0,7.2,0c0,13.3,0,26.7,0,40
		c-2.3,0-4.8,0-7.2,0c0-0.4,0-0.9,0-1.3c0,0-3.2,2.5-7.5,2.5c-4.3,0-13.3-3.8-13.3-15.5s9.3-14.9,12.8-14.9
		C562.1,289.1,563.7,289.9,566.7,291.8L566.7,291.8z"/>
	<path class="st0" d="M586.9,300.9h11.4l0,0c0-2.6-2.2-5.7-5.6-5.7C589,295.3,586.9,298.2,586.9,300.9L586.9,300.9z M586.9,306.7
		h18.8l0,0c0.3-3.6-1.2-18-13.3-18c-10.6,0-12.9,11.4-12.9,15.1c0,3.6,2.2,15.4,13.8,15.4c6.8,0,10.3-3.9,11.1-4.9l0,0l-4.6-4.3l0,0
		c0,0-2,2.6-6.4,2.6C589.2,312.5,586.9,309.5,586.9,306.7L586.9,306.7z"/>
	<path class="st0" d="M629.6,296.2v-7.1l0,0c-7-0.1-8.1,1.7-9.9,3.5l0,0v-2.9h-7.4v28.5h7.4V304l0,0
		C619.8,299.8,624.5,296.2,629.6,296.2L629.6,296.2z"/>
	<path class="st0" d="M634,313.7l5.7-4.9l0,0c1.9,2.3,6.4,4.5,8.3,4.5c2,0,3.8-1.4,3.8-2.9c0-1.4-1-2.2-2-2.5
		c-1-0.3-4.9-1.2-5.7-1.3c-0.7-0.3-7.5-1.4-7.5-8.4c0-7.1,7.5-8.8,11.9-8.8c4.5,0,8.5,1.3,11.6,4.2l0,0l-4.6,5.1l0,0
		c-2.8-2.5-4.6-3.3-6.8-3.3c-2.2,0-4.1,0.9-4.1,2.6c0,1.7,1.3,2,2,2.2c0.6,0.1,5.4,1.2,6.5,1.4s6.8,1.9,6.8,8.5
		c0,6.7-6.2,9.3-12,9.3C641.8,319.3,636,316.1,634,313.7L634,313.7z"/>
	<path class="st0" d="M482.8,175.7l-7.5,3.5l0,0c-1.7-4.1-4.1-8.1-9.9-8.1c-6.4,0-10.3,5.8-10.3,12.8c0,7.4,3.9,12.6,10.3,12.6
		c5.8,0,8.7-4.6,9.9-7.5l0,0l7.5,2.9l0,0c-1.7,4.6-7,12.8-17.4,12.8c-10.9,0-19-9.3-19-20.7c0-12.2,9.3-20.3,19-20.3
		C474.7,163.6,480.5,169.9,482.8,175.7L482.8,175.7z"/>
	<path class="st0" d="M505.6,191.1v5.5l0,0c0,2.2-4.2,2-4.9,2c-0.6,0-5.1,0-5.1-3.5C495.6,191.4,500.9,191.2,505.6,191.1
		L505.6,191.1z M513,196.5v-14.9l0,0c0-3.9-3.6-6.8-11.6-6.8c-6.2,0-10.4,2.8-11.9,3.6l0,0l3.2,5.6l0,0c2.5-1.7,7.5-2.8,9.7-2.8
		c2.2,0,3.2,1.6,3.2,2.5l0,0v1.7l0,0c-2.6,0-8.8,1-11.3,1.9c-2.5,0.7-6.2,2.5-6.2,8.1c0,5.8,5.8,9.4,11.6,9.4c5.1,0,6.8-2.9,6.8-2.9
		s2.5,3,6.8,3.2l0,0l3-5.9l0,0C512.8,198.5,513,197.3,513,196.5L513,196.5z"/>
	<path class="st0" d="M538.8,182v-7.1l0,0c-6.9,0-8.1,1.7-9.9,3.5l0,0v-2.8h-7.4v28.5h7.4v-14.2l0,0
		C528.9,185.6,533.7,182,538.8,182L538.8,182z"/>
	<path class="st0" d="M588.5,183.3l-6.8,2.2l0,0c-0.7-2-2.6-4.5-5.8-4.5c-3,0-6.7,3-6.7,9c0,6.1,3.3,9.3,6.7,9.3
		c3.3,0,5.4-3.3,5.8-4.9l0,0l7.2,1.4l0,0c-0.9,3.8-5.4,10-12.8,10c-7.4,0-14.3-6.1-14.3-15.8c0-9.6,7.5-15.5,13.8-15.5
		C581.9,174.4,586.9,178.8,588.5,183.3L588.5,183.3z"/>
	<path class="st0" d="M607.4,204.1l-0.9-6.5l0,0c-3.3,0.9-5.1,0-5.1-1.4l0,0v-31.9h-7.4v34.8l0,0c0,2.9,1.9,6.1,7.5,6.1
		C604.5,205.2,607.4,204.1,607.4,204.1L607.4,204.1z"/>
	<path class="st0" d="M631.4,202.1v2.3h7.7v-28.7h-7.7v15.8l0,0c0,4.3-3.3,6.2-6.2,6.2c-2.9,0-4.3-1.9-4.3-4.8l0,0v-17.2h-7.5v19.1
		l0,0c0,5.4,4.2,10.1,10.4,10.1C627.6,205,630.5,203,631.4,202.1L631.4,202.1z"/>
	<path class="st0" d="M654,187.2v5.8l0,0c0,2.3,2.3,5.8,6.7,5.8c4.3,0,6.7-3.5,6.7-9.1c0-5.4-2.9-7.7-6.7-7.7
		C656.9,182,654,183.9,654,187.2L654,187.2z M654,177.6v-13.5h-7.2V204h7.2v-1.4l0,0c0,0,3.3,2.5,7.7,2.5c4.2,0,13.3-3.5,13.3-15.4
		c0-11.6-9.1-14.9-12.9-14.9C658.7,174.7,657.3,175.7,654,177.6L654,177.6z"/>
	<path class="st0" d="M480.7,407.3c-3.9,0-7.1,3.2-7.1,7.2c0,19,0,38,0,57c0,4.1,3.2,7.2,7.1,7.2c28.5,0,130.6,0,159.1,0
		c3.9,0,7.3-3.2,7.3-7.2c0-19,0-38,0-57c0-4.1-3.3-7.2-7.3-7.2C611.2,407.3,509.2,407.3,480.7,407.3L480.7,407.3z"/>
	<g>
		<path class="st1" d="M519,457.6l2.8,8.5h7.9l-15.1-45.9H505l-15.1,45.9h7.9l2.8-8.5H519L519,457.6z M516.9,451h-14.2l7.1-21.5
			L516.9,451L516.9,451z"/>
		<polygon class="st1" points="559.6,438.3 575.2,420.2 566,420.2 548.1,441 548.1,420.2 540.2,420.2 540.2,466.1 548.1,466.1 
			548.1,451.7 554.4,444.3 567.1,466.1 575.8,466.1 		"/>
		<polygon class="st1" points="579.8,449.7 594,449.7 594,442.9 579.8,442.9 		"/>
		<polygon class="st1" points="622.8,427.2 606.2,466.1 614.8,466.1 631.4,427.2 631.4,420.2 599.9,420.2 599.9,427.2 622.7,427.2 
					"/>
	</g>
	<g>
		<polygon class="st2" points="353.7,336.1 353.8,336.1 359.8,336.3 365.8,337.1 371.7,338.4 377.5,340.2 383.2,342.4 388.5,345.2 
			393.7,348.3 398.6,351.9 403.1,356 407.3,360.3 411.1,365 414.5,370.1 417.4,375.3 419.9,380.9 421.9,386.6 423.4,392.4 
			424.4,398.4 425,404.4 425,410.5 424.4,416.5 423.4,422.5 421.9,428.3 419.9,434 417.4,439.6 414.4,444.8 411,449.8 407.2,454.6 
			403,458.9 398.5,462.9 393.6,466.5 388.4,469.7 383,472.4 377.4,474.6 371.6,476.4 365.7,477.7 359.7,478.4 353.6,478.7 
			347.6,478.4 341.6,477.7 335.7,476.4 329.9,474.6 324.3,472.3 318.9,469.6 313.7,466.4 308.9,462.8 304.3,458.8 300.1,454.4 
			296.3,449.7 293,444.7 290,439.4 287.5,433.9 285.5,428.2 284,422.3 283,416.4 282.5,410.3 282.5,404.3 283,398.3 284,392.3 
			285.5,386.4 287.6,380.7 290.1,375.2 293,369.9 296.4,364.9 300.2,360.2 304.4,355.9 309,351.9 313.8,348.3 319,345.1 
			324.4,342.4 330,340.1 335.8,338.4 341.7,337.1 347.7,336.3 		"/>
		<path class="st1" d="M346.5,382.4l6.9-0.2h0.1l6.9,0.2l5.1,0.6l3.6,1.1l2.4,1.5l1.4,2l0.8,2.4l0.4,1.5l0.4,1.3l0.2,1.1l-0.3,0.9
			l-0.9,0.5l-1.7,0.2l-2.8,0l-3.1,0.1l-3.3,0.1l-3.3,0.1l-3.1,0.1l-2.6,0l-2.7,0l-3.1-0.1l-3.3-0.1l-3.3-0.1l-3.2-0.1l-2.8,0
			l-1.7-0.2l-0.9-0.5l-0.3-0.9l0.1-1.1l0.4-1.3l0.4-1.5l0.8-2.4l1.4-2l2.4-1.5l3.6-1.1L346.5,382.4L346.5,382.4z M345.7,378.5
			l7.7-0.2h0.1h0.1h0.1h0.1h0.1h0.1l7.8,0.2l6,0.8l4.6,1.3l3.2,2l2.1,2.7l1.2,3.5l0.2,0.9l0.2,0.8l0.2,0.7l0.1,0.7l0.1,0.6l0.1,0.5
			l0.3-0.1l0.3-0.1l0.4-0.1l0.4-0.1l0.4,0l0.4,0l1.2,0.1l1.1,0.3l0.9,0.4l0.7,0.5l0.5,0.6l0.2,0.7l-0.1,0.5l-0.2,0.5l-0.4,0.4
			l-0.5,0.4l-0.6,0.3l-0.7,0.3l1,0.7l0.9,1l0.8,1.2l0.6,1.5l0.3,1.9l0.1,2.2l-0.2,4.4l-0.4,4l-0.7,3.4l-1.1,2.7l-1.5,1.8l-2,0.7
			h-0.6v3.9l-0.2,1.7l-0.7,1.6l-1.1,1.3l-1.4,1l-1.6,0.7l-1.8,0.2h-1.3l-1.8-0.2l-1.6-0.7l-1.4-1l-1.1-1.3l-0.7-1.6l-0.2-1.7v-3.9
			h-25.3v3.9l-0.3,1.7l-0.7,1.6l-1.1,1.3l-1.4,1l-1.6,0.7l-1.8,0.2H333l-1.8-0.2l-1.6-0.7l-1.4-1l-1.1-1.3l-0.7-1.6l-0.2-1.7v-3.9
			h-0.6l-2-0.7l-1.5-1.8L321,418l-0.7-3.4l-0.4-4l-0.2-4.4l0.1-2.2l0.4-1.9l0.6-1.5l0.8-1.2l0.9-1l1-0.7l-0.7-0.3l-0.6-0.3l-0.5-0.4
			l-0.4-0.4l-0.2-0.5l-0.1-0.5l0.2-0.7l0.4-0.6l0.7-0.5l0.9-0.4l1.1-0.3l1.2-0.1l0.4,0l0.4,0l0.4,0.1l0.4,0.1l0.4,0.1l0.3,0.1
			l0.1-0.5l0.1-0.6l0.1-0.7l0.1-0.7l0.2-0.8l0.2-0.9l1.2-3.5l2.1-2.7l3.3-2l4.5-1.3L345.7,378.5L345.7,378.5z M330.9,401.1l1.7,0.5
			l1.7,0.8l1.4,1l1,1.2l0.4,1.3l-0.4,1.4l-1,1.2l-1.4,1l-1.6,0.8l-1.7,0.5l-1.5,0.2l-1.4-0.2l-1.2-0.5l-1-0.8l-0.8-1l-0.5-1.2
			l-0.2-1.3l0.2-1.3l0.5-1.2l0.8-1l1-0.8l1.2-0.5l1.3-0.2L330.9,401.1L330.9,401.1z M373.3,402.4l1.6-0.8l1.7-0.5l1.5-0.2l1.4,0.2
			l1.2,0.5l1,0.8l0.8,1.1l0.5,1.2l0.2,1.3l-0.2,1.3l-0.5,1.2l-0.8,1l-1,0.7l-1.2,0.5l-1.3,0.2l-1.6-0.2l-1.7-0.5l-1.7-0.8l-1.4-1
			l-1-1.2l-0.4-1.4l0.4-1.3l1-1.2L373.3,402.4L373.3,402.4z M351.2,357.3v-14.9l0.1-0.8l0.4-0.7l0.7-0.5l0.8-0.2l5.9,0.2l5.8,0.8
			l5.7,1.3l5.6,1.8l5.4,2.2l5.2,2.7l5,3.2l4.7,3.6l4.3,4l4,4.3l3.6,4.7l3.2,5l2.7,5.2l2.3,5.4l1.8,5.6l1.3,5.7l0.8,5.8l0.3,5.6
			l-8.3,8.3l-0.7,0.5l-0.8,0.2l-0.8-0.2l-0.6-0.4l-8.2-8.2l-0.2-5.1l-0.8-5l-1.3-4.9l-1.8-4.8l-2.3-4.5L392,379l-3.2-3.9l-3.6-3.5
			l-4-3.1l-4.3-2.7l-4.6-2.2l-4.8-1.7l-5-1.2l-5.1-0.6l-4-0.1l-0.9-0.3l-0.7-0.6l-0.5-0.8l-0.2-0.9L351.2,357.3L351.2,357.3z
			 M402.5,432.8L402.5,432.8l0.6,0.6l0.4,0.8l0.1,0.8l-0.2,0.8l-0.5,0.7l-0.7,0.5l-0.8,0.3l-0.9,0l-0.7-0.2l-4.1-2.4l-0.7-0.7
			l-0.4-0.9l0-1l0.4-0.9l0.7-0.7l0.9-0.4l0.9,0l0.6,0.2L402.5,432.8L402.5,432.8z M356.1,471.8L356.1,471.8l-0.1,0.9l-0.4,0.8
			l-0.7,0.6l-0.8,0.3l-0.5,0l-0.9-0.2l-0.7-0.4l-0.6-0.7l-0.3-0.8l0-0.5v-14l0.1-0.9l0.4-0.8l0.7-0.6l0.8-0.3l0.5,0l0.9,0.2l0.8,0.4
			l0.6,0.7l0.3,0.8l0,0.5L356.1,471.8L356.1,471.8z M289.1,404.8L289.1,404.8l-0.9,0.1l-0.8,0.4l-0.6,0.7l-0.3,0.8l0,0.5l0.2,0.9
			l0.4,0.8l0.7,0.6l0.8,0.3l0.5,0h14l0.9-0.1l0.8-0.4l0.6-0.7l0.3-0.8l0-0.5l-0.2-0.9l-0.4-0.8l-0.7-0.6l-0.8-0.3l-0.5,0
			L289.1,404.8L289.1,404.8z M311.4,380L311.4,380l0.6,0.6l0.4,0.8l0.1,0.8l-0.2,0.8l-0.5,0.7l-0.7,0.5l-0.8,0.3l-0.9,0l-0.7-0.2
			l-4.1-2.4l-0.7-0.7l-0.4-0.9l0-1l0.4-0.9l0.7-0.7l0.9-0.4l1,0l0.6,0.2L311.4,380L311.4,380z M330.8,362.5L330.8,362.5l0.3,0.8
			l0,0.9l-0.3,0.8l-0.6,0.6l-0.8,0.4l-0.8,0.1l-0.8-0.2l-0.7-0.5l-0.4-0.5l-2.4-4.1l-0.3-0.9l0.1-0.9l0.5-0.8l0.8-0.6l0.9-0.3
			l0.9,0.1l0.8,0.5l0.4,0.4L330.8,362.5L330.8,362.5z M383.3,453.9L383.3,453.9l0.3,0.8l0,0.9l-0.3,0.8l-0.6,0.6l-0.8,0.4l-0.8,0.1
			l-0.8-0.2l-0.7-0.5l-0.4-0.5l-2.4-4.1l-0.3-0.9l0.1-0.9l0.5-0.8l0.8-0.6l0.9-0.3l0.9,0.1l0.8,0.5l0.4,0.4L383.3,453.9L383.3,453.9
			z M328.2,456.2L328.2,456.2l-0.6,0.6l-0.8,0.4l-0.9,0.1l-0.8-0.2l-0.7-0.5l-0.5-0.7l-0.3-0.8l0-0.9l0.2-0.7l2.4-4.1l0.7-0.7
			l0.9-0.4l0.9,0l0.9,0.4l0.7,0.7l0.4,0.9l0,1l-0.2,0.6L328.2,456.2L328.2,456.2z M307.2,436.9L307.2,436.9l-0.8,0.3l-0.9,0
			l-0.8-0.3l-0.6-0.6l-0.4-0.8l-0.1-0.8l0.2-0.8l0.5-0.7l0.5-0.4l4.1-2.4l0.9-0.3l0.9,0.1l0.8,0.5l0.6,0.8l0.3,0.9l-0.1,0.9
			l-0.5,0.8l-0.4,0.4L307.2,436.9L307.2,436.9z M396.9,407.4L396.9,407.4l-0.3-4.8l-0.8-4.8l-1.3-4.7l-1.9-4.5l-2.3-4.2l-2.8-4
			l-3.2-3.6l-3.6-3.2l-4-2.8l-4.2-2.3l-4.5-1.9l-4.7-1.3l-4.8-0.8l-4.8-0.3l-4.8,0.3l-4.8,0.8l-4.7,1.3l-4.5,1.9l-4.2,2.3l-4,2.8
			l-3.6,3.2l-3.2,3.6l-2.8,4l-2.3,4.2l-1.9,4.5l-1.3,4.7l-0.8,4.8l-0.3,4.8l0.3,4.8l0.8,4.8l1.3,4.7l1.9,4.5l2.3,4.2l2.8,4l3.2,3.6
			l3.6,3.2l4,2.8l4.2,2.3l4.5,1.9l4.7,1.3l4.8,0.8l4.8,0.3l4.8-0.3l4.8-0.8l4.7-1.3l4.5-1.9l4.2-2.3l4-2.8l3.6-3.2l3.2-3.6l2.8-4
			l2.3-4.2l1.9-4.5l1.3-4.7l0.8-4.8L396.9,407.4L396.9,407.4z"/>
	</g>
</g>
</svg>
