<?xml version="1.0" encoding="utf-8"?>
<!-- Generator: Adobe Illustrator 26.0.2, SVG Export Plug-In . SVG Version: 6.00 Build 0)  -->
<svg version="1.1" id="Layer_1" xmlns="http://www.w3.org/2000/svg" xmlns:xlink="http://www.w3.org/1999/xlink" x="0px" y="0px"
	 viewBox="0 0 960 640" style="enable-background:new 0 0 960 640;" xml:space="preserve">
<style type="text/css">
	.st0{fill-rule:evenodd;clip-rule:evenodd;fill:#FFFFFF;}
	.st1{fill-rule:evenodd;clip-rule:evenodd;fill:#006FB6;}
	.st2{fill-rule:evenodd;clip-rule:evenodd;}
</style>
<g>
	<polygon class="st0" points="275,123.1 275,123.1 275.1,121.6 275.3,120.2 275.6,118.7 276,117.4 276.6,116 277.2,114.7 278,113.4 
		278.9,112.2 279.8,111.1 280.9,110.1 282,109.2 283.3,108.4 284.5,107.7 285.9,107.1 287.3,106.6 288.7,106.2 290.1,106 
		291.6,105.8 292.3,105.8 667.7,105.8 669.1,105.9 670.6,106.1 672,106.4 673.4,106.8 674.8,107.4 676.1,108 677.4,108.8 
		678.5,109.7 679.6,110.6 680.7,111.7 681.6,112.8 682.4,114 683.1,115.3 683.7,116.7 684.2,118 684.6,119.5 684.8,120.9 
		684.9,122.4 685,123.1 685,516.9 684.9,518.4 684.7,519.8 684.4,521.2 684,522.6 683.4,524 682.8,525.3 682,526.6 681.1,527.7 
		680.2,528.9 679.1,529.9 678,530.8 676.7,531.6 675.5,532.3 674.1,532.9 672.7,533.4 671.3,533.8 669.9,534 668.4,534.2 
		667.7,534.2 292.3,534.2 290.9,534.1 289.4,533.9 288,533.6 286.6,533.2 285.2,532.6 283.9,532 282.6,531.2 281.5,530.3 
		280.4,529.4 279.3,528.3 278.4,527.2 277.6,526 276.9,524.7 276.3,523.3 275.8,522 275.4,520.5 275.2,519.1 275.1,517.6 275,516.9 
			"/>
	<polygon class="st1" points="346.1,247.2 346.1,247.2 345,247.2 343.9,246.9 342.9,246.6 341.9,246.1 341.1,245.5 340.2,244.8 
		339.5,244 338.9,243.1 338.5,242.2 338.1,241.1 337.9,240.1 337.8,239 337.8,140.3 337.9,139.2 338.1,138.2 338.5,137.2 
		338.9,136.2 339.5,135.3 340.2,134.5 341.1,133.8 341.9,133.2 342.9,132.7 343.9,132.4 345,132.2 346.1,132.1 444.8,132.1 
		445.8,132.2 446.9,132.4 447.9,132.7 448.9,133.2 449.8,133.8 450.6,134.5 451.3,135.3 451.9,136.2 452.4,137.2 452.7,138.2 
		452.9,139.2 453,140.3 453,239 452.9,240.1 452.7,241.1 452.4,242.1 451.9,243.1 451.3,244 450.6,244.8 449.8,245.5 448.9,246.1 
		447.9,246.6 446.9,246.9 445.8,247.2 444.8,247.2 	"/>
	<path class="st0" d="M386.8,186v-25.1h20.4l1.1,0.1l1.1,0.2l1.1,0.3l1,0.5l0.9,0.6l0.9,0.7l0.8,0.8l0.7,0.9l0.5,1l0.4,1l0.3,1.1
		l0.1,1.1l0,0.6v7.5l-0.1,1.1l-0.2,1.1l-0.3,1.1l-0.5,1l-0.6,0.9l-0.7,0.9l-0.8,0.8l-0.9,0.6l-1,0.5l-1,0.4l-1.1,0.3l-1.1,0.1
		l-0.6,0H386.8L386.8,186z M368.3,234.9v-88.4h45.9l1.6,0.1l1.6,0.2l1.5,0.3l1.5,0.4l1.5,0.5l1.4,0.6l1.4,0.7l1.3,0.9l1.2,0.9l1.2,1
		l1.1,1.1l1,1.2l0.9,1.3l0.8,1.3l0.7,1.4l0.6,1.5l0.5,1.5l0.4,1.5l0.2,1.5l0.1,1.6l0,0.8v13l-0.1,1.6l-0.2,1.6l-0.3,1.5l-0.4,1.5
		l-0.5,1.5l-0.6,1.4l-0.7,1.4l-0.9,1.3l-0.9,1.2l-1,1.2l-1.1,1.1l-1.2,1l-1.3,0.9l-1.3,0.8l-1.4,0.7l-1.5,0.6l-1.5,0.5L418,200
		l-1.5,0.2l-1.6,0.1l-0.8,0h-27.3v34.5H368.3L368.3,234.9z"/>
	<polygon class="st2" points="507.1,239 507.1,140.3 507.2,139.2 507.4,138.2 507.8,137.2 508.2,136.2 508.8,135.3 509.5,134.5 
		510.4,133.8 511.2,133.2 512.2,132.7 513.2,132.4 514.3,132.2 515.4,132.1 614.1,132.1 615.1,132.2 616.2,132.4 617.2,132.7 
		618.2,133.2 619.1,133.8 619.9,134.5 620.6,135.3 621.2,136.2 621.7,137.2 622,138.2 622.2,139.2 622.3,140.3 622.3,239 
		622.2,240.1 622,241.1 621.7,242.2 621.2,243.1 620.6,244 619.9,244.8 619.1,245.5 618.2,246.1 617.2,246.6 616.2,246.9 
		615.1,247.2 614.1,247.2 515.4,247.2 514.3,247.2 513.2,246.9 512.2,246.6 511.2,246.1 510.4,245.5 509.5,244.8 508.8,244 
		508.2,243.1 507.8,242.2 507.4,241.1 507.2,240.1 	"/>
	<path class="st0" d="M551.8,212.2H571v3.1h-19.2h-19.2v-3.1H551.8L551.8,212.2z M551.8,206.1L551.8,206.1l4.3,0l4.3,0.1l4.3,0.1
		l4.3,0.2l1.8,0.1v2.6h-19.2h-19.2v-2.6l4.3-0.2l4.3-0.1l4.3-0.1l4.3,0L551.8,206.1L551.8,206.1z M551.8,221.3L551.8,221.3l4.3,0
		l4.3-0.1l4.3-0.1l4.3-0.2l1.8-0.1v-2.6h-19.2h-19.2v2.6l4.3,0.2l4.3,0.1l4.3,0.1l4.3,0L551.8,221.3L551.8,221.3L551.8,221.3z
		 M574.8,237.4L574.8,237.4l0.7,0.7l0.8,0.6l0.9,0.5l1,0.4l1,0.2l1,0.1l1,0l1-0.2l1-0.3l0.9-0.5l0.9-0.6l0.8-0.7l0.3-0.3v-12.8
		l0.7-0.5l0.7-0.6l0.6-0.7l0.4-0.8l0.3-0.9l0.2-0.9l0-0.6v-16.1l-0.1-0.9l-0.2-0.9l-0.3-0.8l-0.5-0.8l-0.6-0.7l-0.7-0.6l-0.8-0.5
		l-0.8-0.3l-0.9-0.2l-0.4,0l-3-18.8l-0.2-1.1l-0.4-1.1l-0.5-1l-0.6-0.9l-0.7-0.9l-0.8-0.8l-0.9-0.7l-1-0.6l-1-0.5l-1.1-0.3l-1.1-0.2
		l-1.1-0.1h-0.2h-19.7h-19.7L531,171l-1.1,0.2l-1.1,0.3l-1,0.4l-1,0.6l-0.9,0.7l-0.8,0.8l-0.7,0.9l-0.6,0.9l-0.5,1l-0.4,1.1
		l-0.3,1.1l0,0.2l-3,18.8l-0.9,0.1l-0.9,0.3l-0.8,0.4l-0.7,0.5l-0.6,0.6l-0.5,0.7l-0.4,0.8l-0.3,0.9l-0.1,0.9l0,0.4v16.1l0.1,0.9
		l0.2,0.9l0.3,0.8l0.5,0.8l0.6,0.7l0.7,0.6l0.5,0.3v12.8l0.7,0.7l0.8,0.6l0.9,0.5l1,0.4l1,0.2l1,0.1l1,0l1-0.2l1-0.3l0.9-0.5
		l0.9-0.6l0.8-0.7l0.3-0.3v-11.8l4.5,0.3l4.5,0.2l4.5,0.2l4.5,0.1l4.5,0.1l0.7,0l4.5-0.1l4.5-0.1l4.5-0.2l4.5-0.2l4.5-0.3l0.6,0
		L574.8,237.4L574.8,237.4z M532.8,177.4L532.8,177.4l12-0.7h7h7l12,0.7l1.1,0.2l1,0.3l1,0.5l0.9,0.6l0.8,0.7l0.7,0.8l0.6,0.9l0.5,1
		l0.4,1l0.3,1.1l0,0.2l0.9,5.4l0,0.7l-0.1,0.7l-0.2,0.7l-0.3,0.6l-0.4,0.6l-0.5,0.5l-0.6,0.4l-0.7,0.2l-0.7,0.1l-0.5,0l-23.2-0.7
		l-23.2,0.7l-0.7,0l-0.7-0.1l-0.7-0.3l-0.6-0.4l-0.5-0.5l-0.4-0.6l-0.3-0.6l-0.2-0.7l-0.1-0.7l0-0.5l0.9-5.4l0.2-1.1l0.4-1l0.5-1
		l0.6-0.9l0.7-0.8l0.8-0.7l0.9-0.6l1-0.5l1-0.4l1.1-0.2L532.8,177.4L532.8,177.4z M529.4,206.9L529.4,206.9l-0.1-0.9l-0.2-0.9
		l-0.4-0.8l-0.5-0.7l-0.6-0.7l-0.7-0.5l-0.8-0.4l-0.8-0.3l-0.9-0.1h-0.9l-0.9,0.1l-0.8,0.3l-0.8,0.4l-0.7,0.5l-0.6,0.7l-0.5,0.7
		l-0.4,0.8l-0.2,0.9l-0.1,0.9l0.1,0.9l0.2,0.9l0.4,0.8l0.5,0.7l0.6,0.7l0.7,0.5l0.8,0.4l0.8,0.3l0.9,0.1h0.9l0.9-0.1l0.8-0.3
		l0.8-0.4l0.7-0.5l0.6-0.7l0.5-0.7l0.4-0.8l0.2-0.9L529.4,206.9L529.4,206.9z M585,206.9L585,206.9l-0.1-0.9l-0.2-0.9l-0.4-0.8
		l-0.5-0.7l-0.6-0.7l-0.7-0.5l-0.8-0.4l-0.8-0.3l-0.9-0.1h-0.9l-0.9,0.1l-0.8,0.3l-0.8,0.4l-0.7,0.5l-0.6,0.7l-0.5,0.7l-0.4,0.8
		l-0.2,0.9l-0.1,0.9l0.1,0.9l0.2,0.9l0.4,0.8l0.5,0.7l0.6,0.7l0.7,0.5l0.8,0.4l0.8,0.3l0.9,0.1h0.9l0.9-0.1l0.8-0.3l0.8-0.4l0.7-0.5
		l0.6-0.7l0.5-0.7l0.4-0.8l0.2-0.9L585,206.9L585,206.9z M615,153.2L615,153.2l-0.1-1.3l-0.2-1.3l-0.3-1.3L614,148l-0.5-1.2
		l-0.7-1.1l-0.8-1.1l-0.9-1l-1-0.9l-1-0.8l-1.1-0.7l-1.2-0.6l-1.2-0.5l-1.3-0.4l-1.3-0.2l-1.3-0.1h-1.3l-1.3,0.1l-1.3,0.2l-1.3,0.4
		l-1.2,0.5l-1.2,0.6l-1.1,0.7l-1,0.8l-1,0.9l-0.9,1l-0.8,1.1l-0.7,1.1l-0.5,1.2l-0.4,1.2l-0.3,1.3l-0.2,1.3l-0.1,1.3l0.1,1.3
		l0.2,1.3l0.3,1.3l0.4,1.2l0.5,1.2l0.7,1.1l0.8,1.1l0.9,1l1,0.9l1,0.8l1.1,0.7l1.2,0.6l1.2,0.5l1.3,0.4l1.3,0.2l1.3,0.1h1.3l1.3-0.1
		l1.3-0.2l1.3-0.4l1.2-0.5l1.2-0.6l1.1-0.7l1-0.8l1-0.9l0.9-1l0.8-1.1l0.7-1.1l0.5-1.2l0.4-1.2l0.3-1.3l0.2-1.3L615,153.2L615,153.2
		z M599.8,144.4L599.8,144.4l0.1-0.4l0.2-0.4l0.3-0.3l0.3-0.2l0.4-0.1h0.4l0.4,0.1l0.3,0.2l0.3,0.3l0.2,0.4l0.1,0.4v4.6l-0.1,0.4
		l-0.2,0.4l-0.3,0.3l-0.3,0.2l-0.4,0.1H601l-0.4-0.1l-0.3-0.2l-0.3-0.3l-0.2-0.4l-0.1-0.4V144.4L599.8,144.4z M605.9,155.5h2.9
		l0.4,0.1l0.4,0.2l0.3,0.3l0.2,0.3l0.1,0.4l0,0.2l-0.1,0.4l-0.2,0.4l-0.3,0.3l-0.3,0.2l-0.4,0.1l-0.2,0h-2.8l-0.4-0.1l-0.4-0.2
		l-0.3-0.3l-0.2-0.3l-0.1-0.4v-0.4l0.1-0.4l0.2-0.3l0.3-0.3l0.4-0.2L605.9,155.5L605.9,155.5L605.9,155.5z M593.6,155.5h2.8l0.4,0.1
		l0.4,0.2l0.3,0.3l0.2,0.3l0.1,0.4l0,0.2l-0.1,0.4l-0.2,0.4l-0.3,0.3l-0.3,0.2l-0.4,0.1l-0.2,0h-2.8l-0.4-0.1l-0.4-0.2l-0.3-0.3
		l-0.2-0.3l-0.1-0.4v-0.4l0.1-0.4l0.2-0.3l0.3-0.3l0.4-0.2L593.6,155.5L593.6,155.5z M589.2,212.2h11.4l0.4-0.1l0.4-0.2l0.4-0.3
		l0.3-0.4l0.2-0.4l0.1-0.4v-18.1h5l0.7-0.1l0.6-0.2l0.6-0.3l0.5-0.4l0.4-0.5l0.3-0.6l0.2-0.6l0.1-0.7v-5.2h2.3v-3.5h-4.8v-6.9
		l-0.1-0.4l-0.2-0.4l-0.3-0.3l-0.3-0.2L607,172l-0.2,0h-1l-0.4,0.1l-0.4,0.2l-0.3,0.3l-0.2,0.3l-0.1,0.4l0,0.2v6.9h-1.9v-8.8
		l-0.1-0.4l-0.2-0.4l-0.3-0.3l-0.3-0.2l-0.4-0.1h-0.4l-0.4,0.1l-0.3,0.2l-0.3,0.3l-0.2,0.4l-0.1,0.4v8.8h-1.9v-6.9l-0.1-0.4
		l-0.2-0.4l-0.3-0.3l-0.3-0.2l-0.4-0.1l-0.2,0h-1L595,172l-0.4,0.2l-0.3,0.3l-0.2,0.3l-0.1,0.4l0,0.2v6.9h-4.5v3.5h2.3v5.2l0.1,0.7
		l0.2,0.6l0.3,0.6l0.4,0.5l0.5,0.4l0.6,0.3l0.6,0.2l0.7,0.1h4.8v17.4h-10.7L589.2,212.2L589.2,212.2z"/>
	<polygon class="st2" points="337.2,298.5 321.3,298.5 321.3,291.4 334.5,291.4 334.5,285.5 321.3,285.5 321.3,278.8 335.9,278.8 
		335.9,272.6 314.7,272.6 314.7,304.8 337.2,304.8 	"/>
	<polygon class="st2" points="354.5,304.6 354.5,304.6 352.7,305 350.9,305.3 349,305.4 348.6,305.4 347.8,305.4 347,305.2 
		346.3,304.8 345.6,304.4 345,303.9 344.5,303.2 344.1,302.5 343.8,301.7 343.7,300.9 343.7,300.5 343.7,272.6 350,272.6 350,298 
		350,298.3 350.2,298.7 350.4,299 350.8,299.2 351.1,299.3 351.4,299.3 352.7,299.3 353.8,299.1 	"/>
	<path class="st2" d="M362,282.9L362,282.9l-1,0.7l-0.9,0.8l-0.8,0.9l-0.7,1l-0.4,0.6l-0.5,1.3l-0.4,1.3l-0.3,1.3l-0.1,1.3l0,1.3
		l0.1,1.3l0.2,1.3l0.4,1.3l0.5,1.3l0.2,0.5l0.5,1.1l0.7,1l0.8,0.9l0.9,0.8l1,0.7l1,0.6l1.1,0.5l1.1,0.3l1.4,0.3l1.4,0.1h1.4l1.4-0.1
		l1.4-0.3l0.5-0.1l1.1-0.4l1-0.5l0.9-0.6l0.9-0.7l0.8-0.8l0.3-0.3l-3.9-3.9l-0.8,0.7l-0.8,0.6l-0.9,0.5l-0.5,0.2l-1,0.2l-1,0.1l-1,0
		l-1-0.2l-0.9-0.3l-0.4-0.2L365,299l-0.6-0.5l-0.5-0.6l-0.4-0.7l-0.2-0.7l-0.1-0.8l0-0.2h15.3l0-1.6l-0.1-1.5l-0.3-1.5l-0.4-1.5
		l-0.4-1.4l-0.4-1.1l-0.6-1l-0.7-0.9l-0.8-0.8l-0.9-0.7l-0.7-0.5l-1-0.6l-1.1-0.5l-1.1-0.3l-1.2-0.2l-1.2-0.1l-1.2,0.1l-1.2,0.2
		l-1.1,0.3l-1.1,0.5l-1,0.6L362,282.9L362,282.9z M372.6,290.7L372.6,290.7l-0.1-0.8l-0.3-0.8l-0.4-0.7l-0.5-0.6l-0.6-0.5l-0.7-0.4
		l-0.8-0.3l-0.8-0.1l-0.8,0l-0.8,0.1l-0.8,0.3l-0.7,0.4l-0.6,0.5l-0.5,0.6l-0.4,0.7l-0.3,0.8l-0.1,0.7L372.6,290.7L372.6,290.7z"/>
	<polygon class="st2" points="398,290.5 403.8,288.4 403.8,288.4 403.7,288.1 403.3,287 402.7,285.9 402,284.9 401.2,284 
		400.3,283.2 399.4,282.6 398.3,282 397.1,281.5 396,281.2 394.7,280.9 393.5,280.9 393.4,280.9 392.2,280.9 390.9,281.1 
		389.7,281.5 388.6,282 387.5,282.5 387.4,282.6 386.5,283.3 385.6,284.1 384.8,285 384.1,286 383.5,287.1 383.1,288.1 383,288.4 
		382.6,289.7 382.4,291.1 382.3,292.6 382.3,293.3 382.3,294.7 382.5,296.1 382.8,297.5 383,298.2 383.1,298.5 383.6,299.6 
		384.2,300.7 384.8,301.6 385.6,302.5 386.5,303.3 387.4,304 388.5,304.6 389.7,305.1 390.9,305.4 392.1,305.6 393.3,305.7 
		393.4,305.7 394.7,305.6 395.9,305.4 397.1,305.1 398.2,304.6 399.3,304 399.4,304 400.4,303.3 401.2,302.5 402,301.5 402.7,300.6 
		403.3,299.5 403.7,298.5 403.8,298.2 398,296 397.7,296.9 397.5,297.3 397,298.1 396.4,298.8 396.2,299 395.6,299.5 394.9,299.9 
		394.3,300.1 393.7,300.2 393,300.2 392.5,300.1 391.8,299.8 391.1,299.4 390.6,299 390,298.3 389.5,297.6 389.3,297.3 389,296.5 
		388.8,295.8 388.6,294.5 388.6,293.3 388.6,291.9 388.8,290.8 389,289.9 389.3,289.2 389.8,288.4 390.5,287.7 390.6,287.6 
		391.3,287.1 391.9,286.7 392.5,286.5 393.1,286.4 393.8,286.4 394.3,286.5 395,286.8 395.7,287.2 396.2,287.6 396.8,288.2 
		397.4,289 397.5,289.2 397.8,290 	"/>
	<polygon class="st2" points="416.7,272.6 410.5,274.4 410.5,281.6 406.8,281.6 406.8,286.8 410.5,286.8 410.5,300.5 410.5,301.3 
		410.7,302.1 411,302.8 411.5,303.5 412,304.1 412.7,304.6 413.4,305 414.2,305.3 414.8,305.4 416.3,305.5 417.8,305.5 419.4,305.4 
		420.9,305.2 422.4,304.8 423.5,304.5 422.1,299.3 421,299.6 419.8,299.8 418.6,299.9 418.1,299.8 417.7,299.6 417.3,299.4 417,299 
		416.8,298.5 416.7,298.1 416.7,286.8 422.6,286.8 422.6,281.6 416.7,281.6 	"/>
	<polygon class="st2" points="434,292.6 434,292.6 434.1,291.7 434.3,290.9 434.6,290.1 435.1,289.4 435.7,288.7 436.4,288.2 
		437.1,287.8 438,287.5 438.8,287.4 439.2,287.4 441.4,287.4 441.4,281.4 439.9,281.4 438.8,281.5 437.8,281.7 436.8,282 
		435.9,282.5 435,283.1 434.2,283.8 434,284.1 434,281.8 427.7,281.8 427.7,304.8 434,304.8 	"/>
	<path class="st2" d="M447.1,304.8v-23h6.3v23H447.1L447.1,304.8z M453.9,275.9L453.9,275.9l-0.1-0.7l-0.2-0.7l-0.3-0.6l-0.4-0.5
		l-0.5-0.4l-0.6-0.3l-0.7-0.2l-0.7-0.1l-0.7,0.1l-0.7,0.2l-0.6,0.3l-0.5,0.4l-0.4,0.5l-0.3,0.6l-0.2,0.7l-0.1,0.7l0.1,0.7l0.2,0.7
		l0.3,0.6l0.4,0.5l0.5,0.4l0.6,0.3l0.7,0.2l0.7,0.1l0.7-0.1l0.7-0.2l0.6-0.3l0.5-0.4l0.4-0.5l0.3-0.6l0.2-0.7L453.9,275.9
		L453.9,275.9z"/>
	<polygon class="st2" points="474.2,290.5 480.1,288.4 480,288.4 480,288.1 479.5,287 478.9,285.9 478.2,284.9 477.4,284 
		476.5,283.2 475.6,282.6 474.5,282 473.4,281.5 472.2,281.2 471,280.9 469.7,280.9 469.6,280.9 468.4,280.9 467.2,281.1 466,281.5 
		464.8,282 463.7,282.5 463.7,282.6 462.7,283.3 461.8,284.1 461,285 460.3,286 459.7,287.1 459.3,288.1 459.2,288.4 458.9,289.7 
		458.6,291.1 458.5,292.6 458.5,293.3 458.6,294.7 458.7,296.1 459,297.5 459.2,298.2 459.3,298.5 459.8,299.6 460.4,300.7 
		461.1,301.6 461.9,302.5 462.8,303.3 463.7,304 464.7,304.6 465.9,305.1 467.1,305.4 468.3,305.6 469.6,305.7 469.6,305.7 
		470.9,305.6 472.1,305.4 473.3,305.1 474.5,304.6 475.6,304 475.6,304 476.6,303.3 477.5,302.5 478.3,301.5 479,300.6 479.5,299.5 
		480,298.5 480,298.2 474.2,296 473.9,296.9 473.7,297.3 473.2,298.1 472.6,298.8 472.4,299 471.8,299.5 471.1,299.9 470.6,300.1 
		469.9,300.2 469.2,300.2 468.7,300.1 468,299.8 467.3,299.4 466.9,299 466.2,298.3 465.7,297.6 465.6,297.3 465.2,296.5 465,295.8 
		464.8,294.5 464.8,293.3 464.9,291.9 465,290.8 465.3,289.9 465.6,289.2 466.1,288.4 466.7,287.7 466.9,287.6 467.5,287.1 
		468.2,286.7 468.7,286.5 469.4,286.4 470,286.4 470.6,286.5 471.3,286.8 471.9,287.2 472.4,287.6 473,288.2 473.6,289 473.7,289.2 
		474.1,290 	"/>
	<polygon class="st2" points="496.8,281.8 504.8,304.8 511.8,304.8 519.8,281.8 513.3,281.8 508.3,296.2 503.3,281.8 	"/>
	<path class="st2" d="M527.3,282.9L527.3,282.9l-1,0.7l-0.9,0.8l-0.8,0.9l-0.7,1l-0.4,0.6l-0.5,1.3l-0.4,1.3l-0.3,1.3l-0.1,1.3
		l0,1.3l0.1,1.3l0.2,1.3l0.4,1.3l0.5,1.3l0.2,0.5l0.5,1.1l0.7,1l0.8,0.9l0.9,0.8l1,0.7l1,0.6l1.1,0.5l1.1,0.3l1.4,0.3l1.4,0.1h1.4
		l1.4-0.1l1.4-0.3l0.5-0.1l1.1-0.4l1-0.5l0.9-0.6l0.9-0.7l0.8-0.8l0.3-0.3l-3.9-3.9l-0.8,0.7l-0.8,0.6l-0.9,0.5l-0.5,0.2l-1,0.2
		l-1,0.1l-1,0l-1-0.2l-0.9-0.3l-0.4-0.2l-0.7-0.4l-0.6-0.5l-0.5-0.6l-0.4-0.7l-0.2-0.7l-0.1-0.8l0-0.2h15.3l0-1.6l-0.1-1.5l-0.3-1.5
		l-0.4-1.5l-0.4-1.4l-0.4-1.1l-0.6-1l-0.7-0.9l-0.8-0.8l-0.9-0.7l-0.7-0.5l-1-0.6l-1.1-0.5l-1.1-0.3l-1.2-0.2l-1.2-0.1l-1.2,0.1
		l-1.2,0.2l-1.1,0.3l-1.1,0.5l-1,0.6L527.3,282.9L527.3,282.9z M537.8,290.7L537.8,290.7l-0.1-0.8l-0.3-0.8l-0.4-0.7l-0.5-0.6
		l-0.6-0.5l-0.7-0.4l-0.8-0.3l-0.8-0.1l-0.8,0l-0.8,0.1l-0.8,0.3l-0.7,0.4l-0.6,0.5l-0.5,0.6l-0.4,0.7l-0.3,0.8l-0.1,0.7
		L537.8,290.7L537.8,290.7z"/>
	<polygon class="st2" points="569.9,304.8 569.9,291.1 569.9,289.8 569.7,288.6 569.4,287.4 568.9,286.2 568.8,285.9 568.2,285 
		567.4,284.1 566.6,283.4 565.7,282.7 564.8,282.1 563.7,281.7 563,281.4 562.1,281.3 561.7,281.2 560.6,281.2 559.5,281.3 
		558.5,281.6 557.5,281.9 556.5,282.4 555.6,283.1 555.2,283.4 555.2,272.6 548.9,272.6 548.9,304.8 555.2,304.8 555.2,291 
		555.3,290.2 555.5,289.5 555.6,289.4 556,288.7 556.6,288.2 557.2,287.7 557.5,287.6 558.3,287.2 559.1,287 560,287 560.9,287.1 
		561.1,287.1 561.7,287.3 562,287.5 562.5,288 563,288.5 563.3,289.1 563.4,289.5 563.6,290.3 563.7,291.1 563.7,304.8 569.9,304.8 
		563.7,304.8 	"/>
	<path class="st2" d="M576.2,304.8v-23h6.3v23H576.2L576.2,304.8z M583,275.9L583,275.9l-0.1-0.7l-0.2-0.7l-0.3-0.6l-0.4-0.5
		l-0.5-0.4l-0.6-0.3l-0.7-0.2l-0.7-0.1l-0.7,0.1l-0.7,0.2l-0.6,0.3l-0.5,0.4l-0.4,0.5l-0.3,0.6l-0.2,0.7l-0.1,0.7l0.1,0.7l0.2,0.7
		l0.3,0.6l0.4,0.5l0.5,0.4l0.6,0.3l0.7,0.2l0.7,0.1l0.7-0.1l0.7-0.2l0.6-0.3l0.5-0.4l0.4-0.5l0.3-0.6l0.2-0.7L583,275.9L583,275.9z"
		/>
	<polygon class="st2" points="603.3,290.5 609.1,288.4 609.1,288.4 609,288.1 608.6,287 608,285.9 607.3,284.9 606.5,284 
		605.6,283.2 604.7,282.6 603.6,282 602.5,281.5 601.3,281.2 600,280.9 598.8,280.9 598.7,280.9 597.5,280.9 596.2,281.1 
		595.1,281.5 593.9,282 592.8,282.5 592.7,282.6 591.8,283.3 590.9,284.1 590.1,285 589.4,286 588.8,287.1 588.4,288.1 588.3,288.4 
		587.9,289.7 587.7,291.1 587.6,292.6 587.6,293.3 587.6,294.7 587.8,296.1 588.1,297.5 588.3,298.2 588.4,298.5 588.9,299.6 
		589.5,300.7 590.2,301.6 591,302.5 591.8,303.3 592.7,304 593.8,304.6 595,305.1 596.2,305.4 597.4,305.6 598.6,305.7 598.7,305.7 
		600,305.6 601.2,305.4 602.4,305.1 603.5,304.6 604.6,304 604.7,304 605.7,303.3 606.6,302.5 607.3,301.5 608,300.6 608.6,299.5 
		609,298.5 609.1,298.2 603.3,296 603,296.9 602.8,297.3 602.3,298.1 601.7,298.8 601.5,299 600.9,299.5 600.2,299.9 599.6,300.1 
		599,300.2 598.3,300.2 597.8,300.1 597.1,299.8 596.4,299.4 595.9,299 595.3,298.3 594.8,297.6 594.6,297.3 594.3,296.5 
		594.1,295.8 593.9,294.5 593.9,293.3 593.9,291.9 594.1,290.8 594.3,289.9 594.6,289.2 595.1,288.4 595.8,287.7 595.9,287.6 
		596.6,287.1 597.2,286.7 597.8,286.5 598.4,286.4 599.1,286.4 599.6,286.5 600.4,286.8 601,287.2 601.5,287.6 602.1,288.2 
		602.7,289 602.8,289.2 603.1,290 	"/>
	<polygon class="st2" points="624.3,304.6 624.3,304.6 622.5,305 620.6,305.3 618.8,305.4 618.4,305.4 617.6,305.4 616.8,305.2 
		616.1,304.8 615.4,304.4 614.8,303.9 614.3,303.2 613.9,302.5 613.6,301.7 613.5,300.9 613.5,300.5 613.5,272.6 619.7,272.6 
		619.7,298 619.8,298.3 620,298.7 620.2,299 620.6,299.2 620.9,299.3 621.1,299.3 622.5,299.3 623.6,299.1 	"/>
	<path class="st2" d="M631.8,282.9L631.8,282.9l-1,0.7l-0.9,0.8l-0.8,0.9l-0.7,1l-0.4,0.6l-0.5,1.3l-0.4,1.3l-0.3,1.3l-0.1,1.3
		l0,1.3l0.1,1.3l0.2,1.3l0.4,1.3l0.5,1.3l0.2,0.5l0.5,1.1l0.7,1l0.8,0.9l0.9,0.8l1,0.7l1,0.6l1.1,0.5l1.1,0.3l1.4,0.3l1.4,0.1h1.4
		l1.4-0.1l1.4-0.3l0.5-0.1l1.1-0.4l1-0.5l0.9-0.6l0.9-0.7l0.8-0.8l0.3-0.3l-3.9-3.9l-0.8,0.7l-0.8,0.6l-0.9,0.5l-0.5,0.2l-1,0.2
		l-1,0.1l-1,0l-1-0.2l-0.9-0.3l-0.4-0.2l-0.7-0.4l-0.6-0.5l-0.5-0.6l-0.4-0.7l-0.2-0.7l-0.1-0.8l0-0.2h15.3l0-1.6l-0.1-1.5l-0.3-1.5
		l-0.4-1.5l-0.4-1.4l-0.4-1.1l-0.6-1l-0.7-0.9l-0.8-0.8l-0.9-0.7l-0.7-0.5l-1-0.6l-1.1-0.5l-1.1-0.3l-1.2-0.2l-1.2-0.1l-1.2,0.1
		l-1.2,0.2l-1.1,0.3l-1.1,0.5l-1,0.6L631.8,282.9L631.8,282.9z M642.4,290.7L642.4,290.7l-0.1-0.8l-0.3-0.8l-0.4-0.7l-0.5-0.6
		l-0.6-0.5l-0.7-0.4l-0.8-0.3l-0.8-0.1l-0.8,0l-0.8,0.1l-0.8,0.3l-0.7,0.4l-0.6,0.5l-0.5,0.6l-0.4,0.7l-0.3,0.8l-0.1,0.7
		L642.4,290.7L642.4,290.7z"/>
	<polygon class="st2" points="307.4,338.7 307.4,338.7 307.4,337.8 307.6,337 308,336.2 308.5,335.4 309,334.8 309.7,334.3 
		310.5,333.9 311.3,333.6 312.1,333.4 312.6,333.4 314.7,333.4 314.7,327.4 313.2,327.4 312.2,327.5 311.1,327.7 310.1,328.1 
		309.2,328.6 308.3,329.2 307.6,329.9 307.4,330.1 307.4,327.8 301.1,327.8 301.1,350.9 307.4,350.9 	"/>
	<path class="st2" d="M324.3,329L324.3,329l-1,0.7l-0.9,0.8l-0.8,0.9l-0.7,1l-0.4,0.6l-0.5,1.3l-0.4,1.3l-0.3,1.3l-0.1,1.3l0,1.3
		l0.1,1.3l0.2,1.3l0.4,1.3l0.5,1.3l0.2,0.5l0.5,1.1l0.7,1l0.8,0.9l0.9,0.8l1,0.7l1,0.6l1.1,0.5l1.1,0.3l1.4,0.3l1.4,0.1h1.4l1.4-0.1
		l1.4-0.3l0.5-0.1l1.1-0.4l1-0.5l0.9-0.6l0.9-0.7l0.8-0.8l0.3-0.3l-3.9-3.9l-0.8,0.7l-0.8,0.6l-0.9,0.5l-0.5,0.2l-1,0.2l-1,0.1l-1,0
		l-1-0.2l-0.9-0.3l-0.4-0.2l-0.7-0.4l-0.6-0.5l-0.5-0.6l-0.4-0.7l-0.2-0.7l-0.1-0.8l0-0.2h15.3l0-1.6l-0.1-1.5l-0.3-1.5l-0.4-1.5
		l-0.4-1.4l-0.4-1.1l-0.6-1l-0.7-0.9l-0.8-0.8l-0.9-0.7l-0.7-0.5l-1-0.6l-1.1-0.5l-1.1-0.3l-1.2-0.2l-1.2-0.1l-1.2,0.1l-1.2,0.2
		l-1.1,0.3l-1.1,0.5l-1,0.6L324.3,329L324.3,329z M334.8,336.7L334.8,336.7l-0.1-0.8l-0.3-0.8l-0.4-0.7l-0.5-0.6l-0.6-0.5l-0.7-0.4
		l-0.8-0.3l-0.8-0.1l-0.8,0l-0.8,0.1l-0.8,0.3l-0.7,0.4l-0.6,0.5l-0.5,0.6l-0.4,0.7l-0.3,0.8l-0.1,0.8H334.8L334.8,336.7z"/>
	<polygon class="st2" points="360.2,336.6 366.1,334.4 366.1,334.4 366,334.1 365.5,333 364.9,332 364.2,331 363.4,330.1 
		362.5,329.3 361.6,328.6 360.5,328 359.4,327.6 358.2,327.2 357,327 355.7,326.9 355.6,326.9 354.4,327 353.2,327.2 352,327.5 
		350.8,328 349.7,328.6 349.7,328.6 348.7,329.4 347.8,330.2 347,331.1 346.3,332.1 345.7,333.1 345.3,334.1 345.2,334.4 
		344.9,335.8 344.6,337.2 344.5,338.6 344.5,339.3 344.6,340.8 344.7,342.2 345,343.6 345.2,344.3 345.3,344.5 345.8,345.7 
		346.4,346.7 347.1,347.7 347.9,348.6 348.8,349.4 349.7,350.1 350.8,350.6 351.9,351.1 353.1,351.5 354.3,351.7 355.6,351.8 
		355.6,351.8 356.9,351.7 358.1,351.5 359.3,351.1 360.5,350.7 361.6,350.1 361.6,350.1 362.6,349.3 363.5,348.5 364.3,347.6 
		365,346.6 365.5,345.6 366,344.5 366.1,344.3 360.2,342.1 359.9,342.9 359.7,343.4 359.2,344.2 358.6,344.9 358.4,345.1 
		357.8,345.6 357.1,345.9 356.6,346.1 355.9,346.2 355.3,346.2 354.7,346.1 354,345.8 353.3,345.5 352.9,345.1 352.2,344.4 
		351.7,343.6 351.6,343.4 351.2,342.6 351,341.9 350.8,340.5 350.8,339.3 350.9,338 351,336.8 351.3,336 351.6,335.3 352.1,334.5 
		352.7,333.8 352.9,333.6 353.5,333.1 354.2,332.8 354.7,332.6 355.4,332.5 356,332.5 356.6,332.6 357.3,332.8 357.9,333.2 
		358.4,333.6 359.1,334.3 359.6,335.1 359.7,335.3 360.1,336.1 	"/>
	<polygon class="st2" points="391.6,350.9 391.6,337.1 391.5,335.9 391.3,334.6 391,333.4 390.6,332.3 390.4,332 389.8,331 
		389.1,330.2 388.3,329.4 387.4,328.7 386.4,328.2 385.4,327.7 384.7,327.5 383.7,327.3 383.3,327.3 382.2,327.3 381.2,327.4 
		380.1,327.6 379.1,328 378.1,328.5 377.3,329.1 376.9,329.5 376.9,318.6 370.6,318.6 370.6,350.9 376.9,350.9 376.9,337 
		376.9,336.2 377.2,335.6 377.2,335.5 377.7,334.8 378.2,334.2 378.9,333.8 379.1,333.6 379.9,333.3 380.8,333.1 381.7,333 
		382.5,333.1 382.8,333.2 383.3,333.4 383.6,333.6 384.2,334 384.6,334.6 384.9,335.2 385.1,335.5 385.3,336.3 385.3,337.1 
		385.3,350.9 391.6,350.9 385.3,350.9 	"/>
	<path class="st2" d="M400,350.1L400,350.1l1.1,0.5l1.2,0.4l1.2,0.3l1.2,0.2l1.2,0l1.2-0.1l1.2-0.2l0.7-0.2l0.7-0.3l0.7-0.4l0.6-0.6
		l0.4-0.5l0.4,0.5l0.5,0.5l0.6,0.4l0.3,0.1l1.2,0.4l1.2,0.3l1.2,0.2l0.3,0l2.2-4.9l-0.5,0l-0.5-0.1l-0.5-0.2l-0.4-0.3l-0.3-0.4
		l-0.2-0.5l-0.1-0.5l0-0.2v-10.9l-0.1-0.9l-0.2-0.9l-0.3-0.8l-0.5-0.8l-0.6-0.7l-0.7-0.6l-0.7-0.5l-1.1-0.5l-1.2-0.4l-1.3-0.4
		l-1.3-0.2l-1.3-0.1l-1.3,0l-1.3,0.2l-0.9,0.2l-1.6,0.5l-1.6,0.6l-1.5,0.7l-1.5,0.8l-0.7,0.4l3.1,4.7l1.2-0.7l1.2-0.6l1.3-0.5
		l1.3-0.4l1.4-0.2l0.4,0l0.8,0l0.7,0.1l0.7,0.2l0.2,0.1l0.4,0.2l0.3,0.4l0.2,0.4l0.1,0.5l0,0.2v1.5l-1.7,0.1l-1.7,0.2l-1.7,0.3
		l-1.7,0.4l-1.7,0.5l-1.3,0.5l-0.9,0.5l-0.8,0.6l-0.7,0.7l-0.6,0.8l-0.4,0.9l-0.3,0.9l-0.2,1l0,1l0.1,1l0.2,1l0.4,0.9l0.5,0.9
		l0.6,0.8l0.7,0.7L400,350.1L400,350.1z M408.6,346.1L408.6,346.1l0.5-0.2l0.5-0.3l0.4-0.4l0.3-0.5l0.1-0.5l0-0.3v-3.3l-1.9,0.3
		l-1.9,0.4l-1.8,0.5l-0.2,0.1l-0.4,0.2l-0.4,0.3l-0.3,0.4l-0.2,0.5l-0.1,0.5l0.1,0.5l0.1,0.3l0.3,0.5l0.4,0.4l0.4,0.3l0.5,0.2
		l0.2,0.1l1.1,0.1l1.1,0l1.1-0.1L408.6,346.1L408.6,346.1z"/>
	<polygon class="st2" points="429.9,338.7 429.9,338.7 429.9,337.8 430.1,337 430.5,336.2 431,335.4 431.6,334.8 432.2,334.3 
		433,333.9 433.8,333.6 434.7,333.4 435.1,333.4 437.2,333.4 437.2,327.4 435.7,327.4 434.7,327.5 433.6,327.7 432.6,328.1 
		431.7,328.6 430.9,329.2 430.1,329.9 429.9,330.1 429.9,327.8 423.6,327.8 423.6,350.9 429.9,350.9 	"/>
	<path class="st2" d="M457.3,336.5L457.3,336.5l-0.1-0.7l-0.3-0.6l-0.4-0.6l-0.5-0.5l-0.5-0.3l-0.8-0.4l-0.9-0.3l-0.9-0.1l-0.9,0
		l-0.9,0.2l-0.3,0.1l-0.6,0.4l-0.6,0.5l-0.4,0.6l-0.3,0.5l-0.4,1l-0.3,1l-0.2,1l0,1l0.1,1l0.2,0.8l0.3,0.7l0.4,0.6l0.5,0.5l0.6,0.4
		l0.7,0.3l0.2,0.1l0.9,0.3l0.9,0.1l0.9,0l0.9-0.2l0.7-0.2l0.6-0.3l0.5-0.4l0.4-0.5l0.3-0.6l0-0.1l0.3-0.9l0.1-0.8v-0.2L457.3,336.5
		L457.3,336.5z M453.2,352.7L453.2,352.7l-1.5,0l-1.5-0.1l-0.8-0.1l-1.2-0.3l-1.2-0.4l-1.1-0.5l-1-0.6l-2.9,5.1l1.5,0.7l1.6,0.6
		l1.6,0.5l1.7,0.4l1.4,0.3l1.5,0.2l1.5,0l1.5-0.1l1.5-0.2l0.4-0.1l1.2-0.3l1.1-0.4l1.1-0.5l1-0.7l0.5-0.4l0.7-0.8l0.6-0.9l0.5-0.9
		l0.4-1l0.2-1l0.1-1.1V350v-22.2h-6.3v1.2l-0.8-0.5l-0.8-0.4l-0.9-0.3l-0.2,0l-1.2-0.2l-1.2-0.1l-1.2,0l-1.2,0.2l-1.2,0.3l-0.7,0.2
		l-1,0.5l-0.9,0.6l-0.8,0.7l-0.8,0.8l-0.6,0.8l-0.6,1.2l-0.5,1.2l-0.4,1.3l0,0l-0.3,1.2l-0.2,1.2l-0.1,1.3l0.1,1.3l0.2,1.2l0.3,1.2
		l0.1,0.4l0.4,1.1l0.5,1l0.7,0.9l0.8,0.8l0.9,0.7l0.4,0.3l1,0.6l1,0.5l1.1,0.4l1.1,0.2l0.8,0.1l1.2,0.1l1.2-0.1l1.2-0.2l0.5-0.1
		l1-0.4l0.9-0.5l0.1-0.1v1.3l-0.1,0.6l-0.2,0.6l-0.3,0.5l-0.4,0.5l-0.5,0.4l-0.6,0.3l-0.3,0.1l-1.4,0.1L453.2,352.7L453.2,352.7z"/>
	<path class="st2" d="M469.9,350.9v-23h6.3v23H469.9L469.9,350.9z M476.7,322L476.7,322l-0.1-0.7l-0.2-0.7l-0.3-0.6l-0.4-0.5
		l-0.5-0.4l-0.6-0.3l-0.7-0.2l-0.7-0.1l-0.7,0.1l-0.7,0.2l-0.6,0.3l-0.5,0.4l-0.4,0.5l-0.3,0.6l-0.2,0.7l-0.1,0.7l0.1,0.7l0.2,0.7
		l0.3,0.6l0.4,0.5l0.5,0.4l0.6,0.3l0.7,0.2l0.7,0.1l0.7-0.1l0.7-0.2l0.6-0.3l0.5-0.4l0.4-0.5l0.3-0.6l0.2-0.7L476.7,322L476.7,322z"
		/>
	<polygon class="st2" points="503.7,350.9 503.7,337.1 503.7,335.9 503.5,334.6 503.2,333.4 502.7,332.3 502.6,332 502,331 
		501.2,330.2 500.4,329.4 499.5,328.7 498.6,328.2 497.5,327.7 496.8,327.5 495.9,327.3 495.5,327.3 494.4,327.3 493.3,327.4 
		492.3,327.6 491.2,328 490.3,328.5 489.4,329.1 489,329.5 489,327.8 482.7,327.8 482.7,350.9 489,350.9 489,337 489.1,336.2 
		489.3,335.6 489.4,335.5 489.8,334.8 490.4,334.2 491,333.8 491.3,333.6 492.1,333.3 492.9,333.1 493.8,333 494.7,333.1 
		494.9,333.2 495.4,333.4 495.8,333.6 496.3,334 496.8,334.6 497.1,335.2 497.2,335.5 497.4,336.3 497.5,337.1 497.5,350.9 
		503.7,350.9 497.5,350.9 	"/>
	<path class="st2" d="M524.3,336.5L524.3,336.5l-0.1-0.7l-0.3-0.6l-0.4-0.6l-0.5-0.5l-0.5-0.3l-0.8-0.4l-0.9-0.3l-0.9-0.1l-0.9,0
		l-0.9,0.2l-0.3,0.1l-0.6,0.4l-0.6,0.5l-0.4,0.6l-0.3,0.5l-0.4,1l-0.3,1l-0.2,1l0,1l0.1,1l0.2,0.8l0.3,0.7l0.4,0.6l0.5,0.5l0.6,0.4
		l0.7,0.3l0.2,0.1l0.9,0.3l0.9,0.1l0.9,0l0.9-0.2l0.7-0.2l0.6-0.3l0.5-0.4l0.4-0.5l0.3-0.6l0-0.1l0.3-0.9l0.1-0.8v-0.2L524.3,336.5
		L524.3,336.5z M520.2,352.7L520.2,352.7l-1.5,0l-1.5-0.1l-0.8-0.1l-1.2-0.3l-1.2-0.4l-1.1-0.5l-1-0.6l-2.9,5.1l1.5,0.7l1.6,0.6
		l1.6,0.5l1.7,0.4l1.4,0.3l1.5,0.2l1.5,0l1.5-0.1l1.5-0.2l0.4-0.1l1.2-0.3l1.1-0.4l1.1-0.5l1-0.7l0.5-0.4l0.7-0.8l0.6-0.9l0.5-0.9
		l0.4-1l0.2-1l0.1-1.1V350v-22.2h-6.3v1.2l-0.8-0.5l-0.8-0.4l-0.9-0.3l-0.2,0l-1.2-0.2l-1.2-0.1l-1.2,0l-1.2,0.2l-1.2,0.3l-0.7,0.2
		l-1,0.5l-0.9,0.6l-0.8,0.7l-0.8,0.8l-0.6,0.8l-0.6,1.2l-0.5,1.2l-0.4,1.3l0,0l-0.3,1.2l-0.2,1.2l-0.1,1.3l0.1,1.3l0.2,1.2l0.3,1.2
		l0.1,0.4l0.4,1.1l0.5,1l0.7,0.9l0.8,0.8l0.9,0.7l0.4,0.3l1,0.6l1,0.5l1.1,0.4l1.1,0.2l0.8,0.1l1.2,0.1l1.2-0.1l1.2-0.2l0.5-0.1
		l1-0.4l0.9-0.5l0.1-0.1v1.3l-0.1,0.6l-0.2,0.6l-0.3,0.5l-0.4,0.5l-0.5,0.4l-0.6,0.3l-0.3,0.1l-1.4,0.1L520.2,352.7L520.2,352.7z"/>
	<path class="st2" d="M565.7,333.6L565.7,333.6l-0.7-0.5l-0.8-0.4l-0.8-0.2l-0.9-0.1l-0.9,0.1l-0.9,0.2L560,333l-0.7,0.5l-0.5,0.4
		l-0.5,0.6l-0.4,0.6l-0.3,0.7l-0.2,0.7l0,0.1v5l0.1,0.7l0.2,0.6l0.3,0.6l0.3,0.3l0.6,0.6l0.7,0.5l0.7,0.4l0.8,0.3l0.8,0.2l0.9,0
		l0.8-0.1l0.6-0.2l0.7-0.3l0.7-0.4l0.6-0.5l0.5-0.6l0.4-0.7l0-0.1l0.4-1.1l0.2-1.2l0.1-1.2l0-1.2l-0.2-1.2l-0.3-1.2l-0.2-0.5
		l-0.3-0.8l0-0.1l-0.4-0.6L565.7,333.6L565.7,333.6L565.7,333.6z M560,350.9L560,350.9l1.2,0.3l1.2,0.2l1.2,0.1l1.2-0.1l1.2-0.2
		l1.2-0.3l1.1-0.4l0.1-0.1l1-0.6l0.9-0.7l0.8-0.8l0.7-0.9l0.6-1l0.4-0.9l0.5-1.4l0.4-1.4l0.2-1.4l0.1-1.4v-1.4l-0.1-1.4l-0.2-1.4
		l-0.4-1.4l-0.5-1.4l-0.2-0.4l-0.4-0.9l-0.5-0.8l-0.6-0.7L571,330l-0.8-0.8l-0.9-0.7l-1-0.6l-1.1-0.5l-1.1-0.3l-1.1-0.2l-1.1-0.1
		l-1.1,0l-1.1,0.2l-1.1,0.3l-1.1,0.4l-1,0.5l-0.9,0.6v-1.1h-6.3v29.9h6.3v-8.5l0.6,0.6l0.7,0.5l0.8,0.4L560,350.9L560,350.9z"/>
	<path class="st2" d="M599.9,339.3L599.9,339.3l0-1.4l-0.2-1.4l-0.3-1.4l-0.2-0.7l-0.1-0.3l-0.5-1.1l-0.6-1.1l-0.7-1l-0.8-0.9
		l-0.9-0.8l-0.9-0.6l-1.1-0.6l-1.2-0.5l-1.2-0.3l-1.2-0.2l-1.2-0.1h-0.1l-1.2,0.1l-1.2,0.2l-1.2,0.3L584,328l-1.1,0.6l-0.1,0l-1,0.7
		l-0.9,0.8l-0.8,0.9l-0.7,1l-0.6,1.1l-0.4,1l-0.1,0.3l-0.4,1.4l-0.2,1.4l-0.1,1.4l0,0.7l0,1.4l0.2,1.4l0.3,1.4l0.2,0.7l0.1,0.3
		l0.5,1.1l0.6,1.1l0.7,1l0.8,0.9l0.9,0.8l0.9,0.6l1.1,0.6l1.2,0.5l1.2,0.3l1.2,0.2l1.2,0.1h0.1l1.2-0.1l1.2-0.2l1.2-0.3l1.2-0.5
		l1.1-0.6l0.1,0l1-0.7l0.9-0.8l0.8-0.9l0.7-1l0.6-1.1l0.4-1l0.1-0.3l0.4-1.4l0.2-1.4l0.1-1.4L599.9,339.3L599.9,339.3z M589.7,332.6
		L589.7,332.6l0.7,0.3l0.7,0.4l0.5,0.4l0.6,0.7l0.5,0.8l0.1,0.2l0.4,0.8l0.2,0.7l0.2,1.4l0,1.2l-0.1,1.4l-0.2,1.2l-0.2,0.8l-0.3,0.7
		l-0.5,0.8l-0.6,0.7l-0.2,0.2l-0.6,0.5l-0.7,0.4l-0.6,0.2l-0.6,0.1l-0.7,0l-0.5-0.1l-0.7-0.3l-0.7-0.4l-0.5-0.4l-0.6-0.7l-0.5-0.8
		l-0.1-0.2l-0.4-0.8l-0.2-0.7l-0.2-1.4l0-1.2l0.1-1.4l0.2-1.2l0.2-0.8l0.3-0.7l0.5-0.8l0.6-0.7l0.2-0.2l0.6-0.5l0.7-0.4l0.6-0.2
		l0.6-0.1l0.7,0L589.7,332.6L589.7,332.6z"/>
	<path class="st2" d="M605.5,350.9v-23h6.3v23H605.5L605.5,350.9z M612.2,322L612.2,322l-0.1-0.7l-0.2-0.7l-0.3-0.6l-0.4-0.5
		l-0.5-0.4l-0.6-0.3l-0.7-0.2l-0.7-0.1l-0.7,0.1l-0.7,0.2l-0.6,0.3l-0.5,0.4l-0.4,0.5l-0.3,0.6l-0.2,0.7L605,322l0.1,0.7l0.2,0.7
		l0.3,0.6l0.4,0.5l0.5,0.4l0.6,0.3l0.7,0.2l0.7,0.1l0.7-0.1l0.7-0.2l0.6-0.3l0.5-0.4l0.4-0.5l0.3-0.6l0.2-0.7L612.2,322L612.2,322z"
		/>
	<polygon class="st2" points="639.3,350.9 639.3,337.1 639.2,335.9 639,334.6 638.7,333.4 638.2,332.3 638.1,332 637.5,331 
		636.8,330.2 636,329.4 635.1,328.7 634.1,328.2 633.1,327.7 632.3,327.5 631.4,327.3 631,327.3 629.9,327.3 628.8,327.4 
		627.8,327.6 626.8,328 625.8,328.5 624.9,329.1 624.5,329.5 624.5,327.8 618.2,327.8 618.2,350.9 624.5,350.9 624.5,337 
		624.6,336.2 624.9,335.6 624.9,335.5 625.4,334.8 625.9,334.2 626.5,333.8 626.8,333.6 627.6,333.3 628.5,333.1 629.3,333 
		630.2,333.1 630.4,333.2 631,333.4 631.3,333.6 631.8,334 632.3,334.6 632.6,335.2 632.8,335.5 632.9,336.3 633,337.1 633,350.9 
		639.3,350.9 633,350.9 	"/>
	<polygon class="st2" points="654.1,318.6 647.8,320.5 647.8,327.7 644.1,327.7 644.1,332.9 647.8,332.9 647.8,346.6 647.8,347.4 
		648,348.1 648.4,348.9 648.8,349.6 649.4,350.2 650,350.7 650.7,351.1 651.5,351.3 652.1,351.4 653.6,351.6 655.1,351.6 
		656.7,351.5 658.2,351.2 659.7,350.9 660.8,350.6 659.4,345.3 658.3,345.7 657.1,345.9 655.9,346 655.4,345.9 655,345.7 
		654.6,345.4 654.3,345 654.1,344.6 654.1,344.1 654.1,332.9 659.9,332.9 659.9,327.7 654.1,327.7 	"/>
	<path class="st2" d="M457.4,385.4L457.4,385.4l0-1.4l-0.2-1.4l-0.3-1.4l-0.2-0.7l-0.1-0.3l-0.5-1.1l-0.6-1.1l-0.7-1l-0.8-0.9
		l-0.9-0.8l-0.9-0.6l-1.1-0.6l-1.2-0.5l-1.2-0.3l-1.2-0.2l-1.2-0.1h-0.1l-1.2,0.1l-1.2,0.2l-1.2,0.3l-1.2,0.5l-1.1,0.6l-0.1,0
		l-1,0.7l-0.9,0.8l-0.8,0.9l-0.7,1l-0.6,1.1l-0.4,1l-0.1,0.3l-0.4,1.4l-0.2,1.4l-0.1,1.4l0,0.7l0,1.4l0.2,1.4l0.3,1.4l0.2,0.7
		l0.1,0.3l0.5,1.1l0.6,1.1l0.7,1l0.8,0.9l0.9,0.8l0.9,0.6l1.1,0.6l1.2,0.5l1.2,0.3l1.2,0.2l1.2,0.1h0.1l1.2-0.1l1.2-0.2l1.2-0.3
		l1.2-0.5l1.1-0.6l0.1,0l1-0.7l0.9-0.8l0.8-0.9l0.7-1l0.6-1.1l0.4-1l0.1-0.3l0.4-1.4l0.2-1.4l0.1-1.4L457.4,385.4L457.4,385.4z
		 M447.2,378.6L447.2,378.6l0.7,0.3l0.7,0.4l0.5,0.4l0.6,0.7l0.5,0.8l0.1,0.2l0.4,0.8l0.2,0.7l0.2,1.4l0,1.2l-0.1,1.4l-0.2,1.2
		l-0.2,0.8l-0.3,0.7l-0.5,0.8l-0.6,0.7l-0.2,0.2l-0.6,0.5l-0.7,0.4l-0.6,0.2l-0.6,0.1l-0.7,0l-0.5-0.1l-0.7-0.3l-0.7-0.4l-0.5-0.4
		l-0.6-0.7l-0.5-0.8l-0.1-0.2l-0.4-0.8l-0.2-0.7l-0.2-1.4l0-1.2l0.1-1.4l0.2-1.2l0.2-0.8l0.3-0.7l0.5-0.8l0.6-0.7l0.2-0.2l0.6-0.5
		l0.7-0.4l0.6-0.2l0.6-0.1l0.7,0L447.2,378.6L447.2,378.6z"/>
	<polygon class="st2" points="484.1,396.9 484.1,383.2 484.1,381.9 483.9,380.7 483.5,379.5 483.1,378.3 482.9,378 482.3,377.1 
		481.6,376.2 480.8,375.5 479.9,374.8 478.9,374.2 477.9,373.8 477.2,373.6 476.2,373.4 475.8,373.3 474.8,373.3 473.7,373.4 
		472.6,373.7 471.6,374.1 470.7,374.6 469.8,375.2 469.4,375.5 469.4,373.9 463.1,373.9 463.1,396.9 469.4,396.9 469.4,383.1 
		469.5,382.3 469.7,381.6 469.8,381.5 470.2,380.9 470.7,380.3 471.4,379.8 471.6,379.7 472.5,379.3 473.3,379.2 474.2,379.1 
		475,379.2 475.3,379.3 475.8,379.4 476.1,379.6 476.7,380.1 477.1,380.6 477.5,381.2 477.6,381.6 477.8,382.4 477.8,383.2 
		477.8,396.9 484.1,396.9 477.8,396.9 	"/>
	<polygon class="st2" points="501.1,396.8 501.1,396.8 499.3,397.1 497.5,397.4 495.7,397.5 495.3,397.5 494.4,397.5 493.7,397.3 
		492.9,397 492.2,396.5 491.6,396 491.1,395.3 490.7,394.6 490.5,393.8 490.3,393 490.3,392.6 490.3,364.7 496.6,364.7 496.6,390.1 
		496.6,390.5 496.8,390.8 497.1,391.1 497.4,391.3 497.8,391.4 498,391.5 499.3,391.4 500.4,391.2 	"/>
	<polygon class="st2" points="508.9,373.9 513.9,387.8 518.9,373.9 525.2,373.9 515.5,401.2 515.1,401.9 514.7,402.6 514.1,403.2 
		513.5,403.7 512.7,404.1 512,404.3 511.2,404.4 510.8,404.4 508.9,404.4 506.9,404.2 504.9,404 504.2,403.8 505,398.3 506.8,398.6 
		508.2,398.7 508.7,398.7 509.2,398.5 509.7,398.3 510,397.9 510.3,397.5 510.5,397 510.5,396.5 510.4,396 510.4,395.9 502.5,373.9 
			"/>
	<polygon class="st2" points="387.4,453.8 387.4,430.5 397.1,444.6 406.9,430.5 406.9,453.8 413.5,453.8 413.5,421.6 405,421.6 
		397.1,433 389.2,421.6 380.8,421.6 380.8,453.8 	"/>
	<path class="st2" d="M442.2,442.3L442.2,442.3l0-1.4l-0.2-1.4l-0.3-1.4l-0.2-0.7l-0.1-0.3L441,436l-0.6-1.1l-0.7-1l-0.8-0.9
		l-0.9-0.8l-0.9-0.6L436,431l-1.2-0.5l-1.2-0.3l-1.2-0.2l-1.2-0.1h-0.1l-1.2,0.1l-1.2,0.2l-1.2,0.3l-1.2,0.5l-1.1,0.6l-0.1,0l-1,0.7
		l-0.9,0.8l-0.8,0.9l-0.7,1l-0.6,1.1l-0.4,1l-0.1,0.3l-0.4,1.4l-0.2,1.4l-0.1,1.4l0,0.7l0,1.4l0.2,1.4l0.3,1.4l0.2,0.7l0.1,0.3
		l0.5,1.1l0.6,1.1l0.7,1l0.8,0.9l0.9,0.8l0.9,0.6l1.1,0.6l1.2,0.5l1.2,0.3l1.2,0.2l1.2,0.1h0.1l1.2-0.1l1.2-0.2l1.2-0.3l1.2-0.5
		l1.1-0.6l0.1,0l1-0.7l0.9-0.8l0.8-0.9l0.7-1l0.6-1.1l0.4-1l0.1-0.3l0.4-1.4l0.2-1.4l0.1-1.4L442.2,442.3L442.2,442.3z M432,435.5
		L432,435.5l0.7,0.3l0.7,0.4l0.5,0.4l0.6,0.7l0.5,0.8l0.1,0.2l0.4,0.8l0.2,0.7l0.2,1.4l0,1.2l-0.1,1.4l-0.2,1.2l-0.2,0.8l-0.3,0.7
		l-0.5,0.8l-0.6,0.7l-0.2,0.2l-0.6,0.5l-0.7,0.4l-0.6,0.2l-0.6,0.1l-0.7,0l-0.5-0.1l-0.7-0.3l-0.7-0.4l-0.5-0.4l-0.6-0.7l-0.5-0.8
		l-0.1-0.2l-0.4-0.8l-0.2-0.7l-0.2-1.4l0-1.2l0.1-1.4l0.2-1.2l0.2-0.8l0.3-0.7l0.5-0.8l0.6-0.7l0.2-0.2l0.6-0.5l0.7-0.4l0.6-0.2
		l0.6-0.1l0.7,0L432,435.5L432,435.5z"/>
	<polygon class="st2" points="468.9,453.8 468.9,440 468.8,438.8 468.7,437.6 468.3,436.4 467.9,435.2 467.7,434.9 467.1,434 
		466.4,433.1 465.6,432.4 464.7,431.7 463.7,431.1 462.7,430.7 462,430.4 461,430.3 460.6,430.2 459.6,430.2 458.5,430.3 
		457.4,430.6 456.4,430.9 455.5,431.4 454.6,432.1 454.2,432.4 454.2,430.8 447.9,430.8 447.9,453.8 454.2,453.8 454.2,440 
		454.3,439.1 454.5,438.5 454.6,438.4 455,437.7 455.5,437.2 456.2,436.7 456.5,436.6 457.3,436.2 458.1,436 459,436 459.8,436.1 
		460.1,436.1 460.6,436.3 460.9,436.5 461.5,437 461.9,437.5 462.3,438.1 462.4,438.5 462.6,439.3 462.6,440.1 462.6,453.8 
		468.9,453.8 462.6,453.8 	"/>
	<polygon class="st2" points="483.4,442.3 483.4,437.4 493.4,437.4 493.4,442.3 	"/>
	<polygon class="st2" points="528.1,435.1 528.1,435.1 529.2,435.4 530.2,435.8 531.3,436.4 532.3,437.1 533.2,437.9 534.1,438.8 
		534.7,439.6 535.2,440.7 535.6,441.7 535.8,442.9 535.9,444 535.9,445.1 535.7,446.2 535.4,447.3 535,448.4 534.5,449.4 
		533.8,450.3 533.1,451.2 532.2,451.9 531.3,452.6 530.3,453.1 529.2,453.6 529.2,453.6 527.6,454 526,454.3 524.5,454.5 
		522.9,454.6 521.3,454.6 519.7,454.5 518.1,454.2 516.5,453.9 515,453.4 514.6,453.2 513.3,452.6 512,451.9 510.8,451 509.7,450.1 
		508.6,449 507.9,448.2 513.5,444 514.5,444.9 515.6,445.8 516.8,446.6 517.4,446.9 518.5,447.5 519.7,447.9 520.9,448.1 
		522.1,448.3 523.4,448.3 523.5,448.3 524.3,448.3 525.2,448.1 526,447.9 526.8,447.4 527.5,446.9 527.6,446.8 528,446.2 
		528.3,445.6 528.5,445 528.5,444.3 528.3,443.6 528.1,443 527.7,442.4 527.2,442 526.6,441.6 526,441.4 518.4,439.7 517.3,439.4 
		516.3,439 515.3,438.5 514.4,437.9 513.6,437.2 512.9,436.4 512.3,435.4 511.8,434.5 511.5,433.4 511.2,432.4 511.1,431.3 
		511.1,430.2 511.3,429.1 511.6,428 512,427 512.5,426.1 513.1,425.3 513.9,424.4 514.8,423.5 515.8,422.8 516.8,422.2 518,421.7 
		518.5,421.5 520,421.1 521.4,420.9 522.9,420.8 524.4,420.8 525.9,420.9 527.4,421.1 528.8,421.5 530.2,421.9 531.6,422.5 
		532.9,423.2 534.2,424 535.4,424.8 536.5,425.8 536.6,426 531.6,430.5 530.6,429.7 529.5,429 528.4,428.4 527.2,427.9 526,427.5 
		524.7,427.3 523.4,427.2 523.1,427.2 522.3,427.3 521.4,427.4 520.6,427.8 519.9,428.2 519.3,428.8 519.1,429 518.8,429.5 
		518.6,430.1 518.6,430.7 518.7,431.3 518.9,431.8 519.2,432.3 519.7,432.7 520.2,433 520.5,433.2 	"/>
	<path class="st2" d="M544.6,453L544.6,453l1.1,0.5l1.2,0.4l1.2,0.3l1.2,0.2l1.2,0l1.2-0.1l1.2-0.2l0.7-0.2l0.7-0.3l0.7-0.4l0.6-0.6
		l0.4-0.5l0.4,0.5l0.5,0.5l0.6,0.4l0.3,0.1l1.2,0.4l1.2,0.3l1.2,0.2l0.3,0l2.2-4.9l-0.5,0l-0.5-0.1l-0.5-0.2L562,449l-0.3-0.4
		l-0.2-0.5l-0.1-0.5l0-0.2v-10.9l-0.1-0.9l-0.2-0.9l-0.3-0.8l-0.5-0.8l-0.6-0.7l-0.7-0.6l-0.7-0.5l-1.1-0.5l-1.2-0.4l-1.3-0.4
		l-1.3-0.2l-1.3-0.1l-1.3,0l-1.3,0.2l-0.9,0.2l-1.6,0.5l-1.6,0.6l-1.5,0.7l-1.5,0.8l-0.7,0.4l3.1,4.7l1.2-0.7l1.2-0.6l1.3-0.5
		l1.3-0.4l1.4-0.2l0.4,0l0.8,0l0.7,0.1l0.7,0.2l0.2,0.1l0.4,0.2l0.3,0.4l0.2,0.4l0.1,0.5l0,0.2v1.5l-1.7,0.1l-1.7,0.2l-1.7,0.3
		l-1.7,0.4l-1.7,0.5l-1.3,0.5l-0.9,0.5l-0.8,0.6l-0.7,0.7l-0.6,0.8l-0.4,0.9l-0.3,0.9l-0.2,1l0,1l0.1,1l0.2,1l0.4,0.9l0.5,0.9
		l0.6,0.8l0.7,0.7L544.6,453L544.6,453z M553.2,449.1L553.2,449.1l0.5-0.2l0.5-0.3l0.4-0.4l0.3-0.5l0.1-0.5l0-0.3v-3.3l-1.9,0.3
		l-1.9,0.4l-1.8,0.5l-0.2,0.1l-0.4,0.2l-0.4,0.3l-0.3,0.4l-0.2,0.5l-0.1,0.5l0.1,0.5l0.1,0.3l0.3,0.5l0.4,0.4l0.4,0.3l0.5,0.2
		l0.2,0.1l1.1,0.1l1.1,0l1.1-0.1L553.2,449.1L553.2,449.1z"/>
	<polygon class="st2" points="576.5,421.6 570.2,423.4 570.2,430.6 566.5,430.6 566.5,435.8 570.2,435.8 570.2,449.5 570.3,450.3 
		570.5,451.1 570.8,451.8 571.2,452.5 571.8,453.1 572.4,453.6 573.2,454 573.9,454.3 574.5,454.4 576.1,454.5 577.6,454.5 
		579.1,454.4 580.7,454.2 582.2,453.8 583.3,453.5 581.9,448.3 580.7,448.6 579.6,448.8 578.4,448.9 577.9,448.8 577.4,448.6 
		577,448.4 576.8,448 576.6,447.5 576.5,447.1 576.5,435.8 582.4,435.8 582.4,430.6 576.5,430.6 	"/>
	<path class="st2" d="M374,506.3L374,506.3l1.4,0l1.4-0.2l1.4-0.3l1.3-0.4l0.6-0.2l1-0.4l1-0.6l0.9-0.7l0.8-0.8l0.2-0.3l0.7-1
		l0.5-1.1l0.4-1.1l0.3-1.2l0.2-1.2l0-1.2l-0.1-1.2l-0.2-0.9l-0.3-0.9l-0.4-0.9l-0.5-0.8l-0.6-0.7l-0.7-0.6l-0.8-0.5l-0.9-0.4l-0.1,0
		l0.9-0.4l0.8-0.6l0.7-0.7l0.6-0.7l0.5-0.8l0.4-0.9l0.2-0.9l0.1-0.9l0-0.4l-0.1-1.1l-0.2-1.1l-0.3-1.1l-0.5-1l-0.6-0.9l-0.7-0.9
		l-0.8-0.8l-0.6-0.5l-1.1-0.7l-1.2-0.6l-1.3-0.5l-1.3-0.3l-1.3-0.2l-1.3-0.1H374l-1.3,0.1l-1.3,0.2l-1.3,0.3l-1.3,0.4l-1.2,0.6
		l-1.2,0.7l-0.2,0.1l-0.9,0.7l-0.8,0.8l-0.7,0.9l-0.5,1l-0.4,1l-0.3,1.1l-0.2,1.1l0,0.7l0,1l0.2,0.9l0.3,0.9l0.4,0.9l0.5,0.8
		l0.6,0.7l0.7,0.6l0.8,0.5l0.4,0.2l-0.9,0.4l-0.8,0.5l-0.7,0.6l-0.6,0.7l-0.5,0.8l-0.4,0.9l-0.3,0.9l0,0.1l-0.2,1.2l-0.1,1.2
		l0.1,1.2l0.2,1.2l0.3,1.1l0.4,1.1l0.6,1.1l0.5,0.7l0.8,0.8l0.9,0.7l0.9,0.6l1,0.5l0.3,0.1l1.3,0.5l1.3,0.3l1.4,0.2l1.4,0.1H374
		L374,506.3z M379.4,496.2L379.4,496.2l-0.1,0.8l-0.2,0.7l-0.3,0.7l-0.4,0.6l-0.4,0.4l-0.2,0.1l-0.7,0.4l-0.4,0.2l-1.1,0.3l-1.2,0.1
		l-0.3,0l-1.2-0.1l-1.2-0.2l-0.3-0.1l-0.8-0.3l-0.4-0.2l-0.4-0.3l-0.1-0.1l-0.4-0.6l-0.3-0.7l-0.2-0.7l-0.1-0.7l0.1-0.8l0.2-0.7
		l0.3-0.7l0.4-0.6l0.4-0.4l0.2-0.1l0.7-0.4l0.4-0.2l1.1-0.3l1.2-0.1l0.3,0l1.2,0.1l1.2,0.2l0.3,0.1l0.8,0.3l0.4,0.2l0.4,0.3l0.1,0.1
		l0.4,0.6l0.3,0.7l0.2,0.7L379.4,496.2L379.4,496.2z M378.8,482.6L378.8,482.6l-0.1-0.7l-0.2-0.7l-0.3-0.6l-0.3-0.4l-0.5-0.4
		l-0.5-0.3l-0.2-0.1l-0.9-0.3l-1-0.2l-0.8-0.1l-1,0.1l-1,0.2l-0.8,0.3l-0.6,0.3l-0.5,0.4l-0.1,0.2l-0.4,0.6l-0.3,0.6l-0.2,0.7l0,0.5
		l0.1,0.7l0.2,0.7l0.3,0.6l0.3,0.4l0.5,0.4l0.5,0.3l0.2,0.1l0.9,0.3l1,0.2l0.8,0.1l1-0.1l1-0.2l0.8-0.3l0.6-0.3l0.5-0.4l0.1-0.2
		l0.4-0.6l0.3-0.7l0.2-0.7L378.8,482.6L378.8,482.6z"/>
	<path class="st2" d="M402.9,504.8L402.9,504.8l1.1,0.5l1.2,0.4l1.2,0.3l1.2,0.2l1.2,0l1.2-0.1l1.2-0.2l0.7-0.2l0.7-0.3l0.7-0.4
		l0.6-0.6l0.4-0.5l0.4,0.5l0.5,0.5l0.6,0.4l0.3,0.1l1.2,0.4l1.2,0.3l1.2,0.2l0.3,0l2.2-4.9l-0.5,0l-0.5-0.1l-0.5-0.2l-0.4-0.3
		l-0.3-0.4l-0.2-0.5l-0.1-0.5l0-0.2v-10.9l-0.1-0.9l-0.2-0.9l-0.3-0.8l-0.5-0.8l-0.6-0.7l-0.7-0.6l-0.7-0.5l-1.1-0.5l-1.2-0.4
		l-1.3-0.4l-1.3-0.2l-1.3-0.1l-1.3,0l-1.3,0.2l-0.9,0.2l-1.6,0.5l-1.6,0.6l-1.5,0.7l-1.5,0.8l-0.7,0.4l3.1,4.7l1.2-0.7l1.2-0.6
		l1.3-0.5l1.3-0.4l1.4-0.2l0.4,0l0.8,0l0.7,0.1l0.7,0.2l0.2,0.1l0.4,0.2l0.3,0.4l0.2,0.4l0.1,0.5l0,0.2v1.5l-1.7,0.1l-1.7,0.2
		l-1.7,0.3l-1.7,0.4l-1.7,0.5l-1.3,0.5l-0.9,0.5l-0.8,0.6l-0.7,0.7l-0.6,0.8l-0.4,0.9l-0.3,0.9l-0.2,1l0,1l0.1,1l0.2,1l0.4,0.9
		l0.5,0.9l0.6,0.8l0.7,0.7L402.9,504.8L402.9,504.8z M411.5,500.9L411.5,500.9l0.5-0.2l0.5-0.3l0.4-0.4l0.3-0.5l0.1-0.5l0-0.3v-3.3
		l-1.9,0.3l-1.9,0.4l-1.8,0.5l-0.2,0.1l-0.4,0.2l-0.4,0.3l-0.3,0.4l-0.2,0.5l-0.1,0.5l0.1,0.5l0.1,0.3l0.3,0.5l0.4,0.4l0.4,0.3
		l0.5,0.2l0.2,0.1l1.1,0.1l1.1,0l1.1-0.1L411.5,500.9L411.5,500.9z"/>
	<polygon class="st2" points="453.4,505.6 453.4,491.9 453.3,491.1 453.2,490.3 452.9,489.6 452.5,489 452,488.5 451.7,488.3 
		451.2,488.1 450.8,487.9 450.7,487.9 450.1,487.9 449.7,487.9 448.9,488.2 448.4,488.4 447.8,488.8 447.2,489.3 446.7,489.9 
		446.5,490.2 446.3,490.8 446.3,491 446.2,491.8 446.2,505.6 439.9,505.6 439.9,491.9 439.8,491.1 439.6,490.3 439.4,489.6 439,489 
		438.5,488.5 438.2,488.3 437.7,488.1 437.3,487.9 437.2,487.9 436.6,487.9 436.2,487.9 435.4,488.2 434.9,488.4 434.3,488.8 
		433.7,489.3 433.2,489.9 433,490.2 432.8,490.8 432.7,491 432.6,491.8 432.6,505.6 426.4,505.6 426.4,482.6 432.6,482.6 
		432.6,484.2 433.5,483.5 434.4,483 435.4,482.5 436.4,482.2 437.5,482.1 438.6,482 439.1,482 440.1,482.2 440.4,482.3 441.2,482.5 
		442,482.9 442.7,483.4 443.3,483.9 443.8,484.6 444.2,485.2 444.8,484.4 445.6,483.7 446.5,483.1 447.5,482.6 448.5,482.3 
		449.6,482.1 450.6,482 451.4,482 452.4,482.2 452.7,482.3 453.8,482.6 454.8,483.1 455.8,483.7 456.6,484.4 457.4,485.2 
		458.1,486.1 458.5,486.7 459,487.9 459.4,489.1 459.6,490.3 459.7,491.5 459.7,491.9 459.7,505.6 	"/>
	<polygon class="st2" points="474.3,494.1 474.3,489.2 484.3,489.2 484.3,494.1 	"/>
	<path class="st2" d="M507.5,491.4L507.5,491.4l-0.4,0.8l-0.3,0.9l-0.2,0.9l0,0.7l0.1,0.9l0.2,0.9l0.3,0.9l0.3,0.6l0.6,0.7l0.7,0.6
		l0.7,0.4l0.8,0.3l0.8,0.2l0.9,0.1h0.1l0.8-0.1l0.8-0.2l0.7-0.3l0.7-0.5l0.6-0.6l0.4-0.6l0.4-0.8l0.3-0.9l0.2-0.9l0-0.7l-0.1-0.9
		l-0.2-0.9l-0.3-0.9l-0.3-0.6l-0.5-0.7l-0.6-0.6l-0.7-0.4l-0.8-0.3l-0.8-0.2l-0.8,0l-0.9,0l-0.8,0.2l-0.8,0.3l-0.7,0.4l-0.7,0.5
		L507.5,491.4L507.5,491.4L507.5,491.4z M500.9,498.2L500.9,498.2l0.4,1.1l0.5,1.1l0.6,1l0.2,0.2l0.2,0.2l0.8,0.9l0.9,0.8l1,0.7
		l1.1,0.6l0.6,0.3l1.4,0.4l1.4,0.3l1.4,0.2l1.4,0l1.4-0.1l1.4-0.2l1.4-0.3l0.5-0.1l1-0.5l1-0.6l0.9-0.7l0.8-0.8l0.7-0.9l0.6-1
		l0.5-1.1l0.1-0.2l0.4-1.4l0.2-1.5l0.1-1.5l0-1l0-1.3l-0.1-1.2l-0.3-1.2l-0.4-1.2l-0.5-1.1l0-0.1l-0.7-1l-0.8-0.9l-0.9-0.8l-1-0.7
		l-1-0.5l-1.1-0.4l-1.1-0.3l-1.2-0.2l-0.3,0l-1.3,0l-1.3,0.1l-1.2,0.2l-1.2,0.4l-1.2,0.5l-1.1,0.6l-0.9,0.6l0-1.1l0.2-1l0.3-1
		l0.5-0.9l0.6-0.9l0.7-0.8l0.6-0.6l0.8-0.4l0.9-0.3l0.9-0.1l0.9,0l0.9,0.1l0.9,0.3l0.1,0l0.7,0.3l0.6,0.4l0.5,0.5l0.4,0.6l0.2,0.7
		l0.1,0.2l6.1-2.3l-0.3-1l-0.4-1l-0.5-0.9l-0.7-0.8l-0.8-0.7l-0.8-0.6l-0.9-0.5l-1-0.4l-1.2-0.4l-0.3-0.1l-1.5-0.2l-1.5-0.1h-1.6
		l-1.5,0.1l-0.9,0.1l-1.2,0.3l-0.9,0.3l-1.1,0.5l-1,0.6l-0.9,0.7l-0.8,0.8l-0.8,0.9l-0.6,1l-0.4,0.7l-0.5,1.2l-0.4,1.1l-0.4,1.7
		l-0.3,1.7l-0.2,1.8l-0.1,1.8l0,1.8l0.1,1.8l0.2,1.8l0.3,1.7l0.4,1.7l0.1,0.3L500.9,498.2L500.9,498.2z"/>
	<path class="st2" d="M552.4,488.4L552.4,488.4l-0.7-0.5l-0.8-0.4l-0.8-0.2l-0.9-0.1l-0.9,0.1l-0.8,0.2l-0.8,0.3l-0.7,0.5l-0.5,0.4
		l-0.5,0.6l-0.4,0.6l-0.3,0.7l-0.2,0.7l0,0.1v5l0.1,0.7l0.2,0.6l0.3,0.6l0.3,0.3l0.6,0.6l0.7,0.5l0.7,0.4l0.8,0.3l0.8,0.2l0.9,0
		l0.8-0.1l0.6-0.2l0.7-0.3l0.7-0.4l0.6-0.5l0.5-0.6l0.4-0.7l0-0.1l0.4-1.1l0.2-1.2l0.1-1.2l0-1.2l-0.2-1.2l-0.3-1.2l-0.2-0.5
		l-0.3-0.8l0-0.1l-0.4-0.6L552.4,488.4L552.4,488.4L552.4,488.4z M546.7,505.7L546.7,505.7l1.2,0.3l1.2,0.2l1.2,0.1l1.2-0.1l1.2-0.2
		l1.2-0.3l1.1-0.4l0.1-0.1l1-0.6l0.9-0.7l0.8-0.8l0.7-0.9l0.6-1l0.4-0.9l0.5-1.4l0.4-1.4l0.2-1.4l0.1-1.4v-1.4l-0.1-1.4l-0.2-1.4
		L560,489l-0.5-1.4l-0.2-0.4l-0.4-0.9l-0.5-0.8l-0.6-0.7l-0.1-0.1l-0.8-0.8l-0.9-0.7l-1-0.6l-1.1-0.5l-1.1-0.3l-1.1-0.2l-1.1-0.1
		l-1.1,0l-1.1,0.2l-1.1,0.3l-1.1,0.4l-1,0.5l-0.9,0.6v-1.1h-6.3v29.9h6.3V504l0.6,0.6l0.7,0.5l0.8,0.4L546.7,505.7L546.7,505.7z"/>
	<polygon class="st2" points="592.8,505.6 592.8,491.9 592.8,491.1 592.6,490.3 592.3,489.6 591.9,489 591.4,488.5 591.1,488.3 
		590.6,488.1 590.3,487.9 590.1,487.9 589.6,487.9 589.2,487.9 588.3,488.2 587.9,488.4 587.2,488.8 586.6,489.3 586.2,489.9 
		586,490.2 585.7,490.8 585.7,491 585.6,491.8 585.6,505.6 579.3,505.6 579.3,491.9 579.3,491.1 579.1,490.3 578.8,489.6 578.4,489 
		577.9,488.5 577.6,488.3 577.1,488.1 576.8,487.9 576.6,487.9 576.1,487.9 575.7,487.9 574.8,488.2 574.4,488.4 573.7,488.8 
		573.1,489.3 572.6,489.9 572.5,490.2 572.2,490.8 572.2,491 572.1,491.8 572.1,505.6 565.8,505.6 565.8,482.6 572.1,482.6 
		572.1,484.2 572.9,483.5 573.9,483 574.8,482.5 575.9,482.2 576.9,482.1 578,482 578.5,482 579.5,482.2 579.9,482.3 580.6,482.5 
		581.4,482.9 582.1,483.4 582.7,483.9 583.3,484.6 583.6,485.2 584.3,484.4 585.1,483.7 585.9,483.1 586.9,482.6 587.9,482.3 
		589,482.1 590.1,482 590.8,482 591.8,482.2 592.2,482.3 593.2,482.6 594.3,483.1 595.2,483.7 596.1,484.4 596.8,485.2 597.5,486.1 
		597.9,486.7 598.4,487.9 598.8,489.1 599,490.3 599.1,491.5 599.1,491.9 599.1,505.6 	"/>
	<path class="st2" d="M275,123.1L275,123.1l0.1-1.5l0.2-1.5l0.3-1.4l0.4-1.4l0.5-1.4l0.7-1.3l0.8-1.2l0.9-1.2l1-1.1l1.1-1l1.1-0.9
		l1.2-0.8l1.3-0.7l1.3-0.6l1.4-0.5l1.4-0.4l1.4-0.2l1.5-0.1l0.7,0h375.4l1.5,0.1l1.5,0.2l1.4,0.3l1.4,0.4l1.4,0.5l1.3,0.7l1.3,0.8
		l1.2,0.9l1.1,1l1,1.1l0.9,1.1l0.8,1.2l0.7,1.3l0.6,1.3l0.5,1.4l0.4,1.4l0.2,1.4l0.1,1.5l0,0.7v393.8l-0.1,1.5l-0.2,1.5l-0.3,1.4
		l-0.4,1.4l-0.5,1.4l-0.7,1.3l-0.8,1.2l-0.9,1.2l-1,1.1l-1.1,1l-1.1,0.9l-1.2,0.8l-1.3,0.7l-1.3,0.6l-1.4,0.5l-1.4,0.4l-1.4,0.2
		l-1.5,0.1l-0.7,0H292.3l-1.5-0.1l-1.5-0.2l-1.4-0.3l-1.4-0.4l-1.4-0.5l-1.3-0.7l-1.2-0.8l-1.2-0.9l-1.1-1l-1-1.1l-0.9-1.1l-0.8-1.2
		l-0.7-1.3l-0.6-1.3l-0.5-1.4l-0.4-1.4l-0.2-1.4l-0.1-1.5l0-0.7V123.1L275,123.1z M283.7,123.1L283.7,123.1l0.1-1.1l0.2-1.1l0.3-1
		l0.5-1l0.6-0.9l0.7-0.8l0.8-0.7l0.9-0.6l0.9-0.5l1-0.4l1.1-0.3l1.1-0.1l0.5,0h375.4l1.1,0.1l1.1,0.2l1,0.3l1,0.5l0.9,0.6l0.8,0.7
		l0.7,0.8l0.6,0.9l0.5,0.9l0.4,1l0.3,1.1l0.1,1.1l0,0.5v393.8l-0.1,1.1L676,519l-0.3,1l-0.5,1l-0.6,0.9l-0.7,0.8l-0.8,0.7l-0.9,0.6
		l-0.9,0.5l-1,0.4l-1.1,0.3l-1.1,0.1l-0.5,0H292.3l-1.1-0.1l-1.1-0.2l-1-0.3l-1-0.5l-0.9-0.6l-0.8-0.7l-0.7-0.8l-0.6-0.9l-0.5-0.9
		l-0.4-1l-0.3-1.1l-0.1-1.1l0-0.5L283.7,123.1L283.7,123.1z"/>
</g>
</svg>
