<?xml version="1.0" encoding="UTF-8" standalone="no"?>
<svg xmlns="http://www.w3.org/2000/svg" width="372" height="172">
	<defs id="defs6">
		
		<clipPath id="clipPath20-1">
			<path d="M 0,137.4 H 201.35 V 0.02 L 0,0.015 v 137.38 z" id="path22-7" />
		</clipPath>
	</defs><g id="g3940">
		<g transform="matrix(1.25,0,0,-1.25,251.05469,154.88281)" id="g12">
			<path d="m 96,0 c 0,-7.168 -5.811,-12.978 -12.979,-12.978 l -270.39,0 c -7.167,0 -12.978,5.81 -12.978,12.978 l 0,110.44 c 0,7.168 5.811,12.979 12.978,12.979 l 270.39,0 c 7.169,0 12.98,-5.81 12.98,-12.98 l 0,-110.44" id="path14" style="fill:#ffffff" />
		</g><g transform="matrix(1.25,0,0,-1.25,242.62969,154.88281)" id="g28">
			<path d="m 96,0 c 0,-3.445 -2.793,-6.239 -6.238,-6.239 l -270.39,0 c -3.445,0 -6.238,2.794 -6.238,6.239 l 0,110.44 c 0,3.446 2.793,6.239 6.238,6.239 l 270.39,0 c 3.447,0 6.24,-2.79 6.24,-6.24 l 0,-110.44" id="path30" style="fill:#0079c1" />
		</g><g transform="matrix(1.25,0,0,-1.25,189.47969,75.01531)" id="g32">
			<path d="m 0,0 c -3.759,0 -7.342,-0.747 -10.604,-2.116 l -10.908,19.008 2.071,5.699 c 5.442,0.529 7.404,5.53 7.404,6.378 0,0.848 -1.01,0.848 -1.01,0.848 h -23.589 c -0.524,0 -2.262,-0.444 -2.262,-2.302 0,-1.859 1.98,-2.182 1.98,-2.182 l 10.341,-2.277 -2.505,-6.892 h -50.12 c 0.62,2.315 1.003,3.743 1.003,3.743 0,0 0.43,1.401 0.43,1.993 0,2.807 -2.083,4.906 -2.962,5.379 -0.174,0.094 -0.76,0.357 -0.76,1.144 0,0.788 0.457,1.448 1.461,1.448 h 10.448 v 6.947 h -13.141 c 0,0 -6.894,-0.646 -6.894,-7.701 0,-4.125 2.046,-5.063 3.662,-6.032 0.539,-0.323 1.024,-1.67 0.808,-2.424 -0.126,-0.44 -3.335,-12.478 -5.984,-22.424 -3.013,1.139 -6.277,1.763 -9.688,1.763 -15.143,0 -27.419,-12.276 -27.419,-27.419 0,-15.143 12.276,-27.419 27.419,-27.419 15.143,0 27.419,12.276 27.419,27.419 0,9.206 -4.537,17.352 -11.498,22.324 0.299,1.114 0.603,2.249 0.909,3.392 l 31.842,-22.248 c -0.347,-1.094 -0.535,-2.259 -0.535,-3.468 0,-6.341 5.141,-11.482 11.482,-11.482 1.133,0 2.229,0.165 3.264,0.472 l 1.701,-3.706 h -2.925 v -3.716 h 3.279 c 0.516,-0.813 1.422,-1.353 2.457,-1.353 1.033,0 1.941,0.54 2.456,1.353 h 3.198 v 3.716 h -4.79 l -2.391,5.083 c 2.467,1.603 4.279,4.129 4.95,7.089 l 2.62,-0.041 C -26.06,-43.915 -14.258,-54.838 0,-54.838 c 15.142,0 27.419,12.276 27.419,27.419 C 27.419,-12.276 15.142,0 0,0" id="path34" style="fill:#ffffff" />
		</g><g transform="matrix(1.25,0,0,-1.25,137.97969,100.29156)" id="g36">
			<path d="m 0,0 c 3.974,0 7.198,-3.223 7.198,-7.198 0,-3.975 -3.224,-7.197 -7.198,-7.197 -3.975,0 -7.198,3.222 -7.198,7.197 C -7.198,-3.223 -3.975,0 0,0" id="path38" style="fill:#0079c1" />
		</g><g transform="matrix(1.25,0,0,-1.25,138.54219,94.94906)" id="g40">
			<path d="m 0,0 c -0.15,0.006 -0.299,0.009 -0.449,0.009 -1.198,0 -2.352,-0.183 -3.438,-0.523 l -1.704,3.623 h 3.122 v 3.716 h -3.198 c -0.516,0.814 -1.422,1.354 -2.457,1.354 -1.034,0 -1.941,-0.54 -2.457,-1.354 h -3.278 V 3.109 h 4.921 l 2.265,-4.932 c -0.27,-0.174 -0.531,-0.36 -0.785,-0.556 l -33.889,23.678 c 0.364,1.361 0.719,2.685 1.056,3.945 H 9.174 L 0,0" id="path42" style="fill:#0079c1" />
		</g><g transform="matrix(1.25,0,0,-1.25,168.76719,81.98656)" id="g44">
			<path d="m 0,0 -8.011,14.009 -9.699,-26.686 c 2.146,-1.622 3.705,-3.982 4.299,-6.701 h 2.677 C -10.03,-11.477 -5.975,-4.541 0,0" id="path46" style="fill:#0079c1" />
		</g><g transform="matrix(1.25,0,0,-1.25,173.79219,90.92906)" id="g48">
			<path d="M 0,0 C -3.564,-3.063 -6.072,-7.339 -6.674,-12.244 H 7.056 L 0,0" id="path50" style="fill:#0079c1" />
		</g><g transform="matrix(1.25,0,0,-1.25,181.32969,86.61656)" id="g52">
			<path d="m 0,0 9.592,-16.644 c 0,0 0.466,-0.767 0.466,-1.595 0,-2.444 -2.505,-2.444 -3.697,-2.444 l -19.006,-0.038 c 1.279,-9.456 9.362,-16.782 19.168,-16.782 10.694,0 19.365,8.67 19.365,19.364 0,10.696 -8.671,19.365 -19.365,19.365 C 4.205,1.226 2.061,0.747 0,0" id="path54" style="fill:#0079c1" />
		</g><g transform="matrix(1.25,0,0,-1.25,80.488438,92.09156)" id="g56">
			<path d="m 0,0 c -0.935,-3.487 -1.581,-5.899 -1.67,-6.231 -2.118,-7.863 -10.199,-10.287 -11.849,-10.287 -1.777,0 -2.854,1.185 -2.854,2.854 0,1.67 1.346,2.155 1.831,2.532 6.14,4.793 7.109,9.909 7.109,9.909 0,0 0.559,2.101 1.406,5.281 -2.333,0.997 -4.902,1.549 -7.599,1.549 -10.695,0 -19.365,-8.67 -19.365,-19.365 0,-10.695 8.67,-19.365 19.365,-19.365 10.694,0 19.364,8.67 19.364,19.365 C 5.738,-8.377 3.543,-3.509 0,0" id="path58" style="fill:#0079c1" />
		</g><g id="g3917">
			<g transform="matrix(1.25,0,0,-1.25,0,172)"  id="g18">
				<g transform="translate(200.85,13.478)" id="g24">
					<path d="m 96,0 c 0,-7.168 -5.811,-12.978 -12.979,-12.978 l -270.39,0 c -7.167,0 -12.978,5.81 -12.978,12.978 l 0,110.44 c 0,7.168 5.811,12.979 12.978,12.979 l 270.39,0 c 7.169,0 14.008022,-5.88408 12.98,-12.98 l 0,-110.44 z" id="path26" style="fill:none;stroke:#0079c1" />
				</g>
			</g>
			
		</g><g transform="matrix(0.92403621,0,0,0.92403621,120.96262,6.5222035)" id="g3933">
			<rect width="92.353912" height="117.40416" rx="5.4110432" ry="5.4110432" x="139.72488" y="27.157295" id="rect3062" style="fill:#ec1d24;fill-opacity:1;fill-rule:evenodd;stroke:#ffffff;stroke-width:3;stroke-miterlimit:4;stroke-opacity:1;stroke-dasharray:none" />
				<text x="185" y="130" style="font-size:125px;font-weight:bold;text-align:center;text-anchor:middle;fill:#ffffff;font-family:Liberation Sans,Arial,sans-serif">6</text>
		</g>
	</g>
</svg>