<?xml version="1.0" encoding="utf-8"?>
<!-- Generator: Adobe Illustrator 26.0.2, SVG Export Plug-In . SVG Version: 6.00 Build 0)  -->
<svg version="1.1" id="Layer_1" xmlns="http://www.w3.org/2000/svg" xmlns:xlink="http://www.w3.org/1999/xlink" x="0px" y="0px"
	 viewBox="0 0 960 640" style="enable-background:new 0 0 960 640;" xml:space="preserve">
<style type="text/css">
	.st0{fill-rule:evenodd;clip-rule:evenodd;}
	.st1{fill-rule:evenodd;clip-rule:evenodd;fill:#FFFFFF;}
	.st2{fill-rule:evenodd;clip-rule:evenodd;fill:#006FB6;}
</style>
<g>
	<path class="st0" d="M480,121.8H288.7c-10.8,0-19.6,8.8-19.6,19.6v357c0,10.8,8.8,19.6,19.6,19.6h382.6c10.8,0,19.6-8.8,19.6-19.6
		v-357c0-10.8-8.8-19.6-19.6-19.6H480L480,121.8z"/>
	<path class="st1" d="M480,131.6H288.9c-5.5,0-9.9,4.4-9.9,9.9v357c0,5.5,4.4,9.9,9.9,9.9h382.1c5.5,0,9.9-4.4,9.9-9.9v-357
		c0-5.5-4.4-9.9-9.9-9.9L480,131.6L480,131.6z"/>
	<path class="st0" d="M594.8,221.9v18h-6.7v-16.2l0,0c0-2.4-2-4.4-4.2-4.4c-2,0-4.4,2-4.4,5.3l0,0v15.3h-6.9v-16.4l0,0
		c0-2.2-2-4.2-3.8-4.2c-2,0-4.9,1.6-4.9,5.1l0,0v15.5h-6.7v-26.4h6.7v1.6l0,0c0,0,2.4-2,6.9-2c4,0,6.4,2.7,6.4,2.7s2.9-2.9,7.3-2.9
		C591.3,212.8,594.8,217.5,594.8,221.9L594.8,221.9z"/>
	<path class="st0" d="M481,223.7v4.9l0,0c0,2.7,2,5.3,6,5.3c4,0,6.2-3.8,6.2-7.8c0-4.2-2.2-7.8-6.2-7.8
		C483,218.4,481,221.2,481,223.7L481,223.7z M481,214.6v-1.1h-6.7v33.7h6.7v-9.5l0,0c0,0,2.2,2.7,7.3,2.7c9.1,0,12-9.8,12-14
		c0-3.3-1.3-7.1-3.3-9.5c-2-2.2-4.9-4.2-9.1-4.4C485.4,212.4,483,213.3,481,214.6L481,214.6z"/>
	<path class="st0" d="M551.1,219.5v-6.7l0,0c-6.4,0-7.5,1.8-9.1,3.3l0,0v-2.7h-6.9v26.2h6.9v-13.1l0,0
		C542,222.8,546.5,219.5,551.1,219.5L551.1,219.5z"/>
	<path class="st0" d="M511.8,223.9h10.4l0,0c0-2.4-1.8-5.3-5.1-5.3S511.8,221.2,511.8,223.9L511.8,223.9z M511.8,229h17.3l0,0
		c0.2-3.1-1.1-16.4-12.2-16.4c-9.8,0-12,10.7-12,14s2,14,12.9,14c6,0,9.3-3.6,10-4.4l0,0l-4.2-4l0,0c0,0-1.8,2.4-5.8,2.4
		C513.8,234.6,511.8,231.7,511.8,229L511.8,229z"/>
	<polygon class="st0" points="602.8,213.5 609.5,213.5 609.5,239.9 602.8,239.9 	"/>
	<path class="st0" d="M606.5,202.4c2.1,0,3.8,1.7,3.8,3.8s-1.7,3.8-3.8,3.8s-3.8-1.7-3.8-3.8C602.8,204.1,604.4,202.4,606.5,202.4"
		/>
	<path class="st0" d="M634.1,239l-1.1-5.5l0,0c-4.9,1.3-6.2,0-6.2-1.1l0,0v-13.1h6.9v-5.8h-6.9v-10.4l-6.9,2v8.4h-4.2v5.8h4.2v15.5
		l0,0c0,3.3,2.2,5.8,7.3,5.8C630.8,240.6,633.2,239.4,634.1,239L634.1,239z"/>
	<path class="st0" d="M594.4,348.8l10.4-30.6h-7.3l-5.1,16.2l-5.3-16.2h-7.3l8.9,25.1l0,0c0.4,2-0.2,3.8-3.8,3.6l0,0l-2.4-0.4
		l-0.7,6l4,0.4l0,0C590.6,353.7,593.3,351.7,594.4,348.8L594.4,348.8z"/>
	<path class="st0" d="M515.6,323.3c-2.9,0-6,2.7-6,8.4c0,5.5,3.1,8.2,6,8.2l0,0c2.9,0,6-2.7,6-8.2
		C521.6,326,518.5,323.3,515.6,323.3L515.6,323.3z M515.6,317.3c-6.4,0-12.9,5.1-12.9,14.2s6.4,14.4,12.9,14.4l0,0
		c6.4,0,12.9-5.3,12.9-14.4S522.1,317.3,515.6,317.3L515.6,317.3z"/>
	<path class="st0" d="M558.2,327.3v17.3h-6.9V328l0,0c0-2-1.6-3.8-4.4-3.8c-2.9,0-5.5,2.4-5.5,6l0,0v14.4h-6.7v-26.4h6.7v2l0,0
		c0,0,2.9-2.4,6.7-2.4C554.2,317.8,558.2,322.7,558.2,327.3L558.2,327.3z"/>
	<path class="st0" d="M578,344.6l-0.9-6l0,0c-3.1,0.7-4.7,0-4.7-1.3l0,0V308h-6.9v32l0,0c0,2.7,1.8,5.5,7.1,5.5
		C575.3,345.5,578,344.6,578,344.6L578,344.6z"/>
	<path class="st0" d="M470.8,267.4v-11.8h-6.9v36.6h6.9v-15.5l0,0c0-2.4,2.2-4.7,4.7-4.7c2.4,0,5.1,1.6,5.1,4.7l0,0v15.5h6.7v-18
		l0,0c0-5.3-4.4-8.9-9.5-8.9C473.4,265.4,471.7,267,470.8,267.4L470.8,267.4z"/>
	<path class="st0" d="M537.6,292.3l-0.9-6.2l0,0c-3.1,0.9-4.7,0.2-4.7-1.3l0,0v-29.1h-6.9v32l0,0c0,2.7,1.8,5.5,6.9,5.5
		C534.9,293.1,537.6,292.3,537.6,292.3L537.6,292.3z"/>
	<path class="st0" d="M506.3,271c-2.9,0-6,2.7-6,8.2c0,5.8,3.1,8.4,6,8.4l0,0c2.9,0,6-2.7,6-8.4C512.3,273.6,509.2,271,506.3,271
		L506.3,271z M506.3,265c-6.4,0-12.9,5.1-12.9,14.2c0,9.1,6.4,14.4,12.9,14.4l0,0c6.4,0,12.9-5.3,12.9-14.4
		C519.2,270.1,512.7,265,506.3,265L506.3,265z"/>
	<path class="st0" d="M559.6,276.9c0,1.6,0,3.3,0,5.1c0,2.2-1.8,5.3-5.8,5.3c-4,0-6.2-3.3-6.2-8.2s2.7-7.5,6-7.5
		C557.1,271.6,559.6,273.8,559.6,276.9L559.6,276.9z M559.6,267.8c0-4,0-8.2,0-12.4c2.2,0,4.4,0,6.9,0c0,12.2,0,24.4,0,36.8
		c-2.2,0-4.4,0-6.9,0c0-0.2,0-0.7,0-1.1c0,0-2.7,2.2-6.9,2.2c-4,0-12.2-3.6-12.2-14.2c0-10.9,8.7-14,11.8-14
		C555.6,265.2,556.9,266.1,559.6,267.8L559.6,267.8z"/>
	<path class="st0" d="M578.2,276.3h10.4l0,0c0-2.4-1.8-5.1-5.1-5.1C580.2,271.2,578.2,273.6,578.2,276.3L578.2,276.3z M578.2,281.6
		h17.3l0,0c0.2-3.3-0.9-16.4-12.2-16.4c-9.8,0-12,10.4-12,13.8s2,14,12.9,14c6,0,9.3-3.6,10.2-4.4l0,0l-4.2-4l0,0c0,0-2,2.4-6,2.4
		C580.4,286.9,578.2,284,578.2,281.6L578.2,281.6z"/>
	<path class="st0" d="M617.5,271.8v-6.4l0,0c-6.4-0.2-7.3,1.6-8.9,3.1l0,0v-2.7h-6.9V292h6.9v-13.1v0
		C608.6,275.2,612.8,271.8,617.5,271.8L617.5,271.8z"/>
	<path class="st0" d="M621.5,287.8l5.1-4.4l0,0c1.8,2.2,6,4.2,7.8,4.2c1.8,0,3.3-1.3,3.3-2.7c0-1.3-0.9-2-1.8-2.2
		c-1.1-0.2-4.4-1.1-5.1-1.3c-0.9-0.2-7.1-1.3-7.1-7.5c0-6.7,6.9-8.2,11.1-8.2c4,0,7.8,1.1,10.7,3.8l0,0l-4.4,4.7l0,0
		c-2.4-2.2-4.2-2.9-6.2-2.9c-2,0-3.6,0.7-3.6,2.2c0,1.8,1.1,1.8,1.8,2c0.4,0.2,4.9,1.1,6,1.3c1.1,0.2,6.2,1.8,6.2,8
		c0,6-5.8,8.4-11.1,8.4C628.6,293.1,623.2,290.3,621.5,287.8L621.5,287.8z"/>
	<path class="st0" d="M464.4,157.1h-8.2v9.1h8.2l0,0c3.3,0,4.9-2.4,4.9-4.7C469.2,159.6,467.7,157.1,464.4,157.1L464.4,157.1z
		 M466.1,150.5h-17.3v36.8h7.3v-14.4h5.3l8.4,14.4h8l-8.4-14.6l0,0c2.4-0.4,7.8-3.8,7.8-10.9C477.2,154.5,471.9,150.5,466.1,150.5
		L466.1,150.5z"/>
	<path class="st0" d="M572.9,172c0,1.8,0,3.6,0,5.3c0,2-1.8,5.3-5.8,5.3c-4,0-6.2-3.3-6.2-8.2c0-5.1,2.7-7.5,6-7.5
		C570.2,166.9,572.9,168.9,572.9,172L572.9,172z M572.9,163.1c0-4,0-8.2,0-12.4c2.2,0,4.4,0,6.9,0c0,12.2,0,24.4,0,36.6
		c-2.2,0-4.4,0-6.9,0c0-0.2,0-0.7,0-1.1c0,0-2.9,2.2-6.9,2.2c-4,0-12.2-3.3-12.2-14.2c0-10.9,8.7-13.8,11.8-13.8
		S570.2,161.3,572.9,163.1L572.9,163.1z"/>
	<path class="st0" d="M490.5,171.5H501l0,0c0-2.4-1.8-5.3-5.1-5.3C492.5,166.2,490.5,168.9,490.5,171.5L490.5,171.5z M490.5,176.6
		h17.3l0,0c0.4-3.3-0.9-16.4-12.2-16.4c-9.8,0-12,10.7-12,13.8c0,3.6,2,14.2,12.9,14.2c6.2,0,9.3-3.6,10.2-4.4l0,0l-4.2-4.2l0,0
		c0,0-2,2.7-6,2.7C492.8,182.2,490.5,179.3,490.5,176.6L490.5,176.6z"/>
	<polygon class="st0" points="540.7,161.1 547.3,161.1 547.3,187.5 540.7,187.5 	"/>
	<path class="st0" d="M544.4,150.7c2.1,0,3.8,1.7,3.8,3.8c0,2.1-1.7,3.8-3.8,3.8c-2.1,0-3.8-1.7-3.8-3.8
		C540.6,152.3,542.3,150.7,544.4,150.7"/>
	<path class="st0" d="M638.5,170.2v17.1h-6.9v-16.4l0,0c0-2-1.6-4-4.4-4c-2.9,0-5.5,2.4-5.5,6l0,0v14.4H615v-26.2h6.7v2l0,0
		c0,0,2.9-2.7,6.7-2.7C634.6,160.4,638.5,165.3,638.5,170.2L638.5,170.2z"/>
	<path class="st0" d="M662.7,186.6l-1.3-5.8l0,0c-4.7,1.6-6,0.2-6-0.9l0,0v-13.1h6.9v-5.8h-6.9v-10.4l-6.9,2v8.4h-4.2v5.8h4.2v15.3
		l0,0c0,3.3,2.2,6,7.1,6C659.4,188.2,661.9,187.1,662.7,186.6L662.7,186.6z"/>
	<path class="st0" d="M591.5,171.5h10.4l0,0c0-2.4-2-5.3-5.1-5.3C593.5,166.2,591.5,168.9,591.5,171.5L591.5,171.5z M591.5,176.6
		h17.3l0,0c0.2-3.3-1.1-16.4-12.2-16.4c-9.8,0-12,10.7-12,13.8c0,3.6,2,14.2,12.9,14.2c6,0,9.3-3.6,10-4.4l0,0l-4.2-4.2l0,0
		c0,0-1.8,2.7-5.8,2.7C593.5,182.2,591.5,179.3,591.5,176.6L591.5,176.6z"/>
	<path class="st0" d="M511.6,183.1l5.1-4.4l0,0c1.8,2.2,5.8,4,7.5,4c1.8,0,3.6-1.3,3.6-2.7c0-1.3-1.1-2-2-2.2
		c-0.9-0.2-4.4-1.1-5.1-1.1c-0.7-0.2-6.9-1.3-6.9-7.8c0-6.4,6.9-8.2,10.9-8.2c4.2,0,7.8,1.3,10.7,4l0,0l-4.2,4.7l0,0
		c-2.7-2.2-4.4-3.1-6.4-3.1s-3.6,0.9-3.6,2.4c0,1.6,1.1,1.8,1.8,2c0.7,0,5.1,1.1,6,1.3c1.1,0.2,6.2,1.8,6.2,7.8
		c0,6.2-5.5,8.7-11.1,8.7C518.7,188.4,513.4,185.5,511.6,183.1L511.6,183.1z"/>
	<path class="st2" d="M295.5,157.3L295.5,157.3c0-5.1,4.2-9.3,9.3-9.3h112.3c5.1,0,9.3,4.2,9.3,9.3v112.3c0,5.1-4.2,9.3-9.3,9.3
		H304.8c-5.3,0-9.3-4.2-9.3-9.3L295.5,157.3L295.5,157.3z"/>
	<path class="st1" d="M374,181.3h-23.3v12.4v5.5v10.4h23.1l0,0c5.5,0,10-4.5,10-10l0.2-8.4C384,185.8,379.5,181.3,374,181.3
		L374,181.3z M329.9,165.1h53.9v0.2c11.5,0,20.9,9.3,20.9,20.9l-0.2,18.9c0,11.4-9.1,20.7-20.4,20.9h0h-33.3V237l0,0v28h-20.9l0,0
		L329.9,165.1L329.9,165.1v60.8V165.1z"/>
	<path class="st0" d="M360.8,295.4h-39.3c-3.6,0-6.5,2.9-6.5,6.5v52.4c0,3.6,2.9,6.5,6.5,6.5h78.6c3.6,0,6.5-2.9,6.5-6.5v-52.4
		c0-3.6-2.9-6.5-6.5-6.5H360.8L360.8,295.4z"/>
	<path class="st1" d="M345.9,336h-13.5l6.9-21.3L345.9,336z M339.2,342h-8.9l-2.2,7.1h-6.9l13.3-41.9h9.1l13.3,41.9h-6.9l-2.4-7.1
		H339.2z"/>
	<path class="st1" d="M393.1,333.5l-11.1,9.1h16.6v6.4h-28v-6.2l15.5-12l0,0c4.7-3.8,5.3-8,5.3-10.2c0-2-0.9-7.3-7.1-7.3
		c-6.2,0-7.3,6-7.3,8.7l0,0H370l0,0c0-8.4,4.7-15.3,14.9-15.3c11.3,0,14.4,8.7,14.4,13.8C399.3,324.4,397.1,330.6,393.1,333.5
		L393.1,333.5z"/>
	<polygon class="st0" points="403.8,410.8 403.8,426.5 396.5,426.5 396.5,399.7 385.6,415.2 374.3,399.7 374.3,426.5 367.2,426.5 
		367.2,389.7 376,389.7 385.6,402.8 394.7,389.7 403.8,389.7 403.8,400.3 	"/>
	<path class="st0" d="M512.3,420.3l5.3-5.1l0,0c6.9,4.9,12.4,5.3,14,5.3c1.8,0,3.8-2,3.8-4.2c0-2.4-1.6-3.6-2.9-4
		c-1.1-0.2-6.2-1.3-8.4-1.8c-2-0.4-8.7-2.2-8.7-10.4c0-8.2,5.8-11.1,12.2-11.1c6.7,0,11.5,2,15.8,5.8l0,0l-5.1,4.9l0,0
		c-2.4-2-6-3.6-11.1-3.6c-2.9,0-3.6,2.7-3.6,3.6c0,1.1,0.7,3.1,2.7,3.6c2,0.4,7.1,1.8,7.8,1.8c2.2,0.2,9.5,3.1,9.5,10.7
		c0,7.1-4.7,11.8-13.1,11.8C521.8,427.4,515.2,423.2,512.3,420.3L512.3,420.3z"/>
	<path class="st0" d="M565.5,414.5v5.1l0,0c0,2-3.8,1.8-4.4,1.8c-0.7,0-4.7,0-4.7-3.1C556.4,414.7,561.3,414.5,565.5,414.5
		L565.5,414.5z M572.4,419.4v-13.8l0,0c0-3.6-3.3-6.2-10.7-6.2c-5.8,0-9.5,2.4-11.1,3.3l0,0l3.1,5.1l0,0c2.2-1.6,6.9-2.4,8.9-2.4
		s2.9,1.6,2.9,2.2l0,0v1.6l0,0c-2.4,0-8.2,1.1-10.4,1.8c-2.2,0.7-5.8,2.2-5.8,7.5s5.3,8.7,10.9,8.7c4.7,0,6-2.7,6-2.7
		s2.4,2.9,6.4,2.9l0,0l2.7-5.5l0,0C572.2,421.4,572.4,420.3,572.4,419.4L572.4,419.4z"/>
	<path class="st0" d="M467,409.2v17.3h-6.9v-16.4l0,0c0-2-1.6-4-4.4-4c-2.9,0-5.5,2.4-5.5,6l0,0v14.4h-6.7v-26.4h6.7v2l0,0
		c0,0,2.9-2.4,6.7-2.4C463,399.7,467,404.5,467,409.2L467,409.2z"/>
	<path class="st0" d="M424.4,405.2c-2.9,0-6,2.7-6,8.4c0,5.5,3.3,8.2,6,8.2l0,0c2.9,0,6.2-2.7,6.2-8.2
		C430.6,407.9,427.3,405.2,424.4,405.2L424.4,405.2z M424.4,399.2c-6.4,0-12.9,5.3-12.9,14.2c0,9.1,6.4,14.4,12.9,14.4l0,0
		c6.7,0,12.9-5.3,12.9-14.4C437.3,404.5,430.8,399.2,424.4,399.2L424.4,399.2z"/>
	<path class="st0" d="M597.1,425.8l-1.3-5.8l0,0c-4.9,1.6-6,0.2-6-0.9l0,0v-13.1h6.7v-6h-6.7v-10.4l-6.9,2v8.4h-4.2v6h4.2v15.3l0,0
		c0,3.3,2,6,7.1,6C593.7,427.4,596.2,426.1,597.1,425.8L597.1,425.8z"/>
	<polygon class="st0" points="483.9,408.1 495.2,408.1 495.2,413.6 483.9,413.6 	"/>
	<path class="st0" d="M456.4,467.6v18h-6.7v-16.2l0,0c0-2.4-2-4.4-4-4.4c-2.2,0-4.7,2-4.7,5.3l0,0v15.3h-6.9v-16.2l0,0
		c0-2.4-2-4.4-3.8-4.4c-2,0-4.9,1.6-4.9,5.3l0,0v15.3h-6.7v-26.4h6.7v1.6l0,0c0,0,2.4-2,6.9-2c4,0,6.4,2.9,6.4,2.9s2.9-3.1,7.3-3.1
		C452.8,458.5,456.4,463.1,456.4,467.6L456.4,467.6z"/>
	<path class="st0" d="M358.9,463.6c-2.7,0-5.5-1.3-5.5-4.4c0-2.9,2.9-4.4,5.5-4.4l0,0c2.7,0,5.8,1.6,5.8,4.4
		C364.7,462.2,361.6,463.6,358.9,463.6L358.9,463.6z M358.9,479.3c-3.8,0-6.7-1.6-6.7-4.9c0-3.1,3.3-4.4,6.7-4.4l0,0
		c3.5,0,6.7,1.3,6.7,4.4C365.6,477.8,362.7,479.3,358.9,479.3L358.9,479.3z M358.9,448.3c6,0,13.3,2.9,13.3,11.1
		c0,5.8-4.2,6.9-4.2,6.9s5.3,1.3,5.3,8.7c0,7.1-5.8,11.3-14.4,11.3l0,0c-8.7,0-14.4-4.2-14.4-11.3c0-7.3,5.3-8.7,5.3-8.7
		s-4.4-1.1-4.4-6.9C345.4,451.1,352.7,448.3,358.9,448.3L358.9,448.3z"/>
	<path class="st0" d="M404.2,473.6v4.9l0,0c0,2-3.8,2-4.4,2s-4.9,0-4.9-3.3C394.9,473.8,400,473.6,404.2,473.6L404.2,473.6z
		 M411.1,478.4v-13.8l0,0c0-3.6-3.6-6.2-10.7-6.2c-5.8,0-9.8,2.4-11.1,3.3l0,0l2.9,5.1l0,0c2.2-1.6,7.1-2.4,9.1-2.4
		c2,0,2.9,1.3,2.9,2.2l0,0v1.6l0,0c-2.4,0-8.2,0.9-10.4,1.8c-2.2,0.7-5.8,2.2-5.8,7.5c0,5.1,5.3,8.7,10.7,8.7c4.7,0,6.2-2.7,6.2-2.7
		s2.4,2.7,6.4,2.9l0,0l2.7-5.5l0,0C410.9,480.2,411.1,479.1,411.1,478.4L411.1,478.4z"/>
	<polygon class="st0" points="473.4,466.9 485,466.9 485,472.4 473.4,472.4 	"/>
	<path class="st0" d="M552.5,469.3v4.9l0,0c0,2.7,2,5.3,6,5.3c3.8,0,6.2-3.6,6.2-7.8c0-4.2-2.2-7.8-6.2-7.8
		C554.5,464,552.5,466.9,552.5,469.3L552.5,469.3z M552.5,460.2v-1.1h-6.9v34h6.9v-9.5l0,0c0,0,2.2,2.7,7.3,2.7c9.1,0,12-10,12-14.2
		c0-3.3-1.3-7.1-3.6-9.5c-1.8-2.2-4.7-4.2-8.9-4.2C556.9,458,554.2,459.1,552.5,460.2L552.5,460.2z"/>
	<path class="st0" d="M615.3,467.6v18h-6.7v-16.2l0,0c0-2.4-2-4.4-4.2-4.4c-2.2,0-4.7,2-4.7,5.3l0,0v15.3h-6.7v-16.2l0,0
		c0-2.4-2-4.4-4-4.4c-1.8,0-4.7,1.6-4.7,5.3l0,0v15.3h-6.9v-26.4h6.9v1.6l0,0c0,0,2.4-2,6.9-2c4,0,6.4,2.9,6.2,2.9
		c0,0,2.9-3.1,7.3-3.1C611.7,458.5,615.3,463.1,615.3,467.6L615.3,467.6z"/>
	<path class="st0" d="M511.6,469.3l-0.2-0.2c-0.7,1.1-1.1,2.4-1.1,3.7l0,0c0,1.3,0.4,2.7,1.1,3.8l0,0c1.2,1.5,3,2.4,4.9,2.4
		c0.1,0,0.1,0,0.2,0h0c0.1,0,0.1,0,0.2,0c1.8,0,3.5-0.9,4.5-2.4l-0.3,0c0.7-1.1,1.1-2.4,1.1-3.8l0,0c0-1.3-0.4-2.7-1.1-3.8l0.2,0
		c-1-1.5-2.7-2.4-4.5-2.4c-0.1,0-0.1,0-0.2,0h0c-0.1,0-0.1,0-0.2,0c-1.9,0-3.8,0.9-5,2.4L511.6,469.3z M509.8,462.7l-0.2,0.2
		c0-0.1,0-0.3,0-0.4c0-2.6,1.2-5.1,3.3-6.7l0,0c1.1-0.7,2.3-1,3.6-1c0.9,0,1.9,0.2,2.7,0.6l-0.1,0.2c1.4,0.5,2.4,1.7,2.6,3.1l0.3,0
		l6.9-2.7l0,0c-0.8-3.2-3.1-5.8-6.2-6.8l0,0.1l-1.6-0.7l0,0c-1.5-0.3-2.9-0.4-4.4-0.4c-1.2,0-2.4,0.1-3.5,0.3l0,0
		c-0.8,0.2-1.7,0.4-2.5,0.8l0,0c-2.8,1.2-5,3.4-6.3,6.1l-0.1,0c-0.4,0.9-0.8,1.8-1.1,2.7l0,0c-0.8,2.9-1.2,5.8-1.2,8.8
		c0,3.2,0.5,6.5,1.4,9.5h0l0.4,0.7l-0.1,0c0.4,1.4,1,2.7,1.9,3.9l-0.1,0l0.2,0.2l0,0c1.3,1.7,2.9,3,4.8,3.9v0c2,0.7,4.1,1,6.2,1
		c2,0,3.9-0.3,5.8-0.9l0-0.3c2.8-1.1,5-3.4,6.1-6.3l0,0c0.6-1.9,0.9-3.8,0.9-5.8c0-0.1,0-0.1,0-0.2h0.2c0-0.2,0-0.4,0-0.7
		c0-2.2-0.5-4.3-1.5-6.2l-0.5-0.2c-1.9-3.1-5.3-5.1-8.9-5.3l0,0c-0.4,0-0.7,0-1.1,0c-3,0-5.9,1-8.2,2.8L509.8,462.7z"/>
</g>
</svg>
