<?xml version="1.0" encoding="utf-8"?>
<!-- Generator: Adobe Illustrator 26.0.2, SVG Export Plug-In . SVG Version: 6.00 Build 0)  -->
<svg version="1.1" id="Layer_1" xmlns="http://www.w3.org/2000/svg" xmlns:xlink="http://www.w3.org/1999/xlink" x="0px" y="0px"
	 viewBox="0 0 960 640" style="enable-background:new 0 0 960 640;" xml:space="preserve">
<style type="text/css">
	.st0{fill-rule:evenodd;clip-rule:evenodd;fill:#FFFFFF;}
	.st1{fill-rule:evenodd;clip-rule:evenodd;fill:#006FB6;}
	.st2{fill-rule:evenodd;clip-rule:evenodd;}
</style>
<g>
	<polygon class="st0" points="333.9,81.3 333.9,81.3 333.9,80.3 334,79.3 334.3,78.3 334.5,77.3 334.9,76.4 335.4,75.4 335.9,74.6 
		336.5,73.8 337.2,73 338,72.3 338.7,71.6 339.6,71.1 340.5,70.6 341.4,70.1 342.4,69.8 343.4,69.5 344.4,69.4 345.4,69.3 
		345.9,69.3 614.1,69.3 615.1,69.3 616.1,69.4 617.1,69.7 618.1,70 619,70.3 620,70.8 620.8,71.3 621.7,71.9 622.4,72.6 623.1,73.4 
		623.8,74.2 624.3,75 624.8,75.9 625.3,76.8 625.6,77.8 625.9,78.8 626,79.8 626.1,80.8 626.1,81.3 626.1,558.7 626.1,559.7 
		626,560.7 625.7,561.7 625.4,562.7 625.1,563.6 624.6,564.6 624.1,565.4 623.5,566.2 622.8,567 622,567.7 621.3,568.4 620.4,568.9 
		619.5,569.4 618.6,569.9 617.6,570.2 616.6,570.5 615.6,570.6 614.6,570.7 614.1,570.7 345.9,570.7 344.9,570.7 343.9,570.6 
		342.9,570.3 341.9,570 341,569.7 340,569.2 339.2,568.7 338.3,568.1 337.6,567.4 336.9,566.6 336.2,565.8 335.7,565 335.2,564.1 
		334.7,563.2 334.4,562.2 334.1,561.2 334,560.2 333.9,559.2 333.9,558.7 	"/>
	<polygon class="st1" points="355.7,165.5 355.7,165.5 354.9,165.5 354.2,165.4 353.5,165.1 352.8,164.8 352.2,164.4 351.6,163.9 
		351.1,163.3 350.7,162.7 350.4,162 350.1,161.3 350,160.6 349.9,159.8 349.9,90.9 350,90.2 350.1,89.4 350.4,88.7 350.7,88.1 
		351.1,87.4 351.6,86.9 352.2,86.4 352.8,86 353.5,85.6 354.2,85.4 354.9,85.2 355.7,85.2 424.6,85.2 425.3,85.2 426,85.4 
		426.8,85.6 427.4,86 428.1,86.4 428.6,86.9 429.1,87.4 429.5,88.1 429.9,88.7 430.1,89.4 430.2,90.2 430.3,90.9 430.3,159.8 
		430.2,160.6 430.1,161.3 429.9,162 429.5,162.7 429.1,163.3 428.6,163.9 428.1,164.4 427.4,164.8 426.8,165.1 426,165.4 
		425.3,165.5 424.6,165.5 	"/>
	<path class="st0" d="M384.1,122.8v-17.5h14.3l0.8,0l0.8,0.1l0.7,0.2l0.7,0.3l0.7,0.4l0.6,0.5l0.5,0.6l0.5,0.6l0.4,0.7l0.3,0.7
		l0.2,0.8l0.1,0.8l0,0.4v5.2l0,0.8l-0.1,0.8l-0.2,0.7l-0.3,0.7l-0.4,0.7l-0.5,0.6l-0.6,0.5l-0.6,0.5l-0.7,0.4l-0.7,0.3l-0.7,0.2
		l-0.8,0.1l-0.4,0L384.1,122.8L384.1,122.8z M371.2,156.9V95.2h32l1.1,0l1.1,0.1l1.1,0.2l1.1,0.3l1,0.4l1,0.4l1,0.5l0.9,0.6l0.9,0.7
		l0.8,0.7l0.8,0.8l0.7,0.8l0.6,0.9l0.6,0.9l0.5,1l0.4,1l0.3,1l0.2,1.1l0.2,1.1l0.1,1.1l0,0.5v9.1l0,1.1l-0.1,1.1l-0.2,1.1l-0.3,1.1
		l-0.4,1l-0.4,1l-0.5,1l-0.6,0.9l-0.7,0.9l-0.7,0.8l-0.8,0.8l-0.8,0.7l-0.9,0.6l-0.9,0.6l-1,0.5l-1,0.4l-1,0.3l-1.1,0.2l-1.1,0.2
		l-1.1,0.1l-0.5,0h-19.1v24.1L371.2,156.9L371.2,156.9z"/>
	<polygon class="st2" points="460.5,117.3 460.5,101 467.3,110.9 474.1,101 474.1,117.3 478.7,117.3 478.7,94.8 472.8,94.8 
		467.3,102.8 461.8,94.8 455.9,94.8 455.9,117.3 	"/>
	<path class="st2" d="M498.8,109.3L498.8,109.3l0-1l-0.1-1l-0.2-1l-0.1-0.5l-0.1-0.2l-0.3-0.8l-0.4-0.7l-0.5-0.7l-0.6-0.6l-0.6-0.6
		l-0.6-0.4l-0.8-0.4l-0.8-0.3l-0.8-0.2l-0.9-0.2l-0.9-0.1H491l-0.9,0.1l-0.9,0.2l-0.8,0.2l-0.8,0.3l-0.8,0.4l0,0l-0.7,0.5l-0.6,0.6
		l-0.6,0.6l-0.5,0.7l-0.4,0.7l-0.3,0.7l-0.1,0.2l-0.2,1l-0.2,1l-0.1,1l0,0.5l0,1l0.1,1l0.2,1l0.1,0.5l0.1,0.2l0.3,0.8l0.4,0.7
		l0.5,0.7l0.6,0.6l0.6,0.6l0.6,0.5l0.8,0.4l0.8,0.3l0.8,0.2l0.9,0.2l0.9,0.1h0.1l0.9-0.1l0.9-0.2l0.8-0.2l0.8-0.3l0.8-0.4l0,0
		l0.7-0.5l0.6-0.6l0.6-0.6l0.5-0.7l0.4-0.7l0.3-0.7l0.1-0.2l0.2-1l0.2-1l0.1-1L498.8,109.3L498.8,109.3z M491.7,104.6L491.7,104.6
		l0.5,0.2l0.5,0.3l0.3,0.3l0.4,0.5l0.4,0.5l0.1,0.2l0.2,0.6l0.1,0.5l0.1,0.9l0,0.8l0,1l-0.1,0.8l-0.2,0.6l-0.2,0.5l-0.4,0.6
		l-0.4,0.5l-0.1,0.1l-0.4,0.3l-0.5,0.3l-0.4,0.1l-0.5,0.1l-0.5,0l-0.4-0.1l-0.5-0.2l-0.5-0.3l-0.3-0.3l-0.4-0.5l-0.4-0.5l-0.1-0.2
		l-0.2-0.6l-0.1-0.5l-0.1-0.9l0-0.8l0-1l0.1-0.8l0.2-0.6l0.2-0.5l0.4-0.6l0.4-0.5l0.1-0.1l0.4-0.3l0.5-0.3l0.4-0.1l0.5-0.1l0.5,0
		L491.7,104.6L491.7,104.6z"/>
	<polygon class="st2" points="517.4,117.3 517.4,107.7 517.4,106.9 517.2,106 517,105.2 516.7,104.4 516.6,104.1 516.2,103.5 
		515.7,102.9 515.1,102.4 514.5,101.9 513.8,101.5 513.1,101.2 512.6,101 511.9,100.9 511.7,100.9 510.9,100.9 510.1,100.9 
		509.4,101.1 508.7,101.4 508,101.7 507.4,102.2 507.1,102.4 507.1,101.3 502.7,101.3 502.7,117.3 507.1,117.3 507.1,107.7 
		507.2,107.1 507.4,106.7 507.4,106.6 507.7,106.1 508.1,105.7 508.5,105.4 508.7,105.3 509.3,105.1 509.9,104.9 510.5,104.9 
		511.1,105 511.3,105 511.6,105.1 511.9,105.3 512.2,105.6 512.5,106 512.8,106.4 512.9,106.6 513,107.2 513,107.8 513,117.3 
		517.4,117.3 513,117.3 	"/>
	<polygon class="st2" points="527.6,109.3 527.6,105.9 534.5,105.9 534.5,109.3 	"/>
	<polygon class="st2" points="558.7,104.2 558.7,104.2 559.5,104.5 560.2,104.7 560.9,105.2 561.6,105.6 562.3,106.2 562.9,106.8 
		563.4,107.4 563.7,108.2 564,108.9 564.1,109.7 564.2,110.5 564.2,111.3 564.1,112.1 563.9,112.8 563.6,113.6 563.2,114.3 
		562.7,114.9 562.2,115.5 561.6,116 561,116.5 560.3,116.9 559.5,117.2 559.5,117.2 558.4,117.5 557.3,117.7 556.2,117.8 
		555.1,117.9 554,117.9 552.8,117.8 551.7,117.6 550.7,117.4 549.6,117 549.3,116.9 548.4,116.5 547.5,116 546.7,115.4 545.9,114.7 
		545.1,114 544.6,113.4 548.5,110.5 549.3,111.2 550,111.8 550.9,112.3 551.2,112.5 552,112.9 552.9,113.2 553.7,113.4 554.6,113.5 
		555.4,113.5 555.5,113.5 556.1,113.5 556.7,113.4 557.3,113.2 557.8,112.9 558.3,112.5 558.4,112.4 558.7,112.1 558.9,111.6 
		559,111.2 559,110.7 558.9,110.2 558.7,109.8 558.4,109.4 558.1,109.1 557.7,108.8 557.3,108.7 552,107.5 551.2,107.3 550.5,107 
		549.8,106.6 549.2,106.3 548.6,105.7 548.1,105.2 547.7,104.5 547.4,103.8 547.1,103.1 546.9,102.4 546.9,101.6 546.9,100.9 
		547,100.1 547.2,99.4 547.5,98.6 547.8,98 548.2,97.4 548.8,96.8 549.4,96.2 550.1,95.7 550.9,95.3 551.7,94.9 552.1,94.8 
		553.1,94.5 554.1,94.4 555.1,94.3 556.2,94.3 557.2,94.4 558.2,94.5 559.2,94.8 560.2,95.1 561.2,95.5 562.1,96 563,96.5 
		563.8,97.1 564.6,97.8 564.7,97.9 561.2,101 560.5,100.5 559.7,100 558.9,99.6 558.1,99.2 557.2,99 556.3,98.8 555.5,98.8 
		555.3,98.8 554.7,98.8 554.1,98.9 553.5,99.2 553,99.5 552.6,99.9 552.4,100 552.2,100.4 552.1,100.8 552.1,101.2 552.1,101.6 
		552.3,102 552.5,102.4 552.9,102.6 553.2,102.8 553.5,102.9 	"/>
	<path class="st2" d="M570.3,116.8L570.3,116.8l0.8,0.4l0.8,0.3l0.8,0.2l0.9,0.1l0.9,0l0.9-0.1l0.9-0.2l0.5-0.1l0.5-0.2l0.5-0.3
		l0.4-0.4l0.3-0.3l0.3,0.4l0.3,0.3l0.4,0.2l0.2,0.1l0.8,0.3l0.8,0.2l0.9,0.1l0.2,0l1.6-3.4l-0.4,0l-0.4-0.1l-0.3-0.1l-0.3-0.2
		l-0.2-0.3l-0.2-0.3l-0.1-0.4l0-0.1v-7.6l0-0.6l-0.1-0.6l-0.2-0.6l-0.3-0.5l-0.4-0.5l-0.5-0.4l-0.5-0.3l-0.8-0.4l-0.8-0.3l-0.9-0.2
		l-0.9-0.2l-0.9-0.1l-0.9,0l-0.9,0.1l-0.6,0.1l-1.1,0.3l-1.1,0.4l-1.1,0.5l-1,0.6l-0.5,0.3l2.2,3.3l0.8-0.5l0.9-0.4l0.9-0.3l0.9-0.3
		l0.9-0.2l0.3,0l0.5,0l0.5,0.1l0.5,0.2l0.2,0.1l0.3,0.2l0.2,0.2l0.2,0.3l0.1,0.3l0,0.1v1l-1.2,0l-1.2,0.1l-1.2,0.2l-1.2,0.3
		l-1.2,0.4l-0.9,0.3l-0.6,0.4l-0.5,0.4l-0.5,0.5l-0.4,0.6l-0.3,0.6l-0.2,0.7l-0.1,0.7l0,0.7l0.1,0.7l0.2,0.7l0.3,0.6l0.4,0.6
		l0.4,0.5l0.5,0.5L570.3,116.8L570.3,116.8z M576.2,114L576.2,114l0.4-0.1l0.3-0.2l0.3-0.3l0.2-0.3l0.1-0.4l0-0.2v-2.3l-1.3,0.2
		l-1.3,0.3l-1.3,0.3l-0.2,0l-0.3,0.2l-0.3,0.2l-0.2,0.3l-0.1,0.3l0,0.4l0,0.4l0.1,0.2l0.2,0.3l0.3,0.3l0.3,0.2l0.4,0.2l0.1,0
		l0.7,0.1l0.7,0l0.7-0.1L576.2,114L576.2,114z"/>
	<polygon class="st2" points="592.5,94.8 588.1,96.1 588.1,101.1 585.6,101.1 585.6,104.8 588.1,104.8 588.1,114.3 588.2,114.9 
		588.3,115.4 588.5,116 588.8,116.4 589.2,116.8 589.7,117.2 590.2,117.5 590.7,117.7 591.1,117.7 592.2,117.8 593.3,117.8 
		594.3,117.8 595.4,117.6 596.5,117.4 597.2,117.1 596.3,113.5 595.5,113.7 594.6,113.9 593.8,113.9 593.5,113.9 593.2,113.7 
		592.9,113.5 592.7,113.3 592.6,113 592.5,112.6 592.5,104.8 596.6,104.8 596.6,101.1 592.5,101.1 	"/>
	<path class="st2" d="M458,136.2L458,136.2l-0.3-0.8l-0.3-0.7L457,134l-0.1-0.2l-0.1-0.1l-0.5-0.7l-0.6-0.6l-0.7-0.5l-0.7-0.4
		l-0.4-0.2l-1-0.3l-1-0.2l-1-0.1l-1,0l-1,0.1l-1,0.1l-1,0.2l-0.3,0.1l-0.7,0.3l-0.7,0.4l-0.6,0.5l-0.6,0.6l-0.5,0.6l-0.4,0.7
		l-0.3,0.7l-0.1,0.2l-0.3,1l-0.2,1l-0.1,1l0,0.7l0,0.9l0.1,0.9l0.2,0.9l0.3,0.8l0.4,0.8l0,0l0.5,0.7l0.6,0.6l0.6,0.5l0.7,0.5
		l0.7,0.4l0.8,0.3l0.8,0.2l0.8,0.1l0.2,0l0.9,0l0.9-0.1l0.9-0.2l0.8-0.3l0.8-0.3l0.8-0.4l0.6-0.4l0,0.7l-0.1,0.7l-0.2,0.7l-0.3,0.6
		l-0.4,0.6l-0.4,0.5l-0.5,0.5l-0.1,0l-0.6,0.3l-0.6,0.2l-0.6,0.1l-0.6,0l-0.6-0.1l-0.6-0.2l-0.1,0l-0.5-0.2l-0.4-0.3l-0.3-0.4
		l-0.3-0.4l-0.2-0.5l0-0.2l-4.3,1.6l0.2,0.7l0.3,0.7l0.4,0.6l0.5,0.6l0.5,0.5l0.6,0.4l0.6,0.4l0.7,0.3l0.8,0.3l0.2,0l1.1,0.2
		l1.1,0.1h1.1l1.1-0.1l0.6-0.1l0.8-0.2l0.6-0.2l0.7-0.4l0.7-0.4l0.7-0.5l0.6-0.6l0.5-0.6l0.4-0.7l0.3-0.5l0.4-0.9l0.3-0.8l0.3-1.2
		l0.2-1.2l0.1-1.2l0.1-1.2l0-1.2l-0.1-1.2l-0.2-1.2l-0.2-1.2l-0.3-1.2l-0.1-0.2L458,136.2L458,136.2z M453.4,140.9L453.4,140.9
		l0.3-0.6l0.2-0.6l0.1-0.6l0-0.5l0-0.6l-0.1-0.6l-0.2-0.6l-0.2-0.4l-0.4-0.5l-0.5-0.4l-0.5-0.3l-0.6-0.2l-0.6-0.1l-0.6,0h0l-0.6,0
		l-0.6,0.1l-0.5,0.2l-0.5,0.3l-0.4,0.4l-0.3,0.4l-0.3,0.6l-0.2,0.6l-0.1,0.6l0,0.5l0,0.6l0.1,0.6l0.2,0.6l0.2,0.4l0.3,0.5l0.4,0.4
		l0.5,0.3l0.5,0.2l0.6,0.1l0.5,0l0.6,0l0.6-0.1l0.6-0.2l0.5-0.3l0.5-0.4L453.4,140.9L453.4,140.9L453.4,140.9z"/>
	<path class="st2" d="M470.6,152.9L470.6,152.9l0.8,0.4l0.8,0.3l0.8,0.2l0.9,0.1l0.9,0l0.9-0.1l0.9-0.2l0.5-0.1l0.5-0.2l0.5-0.3
		l0.4-0.4l0.3-0.3l0.3,0.4l0.3,0.3l0.4,0.2l0.2,0.1l0.8,0.3l0.8,0.2l0.9,0.1l0.2,0l1.6-3.4l-0.4,0l-0.4-0.1l-0.3-0.1l-0.3-0.2
		l-0.2-0.3l-0.2-0.3l-0.1-0.4l0-0.1v-7.6l0-0.6l-0.1-0.6l-0.2-0.6l-0.3-0.5l-0.4-0.5l-0.5-0.4l-0.5-0.3l-0.8-0.4l-0.8-0.3l-0.9-0.2
		l-0.9-0.2l-0.9-0.1l-0.9,0l-0.9,0.1l-0.6,0.1l-1.1,0.3l-1.1,0.4l-1.1,0.5l-1,0.6l-0.5,0.3l2.2,3.3l0.8-0.5l0.9-0.4l0.9-0.3l0.9-0.3
		l0.9-0.2l0.3,0l0.5,0l0.5,0.1l0.5,0.2l0.2,0.1l0.3,0.2l0.2,0.2l0.2,0.3l0.1,0.3l0,0.1v1l-1.2,0l-1.2,0.1l-1.2,0.2l-1.2,0.3
		l-1.2,0.4l-0.9,0.3l-0.6,0.4l-0.5,0.4l-0.5,0.5l-0.4,0.6l-0.3,0.6l-0.2,0.7l-0.1,0.7l0,0.7l0.1,0.7l0.2,0.7l0.3,0.6l0.4,0.6
		l0.4,0.5l0.5,0.5L470.6,152.9L470.6,152.9z M476.6,150.2L476.6,150.2l0.4-0.1l0.3-0.2l0.3-0.3l0.2-0.3l0.1-0.4l0-0.2v-2.3l-1.3,0.2
		l-1.3,0.3l-1.3,0.3l-0.2,0l-0.3,0.2l-0.3,0.2l-0.2,0.3l-0.1,0.3l0,0.4l0,0.4l0.1,0.2l0.2,0.3l0.3,0.3l0.3,0.2l0.4,0.2l0.1,0
		l0.7,0.1l0.7,0l0.7-0.1L476.6,150.2L476.6,150.2z"/>
	<polygon class="st2" points="505.9,153.5 505.9,143.9 505.8,143.3 505.7,142.8 505.5,142.3 505.2,141.9 504.9,141.6 504.7,141.4 
		504.3,141.2 504.1,141.2 504,141.1 503.6,141.1 503.3,141.1 502.7,141.3 502.4,141.5 502,141.7 501.5,142.1 501.2,142.5 
		501.1,142.7 500.9,143.2 500.9,143.3 500.8,143.8 500.8,153.5 496.4,153.5 496.4,143.9 496.4,143.3 496.3,142.8 496.1,142.3 
		495.8,141.9 495.5,141.6 495.3,141.4 494.9,141.2 494.7,141.2 494.6,141.1 494.2,141.1 493.9,141.1 493.3,141.3 493,141.5 
		492.5,141.7 492.1,142.1 491.8,142.5 491.7,142.7 491.5,143.2 491.5,143.3 491.4,143.8 491.4,153.5 487,153.5 487,137.4 
		491.4,137.4 491.4,138.6 492,138.1 492.6,137.7 493.3,137.4 494,137.2 494.8,137 495.5,137 495.9,137 496.6,137.1 496.8,137.2 
		497.3,137.4 497.9,137.6 498.4,138 498.8,138.4 499.2,138.8 499.4,139.2 499.9,138.7 500.4,138.2 501.1,137.8 501.7,137.4 
		502.5,137.2 503.2,137.1 503.9,137 504.5,137 505.2,137.1 505.4,137.2 506.2,137.4 506.9,137.8 507.5,138.2 508.1,138.7 
		508.7,139.2 509.2,139.9 509.4,140.3 509.8,141.1 510,141.9 510.2,142.8 510.3,143.7 510.3,143.9 510.3,153.5 	"/>
	<polygon class="st2" points="520.5,145.5 520.5,142 527.5,142 527.5,145.5 	"/>
	<path class="st2" d="M543.7,143.6L543.7,143.6l-0.3,0.6l-0.2,0.6l-0.1,0.6l0,0.5l0,0.6l0.1,0.6l0.2,0.6l0.2,0.4l0.4,0.5l0.5,0.4
		l0.5,0.3l0.6,0.2l0.6,0.1l0.6,0h0l0.6,0l0.6-0.1l0.5-0.2l0.5-0.3l0.4-0.4l0.3-0.4l0.3-0.6l0.2-0.6l0.1-0.6l0-0.5l0-0.6l-0.1-0.6
		l-0.2-0.6l-0.2-0.4l-0.3-0.5l-0.4-0.4l-0.5-0.3l-0.5-0.2l-0.6-0.1l-0.5,0l-0.6,0l-0.6,0.1l-0.6,0.2l-0.5,0.3l-0.5,0.4L543.7,143.6
		L543.7,143.6L543.7,143.6z M539,148.3L539,148.3l0.3,0.8l0.3,0.7l0.4,0.7l0.1,0.2l0.1,0.1l0.5,0.7l0.6,0.6l0.7,0.5l0.7,0.4l0.4,0.2
		l1,0.3l1,0.2l1,0.1l1,0l1-0.1l1-0.1l1-0.2l0.3-0.1l0.7-0.3l0.7-0.4l0.6-0.5l0.6-0.6l0.5-0.6l0.4-0.7l0.3-0.7l0.1-0.2l0.3-1l0.2-1
		l0.1-1l0-0.7l0-0.9l-0.1-0.9l-0.2-0.9l-0.3-0.8l-0.4-0.8l0,0l-0.5-0.7l-0.6-0.6l-0.6-0.5l-0.7-0.5l-0.7-0.4l-0.8-0.3l-0.8-0.2
		l-0.8-0.1l-0.2,0l-0.9,0l-0.9,0.1l-0.9,0.2l-0.8,0.3l-0.8,0.3l-0.8,0.4l-0.6,0.4l0-0.7l0.1-0.7l0.2-0.7l0.3-0.7l0.4-0.6l0.5-0.6
		l0.4-0.4l0.6-0.3l0.6-0.2l0.6-0.1l0.6,0l0.6,0.1l0.6,0.2l0.1,0l0.5,0.2l0.4,0.3l0.3,0.4l0.3,0.4l0.2,0.5l0,0.2l4.3-1.6l-0.2-0.7
		l-0.3-0.7l-0.4-0.6l-0.5-0.6l-0.5-0.5l-0.6-0.4l-0.6-0.4l-0.7-0.3l-0.8-0.3l-0.2,0l-1.1-0.2l-1.1-0.1h-1.1l-1.1,0.1l-0.6,0.1
		l-0.8,0.2l-0.6,0.2l-0.7,0.4l-0.7,0.4l-0.7,0.5l-0.6,0.6l-0.5,0.6l-0.4,0.7l-0.3,0.5l-0.4,0.9l-0.3,0.8l-0.3,1.2l-0.2,1.2l-0.1,1.2
		l-0.1,1.2l0,1.2l0.1,1.2l0.2,1.2l0.2,1.2l0.3,1.2l0.1,0.2L539,148.3L539,148.3z"/>
	<path class="st2" d="M575,141.5L575,141.5l-0.5-0.3l-0.6-0.3l-0.6-0.2l-0.6-0.1l-0.6,0l-0.6,0.1L571,141l-0.5,0.3l-0.3,0.3
		l-0.4,0.4l-0.3,0.4l-0.2,0.5l-0.1,0.5l0,0.1v3.5l0.1,0.5l0.1,0.5l0.2,0.4l0.2,0.2l0.4,0.4l0.5,0.4l0.5,0.3l0.6,0.2l0.6,0.1l0.6,0
		l0.6-0.1l0.4-0.1l0.5-0.2l0.5-0.3l0.4-0.4l0.3-0.4l0.3-0.5l0-0.1l0.2-0.8l0.2-0.8l0.1-0.8l0-0.8l-0.1-0.8l-0.2-0.8l-0.1-0.3
		l-0.2-0.5l0,0l-0.3-0.4L575,141.5L575,141.5L575,141.5z M571,153.5L571,153.5l0.8,0.2l0.8,0.1l0.8,0l0.8,0l0.8-0.1l0.8-0.2l0.8-0.3
		l0.1,0l0.7-0.4l0.6-0.5l0.6-0.6l0.5-0.6l0.4-0.7l0.3-0.7l0.3-0.9l0.3-1l0.2-1l0.1-1v-1l-0.1-1l-0.2-1l-0.3-1l-0.3-0.9l-0.1-0.3
		l-0.3-0.6l-0.4-0.6l-0.4-0.5l0,0l-0.6-0.5l-0.6-0.5l-0.7-0.4l-0.7-0.3l-0.8-0.2l-0.8-0.1l-0.8-0.1l-0.8,0l-0.8,0.1l-0.8,0.2
		l-0.7,0.3l-0.7,0.4l-0.6,0.4v-0.8h-4.4v20.9h4.4v-5.9l0.5,0.4l0.5,0.4l0.6,0.3L571,153.5L571,153.5z"/>
	<polygon class="st2" points="603.2,153.5 603.2,143.9 603.1,143.3 603,142.8 602.8,142.3 602.5,141.9 602.2,141.6 602,141.4 
		601.7,141.2 601.4,141.2 601.3,141.1 600.9,141.1 600.6,141.1 600,141.3 599.7,141.5 599.3,141.7 598.9,142.1 598.5,142.5 
		598.4,142.7 598.2,143.2 598.2,143.3 598.1,143.8 598.1,153.5 593.8,153.5 593.8,143.9 593.7,143.3 593.6,142.8 593.4,142.3 
		593.1,141.9 592.8,141.6 592.6,141.4 592.2,141.2 592,141.2 591.9,141.1 591.5,141.1 591.2,141.1 590.6,141.3 590.3,141.5 
		589.8,141.7 589.4,142.1 589.1,142.5 589,142.7 588.8,143.2 588.8,143.3 588.7,143.8 588.7,153.5 584.3,153.5 584.3,137.4 
		588.7,137.4 588.7,138.6 589.3,138.1 589.9,137.7 590.6,137.4 591.4,137.2 592.1,137 592.9,137 593.2,137 593.9,137.1 594.2,137.2 
		594.7,137.4 595.2,137.6 595.7,138 596.1,138.4 596.5,138.8 596.7,139.2 597.2,138.7 597.8,138.2 598.4,137.8 599.1,137.4 
		599.8,137.2 600.5,137.1 601.3,137 601.8,137 602.5,137.1 602.7,137.2 603.5,137.4 604.2,137.8 604.8,138.2 605.4,138.7 606,139.2 
		606.5,139.9 606.8,140.3 607.1,141.1 607.3,141.9 607.5,142.8 607.6,143.7 607.6,143.9 607.6,153.5 	"/>
	<path class="st2" d="M395.9,186.7L395.9,186.7l-0.4-0.7l-0.5-0.6l-0.6-0.5l-0.6-0.5l-0.7-0.4l-0.7-0.3l-0.8-0.2l-0.8-0.1l-0.7,0
		h-9.7v22.5h4.6V198h5.1l0.8,0l0.8-0.1l0.8-0.2l0.7-0.3l0.7-0.4l0.6-0.5l0.6-0.5l0.5-0.6l0.4-0.6l0.4-0.7l0.3-0.7l0.2-0.8l0.2-0.8
		l0.1-0.8l0-0.8l-0.1-0.8l-0.2-0.8l-0.3-0.7L396,187L395.9,186.7L395.9,186.7z M384.9,193.8h4.5l0.6-0.1l0.5-0.2l0.5-0.2l0.4-0.3
		l0.4-0.4l0.3-0.5l0.2-0.5l0.1-0.5l0-0.1v-0.5l-0.1-0.5l-0.2-0.5l-0.3-0.5l-0.4-0.4l-0.4-0.4l-0.5-0.3l-0.5-0.2l-0.5-0.1l-0.1,0
		h-4.6V193.8L384.9,193.8z"/>
	<path class="st2" d="M401.6,205.3L401.6,205.3l0.8,0.4l0.8,0.3l0.8,0.2l0.9,0.1l0.9,0l0.9-0.1l0.9-0.2l0.5-0.1l0.5-0.2l0.5-0.3
		l0.4-0.4l0.3-0.3l0.3,0.4l0.3,0.3l0.4,0.2l0.2,0.1l0.8,0.3l0.8,0.2l0.9,0.1l0.2,0l1.6-3.4l-0.4,0l-0.4-0.1l-0.3-0.1l-0.3-0.2
		l-0.2-0.3l-0.2-0.3l-0.1-0.4l0-0.1v-7.6l0-0.6l-0.1-0.6l-0.2-0.6l-0.3-0.5l-0.4-0.5l-0.5-0.4l-0.5-0.3l-0.8-0.4l-0.8-0.3l-0.9-0.2
		l-0.9-0.2l-0.9-0.1l-0.9,0l-0.9,0.1l-0.6,0.1l-1.1,0.3l-1.1,0.4l-1.1,0.5l-1,0.6l-0.5,0.3l2.2,3.3l0.8-0.5l0.9-0.4l0.9-0.3l0.9-0.3
		l0.9-0.2l0.3,0l0.5,0l0.5,0.1l0.5,0.2l0.2,0.1l0.3,0.2l0.2,0.2l0.2,0.3l0.1,0.3l0,0.1v1l-1.2,0l-1.2,0.1l-1.2,0.2l-1.2,0.3
		l-1.2,0.4l-0.9,0.3l-0.6,0.4l-0.5,0.4l-0.5,0.5l-0.4,0.6l-0.3,0.6l-0.2,0.7l-0.1,0.7l0,0.7l0.1,0.7l0.2,0.7l0.3,0.6l0.4,0.6
		l0.4,0.5l0.5,0.5L401.6,205.3L401.6,205.3z M407.6,202.6L407.6,202.6l0.4-0.1l0.3-0.2l0.3-0.3l0.2-0.3l0.1-0.4l0-0.2v-2.3l-1.3,0.2
		l-1.3,0.3l-1.3,0.3l-0.2,0l-0.3,0.2l-0.3,0.2l-0.2,0.3l-0.1,0.3l0,0.4l0,0.4l0.1,0.2l0.2,0.3l0.3,0.3l0.3,0.2l0.4,0.2l0.1,0
		l0.7,0.1l0.7,0l0.7-0.1L407.6,202.6L407.6,202.6z"/>
	<polygon class="st2" points="420.7,189.8 424.2,199.5 427.7,189.8 432.1,189.8 425.3,208.9 425.1,209.4 424.8,209.9 424.4,210.3 
		423.9,210.6 423.4,210.9 422.9,211 422.3,211.1 422.1,211.1 420.7,211.1 419.3,211 418,210.8 417.4,210.7 418,206.9 419.2,207 
		420.2,207.1 420.6,207.1 420.9,207 421.3,206.8 421.5,206.6 421.7,206.3 421.8,205.9 421.9,205.6 421.8,205.2 421.8,205.1 
		416.3,189.8 	"/>
	<path class="st2" d="M455.4,193.9L455.4,193.9l-0.5-0.3l-0.6-0.3l-0.6-0.2l-0.6-0.1l-0.6,0l-0.6,0.1l-0.6,0.2l-0.5,0.3l-0.3,0.3
		l-0.4,0.4l-0.3,0.4l-0.2,0.5l-0.1,0.5l0,0.1v3.5l0.1,0.5l0.1,0.5l0.2,0.4l0.2,0.2l0.4,0.4l0.5,0.4l0.5,0.3l0.6,0.2l0.6,0.1l0.6,0
		l0.6-0.1l0.4-0.1l0.5-0.2l0.5-0.3l0.4-0.4l0.3-0.4l0.3-0.5l0-0.1l0.2-0.8l0.2-0.8l0.1-0.8l0-0.8l-0.1-0.8l-0.2-0.8l-0.1-0.3
		l-0.2-0.5l0,0l-0.3-0.4L455.4,193.9L455.4,193.9L455.4,193.9z M451.4,205.9L451.4,205.9l0.8,0.2l0.8,0.1l0.8,0l0.8,0l0.8-0.1
		l0.8-0.2l0.8-0.3l0.1,0l0.7-0.4l0.6-0.5l0.6-0.6l0.5-0.6l0.4-0.7l0.3-0.7l0.3-0.9l0.3-1l0.2-1l0.1-1v-1l-0.1-1l-0.2-1l-0.3-1
		l-0.3-0.9l-0.1-0.3l-0.3-0.6l-0.4-0.6l-0.4-0.5l0,0l-0.6-0.5l-0.6-0.5l-0.7-0.4l-0.7-0.3l-0.8-0.2l-0.8-0.1l-0.8-0.1l-0.8,0
		l-0.8,0.1l-0.8,0.2l-0.7,0.3l-0.7,0.4l-0.6,0.4v-7.2h-4.4v22.5h4.4v-1.1l0.5,0.4l0.5,0.4l0.6,0.3L451.4,205.9L451.4,205.9z"/>
	<polygon class="st2" points="467.4,189.8 470.9,199.5 474.4,189.8 478.8,189.8 472,208.9 471.8,209.4 471.4,209.9 471.1,210.3 
		470.6,210.6 470.1,210.9 469.6,211 469,211.1 468.8,211.1 467.4,211.1 466,211 464.7,210.8 464.1,210.7 464.7,206.9 465.9,207 
		466.9,207.1 467.3,207.1 467.6,207 468,206.8 468.2,206.6 468.4,206.3 468.5,205.9 468.5,205.6 468.5,205.2 468.5,205.1 463,189.8 
			"/>
	<path class="st2" d="M501.7,193.9L501.7,193.9l-0.5-0.3l-0.6-0.3l-0.6-0.2l-0.6-0.1l-0.6,0l-0.6,0.1l-0.6,0.2l-0.5,0.3l-0.3,0.3
		l-0.4,0.4l-0.3,0.4l-0.2,0.5l-0.1,0.5l0,0.1v3.5l0.1,0.5l0.1,0.5l0.2,0.4l0.2,0.2l0.4,0.4l0.5,0.4l0.5,0.3l0.6,0.2l0.6,0.1l0.6,0
		l0.6-0.1l0.4-0.1l0.5-0.2l0.5-0.3l0.4-0.4l0.3-0.4l0.3-0.5l0-0.1l0.2-0.8l0.2-0.8l0.1-0.8l0-0.8l-0.1-0.8l-0.2-0.8l-0.1-0.3
		l-0.2-0.5l0,0l-0.3-0.4L501.7,193.9L501.7,193.9L501.7,193.9z M497.7,205.9L497.7,205.9l0.8,0.2l0.8,0.1l0.8,0l0.8,0l0.8-0.1
		l0.8-0.2l0.8-0.3l0.1,0l0.7-0.4l0.6-0.5l0.6-0.6l0.5-0.6l0.4-0.7l0.3-0.7l0.3-0.9l0.3-1l0.2-1l0.1-1v-1l-0.1-1l-0.2-1l-0.3-1
		l-0.3-0.9l-0.1-0.3l-0.3-0.6l-0.4-0.6l-0.4-0.5l0,0l-0.6-0.5l-0.6-0.5l-0.7-0.4l-0.7-0.3l-0.8-0.2l-0.8-0.1l-0.8-0.1l-0.8,0
		l-0.8,0.1l-0.8,0.2l-0.7,0.3l-0.7,0.4l-0.6,0.4v-0.8h-4.4v20.9h4.4v-5.9l0.5,0.4l0.5,0.4l0.6,0.3L497.7,205.9L497.7,205.9z"/>
	<polygon class="st2" points="525.7,205.9 525.7,196.3 525.7,195.4 525.6,194.6 525.3,193.7 525,192.9 524.9,192.7 524.5,192.1 
		524,191.5 523.4,190.9 522.8,190.5 522.1,190.1 521.4,189.8 520.9,189.6 520.2,189.5 520,189.4 519.2,189.4 518.5,189.5 
		517.7,189.7 517,189.9 516.4,190.3 515.7,190.7 515.5,191 515.5,183.4 511.1,183.4 511.1,205.9 515.5,205.9 515.5,196.2 
		515.5,195.7 515.7,195.2 515.7,195.1 516,194.7 516.4,194.3 516.9,194 517,193.9 517.6,193.6 518.2,193.5 518.8,193.5 519.4,193.5 
		519.6,193.6 519.9,193.7 520.2,193.8 520.6,194.1 520.9,194.5 521.1,194.9 521.2,195.2 521.3,195.8 521.4,196.3 521.4,205.9 
		525.7,205.9 521.4,205.9 	"/>
	<path class="st2" d="M544.7,197.9L544.7,197.9l0-1l-0.1-1l-0.2-1l-0.1-0.5l-0.1-0.2l-0.3-0.8l-0.4-0.7L543,192l-0.6-0.6l-0.6-0.6
		l-0.6-0.5l-0.8-0.4l-0.8-0.3l-0.8-0.2l-0.9-0.2l-0.9-0.1H537l-0.9,0.1l-0.9,0.2l-0.8,0.2l-0.8,0.3l-0.8,0.4l0,0l-0.7,0.5l-0.6,0.6
		l-0.6,0.6l-0.5,0.7l-0.4,0.7l-0.3,0.7l-0.1,0.2l-0.2,1l-0.2,1l-0.1,1l0,0.5l0,1l0.1,1l0.2,1l0.1,0.5l0.1,0.2l0.3,0.8l0.4,0.7
		l0.5,0.7l0.6,0.6l0.6,0.6l0.6,0.5l0.8,0.4l0.8,0.3l0.8,0.2l0.9,0.2l0.9,0.1h0.1l0.9-0.1l0.9-0.1l0.8-0.2l0.8-0.3l0.8-0.4l0,0
		l0.7-0.5l0.6-0.6l0.6-0.6l0.5-0.7l0.4-0.7l0.3-0.7l0.1-0.2l0.2-1l0.2-1l0.1-1V197.9L544.7,197.9z M537.6,193.1L537.6,193.1l0.5,0.2
		l0.5,0.3l0.3,0.3l0.4,0.5l0.4,0.5l0.1,0.2l0.2,0.6l0.1,0.5l0.1,0.9l0,0.8l0,1l-0.1,0.8l-0.2,0.6l-0.2,0.5l-0.4,0.6l-0.4,0.5
		l-0.1,0.1l-0.4,0.3l-0.5,0.3l-0.4,0.1l-0.5,0.1l-0.5,0l-0.4-0.1l-0.5-0.2l-0.5-0.3l-0.3-0.3l-0.4-0.5l-0.4-0.5l-0.1-0.2l-0.2-0.6
		l-0.1-0.5l-0.1-0.9l0-0.8l0-1l0.1-0.8l0.2-0.6l0.2-0.5l0.4-0.6l0.4-0.5l0.1-0.1l0.4-0.3l0.5-0.3l0.4-0.1l0.5-0.1l0.5,0L537.6,193.1
		L537.6,193.1z"/>
	<polygon class="st2" points="563.3,205.9 563.3,196.3 563.3,195.4 563.2,194.6 562.9,193.7 562.6,192.9 562.5,192.7 562.1,192.1 
		561.6,191.5 561,190.9 560.4,190.5 559.7,190.1 559,189.8 558.5,189.6 557.8,189.5 557.6,189.4 556.8,189.4 556.1,189.5 
		555.3,189.7 554.6,189.9 554,190.3 553.3,190.7 553.1,191 553.1,189.8 548.7,189.8 548.7,205.9 553.1,205.9 553.1,196.2 
		553.1,195.7 553.3,195.2 553.3,195.1 553.6,194.7 554,194.3 554.5,194 554.7,193.9 555.2,193.6 555.8,193.5 556.4,193.5 557,193.5 
		557.2,193.6 557.6,193.7 557.8,193.8 558.2,194.1 558.5,194.5 558.7,194.9 558.8,195.2 558.9,195.8 559,196.3 559,205.9 
		563.3,205.9 559,205.9 	"/>
	<path class="st2" d="M570.4,190.6L570.4,190.6l-0.7,0.5l-0.6,0.6l-0.5,0.6L568,193l-0.2,0.4l-0.3,0.9l-0.3,0.9l-0.2,0.9l-0.1,0.9
		l0,0.9l0.1,0.9l0.2,0.9l0.2,0.9l0.3,0.9l0.2,0.3l0.4,0.7l0.5,0.7l0.5,0.6l0.6,0.6l0.7,0.5l0.7,0.4l0.8,0.3l0.8,0.2l1,0.2l1,0.1h1
		l1-0.1l1-0.2l0.4-0.1l0.7-0.3l0.7-0.3l0.7-0.4l0.6-0.5l0.5-0.6l0.2-0.2l-2.7-2.7l-0.5,0.5l-0.6,0.4l-0.6,0.3l-0.3,0.1l-0.7,0.2
		l-0.7,0.1l-0.7,0l-0.7-0.1l-0.7-0.2l-0.3-0.1l-0.5-0.3l-0.4-0.4l-0.3-0.4l-0.3-0.5l-0.2-0.5l-0.1-0.5l0-0.2h10.7l0-1.1l-0.1-1.1
		l-0.2-1.1l-0.3-1.1l-0.3-1l-0.3-0.7l-0.4-0.7l-0.5-0.6l-0.5-0.6l-0.6-0.5l-0.5-0.3l-0.7-0.4l-0.7-0.3l-0.8-0.2l-0.8-0.1l-0.8,0
		l-0.8,0l-0.8,0.1l-0.8,0.2l-0.7,0.3l-0.7,0.4L570.4,190.6L570.4,190.6z M577.7,196L577.7,196l-0.1-0.6l-0.2-0.5l-0.3-0.5l-0.4-0.4
		l-0.4-0.4l-0.5-0.3l-0.5-0.2l-0.6-0.1l-0.6,0l-0.6,0.1l-0.5,0.2l-0.5,0.3l-0.4,0.4l-0.4,0.4l-0.3,0.5l-0.2,0.5l-0.1,0.5L577.7,196
		L577.7,196z"/>
	<path class="st2" d="M361.7,221.1L361.7,221.1l0.6,0l0.6,0.1l0.6,0.2l0.6,0.3l0.5,0.4l0.4,0.5l0.4,0.5l0.3,0.6l0,0.1l0.3,0.8
		l0.2,0.8l0.1,0.5l0.1,1.3l0.1,1.3l0,0.3l0,1.3l-0.1,1.3l0,0.3l-0.2,0.8l-0.2,0.8l-0.2,0.5l-0.3,0.6l-0.4,0.5l-0.4,0.5l-0.5,0.4
		l-0.5,0.3l-0.6,0.2l-0.6,0.1l-0.6,0h-0.1l-0.6,0l-0.6-0.1l-0.6-0.2l-0.6-0.3l-0.5-0.4l-0.4-0.4l-0.4-0.5l-0.3-0.6l0-0.1l-0.3-0.8
		l-0.2-0.8l-0.1-0.5l-0.1-1.3l-0.1-1.3v-0.3l0-1.3l0.1-1.3l0-0.2l0.2-0.8l0.2-0.8l0.2-0.5l0.3-0.6l0.4-0.5l0.4-0.5l0.5-0.4l0.5-0.3
		l0.6-0.2l0.6-0.1L361.7,221.1L361.7,221.1L361.7,221.1z M361.7,216.9L361.7,216.9l0.7,0l0.9,0.1l0.9,0.2l0.9,0.3l0.8,0.3l0.8,0.4
		l0.7,0.5l0.7,0.6l0.6,0.6l0.1,0.1l0.6,0.9l0.5,0.9l0.4,1l0.3,1l0.2,0.8l0.2,1.2l0.2,1.2l0.1,1.2l0,0.7l0,1.2l-0.1,1.2l-0.2,1.2
		l-0.2,0.7l-0.3,1l-0.4,1l-0.4,0.9l-0.5,0.9l-0.4,0.7l-0.6,0.6l-0.7,0.6l-0.7,0.5l-0.8,0.4l-0.8,0.3l-0.9,0.3l-0.9,0.2l-0.9,0.1
		l-0.1,0l-0.7,0l-0.7,0l-0.9-0.1l-0.9-0.2l-0.9-0.3l-0.8-0.3l-0.8-0.4l-0.7-0.5l-0.7-0.6l-0.6-0.6l-0.1-0.1l-0.6-0.9l-0.5-0.9
		l-0.4-1l-0.3-1l-0.2-0.8l-0.2-1.2l-0.1-1.2l-0.1-1.2v-0.7l0-1.2l0.1-1.2l0.2-1.2l0.1-0.7l0.3-1l0.4-1l0.4-0.9l0.5-0.9l0.4-0.7
		l0.6-0.6l0.7-0.6l0.7-0.5l0.8-0.4l0.8-0.3l0.9-0.3l0.9-0.2l0.9-0.1l0.1,0L361.7,216.9L361.7,216.9z"/>
	<polygon class="st2" points="385.5,228.1 385.5,228.1 384.7,228.9 383.9,229.7 383.5,230.1 382.1,231.1 380.6,232.2 379.2,233.2 
		377.7,234.1 375,235.8 375,240 390.8,240 390.8,235.8 382.9,235.8 384.2,235 385.6,234.1 386.8,233.1 387.7,232.5 388.4,231.7 
		389.2,230.8 389.8,229.9 390.2,229.3 390.6,228.5 390.9,227.6 391.1,226.7 391.3,225.7 391.3,224.8 391.3,223.9 391.1,222.9 
		390.9,222 390.6,221.2 390.2,220.5 389.7,219.8 389.2,219.1 388.5,218.5 387.8,218 387.8,218 387.4,217.8 387.3,217.7 386.5,217.5 
		385.8,217.3 385.6,217.2 384.4,217.1 383.3,217 382.1,217.1 381,217.1 380,217.3 379.3,217.5 378.6,217.7 377.9,218.1 377.7,218.3 
		377,218.8 376.4,219.4 375.9,220.1 375.4,220.8 375,221.6 374.7,222.4 374.5,223.2 374.4,224 374.3,224.9 374.3,224.9 374.3,226 
		378.9,226 378.9,225.3 379.1,224.5 379.3,223.8 379.5,223.1 379.8,222.6 380.2,222.2 380.6,221.8 381.1,221.6 381.3,221.5 
		382,221.3 382.7,221.2 383.4,221.2 384,221.3 384.6,221.5 385.1,221.8 385.6,222.1 386,222.5 386.3,223 386.5,223.5 386.6,223.6 
		386.7,224.3 386.7,225 386.6,225.6 386.5,226.3 386.2,226.9 386.1,227.1 385.6,227.9 	"/>
	<path class="st2" d="M405.1,221.1L405.1,221.1l0.6,0l0.6,0.1l0.6,0.2l0.6,0.3l0.5,0.4l0.4,0.5l0.4,0.5l0.3,0.6l0,0.1l0.3,0.8
		l0.2,0.8l0.1,0.5l0.1,1.3l0.1,1.3l0,0.3l0,1.3l-0.1,1.3l0,0.3l-0.2,0.8l-0.2,0.8l-0.2,0.5l-0.3,0.6l-0.4,0.5l-0.4,0.5l-0.5,0.4
		l-0.5,0.3l-0.6,0.2l-0.6,0.1l-0.6,0h-0.1l-0.6,0l-0.6-0.1l-0.6-0.2l-0.6-0.3l-0.5-0.4l-0.4-0.4l-0.4-0.5l-0.3-0.6l0-0.1l-0.3-0.8
		l-0.2-0.8l-0.1-0.5l-0.1-1.3l0-1.3v-0.3l0-1.3l0.1-1.3l0-0.2l0.2-0.8l0.2-0.8l0.2-0.5l0.3-0.6l0.4-0.5l0.4-0.5l0.5-0.4l0.5-0.3
		l0.6-0.2l0.6-0.1L405.1,221.1L405.1,221.1L405.1,221.1z M405.1,216.9L405.1,216.9l0.7,0l0.9,0.1l0.9,0.2l0.9,0.3l0.8,0.3l0.8,0.4
		l0.7,0.5l0.7,0.6l0.6,0.6l0.1,0.1l0.6,0.9l0.5,0.9l0.4,1l0.3,1l0.2,0.8l0.2,1.2l0.1,1.2l0.1,1.2l0,0.7l0,1.2l-0.1,1.2l-0.2,1.2
		l-0.2,0.7l-0.3,1l-0.4,1l-0.4,0.9l-0.5,0.9l-0.4,0.7l-0.6,0.6l-0.7,0.6l-0.7,0.5l-0.8,0.4l-0.8,0.3l-0.9,0.3l-0.9,0.2l-0.9,0.1
		l-0.1,0l-0.7,0l-0.7,0l-0.9-0.1l-0.9-0.2l-0.9-0.3l-0.8-0.3l-0.8-0.4l-0.7-0.5l-0.7-0.6l-0.6-0.6l-0.1-0.1l-0.6-0.9l-0.5-0.9
		l-0.4-1l-0.3-1l-0.2-0.8l-0.2-1.2l-0.1-1.2l-0.1-1.2v-0.7l0-1.2l0.1-1.2l0.2-1.2l0.1-0.7l0.3-1l0.4-1l0.4-0.9l0.5-0.9l0.4-0.7
		l0.6-0.6l0.7-0.6l0.7-0.5l0.8-0.4l0.8-0.3l0.9-0.3l0.9-0.2l0.9-0.1l0.1,0L405.1,216.9L405.1,216.9z"/>
	<polygon class="st2" points="427.4,221.6 427.4,217.5 443.2,217.5 443.2,221.6 435.6,240 430.7,240 438.3,221.6 	"/>
	<path class="st2" d="M455.6,221.1L455.6,221.1l0.6,0l0.6,0.1l0.6,0.2l0.6,0.3l0.5,0.4l0.4,0.5l0.4,0.5l0.3,0.6l0,0.1l0.3,0.8
		l0.2,0.8l0.1,0.5l0.1,1.3l0.1,1.3l0,0.3l0,1.3l-0.1,1.3l0,0.3l-0.2,0.8l-0.2,0.8l-0.2,0.5l-0.3,0.6l-0.4,0.5l-0.4,0.5l-0.5,0.4
		l-0.5,0.3l-0.6,0.2l-0.6,0.1l-0.6,0h-0.1l-0.6,0l-0.6-0.1l-0.6-0.2l-0.6-0.3l-0.5-0.4l-0.4-0.4l-0.4-0.5l-0.3-0.6l0-0.1l-0.3-0.8
		l-0.2-0.8l-0.1-0.5l-0.1-1.3l0-1.3v-0.3l0-1.3l0.1-1.3l0-0.2l0.2-0.8l0.2-0.8l0.2-0.5l0.3-0.6l0.4-0.5l0.4-0.5l0.5-0.4l0.5-0.3
		l0.6-0.2l0.6-0.1L455.6,221.1L455.6,221.1L455.6,221.1z M455.6,216.9L455.6,216.9l0.7,0l0.9,0.1l0.9,0.2l0.9,0.3l0.8,0.3l0.8,0.4
		l0.7,0.5l0.7,0.6l0.6,0.6l0.1,0.1l0.6,0.9l0.5,0.9l0.4,1l0.3,1l0.2,0.8l0.2,1.2l0.1,1.2l0.1,1.2l0,0.7l0,1.2L465,231l-0.2,1.2
		l-0.2,0.7l-0.3,1l-0.4,1l-0.4,0.9l-0.5,0.9l-0.4,0.7L462,238l-0.7,0.6l-0.7,0.5l-0.8,0.4l-0.8,0.3l-0.9,0.3l-0.9,0.2l-0.9,0.1
		l-0.1,0l-0.7,0l-0.7,0l-0.9-0.1l-0.9-0.2l-0.9-0.3l-0.8-0.3l-0.8-0.4l-0.7-0.5l-0.7-0.6l-0.6-0.6l-0.1-0.1l-0.6-0.9l-0.5-0.9
		l-0.4-1l-0.3-1l-0.2-0.8l-0.2-1.2l-0.1-1.2l-0.1-1.2v-0.7l0-1.2l0.1-1.2l0.2-1.2l0.1-0.7l0.3-1l0.4-1l0.4-0.9l0.5-0.9l0.4-0.7
		l0.6-0.6l0.7-0.6l0.7-0.5l0.8-0.4l0.8-0.3l0.9-0.3l0.9-0.2l0.9-0.1l0.1,0L455.6,216.9L455.6,216.9z"/>
	<path class="st2" d="M478.9,221.1L478.9,221.1l0.6,0l0.6,0.1l0.6,0.2l0.6,0.3l0.5,0.4l0.4,0.5l0.4,0.5l0.3,0.6l0,0.1l0.3,0.8
		l0.2,0.8l0.1,0.5l0.1,1.3l0.1,1.3l0,0.3l0,1.3l-0.1,1.3l0,0.3l-0.2,0.8l-0.2,0.8l-0.2,0.5l-0.3,0.6l-0.4,0.5l-0.4,0.5l-0.5,0.4
		l-0.5,0.3l-0.6,0.2l-0.6,0.1l-0.6,0h-0.1l-0.6,0l-0.6-0.1l-0.6-0.2l-0.6-0.3l-0.5-0.4l-0.4-0.4l-0.4-0.5l-0.3-0.6l0-0.1l-0.3-0.8
		l-0.2-0.8l-0.1-0.5l-0.1-1.3l0-1.3v-0.3l0-1.3l0.1-1.3l0-0.2l0.2-0.8l0.2-0.8l0.2-0.5l0.3-0.6l0.4-0.5l0.4-0.5l0.5-0.4l0.5-0.3
		l0.6-0.2l0.6-0.1L478.9,221.1L478.9,221.1L478.9,221.1z M478.9,216.9L478.9,216.9l0.7,0l0.9,0.1l0.9,0.2l0.9,0.3l0.8,0.3l0.8,0.4
		l0.7,0.5l0.7,0.6l0.6,0.6l0.1,0.1l0.6,0.9l0.5,0.9l0.4,1l0.3,1l0.2,0.8l0.2,1.2l0.1,1.2l0.1,1.2l0,0.7l0,1.2l-0.1,1.2l-0.2,1.2
		l-0.2,0.7l-0.3,1l-0.4,1l-0.4,0.9l-0.5,0.9l-0.4,0.7l-0.6,0.6l-0.7,0.6l-0.7,0.5l-0.8,0.4l-0.8,0.3l-0.9,0.3l-0.9,0.2l-0.9,0.1
		l-0.1,0l-0.7,0l-0.7,0l-0.9-0.1l-0.9-0.2l-0.9-0.3l-0.8-0.3l-0.8-0.4l-0.7-0.5l-0.7-0.6l-0.6-0.6l-0.1-0.1l-0.6-0.9l-0.5-0.9
		l-0.4-1l-0.3-1l-0.2-0.8l-0.2-1.2l-0.1-1.2l-0.1-1.2v-0.7l0-1.2l0.1-1.2l0.2-1.2l0.1-0.7l0.3-1l0.4-1l0.4-0.9l0.5-0.9l0.4-0.7
		l0.6-0.6l0.7-0.6l0.7-0.5l0.8-0.4l0.8-0.3l0.9-0.3l0.9-0.2l0.9-0.1l0.1,0L478.9,216.9L478.9,216.9z"/>
	<polygon class="st2" points="493.1,229.1 497.7,229.9 498.1,229.4 498.5,228.9 499,228.5 499.5,228.2 500.1,228 500.7,227.9 
		501.3,227.9 502,228 502.5,228.1 503.1,228.4 503.6,228.7 504.1,229.2 504.3,229.4 504.6,229.9 504.6,230 504.9,230.7 505,231.4 
		505.1,232.1 505,232.8 504.9,233.4 504.6,234.1 504.4,234.6 504,235.1 503.6,235.5 503.1,235.8 502.5,236.1 501.9,236.3 
		501.3,236.3 500.7,236.3 500.1,236.2 499.5,235.9 499,235.6 498.6,235.2 498.2,234.8 497.9,234.2 497.6,233.7 497.5,233.1 
		497.5,233 493.1,234.3 493.3,235.1 493.5,235.8 493.9,236.6 494.3,237.3 494.8,237.9 495.4,238.5 496.1,239 496.8,239.4 
		497.2,239.6 498.1,240 499,240.2 499.9,240.4 500.9,240.5 501.8,240.5 502.8,240.4 503.7,240.2 504.6,240 505.5,239.6 506.2,239.3 
		506.8,238.8 507.4,238.3 508,237.7 508.4,237.1 508.8,236.4 509.1,235.6 509.2,235.2 509.5,234.1 509.6,233 509.7,231.9 
		509.6,230.8 509.5,229.7 509.4,229.1 509.2,228.3 508.9,227.6 508.8,227.5 508.4,226.8 507.8,226.1 507.1,225.4 507.1,225.4 
		506.4,224.9 505.7,224.5 504.9,224.1 504.2,223.9 503.3,223.7 502.5,223.6 501.7,223.7 500.9,223.8 500.1,224 499.3,224.3 
		498.6,224.7 498.2,225 498.7,221.6 508.7,221.6 508.7,217.5 494.8,217.5 	"/>
	<path class="st2" d="M533.2,221.1L533.2,221.1l0.6,0l0.6,0.1l0.6,0.2l0.6,0.3l0.5,0.4l0.4,0.5l0.4,0.5l0.3,0.6l0,0.1l0.3,0.8
		l0.2,0.8l0.1,0.5l0.1,1.3l0.1,1.3l0,0.3l0,1.3l-0.1,1.3l0,0.3l-0.2,0.8l-0.2,0.8l-0.2,0.5l-0.3,0.6l-0.4,0.5l-0.4,0.5l-0.5,0.4
		l-0.5,0.3l-0.6,0.2l-0.6,0.1l-0.6,0h-0.1l-0.6,0l-0.6-0.1l-0.6-0.2l-0.6-0.3l-0.5-0.4l-0.4-0.4l-0.4-0.5l-0.3-0.6l0-0.1l-0.3-0.8
		l-0.2-0.8l-0.1-0.5l-0.1-1.3l0-1.3v-0.3l0-1.3l0.1-1.3l0-0.2l0.2-0.8l0.2-0.8l0.2-0.5l0.3-0.6l0.4-0.5l0.4-0.5l0.5-0.4l0.5-0.3
		l0.6-0.2l0.6-0.1L533.2,221.1L533.2,221.1L533.2,221.1z M533.2,216.9L533.2,216.9l0.7,0l0.9,0.1l0.9,0.2l0.9,0.3l0.8,0.3l0.8,0.4
		l0.7,0.5l0.7,0.6l0.6,0.6l0.1,0.1l0.6,0.9l0.5,0.9l0.4,1l0.3,1l0.2,0.8l0.2,1.2l0.1,1.2l0.1,1.2l0,0.7l0,1.2l-0.1,1.2l-0.2,1.2
		l-0.2,0.7l-0.3,1l-0.4,1l-0.4,0.9l-0.5,0.9l-0.4,0.7l-0.6,0.6l-0.7,0.6l-0.7,0.5l-0.8,0.4l-0.8,0.3l-0.9,0.3l-0.9,0.2l-0.9,0.1
		l-0.1,0l-0.7,0l-0.7,0l-0.9-0.1l-0.9-0.2l-0.9-0.3l-0.8-0.3l-0.8-0.4l-0.7-0.5l-0.7-0.6l-0.6-0.6l-0.1-0.1l-0.6-0.9l-0.5-0.9
		l-0.4-1l-0.3-1l-0.2-0.8l-0.2-1.2l-0.1-1.2l-0.1-1.2v-0.7l0-1.2l0.1-1.2l0.2-1.2l0.1-0.7l0.3-1l0.4-1l0.4-0.9l0.5-0.9l0.4-0.7
		l0.6-0.6l0.7-0.6l0.7-0.5l0.8-0.4l0.8-0.3l0.9-0.3l0.9-0.2l0.9-0.1l0.1,0L533.2,216.9L533.2,216.9z"/>
	<path class="st2" d="M556.5,221.1L556.5,221.1l0.6,0l0.6,0.1l0.6,0.2l0.6,0.3l0.5,0.4l0.4,0.5l0.4,0.5l0.3,0.6l0,0.1l0.3,0.8
		l0.2,0.8l0.1,0.5l0.1,1.3l0.1,1.3l0,0.3l0,1.3l-0.1,1.3l0,0.3l-0.2,0.8l-0.2,0.8l-0.2,0.5l-0.3,0.6l-0.4,0.5l-0.4,0.5l-0.5,0.4
		l-0.5,0.3l-0.6,0.2l-0.6,0.1l-0.6,0h-0.1l-0.6,0l-0.6-0.1l-0.6-0.2l-0.6-0.3l-0.5-0.4l-0.4-0.4l-0.4-0.5l-0.3-0.6l0-0.1l-0.3-0.8
		l-0.2-0.8l-0.1-0.5l-0.1-1.3l0-1.3v-0.3l0-1.3l0.1-1.3l0-0.2l0.2-0.8l0.2-0.8l0.2-0.5l0.3-0.6l0.4-0.5l0.4-0.5l0.5-0.4l0.5-0.3
		l0.6-0.2l0.6-0.1L556.5,221.1L556.5,221.1L556.5,221.1z M556.5,216.9L556.5,216.9l0.7,0l0.9,0.1l0.9,0.2l0.9,0.3l0.8,0.3l0.8,0.4
		l0.7,0.5l0.7,0.6l0.6,0.6l0.1,0.1l0.6,0.9l0.5,0.9l0.4,1l0.3,1l0.2,0.8l0.2,1.2l0.1,1.2l0.1,1.2l0,0.7l0,1.2l-0.1,1.2l-0.2,1.2
		l-0.2,0.7l-0.3,1l-0.4,1l-0.4,0.9l-0.5,0.9l-0.4,0.7l-0.6,0.6l-0.7,0.6l-0.7,0.5l-0.8,0.4l-0.8,0.3l-0.9,0.3l-0.9,0.2l-0.9,0.1
		l-0.1,0l-0.7,0l-0.7,0l-0.9-0.1l-0.9-0.2l-0.9-0.3l-0.8-0.3l-0.8-0.4l-0.7-0.5l-0.7-0.6l-0.6-0.6l-0.1-0.1l-0.6-0.9l-0.5-0.9
		l-0.4-1l-0.3-1l-0.2-0.8l-0.2-1.2l-0.1-1.2l-0.1-1.2v-0.7l0-1.2l0.1-1.2l0.2-1.2l0.1-0.7l0.3-1l0.4-1l0.4-0.9l0.5-0.9l0.4-0.7
		l0.6-0.6l0.7-0.6l0.7-0.5l0.8-0.4l0.8-0.3l0.9-0.3l0.9-0.2l0.9-0.1l0.1,0L556.5,216.9L556.5,216.9z"/>
	<polygon class="st2" points="570.6,229.1 575.3,229.9 575.6,229.4 576.1,228.9 576.5,228.5 577.1,228.2 577.7,228 578.3,227.9 
		578.9,227.9 579.5,228 580.1,228.1 580.7,228.4 581.2,228.7 581.6,229.2 581.9,229.4 582.1,229.9 582.2,230 582.4,230.7 
		582.6,231.4 582.6,232.1 582.6,232.8 582.4,233.4 582.2,234.1 581.9,234.6 581.6,235.1 581.1,235.5 580.6,235.8 580.1,236.1 
		579.5,236.3 578.9,236.3 578.3,236.3 577.7,236.2 577.1,235.9 576.6,235.6 576.1,235.2 575.7,234.8 575.4,234.2 575.2,233.7 
		575.1,233.1 575.1,233 570.6,234.3 570.8,235.1 571.1,235.8 571.4,236.6 571.9,237.3 572.4,237.9 573,238.5 573.6,239 574.3,239.4 
		574.8,239.6 575.6,240 576.5,240.2 577.5,240.4 578.4,240.5 579.4,240.5 580.3,240.4 581.2,240.2 582.1,240 583,239.6 583.7,239.3 
		584.4,238.8 585,238.3 585.5,237.7 586,237.1 586.4,236.4 586.7,235.6 586.8,235.2 587,234.1 587.1,233 587.2,231.9 587.2,230.8 
		587.1,229.7 587,229.1 586.8,228.3 586.5,227.6 586.4,227.5 585.9,226.8 585.3,226.1 584.7,225.4 584.6,225.4 584,224.9 
		583.2,224.5 582.5,224.1 581.7,223.9 580.9,223.7 580.1,223.6 579.2,223.7 578.4,223.8 577.6,224 576.9,224.3 576.1,224.7 
		575.8,225 576.3,221.6 586.3,221.6 586.3,217.5 572.3,217.5 	"/>
	<polygon class="st2" points="591.5,229.1 596.2,229.9 596.5,229.4 597,228.9 597.4,228.5 598,228.2 598.6,228 599.2,227.9 
		599.8,227.9 600.4,228 601,228.1 601.5,228.4 602.1,228.7 602.5,229.2 602.7,229.4 603,229.9 603.1,230 603.3,230.7 603.5,231.4 
		603.5,232.1 603.5,232.8 603.3,233.4 603.1,234.1 602.8,234.6 602.4,235.1 602,235.5 601.5,235.8 601,236.1 600.4,236.3 
		599.8,236.3 599.2,236.3 598.6,236.2 598,235.9 597.5,235.6 597,235.2 596.6,234.8 596.3,234.2 596.1,233.7 596,233.1 596,233 
		591.5,234.3 591.7,235.1 592,235.8 592.3,236.6 592.8,237.3 593.3,237.9 593.9,238.5 594.5,239 595.2,239.4 595.7,239.6 596.5,240 
		597.4,240.2 598.4,240.4 599.3,240.5 600.3,240.5 601.2,240.4 602.1,240.2 603,240 603.9,239.6 604.6,239.3 605.3,238.8 
		605.9,238.3 606.4,237.7 606.9,237.1 607.3,236.4 607.6,235.6 607.7,235.2 607.9,234.1 608,233 608.1,231.9 608.1,230.8 608,229.7 
		607.9,229.1 607.7,228.3 607.4,227.6 607.3,227.5 606.8,226.8 606.2,226.1 605.6,225.4 605.5,225.4 604.9,224.9 604.1,224.5 
		603.4,224.1 602.6,223.9 601.8,223.7 601,223.6 600.1,223.7 599.3,223.8 598.5,224 597.8,224.3 597,224.7 596.7,225 597.2,221.6 
		607.2,221.6 607.2,217.5 593.2,217.5 	"/>
	<path class="st2" d="M444.3,271.8L444.3,271.8l0-1l-0.1-1l-0.2-1l-0.1-0.5l-0.1-0.2l-0.3-0.8l-0.4-0.7l-0.5-0.7l-0.6-0.6l-0.6-0.6
		l-0.6-0.5l-0.8-0.4l-0.8-0.3l-0.8-0.2l-0.9-0.2l-0.9-0.1h-0.1l-0.9,0.1l-0.9,0.2l-0.8,0.2l-0.8,0.3l-0.8,0.4l0,0l-0.7,0.5l-0.6,0.6
		l-0.6,0.6l-0.5,0.7l-0.4,0.7l-0.3,0.7l-0.1,0.2l-0.2,1l-0.2,1l-0.1,1l0,0.5l0,1l0.1,1l0.2,1l0.1,0.5l0.1,0.2l0.3,0.8l0.4,0.7
		l0.5,0.7l0.6,0.6l0.6,0.6l0.6,0.5l0.8,0.4l0.8,0.3l0.8,0.2l0.9,0.2l0.9,0.1h0.1l0.9-0.1l0.9-0.2l0.8-0.2l0.8-0.3l0.8-0.4l0,0
		l0.7-0.5l0.6-0.6l0.6-0.6l0.5-0.7l0.4-0.7l0.3-0.7l0.1-0.2l0.2-1l0.2-1l0.1-1L444.3,271.8L444.3,271.8z M437.2,267.1L437.2,267.1
		l0.5,0.2l0.5,0.3l0.3,0.3l0.4,0.5l0.4,0.5l0.1,0.2l0.2,0.6l0.1,0.5l0.1,0.9l0,0.8l0,1l-0.1,0.8l-0.2,0.6l-0.2,0.5l-0.4,0.6
		l-0.4,0.5l-0.1,0.1l-0.4,0.3l-0.5,0.3l-0.4,0.1l-0.5,0.1l-0.5,0l-0.4-0.1l-0.5-0.2l-0.5-0.3l-0.3-0.3l-0.4-0.5l-0.4-0.5l-0.1-0.2
		l-0.2-0.6l-0.1-0.5l-0.1-0.9l0-0.8l0-1l0.1-0.8l0.2-0.6l0.2-0.5l0.4-0.6l0.4-0.5l0.1-0.1l0.4-0.3l0.5-0.3l0.4-0.1l0.5-0.1l0.5,0
		L437.2,267.1L437.2,267.1z"/>
	<polygon class="st2" points="452.7,271.3 452.7,271.3 452.7,270.7 452.9,270.1 453.1,269.6 453.5,269.1 453.9,268.6 454.3,268.2 
		454.9,268 455.4,267.8 456,267.7 456.3,267.7 457.8,267.7 457.8,263.5 456.8,263.5 456,263.5 455.3,263.7 454.6,263.9 454,264.3 
		453.4,264.7 452.8,265.2 452.7,265.4 452.7,263.7 448.3,263.7 448.3,279.8 452.7,279.8 	"/>
	<polygon class="st2" points="477.8,257.3 473.5,258.6 473.5,263.6 470.9,263.6 470.9,267.3 473.5,267.3 473.5,276.8 473.5,277.4 
		473.6,277.9 473.9,278.4 474.2,278.9 474.6,279.3 475,279.7 475.5,280 476,280.1 476.5,280.2 477.5,280.3 478.6,280.3 479.7,280.2 
		480.7,280.1 481.8,279.8 482.6,279.6 481.6,276 480.8,276.2 480,276.3 479.1,276.4 478.8,276.4 478.5,276.2 478.2,276 478,275.8 
		477.9,275.4 477.8,275.1 477.8,267.3 481.9,267.3 481.9,263.6 477.8,263.6 	"/>
	<path class="st2" d="M488,264.6L488,264.6l-0.7,0.5l-0.6,0.6l-0.5,0.6l-0.5,0.7l-0.2,0.4l-0.3,0.9l-0.3,0.9l-0.2,0.9l-0.1,0.9
		l0,0.9l0.1,0.9l0.2,0.9l0.2,0.9l0.3,0.9l0.2,0.3l0.4,0.7l0.5,0.7l0.5,0.6l0.6,0.6l0.7,0.5l0.7,0.4l0.8,0.3l0.8,0.2l1,0.2l1,0.1h1
		l1-0.1l1-0.2l0.4-0.1l0.7-0.3l0.7-0.3l0.7-0.4l0.6-0.5l0.5-0.6l0.2-0.2l-2.7-2.7l-0.5,0.5l-0.6,0.4l-0.6,0.3l-0.3,0.1l-0.7,0.2
		l-0.7,0.1l-0.7,0l-0.7-0.1l-0.7-0.2l-0.3-0.1l-0.5-0.3l-0.4-0.4l-0.3-0.4l-0.3-0.5l-0.2-0.5l-0.1-0.5l0-0.2h10.7l0-1.1l-0.1-1.1
		l-0.2-1.1l-0.3-1.1l-0.3-1l-0.3-0.7l-0.4-0.7l-0.5-0.6l-0.5-0.6l-0.6-0.5l-0.5-0.3l-0.7-0.4l-0.7-0.3l-0.8-0.2l-0.8-0.1l-0.8,0
		l-0.8,0l-0.8,0.1l-0.8,0.2l-0.7,0.3l-0.7,0.4L488,264.6L488,264.6z M495.4,270L495.4,270l-0.1-0.6l-0.2-0.5l-0.3-0.5l-0.4-0.4
		l-0.4-0.4l-0.5-0.3l-0.5-0.2l-0.6-0.1l-0.6,0l-0.6,0.1l-0.5,0.2l-0.5,0.3l-0.4,0.4l-0.4,0.4l-0.3,0.5l-0.2,0.5l-0.1,0.5L495.4,270
		L495.4,270z"/>
	<polygon class="st2" points="509.7,275 506.4,279.8 501.5,279.8 507.2,271.3 502.2,263.7 507.1,263.7 509.7,267.6 512.2,263.7 
		517.1,263.7 512.1,271.3 517.8,279.8 512.9,279.8 	"/>
	<polygon class="st2" points="526.7,257.3 522.3,258.6 522.3,263.6 519.7,263.6 519.7,267.3 522.3,267.3 522.3,276.8 522.4,277.4 
		522.5,277.9 522.7,278.4 523,278.9 523.4,279.3 523.9,279.7 524.4,280 524.9,280.1 525.3,280.2 526.4,280.3 527.5,280.3 
		528.5,280.2 529.6,280.1 530.6,279.8 531.4,279.6 530.5,276 529.7,276.2 528.8,276.3 528,276.4 527.7,276.4 527.3,276.2 527.1,276 
		526.9,275.8 526.7,275.4 526.7,275.1 526.7,267.3 530.8,267.3 530.8,263.6 526.7,263.6 	"/>
	<path class="st2" d="M371.1,295L371.1,295l0.6,0l0.6,0.1l0.6,0.2l0.6,0.3l0.5,0.4l0.4,0.5l0.4,0.5l0.3,0.6l0,0.1l0.3,0.8l0.2,0.8
		l0.1,0.5l0.1,1.3l0.1,1.3l0,0.3l0,1.3l-0.1,1.3l0,0.3l-0.2,0.8l-0.2,0.8l-0.2,0.5l-0.3,0.6l-0.4,0.5L374,309l-0.5,0.4l-0.5,0.3
		l-0.6,0.2l-0.6,0.1l-0.6,0h-0.1l-0.6,0l-0.6-0.1l-0.6-0.2l-0.6-0.3l-0.5-0.4l-0.4-0.4l-0.4-0.5l-0.3-0.6l0-0.1l-0.3-0.8l-0.2-0.8
		l-0.1-0.5l-0.1-1.3l0-1.3v-0.3l0-1.3l0.1-1.3l0-0.2l0.2-0.8l0.2-0.8l0.2-0.5l0.3-0.6l0.4-0.5l0.4-0.5l0.5-0.4l0.5-0.3l0.6-0.2
		l0.6-0.1L371.1,295L371.1,295L371.1,295z M371.1,290.8L371.1,290.8l0.7,0l0.9,0.1l0.9,0.2l0.9,0.3l0.8,0.3l0.8,0.4l0.7,0.5l0.7,0.6
		l0.6,0.6l0.1,0.1l0.6,0.9l0.5,0.9l0.4,1l0.3,1l0.2,0.8l0.2,1.2l0.1,1.2l0.1,1.2l0,0.7l0,1.2l-0.1,1.2l-0.2,1.2l-0.2,0.7l-0.3,1
		l-0.4,1l-0.4,0.9l-0.5,0.9l-0.4,0.7l-0.6,0.6l-0.7,0.6L376,313l-0.8,0.4l-0.8,0.3l-0.9,0.3l-0.9,0.2l-0.9,0.1l-0.1,0l-0.7,0l-0.7,0
		l-0.9-0.1l-0.9-0.2l-0.9-0.3l-0.8-0.3l-0.8-0.4l-0.7-0.5l-0.7-0.6l-0.6-0.6l-0.1-0.1l-0.6-0.9l-0.5-0.9l-0.4-1l-0.3-1l-0.2-0.8
		l-0.2-1.2l-0.1-1.2l-0.1-1.2v-0.7l0-1.2l0.1-1.2l0.2-1.2l0.1-0.7l0.3-1l0.4-1l0.4-0.9l0.5-0.9l0.4-0.7l0.6-0.6l0.7-0.6l0.7-0.5
		l0.8-0.4l0.8-0.3l0.9-0.3l0.9-0.2l0.9-0.1l0.1,0L371.1,290.8L371.1,290.8z"/>
	<polygon class="st2" points="383.3,295.6 383.3,291.4 399.2,291.4 399.2,295.6 391.6,313.9 386.6,313.9 394.2,295.6 	"/>
	<path class="st2" d="M417.6,296.6L417.6,296.6l-0.3-0.8l-0.3-0.7l-0.4-0.7l-0.1-0.2l-0.1-0.1l-0.5-0.7l-0.6-0.6l-0.7-0.5l-0.7-0.4
		l-0.4-0.2l-1-0.3l-1-0.2l-1-0.1l-1,0l-1,0.1l-1,0.1l-1,0.2l-0.3,0.1l-0.7,0.3l-0.7,0.4l-0.6,0.5l-0.6,0.6L403,294l-0.4,0.7
		l-0.3,0.7l-0.1,0.2l-0.3,1l-0.2,1l-0.1,1l0,0.7l0,0.9l0.1,0.9l0.2,0.9l0.3,0.8l0.4,0.8l0,0l0.5,0.7l0.6,0.6l0.6,0.5l0.7,0.5
		l0.7,0.4l0.8,0.3l0.8,0.2l0.8,0.1l0.2,0l0.9,0l0.9-0.1l0.9-0.2l0.8-0.3l0.8-0.3l0.8-0.4l0.6-0.4l0,0.7l-0.1,0.7l-0.2,0.7l-0.3,0.6
		l-0.4,0.6l-0.4,0.5l-0.5,0.5l-0.1,0l-0.6,0.3l-0.6,0.2l-0.6,0.1l-0.6,0l-0.6-0.1l-0.6-0.2l-0.1,0l-0.5-0.2l-0.4-0.3l-0.3-0.4
		l-0.3-0.4l-0.2-0.5l0-0.2l-4.3,1.6l0.2,0.7l0.3,0.7l0.4,0.6l0.5,0.6l0.5,0.5l0.6,0.4l0.6,0.4l0.7,0.3l0.8,0.3l0.2,0l1.1,0.2
		l1.1,0.1h1.1l1.1-0.1l0.6-0.1l0.8-0.2l0.6-0.2l0.7-0.4l0.7-0.4l0.7-0.5l0.6-0.6l0.5-0.6l0.5-0.7l0.3-0.5l0.4-0.9l0.3-0.8l0.3-1.2
		l0.2-1.2l0.1-1.2l0.1-1.2l0-1.2l-0.1-1.2l-0.2-1.2l-0.2-1.2l-0.3-1.2l-0.1-0.2L417.6,296.6L417.6,296.6z M413,301.3L413,301.3
		l0.3-0.6l0.2-0.6l0.1-0.6l0-0.5l0-0.6l-0.1-0.6l-0.2-0.6l-0.2-0.4l-0.4-0.5l-0.5-0.4l-0.5-0.3l-0.6-0.2l-0.6-0.1l-0.6,0h0l-0.6,0
		l-0.6,0.1l-0.5,0.2l-0.5,0.3l-0.4,0.4l-0.3,0.4l-0.3,0.6l-0.2,0.6l-0.1,0.6l0,0.5l0,0.6l0.1,0.6l0.2,0.6l0.2,0.4l0.3,0.5l0.4,0.4
		l0.5,0.3l0.5,0.2l0.6,0.1l0.5,0l0.6,0l0.6-0.1l0.6-0.2l0.5-0.3l0.5-0.4L413,301.3L413,301.3L413,301.3z"/>
	<polygon class="st2" points="423.1,303.1 427.8,303.8 428.1,303.3 428.6,302.9 429,302.5 429.6,302.2 430.2,302 430.8,301.8 
		431.4,301.8 432,301.9 432.6,302.1 433.2,302.3 433.7,302.7 434.1,303.1 434.3,303.4 434.6,303.8 434.7,303.9 434.9,304.6 
		435.1,305.3 435.1,306 435.1,306.7 434.9,307.4 434.7,308 434.4,308.5 434,309 433.6,309.4 433.1,309.8 432.6,310 432,310.2 
		431.4,310.3 430.8,310.2 430.2,310.1 429.6,309.9 429.1,309.6 428.6,309.2 428.2,308.7 427.9,308.2 427.7,307.6 427.6,307 
		427.6,306.9 423.1,308.2 423.3,309 423.6,309.8 423.9,310.5 424.4,311.2 424.9,311.8 425.5,312.4 426.1,312.9 426.8,313.3 
		427.3,313.5 428.1,313.9 429,314.2 430,314.3 430.9,314.4 431.9,314.4 432.8,314.3 433.7,314.2 434.6,313.9 435.5,313.6 
		436.2,313.2 436.9,312.8 437.5,312.2 438,311.6 438.5,311 438.9,310.3 439.2,309.5 439.3,309.1 439.5,308.1 439.6,307 439.7,305.8 
		439.7,304.7 439.6,303.6 439.5,303 439.3,302.3 439,301.6 438.9,301.4 438.4,300.7 437.8,300 437.2,299.4 437.1,299.3 436.5,298.8 
		435.7,298.4 435,298 434.2,297.8 433.4,297.6 432.6,297.6 431.7,297.6 430.9,297.7 430.1,298 429.4,298.3 428.6,298.7 428.3,298.9 
		428.8,295.6 438.8,295.6 438.8,291.4 424.8,291.4 	"/>
	<path class="st2" d="M453.2,295L453.2,295l0.6,0l0.6,0.1l0.6,0.2l0.6,0.3l0.5,0.4l0.4,0.5l0.4,0.5l0.3,0.6l0,0.1l0.3,0.8l0.2,0.8
		l0.1,0.5l0.1,1.3l0.1,1.3l0,0.3l0,1.3l-0.1,1.3l0,0.3l-0.2,0.8l-0.2,0.8l-0.2,0.5l-0.3,0.6l-0.4,0.5l-0.4,0.5l-0.5,0.4l-0.5,0.3
		l-0.6,0.2l-0.6,0.1l-0.6,0h-0.1l-0.6,0l-0.6-0.1l-0.6-0.2l-0.6-0.3l-0.5-0.4l-0.4-0.4l-0.4-0.5l-0.3-0.6l0-0.1l-0.3-0.8l-0.2-0.8
		l-0.1-0.5l-0.1-1.3l0-1.3v-0.3l0-1.3l0.1-1.3l0-0.2l0.2-0.8l0.2-0.8l0.2-0.5l0.3-0.6l0.4-0.5l0.4-0.5l0.5-0.4l0.5-0.3l0.6-0.2
		l0.6-0.1L453.2,295L453.2,295L453.2,295z M453.2,290.8L453.2,290.8l0.7,0l0.9,0.1l0.9,0.2l0.9,0.3l0.8,0.3l0.8,0.4l0.7,0.5l0.7,0.6
		l0.6,0.6l0.1,0.1l0.6,0.9l0.5,0.9l0.4,1l0.3,1l0.2,0.8l0.2,1.2l0.1,1.2l0.1,1.2l0,0.7l0,1.2l-0.1,1.2l-0.2,1.2l-0.2,0.7l-0.3,1
		l-0.4,1l-0.4,0.9l-0.5,0.9l-0.4,0.7l-0.6,0.6l-0.7,0.6l-0.7,0.5l-0.8,0.4l-0.8,0.3l-0.9,0.3l-0.9,0.2l-0.9,0.1l-0.1,0l-0.7,0
		l-0.7,0l-0.9-0.1l-0.9-0.2l-0.9-0.3l-0.8-0.3l-0.8-0.4l-0.7-0.5l-0.7-0.6l-0.6-0.6l-0.1-0.1l-0.6-0.9l-0.5-0.9l-0.4-1l-0.3-1
		l-0.2-0.8l-0.2-1.2l-0.1-1.2l-0.1-1.2v-0.7l0-1.2l0.1-1.2l0.2-1.2l0.1-0.7l0.3-1l0.4-1l0.4-0.9l0.5-0.9l0.4-0.7l0.6-0.6l0.7-0.6
		l0.7-0.5l0.8-0.4l0.8-0.3l0.9-0.3l0.9-0.2l0.9-0.1l0.1,0L453.2,290.8L453.2,290.8z"/>
	<path class="st2" d="M486.5,295L486.5,295l0.6,0l0.6,0.1l0.6,0.2l0.6,0.3l0.5,0.4l0.4,0.5l0.4,0.5l0.3,0.6l0,0.1l0.3,0.8l0.2,0.8
		l0.1,0.5l0.1,1.3l0.1,1.3l0,0.3l0,1.3l-0.1,1.3l0,0.3l-0.2,0.8l-0.2,0.8l-0.2,0.5l-0.3,0.6l-0.4,0.5l-0.4,0.5l-0.5,0.4l-0.5,0.3
		l-0.6,0.2l-0.6,0.1l-0.6,0h-0.1l-0.6,0l-0.6-0.1l-0.6-0.2l-0.6-0.3l-0.5-0.4l-0.4-0.4l-0.4-0.5l-0.3-0.6l0-0.1l-0.3-0.8l-0.2-0.8
		l-0.1-0.5l-0.1-1.3l0-1.3v-0.3l0-1.3l0.1-1.3l0-0.2l0.2-0.8l0.2-0.8l0.2-0.5l0.3-0.6l0.4-0.5l0.4-0.5l0.5-0.4l0.5-0.3l0.6-0.2
		l0.6-0.1L486.5,295L486.5,295L486.5,295z M486.5,290.8L486.5,290.8l0.7,0l0.9,0.1l0.9,0.2l0.9,0.3l0.8,0.3l0.8,0.4l0.7,0.5l0.7,0.6
		l0.6,0.6l0.1,0.1l0.6,0.9l0.5,0.9l0.4,1l0.3,1l0.2,0.8l0.2,1.2l0.1,1.2l0.1,1.2l0,0.7l0,1.2l-0.1,1.2l-0.2,1.2l-0.2,0.7l-0.3,1
		l-0.4,1l-0.4,0.9l-0.5,0.9l-0.4,0.7l-0.6,0.6l-0.7,0.6l-0.7,0.5l-0.8,0.4l-0.8,0.3l-0.9,0.3l-0.9,0.2l-0.9,0.1l-0.1,0l-0.7,0
		l-0.7,0l-0.9-0.1l-0.9-0.2l-0.9-0.3l-0.8-0.3l-0.8-0.4l-0.7-0.5l-0.7-0.6l-0.6-0.6l-0.1-0.1l-0.6-0.9l-0.5-0.9l-0.4-1l-0.3-1
		l-0.2-0.8l-0.2-1.2l-0.1-1.2l-0.1-1.2v-0.7l0-1.2l0.1-1.2l0.2-1.2l0.1-0.7l0.3-1l0.4-1l0.4-0.9l0.5-0.9l0.4-0.7l0.6-0.6l0.7-0.6
		l0.7-0.5l0.8-0.4l0.8-0.3l0.9-0.3l0.9-0.2l0.9-0.1l0.1,0L486.5,290.8L486.5,290.8z"/>
	<path class="st2" d="M509.8,314.4L509.8,314.4l1,0l1-0.1l1-0.2l0.9-0.3l0.4-0.2l0.7-0.3l0.7-0.4l0.6-0.5l0.6-0.5l0.2-0.2l0.5-0.7
		l0.4-0.7l0.3-0.8l0.2-0.8l0.1-0.8l0-0.8l-0.1-0.8l-0.1-0.6l-0.2-0.6l-0.3-0.6l-0.4-0.5l-0.4-0.5l-0.5-0.4l-0.6-0.3l-0.6-0.3l-0.1,0
		l0.6-0.3l0.5-0.4l0.5-0.5l0.4-0.5l0.3-0.6l0.2-0.6l0.2-0.6l0.1-0.7l0-0.3l-0.1-0.8l-0.1-0.8l-0.2-0.7l-0.3-0.7l-0.4-0.7l-0.5-0.6
		l-0.6-0.5l-0.4-0.3l-0.8-0.5l-0.8-0.4l-0.9-0.3l-0.9-0.2l-0.9-0.1l-0.9-0.1h-0.2l-0.9,0l-0.9,0.1l-0.9,0.2l-0.9,0.3l-0.9,0.4
		l-0.8,0.5l-0.1,0.1l-0.6,0.5l-0.5,0.6l-0.5,0.6l-0.4,0.7l-0.3,0.7l-0.2,0.7l-0.1,0.8l0,0.5l0,0.7l0.1,0.7l0.2,0.6l0.3,0.6l0.4,0.5
		l0.4,0.5l0.5,0.4l0.6,0.3l0.3,0.1l-0.6,0.3l-0.6,0.3l-0.5,0.4l-0.4,0.5l-0.4,0.5l-0.3,0.6l-0.2,0.6l0,0.1l-0.1,0.8l-0.1,0.8l0,0.8
		l0.1,0.8l0.2,0.8l0.3,0.8l0.4,0.7l0.3,0.5l0.5,0.6l0.6,0.5l0.7,0.4l0.7,0.3l0.2,0.1l0.9,0.3l0.9,0.2l1,0.2l1,0.1L509.8,314.4
		L509.8,314.4z M513.5,307.3L513.5,307.3l0,0.5l-0.1,0.5l-0.2,0.5l-0.3,0.4l-0.3,0.3l-0.1,0.1l-0.5,0.3l-0.3,0.1l-0.8,0.2l-0.8,0.1
		l-0.2,0l-0.8-0.1l-0.8-0.2l-0.2-0.1l-0.5-0.2l-0.3-0.2l-0.3-0.2l-0.1-0.1l-0.3-0.4l-0.2-0.5l-0.1-0.5l0-0.5l0-0.5l0.1-0.5l0.2-0.5
		l0.3-0.4l0.3-0.3l0.1-0.1l0.5-0.3l0.3-0.1l0.8-0.2l0.8-0.1l0.2,0l0.8,0.1l0.8,0.2l0.2,0.1l0.5,0.2l0.3,0.2l0.3,0.2l0.1,0.1l0.3,0.4
		l0.2,0.5l0.1,0.5L513.5,307.3L513.5,307.3z M513.1,297.8L513.1,297.8l0-0.5l-0.1-0.5l-0.2-0.4l-0.2-0.3l-0.3-0.3l-0.4-0.2l-0.1-0.1
		l-0.7-0.2l-0.7-0.1l-0.6,0l-0.7,0.1l-0.7,0.1l-0.6,0.2l-0.4,0.2l-0.3,0.3l-0.1,0.1l-0.3,0.4l-0.2,0.5l-0.1,0.5l0,0.3l0,0.5l0.1,0.5
		l0.2,0.4l0.2,0.3l0.3,0.3l0.4,0.2l0.1,0.1l0.7,0.2l0.7,0.1l0.6,0l0.7-0.1l0.7-0.1l0.6-0.2l0.4-0.2l0.3-0.3l0.1-0.1l0.3-0.4l0.2-0.5
		l0.1-0.5L513.1,297.8L513.1,297.8z"/>
	<path class="st2" d="M532,295L532,295l0.6,0l0.6,0.1l0.6,0.2l0.6,0.3l0.5,0.4l0.4,0.5l0.4,0.5l0.3,0.6l0,0.1l0.3,0.8l0.2,0.8
		l0.1,0.5l0.1,1.3l0.1,1.3l0,0.3l0,1.3l-0.1,1.3l0,0.3l-0.2,0.8l-0.2,0.8l-0.2,0.5l-0.3,0.6l-0.4,0.5L535,309l-0.5,0.4l-0.5,0.3
		l-0.6,0.2l-0.6,0.1l-0.6,0H532l-0.6,0l-0.6-0.1l-0.6-0.2l-0.6-0.3l-0.5-0.4l-0.4-0.4l-0.4-0.5l-0.3-0.6l0-0.1l-0.3-0.8l-0.2-0.8
		l-0.1-0.5l-0.1-1.3l0-1.3v-0.3l0-1.3l0.1-1.3l0-0.2l0.2-0.8l0.2-0.8l0.2-0.5l0.3-0.6l0.4-0.5l0.4-0.5l0.5-0.4l0.5-0.3l0.6-0.2
		l0.6-0.1L532,295L532,295L532,295z M532,290.8L532,290.8l0.7,0l0.9,0.1l0.9,0.2l0.9,0.3l0.8,0.3l0.8,0.4l0.7,0.5l0.7,0.6l0.6,0.6
		l0.1,0.1l0.6,0.9l0.5,0.9l0.4,1l0.3,1l0.2,0.8l0.2,1.2l0.1,1.2l0.1,1.2l0,0.7l0,1.2l-0.1,1.2l-0.2,1.2l-0.2,0.7l-0.3,1l-0.4,1
		l-0.4,0.9l-0.5,0.9l-0.4,0.7l-0.6,0.6l-0.7,0.6L537,313l-0.8,0.4l-0.8,0.3l-0.9,0.3l-0.9,0.2l-0.9,0.1l-0.1,0l-0.7,0l-0.7,0
		l-0.9-0.1l-0.9-0.2l-0.9-0.3l-0.8-0.3l-0.8-0.4l-0.7-0.5l-0.7-0.6l-0.6-0.6l-0.1-0.1l-0.6-0.9l-0.5-0.9l-0.4-1l-0.3-1l-0.2-0.8
		l-0.2-1.2l-0.1-1.2l-0.1-1.2v-0.7l0-1.2l0.1-1.2l0.2-1.2l0.1-0.7l0.3-1l0.4-1l0.4-0.9l0.5-0.9l0.4-0.7l0.6-0.6l0.7-0.6l0.7-0.5
		l0.8-0.4l0.8-0.3l0.9-0.3l0.9-0.2l0.9-0.1l0.1,0L532,290.8L532,290.8z"/>
	<polygon class="st2" points="555.9,302 555.9,302 555.1,302.9 554.2,303.6 553.8,304 552.4,305.1 551,306.1 549.5,307.1 548.1,308 
		545.3,309.7 545.3,313.9 561.2,313.9 561.2,309.7 553.2,309.7 554.6,308.9 555.9,308 557.2,307.1 558,306.4 558.8,305.6 
		559.5,304.7 560.1,303.8 560.5,303.2 560.9,302.4 561.2,301.5 561.4,300.6 561.6,299.7 561.6,298.7 561.6,297.8 561.5,296.9 
		561.2,295.9 560.9,295.1 560.5,294.4 560,293.7 559.5,293 558.9,292.5 558.2,292 558.2,292 557.7,291.7 557.6,291.7 556.9,291.4 
		556.1,291.2 555.9,291.2 554.8,291 553.6,291 552.5,291 551.3,291.1 550.3,291.2 549.6,291.4 548.9,291.7 548.3,292 548,292.2 
		547.3,292.7 546.7,293.4 546.2,294 545.7,294.7 545.3,295.5 545,296.3 544.8,297.1 544.7,298 544.6,298.8 544.6,298.8 544.6,300 
		549.3,300 549.3,299.2 549.4,298.4 549.6,297.7 549.9,297 550.2,296.5 550.5,296.1 551,295.8 551.5,295.5 551.6,295.4 552.3,295.2 
		553,295.1 553.7,295.2 554.4,295.3 555,295.4 555.5,295.7 555.9,296 556.3,296.4 556.6,296.9 556.9,297.4 556.9,297.5 557,298.2 
		557,298.9 557,299.6 556.8,300.2 556.6,300.9 556.4,301.1 556,301.9 	"/>
	<path class="st2" d="M575.4,295L575.4,295l0.6,0l0.6,0.1l0.6,0.2l0.6,0.3l0.5,0.4l0.4,0.5l0.4,0.5l0.3,0.6l0,0.1l0.3,0.8l0.2,0.8
		l0.1,0.5l0.1,1.3l0.1,1.3l0,0.3l0,1.3l-0.1,1.3l0,0.3l-0.2,0.8l-0.2,0.8l-0.2,0.5l-0.3,0.6l-0.4,0.5l-0.4,0.5l-0.5,0.4l-0.5,0.3
		l-0.6,0.2l-0.6,0.1l-0.6,0h-0.1l-0.6,0l-0.6-0.1l-0.6-0.2l-0.6-0.3l-0.5-0.4l-0.4-0.4l-0.4-0.5l-0.3-0.6l0-0.1l-0.3-0.8l-0.2-0.8
		l-0.1-0.5l-0.1-1.3l0-1.3v-0.3l0-1.3l0.1-1.3l0-0.2l0.2-0.8l0.2-0.8l0.2-0.5l0.3-0.6l0.4-0.5l0.4-0.5l0.5-0.4l0.5-0.3l0.6-0.2
		l0.6-0.1L575.4,295L575.4,295L575.4,295z M575.4,290.8L575.4,290.8l0.7,0l0.9,0.1l0.9,0.2l0.9,0.3l0.8,0.3l0.8,0.4l0.7,0.5l0.7,0.6
		l0.6,0.6l0.1,0.1l0.6,0.9l0.5,0.9l0.4,1l0.3,1l0.2,0.8l0.2,1.2l0.1,1.2l0.1,1.2l0,0.7l0,1.2l-0.1,1.2l-0.2,1.2l-0.2,0.7l-0.3,1
		l-0.4,1l-0.4,0.9l-0.5,0.9l-0.4,0.7l-0.6,0.6l-0.7,0.6l-0.7,0.5l-0.8,0.4l-0.8,0.3l-0.9,0.3l-0.9,0.2l-0.9,0.1l-0.1,0l-0.7,0
		l-0.7,0l-0.9-0.1l-0.9-0.2l-0.9-0.3l-0.8-0.3l-0.8-0.4l-0.7-0.5l-0.7-0.6l-0.6-0.6l-0.1-0.1l-0.6-0.9l-0.5-0.9l-0.4-1l-0.3-1
		l-0.2-0.8l-0.2-1.2l-0.1-1.2l-0.1-1.2v-0.7l0-1.2l0.1-1.2l0.2-1.2l0.1-0.7l0.3-1l0.4-1l0.4-0.9l0.5-0.9l0.4-0.7l0.6-0.6l0.7-0.6
		l0.7-0.5l0.8-0.4l0.8-0.3l0.9-0.3l0.9-0.2l0.9-0.1l0.1,0L575.4,290.8L575.4,290.8z"/>
	<polygon class="st2" points="592.3,313.9 592.3,298.7 588.6,298.7 588.6,294.8 590.4,294.6 590.9,294.5 591.3,294.4 591.7,294.1 
		592,293.8 592.3,293.4 592.5,293 592.5,292.9 592.9,291.4 596.9,291.4 596.9,313.9 	"/>
	<path class="st2" d="M365.8,348L365.8,348l-0.8,0.2l-0.8,0.1l-0.8,0l-0.8,0l-0.8-0.1l-0.8-0.2l-0.8-0.3l-0.1,0l-0.7-0.4l-0.6-0.5
		l-0.6-0.6l-0.5-0.6l-0.4-0.7l-0.3-0.7l-0.3-0.9l-0.3-1l-0.2-1l-0.1-1v-1l0.1-1l0.2-1l0.3-1l0.3-0.9l0.1-0.3l0.3-0.6l0.4-0.6
		l0.4-0.5l0,0l0.6-0.5l0.6-0.5l0.7-0.4l0.7-0.3l0.8-0.2l0.8-0.1l0.8-0.1l0.8,0l0.8,0.1l0.8,0.2l0.7,0.3l0.7,0.4l0.6,0.4v-0.8h4.4
		v20.9h-4.4v-5.9l-0.5,0.4l-0.5,0.4l-0.6,0.3L365.8,348L365.8,348z M361.8,335.9L361.8,335.9l0.5-0.3l0.6-0.3l0.6-0.2l0.6-0.1l0.6,0
		l0.6,0.1l0.6,0.2l0.5,0.3l0.3,0.3l0.4,0.4l0.3,0.4l0.2,0.5l0.1,0.5l0,0.1v3.5l-0.1,0.5l-0.1,0.5l-0.2,0.4l-0.2,0.2l-0.4,0.4
		l-0.5,0.4l-0.5,0.3l-0.6,0.2l-0.6,0.1l-0.6,0l-0.6-0.1l-0.4-0.1l-0.5-0.2l-0.5-0.3l-0.4-0.4l-0.3-0.4l-0.3-0.5l0-0.1l-0.2-0.8
		l-0.2-0.8l-0.1-0.8l0-0.8l0.1-0.8l0.2-0.8l0.1-0.3l0.2-0.5l0,0l0.3-0.4L361.8,335.9L361.8,335.9L361.8,335.9z"/>
	<polygon class="st2" points="375.8,331.9 375.8,341.5 375.9,342.4 376,343.2 376.2,344.1 376.6,344.9 376.7,345.1 377.1,345.7 
		377.6,346.3 378.2,346.9 378.8,347.3 379.5,347.7 380.2,348 380.7,348.2 381.4,348.3 381.6,348.4 382.4,348.4 383.1,348.3 
		383.9,348.1 384.6,347.8 385.2,347.5 385.8,347.1 386.1,346.8 386.1,348 390.5,348 390.5,331.9 386.1,331.9 386.1,341.6 
		386.1,342.1 385.9,342.6 385.9,342.6 385.5,343.1 385.2,343.5 384.7,343.8 384.5,343.9 384,344.2 383.4,344.3 382.8,344.3 
		382.2,344.3 382,344.2 381.6,344.1 381.4,344 381,343.6 380.7,343.3 380.5,342.8 380.4,342.6 380.3,342 380.2,341.5 380.2,331.9 
		375.8,331.9 380.2,331.9 	"/>
	<path class="st2" d="M409.7,339.9L409.7,339.9l0-1l-0.1-1l-0.2-1l-0.1-0.5l-0.1-0.2l-0.3-0.8l-0.4-0.7l-0.5-0.7l-0.6-0.6l-0.6-0.6
		l-0.6-0.5l-0.8-0.4l-0.8-0.3l-0.8-0.2l-0.9-0.2l-0.9-0.1h-0.1l-0.9,0.1l-0.9,0.1l-0.8,0.2l-0.8,0.3l-0.8,0.4l0,0l-0.7,0.5l-0.6,0.6
		l-0.6,0.6l-0.5,0.7l-0.4,0.7l-0.3,0.7l-0.1,0.2l-0.2,1l-0.2,1l-0.1,1l0,0.5l0,1l0.1,1l0.2,1l0.1,0.5l0.1,0.2l0.3,0.8l0.4,0.7
		l0.5,0.7l0.6,0.6l0.6,0.6l0.6,0.5l0.8,0.4l0.8,0.3l0.8,0.2l0.9,0.2l0.9,0.1h0.1l0.9-0.1l0.9-0.2l0.8-0.2l0.8-0.3l0.8-0.4l0,0
		l0.7-0.5l0.6-0.6l0.6-0.6l0.5-0.7l0.4-0.7l0.3-0.7l0.1-0.2l0.2-1l0.2-1l0.1-1L409.7,339.9L409.7,339.9z M402.6,335.2L402.6,335.2
		l0.5,0.2l0.5,0.3l0.3,0.3l0.4,0.5l0.4,0.5l0.1,0.2l0.2,0.6l0.1,0.5l0.1,0.9l0,0.8l0,1l-0.1,0.8l-0.2,0.6l-0.2,0.5l-0.4,0.6
		l-0.4,0.5l-0.1,0.1l-0.4,0.3l-0.5,0.3l-0.4,0.1l-0.5,0.1l-0.5,0l-0.4-0.1l-0.5-0.2l-0.5-0.3l-0.3-0.3l-0.4-0.5l-0.4-0.5l-0.1-0.2
		l-0.2-0.6l-0.1-0.5l-0.1-0.9l0-0.8l0-1l0.1-0.8l0.2-0.6l0.2-0.5l0.4-0.6l0.4-0.5l0.1-0.1l0.4-0.3l0.5-0.3l0.4-0.1l0.5-0.1l0.5,0
		L402.6,335.2L402.6,335.2z"/>
	<polygon class="st2" points="419.5,325.5 415.1,326.8 415.1,331.8 412.5,331.8 412.5,335.4 415.1,335.4 415.1,345 415.2,345.5 
		415.3,346.1 415.5,346.6 415.8,347.1 416.2,347.5 416.7,347.8 417.2,348.1 417.7,348.3 418.1,348.4 419.2,348.5 420.3,348.5 
		421.3,348.4 422.4,348.2 423.4,348 424.2,347.8 423.3,344.1 422.5,344.3 421.6,344.5 420.8,344.5 420.5,344.5 420.1,344.4 
		419.9,344.2 419.7,343.9 419.5,343.6 419.5,343.3 419.5,335.4 423.6,335.4 423.6,331.8 419.5,331.8 	"/>
	<path class="st2" d="M427,348v-16.1h4.4V348H427L427,348z M431.8,327.8L431.8,327.8l0-0.5l-0.1-0.5l-0.2-0.4L431,326l-0.4-0.3
		l-0.4-0.2l-0.5-0.1l-0.5,0l-0.5,0l-0.5,0.1l-0.4,0.2l-0.4,0.3l-0.3,0.4l-0.2,0.4l-0.1,0.5l0,0.5l0,0.5l0.1,0.5l0.2,0.4l0.3,0.4
		l0.4,0.3l0.4,0.2l0.5,0.1l0.5,0l0.5,0l0.5-0.1l0.4-0.2l0.4-0.3l0.3-0.4l0.2-0.4l0.1-0.5L431.8,327.8L431.8,327.8z"/>
	<polygon class="st2" points="450.6,348 450.6,338.4 450.6,337.5 450.5,336.6 450.2,335.8 449.9,335 449.8,334.8 449.4,334.1 
		448.9,333.5 448.3,333 447.7,332.5 447,332.1 446.3,331.8 445.8,331.7 445.1,331.5 444.9,331.5 444.1,331.5 443.4,331.6 
		442.6,331.8 441.9,332 441.3,332.4 440.6,332.8 440.4,333 440.4,331.9 436,331.9 436,348 440.4,348 440.4,338.3 440.4,337.7 
		440.6,337.3 440.6,337.2 440.9,336.8 441.3,336.4 441.8,336 441.9,335.9 442.5,335.7 443.1,335.6 443.7,335.5 444.3,335.6 
		444.5,335.6 444.9,335.8 445.1,335.9 445.5,336.2 445.8,336.6 446,337 446.1,337.3 446.2,337.8 446.3,338.4 446.3,348 450.6,348 
		446.3,348 	"/>
	<path class="st2" d="M465,337.9L465,337.9l-0.1-0.5l-0.2-0.4l-0.3-0.4l-0.3-0.3l-0.4-0.2l-0.6-0.3l-0.6-0.2l-0.6-0.1l-0.6,0
		l-0.6,0.1l-0.2,0.1l-0.4,0.2l-0.4,0.3l-0.3,0.4l-0.2,0.3l-0.3,0.7l-0.2,0.7l-0.1,0.7l0,0.7l0.1,0.7l0.1,0.6l0.2,0.5l0.3,0.4
		l0.3,0.4l0.4,0.3l0.5,0.2l0.1,0l0.6,0.2l0.6,0.1l0.6,0l0.6-0.1l0.5-0.2l0.4-0.2l0.4-0.3l0.3-0.4l0.2-0.4l0,0l0.2-0.6l0.1-0.6v-0.1
		V337.9L465,337.9z M462.1,349.3L462.1,349.3l-1.1,0l-1-0.1l-0.6-0.1l-0.8-0.2l-0.8-0.3l-0.8-0.4l-0.7-0.4l-2.1,3.6l1.1,0.5l1.1,0.4
		l1.1,0.4l1.2,0.3l0.9,0.2l1.1,0.1l1.1,0l1.1-0.1l1-0.2l0.3-0.1l0.8-0.2l0.8-0.3l0.8-0.4l0.7-0.5l0.3-0.2l0.5-0.5l0.4-0.6l0.4-0.7
		l0.3-0.7l0.2-0.7l0.1-0.7l0-0.1v-15.5H465v0.8l-0.5-0.4l-0.6-0.3l-0.6-0.2l-0.2,0l-0.8-0.1l-0.9-0.1l-0.9,0l-0.8,0.1l-0.8,0.2
		l-0.5,0.2l-0.7,0.3l-0.6,0.4l-0.6,0.5l-0.5,0.5l-0.4,0.5l-0.4,0.8l-0.4,0.9l-0.3,0.9l0,0l-0.2,0.8l-0.1,0.9l0,0.9l0,0.9l0.1,0.9
		l0.2,0.8l0.1,0.3l0.3,0.7l0.4,0.7l0.5,0.7l0.5,0.6l0.6,0.5l0.3,0.2l0.7,0.4l0.7,0.3l0.7,0.3l0.8,0.2l0.6,0.1l0.9,0l0.9-0.1l0.9-0.1
		l0.4-0.1l0.7-0.3l0.7-0.3l0.1,0v0.9l0,0.4l-0.1,0.4l-0.2,0.4l-0.3,0.3l-0.4,0.3l-0.4,0.2l-0.2,0l-1,0.1L462.1,349.3L462.1,349.3z"
		/>
	<polygon class="st2" points="491.4,347.9 491.4,347.9 490.1,348.1 488.8,348.3 487.6,348.4 487.3,348.4 486.7,348.4 486.2,348.2 
		485.6,348 485.2,347.7 484.7,347.3 484.4,346.9 484.1,346.4 483.9,345.8 483.8,345.3 483.8,345 483.8,325.5 488.2,325.5 
		488.2,343.2 488.2,343.5 488.4,343.7 488.5,343.9 488.8,344.1 489,344.1 489.2,344.2 490.1,344.1 490.9,344 	"/>
	<path class="st2" d="M508.6,339.9L508.6,339.9l0-1l-0.1-1l-0.2-1l-0.1-0.5l-0.1-0.2l-0.3-0.8l-0.4-0.7l-0.5-0.7l-0.6-0.6l-0.6-0.6
		l-0.6-0.5l-0.8-0.4l-0.8-0.3l-0.8-0.2l-0.9-0.2l-0.9-0.1h-0.1l-0.9,0.1l-0.9,0.1l-0.8,0.2l-0.8,0.3l-0.8,0.4l0,0L496,333l-0.6,0.6
		l-0.6,0.6l-0.5,0.7l-0.4,0.7l-0.3,0.7l-0.1,0.2l-0.2,1l-0.2,1l-0.1,1l0,0.5l0,1l0.1,1l0.2,1l0.1,0.5l0.1,0.2l0.3,0.8l0.4,0.7
		l0.5,0.7l0.6,0.6l0.6,0.6l0.6,0.5l0.8,0.4l0.8,0.3l0.8,0.2l0.9,0.2l0.9,0.1h0.1l0.9-0.1l0.9-0.2l0.8-0.2l0.8-0.3l0.8-0.4l0,0
		l0.7-0.5l0.6-0.6l0.6-0.6l0.5-0.7l0.4-0.7l0.3-0.7l0.1-0.2l0.2-1l0.2-1l0.1-1L508.6,339.9L508.6,339.9z M501.5,335.2L501.5,335.2
		l0.5,0.2l0.5,0.3l0.3,0.3l0.4,0.5l0.4,0.5l0.1,0.2l0.2,0.6l0.1,0.5l0.1,0.9l0,0.8l0,1l-0.1,0.8l-0.2,0.6l-0.2,0.5l-0.4,0.6
		l-0.4,0.5l-0.1,0.1l-0.4,0.3l-0.5,0.3l-0.4,0.1l-0.5,0.1l-0.5,0l-0.4-0.1l-0.5-0.2l-0.5-0.3l-0.3-0.3l-0.4-0.5l-0.4-0.5l-0.1-0.2
		l-0.2-0.6l-0.1-0.5l-0.1-0.9l0-0.8l0-1l0.1-0.8l0.2-0.6l0.2-0.5l0.4-0.6l0.4-0.5l0.1-0.1l0.4-0.3l0.5-0.3l0.4-0.1l0.5-0.1l0.5,0
		L501.5,335.2L501.5,335.2z"/>
	<polygon class="st2" points="522.5,338 526.6,336.5 526.6,336.5 526.5,336.3 526.2,335.5 525.8,334.8 525.3,334.1 524.8,333.5 
		524.1,332.9 523.5,332.5 522.7,332 521.9,331.7 521.1,331.5 520.3,331.3 519.4,331.3 519.3,331.3 518.5,331.3 517.6,331.5 
		516.8,331.7 516,332 515.2,332.4 515.2,332.5 514.5,333 513.9,333.5 513.3,334.2 512.8,334.9 512.4,335.6 512.1,336.3 512.1,336.5 
		511.8,337.5 511.7,338.4 511.6,339.4 511.6,339.9 511.6,340.9 511.7,341.9 511.9,342.9 512.1,343.4 512.1,343.6 512.5,344.3 
		512.9,345.1 513.4,345.8 513.9,346.4 514.5,347 515.2,347.4 515.9,347.8 516.7,348.1 517.6,348.4 518.4,348.5 519.3,348.6 
		519.3,348.6 520.2,348.6 521.1,348.4 521.9,348.2 522.7,347.8 523.5,347.4 523.5,347.4 524.2,346.9 524.8,346.3 525.4,345.7 
		525.8,345 526.2,344.3 526.5,343.6 526.6,343.4 522.5,341.9 522.3,342.4 522.2,342.8 521.8,343.3 521.4,343.8 521.3,343.9 
		520.8,344.3 520.4,344.5 520,344.7 519.5,344.7 519.1,344.7 518.7,344.7 518.2,344.5 517.7,344.2 517.4,343.9 517,343.5 
		516.6,342.9 516.5,342.8 516.2,342.2 516.1,341.7 516,340.8 516,339.9 516,339 516.1,338.2 516.3,337.6 516.5,337.1 516.8,336.6 
		517.3,336.1 517.4,335.9 517.8,335.6 518.3,335.3 518.7,335.2 519.1,335.1 519.6,335.1 520,335.2 520.5,335.4 520.9,335.7 
		521.3,335.9 521.7,336.4 522.1,336.9 522.2,337.1 522.4,337.7 	"/>
	<path class="st2" d="M531.2,347.4L531.2,347.4l0.8,0.4l0.8,0.3l0.8,0.2l0.9,0.1l0.9,0l0.9-0.1l0.9-0.2l0.5-0.1l0.5-0.2l0.5-0.3
		l0.4-0.4l0.3-0.3l0.3,0.4l0.3,0.3l0.4,0.2l0.2,0.1l0.8,0.3l0.8,0.2l0.9,0.1l0.2,0l1.6-3.4l-0.4,0l-0.4-0.1l-0.3-0.1l-0.3-0.2
		l-0.2-0.3l-0.2-0.3l-0.1-0.4l0-0.1V336l0-0.6l-0.1-0.6l-0.2-0.6l-0.3-0.5l-0.4-0.5l-0.5-0.4l-0.5-0.3l-0.8-0.4l-0.8-0.3l-0.9-0.2
		l-0.9-0.2l-0.9-0.1l-0.9,0l-0.9,0.1l-0.6,0.1l-1.1,0.3l-1.1,0.4l-1.1,0.5l-1,0.6l-0.5,0.3l2.2,3.3l0.8-0.5l0.9-0.4l0.9-0.3l0.9-0.3
		l0.9-0.2l0.3,0l0.5,0l0.5,0.1l0.5,0.2l0.2,0.1l0.3,0.2l0.2,0.2l0.2,0.3l0.1,0.3l0,0.1v1l-1.2,0l-1.2,0.1l-1.2,0.2l-1.2,0.3
		l-1.2,0.4l-0.9,0.3l-0.6,0.4l-0.5,0.4l-0.5,0.5l-0.4,0.6l-0.3,0.6l-0.2,0.7l-0.1,0.7l0,0.7l0.1,0.7l0.2,0.7l0.3,0.6l0.4,0.6
		l0.4,0.5l0.5,0.5L531.2,347.4L531.2,347.4z M537.2,344.7L537.2,344.7l0.4-0.1l0.3-0.2l0.3-0.3l0.2-0.3l0.1-0.4l0-0.2v-2.3l-1.3,0.2
		l-1.3,0.3l-1.3,0.3l-0.2,0l-0.3,0.2l-0.3,0.2l-0.2,0.3l-0.1,0.3l0,0.4l0,0.4l0.1,0.2l0.2,0.3l0.3,0.3l0.3,0.2l0.4,0.2l0.1,0
		l0.7,0.1l0.7,0l0.7-0.1L537.2,344.7L537.2,344.7z"/>
	<polygon class="st2" points="553.5,325.5 549.1,326.8 549.1,331.8 546.5,331.8 546.5,335.4 549.1,335.4 549.1,345 549.1,345.5 
		549.3,346.1 549.5,346.6 549.8,347.1 550.2,347.5 550.6,347.8 551.1,348.1 551.7,348.3 552.1,348.4 553.1,348.5 554.2,348.5 
		555.3,348.4 556.4,348.2 557.4,348 558.2,347.8 557.2,344.1 556.4,344.3 555.6,344.5 554.8,344.5 554.4,344.5 554.1,344.4 
		553.8,344.2 553.6,343.9 553.5,343.6 553.5,343.3 553.5,335.4 557.5,335.4 557.5,331.8 553.5,331.8 	"/>
	<path class="st2" d="M561,348v-16.1h4.4V348H561L561,348z M565.7,327.8L565.7,327.8l0-0.5l-0.1-0.5l-0.2-0.4L565,326l-0.4-0.3
		l-0.4-0.2l-0.5-0.1l-0.5,0l-0.5,0l-0.5,0.1l-0.4,0.2l-0.4,0.3l-0.3,0.4l-0.2,0.4l-0.1,0.5l0,0.5l0,0.5l0.1,0.5l0.2,0.4l0.3,0.4
		l0.4,0.3l0.4,0.2l0.5,0.1l0.5,0l0.5,0l0.5-0.1l0.4-0.2l0.4-0.3l0.3-0.4l0.2-0.4l0.1-0.5L565.7,327.8L565.7,327.8z"/>
	<path class="st2" d="M584.5,339.9L584.5,339.9l0-1l-0.1-1l-0.2-1l-0.1-0.5l-0.1-0.2l-0.3-0.8l-0.4-0.7l-0.5-0.7l-0.6-0.6l-0.6-0.6
		l-0.6-0.5l-0.8-0.4l-0.8-0.3l-0.8-0.2l-0.9-0.2l-0.9-0.1h-0.1l-0.9,0.1l-0.9,0.1l-0.8,0.2l-0.8,0.3l-0.8,0.4l0,0l-0.7,0.5l-0.6,0.6
		l-0.6,0.6l-0.5,0.7l-0.4,0.7l-0.3,0.7l-0.1,0.2l-0.2,1l-0.2,1l-0.1,1l0,0.5l0,1l0.1,1l0.2,1l0.1,0.5l0.1,0.2l0.3,0.8l0.4,0.7
		l0.5,0.7l0.6,0.6l0.6,0.6l0.6,0.5l0.8,0.4l0.8,0.3l0.8,0.2l0.9,0.2l0.9,0.1h0.1l0.9-0.1l0.9-0.2l0.8-0.2l0.8-0.3l0.8-0.4l0,0
		l0.7-0.5l0.6-0.6l0.6-0.6l0.5-0.7l0.4-0.7l0.3-0.7l0.1-0.2l0.2-1l0.2-1l0.1-1L584.5,339.9L584.5,339.9z M577.4,335.2L577.4,335.2
		l0.5,0.2l0.5,0.3l0.3,0.3l0.4,0.5l0.4,0.5l0.1,0.2l0.2,0.6l0.1,0.5l0.1,0.9l0,0.8l0,1l-0.1,0.8l-0.2,0.6l-0.2,0.5l-0.4,0.6
		l-0.4,0.5l-0.1,0.1l-0.4,0.3l-0.5,0.3l-0.4,0.1l-0.5,0.1l-0.5,0l-0.4-0.1l-0.5-0.2l-0.5-0.3l-0.3-0.3l-0.4-0.5l-0.4-0.5l-0.1-0.2
		l-0.2-0.6l-0.1-0.5l-0.1-0.9l0-0.8l0-1l0.1-0.8l0.2-0.6l0.2-0.5l0.4-0.6l0.4-0.5l0.1-0.1l0.4-0.3l0.5-0.3l0.4-0.1l0.5-0.1l0.5,0
		L577.4,335.2L577.4,335.2z"/>
	<polygon class="st2" points="603.1,348 603.1,338.4 603,337.5 602.9,336.6 602.7,335.8 602.4,335 602.3,334.8 601.8,334.1 
		601.3,333.5 600.8,333 600.2,332.5 599.5,332.1 598.8,331.8 598.3,331.7 597.6,331.5 597.3,331.5 596.6,331.5 595.8,331.6 
		595.1,331.8 594.4,332 593.7,332.4 593.1,332.8 592.8,333 592.8,331.9 588.4,331.9 588.4,348 592.8,348 592.8,338.3 592.9,337.7 
		593,337.3 593.1,337.2 593.4,336.8 593.8,336.4 594.2,336 594.4,335.9 595,335.7 595.6,335.6 596.2,335.5 596.8,335.6 596.9,335.6 
		597.3,335.8 597.5,335.9 597.9,336.2 598.2,336.6 598.5,337 598.5,337.3 598.7,337.8 598.7,338.4 598.7,348 603.1,348 598.7,348 	
		"/>
	<polygon class="st2" points="455.1,368.2 455.1,368.2 454.3,369.1 453.5,369.8 453,370.2 451.6,371.3 450.2,372.3 448.8,373.3 
		447.3,374.2 444.6,375.9 444.6,380.1 460.4,380.1 460.4,375.9 452.5,375.9 453.8,375.1 455.2,374.2 456.4,373.3 457.3,372.6 
		458,371.8 458.7,371 459.4,370.1 459.8,369.5 460.2,368.6 460.5,367.7 460.7,366.8 460.9,365.9 460.9,364.9 460.9,364 460.7,363.1 
		460.5,362.2 460.2,361.4 459.8,360.6 459.3,359.9 458.7,359.3 458.1,358.7 457.4,358.2 457.4,358.2 457,357.9 456.9,357.9 
		456.1,357.6 455.3,357.4 455.2,357.4 454,357.2 452.9,357.2 451.7,357.2 450.6,357.3 449.6,357.5 448.9,357.6 448.2,357.9 
		447.5,358.2 447.2,358.4 446.6,359 446,359.6 445.5,360.2 445,360.9 444.6,361.7 444.3,362.5 444.1,363.3 444,364.2 443.9,365 
		443.9,365.1 443.9,366.2 448.5,366.2 448.5,365.4 448.6,364.7 448.8,363.9 449.1,363.2 449.4,362.8 449.8,362.3 450.2,362 
		450.7,361.7 450.9,361.6 451.6,361.5 452.3,361.4 452.9,361.4 453.6,361.5 454.2,361.7 454.7,361.9 455.2,362.3 455.6,362.7 
		455.9,363.1 456.1,363.6 456.2,363.8 456.3,364.4 456.3,365.1 456.2,365.8 456.1,366.4 455.8,367.1 455.7,367.3 455.2,368.1 	"/>
	<polygon class="st2" points="468.3,380.1 468.3,364.9 464.5,364.9 464.5,361 466.4,360.9 466.9,360.8 467.3,360.6 467.7,360.3 
		468,360 468.2,359.6 468.4,359.2 468.4,359.1 468.8,357.6 472.9,357.6 472.9,380.1 	"/>
	<path class="st2" d="M488.2,361.2L488.2,361.2l0.6,0l0.6,0.1l0.6,0.2l0.6,0.3l0.5,0.4l0.4,0.5l0.4,0.5l0.3,0.6l0,0.1l0.3,0.8
		l0.2,0.8l0.1,0.5l0.1,1.3l0.1,1.3l0,0.3l0,1.3l-0.1,1.3l0,0.3l-0.2,0.8l-0.2,0.8l-0.2,0.5l-0.3,0.6l-0.4,0.5l-0.4,0.5l-0.5,0.4
		l-0.5,0.3l-0.6,0.2l-0.6,0.1l-0.6,0h-0.1l-0.6,0l-0.6-0.1l-0.6-0.2l-0.6-0.3l-0.5-0.4l-0.4-0.4l-0.4-0.5l-0.3-0.6l0-0.1l-0.3-0.8
		l-0.2-0.8l-0.1-0.5l-0.1-1.3l0-1.3v-0.3l0-1.3l0.1-1.3l0-0.2l0.2-0.8l0.2-0.8l0.2-0.5l0.3-0.6l0.4-0.5l0.4-0.5l0.5-0.4l0.5-0.3
		l0.6-0.2l0.6-0.1L488.2,361.2L488.2,361.2L488.2,361.2z M488.2,357L488.2,357l0.7,0l0.9,0.1l0.9,0.2l0.9,0.3l0.8,0.3l0.8,0.4
		l0.7,0.5l0.7,0.6l0.6,0.6l0.1,0.1l0.6,0.9l0.5,0.9l0.4,1l0.3,1l0.2,0.8l0.2,1.2l0.1,1.2l0.1,1.2l0,0.7l0,1.2l-0.1,1.2l-0.2,1.2
		l-0.2,0.7l-0.3,1l-0.4,1l-0.4,0.9l-0.5,0.9l-0.4,0.7l-0.6,0.6l-0.7,0.6l-0.7,0.5l-0.8,0.4l-0.8,0.3l-0.9,0.3l-0.9,0.2l-0.9,0.1
		l-0.1,0l-0.7,0l-0.7,0l-0.9-0.1l-0.9-0.2l-0.9-0.3l-0.8-0.3l-0.8-0.4l-0.7-0.5l-0.7-0.6l-0.6-0.6l-0.1-0.1l-0.6-0.9l-0.5-0.9
		l-0.4-1l-0.3-1l-0.2-0.8l-0.2-1.2l-0.1-1.2l-0.1-1.2v-0.7l0-1.2l0.1-1.2l0.2-1.2l0.1-0.7l0.3-1l0.4-1l0.4-0.9l0.5-0.9l0.4-0.7
		l0.6-0.6l0.7-0.6l0.7-0.5l0.8-0.4l0.8-0.3l0.9-0.3l0.9-0.2l0.9-0.1l0.1,0L488.2,357L488.2,357z"/>
	<polygon class="st2" points="500.4,361.8 500.4,357.6 516.3,357.6 516.3,361.8 508.7,380.1 503.7,380.1 511.3,361.8 	"/>
	<path class="st2" d="M480.5,414.5L480.5,414.5l0-1l-0.1-1l-0.2-1l-0.1-0.5l-0.1-0.2l-0.3-0.8l-0.4-0.7l-0.5-0.7l-0.6-0.6l-0.6-0.6
		l-0.6-0.5l-0.8-0.4l-0.8-0.3l-0.8-0.2l-0.9-0.2l-0.9-0.1h-0.1l-0.9,0.1L471,406l-0.8,0.2l-0.8,0.3l-0.8,0.4l0,0l-0.7,0.5l-0.6,0.6
		l-0.6,0.6l-0.5,0.7l-0.4,0.7l-0.3,0.7l-0.1,0.2l-0.2,1l-0.2,1l-0.1,1l0,0.5l0,1l0.1,1l0.2,1l0.1,0.5l0.1,0.2l0.3,0.8l0.4,0.7
		l0.5,0.7l0.6,0.6l0.6,0.6l0.6,0.5l0.8,0.4l0.8,0.3l0.8,0.2l0.9,0.2l0.9,0.1h0.1l0.9-0.1l0.9-0.2l0.8-0.2l0.8-0.3l0.8-0.4l0,0
		l0.7-0.5l0.6-0.6l0.6-0.6l0.5-0.7l0.4-0.7l0.3-0.7l0.1-0.2l0.2-1l0.2-1l0.1-1L480.5,414.5L480.5,414.5z M473.4,409.8L473.4,409.8
		l0.5,0.2l0.5,0.3l0.3,0.3l0.4,0.5l0.4,0.5l0.1,0.2l0.2,0.6l0.1,0.5l0.1,0.9l0,0.8l0,1l-0.1,0.8l-0.2,0.6l-0.2,0.5l-0.4,0.6
		l-0.4,0.5l-0.1,0.1l-0.4,0.3l-0.5,0.3l-0.4,0.1l-0.5,0.1l-0.5,0l-0.4-0.1l-0.5-0.2l-0.5-0.3l-0.3-0.3l-0.4-0.5l-0.4-0.5l-0.1-0.2
		l-0.2-0.6l-0.1-0.5l-0.1-0.9l0-0.8l0-1l0.1-0.8l0.2-0.6l0.2-0.5l0.4-0.6l0.4-0.5l0.1-0.1l0.4-0.3l0.5-0.3l0.4-0.1l0.5-0.1l0.5,0
		L473.4,409.8L473.4,409.8z"/>
	<polygon class="st2" points="488.9,414 488.9,414 488.9,413.4 489.1,412.8 489.3,412.3 489.7,411.8 490.1,411.3 490.5,411 
		491.1,410.7 491.6,410.5 492.2,410.4 492.5,410.4 494,410.4 494,406.2 493,406.2 492.2,406.2 491.5,406.4 490.8,406.6 490.2,407 
		489.6,407.4 489,407.9 488.9,408.1 488.9,406.5 484.5,406.5 484.5,422.5 488.9,422.5 	"/>
	<path class="st2" d="M381.6,445.2L381.6,445.2l-0.4-0.7l-0.5-0.6l-0.6-0.5l-0.6-0.5l-0.7-0.4l-0.7-0.3l-0.8-0.2l-0.8-0.1l-0.7,0
		H366v22.5h4.6v-7.9h5.1l0.8,0l0.8-0.1l0.8-0.2l0.7-0.3l0.7-0.4l0.6-0.5l0.6-0.5l0.5-0.6l0.4-0.6l0.4-0.7l0.3-0.7l0.2-0.8l0.2-0.8
		l0.1-0.8l0-0.8l-0.1-0.8l-0.2-0.8l-0.3-0.7l-0.4-0.7L381.6,445.2L381.6,445.2z M370.6,452.2h4.5l0.6-0.1l0.5-0.2l0.5-0.2l0.4-0.3
		l0.4-0.4l0.3-0.5l0.2-0.5l0.1-0.5l0-0.1v-0.5l-0.1-0.5l-0.2-0.5l-0.3-0.5l-0.4-0.4l-0.4-0.4l-0.5-0.3l-0.5-0.2l-0.5-0.1l-0.1,0
		h-4.6V452.2L370.6,452.2z"/>
	<path class="st2" d="M387.3,463.8L387.3,463.8l0.8,0.4l0.8,0.3l0.8,0.2l0.9,0.1l0.9,0l0.9-0.1l0.8-0.2l0.5-0.1l0.5-0.2l0.5-0.3
		l0.4-0.4l0.3-0.3l0.3,0.4l0.3,0.3l0.4,0.2l0.2,0.1l0.8,0.3l0.8,0.2l0.9,0.1l0.2,0l1.6-3.4l-0.4,0l-0.4-0.1l-0.3-0.1l-0.3-0.2
		l-0.2-0.3l-0.2-0.3L399,460l0-0.1v-7.6l0-0.6l-0.1-0.6l-0.2-0.6l-0.3-0.5l-0.4-0.5l-0.5-0.4l-0.5-0.3l-0.8-0.4l-0.8-0.3l-0.9-0.2
		l-0.9-0.2l-0.9-0.1l-0.9,0l-0.9,0.1l-0.6,0.1l-1.1,0.3l-1.1,0.4l-1.1,0.5l-1,0.6l-0.5,0.3l2.2,3.3l0.8-0.5l0.9-0.4l0.9-0.3l0.9-0.3
		l0.9-0.2l0.3,0l0.5,0l0.5,0.1l0.5,0.2l0.2,0.1l0.3,0.2l0.2,0.2l0.2,0.3l0.1,0.3l0,0.1v1l-1.2,0l-1.2,0.1l-1.2,0.2l-1.2,0.3
		l-1.2,0.4l-0.9,0.3l-0.6,0.4l-0.5,0.4l-0.5,0.5l-0.4,0.6l-0.3,0.6l-0.2,0.7l-0.1,0.7l0,0.7l0.1,0.7l0.2,0.7l0.3,0.6l0.4,0.6
		l0.4,0.5l0.5,0.5L387.3,463.8L387.3,463.8z M393.3,461L393.3,461l0.4-0.1l0.3-0.2l0.3-0.3l0.2-0.3l0.1-0.4l0-0.2v-2.3l-1.3,0.2
		l-1.3,0.3l-1.3,0.3l-0.2,0l-0.3,0.2l-0.3,0.2l-0.2,0.3l-0.1,0.3l0,0.4l0,0.4l0.1,0.2l0.2,0.3l0.3,0.3l0.3,0.2l0.4,0.2l0.1,0
		l0.7,0.1l0.7,0l0.7-0.1L393.3,461L393.3,461z"/>
	<polygon class="st2" points="406.4,448.3 409.9,458 413.4,448.3 417.8,448.3 411,467.3 410.8,467.8 410.4,468.3 410.1,468.7 
		409.6,469 409.1,469.3 408.6,469.5 408,469.6 407.8,469.6 406.4,469.5 405,469.4 403.7,469.2 403.1,469.2 403.7,465.3 404.9,465.5 
		405.9,465.6 406.3,465.6 406.6,465.5 407,465.3 407.2,465 407.4,464.7 407.5,464.4 407.6,464 407.5,463.7 407.5,463.6 402,448.3 	
		"/>
	<path class="st2" d="M432.2,463.8L432.2,463.8l0.8,0.4l0.8,0.3l0.8,0.2l0.9,0.1l0.9,0l0.9-0.1l0.9-0.2l0.5-0.1l0.5-0.2l0.5-0.3
		l0.4-0.4l0.2-0.3l0.3,0.4l0.3,0.3l0.4,0.2l0.2,0.1l0.8,0.3l0.8,0.2l0.9,0.1l0.2,0l1.6-3.4l-0.4,0l-0.4-0.1l-0.3-0.1l-0.3-0.2
		l-0.2-0.3l-0.2-0.3l-0.1-0.4l0-0.1v-7.6l0-0.6l-0.1-0.6l-0.2-0.6l-0.3-0.5l-0.4-0.5l-0.5-0.4l-0.5-0.3l-0.8-0.4l-0.8-0.3l-0.9-0.2
		l-0.9-0.2l-0.9-0.1l-0.9,0l-0.9,0.1l-0.6,0.1l-1.1,0.3l-1.1,0.4l-1.1,0.5l-1,0.6l-0.5,0.3l2.2,3.3l0.8-0.5l0.9-0.4l0.9-0.3l0.9-0.3
		l0.9-0.2l0.3,0l0.5,0l0.5,0.1l0.5,0.2l0.2,0.1l0.3,0.2l0.2,0.2l0.2,0.3l0.1,0.3l0,0.1v1l-1.2,0l-1.2,0.1l-1.2,0.2l-1.2,0.3
		l-1.2,0.4l-0.9,0.3l-0.6,0.4l-0.5,0.4l-0.5,0.5l-0.4,0.6l-0.3,0.6l-0.2,0.7l-0.1,0.7l0,0.7l0.1,0.7l0.2,0.7l0.3,0.6l0.4,0.6
		l0.4,0.5l0.5,0.5L432.2,463.8L432.2,463.8z M438.2,461L438.2,461l0.4-0.1l0.3-0.2l0.3-0.3l0.2-0.3l0.1-0.4l0-0.2v-2.3l-1.3,0.2
		l-1.3,0.3l-1.3,0.3l-0.2,0l-0.3,0.2l-0.3,0.2l-0.2,0.3l-0.1,0.3l0,0.4l0,0.4l0.1,0.2l0.2,0.3l0.3,0.3l0.3,0.2l0.4,0.2l0.1,0
		l0.7,0.1l0.7,0l0.7-0.1L438.2,461L438.2,461z"/>
	<polygon class="st2" points="454.5,441.8 450.1,443.1 450.1,448.1 447.5,448.1 447.5,451.8 450.1,451.8 450.1,461.3 450.1,461.9 
		450.3,462.4 450.5,463 450.8,463.4 451.2,463.9 451.7,464.2 452.2,464.5 452.7,464.7 453.1,464.7 454.2,464.8 455.3,464.8 
		456.3,464.8 457.4,464.6 458.4,464.4 459.2,464.1 458.3,460.5 457.5,460.7 456.6,460.9 455.8,460.9 455.4,460.9 455.1,460.7 
		454.9,460.5 454.7,460.3 454.5,460 454.5,459.6 454.5,451.8 458.6,451.8 458.6,448.1 454.5,448.1 	"/>
	<polygon class="st2" points="491,464.3 491,454.8 491,454.2 490.9,453.6 490.7,453.2 490.4,452.8 490.1,452.4 489.9,452.3 
		489.5,452.1 489.3,452 489.1,452 488.8,452 488.5,452 487.9,452.2 487.6,452.3 487.1,452.6 486.7,453 486.4,453.4 486.3,453.6 
		486.1,454 486.1,454.1 486,454.7 486,464.3 481.6,464.3 481.6,454.8 481.6,454.2 481.4,453.6 481.3,453.2 481,452.8 480.6,452.4 
		480.4,452.3 480.1,452.1 479.8,452 479.7,452 479.3,452 479.1,452 478.5,452.2 478.2,452.3 477.7,452.6 477.3,453 476.9,453.4 
		476.8,453.6 476.7,454 476.6,454.1 476.6,454.7 476.6,464.3 472.2,464.3 472.2,448.3 476.6,448.3 476.6,449.4 477.2,448.9 
		477.8,448.5 478.5,448.2 479.2,448 480,447.9 480.7,447.9 481.1,447.9 481.8,448 482,448 482.5,448.2 483.1,448.5 483.6,448.8 
		484,449.2 484.4,449.7 484.6,450.1 485.1,449.5 485.6,449 486.2,448.6 486.9,448.3 487.6,448 488.4,447.9 489.1,447.9 489.6,447.9 
		490.3,448 490.6,448 491.3,448.3 492,448.6 492.7,449 493.3,449.5 493.8,450.1 494.3,450.7 494.6,451.2 494.9,452 495.2,452.8 
		495.4,453.6 495.4,454.5 495.4,454.7 495.4,464.3 	"/>
	<path class="st2" d="M501.4,463.8L501.4,463.8l0.8,0.4l0.8,0.3l0.8,0.2l0.9,0.1l0.9,0l0.9-0.1l0.8-0.2l0.5-0.1l0.5-0.2l0.5-0.3
		l0.4-0.4l0.3-0.3l0.3,0.4l0.3,0.3l0.4,0.2l0.2,0.1l0.8,0.3l0.8,0.2l0.9,0.1l0.2,0l1.6-3.4l-0.4,0l-0.4-0.1l-0.3-0.1l-0.3-0.2
		l-0.2-0.3l-0.2-0.3l-0.1-0.4l0-0.1v-7.6l0-0.6l-0.1-0.6l-0.2-0.6l-0.3-0.5l-0.4-0.5l-0.5-0.4l-0.5-0.3l-0.8-0.4l-0.8-0.3l-0.9-0.2
		l-0.9-0.2l-0.9-0.1l-0.9,0l-0.9,0.1l-0.6,0.1l-1.1,0.3l-1.1,0.4l-1.1,0.5l-1,0.6l-0.5,0.3l2.2,3.3l0.8-0.5l0.9-0.4l0.9-0.3l0.9-0.3
		l0.9-0.2l0.3,0l0.5,0l0.5,0.1l0.5,0.2l0.2,0.1l0.3,0.2l0.2,0.2l0.2,0.3l0.1,0.3l0,0.1v1l-1.2,0l-1.2,0.1l-1.2,0.2l-1.2,0.3
		l-1.2,0.4l-0.9,0.3l-0.6,0.4l-0.5,0.4l-0.5,0.5l-0.4,0.6l-0.3,0.6l-0.2,0.7l-0.1,0.7l0,0.7l0.1,0.7l0.2,0.7l0.3,0.6l0.4,0.6
		l0.4,0.5l0.5,0.5L501.4,463.8L501.4,463.8z M507.4,461L507.4,461l0.4-0.1l0.3-0.2l0.3-0.3l0.2-0.3l0.1-0.4l0-0.2v-2.3l-1.3,0.2
		l-1.3,0.3l-1.3,0.3l-0.2,0l-0.3,0.2l-0.3,0.2l-0.2,0.3l-0.1,0.3l0,0.4l0,0.4l0.1,0.2l0.2,0.3l0.3,0.3l0.3,0.2l0.4,0.2l0.1,0
		l0.7,0.1l0.7,0l0.7-0.1L507.4,461L507.4,461z"/>
	<polygon class="st2" points="527.8,454.4 531.9,452.9 531.9,452.9 531.8,452.7 531.5,451.9 531.1,451.2 530.6,450.5 530,449.8 
		529.4,449.3 528.8,448.8 528,448.4 527.2,448.1 526.4,447.8 525.5,447.7 524.7,447.6 524.6,447.6 523.7,447.7 522.9,447.8 
		522,448.1 521.2,448.4 520.5,448.8 520.4,448.8 519.7,449.3 519.1,449.9 518.6,450.5 518.1,451.2 517.7,452 517.4,452.7 
		517.3,452.9 517.1,453.8 516.9,454.8 516.8,455.8 516.8,456.3 516.9,457.3 517,458.3 517.2,459.3 517.3,459.7 517.4,459.9 
		517.7,460.7 518.1,461.4 518.6,462.1 519.2,462.8 519.8,463.3 520.4,463.8 521.2,464.2 522,464.5 522.8,464.8 523.7,464.9 
		524.5,465 524.6,465 525.5,464.9 526.3,464.8 527.2,464.5 528,464.2 528.7,463.8 528.8,463.8 529.5,463.3 530.1,462.7 530.6,462.1 
		531.1,461.4 531.5,460.6 531.8,459.9 531.9,459.7 527.8,458.2 527.6,458.8 527.4,459.1 527.1,459.7 526.7,460.2 526.5,460.3 
		526.1,460.6 525.6,460.9 525.2,461 524.8,461.1 524.3,461.1 524,461 523.5,460.8 523,460.6 522.7,460.3 522.2,459.8 521.8,459.3 
		521.8,459.1 521.5,458.6 521.4,458.1 521.3,457.1 521.2,456.3 521.3,455.3 521.4,454.5 521.5,453.9 521.8,453.5 522.1,452.9 
		522.5,452.4 522.7,452.3 523.1,452 523.6,451.7 524,451.6 524.4,451.5 524.9,451.5 525.2,451.6 525.7,451.8 526.2,452 526.5,452.3 
		527,452.8 527.4,453.3 527.4,453.5 527.7,454 	"/>
	<polygon class="st2" points="549.7,464.3 549.7,454.7 549.6,453.9 549.5,453 549.3,452.2 549,451.4 548.9,451.2 548.4,450.5 
		547.9,449.9 547.4,449.4 546.7,448.9 546.1,448.5 545.4,448.2 544.9,448 544.2,447.9 543.9,447.9 543.2,447.9 542.4,447.9 
		541.7,448.1 541,448.4 540.3,448.7 539.7,449.2 539.4,449.4 539.4,441.8 535,441.8 535,464.3 539.4,464.3 539.4,454.7 539.5,454.1 
		539.6,453.7 539.7,453.6 540,453.1 540.4,452.7 540.8,452.4 541,452.3 541.6,452.1 542.2,451.9 542.8,451.9 543.4,452 543.5,452 
		543.9,452.1 544.1,452.3 544.5,452.6 544.8,453 545.1,453.4 545.1,453.6 545.3,454.2 545.3,454.8 545.3,464.3 549.7,464.3 
		545.3,464.3 	"/>
	<path class="st2" d="M554.1,464.3v-16.1h4.4v16.1H554.1L554.1,464.3z M558.8,444.2L558.8,444.2l0-0.5l-0.1-0.5l-0.2-0.4l-0.3-0.4
		l-0.4-0.3l-0.4-0.2l-0.5-0.1l-0.5,0l-0.5,0l-0.5,0.1l-0.4,0.2l-0.4,0.3l-0.3,0.4l-0.2,0.4l-0.1,0.5l0,0.5l0,0.5l0.1,0.5l0.2,0.4
		l0.3,0.4l0.4,0.3l0.4,0.2l0.5,0.1l0.5,0l0.5,0l0.5-0.1l0.4-0.2l0.4-0.3l0.3-0.4l0.2-0.4l0.1-0.5L558.8,444.2L558.8,444.2z"/>
	<polygon class="st2" points="577.7,464.3 577.7,454.7 577.6,453.9 577.5,453 577.3,452.2 576.9,451.4 576.8,451.2 576.4,450.5 
		575.9,449.9 575.3,449.4 574.7,448.9 574,448.5 573.3,448.2 572.8,448 572.1,447.9 571.9,447.9 571.1,447.9 570.4,447.9 
		569.6,448.1 568.9,448.4 568.3,448.7 567.7,449.2 567.4,449.4 567.4,448.3 563,448.3 563,464.3 567.4,464.3 567.4,454.7 
		567.4,454.1 567.6,453.7 567.6,453.6 567.9,453.1 568.3,452.7 568.8,452.4 569,452.3 569.5,452.1 570.1,451.9 570.7,451.9 
		571.3,452 571.5,452 571.9,452.1 572.1,452.3 572.5,452.6 572.8,453 573,453.4 573.1,453.6 573.2,454.2 573.3,454.8 573.3,464.3 
		577.7,464.3 573.3,464.3 	"/>
	<path class="st2" d="M584.7,449.1L584.7,449.1l-0.7,0.5l-0.6,0.6l-0.5,0.6l-0.5,0.7l-0.2,0.4l-0.3,0.9l-0.3,0.9l-0.2,0.9l-0.1,0.9
		l0,0.9l0.1,0.9l0.2,0.9l0.2,0.9l0.3,0.9l0.2,0.3l0.4,0.7l0.5,0.7l0.5,0.6l0.6,0.6l0.7,0.5l0.7,0.4l0.8,0.3l0.8,0.2l1,0.2l1,0.1h1
		l1-0.1l1-0.2l0.4-0.1l0.7-0.3l0.7-0.3l0.7-0.4l0.6-0.5l0.5-0.6l0.2-0.2l-2.7-2.7l-0.5,0.5l-0.6,0.4l-0.6,0.3l-0.3,0.1l-0.7,0.2
		l-0.7,0.1l-0.7,0l-0.7-0.1l-0.7-0.2l-0.3-0.1l-0.5-0.3l-0.4-0.4l-0.3-0.4l-0.3-0.5l-0.2-0.5l-0.1-0.5l0-0.2h10.7l0-1.1l-0.1-1.1
		l-0.2-1.1l-0.3-1.1l-0.3-1l-0.3-0.7l-0.4-0.7l-0.5-0.6l-0.5-0.6l-0.6-0.5l-0.5-0.3l-0.7-0.4l-0.7-0.3l-0.8-0.2l-0.8-0.1l-0.8,0
		l-0.8,0L587,448l-0.8,0.2l-0.7,0.3l-0.7,0.4L584.7,449.1L584.7,449.1z M592,454.5L592,454.5l-0.1-0.6l-0.2-0.5l-0.3-0.5l-0.4-0.4
		l-0.4-0.4l-0.5-0.3l-0.5-0.2l-0.6-0.1l-0.6,0l-0.6,0.1l-0.5,0.2l-0.5,0.3l-0.4,0.4l-0.4,0.4l-0.3,0.5l-0.2,0.5l-0.1,0.5L592,454.5
		L592,454.5z"/>
	<polygon class="st2" points="447.9,494.9 463.9,478.8 480,478.8 469.3,489.5 512.1,489.5 512.1,500.2 469.3,500.2 480,510.9 
		463.9,510.9 	"/>
	<path class="st2" d="M391.2,542L391.2,542l-0.2,0.7l-0.3,0.6l-0.4,0.6l-0.5,0.5l-0.5,0.5l-0.6,0.4l-0.6,0.3l-0.7,0.2l-0.7,0.1
		l-0.6,0h-3.9v-13.5h3.9l0.7,0l0.7,0.2l0.7,0.2l0.7,0.3l0.6,0.4l0.5,0.5l0.5,0.6l0.4,0.6l0.3,0.7l0.2,0.6l0.2,1l0.1,1l0,1l-0.1,1
		l-0.2,1L391.2,542L391.2,542z M377.5,550.5h8.3h0.1l1,0l0.9-0.1l0.9-0.2l0.9-0.3l0.9-0.4l0.8-0.5l0.8-0.6l0.7-0.6l0.7-0.7l0.6-0.8
		l0.5-0.8l0.4-0.9l0.4-0.9l0.3-0.9l0.1-0.5l0.2-1.1l0.1-1.1l0-1.1l-0.1-1.1l-0.1-1.1l-0.1-0.4l-0.2-0.9l-0.3-0.9l-0.4-0.9l-0.5-0.8
		l-0.6-0.8l-0.6-0.7l-0.7-0.7l-0.8-0.6l-0.8-0.5l-0.9-0.4l-0.9-0.4l-0.9-0.3l-0.9-0.2l-1-0.1l-0.5,0h-8.5L377.5,550.5L377.5,550.5z"
		/>
	<path class="st2" d="M399.9,550.5v-16.1h4.4v16.1H399.9L399.9,550.5z M404.6,530.3L404.6,530.3l0-0.5l-0.1-0.5l-0.2-0.4l-0.3-0.4
		l-0.4-0.3l-0.4-0.2l-0.5-0.1l-0.5,0l-0.5,0l-0.5,0.1l-0.4,0.2l-0.4,0.3l-0.3,0.4l-0.2,0.4l-0.1,0.5l0,0.5l0,0.5l0.1,0.5l0.2,0.4
		l0.3,0.4l0.4,0.3l0.4,0.2l0.5,0.1l0.5,0l0.5,0l0.5-0.1l0.4-0.2l0.4-0.3l0.3-0.4l0.2-0.4l0.1-0.5L404.6,530.3L404.6,530.3z"/>
	<polygon class="st2" points="414.8,547.3 414.8,547.3 414.1,547.2 413.3,547 412.6,546.7 411.9,546.4 411.3,545.9 410.7,545.4 
		410.4,545 407.2,548 407.8,548.6 408.5,549.2 409.3,549.7 410.1,550.1 410.9,550.4 411.7,550.6 412.7,550.8 413.7,550.9 414.7,551 
		415.7,550.9 416.7,550.8 417.7,550.5 418.5,550.3 419.2,549.9 419.8,549.4 420.3,548.9 420.7,548.3 421.1,547.6 421.2,547.4 
		421.4,546.7 421.5,546 421.6,545.3 421.5,544.7 421.3,544 421,543.3 420.7,542.7 420.2,542.2 419.7,541.7 419.2,541.3 418.9,541.2 
		418.2,540.9 417.6,540.7 417.6,540.7 417,540.6 415.4,540.4 415.3,540.4 414.1,540.2 413.4,540 413.2,539.9 413,539.8 412.9,539.5 
		412.7,539.3 412.7,539 412.8,538.7 412.9,538.4 413,538.2 413.4,537.9 413.9,537.7 414.4,537.5 414.6,537.5 415.1,537.5 
		415.7,537.6 416.2,537.7 416.9,538 417.6,538.4 418.2,538.9 418.7,539.2 421.4,536.4 420.7,535.8 420,535.3 419.2,534.8 
		418.4,534.5 417.5,534.2 417.5,534.2 416.6,534 415.6,533.9 414.7,533.9 413.7,534 412.8,534.2 412.3,534.3 411.6,534.5 411,534.8 
		410.3,535.2 409.8,535.6 409.3,536.2 409.3,536.2 408.9,536.8 408.6,537.4 408.4,538.1 408.3,538.8 408.3,539.5 408.4,540.2 
		408.5,540.9 408.6,541.1 409,541.8 409.5,542.3 410,542.8 410.6,543.2 411.2,543.5 411.8,543.8 412.9,544 413.2,544.1 414.2,544.3 
		415.1,544.4 415.9,544.7 416.5,544.9 416.7,545.1 416.9,545.3 417,545.6 417,545.9 417,546.2 416.9,546.4 416.7,546.7 416.6,546.8 
		416.2,547.1 415.8,547.2 415.6,547.3 415.1,547.3 	"/>
	<path class="st2" d="M434.8,538.4L434.8,538.4l-0.5-0.3l-0.6-0.3l-0.6-0.2l-0.6-0.1l-0.6,0l-0.6,0.1l-0.6,0.2l-0.5,0.3l-0.3,0.3
		l-0.4,0.4l-0.3,0.4l-0.2,0.5l-0.1,0.5l0,0.1v3.5l0.1,0.5l0.1,0.5l0.2,0.4l0.2,0.2l0.4,0.4l0.5,0.4l0.5,0.3l0.6,0.2l0.6,0.1l0.6,0
		l0.6-0.1l0.4-0.1l0.5-0.2l0.5-0.3l0.4-0.4l0.3-0.4l0.3-0.5l0-0.1l0.2-0.8l0.2-0.8l0.1-0.8l0-0.8l-0.1-0.8l-0.2-0.8l-0.1-0.3
		l-0.2-0.5l0,0l-0.3-0.4L434.8,538.4L434.8,538.4L434.8,538.4z M430.8,550.5L430.8,550.5l0.8,0.2l0.8,0.1l0.8,0l0.8,0l0.8-0.1
		l0.8-0.2l0.8-0.3l0.1,0l0.7-0.4l0.6-0.5l0.6-0.6l0.5-0.6l0.4-0.7l0.3-0.7l0.3-0.9l0.3-1l0.2-1l0.1-1v-1l-0.1-1l-0.2-1l-0.3-1
		l-0.3-0.9l-0.1-0.3l-0.3-0.6l-0.4-0.6l-0.4-0.5l0,0l-0.6-0.5l-0.6-0.5l-0.7-0.4l-0.7-0.3l-0.8-0.2l-0.8-0.1l-0.8-0.1l-0.8,0
		l-0.8,0.1l-0.8,0.2l-0.7,0.3l-0.7,0.4l-0.6,0.4v-0.8h-4.4v20.9h4.4v-5.9l0.5,0.4l0.5,0.4l0.6,0.3L430.8,550.5L430.8,550.5z"/>
	<polygon class="st2" points="451.6,550.4 451.6,550.4 450.3,550.6 449.1,550.8 447.8,550.9 447.5,550.9 446.9,550.9 446.4,550.7 
		445.9,550.5 445.4,550.2 445,549.8 444.6,549.4 444.3,548.9 444.1,548.3 444,547.8 444,547.5 444,528 448.4,528 448.4,545.7 
		448.5,546 448.6,546.2 448.8,546.4 449,546.6 449.3,546.7 449.4,546.7 450.3,546.6 451.1,546.5 	"/>
	<path class="st2" d="M455.7,549.9L455.7,549.9l0.8,0.4l0.8,0.3l0.8,0.2l0.9,0.1l0.9,0l0.9-0.1l0.8-0.2l0.5-0.1l0.5-0.2l0.5-0.3
		l0.4-0.4l0.3-0.3l0.3,0.4l0.3,0.3l0.4,0.2l0.2,0.1l0.8,0.3l0.8,0.2l0.9,0.1l0.2,0l1.6-3.4l-0.4,0l-0.4-0.1l-0.3-0.1l-0.3-0.2
		l-0.2-0.3l-0.2-0.3l-0.1-0.4l0-0.1v-7.6l0-0.6l-0.1-0.6l-0.2-0.6l-0.3-0.5l-0.4-0.5l-0.5-0.4l-0.5-0.3l-0.8-0.4l-0.8-0.3l-0.9-0.2
		l-0.9-0.2l-0.9-0.1l-0.9,0l-0.9,0.1l-0.6,0.1l-1.1,0.3l-1.1,0.4l-1.1,0.5l-1,0.6l-0.5,0.3l2.2,3.3l0.8-0.5l0.9-0.4l0.9-0.3l0.9-0.3
		l0.9-0.2l0.3,0l0.5,0l0.5,0.1l0.5,0.2l0.2,0.1l0.3,0.2l0.2,0.2l0.2,0.3l0.1,0.3l0,0.1v1l-1.2,0l-1.2,0.1l-1.2,0.2l-1.2,0.3
		l-1.2,0.4l-0.9,0.3l-0.6,0.4l-0.5,0.4l-0.5,0.5l-0.4,0.6l-0.3,0.6l-0.2,0.7l-0.1,0.7l0,0.7l0.1,0.7l0.2,0.7l0.3,0.6l0.4,0.6
		l0.4,0.5l0.5,0.5L455.7,549.9L455.7,549.9z M461.7,547.2L461.7,547.2l0.4-0.1l0.3-0.2l0.3-0.3l0.2-0.3l0.1-0.4l0-0.2v-2.3l-1.3,0.2
		l-1.3,0.3l-1.3,0.3l-0.2,0l-0.3,0.2l-0.3,0.2l-0.2,0.3l-0.1,0.3l0,0.4l0,0.4l0.1,0.2l0.2,0.3l0.3,0.3l0.3,0.2l0.4,0.2l0.1,0
		l0.7,0.1l0.7,0l0.7-0.1L461.7,547.2L461.7,547.2z"/>
	<polygon class="st2" points="474.8,534.4 478.3,544.1 481.8,534.4 486.3,534.4 479.4,553.5 479.2,554 478.9,554.4 478.5,554.9 
		478,555.2 477.5,555.5 477,555.6 476.4,555.7 476.2,555.7 474.8,555.7 473.5,555.6 472.1,555.4 471.6,555.3 472.1,551.4 
		473.4,551.6 474.4,551.7 474.7,551.7 475.1,551.6 475.4,551.4 475.6,551.2 475.8,550.9 476,550.5 476,550.2 475.9,549.8 
		475.9,549.7 470.4,534.4 	"/>
	<polygon class="st2" points="505.1,528 500.7,529.3 500.7,534.3 498.1,534.3 498.1,537.9 500.7,537.9 500.7,547.5 500.7,548 
		500.9,548.6 501.1,549.1 501.4,549.6 501.8,550 502.2,550.3 502.7,550.6 503.3,550.8 503.7,550.9 504.8,551 505.8,551 506.9,550.9 
		508,550.7 509,550.5 509.8,550.3 508.8,546.6 508,546.9 507.2,547 506.4,547.1 506,547 505.7,546.9 505.5,546.7 505.3,546.4 
		505.1,546.1 505.1,545.8 505.1,537.9 509.2,537.9 509.2,534.3 505.1,534.3 	"/>
	<path class="st2" d="M512.6,550.5v-16.1h4.4v16.1H512.6L512.6,550.5z M517.4,530.3L517.4,530.3l0-0.5l-0.1-0.5l-0.2-0.4l-0.3-0.4
		l-0.4-0.3l-0.4-0.2l-0.5-0.1l-0.5,0l-0.5,0l-0.5,0.1l-0.4,0.2l-0.4,0.3l-0.3,0.4l-0.2,0.4l-0.1,0.5l0,0.5l0,0.5l0.1,0.5l0.2,0.4
		l0.3,0.4l0.4,0.3l0.4,0.2l0.5,0.1l0.5,0l0.5,0l0.5-0.1l0.4-0.2l0.4-0.3l0.3-0.4l0.2-0.4l0.1-0.5L517.4,530.3L517.4,530.3z"/>
	<polygon class="st2" points="531.5,540.5 535.6,539 535.6,539 535.5,538.8 535.2,538 534.8,537.3 534.3,536.6 533.8,536 
		533.1,535.4 532.5,535 531.8,534.6 530.9,534.2 530.1,534 529.3,533.8 528.4,533.8 528.3,533.8 527.5,533.8 526.6,534 525.8,534.2 
		525,534.5 524.2,534.9 524.2,535 523.5,535.5 522.9,536 522.3,536.7 521.8,537.4 521.4,538.1 521.1,538.8 521.1,539 520.8,540 
		520.7,540.9 520.6,541.9 520.6,542.4 520.6,543.4 520.7,544.4 520.9,545.4 521.1,545.9 521.1,546.1 521.5,546.8 521.9,547.6 
		522.4,548.3 522.9,548.9 523.5,549.5 524.2,549.9 524.9,550.3 525.7,550.7 526.6,550.9 527.4,551.1 528.3,551.1 528.3,551.1 
		529.2,551.1 530.1,550.9 530.9,550.7 531.7,550.4 532.5,549.9 532.5,549.9 533.2,549.4 533.8,548.8 534.4,548.2 534.8,547.5 
		535.2,546.8 535.5,546.1 535.6,545.9 531.5,544.4 531.3,544.9 531.2,545.3 530.8,545.8 530.4,546.3 530.3,546.4 529.8,546.8 
		529.4,547 529,547.2 528.5,547.3 528.1,547.2 527.7,547.2 527.2,547 526.7,546.7 526.4,546.4 526,546 525.6,545.4 525.5,545.3 
		525.2,544.7 525.1,544.2 525,543.3 525,542.4 525,541.5 525.1,540.7 525.3,540.1 525.5,539.6 525.8,539.1 526.3,538.6 526.4,538.4 
		526.8,538.1 527.3,537.9 527.7,537.7 528.1,537.6 528.6,537.6 529,537.7 529.5,537.9 529.9,538.2 530.3,538.4 530.7,538.9 
		531.1,539.4 531.2,539.6 531.4,540.2 	"/>
	<polygon class="st2" points="548.8,550.5 544.8,544.2 543.1,546 543.1,550.5 538.7,550.5 538.7,528 543.1,528 543.1,540 
		548.7,534.4 554.5,534.4 548,541 554,550.5 	"/>
	<path class="st2" d="M559.6,535.2L559.6,535.2l-0.7,0.5l-0.6,0.6l-0.5,0.6l-0.5,0.7l-0.2,0.4l-0.3,0.9l-0.3,0.9l-0.2,0.9l-0.1,0.9
		l0,0.9l0.1,0.9l0.2,0.9l0.2,0.9l0.3,0.9l0.2,0.3l0.4,0.7l0.5,0.7l0.5,0.6l0.6,0.6l0.7,0.5l0.7,0.4l0.8,0.3l0.8,0.2l1,0.2l1,0.1h1
		l1-0.1l1-0.2l0.4-0.1l0.7-0.3l0.7-0.3l0.7-0.4l0.6-0.5l0.5-0.6l0.2-0.2l-2.7-2.7l-0.5,0.5l-0.6,0.4l-0.6,0.3l-0.3,0.1l-0.7,0.2
		l-0.7,0.1l-0.7,0l-0.7-0.1l-0.7-0.2l-0.3-0.1l-0.5-0.3l-0.4-0.4l-0.3-0.4l-0.3-0.5l-0.2-0.5l-0.1-0.5l0-0.2h10.7l0-1.1l-0.1-1.1
		l-0.2-1.1l-0.3-1.1l-0.3-1l-0.3-0.7l-0.4-0.7l-0.5-0.6l-0.5-0.6l-0.6-0.5l-0.5-0.3l-0.7-0.4l-0.7-0.3l-0.8-0.2l-0.8-0.1l-0.8,0
		l-0.8,0l-0.8,0.1l-0.8,0.2l-0.7,0.3l-0.7,0.4L559.6,535.2L559.6,535.2z M567,540.6L567,540.6l-0.1-0.6l-0.2-0.5l-0.3-0.5l-0.4-0.4
		l-0.4-0.4l-0.5-0.3l-0.5-0.2l-0.6-0.1l-0.6,0l-0.6,0.1l-0.5,0.2l-0.5,0.3l-0.4,0.4l-0.4,0.4l-0.3,0.5l-0.2,0.5l-0.1,0.5L567,540.6
		L567,540.6z"/>
	<polygon class="st2" points="580.6,528 576.2,529.3 576.2,534.3 573.7,534.3 573.7,537.9 576.2,537.9 576.2,547.5 576.3,548 
		576.4,548.6 576.6,549.1 577,549.6 577.3,550 577.8,550.3 578.3,550.6 578.8,550.8 579.2,550.9 580.3,551 581.4,551 582.5,550.9 
		583.5,550.7 584.6,550.5 585.3,550.3 584.4,546.6 583.6,546.9 582.8,547 581.9,547.1 581.6,547 581.3,546.9 581,546.7 580.8,546.4 
		580.7,546.1 580.6,545.8 580.6,537.9 584.7,537.9 584.7,534.3 580.6,534.3 	"/>
	<path class="st2" d="M333.9,81.3L333.9,81.3l0-1l0.1-1l0.2-1l0.3-1l0.4-0.9l0.5-0.9l0.5-0.9l0.6-0.8l0.7-0.8l0.7-0.7l0.8-0.6
		l0.8-0.6l0.9-0.5l0.9-0.4l1-0.3l1-0.3l1-0.2l1-0.1l0.5,0h268.2l1,0l1,0.1l1,0.2l1,0.3l0.9,0.4l0.9,0.5l0.9,0.5l0.8,0.6l0.8,0.7
		l0.7,0.7l0.6,0.8l0.6,0.8l0.5,0.9l0.4,0.9l0.3,1l0.3,1l0.2,1l0.1,1l0,0.5v477.3l0,1l-0.1,1l-0.2,1l-0.3,1l-0.4,0.9l-0.5,0.9
		l-0.5,0.9l-0.6,0.8l-0.7,0.8l-0.7,0.7l-0.8,0.6l-0.8,0.6l-0.9,0.5l-0.9,0.4l-1,0.3l-1,0.3l-1,0.2l-1,0.1l-0.5,0H345.9l-1,0l-1-0.1
		l-1-0.2l-1-0.3l-0.9-0.4l-0.9-0.5l-0.9-0.5l-0.8-0.6l-0.8-0.7l-0.7-0.7l-0.6-0.8l-0.6-0.8l-0.5-0.9l-0.4-0.9l-0.3-1l-0.3-1l-0.2-1
		l-0.1-1l0-0.5V81.3L333.9,81.3z M339.9,81.3L339.9,81.3l0-0.8l0.1-0.7l0.2-0.7l0.3-0.7l0.4-0.6l0.5-0.6l0.6-0.5l0.6-0.4l0.7-0.4
		l0.7-0.3l0.7-0.2l0.8-0.1l0.4,0h268.2l0.8,0l0.7,0.1l0.7,0.2l0.7,0.3l0.6,0.4l0.6,0.5l0.5,0.6l0.4,0.6l0.4,0.7l0.3,0.7l0.2,0.7
		l0.1,0.8l0,0.4v477.3l0,0.8l-0.1,0.7l-0.2,0.7l-0.3,0.7l-0.4,0.6l-0.5,0.6l-0.6,0.5l-0.6,0.4l-0.7,0.4l-0.7,0.3l-0.7,0.2l-0.8,0.1
		l-0.4,0H345.9l-0.8,0l-0.7-0.1l-0.7-0.2L343,564l-0.6-0.4l-0.6-0.5l-0.5-0.6l-0.4-0.6l-0.4-0.7l-0.3-0.7l-0.2-0.7l-0.1-0.8l0-0.4
		L339.9,81.3L339.9,81.3z"/>
</g>
</svg>
