<?xml version="1.0" encoding="utf-8"?>
<!-- Generator: Adobe Illustrator 26.0.2, SVG Export Plug-In . SVG Version: 6.00 Build 0)  -->
<svg version="1.1" id="Layer_1" xmlns="http://www.w3.org/2000/svg" xmlns:xlink="http://www.w3.org/1999/xlink" x="0px" y="0px"
	 viewBox="0 0 960 640" style="enable-background:new 0 0 960 640;" xml:space="preserve">
<style type="text/css">
	.st0{fill-rule:evenodd;clip-rule:evenodd;}
	.st1{fill-rule:evenodd;clip-rule:evenodd;fill:#FFFFFF;}
	.st2{fill-rule:evenodd;clip-rule:evenodd;fill:#006FB6;}
</style>
<g>
	<path class="st0" d="M480,97.2H321.9c-9,0-16.3,7.3-16.3,16.3v413c0,9,7.3,16.3,16.3,16.3h316.2c9,0,16.3-7.3,16.3-16.3v-413
		c0-9-7.3-16.3-16.3-16.3H480L480,97.2z"/>
	<path class="st1" d="M480,105.3H321.9c-4.5,0-8.2,3.7-8.2,8.2v413c0,4.5,3.7,8.2,8.2,8.2h316.2c4.5,0,8.2-3.7,8.2-8.2v-413
		c0-4.5-3.7-8.2-8.2-8.2H480L480,105.3z"/>
	<polygon class="st0" points="526.7,436.2 518,436.2 518,466.8 524.1,466.8 524.1,454.4 536.6,454.4 536.6,448.7 524.1,448.7 
		524.1,442.1 537.9,442.1 537.9,436.2 531.6,436.2 	"/>
	<path class="st0" d="M555.4,449.9v-5.3l0,0c-5.3-0.2-6.3,1.3-7.5,2.6l0,0v-2.2h-5.7v21.9h5.7v-10.9l0,0
		C547.8,452.6,551.3,449.9,555.4,449.9L555.4,449.9z"/>
	<polygon class="st0" points="425.6,453.7 425.6,466.8 419.7,466.8 419.7,444.3 410.5,457.4 401.1,444.5 401.1,466.8 395.2,466.8 
		395.2,436.2 402.8,436.2 410.5,447.1 418.1,436.2 425.6,436.2 425.6,445.1 	"/>
	<path class="st0" d="M477.9,452.4v14.4h-5.5V453l0,0c0-1.7-1.3-3.1-3.7-3.1s-4.6,2-4.6,5l0,0v12h-5.7v-21.9h5.7v1.7l0,0
		c0,0,2.2-2,5.3-2C474.6,444.5,477.9,448.6,477.9,452.4L477.9,452.4z"/>
	<path class="st0" d="M442.7,449.1c-2.2,0-5,2.2-5,7c0,4.6,2.8,6.8,5,6.8l0,0c2.4,0,5.2-2.2,5.2-6.8
		C447.9,451.3,445.1,449.1,442.7,449.1L442.7,449.1z M442.7,444.1c-5.2,0-10.5,4.2-10.5,11.8c0,7.6,5.2,12,10.5,12l0,0
		c5.5,0,10.7-4.4,10.7-12C453.4,448.4,448.1,444.1,442.7,444.1L442.7,444.1z"/>
	<polygon class="st0" points="491.7,451.3 501.3,451.3 501.3,455.9 491.7,455.9 	"/>
	<polygon class="st0" points="560.7,444.9 566.2,444.9 566.2,466.8 560.7,466.8 	"/>
	<path class="st0" d="M563.3,436.3c1.7,0,3.1,1.4,3.1,3.1s-1.4,3.1-3.1,3.1c-1.7,0-3.1-1.4-3.1-3.1
		C560.2,437.7,561.6,436.3,563.3,436.3"/>
	<path class="st0" d="M547.6,262.9c-2.9,0-5.3,2.4-5.3,5.5c0,14.4,0,28.9,0,43.4c0,2.9,2.4,5.3,5.3,5.3c21.7,0,10.9,0,32.6,0
		c3.1,0,5.5-2.4,5.5-5.3c0-14.5,0-29.1,0-43.4c0-3.1-2.4-5.5-5.5-5.5C558.5,262.9,569.4,262.9,547.6,262.9L547.6,262.9z"/>
	<path class="st1" d="M564.8,278.1h-7.9v23.9h7.9l0,0c4,0,8.1-4,8.1-11.8C572.9,282.5,569.2,278.1,564.8,278.1L564.8,278.1z
		 M565.5,272.6h-14.7v34.8h14.7l0,0c7.2,0,13.4-7,13.4-17.3C578.9,279.8,572.5,272.6,565.5,272.6L565.5,272.6z"/>
	<path class="st0" d="M398.7,257h-6.1v8.7h5.9l0,0c2.8,0,4.6-2.2,4.6-4.4C403.2,259.2,401.5,257,398.7,257L398.7,257z M400.8,251.4
		h-14.2V282h6.1v-10.9h7l0,0c6.4,0,9.6-4.8,9.6-9.9C409.2,256,405.7,251.4,400.8,251.4L400.8,251.4z"/>
	<path class="st0" d="M418.3,268.7h8.8l0,0c0-2-1.7-4.2-4.4-4.2C419.9,264.5,418.3,266.5,418.3,268.7L418.3,268.7z M418.3,273.2
		h14.4l0,0c0.4-2.8-0.7-13.6-9.9-13.6c-8.3,0-9.9,8.7-9.9,11.4s1.5,11.6,10.5,11.6c5.2,0,7.7-2.8,8.5-3.7l0,0l-3.5-3.3l0,0
		c0,0-1.7,2-5,2C420.1,277.6,418.3,275.4,418.3,273.2L418.3,273.2z"/>
	<polygon class="st0" points="493.9,260.1 499.4,260.1 499.4,282 493.9,282 	"/>
	<path class="st0" d="M496.4,251.1c1.7,0,3.1,1.4,3.1,3.1c0,1.7-1.4,3.1-3.1,3.1c-1.7,0-3.1-1.4-3.1-3.1
		C493.3,252.5,494.7,251.1,496.4,251.1"/>
	<path class="st0" d="M487.3,267.1V282h-5.7v-13.4l0,0c0-2-1.7-3.5-3.3-3.5c-1.8,0-3.9,1.5-3.9,4.2l0,0V282h-5.5v-13.4l0,0
		c0-2-1.7-3.5-3.3-3.5c-1.5,0-3.9,1.1-3.9,4.2l0,0V282H456v-21.9h5.7v1.3l0,0c0,0,2-1.7,5.7-1.7c3.3,0,5.3,2.4,5.2,2.4
		c0,0,2.4-2.4,6.1-2.4C484.3,259.7,487.3,263.6,487.3,267.1L487.3,267.1z"/>
	<path class="st0" d="M450.6,265.1v-5.3l0,0c-5.3-0.2-6.1,1.3-7.4,2.6l0,0v-2.2h-5.7V282h5.7v-10.9l0,0
		C443.3,267.8,446.8,265.1,450.6,265.1L450.6,265.1z"/>
	<path class="st0" d="M519.7,281.4l-1.1-4.8l0,0c-3.9,1.3-5,0.2-5-0.7l0,0v-10.9h5.7v-5h-5.7v-8.7l-5.7,1.7v7h-3.5v5h3.5v12.7l0,0
		c0,2.8,1.8,4.8,5.9,4.8C516.9,282.5,518.9,281.6,519.7,281.4L519.7,281.4z"/>
	<path class="st0" d="M456.5,312.7c0,1.5,0,2.9,0,4.4c0,1.7-1.7,4.4-5,4.4s-5.2-2.8-5.2-7c0-4,2.2-6.1,5.2-6.1
		C454.3,308.5,456.5,310.2,456.5,312.7L456.5,312.7z M456.5,305.4c0-3.3,0-6.8,0-10.3c1.8,0,3.7,0,5.5,0c0,10.1,0,20.2,0,30.4
		c-1.8,0-3.7,0-5.5,0c0-0.2,0-0.6,0-0.9c0,0-2.4,1.8-5.7,1.8c-3.3,0-10.1-2.8-10.1-11.8c0-9,7-11.4,9.8-11.4
		C453,303.2,454.1,303.7,456.5,305.4L456.5,305.4z"/>
	<path class="st0" d="M382.7,304.8v-9.8H377v30.6h5.7v-13.1l0,0c0-2,1.8-3.9,3.9-3.9s4.2,1.5,4.2,3.9l0,0v13.1h5.5v-14.9l0,0
		c0-4.4-3.7-7.4-7.7-7.4C384.9,303.3,383.5,304.4,382.7,304.8L382.7,304.8z"/>
	<path class="st0" d="M438.1,325.4l-0.7-5l0,0c-2.6,0.6-3.9,0-3.9-1.1l0,0v-24.3h-5.7v26.5l0,0c0,2.2,1.5,4.6,5.7,4.6
		C435.7,326.2,438.1,325.4,438.1,325.4L438.1,325.4z"/>
	<path class="st0" d="M412.2,307.8c-2.4,0-5,2.2-5,7c0,4.8,2.6,7,5,7l0,0c2.4,0,5-2.2,5-7C417.1,310,414.6,307.8,412.2,307.8
		L412.2,307.8z M412.2,302.8c-5.3,0-10.7,4.4-10.7,12c0,7.5,5.3,11.8,10.7,11.8l0,0c5.3,0,10.7-4.2,10.7-11.8
		C422.9,307.2,417.5,302.8,412.2,302.8L412.2,302.8z"/>
	<path class="st0" d="M507.7,321.9l4.2-3.7l0,0c1.5,1.8,4.8,3.3,6.4,3.3c1.5,0,2.8-1.1,2.8-2.2s-0.9-1.7-1.7-1.8
		c-0.7-0.2-3.7-0.9-4.2-1.1c-0.6,0-5.7-0.9-5.7-6.3c0-5.3,5.7-6.8,9-6.8c3.5,0,6.4,1.1,8.8,3.3l0,0l-3.5,3.7l0,0
		c-2-1.7-3.5-2.4-5.2-2.4c-1.8,0-3.1,0.7-3.1,2c0,1.3,0.9,1.5,1.5,1.7c0.6,0,4.2,0.7,5,1.1c0.9,0.2,5.2,1.5,5.2,6.4
		c0,5.2-4.6,7-9.2,7C513.6,326.2,509.2,323.8,507.7,321.9L507.7,321.9z"/>
	<path class="st0" d="M472,312.2h8.7l0,0c0-2-1.7-4.2-4.4-4.2C473.7,307.9,472,310.2,472,312.2L472,312.2z M471.8,316.6h14.4l0,0
		c0.4-2.8-0.7-13.6-9.9-13.6c-8.3,0-9.9,8.7-9.9,11.4c0,2.8,1.7,11.8,10.5,11.8c5.2,0,7.7-2.9,8.5-3.7l0,0l-3.5-3.5l0,0
		c0,0-1.7,2-4.8,2C473.7,321,471.8,318.8,471.8,316.6L471.8,316.6z"/>
	<path class="st0" d="M504.2,308.5v-5.3l0,0c-5.2,0-6.1,1.3-7.4,2.6l0,0v-2h-5.7v21.7h5.7v-10.9l0,0
		C496.8,311.3,500.3,308.5,504.2,308.5L504.2,308.5z"/>
	<path class="st2" d="M425.6,126.7L425.6,126.7c0-4.3,3.5-7.7,7.7-7.7h93.3c4.2,0,7.7,3.5,7.7,7.7v93.1c0,4.2-3.5,7.7-7.7,7.7h-93.3
		c-4.2,0-7.7-3.5-7.7-7.7V126.7z"/>
	<path class="st1" d="M490.8,146.5h-19.1v10.1v4.6v8.7h19.1l0,0c4.6,0,8.3-3.7,8.3-8.3v-6.8C499,150.2,495.3,146.5,490.8,146.5
		L490.8,146.5z M454.3,133.1H499l0,0c9.6,0,17.3,7.8,17.3,17.3l-0.2,15.8c-0.1,9.5-7.7,17.1-17.1,17.1v0.2h-27.4v9l0,0v23.4h-17.3
		l0,0V133.1L454.3,133.1v50.4V133.1z"/>
	<polygon class="st0" points="437.9,500.3 447.3,500.3 447.3,504.9 437.9,504.9 	"/>
	<path class="st0" d="M576.9,502.3v4l0,0c0,2.2,1.7,4.4,5,4.4s5.2-2.9,5.2-6.4c0-3.5-1.8-6.4-5.2-6.4
		C578.6,497.9,576.9,500.3,576.9,502.3L576.9,502.3z M576.9,494.8v-0.9h-5.5v28h5.5v-7.7l0,0c0,0,1.8,2,6.1,2
		c7.5,0,9.9-8.1,9.9-11.6c0-2.8-1.1-5.9-2.8-7.9c-1.7-1.8-4-3.5-7.4-3.7C580.8,492.9,578.6,493.8,576.9,494.8L576.9,494.8z"/>
	<path class="st0" d="M493.3,510.1c1.7,0,3.1,1.3,3.1,2.9c0,1.6-1.4,2.9-3.1,2.9s-3.1-1.3-3.1-2.9
		C490.2,511.5,491.6,510.1,493.3,510.1"/>
	<path class="st0" d="M521.1,500.1c0.4,0,3.7-1.5,3.7-6.1c0-4.8-4.2-9-11.4-9c-7,0-11.2,3.5-11.8,9.4l0,0l6.4,0.6l0,0
		c0.6-2.8,1.8-4.4,5.9-4.4c3.9,0,4.4,2.8,4.4,3.7c0,2.8-1.7,3.7-6.8,3.7l0,0v5.2l0,0c1.5,0.2,4.6,0,5.5,0.7c1.7,1.1,1.7,2,1.7,2.9
		c0,0.7,0,4.2-4.6,4.2c-4.6,0-5.5-2.4-6.1-4.8l0,0l-6.4,1.1l0,0c0.7,5.3,4.4,9.4,12.3,9.4c8.1,0,11.4-5.3,11.4-9.6
		C525.4,502.9,522.8,500.5,521.1,500.1L521.1,500.1z"/>
	<path class="st0" d="M478.3,505.3c0-2.6-2.2-5.2-5-5.2s-5,2.6-5,5.3s2,5.2,5,5.2C475.1,510.6,478.3,509.3,478.3,505.3L478.3,505.3z
		 M477.9,493.1c1.8-0.7,3.7-1.5,5.5-2.2c-1.1-3.1-3.1-6.3-10.1-6.3c-6.8,0-11.8,5.2-11.8,15.8c0,5.5,2,9.8,3.7,12
		c1.5,2,5,3.7,8.5,3.7s10.7-2,10.7-10.9c0-8.8-6.8-10.5-9.9-10.5c-2.9,0-5.5,1.3-6.4,2.2c-0.2-4.8,3.1-6.8,5.3-6.8
		C475.5,490.2,476.8,491.1,477.9,493.1L477.9,493.1z"/>
	<path class="st0" d="M544.9,490.7c3.3,0,6.4,2,6.6,9.7c0,7.9-2.9,10.5-6.6,10.5l0,0c-3.5,0-6.6-2.6-6.4-10.5
		C538.4,492.7,541.7,490.7,544.9,490.7L544.9,490.7z M544.9,485c4.4,0,12.9,2.6,12.9,15.8c0,13.1-7.9,15.8-12.9,15.8l0,0
		c-4.8,0-12.7-2.8-12.7-15.8C532.2,487.6,540.6,485,544.9,485L544.9,485z"/>
	<path class="st0" d="M629,500.8v14.9h-5.5v-13.4l0,0c0-2-1.7-3.7-3.5-3.7c-1.7,0-3.7,1.7-3.7,4.4l0,0v12.7h-5.7v-13.4l0,0
		c0-2-1.7-3.7-3.3-3.7c-1.5,0-3.9,1.3-3.9,4.2l0,0v12.9h-5.7v-21.9h5.7v1.3l0,0c0,0,2-1.7,5.7-1.7c3.3,0,5.3,2.2,5.3,2.2
		c-0.2,0,2.2-2.4,5.9-2.4C626,493.3,629,497.2,629,500.8L629,500.8z"/>
	<path class="st0" d="M423.6,500.8v14.9h-5.5v-13.4l0,0c0-2-1.7-3.7-3.3-3.7c-1.8,0-3.9,1.7-3.9,4.4l0,0v12.7h-5.7v-13.4l0,0
		c0-2-1.7-3.7-3.1-3.7c-1.7,0-4,1.3-4,4.2l0,0v12.9h-5.5v-21.9h5.5v1.3l0,0c0,0,2-1.7,5.7-1.7c3.3,0,5.3,2.2,5.3,2.2
		s2.4-2.4,6.1-2.4C420.6,493.3,423.6,497.2,423.6,500.8L423.6,500.8z"/>
	<path class="st0" d="M342.8,497.5c-2.2,0-4.6-1.1-4.6-3.7c0-2.4,2.4-3.7,4.6-3.7l0,0c2.2,0,4.8,1.3,4.8,3.7
		C347.6,496.4,345,497.5,342.8,497.5L342.8,497.5z M342.8,510.6c-3.1,0-5.5-1.3-5.5-4c0-2.6,2.8-3.9,5.5-3.9l0,0
		c2.9,0,5.5,1.3,5.5,3.9C348.3,509.3,345.9,510.6,342.8,510.6L342.8,510.6z M342.8,484.6c5,0,11,2.4,11,9.2c0,5-3.5,5.9-3.5,5.9
		s4.4,1.1,4.4,7c0,6.1-5,9.6-12,9.6l0,0c-7.2,0-12-3.5-12-9.6c0-5.9,4.4-7,4.4-7s-3.7-0.9-3.7-5.9
		C331.6,487,337.6,484.6,342.8,484.6L342.8,484.6z"/>
	<path class="st0" d="M380.3,505.8v4l0,0c0,1.7-3.1,1.7-3.7,1.7c-0.6,0-4-0.2-4-2.8C372.6,506,376.8,505.8,380.3,505.8L380.3,505.8z
		 M386,509.7v-11.2l0,0c0-2.9-2.9-5.2-8.8-5.2c-4.8,0-8.1,2-9.2,2.8l0,0l2.4,4.2l0,0c1.8-1.3,5.9-2.2,7.5-2.2s2.4,1.3,2.4,2l0,0v1.3
		l0,0c-2,0-6.8,0.7-8.7,1.5c-1.8,0.5-4.8,1.8-4.8,6.3c0,4.2,4.4,7.2,8.8,7.2c3.9,0,5.2-2.4,5.2-2.4s2,2.4,5.3,2.4l0,0l2.2-4.4l0,0
		C385.9,511.3,386,510.4,386,509.7L386,509.7z"/>
	<path class="st0" d="M598.8,372.4l8.7-25.2h-5.9l-4.4,13.3l-4.2-13.3h-6.1l7.2,20.8l0,0c0.6,1.5-0.2,3.1-3.1,2.8l0,0l-1.8-0.2
		l-0.7,4.8l3.3,0.5l0,0C595.9,376.4,597.9,374.9,598.8,372.4L598.8,372.4z"/>
	<path class="st0" d="M533.5,351.4c-2.4,0-5,2-5,6.8c0,4.8,2.8,7,5,7l0,0c2.4,0,5-2.2,5-7C538.4,353.4,535.9,351.4,533.5,351.4
		L533.5,351.4z M533.5,346.2c-5.2,0-10.7,4.4-10.7,12c0,7.5,5.3,12,10.7,12l0,0c5.3,0,10.7-4.4,10.7-12
		C544.1,350.6,538.8,346.2,533.5,346.2L533.5,346.2z"/>
	<path class="st0" d="M568.8,354.7v14.2h-5.7v-13.6l0,0c0-1.7-1.3-3.3-3.7-3.3s-4.6,2.2-4.6,5l0,0v12h-5.5v-21.7h5.5v1.7l0,0
		c0,0,2.4-2.2,5.5-2.2C565.5,346.6,568.8,350.6,568.8,354.7L568.8,354.7z"/>
	<path class="st0" d="M585.2,368.9l-0.6-5l0,0c-2.6,0.7-4,0-4-1.1l0,0v-24.3h-5.5V365l0,0c0,2.2,1.5,4.6,5.7,4.6
		C583,369.6,585.2,368.9,585.2,368.9L585.2,368.9z"/>
	<path class="st0" d="M359.2,355.6v4l0,0c0,2,1.7,4.4,5,4.4c3.1,0,5.2-3.1,5.2-6.4c0-3.5-1.8-6.4-5.2-6.4
		C360.6,351.2,359.2,353.6,359.2,355.6L359.2,355.6z M359.2,348.1v-0.9h-5.7v28h5.7v-7.9l0,0c0,0,1.8,2.2,5.9,2.2
		c7.7,0,10.1-8.1,10.1-11.6c0-2.8-1.1-5.9-2.9-7.9c-1.5-1.8-3.9-3.7-7.4-3.7C362.9,346.2,360.6,347,359.2,348.1L359.2,348.1z"/>
	<path class="st0" d="M391.9,358.9v4.2l0,0c0,1.7-3.1,1.5-3.7,1.5s-3.9,0-3.9-2.6C384.4,359.1,388.4,359.1,391.9,358.9L391.9,358.9z
		 M397.6,363v-11.2l0,0c0-3.1-2.8-5.3-8.8-5.3c-4.8,0-7.9,2.2-9,2.8l0,0l2.4,4.4l0,0c1.8-1.3,5.7-2.2,7.4-2.2s2.4,1.3,2.4,2l0,0v1.1
		l0,0c-1.8,0-6.6,0.9-8.7,1.7c-1.7,0.6-4.6,1.8-4.6,6.1c0,4.4,4.4,7.2,8.8,7.2c3.9,0,5.2-2.2,5.2-2.2s1.8,2.4,5.2,2.4l0,0l2.2-4.4
		l0,0C397.4,364.6,397.6,363.7,397.6,363L397.6,363z"/>
	<path class="st0" d="M417.3,352.1v-5.5l0,0c-5.3,0-6.3,1.5-7.5,2.8l0,0v-2.2h-5.7v21.7h5.7V358l0,0
		C409.8,354.9,413.5,352.1,417.3,352.1L417.3,352.1z"/>
	<polygon class="st0" points="428.4,348.8 428.4,338.5 422.7,338.5 422.7,368.9 428.4,368.9 428.4,363 430.6,360.6 436.3,368.9 
		443.3,368.9 434.6,356.5 443.5,347.3 435.9,347.3 428.4,355.3 428.4,350.5 	"/>
	<polygon class="st0" points="447.5,347.2 453,347.2 453,369 447.5,369 	"/>
	<path class="st0" d="M450.4,338.2c1.7,0,3.1,1.4,3.1,3.1c0,1.7-1.4,3.1-3.1,3.1s-3.1-1.4-3.1-3.1S448.7,338.2,450.4,338.2"/>
	<path class="st0" d="M479,354.7v14.2h-5.7v-13.6l0,0c0-1.7-1.3-3.3-3.7-3.3c-2.4,0-4.6,2.2-4.6,5l0,0v12h-5.7v-21.7h5.7v1.7l0,0
		c0,0,2.4-2.2,5.5-2.2C475.5,346.6,479,350.6,479,354.7L479,354.7z"/>
	<path class="st0" d="M484,373.7l2.6-4.6l0,0c1.1,0.6,3.1,1.8,7.2,1.8c5.5,0,4.6-4.2,4.6-4.2s-1.8,1.1-4.4,1.1
		c-9.6,0-9.8-10.3-9.8-10.3s0-5,3.3-7.7c1.8-1.7,3.9-2.6,6.4-2.6c0.9,0,3.1,0.4,4.4,1.1l0,0v-1.1h5.7v22.1l0,0c0,5-6.8,7-10.3,7
		C490.2,376.2,486.2,374.9,484,373.7L484,373.7z M498.3,357.5c0-2.4-1.1-4.6-4-4.6c-2.8,0-3.9,2.6-3.9,4.6c0,2,0.9,4.8,3.9,4.8l0,0
		C497.2,362.2,498.3,359.8,498.3,357.5L498.3,357.5z"/>
	<path class="st0" d="M337.1,399v4l0,0c0,2.2,1.7,4.4,4.8,4.4c3.3,0,5.3-2.9,5.3-6.4c0-3.5-2-6.4-5.3-6.4
		C338.6,394.6,337.1,397,337.1,399L337.1,399z M337.1,391.5v-0.9h-5.7v28h5.7v-7.7l0,0c0,0,1.8,2,5.9,2c7.7,0,9.9-8.1,9.9-11.6
		c0-2.8-1.1-5.9-2.8-7.9c-1.5-1.8-3.9-3.5-7.4-3.7C340.8,389.7,338.6,390.6,337.1,391.5L337.1,391.5z"/>
	<path class="st0" d="M369.8,402.4v4.2l0,0c0,1.7-3.1,1.7-3.7,1.7c-0.6,0-3.9-0.2-3.9-2.8C362.3,402.7,366.3,402.6,369.8,402.4
		L369.8,402.4z M375.6,406.6v-11.4l0,0c0-2.9-2.8-5.2-8.8-5.2c-4.8,0-7.9,2-9.2,2.8l0,0l2.6,4.2l0,0c1.8-1.3,5.7-2.2,7.4-2.2
		s2.4,1.3,2.4,2l0,0v1.3l0,0c-1.8,0-6.8,0.7-8.7,1.5c-1.8,0.5-4.8,1.8-4.8,6.3c0,4.2,4.4,7.2,9,7.2c3.9,0,5.2-2.4,5.2-2.4
		s1.8,2.4,5.2,2.6l0,0l2.2-4.6l0,0C375.4,408.1,375.6,407.1,375.6,406.6L375.6,406.6z"/>
	<path class="st0" d="M380,408.8l4.2-3.7l0,0c1.5,1.8,5,3.5,6.4,3.5c1.5,0,2.8-1.3,2.8-2.2c0-1.1-0.7-1.7-1.5-1.8
		c-0.9-0.2-3.7-0.9-4.4-1.1c-0.6-0.2-5.7-1.1-5.7-6.3c0-5.5,5.7-6.8,9.2-6.8c3.3,0,6.4,0.9,8.8,3.1l0,0l-3.7,3.9l0,0
		c-2-1.8-3.5-2.6-5.2-2.6s-3.1,0.7-3.1,2c0,1.3,1.1,1.5,1.5,1.7c0.6,0.2,4.2,0.9,5.2,1.1c0.7,0.2,5.2,1.5,5.2,6.6c0,5-4.8,7-9.2,7
		C385.9,413.2,381.4,410.8,380,408.8L380,408.8z"/>
	<path class="st0" d="M417.7,411.9l-1.1-4.8l0,0c-4,1.5-5,0.4-5-0.7l0,0v-11h5.7v-4.6h-5.7v-8.8l-5.5,1.8v7h-3.7v4.6h3.7v12.9l0,0
		c0,2.9,1.5,4.8,5.9,4.8C414.8,413,417,412.3,417.7,411.9L417.7,411.9z"/>
	<path class="st0" d="M449.5,411.9l-1.1-4.8l0,0c-4,1.5-5.2,0.4-5.2-0.7l0,0v-10.9h5.9v-4.8h-5.9v-8.8l-5.3,1.8v7h-3.7v4.8h3.7v12.7
		l0,0c0,2.9,1.5,4.8,5.7,4.8C446.6,413,448.8,412.3,449.5,411.9L449.5,411.9z"/>
	<path class="st0" d="M459.5,391.7v-9.6h-5.7v30.4h5.7v-12.9l0,0c0-2,1.8-3.9,3.9-3.9s4.2,1.3,4.2,3.9l0,0v12.9h5.5v-14.9l0,0
		c0-4.4-3.9-7.4-7.9-7.4C461.5,390.2,460.2,391.5,459.5,391.7L459.5,391.7z"/>
	<polygon class="st0" points="479.7,390.6 485.2,390.6 485.2,412.5 479.7,412.5 	"/>
	<path class="st0" d="M482.3,382.3c1.7,0,3.1,1.4,3.1,3.1c0,1.7-1.4,3.1-3.1,3.1c-1.7,0-3.1-1.4-3.1-3.1
		C479.2,383.7,480.6,382.3,482.3,382.3"/>
	<path class="st0" d="M489.5,408.8l4.2-3.7l0,0c1.5,1.8,5,3.5,6.4,3.5s2.8-1.3,2.8-2.2c0-1.1-0.7-1.7-1.7-1.8
		c-0.7-0.2-3.5-0.9-4.2-1.1c-0.6-0.2-5.7-1.1-5.7-6.3c0-5.5,5.7-6.8,9.2-6.8c3.3,0,6.4,0.9,8.8,3.1l0,0l-3.7,3.9l0,0
		c-2-1.8-3.5-2.6-5.2-2.6c-1.7,0-3.1,0.7-3.1,2c0,1.3,1.1,1.5,1.5,1.7c0.6,0.2,4.2,0.9,5.2,1.1c0.7,0.2,5.2,1.5,5.2,6.6
		c0,5-4.8,7-9.2,7C495.4,413.2,491,410.8,489.5,408.8L489.5,408.8z"/>
	<path class="st0" d="M532.2,399v4l0,0c0,2.2,1.5,4.4,4.8,4.4c3.3,0,5.2-2.9,5.2-6.4c0-3.5-1.8-6.4-5.2-6.4
		C533.7,394.6,532.2,397,532.2,399L532.2,399z M532.2,391.5v-0.9h-5.7v28h5.7v-7.7l0,0c0,0,1.8,2,5.9,2c7.5,0,9.9-8.1,9.9-11.6
		c0-2.8-1.1-5.9-2.8-7.9c-1.7-1.8-4-3.5-7.4-3.7C535.9,389.7,533.7,390.6,532.2,391.5L532.2,391.5z"/>
	<path class="st0" d="M562.2,394.8c-2.6,0-5.2,2-5.2,6.8c0,4.8,2.6,7,5.2,7l0,0c2.2,0,5.2-2.2,5.2-7
		C567.3,396.8,564.4,394.8,562.2,394.8L562.2,394.8z M562.2,390c-5.5,0-10.5,4.4-10.5,11.6c0,7.7,5,12.1,10.5,12.1l0,0
		c5.5,0,10.5-4.4,10.5-12.1C572.7,394.5,567.3,390,562.2,390L562.2,390z"/>
	<polygon class="st0" points="577.8,390.6 583.3,390.6 583.3,412.5 577.8,412.5 	"/>
	<path class="st0" d="M580.5,382.3c1.7,0,3.1,1.4,3.1,3.1c0,1.7-1.4,3.1-3.1,3.1s-3.1-1.4-3.1-3.1
		C577.3,383.7,578.7,382.3,580.5,382.3"/>
	<path class="st0" d="M609.3,398.1v14.4h-5.7v-13.8l0,0c0-1.7-1.3-3.1-3.7-3.1c-2.4,0-4.6,2-4.6,5l0,0v12h-5.5v-21.9h5.5v1.7l0,0
		c0,0,2.4-2.2,5.5-2.2C606,390,609.3,394.3,609.3,398.1L609.3,398.1z"/>
	<path class="st0" d="M629.5,411.9l-1.1-4.8l0,0c-4,1.5-5.2,0.4-5.2-0.7l0,0v-10.9h5.9v-4.8h-5.9v-8.8l-5.3,1.8v7h-3.7v4.8h3.7v12.7
		l0,0c0,2.9,1.3,4.8,5.7,4.8C626.6,413,628.8,412.3,629.5,411.9L629.5,411.9z"/>
</g>
</svg>
