<?xml version="1.0" encoding="utf-8"?>
<!-- Generator: Adobe Illustrator 26.0.2, SVG Export Plug-In . SVG Version: 6.00 Build 0)  -->
<svg version="1.1" id="Layer_1" xmlns="http://www.w3.org/2000/svg" xmlns:xlink="http://www.w3.org/1999/xlink" x="0px" y="0px"
	 viewBox="0 0 960 640" style="enable-background:new 0 0 960 640;" xml:space="preserve">
<style type="text/css">
	.st0{fill-rule:evenodd;clip-rule:evenodd;fill:#FFFFFF;}
	.st1{fill-rule:evenodd;clip-rule:evenodd;}
</style>
<g>
	<path class="st0" d="M271.5,134l0.1-3.2l0.5-3.2l0.7-3.1c4.1-14.3,17.6-24.3,32.5-24.3h349.3l3.2,0.1c16.6,1.7,29.9,15.3,30.5,32.1
		l0.1,1.7v372l-0.2,3.1l-0.5,3.2c-2.8,15.4-15.9,26.5-31.5,27.4h-351c-16.4,0.3-31.2-12.7-33.4-29l-0.4-3.2L271.5,134"/>
	<path class="st1" d="M358.8,178.9h12.8c11.2-0.4,11.2-17,0-17.4h-12.8V178.9 M389.6,159.1l-1.4-2c-3.5-4.6-9.3-7.3-15.2-7.3h-27.2
		v63.1h13v-22.2H373c14.7-0.2,24.3-16.2,17.8-29.5L389.6,159.1z"/>
	<path class="st1" d="M429.6,185.2l-0.4-1.8c-2.9-8.5-14.7-8.7-17.7,0l-0.4,1.8H429.6 M408.8,170.1l-2.1,1.7l-1.8,1.8
		c-7.5,7.9-7.2,21.8-1.8,30.8l1.5,2.1l1.8,1.9c7.3,7.4,22.4,7.8,30.3,1.4l1.8-1.7l1.2-1.6l-7.6-7.6l-1.5,1.4
		c-5.8,5.1-18.2,4.3-19.2-4.9l-0.1-1.1h30.1l-0.1-3.6c-0.2-18.2-15.9-30.6-32.1-20.9L408.8,170.1z"/>
	<path class="st1" d="M463.7,189.1l0.1-1.9c0.6-4.7,5.5-8.5,10-8.4h4.2v-11.7h-3c-4-0.1-7.2,1.4-10.1,3.9l-1.2,1.3v-4.5h-12.4v45.1
		h12.4V189.1"/>
	<path class="st1" d="M542.5,212.9v-26.8l-0.1-1.8c-0.2-2.5-2.4-5.5-4.9-6h-0.2l-1.2-0.1l-0.7,0.1l-1.8,0.5l-0.7,0.4l-1.4,1
		l-1.2,1.2l-1.1,1.4l-0.6,1.4v0.1l-0.1,1.5v27.1h-12.3v-26.8c-0.1-7.8-7.1-10.6-12.4-4.8l-1,1.4h-0.1l-0.5,1.4l-0.1,0.1l-0.1,1.5
		v27.1h-12.3v-45.1h12.3v3.2l1.9-1.6c6.1-4.2,16.4-4.1,20.4,3l0.2,0.5l1.5-1.8c11.6-10.8,29.7-0.5,28.7,14.8v27L542.5,212.9"/>
	<path class="st1" d="M580.6,156.4l-0.2-1.4l-0.5-1.4c-3-6.3-11.7-5.2-13.4,1.4l-0.1,1.4l0.1,1.5c1.6,6.5,10.3,7.7,13.4,1.4l0.5-1.4
		L580.6,156.4 M579.7,212.9h-12.4v-45.1h12.4V212.9z"/>
	<path class="st1" d="M608.8,149.8l-12.3,3.6v14.1h-7.3v10.3h7.3v26.7c0.5,13.1,17,10.3,25.4,8l0.1-0.1l-2.7-10.3l-2.6,0.7
		c-3.1,0.8-7.7,1.3-7.9-3.1v-21.9h11.4v-10.3h-11.4V149.8"/>
	<path class="st1" d="M339.9,303.2l2.6,0.7l2.6,0.4c15.4,0.7,22.2-10,22.2-24.3l-0.1-3.2l-0.6-3.2c-1.8-13.2-14.6-20.7-27-16
		l-2.4,1.1L335,260v0.1V258h-12.4v58.6H335V300l1.4,1.3l1.5,1.1l1.8,0.8L339.9,303.2 M351.2,269.4l-1.5-1.1l-1.8-0.7l-1.9-0.5
		c-3.9-0.2-7,0.9-9.4,3.9l-1,1.6l-0.5,1.5l-0.1,1.2v9.7l0.1,1.5l0.5,1.4l0.8,1.3l0.2,0.1l1.2,1.4l1.6,1.1l1.7,0.8
		c13.7,4.1,16.5-11.7,12.1-21.2l-1-1.2L351.2,269.4z"/>
	<path class="st1" d="M398.2,293.8l1.1-0.5l1.1-0.6l0.7-1l0.5-1.1l0.2-1.2v-6.4l-4.2,0.6l-4.2,0.8c-2.6,0.5-5.3,1-5.6,4.1l-0.1,1.1
		l0.2,1c1.5,2.9,2.7,3.2,6,3.6l2.3-0.1L398.2,293.8 M381.4,301.6l2.4,1.1l2.6,1l2.6,0.6l2.7,0.2l2.6-0.1l2.7-0.5l2-0.5l1.7-0.7
		l1.3-1.1l1.2-1.3l0.4-0.5l0.8,1.2c1.9,1.8,5.2,3,7.8,3.3l2.5,0.2l4.4-9.5l-2.1-0.2l-1-0.5l-1-0.7l-0.6-0.8l-0.4-1.1l-0.1-1v-21.4
		l-0.1-1.9l-0.6-1.9l-0.8-1.8l-1.1-1.7l-1.4-1.4l-1.7-1.1c-9.2-4.6-17.1-4.3-26.5-0.2l-3.5,1.7l-3,1.7l6,9.3l2.6-1.6
		c3.5-2.1,17-6.6,17.8,0.8v2.9l-3.9,0.1l-3.8,0.5c-6.1,1.2-12.4,1.9-16.5,7.2l-1.1,1.8l-0.8,2c-1.6,5.1-0.5,10,3.2,13.8l1.5,1.3
		L381.4,301.6z"/>
	<path class="st1" d="M439.7,279.3l0.2-1.9c0.7-4.8,5.3-8.5,10-8.4h4.2v-11.8h-3c-3.9,0.2-7.4,1.4-10.3,4.1l-1.2,1.3V258h-12.3v45.1
		h12.3V279.3"/>
	<polyline class="st1" points="493.9,303.1 482.7,285.5 477.8,290.5 477.8,303.1 465.5,303.1 465.5,240 477.8,240 477.8,273.9 
		493.4,258 510,258 491.6,276.5 508.5,303.1 493.9,303.1 	"/>
	<path class="st1" d="M530.1,246.6l-0.1-1.4l-0.5-1.4c-2.7-6.2-12-5.3-13.4,1.4l-0.1,1.4l0.1,1.6c1.7,6.8,10.7,7.5,13.4,1.3l0.5-1.3
		L530.1,246.6 M529.2,303.1h-12.4V258h12.4V303.1z"/>
	<path class="st1" d="M583,303.1v-27c0.7-14.6-15.3-24.8-27.6-16l-1.3,1.1V258h-12.3v45.1h12.3V276c0.8-9.8,16.9-11.2,16.6,0.2v26.8
		H583h-12.3H583"/>
	<path class="st1" d="M615.2,306.8l-3.3-0.1c-4.5-0.3-7.6-0.9-11.7-3.2l-1.3-0.8l-5.7,10l3.5,1.6c12.9,6.4,38,6.1,38.9-12.9V258
		h-12.3v2.4l-1.7-1.2l-1.9-0.8c-15-4.1-25.8,4.3-27,19.7l-0.1,2.7l0.4,2.9l0.7,2.7c1,4.4,4,8.3,7.6,10.9l2.2,1.3l2.3,1.1
		c4.3,1.5,9,1.4,13.4,0.5l0.1-0.1l2.3-0.8l1.8-1v2.5c-0.2,4.4-3.6,6.2-7.8,6.1L615.2,306.8 M623.2,275l-0.4-1.6l-0.6-1.3l-1-1.3
		c-2.5-2.4-6.1-2.9-9.4-2.5l-1.5,0.5l-1.3,0.7c-2.7,1.7-3.7,6.1-4,9.1v2.1l0.4,2.2l0.2,1c1.9,8.1,17.6,8.8,17.7-1.8L623.2,275
		L623.2,275z"/>
	<path class="st1" d="M412.6,384l1.1-0.5c1.6-0.7,2.4-2.3,2.5-3.9v-6.3l-4.3,0.6l-4.1,0.8c-3,0.4-6,1.6-5.7,5.1l0.2,1l0.6,1.2l0.8,1
		l1,0.6l1.1,0.5h0.1l2.4,0.2h2.3L412.6,384 M395.8,391.6l2.4,1.2c5,2.4,15.9,2.9,19.6-2.4l0.4-0.5l0.8,1.2c1.9,1.8,5.2,3,7.8,3.3
		l2.5,0.2l4.4-9.5l-2.1-0.2l-1.1-0.5l-0.8-0.7l-0.6-0.8l-0.4-1.1l-0.1-1v-21.4l-0.2-1.9l-0.5-1.9l-0.8-1.8l-1.1-1.7l-1.4-1.4
		l-1.7-1.1c-8.1-4.6-18.2-4.2-26.5-0.2l-3.5,1.7l-3,1.7l6,9.3l2.6-1.7c3.7-2,16.6-6.5,17.8,0.8v3l-3.9,0.1l-3.8,0.5
		c-5.7,1.1-12.9,2-16.5,7.2l-1.1,1.8l-0.8,2c-1.6,5.1-0.5,10,3.2,13.8l1.5,1.3L395.8,391.6z"/>
	<path class="st1" d="M454.2,369.3l0.2-1.8c0.6-4.6,5.4-8.6,10-8.4h4.2v-11.8h-3c-3.9,0.2-7.4,1.4-10.3,4.1l-1.2,1.3v-4.5h-12.3
		v45.1h12.3L454.2,369.3"/>
	<path class="st1" d="M508,365.6l-0.4-1.8c-3.1-9.5-16.7-8.4-17.9,1.7v0.1L508,365.6 M487.2,350.5l-2,1.5l-1.9,1.9
		c-7.4,7.8-7.2,21.9-1.7,30.8l1.4,2.2l1.8,1.9c7.1,7.3,22.8,7.8,30.3,1.3l1.8-1.7l1.3-1.4l-7.8-7.6l-1.5,1.4c-5.9,5-18,4.3-19.2-4.9
		v-1.1h29.9l-0.1-3.6c0-17.7-15.6-30.7-32.1-20.9L487.2,350.5z"/>
	<path class="st1" d="M550.6,384l1.1-0.5c1.6-0.7,2.4-2.3,2.5-3.9v-6.3l-4.2,0.6l-4.2,0.8c-3.5,0.7-5.6,1.2-5.7,5.1l0.2,1l0.1,0.2
		c1.3,2.6,3,3.2,5.8,3.2h2.3L550.6,384 M533.8,391.6l2.4,1.2c5,2.4,15.9,2.9,19.6-2.4l0.4-0.5l0.8,1.2c1.9,1.8,5.2,3,7.8,3.3
		l2.5,0.2l4.4-9.5l-2.2-0.2l-1.1-0.5l-0.8-0.7l-0.6-0.8l-0.4-1.1l-0.1-1v-21.4l-0.2-1.9l-0.5-1.9l-0.8-1.8l-1.1-1.7l-1.4-1.4
		l-1.7-1.1c-8.1-4.6-18.2-4.2-26.5-0.2l-3.5,1.7l-3,1.7l6,9.3l2.6-1.7c3.7-2,16.6-6.5,17.8,0.8v3l-3.9,0.1l-3.8,0.5
		c-5.7,1.1-12.9,2-16.5,7.2l-1.1,1.8l-0.8,2c-1.6,5.1-0.5,10,3.2,13.8l1.6,1.3L533.8,391.6z"/>
	<polyline class="st1" points="398.7,482.4 367.8,482.4 367.8,468.6 393.6,468.6 393.6,456.9 367.8,456.9 367.8,443.9 396.3,443.9 
		396.3,431.6 354.8,431.6 354.8,494.7 398.7,494.7 398.7,482.4 	"/>
	<polyline class="st1" points="430.8,431.6 416.1,431.6 416.1,494.7 429,494.7 429,452 457.3,494.7 471.9,494.7 471.9,431.6 
		459.1,431.6 459.1,474.3 430.8,431.6 	"/>
	<path class="st1" d="M492.1,494.7h23.4c38.5,0,38.9-62.6,0.4-63.1h-23.7V494.7 M530.5,471.1l-0.7,2c-2.2,5.2-8.1,9.1-13.7,8.9h-11
		v-37.8h11c13.4,0.4,17,13.1,14.9,24.5L530.5,471.1z"/>
	<path class="st1" d="M592.8,458l2.4,0.8l1.5,0.6c11.9,5.2,14.8,18.8,7,28.7l-1.8,1.9l-1.9,1.6c-11.5,7.6-31.8,5.9-42.2-3.1
		l-2.4-2.3l-2.3-2.4l10.9-8.4l2.4,2.2l2.5,1.9l2.6,1.7h0.1l2.6,1.2l2.6,0.8l2.7,0.5l2.9,0.2h1.1l1.9-0.1l1.9-0.4l1.8-0.7l1.5-1
		l1-0.8l0.8-1.2l0.6-1.3l0.2-1.3v-1.4l-0.4-1.4l-0.7-1.3l-0.8-1.1l-1.2-0.8l-1.3-0.6l-0.4-0.1l-14.9-3.3l-2.4-0.6l-2.3-1l-2.2-1.2
		l-1-0.6l-1.8-1.7l-1.5-1.9c-5-7.3-4-17.3,2.5-23.3l2.1-1.8l2.3-1.5c9.6-5.6,24.1-4.1,33.4,1.7l2.7,1.9l2.6,2.1l1.1,1l-9.8,8.8
		l-2.3-1.8l-2.5-1.5c-4.2-2.3-10.8-4-15.5-2.4l-1.8,0.7l-1.4,1.1c-3.1,2.3-2.7,7,0.7,8.7l1.1,0.5L592.8,458"/>
	<path class="st1" d="M288.5,134l0.1-2.5l0.5-2.3l0.8-2.3c2.7-5.9,8.9-10,15.4-9.9h349.3l2.4,0.1c7.7,1.3,13.1,6.7,14.3,14.3
		l0.2,2.5v372l-0.2,2.4l-0.5,2.3c-2,6.5-7.1,11.1-13.8,12.1l-2.4,0.1H305.3c-7.3,0.2-14.3-5.2-16.2-12.2l-0.5-2.3l-0.1-2.4
		L288.5,134 M271.5,134l0.1-3.2l0.5-3.2l0.7-3.1c4.1-14.3,17.6-24.3,32.5-24.3h349.3l3.2,0.1c16.6,1.7,29.9,15.3,30.5,32.1l0.1,1.7
		v372l-0.2,3.1l-0.5,3.2c-2.8,15.4-15.9,26.5-31.5,27.4h-351c-16.4,0.3-31.2-12.7-33.4-29l-0.4-3.2L271.5,134L271.5,134z"/>
</g>
</svg>
