<?xml version="1.0" encoding="utf-8"?>
<!-- Generator: Adobe Illustrator 26.0.2, SVG Export Plug-In . SVG Version: 6.00 Build 0)  -->
<svg version="1.1" id="Layer_1" xmlns="http://www.w3.org/2000/svg" xmlns:xlink="http://www.w3.org/1999/xlink" x="0px" y="0px"
	 viewBox="0 0 960 640" style="enable-background:new 0 0 960 640;" xml:space="preserve">
<style type="text/css">
	.st0{fill-rule:evenodd;clip-rule:evenodd;}
	.st1{fill-rule:evenodd;clip-rule:evenodd;fill:#FFFFFF;}
	.st2{fill-rule:evenodd;clip-rule:evenodd;fill:#006FB6;}
	.st3{fill-rule:evenodd;clip-rule:evenodd;fill:#BD002D;}
</style>
<g>
	<path class="st0" d="M357.2,78.9c-6,0-10.9,4.8-10.9,10.9c0,138.9,0,321.4,0,460.3c0,6,4.9,10.9,10.9,10.9c84.8,0,160.9,0,245.7,0
		c6,0,10.9-4.9,10.9-10.9c0-138.9,0-321.4,0-460.3c0-6.1-4.9-10.9-10.9-10.9C518,78.9,442,78.9,357.2,78.9L357.2,78.9z"/>
	<path class="st1" d="M357.2,84.4c-2.9,0-5.5,2.4-5.5,5.5c0,112.8,0,269.1,0,381.8c0,3,2.5,5.5,5.5,5.5c84.8,0,160.9,0,245.7,0
		c3,0,5.5-2.4,5.5-5.5c0-112.8,0-269.1,0-381.8c0-3-2.4-5.5-5.5-5.5C518,84.4,442,84.4,357.2,84.4L357.2,84.4z"/>
	<path class="st1" d="M357.2,482.6c-2.9,0-5.5,2.4-5.5,5.5c0,20.7,0,41.5,0,62.1c0,3,2.5,5.5,5.5,5.5c84.8,0,160.9,0,245.7,0
		c3,0,5.5-2.4,5.5-5.5c0-20.7,0-41.5,0-62.1c0-3-2.4-5.5-5.5-5.5C518,482.6,442,482.6,357.2,482.6L357.2,482.6z"/>
	<path class="st0" d="M440.7,537.1v2.6l0,0c0,1-2,1-2.3,1c-0.3,0-2.4,0-2.4-1.6C435.9,537.3,438.5,537.2,440.7,537.1L440.7,537.1z
		 M444.3,539.7v-7.2l0,0c0-1.8-1.8-3.2-5.6-3.2c-2.9,0-4.9,1.3-5.7,1.7l0,0l1.6,2.7l0,0c1.1-0.9,3.6-1.3,4.7-1.3
		c1,0,1.5,0.7,1.5,1.1l0,0v0.9l0,0c-1.2,0-4.2,0.5-5.4,0.9c-1.1,0.4-3,1.2-3,3.9c0,2.8,2.8,4.5,5.6,4.5c2.3,0,3.2-1.4,3.2-1.4
		s1.2,1.5,3.3,1.6l0,0l1.4-2.9l0,0C444.1,540.6,444.3,540,444.3,539.7L444.3,539.7z"/>
	<path class="st0" d="M468,534.1v9.3h-3.5V535l0,0c0-1.4-1-2.3-2.2-2.3c-1.1,0-2.3,1-2.3,2.8l0,0v8h-3.5v-8.5l0,0
		c0-1.3-1-2.2-2.1-2.2c-1,0-2.5,0.8-2.5,2.7l0,0v8h-3.5v-13.8h3.5v0.9l0,0c0,0,1.3-1,3.6-1c2.1,0,3.3,1.4,3.3,1.4s1.5-1.5,3.8-1.5
		C466.2,529.4,468,531.8,468,534.1L468,534.1z"/>
	<path class="st0" d="M563.6,534.9v2.6l0,0c0,1.3,1,2.8,3,2.8c2.1,0,3.3-1.9,3.3-4.1c0-2.2-1.2-4.1-3.3-4.1
		C564.5,532.2,563.6,533.7,563.6,534.9L563.6,534.9z M563.6,530.3v-0.6H560v17.6h3.5v-4.9l0,0c0,0,1.1,1.4,3.7,1.4
		c4.8,0,6.2-5.1,6.2-7.3c0-1.8-0.6-3.7-1.7-5c-1-1.1-2.4-2.2-4.6-2.2C565.9,529.1,564.5,529.6,563.6,530.3L563.6,530.3z"/>
	<path class="st0" d="M384.3,540c1,0,1.9,0.9,1.9,1.9c0,1-0.9,1.9-1.9,1.9s-1.9-0.9-1.9-1.9C382.4,540.8,383.3,540,384.3,540"/>
	<path class="st0" d="M401.6,533.6c0.2,0,2.2-1,2.2-3.9c0-2.9-2.7-5.6-7.1-5.6s-7.1,2.2-7.4,5.9l0,0l4.1,0.4l0,0
		c0.3-1.8,1.1-2.9,3.6-2.9c2.5,0,2.9,1.7,2.8,2.3c0,1.7-1,2.3-4.2,2.3l0,0v3.2l0,0c1,0.1,2.9,0,3.5,0.4c1,0.7,1,1.2,1,1.9
		c0,0.4,0,2.7-2.9,2.7c-2.9,0-3.5-1.6-3.8-3l0,0l-4.1,0.7l0,0c0.5,3.3,2.8,5.8,7.8,5.8c5,0,7.1-3.3,7.1-6
		C404.1,535.4,402.5,533.8,401.6,533.6L401.6,533.6z"/>
	<path class="st0" d="M502,536.8c0-1.6-1.3-3.2-3.1-3.2c-1.7,0-3,1.6-3,3.3c0,1.7,1.2,3.3,3,3.3C500.1,540.2,502,539.3,502,536.8
		L502,536.8z M501.8,529.2c1.1-0.4,2.3-0.9,3.5-1.4c-0.8-2-2.1-3.9-6.4-3.9c-4.3,0-7.4,3.1-7.4,9.9c0,3.5,1.4,6.1,2.3,7.4
		c1,1.4,3.2,2.3,5.4,2.3c2.2,0,6.7-1.2,6.7-6.8s-4.3-6.7-6.2-6.7c-1.8,0-3.5,0.9-4.1,1.5c0-3,2-4.2,3.4-4.2
		C500.3,527.4,501.1,527.9,501.8,529.2L501.8,529.2z"/>
	<path class="st0" d="M371.3,532c-1.5,0-3-0.8-3-2.3c0-1.6,1.6-2.3,2.9-2.3l0,0c1.4,0,2.9,0.8,2.9,2.3
		C374.1,531.2,372.6,532,371.3,532L371.3,532z M371.3,540.2c-2.1,0-3.5-0.9-3.5-2.5c0-1.7,1.6-2.4,3.5-2.4l0,0
		c1.8,0,3.5,0.7,3.5,2.4C374.6,539.3,373.2,540.2,371.3,540.2L371.3,540.2z M371.2,523.9c3.1,0,7,1.5,7,5.8c0,3-2.3,3.5-2.3,3.5
		s2.8,0.8,2.8,4.5s-3.1,6-7.5,6l0,0c-4.5,0-7.5-2.2-7.5-6s2.8-4.5,2.8-4.5s-2.2-0.5-2.2-3.5C364.2,525.4,368,523.9,371.2,523.9
		L371.2,523.9z"/>
	<path class="st0" d="M416.5,527.7c2.1,0,4.1,1.2,4.2,6.1c0.1,4.9-1.8,6.5-4.2,6.5l0,0c-2.2,0-4.2-1.6-4.1-6.5
		C412.5,529,414.5,527.7,416.5,527.7L416.5,527.7z M416.5,524.2c2.8-0.1,8,1.6,8,9.8c0,8.3-5,10-8,10l0,0c-3,0-8-1.6-8-10
		C408.5,525.8,413.8,524.1,416.5,524.2L416.5,524.2z"/>
	<polygon class="st0" points="476.7,533.7 482.6,533.7 482.6,536.6 476.7,536.6 	"/>
	<path class="st0" d="M511.5,540c1,0,1.9,0.9,1.9,1.9c0,1-0.9,1.9-1.9,1.9c-1.1,0-1.9-0.9-1.9-1.9C509.6,540.8,510.5,540,511.5,540"
		/>
	<path class="st0" d="M528.9,533.6c0.2,0,2.2-1,2.2-3.9c0-2.9-2.7-5.6-7.1-5.6c-4.4,0-7.1,2.2-7.4,5.9l0,0l4,0.4l0,0
		c0.3-1.8,1.2-2.9,3.7-2.9c2.4,0,2.8,1.7,2.8,2.3c0,1.7-1,2.3-4.2,2.3l0,0v3.2l0,0c1,0.1,2.9,0,3.5,0.4c1,0.7,1,1.2,1,1.9
		c0,0.4,0,2.7-2.9,2.7c-2.9,0-3.5-1.6-3.8-3l0,0l-4,0.7l0,0c0.5,3.3,2.8,5.8,7.8,5.8c4.9,0,7-3.3,7-6
		C531.4,535.4,529.8,533.8,528.9,533.6L528.9,533.6z"/>
	<path class="st0" d="M543.7,527.7c2,0,4.1,1.2,4.1,6.1c0.1,4.9-1.8,6.5-4.1,6.5l0,0c-2.3,0-4.2-1.6-4.2-6.5
		C539.7,529,541.8,527.7,543.7,527.7L543.7,527.7z M543.7,524.2c2.7-0.1,8,1.6,8,9.8c0,8.3-5,10-8,10l0,0c-3,0-8-1.6-8-10
		C535.7,525.8,541,524.1,543.7,524.2L543.7,524.2z"/>
	<path class="st0" d="M596.3,534.1v9.3h-3.5V535l0,0c0-1.4-1-2.3-2.2-2.3c-1.1,0-2.3,1-2.3,2.8l0,0v8h-3.5v-8.5l0,0
		c0-1.3-1-2.2-2-2.2c-1,0-2.5,0.8-2.5,2.7l0,0v8h-3.5v-13.8h3.5v0.9l0,0c0,0,1.2-1,3.5-1c2.1,0,3.4,1.4,3.4,1.4
		c-0.1,0,1.4-1.5,3.7-1.5C594.4,529.4,596.3,531.8,596.3,534.1L596.3,534.1z"/>
	<path class="st0" d="M473.5,502.8v9h-3.5v-8.7l0,0c0-1-0.8-2-2.3-2c-1.5,0-2.9,1.3-2.9,3.1l0,0v7.5h-3.5v-13.8h3.5v1l0,0
		c0,0,1.5-1.3,3.5-1.3C471.4,497.8,473.5,500.4,473.5,502.8L473.5,502.8z"/>
	<path class="st0" d="M451.3,500.7c-1.5,0-3.1,1.3-3.1,4.3c0,2.9,1.6,4.3,3.1,4.3l0,0c1.5,0,3.1-1.4,3.1-4.3
		C454.4,502,452.8,500.7,451.3,500.7L451.3,500.7z M451.3,497.6c-3.3,0-6.7,2.7-6.7,7.4c0,4.8,3.3,7.5,6.7,7.5l0,0
		c3.4,0,6.7-2.8,6.7-7.5C458,500.3,454.6,497.6,451.3,497.6L451.3,497.6z"/>
	<polygon class="st0" points="482.1,502.1 488.1,502.1 488.1,505.1 482.1,505.1 	"/>
	<polygon class="st0" points="440.4,503.6 440.4,511.7 436.7,511.7 436.7,497.8 431,505.8 425.1,497.8 425.1,511.7 421.5,511.7 
		421.5,492.7 426.1,492.7 431,499.4 435.6,492.7 440.4,492.7 440.4,498.1 	"/>
	<path class="st0" d="M496.8,508.6l2.8-2.7l0,0c3.5,2.4,6.4,2.7,7.1,2.7c1,0,2.1-1,2.1-2.2c0-1.2-0.9-1.9-1.5-2.1
		c-0.7-0.2-3.3-0.7-4.4-0.9c-1-0.3-4.6-1.3-4.6-5.5c0-4.2,3-5.8,6.5-5.8c3.4,0,5.9,1,8.1,3l0,0l-2.7,2.6l0,0c-1.3-1.1-3.1-2-5.7-2
		c-1.6,0-1.9,1.5-1.9,2c0,0.4,0.3,1.6,1.4,1.7c1,0.3,3.7,0.9,4.1,0.9c1.1,0.2,4.8,1.6,4.8,5.6c0,3.5-2.3,6-6.7,6
		S498.3,510.1,496.8,508.6L496.8,508.6z"/>
	<path class="st0" d="M524.4,505.5v2.7l0,0c0,1-2,1-2.3,1c-0.3,0-2.4,0-2.4-1.6C519.7,505.7,522.2,505.6,524.4,505.5L524.4,505.5z
		 M528,508.1v-7.2l0,0c0-1.8-1.7-3.2-5.5-3.2c-2.9,0-5,1.3-5.7,1.7l0,0l1.5,2.7l0,0c1.2-0.9,3.7-1.3,4.7-1.3c1,0,1.6,0.8,1.6,1.2
		l0,0v0.8l0,0c-1.2,0-4.2,0.5-5.5,0.9c-1.1,0.4-2.9,1.2-2.9,3.9c0,2.8,2.8,4.6,5.5,4.6c2.4,0,3.2-1.5,3.2-1.5s1.2,1.5,3.3,1.6l0,0
		l1.5-2.9l0,0C527.9,509,528,508.5,528,508.1L528,508.1z"/>
	<path class="st0" d="M540.7,511.4l-0.6-2.9l0,0c-2.5,0.8-3.2,0.1-3.2-0.5l0,0v-6.8h3.5v-3.1h-3.5v-5.4l-3.6,1v4.3h-2.2v3.1h2.2v8
		l0,0c0,1.7,1.1,3,3.7,3C539,512.2,540.3,511.6,540.7,511.4L540.7,511.4z"/>
	<path class="st2" d="M480.1,254.9c40.7,0,73.8,33.1,73.8,73.8c0,40.7-33.1,73.8-73.8,73.8s-73.8-33.1-73.8-73.8
		C406.3,287.9,439.4,254.9,480.1,254.9"/>
	<polygon class="st3" points="525.7,387.2 538.5,374.4 434.3,270.4 421.5,283.1 	"/>
	<path class="st3" d="M422.1,270.8c-32,32-32,83.9,0,115.9c32,31.9,83.9,31.9,115.9,0c32-32,32-83.9,0-115.9
		C505.9,238.9,454.1,238.9,422.1,270.8L422.1,270.8z M433.7,282.4c-25.6,25.6-25.6,67.1,0,92.7c25.6,25.5,67.2,25.5,92.7,0
		c25.6-25.6,25.6-67.1,0-92.7C500.8,256.8,459.3,256.8,433.7,282.4L433.7,282.4z"/>
	<polygon class="st0" points="374.4,427 376.8,427 391.7,448 391.7,427 397.7,427 397.7,457.6 390.7,457.6 376.9,436.8 376.9,457.6 
		370.9,457.6 370.9,427 372.4,427 	"/>
	<path class="st0" d="M454.7,457.6l-0.6-5l0,0c-2.6,0.6-4,0.1-4-1.1l0,0v-24.3h-5.7v26.6l0,0c0,2.3,1.5,4.6,5.8,4.6
		C452.4,458.3,454.7,457.6,454.7,457.6L454.7,457.6z"/>
	<path class="st0" d="M414.8,439.9c-2.3,0-5,2.2-5,6.9c0,4.8,2.7,6.9,5,6.9l0,0c2.3,0,5-2.2,5-6.9
		C419.8,442.1,417.2,439.9,414.8,439.9L414.8,439.9z M414.8,434.9c-5.3,0-10.6,4.3-10.6,11.9c0,7.5,5.3,11.9,10.6,11.9l0,0
		c5.5,0,10.7-4.4,10.7-11.9C425.5,439.2,420.2,434.9,414.8,434.9L414.8,434.9z"/>
	<path class="st0" d="M467.6,439.9c-2.4,0-5,2.2-5,6.9c0,4.8,2.6,6.9,5,6.9l0,0c2.3,0,5-2.2,5-6.9
		C472.6,442.1,469.9,439.9,467.6,439.9L467.6,439.9z M467.6,434.9c-5.4,0-10.7,4.3-10.7,11.9c0,7.5,5.3,11.9,10.7,11.9l0,0
		c5.4,0,10.6-4.4,10.6-11.9C478.2,439.2,472.9,434.9,467.6,434.9L467.6,434.9z"/>
	<path class="st0" d="M495.2,447.6v4.2l0,0c0,1.6-3.2,1.6-3.7,1.6c-0.5,0-3.9,0-3.9-2.7C487.6,447.8,491.6,447.6,495.2,447.6
		L495.2,447.6z M500.9,451.7v-11.4l0,0c0-3-2.9-5.2-8.9-5.2c-4.7,0-8,2.1-9.1,2.8l0,0l2.4,4.2l0,0c1.9-1.3,5.8-2.1,7.4-2.1
		c1.7,0,2.4,1.2,2.4,1.9l0,0v1.3l0,0c-1.9,0-6.8,0.9-8.7,1.5c-1.8,0.6-4.8,1.9-4.8,6.2c0,4.3,4.4,7.2,8.9,7.2c3.8,0,5.1-2.2,5.1-2.2
		s2,2.3,5.3,2.4l0,0l2.2-4.5l0,0C500.7,453.2,500.9,452.3,500.9,451.7L500.9,451.7z"/>
	<path class="st0" d="M522.5,444.8c0,1.4,0,2.9,0,4.3c0,1.7-1.6,4.4-4.8,4.4c-3.4,0-5.2-2.8-5.2-6.8c0-4.2,2.2-6.2,5-6.2
		C520.3,440.5,522.5,442.2,522.5,444.8L522.5,444.8z M522.5,437.3c0-3.4,0-6.8,0-10.2c1.8,0,3.7,0,5.6,0c0,10.1,0,20.3,0,30.5
		c-1.8,0-3.7,0-5.6,0c0-0.3,0-0.6,0-1c0,0-2.3,1.9-5.7,1.9c-3.4,0-10.2-2.9-10.2-11.9s7.1-11.5,9.8-11.5
		C519,435.1,520.2,435.8,522.5,437.3L522.5,437.3z"/>
	<polygon class="st0" points="533.4,435.7 539.1,435.7 539.1,457.6 533.4,457.6 	"/>
	<path class="st0" d="M536.4,427c1.8,0,3.2,1.4,3.2,3.2c0,1.8-1.4,3.2-3.2,3.2c-1.8,0-3.2-1.4-3.2-3.2
		C533.2,428.5,534.6,427,536.4,427"/>
	<path class="st0" d="M570.2,462.3l2.6-4.7l0,0c1.1,0.5,3.1,1.8,7.1,1.8c5.5,0,4.7-4.2,4.7-4.2s-1.9,1.2-4.4,1.2
		c-9.7,0-9.9-10.5-9.9-10.5s0-4.8,3.3-7.8c1.8-1.6,3.8-2.4,6.6-2.4c0.9,0,3,0.3,4.4,1.1l0,0v-1.2h5.6v22.2l0,0
		c0,5.1-6.7,6.9-10.2,6.9C576.5,464.7,572.5,463.6,570.2,462.3L570.2,462.3z M584.6,446c0-2.2-1.2-4.6-4.1-4.6
		c-2.9,0-3.9,2.6-3.9,4.6c0,2.1,0.8,4.8,3.9,4.8l0,0C583.5,450.8,584.6,448.4,584.6,446L584.6,446z"/>
	<path class="st0" d="M565.1,443.2v14.4h-5.7v-13.8l0,0c0-1.6-1.3-3.2-3.7-3.2c-2.3,0-4.6,2.1-4.6,5l0,0v11.9h-5.6v-21.9h5.6v1.6
		l0,0c0,0,2.3-2.2,5.5-2.2C561.7,435.1,565.1,439.3,565.1,443.2L565.1,443.2z"/>
	<path class="st0" d="M427.9,127.7l4.3-3.7l0,0c1.5,1.8,4.9,3.4,6.4,3.4c1.5,0,2.8-1.1,2.8-2.2c0-1.1-0.8-1.6-1.6-1.8
		c-0.8-0.3-3.7-1-4.2-1.1c-0.6-0.1-5.8-1-5.8-6.3c0-5.5,5.7-6.8,9.1-6.8c3.5,0,6.5,1,8.9,3.2l0,0l-3.5,3.8l0,0
		c-2.2-1.8-3.6-2.5-5.3-2.5s-3,0.7-3,2.1c0,1.3,1,1.5,1.5,1.6c0.5,0.1,4.2,0.9,5,1.1c0.9,0.2,5.2,1.5,5.2,6.6c0,5-4.8,7-9.3,7
		C433.9,132.1,429.4,129.7,427.9,127.7L427.9,127.7z"/>
	<path class="st0" d="M519.6,115.3l-5.2,1.7l0,0c-0.5-1.6-2-3.5-4.4-3.5c-2.3,0-5.1,2.3-5.1,6.9c0,4.6,2.5,7,5.1,7
		c2.5,0,4.1-2.5,4.5-3.8l0,0l5.5,1.2l0,0c-0.7,2.8-4.2,7.6-9.8,7.6c-5.7,0-11-4.7-11-12c0-7.4,5.7-11.9,10.6-11.9
		C514.6,108.6,518.5,111.8,519.6,115.3L519.6,115.3z"/>
	<polygon class="st0" points="488.7,109.5 494.3,109.5 494.3,131.4 488.7,131.4 	"/>
	<path class="st0" d="M491.4,100.8c1.8,0,3.2,1.4,3.2,3.2s-1.4,3.2-3.2,3.2c-1.8,0-3.2-1.4-3.2-3.2
		C488.2,102.2,489.6,100.8,491.4,100.8"/>
	<path class="st0" d="M483.2,114.4V109l0,0c-5.3-0.1-6.1,1.3-7.4,2.7l0,0v-2.2h-5.7v21.9h5.7v-10.9l0,0
		C475.8,117.1,479.4,114.4,483.2,114.4L483.2,114.4z"/>
	<path class="st0" d="M410.7,118.1h8.7l0,0c0-2-1.6-4.2-4.3-4.2C412.4,113.8,410.7,115.9,410.7,118.1L410.7,118.1z M410.6,122.5
		h14.5l0,0c0.3-2.8-0.8-13.7-10.1-13.7c-8.1,0-10,8.7-10,11.5s1.6,11.7,10.6,11.7c5.1,0,7.8-2.9,8.5-3.7l0,0l-3.5-3.4l0,0
		c0,0-1.6,2.1-4.8,2.1C412.5,127,410.6,124.6,410.6,122.5L410.6,122.5z"/>
	<path class="st0" d="M388.7,106.3h-6.6v7.3h6.6l0,0c2.9,0,4-2.2,4-3.6C392.6,108.1,391.6,106.3,388.7,106.3L388.7,106.3z
		 M390.5,100.7h-14.6v30.5h6.2v-12.1h4.3l7,12.1h6.6l-7-12.1l0,0c2.2-0.3,6.7-3.3,6.7-9.2C399.7,103.7,395.2,100.7,390.5,100.7
		L390.5,100.7z"/>
	<path class="st0" d="M537.9,130.8l-1-4.8l0,0c-4.1,1.5-5.2,0.3-5.2-0.7l0,0v-11h5.9v-4.8h-5.9v-8.8l-5.5,1.8v7h-3.6v4.8h3.6v12.8
		l0,0c0,2.9,1.5,4.8,5.9,4.8C535,131.9,537.2,131.2,537.9,130.8L537.9,130.8z"/>
	<path class="st0" d="M580.3,118.4c0,1.3,0,2.7,0,4.1c0,0.5-0.3,1-0.5,1.6c-0.2,0.4-0.5,1-1,1.3c-0.8,0.8-1.6,1.3-3.3,1.3
		c-3.3,0-4.9-2.2-4.9-6.3c0-4.2,2.2-6.5,5-6.5C578.4,113.8,580.3,115.8,580.3,118.4L580.3,118.4z M580.3,110.5c0-3.2,0-6.5,0-9.8
		c2,0,4,0,6,0c0,10.1,0,20.3,0,30.6c-2,0-4,0-6,0c0-0.5,0-1,0-1.6c0,0-0.7,0.9-2,1.5c-1,0.4-2.4,0.7-3.8,0.7c-1.6,0-4-0.5-5.9-1.9
		c-2.2-1.7-4-4.8-4-9.7c0-4.3,1-6.9,2.9-8.8c2.1-2,5.2-2.9,6.6-2.9C576.8,108.5,578.1,109,580.3,110.5L580.3,110.5z"/>
	<path class="st0" d="M546.9,118.1h8.7l0,0c0-2-1.6-4.2-4.3-4.2C548.5,113.8,546.9,115.9,546.9,118.1L546.9,118.1z M546.9,122.5
		h14.4l0,0c0.3-2.8-0.8-13.7-10.1-13.7c-8.1,0-10,8.7-10,11.5s1.6,11.7,10.6,11.7c5.1,0,7.8-2.9,8.5-3.7l0,0l-3.5-3.4l0,0
		c0,0-1.6,2.1-4.9,2.1C548.6,127,546.9,124.6,546.9,122.5L546.9,122.5z"/>
	<path class="st0" d="M465.9,130.8l-1.1-4.8l0,0c-4,1.5-5.1,0.3-5.1-0.7l0,0v-11h5.9v-4.8h-5.9v-8.8l-5.5,1.8v7h-3.6v4.8h3.6v12.8
		l0,0c0,2.9,1.5,4.8,5.8,4.8C462.9,131.9,465.2,131.2,465.9,130.8L465.9,130.8z"/>
	<polygon class="st0" points="541,191.8 528.5,191.8 528.5,230 554.4,230 554.4,222.8 536,222.8 536,214.4 551.6,214.4 551.6,207.3 
		536,207.3 536,198.9 553.3,198.9 553.3,191.8 546.9,191.8 	"/>
	<polygon class="st0" points="486.9,191.8 489.9,191.8 508.5,218.1 508.5,191.8 516,191.8 516,230 507.3,230 490.1,204 490.1,230 
		482.6,230 482.6,191.8 484.4,191.8 	"/>
	<path class="st0" d="M454.9,198.8c-5.2,0-10.1,3.9-10.1,12.2c0,8.3,5.1,12.4,10.1,12.4l0,0c4.9,0,10-4.1,10-12.4
		C464.9,202.7,460.1,198.8,454.9,198.8L454.9,198.8z M454.9,191.3c-7.4,0-18,5.8-18,19.6c0,13.8,10.4,19.5,18,19.5l0,0
		c7.5,0,18-5.6,18-19.5C472.9,197.1,462.1,191.3,454.9,191.3L454.9,191.3z"/>
	<polygon class="st0" points="416.1,191.8 403.5,191.8 403.5,198.6 420.5,198.6 402.9,222.5 402.9,230 430.5,230 430.5,222.5 
		412.1,222.5 429.8,198.6 429.8,191.8 420.8,191.8 	"/>
	<path class="st0" d="M534.7,179.8l2.6-4.8l0,0c1,0.5,3,1.8,7.1,1.8c5.5,0,4.6-4.2,4.6-4.2s-1.9,1.1-4.3,1.1c-9.7,0-10-10.5-10-10.5
		s0.1-4.8,3.4-7.7c1.8-1.6,3.8-2.4,6.6-2.4c0.9,0,3,0.3,4.3,1l0,0V153h5.7v22.2l0,0c0,5-6.8,6.9-10.2,6.9
		C541,182.2,536.9,181,534.7,179.8L534.7,179.8z M549,163.4c0-2.3-1.1-4.7-4-4.7c-2.9,0-3.9,2.7-3.9,4.7c0,2,0.8,4.8,3.9,4.8l0,0
		C548,168.2,549,165.7,549,163.4L549,163.4z"/>
	<path class="st0" d="M529.6,160.6v14.3h-5.7v-13.8l0,0c0-1.6-1.3-3.2-3.7-3.2c-2.3,0-4.6,2.1-4.6,5l0,0v11.9H510V153h5.6v1.6l0,0
		c0,0,2.3-2.1,5.5-2.1C526.2,152.6,529.6,156.7,529.6,160.6L529.6,160.6z"/>
	<path class="st0" d="M442.4,165v4.2l0,0c0,1.6-3.2,1.6-3.7,1.6c-0.5,0-3.9,0-3.9-2.6C434.8,165.1,438.9,165,442.4,165L442.4,165z
		 M448.1,169v-11.4l0,0c0-2.9-2.9-5.2-8.9-5.2c-4.8,0-8,2.1-9.1,2.8l0,0l2.4,4.2l0,0c1.9-1.2,5.8-2.1,7.4-2.1c1.6,0,2.4,1.3,2.4,2
		l0,0v1.2l0,0c-2,0-6.7,0.9-8.7,1.5c-1.8,0.6-4.8,1.9-4.8,6.2c0,4.4,4.4,7.3,8.9,7.3c3.8,0,5.1-2.2,5.1-2.2s1.9,2.3,5.3,2.4l0,0
		l2.2-4.6l0,0C447.9,170.6,448.1,169.7,448.1,169L448.1,169z"/>
	<polygon class="st0" points="498,153.1 503.6,153.1 503.6,175 498,175 	"/>
	<path class="st0" d="M500.6,144.6c1.8,0,3.2,1.4,3.2,3.2c0,1.8-1.4,3.2-3.2,3.2c-1.8,0-3.2-1.4-3.2-3.2
		C497.4,146,498.8,144.6,500.6,144.6"/>
	<path class="st0" d="M467.8,157.9v-5.4v0c-5.4-0.1-6.1,1.3-7.5,2.7l0,0V153h-5.6v21.9h5.6V164l0,0
		C460.2,160.7,463.9,157.9,467.8,157.9L467.8,157.9z"/>
	<path class="st0" d="M409.5,161.5v4.1l0,0c0,2.2,1.6,4.5,4.8,4.5c3.3,0,5.2-3.1,5.2-6.6s-1.8-6.4-5.2-6.4
		C411.1,157.1,409.5,159.5,409.5,161.5L409.5,161.5z M409.5,154v-1h-5.7v28.1h5.7v-7.9l0,0c0,0,1.8,2.2,6,2.2c7.6,0,10-8.1,10-11.7
		c0-2.8-1-5.9-2.8-7.9c-1.6-1.9-4-3.6-7.4-3.7C413.1,152.2,411,152.9,409.5,154L409.5,154z"/>
	<polygon class="st0" points="478.9,154.7 478.9,144.4 473.2,144.4 473.2,174.8 478.9,174.8 478.9,168.9 481.2,166.5 486.8,174.8 
		493.8,174.8 485.2,162.5 494.1,153.2 486.4,153.2 478.9,161.2 478.9,156.4 	"/>
</g>
</svg>
