<?xml version="1.0" encoding="UTF-8" standalone="no"?>
<!-- Created with Inkscape (http://www.inkscape.org/) -->

<svg
   xmlns:dc="http://purl.org/dc/elements/1.1/"
   xmlns:cc="http://creativecommons.org/ns#"
   xmlns:rdf="http://www.w3.org/1999/02/22-rdf-syntax-ns#"
   xmlns:svg="http://www.w3.org/2000/svg"
   xmlns="http://www.w3.org/2000/svg"
   xmlns:inkscape="http://www.inkscape.org/namespaces/inkscape"
   version="1.1"
   width="193.78999"
   height="299.07999"
   id="svg2"
   xml:space="preserve"><metadata
     id="metadata8"><rdf:RDF><cc:Work
         rdf:about=""><dc:format>image/svg+xml</dc:format><dc:type
           rdf:resource="http://purl.org/dc/dcmitype/StillImage" /></cc:Work></rdf:RDF></metadata><defs
     id="defs6"><clipPath
       id="clipPath20"><path
         d="M 0,239.28 H 155.03 V 0.02 H 0 v 239.26 z"
         inkscape:connector-curvature="0"
         id="path22" /></clipPath></defs><g
     transform="matrix(1.25,0,0,-1.25,0,299.09)"
     id="g10"><g
       transform="translate(154.53,17.824)"
       id="g12"><path
         d="m 0,0 c 0,-9.568 -7.756,-17.324 -17.324,-17.324 h -119.38 c -9.568,0 -17.324,7.756 -17.324,17.324 v 203.63 c 0,9.568 7.756,17.324 17.324,17.324 h 119.38 c 9.564,0 17.32,-7.75 17.32,-17.32 V 0.004"
         inkscape:connector-curvature="0"
         id="path14"
         style="fill:#ffffff" /></g><g
       id="g16"><g
         clip-path="url(#clipPath20)"
         id="g18"><g
           transform="translate(154.53,17.824)"
           id="g24"><path
             d="m 0,0 c 0,-9.568 -7.756,-17.324 -17.324,-17.324 h -119.38 c -9.568,0 -17.324,7.756 -17.324,17.324 v 203.63 c 0,9.568 7.756,17.324 17.324,17.324 h 119.38 c 9.564,0 17.32,-7.75 17.32,-17.32 V 0.004 z"
             inkscape:connector-curvature="0"
             id="path26"
             style="fill:none;stroke:#0079c1" /></g></g></g><g
       transform="translate(146.22,17.824)"
       id="g28"><path
         d="m 0,0 c 0,-4.98 -4.035,-9.016 -9.015,-9.016 h -119.38 c -4.979,0 -9.015,4.036 -9.015,9.016 v 203.63 c 0,4.979 4.036,9.015 9.015,9.015 h 119.38 c 4.98,0 9.015,-4.036 9.015,-9.015 L 0.005,0.01"
         inkscape:connector-curvature="0"
         id="path30"
         style="fill:#0079c1" /></g><g
       transform="translate(98.045,30.301)"
       id="g32"><path
         d="m 0,0 v 12.75 h -5.626 c 2.387,0.716 3.522,2.329 3.522,2.329 v 12.446 c 2.997,1.748 2.748,4.745 2.748,4.745 v 15.941 c 0,5.494 -5.163,5.786 -5.163,5.786 l -2.83,17.774 c -1.166,7.451 -7.159,8.741 -9.657,8.741 h -38.751 c -2.497,0 -8.492,-1.29 -9.657,-8.741 l -2.83,-17.774 c 0,0 -5.162,-0.292 -5.162,-5.786 V 32.27 c 0,0 -0.249,-2.997 2.747,-4.745 V 15.079 c 0,0 1.136,-1.613 3.522,-2.329 h -6.112 V -7.5 H 34.371 V 0 H -0.002"
         inkscape:connector-curvature="0"
         id="path34"
         style="fill:#ffffff" /></g><g
       transform="translate(38.792,45.463)"
       id="g36"><path
         d="m 0,0 v 11.406 c 0,0 16.004,-0.854 22.872,-0.854 6.868,0 22.873,0.854 22.873,0.854 V 0 c 0,0 0.941,-1.678 3.261,-2.412 H -3.263 C -0.942,-1.678 0,0 0,0"
         inkscape:connector-curvature="0"
         id="path38"
         style="fill:#0079c1" /></g><g
       transform="translate(61.664,88.419)"
       id="g40"><path
         d="m 0,0 c 4.828,0 19.084,-0.832 22.955,-0.832 4.912,0 4.038,4.662 4.038,4.662 l -0.791,5.328 c -0.875,4.494 -4.563,6.445 -7.804,6.804 C 17.836,16.025 7.159,16.775 6.16,16.775 H -6.16 c -0.999,0 -11.676,-0.75 -12.237,-0.813 -3.242,-0.359 -6.93,-2.31 -7.805,-6.804 L -26.993,3.83 c 0,0 -0.874,-4.662 4.037,-4.662 C -19.084,-0.832 -4.828,0 0,0"
         inkscape:connector-curvature="0"
         id="path42"
         style="fill:#0079c1" /></g><g
       transform="translate(65.262,125.08)"
       id="g44"><path
         d="m 0,0 h -19.146 v 90.678 h 48.248 c 10.851,0 19.65,-8.798 19.65,-19.65 V 54.964 c 0,-10.852 -8.799,-19.649 -19.65,-19.649 H 0 V 0"
         inkscape:connector-curvature="0"
         id="path46"
         style="fill:#ffffff" /></g><g
       transform="translate(65.262,200.88)"
       id="g48"><path
         d="m 0,0 h 21.152 c 5.038,0 9.124,-4.085 9.124,-9.123 v -7.346 c 0,-5.039 -4.086,-9.124 -9.124,-9.124 H 0 V 0"
         inkscape:connector-curvature="0"
         id="path50"
         style="fill:#0079c1" /></g><g
       transform="translate(26.735,8.808)"
       id="g52"><path
         d="m 0,0 h -8.911 c -4.979,0 -9.015,4.036 -9.015,9.016 v 6.157 l 119.18,206.48 h 9.223 c 4.98,0 9.015,-4.036 9.015,-9.015 v -5.845 L 0.012,-0.007"
         inkscape:connector-curvature="0"
         id="path54"
         style="fill:#ec1d24" /></g></g></svg>