<?xml version="1.0" encoding="UTF-8" standalone="no"?>
<svg
   xmlns:dc="http://purl.org/dc/elements/1.1/"
   xmlns:cc="http://creativecommons.org/ns#"
   xmlns:rdf="http://www.w3.org/1999/02/22-rdf-syntax-ns#"
   xmlns:svg="http://www.w3.org/2000/svg"
   xmlns="http://www.w3.org/2000/svg"
   xmlns:sodipodi="http://sodipodi.sourceforge.net/DTD/sodipodi-0.dtd"
   xmlns:inkscape="http://www.inkscape.org/namespaces/inkscape"
   width="900.40002"
   height="900.40009"
   viewBox="-50 -30 90.039921 90.040017"
   id="svg2"
   version="1.1"
   inkscape:version="0.48.4 r9939"
   sodipodi:docname="AJAX.svg">
  <metadata
     id="metadata14">
    <rdf:RDF>
      <cc:Work
         rdf:about="">
        <dc:format>image/svg+xml</dc:format>
        <dc:type
           rdf:resource="http://purl.org/dc/dcmitype/StillImage" />
        <dc:title></dc:title>
      </cc:Work>
    </rdf:RDF>
  </metadata>
  <defs
     id="defs12" />
  <sodipodi:namedview
     pagecolor="#ffffff"
     bordercolor="#666666"
     borderopacity="1"
     objecttolerance="10"
     gridtolerance="10"
     guidetolerance="10"
     inkscape:pageopacity="0"
     inkscape:pageshadow="2"
     inkscape:window-width="1920"
     inkscape:window-height="1057"
     id="namedview10"
     showgrid="false"
     fit-margin-top="0.2"
     fit-margin-left="0.2"
     fit-margin-right="0.2"
     fit-margin-bottom="0.2"
     inkscape:zoom="0.5"
     inkscape:cx="924.53234"
     inkscape:cy="352.26988"
     inkscape:window-x="-8"
     inkscape:window-y="-8"
     inkscape:window-maximized="1"
     inkscape:current-layer="svg2"
     showguides="true"
     inkscape:guide-bbox="true"
     inkscape:showpageshadow="true"
     borderlayer="false"
     showborder="true" />
  <path
     sodipodi:nodetypes="sssss"
     style="fill:#ec1d24;fill-opacity:1;stroke:none"
     d="m -4.9800344,60.02002 c -24.8528296,0 -45.0000106,-20.147186 -45.0000106,-45.000021 0,-24.8527966 20.147181,-44.999999 45.0000106,-44.999999 24.8528094,0 44.9999994,20.1472024 44.9999994,44.999999 0,24.852835 -20.147191,45.000021 -44.9999994,45.000021 z"
     id="path4310"
     inkscape:connector-curvature="0" />
  <path
     inkscape:connector-curvature="0"
     id="path4312"
     d="m -4.9800384,51.02002 c -19.8822596,0 -36.0000056,-16.117753 -36.0000056,-36.000021 0,-19.8822406 16.117746,-35.999999 36.0000056,-35.999999 19.8822524,0 36.0000044,16.1177584 36.0000044,35.999999 0,19.882268 -16.117753,36.000021 -36.0000044,36.000021 z"
     style="fill:#ffffff;fill-opacity:1;stroke:none"
     sodipodi:nodetypes="sssss" />
  <path
     id="path3792"
     d="m -7.0207741,26.084359 -4.1284239,0 0,5.697058 -6.85337,0 0,-5.697058 -18.08249,0 0,-6.192635 16.18342,-21.6331081 8.75244,0 0,21.4679711 4.1284239,0 0,6.357772 z"
     style="fill:#000000;fill-rule:nonzero;stroke:none"
     inkscape:connector-curvature="0" />
  <path
     id="path3794"
     d="m -28.406198,19.726587 10.40363,0 0,-14.0366411 -10.40363,14.0366411 z"
     style="fill:#ffffff;fill-rule:nonzero;stroke:none"
     inkscape:connector-curvature="0" />
  <path
     style="fill:#000000;fill-rule:nonzero;stroke:none"
     d="m 13.206618,32.485018 c 9.378262,-0.0077 14.133126,-6.098808 14.118247,-17.34313 5.5e-5,-0.04109 6.4e-5,-0.08092 0,-0.121871 6.4e-5,-0.04095 5.5e-5,-0.08078 0,-0.121871 0.01488,-11.2443211 -4.739985,-17.3354301 -14.118247,-17.3431301 -9.3782571,0.0077 -14.13312071,6.098809 -14.11824171,17.3431301 -5.5e-5,0.04109 -6.4e-5,0.08092 0,0.121871 -6.4e-5,0.04095 -5.5e-5,0.08078 0,0.121871 -0.01488,11.244322 4.73998461,17.335431 14.11824171,17.34313 z"
     id="path3796"
     inkscape:connector-curvature="0" />
  <path
     style="fill:#ffffff;fill-rule:nonzero;stroke:none"
     d="m 13.206642,26.125117 c 4.819139,-0.04585 7.137713,-4.180612 7.143012,-11.064484 -10e-6,-0.01373 2.4e-5,-0.02691 0,-0.04062 2.4e-5,-0.01371 -10e-6,-0.02689 0,-0.04062 -0.0053,-6.8838671 -2.323873,-11.0186291 -7.143012,-11.0644811 -4.8191375,0.04585 -7.1377105,4.180614 -7.1430095,11.0644811 1e-5,0.01373 -2.4e-5,0.02691 0,0.04062 -2.4e-5,0.01371 1e-5,0.02689 0,0.04062 0.0053,6.883872 2.323872,11.018632 7.1430095,11.064484 z"
     id="path3798"
     inkscape:connector-curvature="0" />
</svg>
