<?xml version="1.0" encoding="UTF-8" standalone="no"?>
<!-- Created with Inkscape (http://www.inkscape.org/) -->

<svg
   xmlns:dc="http://purl.org/dc/elements/1.1/"
   xmlns:cc="http://creativecommons.org/ns#"
   xmlns:rdf="http://www.w3.org/1999/02/22-rdf-syntax-ns#"
   xmlns:svg="http://www.w3.org/2000/svg"
   xmlns="http://www.w3.org/2000/svg"
   xmlns:inkscape="http://www.inkscape.org/namespaces/inkscape"
   version="1.1"
   width="345.92001"
   height="407.09"
   id="svg2"
   xml:space="preserve"><metadata
     id="metadata8"><rdf:RDF><cc:Work
         rdf:about=""><dc:format>image/svg+xml</dc:format><dc:type
           rdf:resource="http://purl.org/dc/dcmitype/StillImage" /></cc:Work></rdf:RDF></metadata><defs
     id="defs6"><clipPath
       id="clipPath16"><path
         d="M 0.014999,325.69 H 276.755 V 0.02 H 0.014999 v 325.67 z"
         inkscape:connector-curvature="0"
         id="path18" /></clipPath></defs><g
     transform="matrix(1.25,0,0,-1.25,-0.018749,407.11)"
     id="g10"><g
       id="g12"><g
         clip-path="url(#clipPath16)"
         id="g14"><g
           transform="translate(12.82,0)"
           id="g20"><path
             d="m 0,0 c -7.0566,0 -12.82,5.758 -12.82,12.817 v 300.2 c 0,6.91 5.7634,12.676 12.82,12.676 h 251.25 c 6.914,0 12.68,-5.766 12.68,-12.676 v -300.2 c 0,-7.062 -5.76,-12.82 -12.68,-12.82 H 0"
             inkscape:connector-curvature="0"
             id="path22"
             style="fill:#231f20;fill-rule:evenodd" /></g></g></g><g
       transform="translate(264.07,6.336)"
       id="g24"><path
         d="m 0,0 c 3.457,0 6.34,2.879 6.34,6.481 v 197.92 c 0,3.457 -2.883,6.336 -6.34,6.336 h -251.25 c -3.599,0 -6.48,-2.879 -6.48,-6.336 V 6.481 c 0,-3.602 2.881,-6.481 6.48,-6.481 L 0,10e-4"
         inkscape:connector-curvature="0"
         id="path26"
         style="fill:#ffffff;fill-rule:evenodd" /></g><g
       transform="translate(12.82,319.35)"
       id="g28"><path
         d="m 0,0 c -3.5996,0 -6.4804,-2.883 -6.4804,-6.336 v -83.262 c 0,-3.457 2.8808,-6.335 6.4804,-6.335 h 251.25 c 3.457,0 6.34,2.878 6.34,6.335 V -6.336 C 257.59,-2.883 254.707,0 251.25,0 H 0"
         inkscape:connector-curvature="0"
         id="path30"
         style="fill:#ffd421;fill-rule:evenodd" /></g><g
       transform="translate(46.965,286.94)"
       id="g32"><path
         d="M 0,0 V -10.227 H -4.752 V 7.199 l -7.205,-10.078 -7.348,10.078 v -17.426 h -4.464 v 23.911 h 5.761 l 6.051,-8.5 6.053,8.5 H 0 V 0"
         inkscape:connector-curvature="0"
         id="path34"
         style="fill:#231f20;fill-rule:evenodd" /></g><g
       transform="translate(117.99,280.74)"
       id="g36"><path
         d="m 0,0 3.457,3.316 c 4.463,-3.171 8.067,-3.46 9.074,-3.46 1.153,0 2.45,1.296 2.45,2.742 0,1.582 -1.153,2.3 -1.873,2.59 C 12.389,5.332 9.076,6.051 7.633,6.34 6.336,6.629 1.871,7.781 1.871,13.109 c 0,5.332 3.889,7.204 8.069,7.204 4.32,0 7.494,-1.297 10.228,-3.747 l -3.316,-3.171 c -1.727,1.296 -3.887,2.308 -7.199,2.308 -1.877,0 -2.309,-1.73 -2.309,-2.308 0,-0.719 0.432,-2.016 1.732,-2.301 1.295,-0.289 4.608,-1.153 5.039,-1.153 1.44,-0.144 6.053,-2.015 6.053,-6.914 0,-4.613 -2.879,-7.636 -8.355,-7.636 C 6.192,-4.609 1.871,-1.871 0,0"
         inkscape:connector-curvature="0"
         id="path38"
         style="fill:#231f20;fill-rule:evenodd" /></g><g
       transform="translate(152.43,284.49)"
       id="g40"><path
         d="m 0,0 v -3.312 c 0,-1.297 -2.453,-1.153 -2.887,-1.153 -0.43,0 -3.023,0 -3.023,2.016 C -5.91,-0.141 -2.742,0 0,0 m 4.461,-3.172 v 8.934 c 0,2.304 -2.16,4.031 -6.914,4.031 -3.746,0 -6.192,-1.582 -7.059,-2.16 L -7.637,4.32 c 1.438,1.008 4.465,1.586 5.758,1.586 C -0.582,5.906 0,4.898 0,4.465 V 3.457 c -1.446,0 -5.192,-0.719 -6.774,-1.152 -1.297,-0.575 -3.605,-1.438 -3.605,-4.899 0,-3.457 3.461,-5.617 6.918,-5.617 3.023,0 4.035,1.731 4.035,1.731 0,0 1.441,-1.875 4.031,-1.875 l 1.871,3.601 C 4.32,-4.465 4.461,-3.746 4.461,-3.172"
         inkscape:connector-curvature="0"
         id="path42"
         style="fill:#231f20;fill-rule:evenodd" /></g><g
       transform="translate(88.313,287.95)"
       id="g44"><path
         d="m 0,0 v -11.234 h -4.465 v 10.66 c 0,1.297 -1.008,2.59 -2.883,2.59 -1.873,0 -3.601,-1.582 -3.601,-3.887 v -9.363 h -4.467 V 5.762 h 4.467 V 4.609 c 0,0 1.873,1.582 4.32,1.582 C -2.736,6.191 0,3.023 0,0"
         inkscape:connector-curvature="0"
         id="path46"
         style="fill:#231f20;fill-rule:evenodd" /></g><g
       transform="translate(60.508,290.54)"
       id="g48"><path
         d="m 0,0 c -1.871,0 -3.887,-1.73 -3.887,-5.473 0,-3.605 2.16,-5.332 3.887,-5.332 1.873,0 4.033,1.727 4.033,5.332 C 4.033,-1.73 1.873,0 0,0 m 0,3.887 c -4.18,0 -8.355,-3.457 -8.355,-9.36 0,-5.765 4.175,-9.218 8.355,-9.218 4.32,0 8.355,3.453 8.355,9.218 0,5.903 -4.179,9.36 -8.355,9.36"
         inkscape:connector-curvature="0"
         id="path50"
         style="fill:#231f20;fill-rule:evenodd" /></g><g
       transform="translate(172.73,277.14)"
       id="g52"><path
         d="M 0,0 -0.863,3.746 C -4.035,2.738 -4.754,3.602 -4.754,4.32 v 8.5 h 4.469 v 3.891 h -4.469 v 6.625 l -4.464,-1.148 v -5.477 h -2.739 V 12.82 h 2.739 V 2.883 c 0,-2.16 1.297,-3.891 4.609,-3.891 2.309,0 4.035,0.867 4.609,1.008"
         inkscape:connector-curvature="0"
         id="path54"
         style="fill:#231f20;fill-rule:evenodd" /></g><g
       transform="translate(103,285.07)"
       id="g56"><path
         d="M 0,0 V 3.602"
         inkscape:connector-curvature="0"
         id="path58"
         style="fill:none;stroke:#231f20;stroke-width:7.4920001;stroke-miterlimit:10" /></g><g
       transform="translate(94.939,250.06)"
       id="g60"><path
         d="m 0,0 v -11.668 h -4.467 v 10.516 c 0,1.582 -1.297,2.734 -2.592,2.734 -1.441,0 -3.025,-1.152 -3.025,-3.309 v -9.941 h -4.322 v 10.516 c 0,1.582 -1.297,2.734 -2.594,2.734 -1.15,0 -3.023,-0.863 -3.023,-3.309 v -9.941 H -24.49 V 5.473 h 4.467 V 4.465 c 0,0 1.584,1.293 4.464,1.293 2.592,0 4.18,-1.871 4.035,-1.871 0,0 1.874,2.015 4.752,2.015 C -2.303,5.902 0,2.879 0,0"
         inkscape:connector-curvature="0"
         id="path62"
         style="fill:#231f20;fill-rule:evenodd" /></g><g
       transform="translate(215.67,248.91)"
       id="g64"><path
         d="m 0,0 v -3.172 c 0,-1.726 1.297,-3.457 3.746,-3.457 2.594,0 4.18,2.305 4.18,5.047 0,2.734 -1.586,5.039 -4.18,5.039 C 1.152,3.457 0,1.582 0,0 M 0,5.902 V 6.625 H -4.469 V -15.41 H 0 v 6.191 c 0,0 1.441,-1.73 4.609,-1.73 6.051,0 7.922,6.48 7.922,9.222 0,2.16 -0.863,4.606 -2.304,6.192 C 9.078,5.902 7.203,7.199 4.465,7.199 2.879,7.344 1.152,6.625 0,5.902"
         inkscape:connector-curvature="0"
         id="path66"
         style="fill:#231f20;fill-rule:evenodd" /></g><g
       transform="translate(150.27,242.53)"
       id="g68"><path
         d="m 0,0 c 1.351,0 2.445,-1.098 2.445,-2.449 0,-1.352 -1.094,-2.449 -2.445,-2.449 -1.352,0 -2.45,1.097 -2.45,2.449 C -2.45,-1.098 -1.352,0 0,0"
         inkscape:connector-curvature="0"
         id="path70"
         style="fill:#231f20;fill-rule:evenodd" /></g><g
       transform="translate(171.87,250.64)"
       id="g72"><path
         d="m 0,0 c 0.145,0 2.738,1.152 2.738,4.754 0,3.746 -3.312,7.058 -8.789,7.058 -5.476,0 -8.789,-2.734 -9.218,-7.347 l 5.043,-0.574 c 0.289,2.304 1.441,3.597 4.464,3.597 3.168,0 3.598,-2.16 3.598,-2.879 -0.144,-2.16 -1.293,-3.023 -5.328,-3.023 v -3.887 c 1.152,-0.144 3.601,-0.144 4.176,-0.578 1.445,-0.863 1.445,-1.582 1.445,-2.309 0,-0.574 -0.145,-3.312 -3.746,-3.312 -3.457,0 -4.32,1.875 -4.609,3.746 l -5.043,-1.008 c 0.574,-4.031 3.453,-7.199 9.652,-7.199 6.195,0 8.785,4.176 8.785,7.488 C 3.168,-2.16 1.152,-0.285 0,0"
         inkscape:connector-curvature="0"
         id="path74"
         style="fill:#231f20;fill-rule:evenodd" /></g><g
       transform="translate(137.87,246.46)"
       id="g76"><path
         d="m 0,0 c 0,2.16 -1.582,4.176 -3.746,4.176 -2.16,0 -3.889,-2.016 -3.889,-4.176 0,-2.164 1.584,-4.035 3.889,-4.035 C -2.305,-4.035 0,-3.027 0,0 m -0.144,9.648 c 1.441,0.579 2.882,1.153 4.32,1.731 -1.008,2.449 -2.59,4.898 -7.922,4.898 -5.328,0 -9.365,-4.031 -9.365,-12.386 0,-4.469 1.732,-7.637 3.029,-9.368 1.15,-1.582 3.887,-2.878 6.625,-2.878 2.594,0 8.356,1.585 8.356,8.5 0,6.914 -5.329,8.207 -7.778,8.207 -2.308,0 -4.469,-1.008 -5.187,-1.727 0,3.746 2.591,5.184 4.32,5.184 1.73,0 2.738,-0.575 3.602,-2.161"
         inkscape:connector-curvature="0"
         id="path78"
         style="fill:#231f20;fill-rule:evenodd" /></g><g
       transform="translate(31.264,252.65)"
       id="g80"><path
         d="m 0,0 c -1.73,0 -3.604,0.867 -3.604,2.883 0,1.871 1.874,2.879 3.604,2.879 1.728,0 3.744,-1.008 3.744,-2.879 C 3.744,0.867 1.728,0 0,0 m 0,-10.227 c -2.451,0 -4.324,1.008 -4.324,3.168 0,2.02 2.16,2.883 4.324,2.883 2.305,0 4.32,-0.863 4.32,-2.883 0,-2.16 -1.871,-3.168 -4.32,-3.168 M 0,9.941 c 3.889,0 8.645,-1.871 8.645,-7.203 0,-3.746 -2.741,-4.465 -2.741,-4.465 0,0 3.461,-0.863 3.461,-5.621 0,-4.605 -3.748,-7.343 -9.365,-7.343 -5.619,0 -9.363,2.738 -9.363,7.343 0,4.758 3.455,5.621 3.455,5.621 0,0 -2.879,0.719 -2.879,4.465 0,5.332 4.752,7.203 8.787,7.203"
         inkscape:connector-curvature="0"
         id="path82"
         style="fill:#231f20;fill-rule:evenodd" /></g><g
       transform="translate(190.6,257.84)"
       id="g84"><path
         d="m 0,0 c 2.445,0 5.039,-1.441 5.183,-7.633 0,-6.195 -2.305,-8.07 -5.183,-8.07 -2.883,0 -5.188,1.875 -5.188,8.07 C -5.047,-1.441 -2.45,0 0,0 M 0,4.465 C 3.453,4.609 10.082,2.594 10.082,-7.777 10.082,-18.148 3.742,-20.164 0,-20.164 c -3.75,0 -10.086,2.016 -10.086,12.387 0,10.371 6.625,12.386 10.086,12.242"
         inkscape:connector-curvature="0"
         id="path86"
         style="fill:#231f20;fill-rule:evenodd" /></g><g
       transform="translate(60.939,246.18)"
       id="g88"><path
         d="m 0,0 v -3.172 c 0,-1.297 -2.447,-1.297 -2.879,-1.297 -0.432,0 -3.027,0 -3.027,2.16 C -5.906,-0.148 -2.734,0 0,0 m 4.469,-3.172 v 8.93 c 0,2.305 -2.164,4.031 -6.916,4.031 -3.748,0 -6.196,-1.582 -7.203,-2.16 l 1.871,-3.313 c 1.584,1.012 4.611,1.586 5.908,1.586 C -0.576,5.902 0,5.039 0,4.461 V 3.453 c -1.584,0 -5.332,-0.574 -6.771,-1.152 -1.44,-0.43 -3.745,-1.438 -3.745,-4.899 0,-3.312 3.457,-5.617 7.061,-5.617 2.879,0 3.889,1.731 3.889,1.731 0,0 1.584,-1.731 4.179,-1.875 l 1.729,3.601 C 4.32,-4.324 4.469,-3.605 4.469,-3.172"
         inkscape:connector-curvature="0"
         id="path90"
         style="fill:#231f20;fill-rule:evenodd" /></g><g
       transform="translate(109.92,246.9)"
       id="g92"><path
         d="M 0,0 V 3.598"
         inkscape:connector-curvature="0"
         id="path94"
         style="fill:none;stroke:#231f20;stroke-width:7.4920001;stroke-miterlimit:10" /></g><g
       transform="translate(256.29,250.06)"
       id="g96"><path
         d="m 0,0 v -11.668 h -4.465 v 10.516 c 0,1.582 -1.297,2.734 -2.594,2.734 -1.441,0 -3.027,-1.152 -3.027,-3.309 v -9.941 h -4.461 v 10.516 c 0,1.582 -1.297,2.734 -2.453,2.734 -1.297,0 -3.168,-0.863 -3.168,-3.309 v -9.941 h -4.32 V 5.473 h 4.32 V 4.465 c 0,0 1.582,1.293 4.469,1.293 2.59,0 4.176,-1.871 4.176,-1.871 0,0 1.871,2.015 4.753,2.015 C -2.449,5.902 0,2.879 0,0"
         inkscape:connector-curvature="0"
         id="path98"
         style="fill:#231f20;fill-rule:evenodd" /></g><g
       transform="translate(229.93,279.74)"
       id="g100"><path
         d="m 0,0 c 6.625,-6.77 17.429,-6.77 24.203,0 6.629,6.629 6.629,17.434 0,24.055 C 17.429,30.684 6.625,30.684 0,24.055 -6.77,17.434 -6.77,6.629 0,0"
         inkscape:connector-curvature="0"
         id="path102"
         style="fill:#ec1d24;fill-rule:evenodd" /></g><g
       transform="translate(232.38,282.04)"
       id="g104"><path
         d="m 0,0 c 5.184,-5.184 13.973,-5.184 19.305,0 5.332,5.332 5.332,13.977 0,19.305 C 13.973,24.633 5.184,24.633 0,19.305 -5.332,13.977 -5.332,5.332 0,0"
         inkscape:connector-curvature="0"
         id="path106"
         style="fill:#0079c1;fill-rule:evenodd" /></g><g
       transform="translate(251.54,279.59)"
       id="g108"><path
         d="M 0,0 2.738,2.738 -19.16,24.199 -21.898,21.465 0,0"
         inkscape:connector-curvature="0"
         id="path110"
         style="fill:#ec1d24;fill-rule:evenodd" /></g><g
       transform="translate(174.32,162.2)"
       id="g112"><path
         d="m 0,0 h -6.773 v -23.77 h 4.758 v 9.653 h 9.797 v 4.464 h -9.797 v 5.184 H 8.789 V 0 H 0"
         inkscape:connector-curvature="0"
         id="path114"
         style="fill:#231f20;fill-rule:evenodd" /></g><g
       transform="translate(196.8,151.54)"
       id="g116"><path
         d="m 0,0 v 4.32 c -4.18,0 -4.902,-1.152 -5.91,-2.16 v 1.726 h -4.465 V -13.11 h 4.465 v 8.496 C -5.91,-2.161 -3.027,0 0,0"
         inkscape:connector-curvature="0"
         id="path118"
         style="fill:#231f20;fill-rule:evenodd" /></g><g
       transform="translate(95.228,148.51)"
       id="g120"><path
         d="m 0,0 v -10.086 h -4.756 v 17.43 l -7.201,-10.086 -7.348,9.941 v -17.285 h -4.466 v 23.77 h 5.763 l 6.051,-8.5 5.904,8.5 H 0 V 0"
         inkscape:connector-curvature="0"
         id="path122"
         style="fill:#231f20;fill-rule:evenodd" /></g><g
       transform="translate(136.14,149.52)"
       id="g124"><path
         d="m 0,0 v -11.238 h -4.469 v 10.804 c 0,1.297 -1.008,2.594 -2.879,2.594 -1.873,0 -3.606,-1.73 -3.606,-4.035 v -9.363 h -4.318 v 17.14 h 4.318 V 4.605 c 0,0 1.877,1.731 4.325,1.731 C -2.598,6.336 0,3.023 0,0"
         inkscape:connector-curvature="0"
         id="path126"
         style="fill:#231f20;fill-rule:evenodd" /></g><g
       transform="translate(108.62,152.11)"
       id="g128"><path
         d="m 0,0 c -1.873,0 -3.889,-1.582 -3.889,-5.332 0,-3.742 2.016,-5.473 3.889,-5.473 1.875,0 3.891,1.731 3.891,5.473 C 3.891,-1.582 1.875,0 0,0 m 0,3.89 c -4.176,0 -8.354,-3.312 -8.354,-9.222 0,-5.903 4.178,-9.36 8.354,-9.36 4.18,0 8.355,3.457 8.355,9.36 C 8.355,0.578 4.18,3.89 0,3.89"
         inkscape:connector-curvature="0"
         id="path130"
         style="fill:#231f20;fill-rule:evenodd" /></g><g
       transform="translate(150.69,146.78)"
       id="g132"><path
         d="M 0,0 V 3.601"
         inkscape:connector-curvature="0"
         id="path134"
         style="fill:none;stroke:#231f20;stroke-width:7.4920001;stroke-miterlimit:10" /></g><g
       transform="translate(203.13,138.28)"
       id="g136"><path
         d="M 0,0 V 17.14"
         inkscape:connector-curvature="0"
         id="path138"
         style="fill:none;stroke:#231f20;stroke-width:4.32399988;stroke-miterlimit:10" /></g><g
       transform="translate(203,162.19)"
       id="g140"><path
         d="m 0,0 c 1.351,0 2.449,-1.098 2.449,-2.449 0,-1.352 -1.098,-2.45 -2.449,-2.45 -1.352,0 -2.449,1.098 -2.449,2.45 C -2.449,-1.098 -1.352,0 0,0"
         inkscape:connector-curvature="0"
         id="path142"
         style="fill:#231f20;fill-rule:evenodd" /></g><g
       transform="translate(55.607,204.83)"
       id="g144"><path
         d="M 0,0 H 1.877 L 13.545,-16.422 V 0 h 4.607 v -23.915 h -5.47 L 2.021,-7.633 V -23.915 H -2.734 V 0 H 0"
         inkscape:connector-curvature="0"
         id="path146"
         style="fill:#231f20;fill-rule:evenodd" /></g><g
       transform="translate(170.72,190.86)"
       id="g148"><path
         d="m 0,0 v -3.313 c 0,-1.441 -1.156,-3.461 -3.746,-3.461 -2.594,0 -4.032,2.164 -4.032,5.332 0,3.168 1.727,4.754 3.887,4.754 C -1.586,3.312 0,2.015 0,0 m 0,5.906 v 7.922 H 4.465 V -9.942 H 0 v 0.864 c 0,0 -1.731,-1.582 -4.465,-1.582 -2.594,0 -7.926,2.304 -7.926,9.218 0,7.055 5.621,8.934 7.637,8.934 2.16,0 3.023,-0.434 4.754,-1.586"
         inkscape:connector-curvature="0"
         id="path150"
         style="fill:#231f20;fill-rule:evenodd" /></g><g
       transform="translate(207.89,177.18)"
       id="g152"><path
         d="M 0,0 2.015,3.742 C 2.883,3.309 4.32,2.301 7.492,2.301 c 4.32,0 3.601,3.313 3.601,3.313 0,0 -1.441,-1.008 -3.312,-1.008 C 0.144,4.606 0,12.817 0,12.817 c 0,0 0,3.746 2.593,6.05 1.442,1.301 3.028,1.875 5.043,1.875 0.723,0 2.45,-0.144 3.457,-0.863 v 1.008 h 4.469 V 3.598 c 0,-3.887 -5.187,-5.473 -7.926,-5.473 C 4.754,-1.875 1.73,-0.867 0,0 m 11.093,12.817 c 0,1.73 -0.863,3.601 -3.167,3.601 -2.161,0 -3.028,-2.015 -3.028,-3.601 0,-1.582 0.723,-3.743 3.028,-3.743 2.304,0 3.167,1.872 3.167,3.743"
         inkscape:connector-curvature="0"
         id="path154"
         style="fill:#231f20;fill-rule:evenodd" /></g><g
       transform="translate(181.38,180.92)"
       id="g156"><path
         d="M 0,0 V 17.141"
         inkscape:connector-curvature="0"
         id="path158"
         style="fill:none;stroke:#231f20;stroke-width:4.32399988;stroke-miterlimit:10" /></g><g
       transform="translate(181.28,204.73)"
       id="g160"><path
         d="m 0,0 c 1.352,0 2.445,-1.098 2.445,-2.449 0,-1.352 -1.093,-2.446 -2.445,-2.446 -1.351,0 -2.449,1.094 -2.449,2.446 C -2.449,-1.098 -1.351,0 0,0"
         inkscape:connector-curvature="0"
         id="path162"
         style="fill:#231f20;fill-rule:evenodd" /></g><g
       transform="translate(117.85,180.92)"
       id="g164"><path
         d="M 0,0 -0.58,4.036 C -2.596,3.461 -3.604,3.891 -3.604,4.899 V 23.77 h -4.32 V 3.024 c 0,-1.727 1.008,-3.457 4.465,-3.457 C -1.731,-0.433 0,0 0,0"
         inkscape:connector-curvature="0"
         id="path166"
         style="fill:#231f20;fill-rule:evenodd" /></g><g
       transform="translate(87.016,194.75)"
       id="g168"><path
         d="m 0,0 c -1.871,0 -3.887,-1.727 -3.887,-5.329 0,-3.742 2.016,-5.476 3.887,-5.476 1.729,0 3.889,1.734 3.889,5.476 C 3.889,-1.727 1.873,0 0,0 m 0,3.89 c -4.176,0 -8.355,-3.316 -8.355,-9.219 0,-5.906 4.179,-9.363 8.355,-9.363 4.176,0 8.213,3.457 8.213,9.363 C 8.213,0.574 4.176,3.89 0,3.89"
         inkscape:connector-curvature="0"
         id="path170"
         style="fill:#231f20;fill-rule:evenodd" /></g><g
       transform="translate(127.93,194.75)"
       id="g172"><path
         d="m 0,0 c -1.875,0 -3.891,-1.727 -3.891,-5.329 0,-3.742 2.016,-5.476 3.891,-5.476 1.728,0 3.888,1.734 3.888,5.476 C 3.888,-1.727 1.873,0 0,0 m 0,3.89 c -4.18,0 -8.356,-3.316 -8.356,-9.219 0,-5.906 4.176,-9.363 8.356,-9.363 4.175,0 8.213,3.457 8.213,9.363 C 8.213,0.574 4.033,3.89 0,3.89"
         inkscape:connector-curvature="0"
         id="path174"
         style="fill:#231f20;fill-rule:evenodd" /></g><g
       transform="translate(149.54,188.7)"
       id="g176"><path
         d="m 0,0 v -3.168 c 0,-1.301 -2.445,-1.301 -2.879,-1.301 -0.433,0 -3.023,0 -3.023,2.164 C -5.902,-0.145 -2.734,0 0,0 m 4.469,-3.168 v 8.926 c 0,2.308 -2.164,4.035 -6.914,4.035 -3.75,0 -6.199,-1.582 -7.207,-2.16 L -7.637,4.32 c 1.442,1.008 4.469,1.582 5.766,1.582 C -0.574,5.902 0,5.039 0,4.465 V 3.453 c -1.582,0 -5.328,-0.574 -6.769,-1.149 -1.442,-0.433 -3.747,-1.441 -3.747,-4.898 0,-3.316 3.457,-5.621 7.063,-5.621 2.879,0 3.887,1.875 3.887,1.875 0,0 1.582,-1.875 4.179,-1.875 l 1.727,3.457 c -2.016,0.437 -1.871,1.156 -1.871,1.59"
         inkscape:connector-curvature="0"
         id="path178"
         style="fill:#231f20;fill-rule:evenodd" /></g><g
       transform="translate(203.71,192.15)"
       id="g180"><path
         d="M 0,0 V -11.235 H -4.32 V -0.43 c 0,1.297 -1.008,2.449 -2.879,2.449 -1.875,0 -3.606,-1.586 -3.606,-3.89 v -9.364 h -4.461 V 5.91 h 4.461 V 4.613 c 0,0 1.731,1.586 4.184,1.586 C -2.59,6.199 0,3.027 0,0"
         inkscape:connector-curvature="0"
         id="path182"
         style="fill:#231f20;fill-rule:evenodd" /></g><g
       transform="translate(30.4,76.629)"
       id="g184"><path
         d="M 0,0 V -2.16 H -7.492 L 0,7.922 V 0 z M 4.896,0.434 V -2.16 H 7.92 V -6.484 H 4.896 v -4.176 h -4.9 v 4.176 h -12.82 V -2.3 L -1.156,13.254 H 4.896 V 0.434"
         inkscape:connector-curvature="0"
         id="path186"
         style="fill:#231f20;fill-rule:evenodd" /></g><g
       transform="translate(85.289,85.418)"
       id="g188"><path
         d="M 0,0 C 2.592,0 5.039,-1.445 5.184,-7.636 5.328,-13.832 2.879,-15.703 0,-15.703 c -2.74,0 -5.189,1.871 -5.045,8.067 C -5.045,-1.445 -2.449,0 0,0 M 0,4.465 C 3.455,4.61 10.084,2.594 10.084,-7.781 10.084,-18.152 3.887,-20.168 0,-20.168 c -3.748,0 -9.941,2.016 -9.941,12.387 0,10.375 6.625,12.391 9.941,12.246"
         inkscape:connector-curvature="0"
         id="path190"
         style="fill:#231f20;fill-rule:evenodd" /></g><g
       transform="translate(45.564,70.149)"
       id="g192"><path
         d="m 0,0 c 1.352,0 2.447,-1.094 2.447,-2.445 0,-1.352 -1.095,-2.45 -2.447,-2.45 -1.352,0 -2.447,1.098 -2.447,2.45 C -2.447,-1.094 -1.352,0 0,0"
         inkscape:connector-curvature="0"
         id="path194"
         style="fill:#231f20;fill-rule:evenodd" /></g><g
       transform="translate(66.848,78.215)"
       id="g196"><path
         d="m 0,0 c 0.145,0 2.736,1.008 2.736,4.75 0,3.75 -3.312,7.063 -8.787,7.063 -5.476,0 -8.933,-2.738 -9.22,-7.348 l 4.9,-0.578 c 0.432,2.305 1.584,3.606 4.607,3.606 3.168,0 3.6,-2.165 3.457,-3.028 0,-2.015 -1.297,-2.883 -5.185,-2.883 v -3.886 c 1.152,-0.145 3.457,-0.145 4.178,-0.575 1.294,-0.867 1.294,-1.586 1.294,-2.453 0,-0.433 0,-3.312 -3.599,-3.312 -3.6,0 -4.32,2.015 -4.752,3.89 l -4.9,-1.011 c 0.576,-4.032 3.312,-7.2 9.652,-7.2 6.195,0 8.787,4.176 8.787,7.489 C 3.168,-2.304 1.152,-0.289 0,0"
         inkscape:connector-curvature="0"
         id="path198"
         style="fill:#231f20;fill-rule:evenodd" /></g><g
       transform="translate(109.63,74.329)"
       id="g200"><path
         d="M 0,0 V 3.597"
         inkscape:connector-curvature="0"
         id="path202"
         style="fill:none;stroke:#231f20;stroke-width:7.4920001;stroke-miterlimit:10" /></g><g
       transform="translate(214.95,76.485)"
       id="g204"><path
         d="m 0,0 v -3.168 c 0,-1.731 1.297,-3.457 3.742,-3.457 2.594,0 4.036,2.305 4.036,5.043 0,2.734 -1.442,5.039 -4.036,5.039 C 1.153,3.457 0,1.586 0,0 M 0,5.906 V 6.625 H -4.469 V -15.41 H 0 v 6.191 c 0,0 1.438,-1.726 4.606,-1.726 6.054,0 7.781,6.335 7.781,9.218 0,2.16 -0.719,4.61 -2.16,6.047 C 8.93,5.906 7.203,7.203 4.465,7.203 2.879,7.203 1.153,6.625 0,5.906"
         inkscape:connector-curvature="0"
         id="path206"
         style="fill:#231f20;fill-rule:evenodd" /></g><g
       transform="translate(149.72,70.149)"
       id="g208"><path
         d="m 0,0 c 1.355,0 2.449,-1.094 2.449,-2.445 0,-1.352 -1.094,-2.45 -2.449,-2.45 -1.352,0 -2.446,1.098 -2.446,2.45 C -2.446,-1.094 -1.352,0 0,0"
         inkscape:connector-curvature="0"
         id="path210"
         style="fill:#231f20;fill-rule:evenodd" /></g><g
       transform="translate(171.15,78.215)"
       id="g212"><path
         d="m 0,0 c 0.289,0 2.879,1.008 2.879,4.75 0,3.75 -3.453,7.063 -8.929,7.063 -5.477,0 -8.789,-2.738 -9.223,-7.348 l 5.043,-0.578 h 0.004 c 0.285,2.305 1.437,3.606 4.605,3.606 3.024,0 3.457,-2.165 3.457,-3.028 0,-2.015 -1.297,-2.883 -5.328,-2.883 v -3.886 c 1.153,-0.145 3.602,-0.145 4.32,-0.575 1.297,-0.867 1.297,-1.586 1.297,-2.453 0,-0.433 0,-3.312 -3.601,-3.312 -3.598,0 -4.465,2.015 -4.75,3.89 l -5.047,-1.011 c 0.578,-4.032 3.457,-7.2 9.652,-7.2 6.34,0 8.934,4.176 8.934,7.489 C 3.313,-2.304 1.297,-0.289 0,0"
         inkscape:connector-curvature="0"
         id="path214"
         style="fill:#231f20;fill-rule:evenodd" /></g><g
       transform="translate(137.44,74.04)"
       id="g216"><path
         d="M 0,0 C 0,2.16 -1.586,4.175 -3.75,4.175 -5.908,4.175 -7.636,2.16 -7.636,0 c 0,-2.165 1.584,-4.18 3.886,-4.18 C -2.304,-4.18 0,-3.028 0,0 m -0.144,9.648 c 1.437,0.574 2.879,1.152 4.32,1.73 -1.008,2.45 -2.594,4.895 -7.926,4.895 -5.328,0 -9.363,-4.031 -9.363,-12.387 0,-4.465 1.729,-7.636 3.027,-9.363 1.153,-1.727 3.889,-2.879 6.625,-2.879 2.598,0 8.356,1.438 8.356,8.5 0,6.91 -5.473,8.207 -7.781,8.207 -2.303,0 -4.463,-1.152 -5.182,-1.726 0,3.742 2.592,5.187 4.318,5.187 1.735,0 2.743,-0.578 3.606,-2.164"
         inkscape:connector-curvature="0"
         id="path218"
         style="fill:#231f20;fill-rule:evenodd" /></g><g
       transform="translate(189.73,85.418)"
       id="g220"><path
         d="M 0,0 C 2.594,0 5.043,-1.445 5.188,-7.636 5.329,-13.832 2.883,-15.703 0,-15.703 c -2.738,0 -5.187,1.871 -5.043,8.067 C -4.898,-1.445 -2.445,0 0,0 M 0,4.465 C 3.457,4.61 10.086,2.594 10.086,-7.781 10.086,-18.152 3.891,-20.168 0,-20.168 c -3.746,0 -9.937,2.016 -9.937,12.387 0,10.375 6.625,12.391 9.937,12.246"
         inkscape:connector-curvature="0"
         id="path222"
         style="fill:#231f20;fill-rule:evenodd" /></g><g
       transform="translate(255.72,77.637)"
       id="g224"><path
         d="m 0,0 v -11.668 h -4.461 v 10.516 c 0,1.586 -1.297,2.738 -2.594,2.738 -1.445,0 -3.027,-1.152 -3.027,-3.312 v -9.942 h -4.32 v 10.516 c 0,1.586 -1.297,2.738 -2.598,2.738 -1.293,0 -3.168,-1.008 -3.168,-3.312 v -9.942 h -4.32 V 5.473 h 4.32 V 4.465 c 0,0 1.586,1.152 4.469,1.152 2.738,0 4.175,-1.726 4.175,-1.726 0,0 1.872,1.871 4.758,1.871 C -2.301,5.762 0,2.738 0,0"
         inkscape:connector-curvature="0"
         id="path226"
         style="fill:#231f20;fill-rule:evenodd" /></g><g
       transform="translate(135.28,111.63)"
       id="g228"><path
         d="M 0,0 C 3.024,0 3.887,2.594 3.887,4.176 3.887,5.617 2.879,8.211 0,8.211 -2.597,8.211 -3.748,5.907 -3.748,4.035 -3.748,2.305 -2.453,0 0,0 m -3.461,-5.617 -4.465,-1.73 c 1.153,-3.024 3.313,-4.895 7.637,-4.895 6.481,0 9.797,4.609 9.797,12.098 0,7.347 -3.461,12.679 -9.797,12.679 -6.484,0 -8.211,-5.621 -8.211,-8.5 0,-3.027 1.727,-8.359 7.774,-8.359 3.172,0 5.047,1.875 5.047,1.875 0,0 0.144,-1.875 -0.434,-2.738 -0.574,-0.863 -1.582,-2.735 -3.742,-2.735 -2.164,0 -3.461,1.582 -3.606,2.305"
         inkscape:connector-curvature="0"
         id="path230"
         style="fill:#231f20;fill-rule:evenodd" /></g><g
       transform="translate(29.389,114.23)"
       id="g232"><path
         d="m 0,0 c -1.873,0 -3.744,0.863 -3.744,2.879 0,2.016 1.871,3.023 3.599,3.023 1.733,0 3.748,-1.007 3.748,-3.023 C 3.603,0.863 1.732,0 -0.145,0 H 0 z m 0,-10.227 c -2.592,0 -4.465,1.008 -4.465,3.168 0,2.016 2.16,3.028 4.32,3.028 2.309,0 4.469,-1.012 4.469,-3.028 0,-2.16 -1.873,-3.168 -4.469,-3.168 H 0 z m -0.145,20.309 c 4.038,0 8.79,-1.871 8.79,-7.203 0,-3.887 -2.881,-4.465 -2.881,-4.465 0,0 3.455,-1.008 3.455,-5.617 0,-4.754 -3.744,-7.488 -9.364,-7.488 -5.615,0 -9.363,2.734 -9.363,7.488 0,4.609 3.459,5.617 3.459,5.617 0,0 -2.74,0.578 -2.74,4.465 0,5.332 4.756,7.203 8.644,7.203"
         inkscape:connector-curvature="0"
         id="path234"
         style="fill:#231f20;fill-rule:evenodd" /></g><g
       transform="translate(45.805,104.14)"
       id="g236"><path
         d="m 0,0 c 1.352,0 2.447,-1.031 2.447,-2.301 0,-1.273 -1.095,-2.304 -2.447,-2.304 -1.352,0 -2.449,1.031 -2.449,2.304 C -2.449,-1.031 -1.352,0 0,0"
         inkscape:connector-curvature="0"
         id="path238"
         style="fill:#231f20;fill-rule:evenodd" /></g><g
       transform="translate(62.668,119.56)"
       id="g240"><path
         d="m 0,0 c 2.453,0 5.045,-1.441 5.187,-7.633 0,-6.195 -2.302,-8.066 -5.187,-8.066 -2.879,0 -5.184,1.871 -5.184,8.066 C -5.039,-1.441 -2.592,0 0,0 m 0,4.469 c 3.461,0 10.084,-2.02 10.084,-12.391 0,-10.226 -6.336,-12.386 -10.084,-12.386 -3.744,0 -10.084,2.16 -10.084,12.386 0,10.371 6.629,12.391 10.084,12.391"
         inkscape:connector-curvature="0"
         id="path242"
         style="fill:#231f20;fill-rule:evenodd" /></g><g
       transform="translate(87.592,119.56)"
       id="g244"><path
         d="M 0,0 C 2.449,0 5.045,-1.441 5.045,-7.633 5.189,-13.828 2.881,-15.699 0,-15.699 c -2.879,0 -5.187,1.871 -5.187,8.066 C -5.043,-1.441 -2.592,0 0,0 m 0,4.469 c 3.312,0 10.084,-2.02 10.084,-12.391 0,-10.226 -6.336,-12.386 -10.084,-12.386 -3.744,0 -10.084,2.16 -10.084,12.386 0,10.371 6.629,12.391 10.084,12.391"
         inkscape:connector-curvature="0"
         id="path246"
         style="fill:#231f20;fill-rule:evenodd" /></g><g
       transform="translate(111.79,108.46)"
       id="g248"><path
         d="M 0,0 V 3.602"
         inkscape:connector-curvature="0"
         id="path250"
         style="fill:none;stroke:#231f20;stroke-width:7.4920001;stroke-miterlimit:10" /></g><g
       transform="translate(151.52,104.14)"
       id="g252"><path
         d="m 0,0 c 1.352,0 2.45,-1.031 2.45,-2.301 0,-1.273 -1.098,-2.304 -2.45,-2.304 -1.351,0 -2.445,1.031 -2.445,2.304 C -2.445,-1.031 -1.351,0 0,0"
         inkscape:connector-curvature="0"
         id="path254"
         style="fill:#231f20;fill-rule:evenodd" /></g><g
       transform="translate(172.88,112.21)"
       id="g256"><path
         d="m 0,0 c 0.144,0 2.738,1.153 2.738,4.895 0,3.602 -3.312,6.918 -8.789,6.918 -5.473,0 -8.789,-2.742 -9.219,-7.207 l 5.043,-0.574 c 0.289,2.16 1.442,3.457 4.465,3.457 3.172,0 3.602,-2.16 3.602,-2.883 -0.141,-2.16 -1.297,-2.879 -5.332,-2.879 v -4.035 c 1.152,-0.145 3.601,0 4.176,-0.434 1.445,-1.008 1.445,-1.582 1.445,-2.445 0,-0.578 -0.145,-3.313 -3.746,-3.313 -3.457,0 -4.321,1.872 -4.61,3.743 l -5.043,-0.864 c 0.575,-4.175 3.454,-7.343 9.653,-7.343 6.195,0 8.785,4.175 8.785,7.488 C 3.168,-2.16 1.152,-0.289 0,0"
         inkscape:connector-curvature="0"
         id="path258"
         style="fill:#231f20;fill-rule:evenodd" /></g><g
       transform="translate(221.72,107.89)"
       id="g260"><path
         d="m 0,0 v -3.312 c 0,-1.297 -2.59,-1.297 -2.879,-1.297 -0.434,0 -3.168,0.144 -3.168,2.16 0,2.16 3.312,2.305 6.047,2.449 m 4.469,-3.168 v 8.789 c 0,2.301 -2.305,4.032 -6.914,4.032 -3.747,0 -6.34,-1.586 -7.207,-2.161 L -7.774,4.18 c 1.438,1.008 4.606,1.726 5.903,1.726 C -0.574,5.906 0,4.899 0,4.324 V 3.317 c -1.582,0 -5.328,-0.579 -6.766,-1.153 -1.441,-0.437 -3.75,-1.445 -3.75,-4.902 0,-3.309 3.461,-5.613 6.918,-5.613 3.024,0 4.035,1.871 4.035,1.871 0,0 1.582,-1.871 4.176,-2.016 l 1.727,3.598 c -2.016,0.433 -1.871,1.152 -1.871,1.73"
         inkscape:connector-curvature="0"
         id="path262"
         style="fill:#231f20;fill-rule:evenodd" /></g><g
       transform="translate(255.43,111.63)"
       id="g264"><path
         d="m 0,0 v -11.668 h -4.321 v 10.516 c 0,1.73 -1.296,2.883 -2.738,2.883 -1.297,0 -2.883,-1.297 -2.883,-3.461 v -9.938 h -4.465 v 10.516 c 0,1.73 -1.296,2.883 -2.593,2.883 -1.153,0 -3.028,-1.008 -3.028,-3.313 v -10.086 h -4.461 V 5.473 h 4.461 V 4.465 c 0,0 1.586,1.297 4.469,1.297 2.594,0 4.176,-1.727 4.176,-1.727 -0.145,0 1.73,1.872 4.613,1.872 C -2.305,5.907 0,2.883 0,0"
         inkscape:connector-curvature="0"
         id="path266"
         style="fill:#231f20;fill-rule:evenodd" /></g><g
       transform="translate(191.46,119.56)"
       id="g268"><path
         d="m 0,0 c 2.59,0 5.043,-1.441 5.187,-7.633 0,-6.195 -2.308,-8.066 -5.187,-8.066 -2.879,0 -5.188,1.871 -5.043,8.066 C -5.043,-1.441 -2.449,0 0,0 m 0,4.469 c 3.457,0 10.082,-2.02 10.082,-12.391 0,-10.226 -6.34,-12.386 -10.082,-12.386 -3.746,0 -9.942,2.16 -9.942,12.386 0,10.371 6.629,12.391 9.942,12.391"
         inkscape:connector-curvature="0"
         id="path270"
         style="fill:#231f20;fill-rule:evenodd" /></g><g
       transform="translate(104.45,28.375)"
       id="g272"><path
         d="M 0,0 H 45.379 L 34,-11.382 h 17.145 l 17,16.996 -17,17 H 34 L 45.379,11.379 H 0 V 0"
         inkscape:connector-curvature="0"
         id="path274"
         style="fill:#231f20;fill-rule:evenodd" /></g></g></svg>