<?xml version="1.0" encoding="UTF-8" standalone="no"?>
<!-- Created with Inkscape (http://www.inkscape.org/) -->

<svg
   xmlns:dc="http://purl.org/dc/elements/1.1/"
   xmlns:cc="http://creativecommons.org/ns#"
   xmlns:rdf="http://www.w3.org/1999/02/22-rdf-syntax-ns#"
   xmlns:svg="http://www.w3.org/2000/svg"
   xmlns="http://www.w3.org/2000/svg"
   version="1.1"
   width="600"
   height="600"
   id="svg2"
   xml:space="preserve"><defs
     id="defs24" /><metadata
     id="metadata4"><rdf:RDF><cc:Work
         rdf:about=""><dc:format>image/svg+xml</dc:format><dc:type
           rdf:resource="http://purl.org/dc/dcmitype/StillImage" /><dc:title></dc:title></cc:Work></rdf:RDF></metadata><path
     d="m 579.38144,287.62888 a 260.82474,260.82474 0 1 1 -521.649476,0 260.82474,260.82474 0 1 1 521.649476,0 z"
     transform="translate(-18.556702,12.371124)"
     id="path3015"
     style="fill:#ffffff;fill-opacity:1;fill-rule:evenodd;stroke:none" /><path
     d="m 299.875,126.0625 c -34.46375,-0.0263 -66.92125,13.40125 -91.21875,37.71875 -11.79388,11.75813 -20.95375,25.275 -27.25,40.0625 -7.20364,16.52124 -10.75,35.78562 -10.75,51.375 l 0,223.71875 39.3125,-39.3125 39.3125,39.3125 0,-180.5 c 0.4375,-18.25 -2.21778,-33.40722 1.3125,-54.75 2.12512,-9.04675 6.74712,-17.4625 13.625,-24.375 9.48087,-9.44187 22.19375,-14.685 35.65625,-14.65625 13.55,-0.0284 26.2475,5.21475 35.90625,14.65625 9.446,9.65362 14.71625,22.33125 14.6875,35.875 l 0,46.125 -0.0312,55.53125 0,82 39.3125,40.09375 39.3125,-40.09375 0,-36.6875 0.0312,-55.28125 0,-91.6875 c 0.0284,-34.53625 -13.42,-66.9425 -37.75,-91.40625 -24.4725,-24.3175 -56.9175,-37.745 -91.46875,-37.71875 z"
     id="path16"
     style="fill:#000000;fill-rule:nonzero" /><path
     d="M 300.125,1.09375 C 134.9,1.18125 1.04175,134.975 1.09375,300 1.04375,465.075 134.9,598.87087 300.125,598.90625 465.1375,598.86875 598.99375,465.075 598.90625,300 598.99375,134.975 465.1375,1.18125 300.125,1.09375 z m 0,61.8125 c 130.89625,0 237.10012,106.16875 237.1875,237.09375 -0.0862,34.65 -7.5175,67.53875 -20.96875,97.1875 l -204.40625,-117.875 0,-0.0312 -204.1875,-118.125 c 42.9875,-59.465 113.09375,-98.25 192.375,-98.25 z M 83.65625,202.8125 288.0625,320.6875 492.5,438.84375 c -43.2,59.50875 -113.3125,98.2937 -192.375,98.25 C 169.01875,537.13125 62.80625,430.975 62.9375,300 62.80625,265.3875 70.24875,232.5 83.65625,202.8125 z"
     id="path8"
     style="fill:#ec1d24;fill-opacity:1;fill-rule:nonzero" /><path
     d="M 300.12501,1.0875 C 465.13751,1.175 599.00001,134.975 598.91251,300 599.00001,465.075 465.13751,598.875 300.12501,598.9125 134.90001,598.87712 1.0375087,465.075 1.0875087,300 1.0355087,134.975 134.90001,1.175 300.12501,1.0875 z"
     id="path10"
     style="fill:none;stroke:#ffffff;stroke-width:2.18356514;stroke-linecap:butt;stroke-linejoin:miter;stroke-miterlimit:4;stroke-dasharray:none" /></svg>