<?xml version="1.0" encoding="UTF-8" standalone="no"?>
<!-- Created with Inkscape (http://www.inkscape.org/) -->

<svg
   xmlns:dc="http://purl.org/dc/elements/1.1/"
   xmlns:cc="http://creativecommons.org/ns#"
   xmlns:rdf="http://www.w3.org/1999/02/22-rdf-syntax-ns#"
   xmlns:svg="http://www.w3.org/2000/svg"
   xmlns="http://www.w3.org/2000/svg"
   xmlns:inkscape="http://www.inkscape.org/namespaces/inkscape"
   version="1.1"
   width="293.70001"
   height="300.34"
   id="svg2"
   xml:space="preserve"><metadata
     id="metadata8"><rdf:RDF><cc:Work
         rdf:about=""><dc:format>image/svg+xml</dc:format><dc:type
           rdf:resource="http://purl.org/dc/dcmitype/StillImage" /></cc:Work></rdf:RDF></metadata><defs
     id="defs6"><clipPath
       id="clipPath16"><path
         d="M 0,240.27 H 234.96 V 0 H 0 v 240.27 z"
         inkscape:connector-curvature="0"
         id="path18" /></clipPath></defs><g
     transform="matrix(1.25,0,0,-1.25,0,300.34)"
     id="g10"><g
       id="g12"><g
         clip-path="url(#clipPath16)"
         id="g14"><g
           transform="translate(12.68,240.27)"
           id="g20"><path
             d="m 0,0 c -6.9141,0 -12.68,-5.762 -12.68,-12.82 v -214.77 c 0,-7.054 5.7659,-12.676 12.68,-12.676 h 209.62 c 7.058,0 12.676,5.622 12.676,12.676 V -12.82 C 222.286,-12.623 209.606,0 209.616,0 H -0.004"
             inkscape:connector-curvature="0"
             id="path22"
             style="fill:#ec1d24;fill-rule:evenodd" /></g></g></g><g
       transform="translate(12.68,138.14)"
       id="g24"><path
         d="m 0,0 c -3.457,0 -6.336,-2.879 -6.336,-6.336 v -119.13 c 0,-3.457 2.879,-6.336 6.336,-6.336 h 209.62 c 3.457,0 6.336,2.879 6.336,6.336 V -6.336 C 215.956,-2.879 213.077,0 209.62,0 L 0,0.004"
         inkscape:connector-curvature="0"
         id="path26"
         style="fill:#ffffff;fill-rule:evenodd" /></g><g
       transform="translate(117.48,233.93)"
       id="g28"><path
         d="m 0,0 h -104.73 c -3.539,0 -6.406,-2.871 -6.406,-6.414 v -76.633 c 0,-3.539 2.867,-6.406 6.406,-6.406 h 209.47 c 3.543,0 6.41,2.867 6.41,6.406 V -6.414 C 111.15,-2.871 108.283,0 104.74,0 H 0"
         inkscape:connector-curvature="0"
         id="path30"
         style="fill:#ffffff;fill-rule:evenodd" /></g><g
       transform="translate(51,155.14)"
       id="g32"><path
         d="M 0,0 C 18.875,0 34,15.27 34,34.137 34,52.863 18.875,68.133 0,68.133 -18.727,68.133 -34,52.863 -34,34.137 -34,15.27 -18.727,0 0,0"
         inkscape:connector-curvature="0"
         id="path34"
         style="fill:#ec1d24;fill-rule:evenodd" /></g><g
       transform="translate(51,162.05)"
       id="g36"><path
         d="M 0,0 C 15.129,0 27.23,12.102 27.23,27.227 27.23,42.211 15.129,54.309 0,54.309 -14.98,54.309 -27.227,42.211 -27.227,27.227 -27.227,12.102 -14.98,0 0,0"
         inkscape:connector-curvature="0"
         id="path38"
         style="fill:#0079c1;fill-rule:evenodd" /></g><g
       transform="translate(75.352,208.15)"
       id="g40"><path
         d="m 0,0 -5.332,5.328 -43.223,-43.211 5.188,-5.332 L 0,0"
         inkscape:connector-curvature="0"
         id="path42"
         style="fill:#ec1d24;fill-rule:evenodd" /></g><g
       transform="translate(31.984,213.48)"
       id="g44"><path
         d="m 0,0 -5.187,-5.328 43.222,-43.215 5.332,5.332 L 0,0"
         inkscape:connector-curvature="0"
         id="path46"
         style="fill:#ec1d24;fill-rule:evenodd" /></g><g
       transform="translate(133.84,213.77)"
       id="g48"><path
         d="M 0,0 H -5.188 V -5.617 H 0 c 2.305,0 3.172,1.726 3.172,2.879 C 3.172,-1.441 2.305,0 0,0 m 1.441,4.324 h -11.527 v -23.769 h 4.898 v 9.508 h 3.457 l 5.477,-9.508 h 5.039 l -5.328,9.508 c 1.73,0.289 5.043,2.593 5.043,7.199 0,4.754 -3.313,7.062 -7.059,7.062"
         inkscape:connector-curvature="0"
         id="path50"
         style="fill:#231f20;fill-rule:evenodd" /></g><g
       transform="translate(157.04,218.09)"
       id="g52"><path
         d="M 0,0 H -7.781 V -23.77 H 8.356 v 4.465 H -3.168 v 5.188 h 9.793 v 4.465 h -9.793 v 5.183 H 7.633 V 0 H 0"
         inkscape:connector-curvature="0"
         id="path54"
         style="fill:#231f20;fill-rule:evenodd" /></g><g
       transform="translate(180.52,213.77)"
       id="g56"><path
         d="M 0,0 H -3.461 V -15.125 H 0 c 2.878,0 6.476,1.871 6.476,7.492 C 6.476,-1.875 2.878,0 0,0 M 0.14,4.324 H -8.215 V -19.445 H 0 c 6.476,0 11.234,4.175 11.234,11.812 0,8.063 -5.621,11.957 -11.094,11.957"
         inkscape:connector-curvature="0"
         id="path58"
         style="fill:#231f20;fill-rule:evenodd" /></g><g
       transform="translate(109.64,179.77)"
       id="g60"><path
         d="M 0,0 H -5.043 V -5.766 H 0 c 2.304,0 3.168,1.727 3.168,2.879 C 3.168,-1.445 2.304,0 0,0 M 1.441,4.32 H -9.942 v -23.769 h 4.899 v 9.508 h 3.312 l 5.477,-9.508 h 5.187 l -5.476,9.508 c 1.726,0.289 5.187,2.593 5.187,7.054 0,4.903 -3.461,7.207 -7.203,7.207"
         inkscape:connector-curvature="0"
         id="path62"
         style="fill:#231f20;fill-rule:evenodd" /></g><g
       transform="translate(134.56,179.77)"
       id="g64"><path
         d="m 0,0 c -3.168,0 -6.336,-2.453 -6.336,-7.637 0,-5.183 3.312,-7.781 6.336,-7.781 3.171,0 6.339,2.598 6.339,7.781 C 6.339,-2.453 3.316,0 0,0 m 0,4.605 c -4.61,0 -11.239,-3.597 -11.239,-12.242 0,-8.644 6.485,-12.101 11.239,-12.101 4.754,0 11.238,3.457 11.238,12.101 C 11.238,1.008 4.609,4.605 0,4.605"
         inkscape:connector-curvature="0"
         id="path66"
         style="fill:#231f20;fill-rule:evenodd" /></g><g
       transform="translate(151.85,169.26)"
       id="g68"><path
         d="M 0,0 V 14.836 H 4.754 V 0 c 0,-2.305 2.015,-4.758 4.757,-4.758 3.168,0 4.895,2.453 4.895,4.758 v 14.836 h 4.758 V 0 c 0,-4.039 -3.461,-9.223 -9.653,-9.223 C 3.746,-9.223 0,-4.039 0,0"
         inkscape:connector-curvature="0"
         id="path70"
         style="fill:#231f20;fill-rule:evenodd" /></g><g
       transform="translate(189.74,179.63)"
       id="g72"><path
         d="M 0,0 H -2.597 V -19.305 H -7.203 V 0 h -6.773 V 4.465 H 4.032 V 0 H 0"
         inkscape:connector-curvature="0"
         id="path74"
         style="fill:#231f20;fill-rule:evenodd" /></g><g
       transform="translate(206.74,184.09)"
       id="g76"><path
         d="M 0,0 H -7.781 V -23.77 H 8.356 v 4.465 H -3.172 v 5.188 h 9.653 v 4.465 h -9.653 v 5.187 H 7.637 V 0 H 0"
         inkscape:connector-curvature="0"
         id="path78"
         style="fill:#231f20;fill-rule:evenodd" /></g><g
       transform="translate(24.062,125.75)"
       id="g80"><path
         d="M 0,0 H 1.871 L 13.539,-16.277 V 0 h 4.613 V -23.769 H 12.82 L 2.016,-7.488 V -23.769 H -2.742 V 0 H 0"
         inkscape:connector-curvature="0"
         id="path82"
         style="fill:#231f20;fill-rule:evenodd" /></g><g
       transform="translate(55.465,115.81)"
       id="g84"><path
         d="m 0,0 c -1.871,0 -3.887,-1.727 -3.887,-5.473 0,-3.742 2.16,-5.472 3.887,-5.472 1.879,0 3.895,1.73 3.895,5.472 C 3.895,-1.727 1.879,0 0,0 m 0,3.891 c -4.176,0 -8.211,-3.457 -8.211,-9.364 0,-5.906 4.035,-9.218 8.211,-9.218 4.324,0 8.355,3.312 8.355,9.218 C 8.355,0.434 4.18,3.891 0,3.891"
         inkscape:connector-curvature="0"
         id="path86"
         style="fill:#231f20;fill-rule:evenodd" /></g><g
       transform="translate(198.81,98.239)"
       id="g88"><path
         d="M 0,0 2.015,3.601 C 2.882,3.172 4.464,2.16 7.636,2.16 c 4.321,0 3.602,3.312 3.602,3.312 0,0 -1.442,-0.863 -3.457,-0.863 -7.492,0 -7.637,8.211 -7.637,8.211 0,0 0,3.746 2.594,6.055 1.437,1.297 2.879,1.871 5.043,1.871 0.719,0 2.449,-0.289 3.457,-0.863 v 0.863 h 4.469 V 3.457 c 0,-3.887 -5.332,-5.328 -8.071,-5.328 C 4.898,-1.871 1.73,-1.008 0,0 m 11.238,12.679 c 0,1.872 -0.863,3.743 -3.168,3.743 -2.164,0 -3.028,-2.161 -3.028,-3.743 0,-1.441 0.575,-3.601 3.028,-3.601 2.305,0 3.168,1.871 3.168,3.601"
         inkscape:connector-curvature="0"
         id="path90"
         style="fill:#231f20;fill-rule:evenodd" /></g><g
       transform="translate(172.45,101.99)"
       id="g92"><path
         d="M 0,0 V 16.996"
         inkscape:connector-curvature="0"
         id="path94"
         style="fill:none;stroke:#231f20;stroke-width:4.32399988;stroke-miterlimit:10" /></g><g
       transform="translate(172.28,125.74)"
       id="g96"><path
         d="m 0,0 c 1.352,0 2.449,-1.094 2.449,-2.445 0,-1.352 -1.097,-2.45 -2.449,-2.45 -1.351,0 -2.449,1.098 -2.449,2.45 C -2.449,-1.094 -1.351,0 0,0"
         inkscape:connector-curvature="0"
         id="path98"
         style="fill:#231f20;fill-rule:evenodd" /></g><g
       transform="translate(194.92,113.08)"
       id="g100"><path
         d="m 0,0 v -11.094 h -4.465 v 10.66 c 0,1.297 -1.008,2.59 -2.879,2.59 -1.875,0 -3.605,-1.582 -3.605,-3.887 v -9.363 h -4.461 v 17 h 4.461 V 4.753 c 0,0 1.875,1.586 4.324,1.586 C -2.734,6.339 0,3.168 0,0"
         inkscape:connector-curvature="0"
         id="path102"
         style="fill:#231f20;fill-rule:evenodd" /></g><g
       transform="translate(133.41,112.5)"
       id="g104"><path
         d="m 0,0 v -3.168 c 0,-1.726 1.297,-3.601 3.891,-3.601 2.449,0 4.031,2.449 4.031,5.187 0,2.735 -1.437,5.039 -4.031,5.039 C 1.297,3.457 0,1.442 0,0 M 0,5.766 V 6.485 H -4.465 V -15.41 H 0 v 6.192 c 0,0 1.442,-1.731 4.754,-1.731 5.91,0 7.781,6.34 7.781,9.078 0,2.305 -0.863,4.606 -2.164,6.192 C 9.074,5.766 7.203,7.204 4.469,7.204 2.883,7.204 1.153,6.629 0,5.766"
         inkscape:connector-curvature="0"
         id="path106"
         style="fill:#231f20;fill-rule:evenodd" /></g><g
       transform="translate(76.789,104.72)"
       id="g108"><path
         d="m 0,0 3.313,2.883 c 1.152,-1.441 3.89,-2.594 5.042,-2.594 1.153,0 2.161,0.863 2.161,1.727 0,0.867 -0.575,1.297 -1.153,1.441 -0.718,0.145 -2.879,0.719 -3.457,0.863 -0.433,0 -4.465,0.723 -4.465,4.899 0,4.18 4.465,5.332 7.204,5.332 2.593,0 5.039,-0.863 6.918,-2.598 L 12.676,9.074 c -1.582,1.297 -2.735,1.871 -4.031,1.871 -1.297,0 -2.454,-0.574 -2.454,-1.582 0,-1.007 0.872,-1.152 1.157,-1.296 0.433,0 3.312,-0.579 4.031,-0.864 0.578,-0.144 4.039,-1.152 4.039,-5.043 0,-4.035 -3.75,-5.472 -7.207,-5.472 C 4.609,-3.312 1.152,-1.441 0,0"
         inkscape:connector-curvature="0"
         id="path110"
         style="fill:#231f20;fill-rule:evenodd" /></g><g
       transform="translate(106.32,102.42)"
       id="g112"><path
         d="M 0,0 -0.718,3.747 C -3.886,2.739 -4.75,3.602 -4.75,4.321 v 8.496 h 4.465 v 3.75 H -4.75 v 6.769 l -4.324,-1.297 v -5.472 h -2.734 v -3.75 h 2.734 V 2.883 c 0,-2.164 1.297,-3.89 4.613,-3.89 2.301,0 4.032,0.863 4.461,1.007"
         inkscape:connector-curvature="0"
         id="path114"
         style="fill:#231f20;fill-rule:evenodd" /></g><g
       transform="translate(117.12,115.81)"
       id="g116"><path
         d="m 0,0 c -1.871,0 -3.887,-1.727 -3.887,-5.473 0,-3.742 2.016,-5.472 3.887,-5.472 1.875,0 3.895,1.73 3.895,5.472 C 3.895,-1.727 1.875,0 0,0 m 0,3.891 c -4.176,0 -8.355,-3.457 -8.355,-9.364 0,-5.906 4.179,-9.218 8.355,-9.218 4.18,0 8.355,3.312 8.355,9.218 C 8.355,0.434 4.18,3.891 0,3.891"
         inkscape:connector-curvature="0"
         id="path118"
         style="fill:#231f20;fill-rule:evenodd" /></g><g
       transform="translate(153.87,112.5)"
       id="g120"><path
         d="m 0,0 v -3.168 c 0,-1.726 1.293,-3.601 3.742,-3.601 2.594,0 4.036,2.449 4.036,5.187 0,2.735 -1.442,5.039 -4.036,5.039 C 1.153,3.457 0,1.442 0,0 M 0,5.766 V 6.485 H -4.469 V -15.41 H 0 v 6.192 c 0,0 1.438,-1.731 4.606,-1.731 6.054,0 7.781,6.34 7.781,9.078 0,2.305 -0.719,4.606 -2.16,6.192 C 9.074,5.766 7.199,7.204 4.461,7.204 2.879,7.204 1.153,6.629 0,5.766"
         inkscape:connector-curvature="0"
         id="path122"
         style="fill:#231f20;fill-rule:evenodd" /></g><g
       transform="translate(67.426,28.954)"
       id="g124"><path
         d="m 0,0 v -3.313 c 0,-1.297 -2.453,-1.152 -2.883,-1.152 -0.433,0 -3.023,0 -3.023,2.015 C -5.906,-0.145 -2.738,0 0,0 m 4.465,-3.168 v 8.929 c 0,2.305 -2.16,4.035 -6.918,4.035 -3.742,0 -6.191,-1.73 -7.199,-2.16 l 2.015,-3.312 c 1.442,1.008 4.465,1.582 5.762,1.582 C -0.574,5.906 0,4.898 0,4.324 V 3.461 c -1.441,0 -5.332,-0.723 -6.773,-1.153 -1.438,-0.578 -3.746,-1.59 -3.746,-4.902 0,-3.457 3.46,-5.613 7.058,-5.613 3.027,0 4.035,1.726 4.035,1.726 0,0 1.442,-1.871 4.035,-1.871 l 1.727,3.453 C 4.32,-4.465 4.465,-3.747 4.465,-3.168"
         inkscape:connector-curvature="0"
         id="path126"
         style="fill:#231f20;fill-rule:evenodd" /></g><g
       transform="translate(101.43,32.7)"
       id="g128"><path
         d="m 0,0 v -11.524 h -4.324 v 10.371 c 0,1.731 -1.297,2.883 -2.735,2.883 -1.297,0 -2.887,-1.297 -2.887,-3.457 v -9.797 h -4.461 v 10.516 c 0,1.586 -1.296,2.738 -2.593,2.738 -1.153,0 -3.028,-1.008 -3.028,-3.312 v -9.942 h -4.464 V 5.472 h 4.464 V 4.465 c 0,0 1.582,1.296 4.469,1.296 2.59,0 4.176,-1.73 4.176,-1.73 -0.145,0 1.726,1.875 4.609,1.875 C -2.309,5.906 0,2.882 0,0"
         inkscape:connector-curvature="0"
         id="path130"
         style="fill:#231f20;fill-rule:evenodd" /></g><g
       transform="translate(116.27,29.532)"
       id="g132"><path
         d="M 0,0 V 3.601"
         inkscape:connector-curvature="0"
         id="path134"
         style="fill:none;stroke:#231f20;stroke-width:7.4920001;stroke-miterlimit:10" /></g><g
       transform="translate(39.766,40.766)"
       id="g136"><path
         d="M 0,0 H 3.602 L -4.324,-19.59 H 0.719 L 8.645,-0.144 V 4.324 H -7.922 V 0 H 0"
         inkscape:connector-curvature="0"
         id="path138"
         style="fill:#231f20;fill-rule:evenodd" /></g><g
       transform="translate(137.59,40.766)"
       id="g140"><path
         d="M 0,0 H 3.602 L -4.324,-19.59 H 0.719 L 8.644,-0.144 V 4.324 H -7.781 V 0 H 0"
         inkscape:connector-curvature="0"
         id="path142"
         style="fill:#231f20;fill-rule:evenodd" /></g><g
       transform="translate(160.06,31.692)"
       id="g144"><path
         d="m 0,0 v -3.172 c 0,-1.727 1.3,-3.598 3.89,-3.598 2.449,0 4.031,2.446 4.031,5.184 0,2.738 -1.437,5.043 -4.031,5.043 C 1.3,3.457 0,1.441 0,0 M 0,5.762 V 6.48 H -4.465 V -15.414 H 0 v 6.195 c 0,0 1.437,-1.726 4.754,-1.726 5.91,0 7.781,6.335 7.781,9.07 0,2.308 -0.864,4.613 -2.16,6.195 C 9.074,5.762 7.203,7.199 4.468,7.199 2.882,7.199 1.152,6.625 0,5.762"
         inkscape:connector-curvature="0"
         id="path146"
         style="fill:#231f20;fill-rule:evenodd" /></g><g
       transform="translate(200.83,32.7)"
       id="g148"><path
         d="m 0,0 v -11.524 h -4.316 v 10.371 c 0,1.731 -1.301,2.883 -2.742,2.883 -1.297,0 -2.879,-1.297 -2.879,-3.457 v -9.797 h -4.469 v 10.516 c 0,1.586 -1.297,2.738 -2.594,2.738 -1.148,0 -3.023,-1.008 -3.023,-3.312 v -9.942 h -4.465 V 5.472 h 4.465 V 4.465 c 0,0 1.586,1.296 4.465,1.296 2.597,0 4.179,-1.73 4.179,-1.73 -0.144,0 1.731,1.875 4.754,1.875 C -2.301,5.906 0,2.882 0,0"
         inkscape:connector-curvature="0"
         id="path150"
         style="fill:#231f20;fill-rule:evenodd" /></g><g
       transform="translate(68,69.719)"
       id="g152"><path
         d="M 0,0 V -10.226 H -4.609 V 7.203 l -7.203,-10.086 -7.344,10.086 v -17.429 h -4.613 v 23.769 h 5.761 l 6.196,-8.5 5.906,8.5 H 0 V 0"
         inkscape:connector-curvature="0"
         id="path154"
         style="fill:#231f20;fill-rule:evenodd" /></g><g
       transform="translate(109.06,70.586)"
       id="g156"><path
         d="m 0,0 v -11.093 h -4.465 v 10.66 c 0,1.297 -1.008,2.594 -2.879,2.594 -1.875,0 -3.606,-1.731 -3.606,-4.036 v -9.218 h -4.32 V 5.903 h 4.32 V 4.606 c 0,0 1.872,1.73 4.325,1.73 C -2.594,6.336 0,3.024 0,0"
         inkscape:connector-curvature="0"
         id="path158"
         style="fill:#231f20;fill-rule:evenodd" /></g><g
       transform="translate(81.398,73.176)"
       id="g160"><path
         d="m 0,0 c -1.871,0 -3.887,-1.582 -3.887,-5.328 0,-3.746 2.157,-5.476 3.887,-5.476 1.875,0 3.891,1.73 3.891,5.476 C 3.891,-1.582 1.875,0 0,0 m 0,3.887 c -4.176,0 -8.355,-3.309 -8.355,-9.215 0,-5.906 4.179,-9.363 8.355,-9.363 4.324,0 8.355,3.457 8.355,9.363 C 8.355,0.578 4.18,3.887 0,3.887"
         inkscape:connector-curvature="0"
         id="path162"
         style="fill:#231f20;fill-rule:evenodd" /></g><g
       transform="translate(138.45,63.379)"
       id="g164"><path
         d="M 0,0 3.602,3.313 C 7.926,0.289 11.524,0 12.531,0 c 1.153,0 2.598,1.153 2.598,2.739 0,1.441 -1.156,2.308 -2.019,2.593 C 12.391,5.477 9.078,6.2 7.781,6.485 6.34,6.774 2.016,7.926 2.016,13.254 c 0,5.188 3.75,7.059 8.07,7.059 4.18,0 7.348,-1.152 10.082,-3.742 l -3.312,-3.172 c -1.582,1.437 -3.891,2.445 -7.203,2.445 -1.872,0 -2.305,-1.871 -2.305,-2.445 0,-0.578 0.433,-2.016 1.73,-2.16 1.293,-0.289 4.606,-1.153 5.039,-1.153 1.446,-0.289 6.196,-2.015 6.196,-7.062 0,-4.461 -3.024,-7.485 -8.5,-7.485 C 6.34,-4.461 1.871,-1.871 0,0"
         inkscape:connector-curvature="0"
         id="path166"
         style="fill:#231f20;fill-rule:evenodd" /></g><g
       transform="translate(173.03,67.27)"
       id="g168"><path
         d="m 0,0 v -3.313 c 0,-1.296 -2.449,-1.296 -2.882,-1.296 -0.434,0 -3.028,0.144 -3.028,2.16 0,2.304 3.172,2.304 5.91,2.449 m 4.461,-3.168 v 8.785 c 0,2.449 -2.16,4.176 -6.91,4.176 -3.75,0 -6.195,-1.727 -7.058,-2.16 L -7.636,4.18 c 1.437,1.007 4.464,1.726 5.761,1.726 C -0.578,5.906 0,4.898 0,4.324 V 3.316 c -1.441,0 -5.187,-0.578 -6.773,-1.152 -1.441,-0.434 -3.742,-1.441 -3.742,-4.758 0,-3.457 3.453,-5.617 7.054,-5.617 3.028,0 4.036,1.731 4.036,1.731 0,0 1.441,-1.872 4.031,-1.872 l 1.734,3.454 c -2.019,0.433 -1.879,1.152 -1.879,1.73"
         inkscape:connector-curvature="0"
         id="path170"
         style="fill:#231f20;fill-rule:evenodd" /></g><g
       transform="translate(193.48,59.926)"
       id="g172"><path
         d="m 0,0 -0.863,3.598 c -3.023,-0.863 -3.887,0 -3.887,0.723 v 8.5 h 4.465 v 3.742 H -4.75 v 6.773 l -4.468,-1.297 v -5.476 h -2.735 v -3.742 h 2.735 V 2.735 c 0,-2.016 1.297,-3.743 4.613,-3.743 2.445,0 4.031,0.719 4.605,1.008"
         inkscape:connector-curvature="0"
         id="path174"
         style="fill:#231f20;fill-rule:evenodd" /></g><g
       transform="translate(123.76,67.848)"
       id="g176"><path
         d="M 0,0 V 3.602"
         inkscape:connector-curvature="0"
         id="path178"
         style="fill:none;stroke:#231f20;stroke-width:7.4920001;stroke-miterlimit:10" /></g></g></svg>