<?xml version="1.0" encoding="UTF-8" standalone="no"?>
<!-- Created with Inkscape (http://www.inkscape.org/) -->

<svg
   xmlns:dc="http://purl.org/dc/elements/1.1/"
   xmlns:cc="http://creativecommons.org/ns#"
   xmlns:rdf="http://www.w3.org/1999/02/22-rdf-syntax-ns#"
   xmlns:svg="http://www.w3.org/2000/svg"
   xmlns="http://www.w3.org/2000/svg"
   xmlns:inkscape="http://www.inkscape.org/namespaces/inkscape"
   version="1.1"
   width="342.04001"
   height="342.04001"
   id="svg2"
   xml:space="preserve"><metadata
     id="metadata8"><rdf:RDF><cc:Work
         rdf:about=""><dc:format>image/svg+xml</dc:format><dc:type
           rdf:resource="http://purl.org/dc/dcmitype/StillImage" /></cc:Work></rdf:RDF></metadata><defs
     id="defs6"><clipPath
       id="clipPath18"><path
         d="M 0,2736.4 V 0 H 2736.4 V 2736.4 H 0 z"
         inkscape:connector-curvature="0"
         id="path20" /></clipPath></defs><g
     transform="matrix(1.25,0,0,-1.25,0,342.04)"
     id="g10"><g
       transform="scale(0.1,0.1)"
       id="g12"><g
         id="g14"><g
           clip-path="url(#clipPath18)"
           id="g16"><path
             d="m 1368.2,2731.4 c 752.86,0 1363.2,-610.32 1363.2,-1363.2 C 2731.4,615.32 2121,5 1368.2,5 615.32,5 5,615.32 5,1368.2 5,2121 615.32,2731.4 1368.2,2731.4"
             inkscape:connector-curvature="0"
             id="path22"
             style="fill:#ffffff" /><path
             d="m 1368.2,2731.4 c 752.86,0 1363.2,-610.32 1363.2,-1363.2 C 2731.4,615.32 2121,5 1368.2,5 615.32,5 5,615.32 5,1368.2 5,2121 615.32,2731.4 1368.2,2731.4 z"
             inkscape:connector-curvature="0"
             id="path24"
             style="fill:none;stroke:#0079c1;stroke-width:10" /><path
             d="m 1368.2,2679 c 723.97,0 1310.9,-586.91 1310.9,-1310.9 C 2679,644.21 2092.1,57.3 1368.2,57.3 644.21,57.301 57.3,644.21 57.3,1368.2 c 0,723.96 586.91,1310.9 1310.9,1310.9"
             inkscape:connector-curvature="0"
             id="path26"
             style="fill:#0079c1" /><path
             d="m 1243.6,1350.3 c -30.02,0 -58.64,-5.97 -84.69,-16.9 l -87.13,151.82 16.54,45.52 c 43.46,4.23 59.14,44.17 59.14,50.94 0,6.78 -8.07,6.78 -8.07,6.78 H 950.97 c -4.196,0 -18.067,-3.55 -18.067,-18.39 0,-14.84 15.809,-17.42 15.809,-17.42 l 82.594,-18.19 -20,-55.05 h -400.34 c 4.949,18.49 8.007,29.89 8.007,29.89 0,0 3.442,11.19 3.442,15.92 0,22.42 -16.641,39.19 -23.66,42.97 -1.399,0.75 -6.078,2.85 -6.078,9.14 0,6.29 3.66,11.56 11.667,11.56 h 83.458 v 55.49 h -104.96 c 0,0 -55.063,-5.16 -55.063,-61.51 0,-32.95 16.344,-40.44 29.25,-48.18 4.301,-2.58 8.176,-13.34 6.453,-19.36 -1.004,-3.52 -26.633,-99.67 -47.797,-179.12 -24.062,9.1 -50.14,14.09 -77.386,14.09 -120.95,0 -219.02,-98.06 -219.02,-219.02 0,-120.96 98.063,-219.01 219.02,-219.01 120.957,0 219.01,98.048 219.01,219.01 0,73.54 -36.238,138.6 -91.835,178.32 2.382,8.89 4.816,17.96 7.257,27.09 l 254.34,-177.7 c -2.765,-8.74 -4.269,-18.05 -4.269,-27.71 0,-50.65 41.058,-91.71 91.707,-91.71 9.062,0 17.808,1.32 26.074,3.76 l 13.594,-29.6 h -23.375 v -29.669 h 26.191 c 4.117,-6.5 11.367,-10.821 19.625,-10.821 8.262,0 15.508,4.321 19.629,10.821 h 25.539 v 29.669 h -38.254 l -19.101,40.61 c 19.703,12.81 34.179,32.99 39.525,56.62 l 20.94,-0.32 c 10.55,-111.13 104.82,-198.37 218.7,-198.37 120.96,0 219.02,98.048 219.02,219.01 0,120.962 -98.06,219.02 -219.02,219.02"
             inkscape:connector-curvature="0"
             id="path28"
             style="fill:#ffffff" /><path
             d="m 914.47,1188.8 c 31.754,0 57.496,-25.73 57.496,-57.49 0,-31.75 -25.742,-57.49 -57.496,-57.49 -31.746,0 -57.493,25.74 -57.493,57.49 0,31.76 25.747,57.49 57.493,57.49"
             inkscape:connector-curvature="0"
             id="path30"
             style="fill:#0079c1" /><path
             d="m 918.06,1222.9 c -1.188,0.06 -2.383,0.09 -3.586,0.09 -9.563,0 -18.785,-1.47 -27.453,-4.19 l -13.614,28.95 h 24.938 v 29.68 h -25.547 c -4.113,6.49 -11.359,10.8 -19.621,10.8 -8.266,0 -15.508,-4.31 -19.625,-10.8 H 807.36 v -29.68 h 39.313 l 18.09,-39.4 c -2.157,-1.39 -4.242,-2.88 -6.266,-4.44 l -270.7,189.13 c 2.91,10.87 5.742,21.44 8.437,31.51 h 395.11 L 918.063,1222.9"
             inkscape:connector-curvature="0"
             id="path32"
             style="fill:#0079c1" /><path
             d="m 1111.2,1305.7 -63.99,111.91 -77.457,-213.16 c 17.14,-12.95 29.589,-31.8 34.337,-53.53 h 21.38 c 5.62,63.11 38.01,118.52 85.73,154.78"
             inkscape:connector-curvature="0"
             id="path34"
             style="fill:#0079c1" /><path
             d="m 1143.3,1248.6 c -28.48,-24.48 -48.51,-58.63 -53.31,-97.81 h 109.67 l -56.36,97.81"
             inkscape:connector-curvature="0"
             id="path36"
             style="fill:#0079c1" /><path
             d="m 1191.5,1276.2 76.62,-132.94 c 0,0 3.71,-6.13 3.71,-12.75 0,-19.51 -20.01,-19.51 -29.52,-19.51 l -151.82,-0.3 c 10.22,-75.53 74.78,-134.06 153.1,-134.06 85.43,0 154.68,69.26 154.68,154.68 0,85.43 -69.25,154.68 -154.68,154.68 -18.51,0 -35.64,-3.83 -52.09,-9.8"
             inkscape:connector-curvature="0"
             id="path38"
             style="fill:#0079c1" /><path
             d="m 547.1,1241.2 c -7.46,-27.85 -12.628,-47.12 -13.339,-49.77 -16.911,-62.8 -81.461,-82.16 -94.641,-82.16 -14.199,0 -22.801,9.46 -22.801,22.79 0,13.34 10.754,17.21 14.629,20.22 49.035,38.29 56.781,79.16 56.781,79.16 0,0 4.469,16.78 11.231,42.18 -18.637,7.96 -39.156,12.37 -60.703,12.37 -85.426,0 -154.68,-69.25 -154.68,-154.68 0,-85.42 69.25,-154.68 154.68,-154.68 85.426,0 154.68,69.26 154.68,154.68 0,42.98 -17.532,81.86 -45.833,109.89"
             inkscape:connector-curvature="0"
             id="path40"
             style="fill:#0079c1" /><path
             d="m 2038.6,2061.8 c 48.19,0 83.91,-38.27 83.91,-85.5 0,-29.59 -30.66,-72.07 -33.35,-75.3 -2.69,-3.22 -6.45,-17.2 3.23,-20.43 23.6,-7.87 58.92,-18.59 86.05,-36.03 7.53,-4.84 23.12,-12.37 26.34,-28.51 l 91.69,-391.64 c 0,0 22.86,-1.48 22.86,-20.31 0,-13.98 -3.49,-14.78 -3.49,-14.78 0,0 45.98,-3.63 60.51,0.4 14.51,4.03 20.56,12.91 8.86,24.2 -11.69,11.3 -19.35,26.62 -19.35,43.56 0,16.94 20.16,58.08 58.47,58.08 38.33,0 59.3,-34.28 59.3,-56.87 0,-22.58 -12.91,-40.33 -18.15,-45.58 -5.25,-5.24 -9.28,-12.9 4.84,-19.76 54.86,-26.65 63.21,-56.74 70.19,-122.21 2.01,-18.96 3.22,-109.3 2.42,-116.57 -0.81,-7.26 -10.9,-23.4 -27.83,-23.4 -16.95,0 -24.61,10.49 -24.61,18.56 0,8.07 6.45,12.11 9.27,14.93 2.83,2.81 6.05,10.48 4.04,16.53 -2.02,6.05 -13.71,74.21 -13.31,79.46 -2.42,2.02 -9.28,13.72 -13.31,20.57 -21.91,-41.07 -6.07,-112.34 3.23,-164.97 1.2,-6.85 1.61,-11.29 -10.09,-14.52 0,-3.63 0.4,-148.03 0.4,-148.03 0,0 0.81,-10.481 3.22,-12.899 2.43,-2.422 8.88,-8.07 8.88,-13.711 0,-5.648 -4.43,-8.07 -8.47,-8.07 -4.03,0 -6.44,2.02 -8.87,3.629 -2.41,1.609 -23.39,16.531 -23.39,16.531 0,0 -7.67,6.871 -10.08,16.949 l -22.6,106.07 c 0,0 0,6.46 -4.83,10.9 -4.84,4.43 -8.08,7.25 -10.89,8.47 -2.83,1.21 -6.86,2.42 -6.86,-3.23 v -126.66 c 0,0 -0.41,-6.84 -4.04,-10.078 -3.63,-3.223 -38.31,-25.812 -39.52,-27.434 -1.21,-1.597 -6.86,-3.218 -8.47,-3.218 -1.62,0 -8.87,2.422 -8.87,8.48 0,6.039 3.22,9.27 5.24,12.09 2.01,2.832 10.09,12.91 11.29,14.121 1.21,1.211 6.6,9.008 3.22,21.367 -1.2,4.453 -16.93,90.362 -17.33,99.232 -4.85,1.61 -41.14,17.35 -29.45,59.69 l 45.58,187.16 c 0,0 5.11,11.15 -5.24,14.92 -43.17,15.73 -68.58,27.43 -104.47,54.45 -4.33,3.27 -16.94,14.93 5.64,31.06 l -107.29,275.48 6.46,-300.49 c 0,0 1.61,-18.55 0.4,-33.48 l -32.27,-393.66 c 0,0 0.81,-5.641 2.84,-8.481 2.01,-2.812 15.32,-22.57 16.93,-24.191 1.61,-1.61 4.03,-5.649 2.82,-8.871 -1.21,-3.239 -5.24,-9.278 -10.08,-9.278 -4.84,0 -7.26,2.418 -10.89,4.438 l -58.89,43.152 c 0,0 -8.06,4.438 -8.47,21.367 0,0 -2.38,120.88 -4.84,195.63 -2.82,85.91 -8.07,108.5 -26.61,192.4 l -12.51,-165.37 c 0,0 -3.24,-75.03 -3.24,-80.67 0,-37.82 -0.96,-119.46 6.06,-156.91 1.21,-6.449 -0.81,-6.84 -2.42,-8.461 -1.61,-1.621 -38.72,-37.109 -40.33,-39.539 -1.62,-2.422 -7.67,-5.64 -10.49,-5.64 -2.83,0 -14.93,3.629 -14.93,10.89 0,2.418 0.41,6.051 2.83,9.68 2.42,3.629 6.85,11.301 7.66,12.512 0.81,1.207 2.42,3.226 1.21,10.07 -1.21,6.867 -31.05,257.48 -32.67,264.47 -1.61,6.99 -11.29,164.03 -11.29,181.77 0,17.75 26.88,288.26 26.88,292.56 0,0 -66.68,-84.66 -66.68,-204.9 0,-18.82 1.89,-46.83 2.69,-51.63 0.54,-3.22 1.07,-9.14 2.69,-12.9 1.62,-3.77 5.91,-15.6 5.91,-23.66 0,-8.07 -6.99,-34.43 -36.03,-34.43 -16.13,0 -32.53,19.63 -32.53,32.54 0,12.91 3.49,20.71 5.11,22.86 1.61,2.15 3.22,12.37 1.07,22.59 -2.15,10.21 -6.99,81.2 -6.99,98.95 0,65.47 23.66,175.86 39.26,244.7 2.05,9.05 12.37,28.5 25.82,37.64 38.88,26.45 73.36,47.63 113.46,54.32 6.46,1.07 19.91,6.45 8.61,24.2 -11.29,17.74 -31.73,46.79 -31.73,77.44 0,30.65 22.05,81.2 80.66,81.2"
             inkscape:connector-curvature="0"
             id="path42"
             style="fill:#ffffff" /><path
             d="m 1593.1,188.69 h 84 v 2368 h -84 v -2368 z"
             inkscape:connector-curvature="0"
             id="path44"
             style="fill:#ffffff" /></g></g></g></g></svg>