<?xml version="1.0" encoding="UTF-8" standalone="no"?>
<!-- Created with Inkscape (http://www.inkscape.org/) -->

<svg
   xmlns:dc="http://purl.org/dc/elements/1.1/"
   xmlns:cc="http://creativecommons.org/ns#"
   xmlns:rdf="http://www.w3.org/1999/02/22-rdf-syntax-ns#"
   xmlns:svg="http://www.w3.org/2000/svg"
   xmlns="http://www.w3.org/2000/svg"
   xmlns:sodipodi="http://sodipodi.sourceforge.net/DTD/sodipodi-0.dtd"
   xmlns:inkscape="http://www.inkscape.org/namespaces/inkscape"
   version="1.1"
   width="360.26767"
   height="318.20007"
   id="svg2816"
   xml:space="preserve"
   inkscape:version="0.48.4 r9939"
   sodipodi:docname="AJAX.svg"><metadata
     id="metadata81"><rdf:RDF><cc:Work
         rdf:about=""><dc:format>image/svg+xml</dc:format><dc:type
           rdf:resource="http://purl.org/dc/dcmitype/StillImage" /><dc:title></dc:title></cc:Work></rdf:RDF></metadata><sodipodi:namedview
     pagecolor="#ffffff"
     bordercolor="#666666"
     borderopacity="1"
     objecttolerance="10"
     gridtolerance="10"
     guidetolerance="10"
     inkscape:pageopacity="0"
     inkscape:pageshadow="2"
     inkscape:window-width="1920"
     inkscape:window-height="1057"
     id="namedview79"
     showgrid="false"
     fit-margin-top="0.1"
     fit-margin-left="0.1"
     fit-margin-right="0.1"
     fit-margin-bottom="0.1"
     inkscape:zoom="1.4142136"
     inkscape:cx="65.466549"
     inkscape:cy="76.380205"
     inkscape:window-x="-8"
     inkscape:window-y="-8"
     inkscape:window-maximized="1"
     inkscape:current-layer="svg2816"
     showguides="true"
     inkscape:guide-bbox="true" /><defs
     id="defs2820"><clipPath
       id="clipPath2832"><path
         d="m -0.24,595.138 317.48,0 0,-595.276 -317.48,0 0,595.276 z"
         id="path2834"
         inkscape:connector-curvature="0" /></clipPath><clipPath
       id="clipPath2840"><path
         d="m 0.03,595.32 317.46,0 0,-595.32 -317.46,0 0,595.32 z"
         id="path2842"
         inkscape:connector-curvature="0" /></clipPath><clipPath
       id="clipPath2858"><path
         d="m -0.24,595.138 317.48,0 0,-595.276 -317.48,0 0,595.276 z"
         id="path2860"
         inkscape:connector-curvature="0" /></clipPath><clipPath
       id="clipPath2864"><path
         d="m 0.03,595.32 317.46,0 0,-595.32 -317.46,0 0,595.32 z"
         id="path2866"
         inkscape:connector-curvature="0" /></clipPath><clipPath
       id="clipPath3306"><path
         d="m 199.238,472.977 0,-29.74 29.744,0 0,29.74"
         id="path3308"
         inkscape:connector-curvature="0" /></clipPath><clipPath
       id="clipPath3322"><path
         d="m -0.24,595.138 317.48,0 0,-595.276 -317.48,0 0,595.276 z"
         id="path3324"
         inkscape:connector-curvature="0" /></clipPath><clipPath
       id="clipPath3330"><path
         d="m 0.03,595.32 317.46,0 0,-595.32 -317.46,0 0,595.32 z"
         id="path3332"
         inkscape:connector-curvature="0" /></clipPath><clipPath
       id="clipPath3344"><path
         d="m 88.233,387.221 0,-28.335 32.08,0 0,28.335"
         id="path3346"
         inkscape:connector-curvature="0" /></clipPath><clipPath
       id="clipPath3462"><path
         d="m -0.24,595.138 317.48,0 0,-595.276 -317.48,0 0,595.276 z"
         id="path3464"
         inkscape:connector-curvature="0" /></clipPath><clipPath
       id="clipPath3470"><path
         d="m 0.03,595.32 317.46,0 0,-595.32 -317.46,0 0,595.32 z"
         id="path3472"
         inkscape:connector-curvature="0" /></clipPath><clipPath
       id="clipPath3490"><path
         d="m -0.24,595.138 317.48,0 0,-595.276 -317.48,0 0,595.276 z"
         id="path3492"
         inkscape:connector-curvature="0" /></clipPath><clipPath
       id="clipPath3496"><path
         d="m 0.03,595.32 317.46,0 0,-595.32 -317.46,0 0,595.32 z"
         id="path3498"
         inkscape:connector-curvature="0" /></clipPath><clipPath
       id="clipPath3520"><path
         d="m 254.788,326.215 0,-28.309 28.326,0 0,28.309"
         id="path3522"
         inkscape:connector-curvature="0" /></clipPath><clipPath
       id="clipPath3544"><path
         d="m 145.049,326.142 0,-28.333 28.342,0 0,28.333"
         id="path3546"
         inkscape:connector-curvature="0" /></clipPath><clipPath
       id="clipPath3682"><path
         d="m -0.24,595.138 317.48,0 0,-595.276 -317.48,0 0,595.276 z"
         id="path3684"
         inkscape:connector-curvature="0" /></clipPath><clipPath
       id="clipPath3690"><path
         d="m 0.03,595.32 317.46,0 0,-595.32 -317.46,0 0,595.32 z"
         id="path3692"
         inkscape:connector-curvature="0" /></clipPath><clipPath
       id="clipPath3980"><path
         d="m -0.24,595.138 317.48,0 0,-595.276 -317.48,0 0,595.276 z"
         id="path3982"
         inkscape:connector-curvature="0" /></clipPath><clipPath
       id="clipPath3988"><path
         d="m 0.03,595.32 317.46,0 0,-595.32 -317.46,0 0,595.32 z"
         id="path3990"
         inkscape:connector-curvature="0" /></clipPath><clipPath
       id="clipPath4010"><path
         d="m -0.24,595.138 317.48,0 0,-595.276 -317.48,0 0,595.276 z"
         id="path4012"
         inkscape:connector-curvature="0" /></clipPath><clipPath
       id="clipPath4016"><path
         d="m 0.03,595.32 317.46,0 0,-595.32 -317.46,0 0,595.32 z"
         id="path4018"
         inkscape:connector-curvature="0" /></clipPath><clipPath
       id="clipPath4062"><path
         d="m 200.163,177.773 0,-28.284 28.283,0 0,28.284"
         id="path4064"
         inkscape:connector-curvature="0" /></clipPath><clipPath
       id="clipPath4090"><path
         d="m 34.886,177.515 0,-51.632 30.367,0 0,51.632"
         id="path4092"
         inkscape:connector-curvature="0" /></clipPath><clipPath
       id="clipPath4106"><path
         d="m 34.886,177.515 0,-51.632 30.367,0 0,51.632"
         id="path4108"
         inkscape:connector-curvature="0" /></clipPath><clipPath
       id="clipPath4272"><path
         d="m 34.886,177.515 0,-51.632 30.367,0 0,51.632"
         id="path4274"
         inkscape:connector-curvature="0" /></clipPath><clipPath
       id="clipPath4304"><path
         d="m 254.653,176.442 0,-48.167 28.317,0 0,48.167"
         id="path4306"
         inkscape:connector-curvature="0" /></clipPath><clipPath
       id="clipPath4310"><path
         d="m 253.565,177.983 31.181,0 0,-49.183 -31.181,0 0,49.183 z"
         id="path4312"
         inkscape:connector-curvature="0" /></clipPath><clipPath
       id="clipPath4316"><path
         d="m -0.24,595.138 317.48,0 0,-595.276 -317.48,0 0,595.276 z"
         id="path4318"
         inkscape:connector-curvature="0" /></clipPath><clipPath
       id="clipPath4322"><path
         d="m 0.03,595.32 317.46,0 0,-595.32 -317.46,0 0,595.32 z"
         id="path4324"
         inkscape:connector-curvature="0" /></clipPath><clipPath
       id="clipPath4456"><path
         d="m -0.24,595.138 317.48,0 0,-595.276 -317.48,0 0,595.276 z"
         id="path4458"
         inkscape:connector-curvature="0" /></clipPath><clipPath
       id="clipPath4464"><path
         d="m 0.03,595.32 317.46,0 0,-595.32 -317.46,0 0,595.32 z"
         id="path4466"
         inkscape:connector-curvature="0" /></clipPath></defs><path
     style="fill:#ec1d24;fill-opacity:1;fill-rule:evenodd;stroke:none"
     d="m 336.29011,318.10006 c 8.5855,0 16.4565,-4.5216 20.6875,-11.9063 4.2534,-7.3734 4.2534,-16.4791 0,-23.875 L 200.82134,11.975053 C 196.54541,4.6016433 188.72331,0.10005333 180.22759,0.10005333 c -0.0312,0 -0.0625,-1.2e-4 -0.0937,0 -0.0312,-1.2e-4 -0.0625,0 -0.0937,0 -8.49572,0 -16.31784,4.50157997 -20.59375,11.87499967 L 3.2901025,282.31876 c -4.25347,7.3959 -4.25347,16.5016 0,23.875 4.23102,7.3847 12.1019925,11.9063 20.6875025,11.9063 z"
     id="path3101"
     inkscape:connector-curvature="0"
     sodipodi:nodetypes="scccscscccss" /><path
     inkscape:connector-curvature="0"
     style="fill:#ffffff;fill-opacity:1;fill-rule:evenodd;stroke:none"
     id="path3121"
     d="m 322.51271,286.28316 -284.757876,0 L 180.13382,39.806523 z"
     sodipodi:nodetypes="cccc" /><path
     inkscape:connector-curvature="0"
     style="fill:#000000;fill-rule:nonzero;stroke:none"
     d="m 244.17352,205.85429 c -4.77891,-0.12603 -9.33608,0.8239 -13.42063,2.62577 l -14.00412,-24.21546 2.62577,-7.29381 c 6.99974,-0.64186 9.49363,-7.0009 9.62784,-8.16907 -0.13421,-0.98731 -1.45876,-0.87526 -1.45876,-0.87526 l -30.04993,0 c -0.57301,-0.11205 -2.78098,0.45162 -2.91752,2.91752 0.13654,2.2605 2.62577,2.62578 2.62577,2.62578 l 13.12828,2.91753 -3.20928,8.75257 -63.60147,0 c 0.73054,-2.90936 1.16701,-4.66804 1.16701,-4.66804 0,0 0.59867,-1.83804 0.5835,-2.62577 0.0151,-3.53488 -2.63277,-6.20268 -3.79278,-6.71031 -0.18205,-0.21474 -0.92544,-0.54851 -0.87526,-1.45876 -0.0502,-1.09233 0.53216,-1.9314 1.75052,-2.04227 l 13.42062,0 0,-8.75258 -16.92166,0 c 0,0 -8.63238,0.85074 -8.75257,9.91959 0.12019,5.14767 2.72263,6.33918 4.66804,7.58557 0.79357,0.39795 1.40976,2.10994 1.16701,3.20927 -0.19138,0.41895 -4.27127,15.72662 -7.58557,28.3 -3.88615,-1.37357 -8.03604,-2.1683 -12.25361,-2.04227 -19.375877,-0.12603 -34.985807,15.4839 -35.010886,34.71856 0.0251,19.27667 15.635009,34.8866 35.010886,35.01031 19.13547,-0.12371 34.74541,-15.73364 34.71856,-35.01031 0.0269,-11.68527 -5.74285,-22.0425 -14.58763,-28.3 0.37344,-1.48212 0.76089,-2.92453 1.16701,-4.37629 l 40.55361,28.3 c -0.52283,1.37823 -0.76207,2.86033 -0.87525,4.37629 0.11318,8.08387 6.65077,14.62146 14.58762,14.58763 1.56729,0.0338 2.96186,-0.17739 4.37629,-0.58351 l 2.04168,4.66804 -3.7922,0 0,4.66805 4.37571,0 c 0.54382,1.153 1.69682,1.84036 2.91752,1.75051 1.40975,0.0898 2.56392,-0.59751 3.20928,-1.75051 l 4.08454,0 0,-4.66805 -6.12681,0 -2.91752,-6.41855 c 3.04123,-2.0236 5.34724,-5.23404 6.1268,-9.04433 l 3.50103,0 c 1.58246,17.78873 16.58789,31.67732 34.71856,31.80103 19.25566,-0.12371 34.86559,-15.73364 35.01031,-35.01031 -0.14472,-19.23466 -15.75465,-34.84459 -35.01031,-34.71856 z"
     id="path15" /><path
     inkscape:connector-curvature="0"
     style="fill:#ffffff;fill-rule:nonzero;stroke:none"
     d="m 191.65864,231.52852 c 5.18036,-0.0875 9.27889,4.011 9.33609,9.04433 -0.0572,5.07533 -4.15573,9.17386 -9.33609,9.04433 -4.92829,0.12953 -9.02566,-3.969 -9.04433,-9.04433 0.0187,-5.03333 4.11604,-9.13186 9.04433,-9.04433 z"
     id="path17" /><path
     inkscape:connector-curvature="0"
     style="fill:#ffffff;fill-rule:nonzero;stroke:none"
     d="m 192.24215,225.98521 c -0.0759,0.0128 -0.26609,0.008 -0.58351,0 -1.39692,0.008 -2.86501,0.24274 -4.37628,0.58352 l -2.04228,-4.3763 4.08454,0 0,-4.95979 -4.08454,0 c -0.74572,-0.93944 -1.89872,-1.62682 -3.20927,-1.75051 -1.31873,0.12369 -2.47408,0.81107 -3.20928,1.75051 l -4.08454,0 0,4.95979 6.12681,0 2.91752,6.12681 c -0.25324,0.2264 -0.58584,0.4633 -0.87526,0.58351 l -43.17938,-30.05052 c 0.51582,-1.6595 0.96745,-3.34466 1.45877,-4.95979 l 62.7268,0 -11.6701,32.09277 z"
     id="path19" /><path
     inkscape:connector-curvature="0"
     style="fill:#ffffff;fill-rule:nonzero;stroke:none"
     d="m 223.16792,212.85635 -10.21134,-17.7969 -12.25361,33.8433 c 2.60593,2.09944 4.58751,5.10099 5.25155,8.46082 l 3.50102,0 c 0.88926,-9.94993 6.04511,-18.77019 13.71238,-24.50722 z"
     id="path21" /><path
     inkscape:connector-curvature="0"
     style="fill:#ffffff;fill-rule:nonzero;stroke:none"
     d="m 228.12771,221.90068 c -4.4428,3.91181 -7.63226,9.34658 -8.46082,15.46289 l 17.50515,0 -9.04433,-15.46289 z"
     id="path23" /><path
     inkscape:connector-curvature="0"
     style="fill:#ffffff;fill-rule:nonzero;stroke:none"
     d="m 236.00504,217.52439 11.96185,21.29794 c 0,0 0.70136,0.84724 0.58351,2.04226 0.11785,2.96538 -3.06574,2.96538 -4.66805,2.91753 l -24.21546,0 c 1.76101,12.11823 12.03771,21.43564 24.50721,21.29794 13.59916,0.1377 24.62392,-10.88705 24.50723,-24.50722 0.11669,-13.57816 -10.90807,-24.60408 -24.50723,-24.50721 -2.94669,-0.0969 -5.674,0.51464 -8.16906,1.45876 z"
     id="path25" /><path
     inkscape:connector-curvature="0"
     style="fill:#ffffff;fill-rule:nonzero;stroke:none"
     d="m 133.30813,223.06768 c -1.19502,4.46615 -2.0166,7.53422 -2.04227,7.87732 -2.77981,10.07597 -13.05651,13.15921 -15.17114,13.12887 -2.24345,0.0303 -3.61329,-1.47627 -3.50161,-3.50103 -0.11168,-2.22199 1.60126,-2.83817 2.3346,-3.20927 7.68944,-6.20383 9.04434,-12.83713 9.04434,-12.83713 0,0 0.58817,-2.54291 1.75051,-6.7103 -3.05173,-1.14367 -6.31819,-1.84738 -9.62784,-1.75051 -13.71984,-0.0969 -24.744815,10.92905 -24.799545,24.50721 0.0547,13.62017 11.079705,24.64492 24.799545,24.50722 13.47898,0.1377 24.50371,-10.88705 24.50722,-24.50722 -0.004,-6.82118 -2.79499,-13.011 -7.29381,-17.50516 z"
     id="path27" /></svg>