<?xml version="1.0" encoding="UTF-8" standalone="no"?>
<!-- Created with Inkscape (http://www.inkscape.org/) -->

<svg
   xmlns:dc="http://purl.org/dc/elements/1.1/"
   xmlns:cc="http://creativecommons.org/ns#"
   xmlns:rdf="http://www.w3.org/1999/02/22-rdf-syntax-ns#"
   xmlns:svg="http://www.w3.org/2000/svg"
   xmlns="http://www.w3.org/2000/svg"
   xmlns:sodipodi="http://sodipodi.sourceforge.net/DTD/sodipodi-0.dtd"
   xmlns:inkscape="http://www.inkscape.org/namespaces/inkscape"
   version="1.1"
   width="360.26767"
   height="318.20004"
   id="svg2816"
   xml:space="preserve"
   inkscape:version="0.48.4 r9939"
   sodipodi:docname="AJAX.svg"><metadata
     id="metadata81"><rdf:RDF><cc:Work
         rdf:about=""><dc:format>image/svg+xml</dc:format><dc:type
           rdf:resource="http://purl.org/dc/dcmitype/StillImage" /><dc:title></dc:title></cc:Work></rdf:RDF></metadata><sodipodi:namedview
     pagecolor="#ffffff"
     bordercolor="#666666"
     borderopacity="1"
     objecttolerance="10"
     gridtolerance="10"
     guidetolerance="10"
     inkscape:pageopacity="0"
     inkscape:pageshadow="2"
     inkscape:window-width="1920"
     inkscape:window-height="1057"
     id="namedview79"
     showgrid="false"
     fit-margin-top="0.1"
     fit-margin-left="0.1"
     fit-margin-right="0.1"
     fit-margin-bottom="0.1"
     inkscape:zoom="2.0000001"
     inkscape:cx="169.73618"
     inkscape:cy="142.99662"
     inkscape:window-x="-8"
     inkscape:window-y="-8"
     inkscape:window-maximized="1"
     inkscape:current-layer="svg2816"
     showguides="true"
     inkscape:guide-bbox="true" /><defs
     id="defs2820"><clipPath
       id="clipPath2832"><path
         d="m -0.24,595.138 317.48,0 0,-595.276 -317.48,0 0,595.276 z"
         id="path2834"
         inkscape:connector-curvature="0" /></clipPath><clipPath
       id="clipPath2840"><path
         d="m 0.03,595.32 317.46,0 0,-595.32 -317.46,0 0,595.32 z"
         id="path2842"
         inkscape:connector-curvature="0" /></clipPath><clipPath
       id="clipPath2858"><path
         d="m -0.24,595.138 317.48,0 0,-595.276 -317.48,0 0,595.276 z"
         id="path2860"
         inkscape:connector-curvature="0" /></clipPath><clipPath
       id="clipPath2864"><path
         d="m 0.03,595.32 317.46,0 0,-595.32 -317.46,0 0,595.32 z"
         id="path2866"
         inkscape:connector-curvature="0" /></clipPath><clipPath
       id="clipPath3306"><path
         d="m 199.238,472.977 0,-29.74 29.744,0 0,29.74"
         id="path3308"
         inkscape:connector-curvature="0" /></clipPath><clipPath
       id="clipPath3322"><path
         d="m -0.24,595.138 317.48,0 0,-595.276 -317.48,0 0,595.276 z"
         id="path3324"
         inkscape:connector-curvature="0" /></clipPath><clipPath
       id="clipPath3330"><path
         d="m 0.03,595.32 317.46,0 0,-595.32 -317.46,0 0,595.32 z"
         id="path3332"
         inkscape:connector-curvature="0" /></clipPath><clipPath
       id="clipPath3344"><path
         d="m 88.233,387.221 0,-28.335 32.08,0 0,28.335"
         id="path3346"
         inkscape:connector-curvature="0" /></clipPath><clipPath
       id="clipPath3462"><path
         d="m -0.24,595.138 317.48,0 0,-595.276 -317.48,0 0,595.276 z"
         id="path3464"
         inkscape:connector-curvature="0" /></clipPath><clipPath
       id="clipPath3470"><path
         d="m 0.03,595.32 317.46,0 0,-595.32 -317.46,0 0,595.32 z"
         id="path3472"
         inkscape:connector-curvature="0" /></clipPath><clipPath
       id="clipPath3490"><path
         d="m -0.24,595.138 317.48,0 0,-595.276 -317.48,0 0,595.276 z"
         id="path3492"
         inkscape:connector-curvature="0" /></clipPath><clipPath
       id="clipPath3496"><path
         d="m 0.03,595.32 317.46,0 0,-595.32 -317.46,0 0,595.32 z"
         id="path3498"
         inkscape:connector-curvature="0" /></clipPath><clipPath
       id="clipPath3520"><path
         d="m 254.788,326.215 0,-28.309 28.326,0 0,28.309"
         id="path3522"
         inkscape:connector-curvature="0" /></clipPath><clipPath
       id="clipPath3544"><path
         d="m 145.049,326.142 0,-28.333 28.342,0 0,28.333"
         id="path3546"
         inkscape:connector-curvature="0" /></clipPath><clipPath
       id="clipPath3682"><path
         d="m -0.24,595.138 317.48,0 0,-595.276 -317.48,0 0,595.276 z"
         id="path3684"
         inkscape:connector-curvature="0" /></clipPath><clipPath
       id="clipPath3690"><path
         d="m 0.03,595.32 317.46,0 0,-595.32 -317.46,0 0,595.32 z"
         id="path3692"
         inkscape:connector-curvature="0" /></clipPath><clipPath
       id="clipPath3980"><path
         d="m -0.24,595.138 317.48,0 0,-595.276 -317.48,0 0,595.276 z"
         id="path3982"
         inkscape:connector-curvature="0" /></clipPath><clipPath
       id="clipPath3988"><path
         d="m 0.03,595.32 317.46,0 0,-595.32 -317.46,0 0,595.32 z"
         id="path3990"
         inkscape:connector-curvature="0" /></clipPath><clipPath
       id="clipPath4010"><path
         d="m -0.24,595.138 317.48,0 0,-595.276 -317.48,0 0,595.276 z"
         id="path4012"
         inkscape:connector-curvature="0" /></clipPath><clipPath
       id="clipPath4016"><path
         d="m 0.03,595.32 317.46,0 0,-595.32 -317.46,0 0,595.32 z"
         id="path4018"
         inkscape:connector-curvature="0" /></clipPath><clipPath
       id="clipPath4062"><path
         d="m 200.163,177.773 0,-28.284 28.283,0 0,28.284"
         id="path4064"
         inkscape:connector-curvature="0" /></clipPath><clipPath
       id="clipPath4090"><path
         d="m 34.886,177.515 0,-51.632 30.367,0 0,51.632"
         id="path4092"
         inkscape:connector-curvature="0" /></clipPath><clipPath
       id="clipPath4106"><path
         d="m 34.886,177.515 0,-51.632 30.367,0 0,51.632"
         id="path4108"
         inkscape:connector-curvature="0" /></clipPath><clipPath
       id="clipPath4272"><path
         d="m 34.886,177.515 0,-51.632 30.367,0 0,51.632"
         id="path4274"
         inkscape:connector-curvature="0" /></clipPath><clipPath
       id="clipPath4304"><path
         d="m 254.653,176.442 0,-48.167 28.317,0 0,48.167"
         id="path4306"
         inkscape:connector-curvature="0" /></clipPath><clipPath
       id="clipPath4310"><path
         d="m 253.565,177.983 31.181,0 0,-49.183 -31.181,0 0,49.183 z"
         id="path4312"
         inkscape:connector-curvature="0" /></clipPath><clipPath
       id="clipPath4316"><path
         d="m -0.24,595.138 317.48,0 0,-595.276 -317.48,0 0,595.276 z"
         id="path4318"
         inkscape:connector-curvature="0" /></clipPath><clipPath
       id="clipPath4322"><path
         d="m 0.03,595.32 317.46,0 0,-595.32 -317.46,0 0,595.32 z"
         id="path4324"
         inkscape:connector-curvature="0" /></clipPath><clipPath
       id="clipPath4456"><path
         d="m -0.24,595.138 317.48,0 0,-595.276 -317.48,0 0,595.276 z"
         id="path4458"
         inkscape:connector-curvature="0" /></clipPath><clipPath
       id="clipPath4464"><path
         d="m 0.03,595.32 317.46,0 0,-595.32 -317.46,0 0,595.32 z"
         id="path4466"
         inkscape:connector-curvature="0" /></clipPath></defs><path
     style="fill:#ec1d24;fill-opacity:1;fill-rule:evenodd;stroke:none"
     d="m 23.977595,318.10005 c -8.5855,0 -16.45648,-4.5216 -20.6875,-11.90625 -4.25346,-7.37342 -4.25346,-16.47912 0,-23.875 L 159.4463,11.975043 c 4.27596,-7.3733997 12.09806,-11.87498967 20.59376,-11.87498967 0.0312,0 0.0625,-1.2e-4 0.0937,0 0.0312,-1.2e-4 0.0625,0 0.0937,0 8.49572,0 16.31784,4.50157997 20.59375,11.87498967 L 356.97757,282.3188 c 4.25347,7.39588 4.25347,16.50158 0,23.875 -4.23102,7.38465 -12.10199,11.90625 -20.6875,11.90625 z"
     id="path3101"
     inkscape:connector-curvature="0"
     sodipodi:nodetypes="scccscscccss" /><path
     inkscape:connector-curvature="0"
     style="fill:#ffffff;fill-opacity:1;fill-rule:evenodd;stroke:none"
     id="path3121"
     d="m 37.755005,286.28316 284.757825,0 -142.379,-246.476647 z"
     sodipodi:nodetypes="cccc" /><path
     inkscape:connector-curvature="0"
     style="fill:#000000;fill-rule:nonzero;stroke:none"
     d="m 243.44542,170.18244 c 0,0 -73.52066,21.12926 -76.14883,21.88201 -2.66201,0.49133 -5.77451,0.95931 -4.66817,-3.20936 l 17.50563,-52.8086 -84.611045,92.77976 c 0,0 85.450145,-24.13208 87.820415,-24.79963 2.2979,-0.57769 5.0988,-0.7329 3.79288,3.79289 -1.49498,4.81054 -24.21611,68.56365 -24.21611,68.56365 l 80.52524,-106.20072 z"
     id="path15-1" /><path
     style="fill:#000000;fill-rule:nonzero;stroke:none"
     d="m 172.85275,74.243166 c -0.79242,5.41356 -1.93444,6.15493 -5.25,7.2775 0,0 -0.56805,0.10826 -0.59375,0.59375 0.0257,0.6644 0.59375,0.875 0.59375,0.875 l 4.65625,1.15625 c 0,0 0.67665,0.13102 0.59375,0.59375 0.0829,0.68727 -0.59375,0.875 -0.59375,0.875 l -4.65625,1.15625 c 0,0 -0.56805,0.15378 -0.59375,0.59375 0.0257,0.7112 0.59375,0.875 0.59375,0.875 l 4.65625,1.15625 c 0,0 0.67665,0.16614 0.59375,0.875 0.0829,0.44219 -0.59375,0.59375 -0.59375,0.59375 l -4.65625,1.1875 c 0,0 -0.56805,0.19006 -0.59375,0.875 0.0257,0.46495 0.59375,0.5625 0.59375,0.5625 l 4.65625,1.1875 c 0,0 0.67665,0.21282 0.59375,0.875 0.0829,0.48782 -0.59375,0.5625 -0.59375,0.5625 l -4.65625,1.1875 c 0,0 -0.56805,0.23557 -0.59375,0.875 0.0257,0.51172 0.59375,0.5625 0.59375,0.5625 l 4.65625,1.1875 c 0,0 0.67665,0.259624 0.59375,0.875004 0.0829,0.53452 -0.59375,0.5625 -0.59375,0.5625 l -4.65625,1.46875 c 0,0 -0.56805,0.001 -0.59375,0.59375 0.0257,0.55732 0.59375,0.5625 0.59375,0.5625 l 4.65625,1.46875 c 0,0 0.67665,0.0239 0.59375,0.59375 0.0829,0.57952 -0.59375,0.5625 -0.59375,0.5625 l -4.65625,1.46875 c 0,0 -0.56805,0.0468 -0.59375,0.59375 0.0257,0.60402 0.59375,0.5625 0.59375,0.5625 l 4.65625,1.46875 c 0,0 0.67665,0.0707 0.59375,0.59375 0.0829,0.62684 -0.59375,0.5625 -0.59375,0.5625 l -4.65625,1.46875 c 0,0 -0.56805,0.0934 -0.59375,0.59375 0.0257,0.64957 0.59375,0.875 0.59375,0.875 l 4.65625,1.15625 c 0,0 0.67665,0.11561 0.59375,0.59375 0.0829,0.30576 -0.3125,0.875 -0.3125,0.875 -2.81373,3.34474 -2.90625,5.53125 -2.90625,5.53125 l 5.25,0 c 0,0 0.43829,6.05035 5.25,9.625 4.81171,-3.57465 5.25,-9.625 5.25,-9.625 l 5.25,0 c 0,0 -0.0925,-2.18651 -2.90625,-5.53125 0,0 -0.39536,-0.56924 -0.3125,-0.875 -0.0829,-0.47814 0.59375,-0.59375 0.59375,-0.59375 l 4.65625,-1.15625 c 0,0 0.56808,-0.22543 0.59375,-0.875 -0.0257,-0.50032 -0.59375,-0.59375 -0.59375,-0.59375 l -4.65625,-1.46875 c 0,0 -0.67661,0.0643 -0.59375,-0.5625 -0.0829,-0.52307 0.59375,-0.59375 0.59375,-0.59375 l 4.65625,-1.46875 c 0,0 0.56808,0.0415 0.59375,-0.5625 -0.0257,-0.547 -0.59375,-0.59375 -0.59375,-0.59375 l -4.65625,-1.46875 c 0,0 -0.67661,0.017 -0.59375,-0.5625 -0.0829,-0.56987 0.59375,-0.59375 0.59375,-0.59375 l 4.65625,-1.46875 c 0,0 0.56808,-0.005 0.59375,-0.5625 -0.0257,-0.59265 -0.59375,-0.59375 -0.59375,-0.59375 l -4.65625,-1.46875 c 0,0 -0.67661,-0.028 -0.59375,-0.5625 -0.0829,-0.61538 0.59375,-0.875004 0.59375,-0.875004 l 4.65625,-1.1875 c 0,0 0.56808,-0.05078 0.59375,-0.5625 -0.0257,-0.63943 -0.59375,-0.875 -0.59375,-0.875 l -4.65625,-1.1875 c 0,0 -0.67661,-0.07468 -0.59375,-0.5625 -0.0829,-0.66218 0.59375,-0.875 0.59375,-0.875 l 4.65625,-1.1875 c 0,0 0.56808,-0.09755 0.59375,-0.5625 -0.0257,-0.68494 -0.59375,-0.875 -0.59375,-0.875 l -4.65625,-1.1875 c 0,0 -0.67661,-0.15156 -0.59375,-0.59375 -0.0829,-0.70886 0.59375,-0.875 0.59375,-0.875 l 4.65625,-1.15625 c 0,0 0.56808,-0.1638 0.59375,-0.875 -0.0257,-0.43997 -0.59375,-0.59375 -0.59375,-0.59375 l -4.65625,-1.15625 c 0,0 -0.67661,-0.18773 -0.59375,-0.875 -0.0829,-0.46273 0.59375,-0.59375 0.59375,-0.59375 l 4.65625,-1.15625 c 0,0 0.56808,-0.2106 0.59375,-0.875 -0.0257,-0.48549 -0.59375,-0.59375 -0.59375,-0.59375 -3.31556,-1.12257 -4.45758,-1.86394 -5.25,-7.2775 l -7.28125,0 z"
     id="path17-7"
     inkscape:connector-curvature="0"
     sodipodi:nodetypes="ccccccccccccccccccccccccccccccccccccccccccccccccccccccccccccccccccccccccccccccccccccccccccccc" /></svg>