<?xml version="1.0" encoding="UTF-8" standalone="no"?>
<!-- Created with Inkscape (http://www.inkscape.org/) -->

<svg
   xmlns:dc="http://purl.org/dc/elements/1.1/"
   xmlns:cc="http://creativecommons.org/ns#"
   xmlns:rdf="http://www.w3.org/1999/02/22-rdf-syntax-ns#"
   xmlns:svg="http://www.w3.org/2000/svg"
   xmlns="http://www.w3.org/2000/svg"
   xmlns:inkscape="http://www.inkscape.org/namespaces/inkscape"
   version="1.1"
   width="407.39999"
   height="654.59998"
   id="svg2"
   xml:space="preserve"><defs
     id="defs29" /><metadata
     id="metadata8"><rdf:RDF><cc:Work
         rdf:about=""><dc:format>image/svg+xml</dc:format><dc:type
           rdf:resource="http://purl.org/dc/dcmitype/StillImage" /></cc:Work></rdf:RDF></metadata><g
     transform="matrix(1.25,0,0,-1.25,-1.3125,655.46)"
     id="g10"><path
       d="M 326.97,16.89 C 326.94,7.916 319.66,0.64 310.65,0.69 H 17.37 C 8.3362,0.64035 1.061,7.916 1.05,16.89 v 491.16 c 0.0106,9.034 7.2862,16.31 16.32,16.32 h 293.28 c 9.014,-0.01 16.289,-7.286 16.32,-16.32 V 16.89"
       inkscape:connector-curvature="0"
       id="path12" /><path
       d="m 318.45,16.89 c 0.051,-4.314 -3.446,-7.8113 -7.8,-7.8 H 17.37 c -4.373,-0.0113 -7.8709,3.486 -7.92,7.8 v 174.12 c 0.0491,4.321 3.547,7.819 7.92,7.8 h 293.28 c 4.354,0.019 7.851,-3.479 7.8,-7.8 V 16.89"
       inkscape:connector-curvature="0"
       id="path14"
       style="fill:#ffffff" /><path
       d="m 318.45,215.13 c 0.051,-4.366 -3.446,-7.863 -7.8,-7.92 H 17.37 c -4.373,0.057 -7.8709,3.554 -7.92,7.92 v 292.92 c 0.0491,4.374 3.547,7.871 7.92,7.92 h 293.28 c 4.354,-0.049 7.851,-3.546 7.8,-7.92 V 215.13"
       inkscape:connector-curvature="0"
       id="path16"
       style="fill:#ffffff" /><path
       d="m 163.17,488.61 c 70.358,-0.008 127.36,-57.005 127.32,-127.32 0.035,-70.299 -56.962,-127.3 -127.32,-127.32 -70.256,0.024 -127.25,57.021 -127.2,127.32 -0.053,70.315 56.944,127.31 127.2,127.32"
       inkscape:connector-curvature="0"
       id="path18"
       style="fill:#808080" /><path
       d="m 244.05,299.49 c 13.132,17.158 20.92,38.574 20.88,61.8 0.04,56.201 -45.515,101.76 -101.76,101.76 -23.183,-0.004 -44.598,-7.792 -61.68,-20.88 L 244.05,299.49"
       inkscape:connector-curvature="0"
       id="path20"
       style="fill:#ffffff" /><path
       d="M 82.05,422.73 C 69.148,405.63 61.473,384.36 61.53,361.29 61.473,305.1 107.03,259.55 163.17,259.53 c 23.114,0.019 44.384,7.694 61.44,20.64 L 82.05,422.73"
       inkscape:connector-curvature="0"
       id="path22"
       style="fill:#ffffff" /><path
       d="m 99.09,135.45 h 22.2 v -10.44 h -34.2 v 10.44 l 20.52,27.84 H 87.57 v 9.96 h 32.52 v -9.96 l -21,-27.84"
       inkscape:connector-curvature="0"
       id="path24" /><path
       d="m 126.57,141.81 c -0.03,13.99 8.13,19.089 16.32,19.08 7.381,0.009 16.628,-5.09 16.68,-19.08 -0.052,-10.217 -6.783,-17.969 -16.2,-18 -10.438,0.031 -16.83,7.171 -16.8,18"
       inkscape:connector-curvature="0"
       id="path26" /><path
       d="m 150.21,141.81 c -0.007,8.142 -2.795,10.658 -6.84,10.68 -5.202,-0.022 -7.31,-4.238 -7.32,-10.68 0.01,-5.525 2.73,-9.741 7.32,-9.72 4.453,-0.021 6.833,4.195 6.84,9.72"
       inkscape:connector-curvature="0"
       id="path28"
       style="fill:#ffffff" /><path
       d="m 180.93,159.57 c 1.469,0.717 3.169,0.921 4.8,0.96 7.481,-0.039 13.124,-5.818 13.08,-12.72 v -22.8 h -9 v 19.8 c 0.001,3.85 -1.903,6.978 -5.64,6.96 -4.423,0.018 -7.279,-2.566 -7.32,-6 v -20.76 h -9.12 v 34.56 h 9.48 v -2.52 c 1.721,1.47 2.265,2.013 3.72,2.52"
       inkscape:connector-curvature="0"
       id="path30" /><path
       d="m 231.81,136.05 5.52,-6 c -4.452,-4.033 -7.376,-5.733 -13.68,-5.76 -10.627,0.027 -17.154,7.915 -17.16,18.48 0.006,9.358 6.057,17.585 15.36,17.64 10.144,-0.055 16.4,-7.602 16.44,-18.84 v -2.4 h -22.8 c 0.253,-3.973 3.857,-6.829 8.4,-6.84 2.596,0.011 4.024,0.419 7.92,3.72"
       inkscape:connector-curvature="0"
       id="path32" /><path
       d="m 215.49,146.13 h 14.04 c -0.256,3.414 -3.655,6.474 -7.08,6.48 -3.443,-0.006 -6.367,-2.726 -6.96,-6.48"
       inkscape:connector-curvature="0"
       id="path34"
       style="fill:#ffffff" /><path
       d="M 80.37,74.97 V 64.05 H 55.77 V 51.21 H 85.05 V 38.85 H 43.65 V 99.09 H 82.29 V 87.69 H 55.77 V 74.97 h 24.6"
       inkscape:connector-curvature="0"
       id="path36" /><path
       d="m 101.37,99.09 h 13.32 l 27.48,-40.32 v 40.32 h 12.12 V 38.85 H 140.97 L 113.49,79.29 V 38.85 h -12.12 v 60.24"
       inkscape:connector-curvature="0"
       id="path38" /><path
       d="M 223.41,69.81 C 223.4,51.446 210.31,38.871 195.21,38.85 h -21.84 v 60.24 h 23.4 c 15.254,0.003 26.632,-12.059 26.64,-29.28"
       inkscape:connector-curvature="0"
       id="path40" /><path
       d="m 210.81,69.69 c 0.017,14.775 -9.906,17.684 -15,17.64 h -9.84 V 51.09 h 8.52 c 10.092,0.013 16.337,6.258 16.32,18.6"
       inkscape:connector-curvature="0"
       id="path42"
       style="fill:#ffffff" /><path
       d="m 269.25,56.01 c -0.038,3.305 -1.407,5.444 -7.8,6.72 l -10.32,2.16 c -6.041,1.183 -13.997,6.402 -14.04,16.44 0.043,9.722 8.854,19.046 22.92,19.08 0,0 15.874,-0.034 23.88,-9.48 l -8.76,-8.64 c -7.116,6.11 -15.48,6.12 -15.48,6.12 -5.494,-0.01 -8.744,-2.662 -8.76,-6.6 0.016,-3.162 2.325,-5.215 12.72,-6.72 11.419,-1.489 19.203,-8.589 19.32,-18.6 0.054,-8.381 -4.65,-18.988 -25.56,-18.96 -11.853,-0.028 -17.414,3.137 -25.68,11.4 l 10.32,7.8 c 5.645,-5.456 9.58,-7.166 16.08,-7.2 6.759,0.034 11.122,2.087 11.16,6.48"
       inkscape:connector-curvature="0"
       id="path44" /><path
       d="m 42.69,207.21 h -7.44 l 283.2,283.32 v -7.44 L 42.69,207.21"
       inkscape:connector-curvature="0"
       id="path46" /><path
       d="m 27.93,207.21 h -7.44 l 297.96,298.08 v -7.44 L 27.93,207.21"
       inkscape:connector-curvature="0"
       id="path48" /><path
       d="m 13.89,208.05 c -1.575,0.72 -2.876,2.019 -3.6,3.6 l 303.48,303.72 c 1.705,-0.753 3.065,-2.022 3.84,-3.6 L 13.89,208.05"
       inkscape:connector-curvature="0"
       id="path50" /><path
       d="m 9.45,218.37 v 7.32 l 290.28,290.28 h 7.32 L 9.45,218.37"
       inkscape:connector-curvature="0"
       id="path52" /><path
       d="m 9.45,233.13 v 7.32 l 275.52,275.52 h 7.32 L 9.45,233.13"
       inkscape:connector-curvature="0"
       id="path54" /></g></svg>