<?xml version="1.0" encoding="UTF-8" standalone="no"?>
<!-- Created with Inkscape (http://www.inkscape.org/) -->

<svg
   xmlns:dc="http://purl.org/dc/elements/1.1/"
   xmlns:cc="http://creativecommons.org/ns#"
   xmlns:rdf="http://www.w3.org/1999/02/22-rdf-syntax-ns#"
   xmlns:svg="http://www.w3.org/2000/svg"
   xmlns="http://www.w3.org/2000/svg"
   version="1.1"
   width="600"
   height="600"
   id="svg2"
   xml:space="preserve"><defs
     id="defs16" /><metadata
     id="metadata4"><rdf:RDF><cc:Work
         rdf:about=""><dc:format>image/svg+xml</dc:format><dc:type
           rdf:resource="http://purl.org/dc/dcmitype/StillImage" /><dc:title></dc:title></cc:Work></rdf:RDF></metadata><path
     d="m 300.00002,-4e-5 c 165.625,0.05 299.95,134.375 300,300 -0.05,165.7625 -134.375,300.0875 -300,300 -165.7625,0.0839 -300.0874978,-134.2375 -299.9999978,-300 -0.083875,-165.625 134.2374978,-299.95 299.9999978,-300"
     id="path8"
     style="fill:#ec1d24;fill-opacity:1;fill-rule:nonzero" /><path
     d="m 300.00002,59.68746 c 132.625,0.1125 240.2,107.6875 240.3125,240.3125 -0.1125,132.7625 -107.6875,240.325 -240.3125,240.3125 -132.7625,0.0125 -240.324998,-107.555 -240.312498,-240.3125 -0.0125,-132.625 107.554998,-240.2 240.312498,-240.3125"
     id="path10"
     style="fill:#ffffff;fill-rule:nonzero" /><path
     d="m 211.53,127.56 c -11.33,0.04 -38.78,5.94 -44.09,40.13 l -12.94,81.34 c 0,0 -23.7,1.33 -23.78,26.41 v 73.15 c 0,0 -1.05,13.69 12.69,21.66 v 57.03 c 0,0 8.56,12.21 26.93,12.16 18.24,0.05 25.35,-12.41 25.35,-12.41 v -52.28 c 0,0 73.22,3.82 104.56,3.94 31.58,-0.12 104.84,-3.94 104.84,-3.94 v 52.28 c 0,0 7.12,12.46 25.38,12.41 18.34,0.05 26.94,-12.16 26.94,-12.16 v -57.03 c 13.71,-7.97 12.65,-21.66 12.65,-21.66 v -73.15 c -0.11,-25.08 -23.75,-26.41 -23.75,-26.41 L 433.38,167.69 C 428.03,133.5 400.56,127.6 389.25,127.56 H 211.53 z m 60.75,25.88 h 56.25 c 4.65,-0.11 53.56,3.32 56.25,3.68 14.72,1.57 31.62,10.5 35.66,31.16 l 3.68,24.31 c 0,0 3.89,21.37 -18.5,21.38 -17.83,-0.01 -83.14,-3.81 -105.37,-3.69 -22,-0.12 -87.28,3.68 -105.09,3.69 -22.42,-0.01 -18.47,-21.38 -18.47,-21.38 l 3.69,-24.31 c 4.01,-20.66 20.9,-29.59 35.65,-31.16 2.67,-0.36 51.57,-3.79 56.25,-3.68 z m -98.25,112.75 c 13.54,-0.05 24.41,10.85 24.28,24.31 0.13,13.38 -10.74,24.25 -24.28,24.28 -13.3,-0.03 -24.17,-10.9 -24.28,-24.28 0.11,-13.46 10.98,-24.36 24.28,-24.31 z m 252.47,0 c 13.54,-0.05 24.41,10.85 24.28,24.31 0.13,13.38 -10.74,24.25 -24.28,24.28 -13.3,-0.03 -24.2,-10.9 -24.31,-24.28 0.11,-13.46 11.01,-24.36 24.31,-24.31 z m -126.25,20.87 c 9.46,0.1 76.49,1.06 86.91,2.38 v 11.87 h -173.5 v -11.87 c 10.38,-1.32 77.37,-2.28 86.59,-2.38 z m -86.87,26.66 h 174.03 v 14 H 213.38 v -14 z m 0.28,26.94 h 173.5 v 11.9 c -10.42,1.36 -77.45,2.31 -86.91,2.38 -9.22,-0.07 -76.21,-1.02 -86.59,-2.38 v -11.9 z"
     id="path12"
     style="fill:#000000;fill-rule:nonzero" /></svg>