<?xml version="1.0" encoding="UTF-8" standalone="no"?>
<!-- Created with Inkscape (http://www.inkscape.org/) -->

<svg
   xmlns:dc="http://purl.org/dc/elements/1.1/"
   xmlns:cc="http://creativecommons.org/ns#"
   xmlns:rdf="http://www.w3.org/1999/02/22-rdf-syntax-ns#"
   xmlns:svg="http://www.w3.org/2000/svg"
   xmlns="http://www.w3.org/2000/svg"
   xmlns:inkscape="http://www.inkscape.org/namespaces/inkscape"
   version="1.1"
   width="376.07999"
   height="132.86"
   id="svg2"
   xml:space="preserve"><metadata
     id="metadata8"><rdf:RDF><cc:Work
         rdf:about=""><dc:format>image/svg+xml</dc:format><dc:type
           rdf:resource="http://purl.org/dc/dcmitype/StillImage" /></cc:Work></rdf:RDF></metadata><defs
     id="defs6"><clipPath
       id="clipPath16"><path
         d="M 0.014999,106.3 H 300.875 V 0.01 H 0.014999 V 106.3 z"
         inkscape:connector-curvature="0"
         id="path18" /></clipPath></defs><g
     transform="matrix(1.25,0,0,-1.25,-0.018749,132.88)"
     id="g10"><g
       id="g12"><g
         clip-path="url(#clipPath16)"
         id="g14"><g
           transform="translate(274.8,99.969)"
           id="g20"><path
             d="m 0,0 c -2.309,3.891 -6.485,6.336 -11.094,6.336 h -250.88 c -7.058,0 -12.824,-5.758 -12.824,-12.672 v -80.813 c 0,-7.058 5.766,-12.82 12.824,-12.82 h 250.88 c 4.609,0 8.785,2.453 11.094,6.336 l 25.215,43.649 c 0.574,1.007 0.863,2.015 0.863,3.172 0,1.148 -0.289,2.156 -0.863,3.164 L -0.004,0"
             inkscape:connector-curvature="0"
             id="path22"
             style="fill:#231f20;fill-rule:evenodd" /></g></g></g><g
       transform="translate(269.32,96.797)"
       id="g24"><path
         d="m 0,0 c -1.148,2.023 -3.308,3.172 -5.617,3.172 h -250.88 c -3.461,0 -6.34,-2.879 -6.34,-6.336 v -80.813 c 0,-3.602 2.879,-6.484 6.34,-6.484 h 250.88 c 2.309,0 4.469,1.296 5.617,3.171 L 25.218,-43.641 0.003,0"
         inkscape:connector-curvature="0"
         id="path26"
         style="fill:#ffffff;fill-rule:evenodd" /></g><g
       transform="translate(265.15,53.157)"
       id="g28"><path
         d="M 0,0 -22.906,40.477 H -3.601 L 19.305,0 -3.601,-40.337 H -22.906 L 0,0"
         inkscape:connector-curvature="0"
         id="path30"
         style="fill:#231f20;fill-rule:evenodd" /></g><g
       transform="translate(89.031,63.528)"
       id="g32"><path
         d="m 0,0 3.461,3.309 c 4.465,-3.164 8.067,-3.454 8.934,-3.454 1.293,0 2.59,1.297 2.59,2.735 0,1.586 -1.153,2.305 -1.871,2.598 C 12.25,5.332 8.933,6.051 7.637,6.34 6.34,6.629 1.875,7.777 1.875,13.105 c 0,5.336 3.891,7.204 8.07,7.204 4.321,0 7.489,-1.293 10.227,-3.746 l -3.316,-3.168 c -1.727,1.296 -3.887,2.449 -7.2,2.449 -2.019,0 -2.308,-1.871 -2.308,-2.449 0,-0.719 0.433,-2.016 1.734,-2.305 1.152,-0.289 4.606,-1.149 5.039,-1.149 1.442,-0.148 6.051,-2.015 6.051,-6.918 0,-4.605 -2.883,-7.632 -8.5,-7.632 C 6.195,-4.609 1.875,-1.871 0,0"
         inkscape:connector-curvature="0"
         id="path34"
         style="fill:#231f20;fill-rule:evenodd" /></g><g
       transform="translate(123.46,67.274)"
       id="g36"><path
         d="m 0,0 v -3.312 c 0,-1.297 -2.449,-1.157 -2.879,-1.157 -0.434,0 -3.027,0 -3.027,2.016 C -5.906,-0.148 -2.738,0 0,0 m 4.469,-3.172 v 8.934 c 0,2.301 -2.161,4.031 -6.918,4.031 -3.602,0 -6.196,-1.582 -7.059,-2.16 L -7.633,4.32 c 1.441,1.008 4.465,1.586 5.762,1.586 C -0.578,5.906 0,4.898 0,4.465 V 3.457 c -1.442,0 -5.184,-0.719 -6.77,-1.152 -1.3,-0.43 -3.601,-1.446 -3.601,-4.899 0,-3.457 3.457,-5.617 6.914,-5.617 3.023,0 4.031,1.727 4.031,1.727 0,0 1.445,-1.871 4.035,-1.871 l 1.875,3.457 c -2.16,0.429 -2.015,1.152 -2.015,1.726"
         inkscape:connector-curvature="0"
         id="path38"
         style="fill:#231f20;fill-rule:evenodd" /></g><g
       transform="translate(194.49,69.438)"
       id="g40"><path
         d="m 0,0 v -3.32 c 0,-1.438 -1.301,-3.453 -3.75,-3.453 -2.59,0 -4.031,2.015 -4.031,5.328 0,3.172 1.73,4.754 3.891,4.754 C -1.73,3.309 0,2.016 0,0 m 0,5.898 v 7.926 H 4.321 V -9.945 H 0 v 0.722 c 0,0 -1.875,-1.441 -4.469,-1.441 -2.589,0 -7.921,2.164 -7.921,9.219 0,7.058 5.472,8.929 7.632,8.929 2.02,0 3.028,-0.429 4.758,-1.586"
         inkscape:connector-curvature="0"
         id="path42"
         style="fill:#231f20;fill-rule:evenodd" /></g><g
       transform="translate(178.36,72.746)"
       id="g44"><path
         d="m 0,0 v 4.176 c -4.179,0 -4.753,-1.008 -5.761,-2.016 v 1.727 h -4.465 v -17.141 h 4.465 v 8.5 C -5.761,-2.16 -3.027,0 0,0"
         inkscape:connector-curvature="0"
         id="path46"
         style="fill:#231f20;fill-rule:evenodd" /></g><g
       transform="translate(144.21,59.926)"
       id="g48"><path
         d="M 0,0 -0.863,3.746 C -4.035,2.738 -4.898,3.602 -4.898,4.32 v 8.5 h 4.468 v 3.887 h -4.468 v 6.774 l -4.321,-1.297 v -5.477 h -2.738 V 12.82 h 2.738 V 2.879 c 0,-2.156 1.297,-3.887 4.61,-3.887 2.304,0 4.035,0.863 4.609,1.008"
         inkscape:connector-curvature="0"
         id="path50"
         style="fill:#231f20;fill-rule:evenodd" /></g><g
       transform="translate(159.2,60.789)"
       id="g52"><path
         d="M 0,0 V -1.297 H 4.465 V 15.844 H 0 V 6.336 C 0,3.891 -2.164,2.449 -3.746,2.449 c -1.73,0 -2.738,1.297 -2.738,2.879 v 10.516 h -4.324 V 4.465 c 0,-3.168 2.597,-6.047 6.34,-6.047 2.16,0 3.89,1.008 4.468,1.582"
         inkscape:connector-curvature="0"
         id="path54"
         style="fill:#231f20;fill-rule:evenodd" /></g><g
       transform="translate(229.64,56.758)"
       id="g56"><path
         d="M 0,0 6.91,19.875 H 2.16 L -1.301,9.359 -4.614,19.875 h -4.75 L -3.75,3.602 c 0.433,-1.297 0,-2.594 -2.446,-2.305 l -1.441,0.289 -0.574,-3.891 2.589,-0.289 C -2.309,-3.172 -0.719,-1.875 0,0"
         inkscape:connector-curvature="0"
         id="path58"
         style="fill:#231f20;fill-rule:evenodd" /></g><g
       transform="translate(212.21,67.274)"
       id="g60"><path
         d="m 0,0 v -3.312 c 0,-1.297 -2.449,-1.157 -2.883,-1.157 -0.433,0 -3.023,0 -3.023,2.016 C -5.906,-0.148 -2.738,0 0,0 m 4.465,-3.172 v 8.934 c 0,2.301 -2.305,4.031 -6.914,4.031 -3.746,0 -6.196,-1.582 -7.207,-2.16 L -7.777,4.32 c 1.582,1.008 4.605,1.586 5.902,1.586 C -0.574,5.906 0,4.898 0,4.465 V 3.457 c -1.586,0 -5.332,-0.719 -6.77,-1.152 -1.441,-0.43 -3.75,-1.446 -3.75,-4.899 0,-3.457 3.461,-5.617 7.063,-5.617 2.883,0 3.891,1.727 3.891,1.727 0,0 1.582,-1.871 4.175,-1.871 l 1.727,3.457 C 4.32,-4.469 4.465,-3.746 4.465,-3.172"
         inkscape:connector-curvature="0"
         id="path62"
         style="fill:#231f20;fill-rule:evenodd" /></g><g
       transform="translate(178.07,25.355)"
       id="g64"><path
         d="M 0,0 -0.574,4.031 C -2.593,3.457 -3.601,3.887 -3.601,4.895 V 23.911 H -8.066 V 3.168 c 0,-1.73 1.152,-3.602 4.465,-3.602 C -1.875,-0.434 0,0 0,0"
         inkscape:connector-curvature="0"
         id="path66"
         style="fill:#231f20;fill-rule:evenodd" /></g><g
       transform="translate(165.24,36.59)"
       id="g68"><path
         d="M 0,0 V -11.234 H -4.461 V -0.43 c 0,1.293 -1.008,2.59 -2.886,2.59 -1.872,0 -3.454,-1.726 -3.454,-4.031 v -9.363 h -4.468 V 5.902 h 4.468 V 4.609 c 0,0 1.727,1.727 4.176,1.727 C -2.59,6.336 0,3.168 0,0"
         inkscape:connector-curvature="0"
         id="path70"
         style="fill:#231f20;fill-rule:evenodd" /></g><g
       transform="translate(137.59,39.183)"
       id="g72"><path
         d="m 0,0 c -1.875,0 -3.891,-1.586 -3.891,-5.328 0,-3.75 2.16,-5.477 3.891,-5.477 1.871,0 3.887,1.727 3.887,5.477 C 3.887,-1.586 1.871,0 0,0 m 0,4.031 c -4.035,0 -8.215,-3.457 -8.215,-9.359 0,-5.91 4.035,-9.363 8.215,-9.363 4.32,0 8.355,3.453 8.355,9.363 C 8.355,0.574 4.18,4.031 0,4.031"
         inkscape:connector-curvature="0"
         id="path74"
         style="fill:#231f20;fill-rule:evenodd" /></g><g
       transform="translate(188.73,22.617)"
       id="g76"><path
         d="M 0,0 6.773,20.023 H 2.015 L -1.293,9.508 -4.754,20.023 h -4.61 L -3.747,3.602 C -3.454,2.449 -3.891,1.152 -6.196,1.441 L -7.633,1.586 -8.211,-2.16 -5.618,-2.59 C -2.301,-3.023 -0.719,-1.871 0,0"
         inkscape:connector-curvature="0"
         id="path78"
         style="fill:#231f20;fill-rule:evenodd" /></g><g
       transform="translate(17.145,78.649)"
       id="g80"><path
         d="m 0,0 c 0,2.313 1.871,4.18 4.18,4.18 h 51 c 2.304,0 4.175,-1.875 4.175,-4.18 v -50.989 c 0,-2.304 -1.871,-4.176 -4.175,-4.176 h -51 c -2.309,0 -4.18,1.872 -4.18,4.176 V 0"
         inkscape:connector-curvature="0"
         id="path82"
         style="fill:#0079c1;fill-rule:evenodd" /></g><g
       transform="translate(52.586,67.703)"
       id="g84"><path
         d="M 0,0 H -10.52 V -12.82 H 0 v 0.144 c 2.465,0 4.465,2 4.465,4.465 v 3.746 C 4.465,-2 2.465,0 0,0 M -19.883,7.348 H 4.465 V 7.203 c 5.168,0 9.363,-4.195 9.363,-9.363 v -8.5 c 0,-5.168 -4.195,-9.36 -9.363,-9.36 v -0.144 H -10.52 v -17.579 h -9.363 V 7.348 -20.168"
         inkscape:connector-curvature="0"
         id="path86"
         style="fill:#ffffff;fill-rule:evenodd" /></g></g></svg>