<?xml version="1.0" encoding="UTF-8" standalone="no"?>
<!-- Created with Inkscape (http://www.inkscape.org/) -->
<svg xmlns:dc="http://purl.org/dc/elements/1.1/" xmlns:cc="http://creativecommons.org/ns#" xmlns:rdf="http://www.w3.org/1999/02/22-rdf-syntax-ns#" xmlns:svg="http://www.w3.org/2000/svg" xmlns="http://www.w3.org/2000/svg" xmlns:inkscape="http://www.inkscape.org/namespaces/inkscape" version="1.1" width="508.64999" height="192.3" id="svg2" xml:space="preserve"><defs id="defs19"/><metadata id="metadata8"><rdf:RDF><cc:Work rdf:about=""><dc:format>image/svg+xml</dc:format><dc:type rdf:resource="http://purl.org/dc/dcmitype/StillImage"/></cc:Work></rdf:RDF></metadata><g transform="matrix(1.25,0,0,-1.25,-1.9124,192.41)" id="g10"><path d="M 408.45,29.37 C 408.5,13.22 395.4,0.124 379.29,0.09 H 30.81 C 14.599,0.12418 1.503,13.22 1.53,29.37 v 95.28 c -0.0267,16.13 13.069,29.226 29.28,29.28 h 348.48 c 16.11,-0.054 29.207,-13.15 29.16,-29.28 V 29.37" inkscape:connector-curvature="0" id="path12"/><path d="M 393.33,29.37 C 393.307,21.609 387.012,15.313 379.29,15.33 H 30.81 C 22.988,15.313 16.693,21.609 16.65,29.37 v 95.28 c 0.043,7.741 6.338,14.036 14.16,14.04 h 348.48 c 7.722,-0.004 14.017,-6.299 14.04,-14.04 V 29.37" inkscape:connector-curvature="0" id="path14" style="fill:#ffffff"/><path d="M 93.93,59.97 H 86.85 V 50.25 H 74.97 v 9.72 H 44.13 v 10.56 l 27.72,36.96 h 15 v -36.6 h 7.08 V 59.97" inkscape:connector-curvature="0" id="path16"/><path d="M 57.33,70.89 H 74.97 V 94.77 L 57.33,70.89" inkscape:connector-curvature="0" id="path18" style="fill:#ffffff"/><path d="m 128.49,48.69 c -16.099,-0.01 -24.23,10.397 -24.24,29.64 0.01,20.273 8.466,30.112 24.12,30.12 16.544,-0.008 24.35,-10.66 24.36,-30 -0.01,-19.2 -7.978,-29.77 -24.24,-29.76" inkscape:connector-curvature="0" id="path20"/><path d="m 128.61,97.53 c -8.576,0.016 -12.316,-6.245 -12.36,-18.96 0.044,-11.921 4.028,-18.995 12.36,-18.96 8.336,-0.035 12.158,6.307 12.12,18.96 0.038,12.309 -3.784,18.976 -12.12,18.96" inkscape:connector-curvature="0" id="path22" style="fill:#ffffff"/><path d="m 187.89,48.69 c -16.122,-0.01 -24.253,10.397 -24.24,29.64 -0.013,20.273 8.443,30.112 24.12,30.12 16.521,-0.008 24.327,-10.66 24.36,-30 -0.033,-19.2 -8.001,-29.77 -24.24,-29.76" inkscape:connector-curvature="0" id="path24"/><path d="m 187.89,97.53 c -8.479,0.016 -12.219,-6.245 -12.24,-18.96 0.021,-11.921 4.005,-18.995 12.24,-18.96 8.433,-0.035 12.255,6.307 12.24,18.96 0.015,12.309 -3.807,18.976 -12.24,18.96" inkscape:connector-curvature="0" id="path26" style="fill:#ffffff"/><path d="m 260.37,44.61 c -1.425,-4.143 -4.027,-8.045 -9.6,-8.04 0,0 -2.883,-0.005 -11.28,1.08 l 1.08,9.6 c 1.218,-0.278 4.064,-0.522 5.88,-0.48 1.925,-0.042 3.795,1.015 3.84,3.24 -0.045,0.784 0.036,1.759 -0.36,2.88 l -13.44,38.04 h 10.8 l 9,-24.72 8.88,24.72 h 11.04 L 260.37,44.61" inkscape:connector-curvature="0" id="path28"/><path d="m 281.01,70.53 c -0.006,11.974 5.93,22.3 18,22.32 4.191,-0.02 6.956,-0.589 11.4,-3.48 v 18.24 h 11.04 V 50.25 h -11.04 v 2.52 c -3.631,-3.033 -7.046,-3.521 -11.76,-3.48 -11.385,-0.041 -17.646,8.496 -17.64,21.24" inkscape:connector-curvature="0" id="path30"/><path d="m 301.65,59.13 c 5.698,-0.043 8.788,3.047 8.76,8.64 v 6.48 c 0.028,4.921 -3.306,8.742 -8.52,8.76 -6.494,-0.018 -9.747,-4.978 -9.72,-12 -0.027,-7.37 3.226,-11.923 9.48,-11.88" inkscape:connector-curvature="0" id="path32" style="fill:#ffffff"/><path d="m 346.65,76.29 6.84,-1.08 c 7.285,-0.918 11.594,-5.959 11.64,-12.36 -0.046,-8.316 -6.957,-14.089 -16.8,-14.04 -8.533,-0.049 -14.306,2.065 -19.8,7.56 l 8.16,7.08 c 3.351,-3.387 7.091,-5.339 11.04,-5.28 3.288,-0.059 5.89,1.324 5.88,3.48 0.01,1.665 -1.698,3.291 -5.16,3.96 l -7.08,1.32 c -6.37,1.264 -10.11,6.061 -10.08,11.64 -0.03,8.325 6.393,13.61 16.92,13.56 5.816,0.05 10.695,-0.926 16.44,-6 l -7.08,-7.44 c -2.812,3.326 -5.82,4.383 -9.6,4.44 -3.132,-0.057 -5.327,-1.846 -5.28,-3.84 -0.047,-1.421 0.685,-2.64 3.96,-3" inkscape:connector-curvature="0" id="path34"/></g></svg>