<?xml version="1.0" encoding="UTF-8" standalone="no"?>
<!-- Created with Inkscape (http://www.inkscape.org/) -->

<svg
   xmlns:dc="http://purl.org/dc/elements/1.1/"
   xmlns:cc="http://creativecommons.org/ns#"
   xmlns:rdf="http://www.w3.org/1999/02/22-rdf-syntax-ns#"
   xmlns:svg="http://www.w3.org/2000/svg"
   xmlns="http://www.w3.org/2000/svg"
   xmlns:inkscape="http://www.inkscape.org/namespaces/inkscape"
   version="1.1"
   width="193.78999"
   height="299.09"
   id="svg2"
   xml:space="preserve"><metadata
     id="metadata8"><rdf:RDF><cc:Work
         rdf:about=""><dc:format>image/svg+xml</dc:format><dc:type
           rdf:resource="http://purl.org/dc/dcmitype/StillImage" /></cc:Work></rdf:RDF></metadata><defs
     id="defs6"><clipPath
       id="clipPath18"><path
         d="M 0,2392.8 V 0 H 1550.3 V 2392.8 H 0 z"
         inkscape:connector-curvature="0"
         id="path20" /></clipPath></defs><g
     transform="matrix(1.25,0,0,-1.25,0,299.09)"
     id="g10"><g
       transform="scale(0.1,0.1)"
       id="g12"><g
         id="g14"><g
           clip-path="url(#clipPath18)"
           id="g16"><path
             d="M 1545.3,178.24 C 1545.3,82.559 1467.8,5 1372.1,5 H 178.2 C 82.562,5 5,82.559 5,178.24 v 2036.3 c 0,95.68 77.562,173.24 173.24,173.24 h 1193.8 c 95.68,0 173.24,-77.56 173.24,-173.24 V 178.24"
             inkscape:connector-curvature="0"
             id="path22"
             style="fill:#ffffff" /><path
             d="M 1545.3,178.24 C 1545.3,82.559 1467.8,5 1372.1,5 H 178.2 C 82.562,5 5,82.559 5,178.24 v 2036.3 c 0,95.68 77.562,173.24 173.24,173.24 h 1193.8 c 95.68,0 173.24,-77.56 173.24,-173.24 V 178.24 z"
             inkscape:connector-curvature="0"
             id="path24"
             style="fill:none;stroke:#0079c1;stroke-width:10" /><path
             d="m 1462.2,178.24 c 0,-49.797 -40.35,-90.156 -90.15,-90.156 H 178.25 c -49.797,0 -90.156,40.359 -90.156,90.156 v 2036.3 c 0,49.79 40.359,90.15 90.156,90.15 h 1193.8 c 49.8,0 90.15,-40.36 90.15,-90.15 V 178.24"
             inkscape:connector-curvature="0"
             id="path26"
             style="fill:#0079c1" /><path
             d="M 652.62,1250.8 H 461.16 v 906.78 h 482.48 c 108.51,0 196.5,-87.98 196.5,-196.5 v -160.64 c 0,-108.52 -87.99,-196.49 -196.5,-196.49 H 652.62 V 1250.8"
             inkscape:connector-curvature="0"
             id="path28"
             style="fill:#ffffff" /><path
             d="m 652.62,2008.8 h 211.52 c 50.379,0 91.238,-40.85 91.238,-91.23 v -73.46 c 0,-50.39 -40.859,-91.24 -91.238,-91.24 H 652.62 v 255.93"
             inkscape:connector-curvature="0"
             id="path30"
             style="fill:#0079c1" /><path
             d="m 1081.1,439.81 c 33.13,10.293 37.44,40.062 37.44,40.062 l 35.87,155.33 c 12.35,53.539 -37.28,67.992 -37.28,67.992 l 12.41,179.54 c 5.41,75.219 -50.1,101.28 -74.44,106.89 l -377.58,87.18 c -24.335,5.62 -85.636,6.53 -113.75,-63.44 l -67.56,-166.85 c 0,0 -50.949,8.758 -63.309,-44.781 l -35.86,-155.33 c 0,0 -9.176,-28.632 16.094,-52.41 l -28,-121.26 c 0,0 12.262,-30.168 51.195,-39.161 38.93,-8.988 60.117,14.313 60.117,14.313 l 25.66,111.13 c 0,0 154.02,-44.321 220.94,-59.781 66.918,-15.438 224.77,-43.129 224.77,-43.129 l -25.64,-111.12 c 0,0 8.82,-30.239 47.754,-39.231 3.996,-0.918 7.824,-1.508 11.504,-1.84 h -274.83 v 127.5 h -336.25 v -202.5 h 763.75 v 75 h -138.35 c 23.52,2.211 37.35,14.59 37.35,14.59 l 28,121.27"
             inkscape:connector-curvature="0"
             id="path32"
             style="fill:#ffffff" /><path
             d="m 815.94,815.02 c 47.046,-10.872 184.07,-51.051 221.8,-59.758 47.86,-11.051 49.82,36.34 49.82,36.34 l 4.29,53.699 c 1.57,45.758 -29.97,73.058 -60.74,83.859 -5.33,1.871 -107.68,33.192 -117.42,35.449 l -120.04,27.7 c -9.734,2.261 -115.45,18.971 -121.06,19.631 -32.395,3.78 -72.711,-6.92 -91.356,-48.749 l -19.691,-50.14 c 0,0 -19.004,-43.449 28.852,-54.512 37.718,-8.711 178.5,-32.668 225.54,-43.519"
             inkscape:connector-curvature="0"
             id="path34"
             style="fill:#0079c1" /></g></g></g></g></svg>