<?xml version="1.0" encoding="UTF-8" standalone="no"?>
<!-- Created with Inkscape (http://www.inkscape.org/) -->

<svg
   xmlns:dc="http://purl.org/dc/elements/1.1/"
   xmlns:cc="http://creativecommons.org/ns#"
   xmlns:rdf="http://www.w3.org/1999/02/22-rdf-syntax-ns#"
   xmlns:svg="http://www.w3.org/2000/svg"
   xmlns="http://www.w3.org/2000/svg"
   xmlns:sodipodi="http://sodipodi.sourceforge.net/DTD/sodipodi-0.dtd"
   xmlns:inkscape="http://www.inkscape.org/namespaces/inkscape"
   width="600"
   height="600"
   viewBox="0 0 600 600"
   version="1.1"
   id="svg1250"
   inkscape:version="0.92.4 (5da689c313, 2019-01-14)"
   sodipodi:docname="export.svg">
  <defs
     id="defs1244" />
  <sodipodi:namedview
     id="base"
     pagecolor="#ffffff"
     bordercolor="#666666"
     borderopacity="1.0"
     inkscape:pageopacity="0.0"
     inkscape:pageshadow="2"
     inkscape:zoom="0.35"
     inkscape:cx="151.75829"
     inkscape:cy="118.08349"
     inkscape:document-units="px"
     inkscape:current-layer="layer1"
     showgrid="false"
     units="px"
     inkscape:pagecheckerboard="true"
     borderlayer="false"
     inkscape:window-width="1366"
     inkscape:window-height="705"
     inkscape:window-x="-8"
     inkscape:window-y="-8"
     inkscape:window-maximized="1" />
  <metadata
     id="metadata1247">
    <rdf:RDF>
      <cc:Work
         rdf:about="">
        <dc:format>image/svg+xml</dc:format>
        <dc:type
           rdf:resource="http://purl.org/dc/dcmitype/StillImage" />
        <dc:title></dc:title>
      </cc:Work>
    </rdf:RDF>
  </metadata>
  <g
     inkscape:label="Layer 1"
     inkscape:groupmode="layer"
     id="layer1"
     transform="translate(0,8.83334)">
    <path
       inkscape:connector-curvature="0"
       style="opacity:1;fill:#e31837;fill-opacity:1;stroke:none;stroke-width:0.50232559;stroke-linecap:square;stroke-linejoin:miter;stroke-miterlimit:10;stroke-dasharray:none;stroke-opacity:1"
       d="m 600,291.1667 a 300,300 0 0 1 -300,300 300,300 0 0 1 -300,-300 300,300 0 0 1 300,-300 300,300 0 0 1 300,300 z"
       id="path34390" />
    <path
       style="opacity:1;fill:#ffffff;fill-opacity:1;stroke:none;stroke-width:22;stroke-linecap:square;stroke-linejoin:miter;stroke-miterlimit:4;stroke-dasharray:none;stroke-opacity:1"
       id="path12474"
       sodipodi:type="arc"
       sodipodi:cx="114.22437"
       sodipodi:cy="402.15778"
       sodipodi:rx="225"
       sodipodi:ry="225"
       sodipodi:start="1.0471976"
       sodipodi:end="0"
       d="M 226.72436,597.0135 A 225,225 0 0 1 -44.874659,561.2568 225,225 0 0 1 -80.63134,289.65777 a 225,225 0 0 1 253.09,-104.8333 225,225 0 0 1 166.76571,217.33331 l -225,0 z"
       transform="rotate(-30)" />
    <path
       inkscape:connector-curvature="0"
       style="opacity:1;fill:#e31837;fill-opacity:1;stroke:none;stroke-width:0.45272368;stroke-linecap:square;stroke-linejoin:miter;stroke-miterlimit:10;stroke-dasharray:none;stroke-opacity:1"
       d="m 420.0001,291.1667 a 120,120 0 0 1 -120,120 120,120 0 0 1 -120,-120 120,120 0 0 1 120,-120 120,120 0 0 1 120,120 z"
       id="path34394" />
  </g>
</svg>
