<?xml version="1.0" encoding="UTF-8" standalone="no"?>
<!-- Created with Inkscape (http://www.inkscape.org/) -->

<svg
   xmlns:dc="http://purl.org/dc/elements/1.1/"
   xmlns:cc="http://creativecommons.org/ns#"
   xmlns:rdf="http://www.w3.org/1999/02/22-rdf-syntax-ns#"
   xmlns:svg="http://www.w3.org/2000/svg"
   xmlns="http://www.w3.org/2000/svg"
   xmlns:inkscape="http://www.inkscape.org/namespaces/inkscape"
   version="1.1"
   width="604.34998"
   height="169.66"
   id="svg2"
   xml:space="preserve"><defs
     id="defs19" /><metadata
     id="metadata8"><rdf:RDF><cc:Work
         rdf:about=""><dc:format>image/svg+xml</dc:format><dc:type
           rdf:resource="http://purl.org/dc/dcmitype/StillImage" /></cc:Work></rdf:RDF></metadata><g
     transform="matrix(1.25,0,0,-1.25,-1.5375,170.44)"
     id="g10"><path
       d="M 484.71,25.59 C 484.74,11.775 473.58,0.609 459.75,0.63 H 56.19 C 50.415,0.60861 45.186,0.90539 40.23,3.87 c -4.498,2.6887 -8.2,7.056 -13.2,15.6 H 26.91 C 14.155,41.783 5.063,57.743 4.59,58.59 c -1.7612,2.985 -3.3311,6.138 -3.36,9.96 0.0289,3.722 1.5988,6.875 3.36,9.84 0.4732,0.867 9.565,16.827 22.32,39.12 h 0.12 c 5,8.564 8.702,12.931 13.2,15.6 4.956,2.985 10.185,3.281 15.96,3.24 h 403.56 c 13.825,0.041 24.991,-11.125 24.96,-24.84 V 25.59"
       inkscape:connector-curvature="0"
       id="path12" /><path
       d="M 60.39,81.51 V 48.27 h -6.72 v 33.24 h -10.8 v 6.12 h 28.32 v -6.12 h -10.8"
       inkscape:connector-curvature="0"
       id="path14"
       style="fill:#ffbf00" /><path
       d="m 95.43,89.55 c 12.233,-0.039 18.709,-8.845 18.72,-21 -0.011,-11.99 -6.033,-21.023 -18.84,-21 -11.508,-0.023 -18.61,8.044 -18.6,21 -0.01,11.871 6.467,20.961 18.72,21"
       inkscape:connector-curvature="0"
       id="path16"
       style="fill:#ffbf00" /><path
       d="m 83.55,68.67 c 0.025,-9.497 3.433,-14.951 11.88,-15 8.654,0.049 11.778,5.958 11.76,15 0.018,9.706 -4.356,14.592 -11.88,14.64 C 86.643,83.262 83.575,77.296 83.55,68.67"
       inkscape:connector-curvature="0"
       id="path18" /><path
       d="m 120.15,88.11 h 7.08 l 6.72,-26.28 6,26.28 h 7.8 l 6.48,-26.28 6.24,26.28 h 6.96 l -9.12,-39.84 h -7.56 l -6.84,29.28 -6.6,-29.28 h -7.56 l -9.6,39.84"
       inkscape:connector-curvature="0"
       id="path20"
       style="fill:#ffbf00" /><path
       d="m 176.31,87.75 h 7.32 l 19.56,-28.32 v 28.32 h 6.72 V 48.27 h -7.32 L 182.91,76.59 V 48.27 h -6.6 v 39.48"
       inkscape:connector-curvature="0"
       id="path22"
       style="fill:#ffbf00" /><path
       d="m 265.71,72.27 v 15.48 h 6.6 V 48.27 h -6.6 v 18.12 h -18 V 48.27 h -6.84 v 39.48 h 6.84 V 72.27 h 18"
       inkscape:connector-curvature="0"
       id="path24"
       style="fill:#ffbf00" /><path
       d="m 294.75,87.99 h 8.16 l 13.32,-39.72 h -6.72 l -2.52,7.44 h -16.08 l -2.4,-7.44 h -7.08 l 13.32,39.72"
       inkscape:connector-curvature="0"
       id="path26"
       style="fill:#ffbf00" /><path
       d="m 298.71,79.95 -5.76,-18.6 h 12 l -6.24,18.6"
       inkscape:connector-curvature="0"
       id="path28" /><path
       d="m 347.79,48.27 h -22.32 v 39.6 h 6.96 V 54.39 h 15.36 v -6.12"
       inkscape:connector-curvature="0"
       id="path30"
       style="fill:#ffbf00" /><path
       d="m 378.27,48.27 h -22.32 v 39.6 h 6.96 V 54.39 h 15.36 v -6.12"
       inkscape:connector-curvature="0"
       id="path32"
       style="fill:#ffbf00" /><path
       d="m 421.47,102.39 c -2.584,1.233 -4.369,3.949 -4.32,7.08 -0.049,4.289 3.454,7.792 7.8,7.8 4.295,-0.008 7.798,-3.511 7.8,-7.8 -0.002,-1.826 -0.603,-3.482 -1.68,-4.8 -0.102,-0.205 -1.032,-1.739 0.96,-1.92 2.099,-0.284 8.002,-0.586 11.52,-4.2 7.047,-7.374 11.833,-16.102 13.08,-28.44 0.37,-0.23 1.764,-0.742 1.8,-2.28 -0.036,-1.53 -2.918,-4.83 -6.96,-4.8 -1.04,-0.03 -2.419,0.609 -2.4,2.16 -0.019,0.785 -0.019,1.343 0.24,2.04 0.205,0.604 0.345,2.371 0.36,5.28 -0.015,2.948 -2.897,9.549 -6.96,12.36 0,0 -3.343,-26.561 24.36,-51.48 0,0 -4.353,-7.858 -4.44,-8.16 -0.966,-1.805 -2.845,-2.437 -3.84,-2.64 -0.419,-0.079 -3.464,-0.405 -3.72,-0.48 -0.162,0.029 -1.185,-0.157 -1.2,0.6 0.015,0.73 0.298,0.899 0.6,1.08 0.703,0.393 1.679,0.787 2.16,2.64 0,0 1.206,4.611 1.2,5.16 0,0 -13.196,8.492 -22.92,28.68 0,0 -13.635,-15.702 -19.32,-42.72 l -14.88,6.48 c 0,0 -0.562,0.352 -0.6,0.84 0.038,0.558 0.63,0.802 0.96,0.84 0.437,0.101 8.735,0.938 8.88,0.96 0.064,-0.022 0.482,0.048 0.48,0.48 0.002,5.88 2.36,15.644 4.32,21.12 0.389,1.179 0.808,2.364 1.32,3.12 6.489,10.246 8.768,17.773 5.64,30.12 0,0 -5.978,-13.792 -21.84,-15.24 0,0 -0.49,-0.748 -1.32,-0.72 -2.063,-0.028 -2.726,5.393 -2.76,6 0.034,1.554 1.394,1.624 1.32,1.68 0.353,-0.056 0.911,-0.003 1.44,-0.84 0,0 11.946,3.495 15.36,15.48 1.388,4.82 4.328,9.203 7.68,12 0.499,0.411 1.776,1.662 -0.12,2.52"
       inkscape:connector-curvature="0"
       id="path34"
       style="fill:#ffbf00" /></g></svg>