<?xml version="1.0" encoding="UTF-8" standalone="no"?>
<!-- Created with Inkscape (http://www.inkscape.org/) -->
<svg xmlns:dc="http://purl.org/dc/elements/1.1/" xmlns:cc="http://creativecommons.org/ns#" xmlns:rdf="http://www.w3.org/1999/02/22-rdf-syntax-ns#" xmlns:svg="http://www.w3.org/2000/svg" xmlns="http://www.w3.org/2000/svg" xmlns:sodipodi="http://sodipodi.sourceforge.net/DTD/sodipodi-0.dtd" xmlns:inkscape="http://www.inkscape.org/namespaces/inkscape" version="1.1" width="706.63" height="550.75" id="svg2" xml:space="preserve" inkscape:version="0.48.3.1 r9886" sodipodi:docname="UK traffic sign 651.svg"><sodipodi:namedview pagecolor="#ffffff" bordercolor="#666666" borderopacity="1" objecttolerance="10" gridtolerance="10" guidetolerance="10" inkscape:pageopacity="0" inkscape:pageshadow="2" inkscape:window-width="753" inkscape:window-height="480" id="namedview109" showgrid="false" inkscape:zoom="0.41322899" inkscape:cx="779.22898" inkscape:cy="275.375" inkscape:window-x="589" inkscape:window-y="181" inkscape:window-maximized="0" inkscape:current-layer="svg2"/><defs id="defs110"/><metadata id="metadata8"><rdf:RDF><cc:Work rdf:about=""><dc:format>image/svg+xml</dc:format><dc:type rdf:resource="http://purl.org/dc/dcmitype/StillImage"/></cc:Work></rdf:RDF></metadata><path d="m 706.619,527.885 c 0.0337,12.64875 -10.1975,22.88 -22.875,22.875 H 22.869 C 10.254,550.765 0.02275,540.53375 -0.006,527.885 v -505 C 0.022375,10.29875 10.25375,0.0675 22.869,0.01 h 660.875 c 12.6775,0.0575 22.90875,10.28875 22.875,22.875 v 505" inkscape:connector-curvature="0" id="path14"/><path d="m 694.744,527.885 c 0.0425,6.09625 -4.875,11.01375 -11,11 H 22.869 c -6.0615,0.0137 -10.98,-4.90375 -11,-11 v -505 c 0.02,-6.03375 4.9385,-10.95125 11,-11 h 660.875 c 6.125,0.04875 11.0425,4.96625 11,11 v 505" inkscape:connector-curvature="0" id="path16" style="fill:#ffffff"/><path d="m 141.994,35.26 c 49.0425,-0.0125 88.82375,39.76875 88.875,88.875 -0.0513,49.03625 -39.8325,88.81625 -88.875,88.875 -49.09875,-0.0588 -88.88,-39.83875 -88.875,-88.875 -0.0054,-49.10625 39.77625,-88.8875 88.875,-88.875" inkscape:connector-curvature="0" id="path18" style="fill:#ec1d24;fill-opacity:1"/><path d="m 141.994,52.885 c 39.26875,0.06 71.1275,31.9175 71.125,71.25 0.002,39.2625 -31.85625,71.12 -71.125,71.125 -39.32625,-0.005 -71.18375,-31.8625 -71.125,-71.125 -0.05863,-39.3325 31.79875,-71.19 71.125,-71.25" inkscape:connector-curvature="0" id="path20" style="fill:#ffffff"/><path d="m 176.619,85.01 c 5.37375,2.2425 9.1475,7.56875 9.125,13.75 h -2.375 c 0.0563,7.0075 -5.605,12.6675 -12.625,12.625 -4.70875,0.0425 -8.845,-2.57375 -11,-6.5 h -22 c 0,0 -6.1,0.4275 -6.125,-6.125 0.025,-4.32125 -1.95875,-8.205 -5.125,-10.75 l -0.625,1.125 c 2.70625,2.3325 4.43625,5.79 4.375,9.625 0.0613,7.0075 -5.59875,12.6675 -12.625,12.625 -6.93875,0.0425 -12.6,-5.6175 -12.625,-12.625 0.025,-6.9575 5.68625,-12.61875 12.625,-12.625 1.615,0.0062 3.12,0.29375 4.5,0.875 l 0.75,-1.25 c -1.64625,-0.6075 -3.38625,-0.95625 -5.25,-1 -0.10125,0.04375 -0.24625,0.04625 -0.375,0 v -5.125 h 3.125 c 0,0 5.9275,0.27125 9.25,-5.375 1.00375,-1.79 5.375,-8.875 5.375,-8.875 0,0 0.30375,-0.44625 0.625,-0.375 0.31,0.18125 0.27,0.49 0.25,0.625 -0.10625,0.24375 -2.5,11.125 -2.5,11.125 -0.05,0.43125 -0.28625,1.4725 0.5,2 0.8225,0.46625 1.62625,-0.19625 1.875,-0.375 l 3.625,-2.875 3.375,-5.875 c 0,0 0.31875,-0.72125 0,-0.75 -0.76875,0.02875 -3.11,-0.08875 -3.125,-2.75 V 63.01 h -1.125 c 0.0387,-0.10875 0.0313,-0.25875 0,-0.375 0.0313,-2.71375 2.20375,-4.88625 4.875,-4.875 2.685,-0.01125 4.85625,2.16125 4.875,4.875 -0.0188,1.04875 -0.375,2.05125 -1,2.875 v 1.875 h 1 l 6.125,2.625 6,6.5 c 0,0 1.75625,1.29625 1.75,4.75 h 11.75 c 0,0 2.745,-0.1075 2.75,3.75" inkscape:connector-curvature="0" id="path22"/><path d="m 123.244,93.635 c 1.20625,1.34375 1.9775,3.15625 2,5.125 -0.0225,4.2 -3.40625,7.58375 -7.625,7.625 -4.13125,-0.0413 -7.51625,-3.425 -7.5,-7.625 -0.0162,-4.15 3.36875,-7.53375 7.5,-7.5 0.66,-0.03375 1.25875,0.04 1.875,0.125 l -1.5,2.625 c -0.1475,-0.03875 -0.23875,-0.04125 -0.375,0 -2.61625,-0.04125 -4.7725,2.115 -4.75,4.75 -0.0225,2.685 2.13375,4.84125 4.75,4.875 2.70375,-0.0338 4.86,-2.19 4.875,-4.875 -0.015,-0.94875 -0.30375,-1.85625 -0.75,-2.625 l 1.5,-2.5" inkscape:connector-curvature="0" id="path24" style="fill:#ffffff"/><path d="m 170.244,91.26 c 0.18125,-0.0275 0.35875,-0.03375 0.5,0 4.2125,-0.03375 7.5975,3.35 7.625,7.5 -0.0275,4.2 -3.4125,7.58375 -7.625,7.625 -4.13625,-0.0413 -7.52125,-3.425 -7.5,-7.625 -0.0213,-2.41875 1.13875,-4.59125 2.875,-6 l 1.125,2.75 c -0.8075,0.9 -1.27875,2.0325 -1.25,3.25 -0.0288,2.685 2.1275,4.84125 4.75,4.875 2.69875,-0.0338 4.855,-2.19 4.875,-4.875 -0.02,-2.46875 -1.91625,-4.52 -4.375,-4.75 l -1,-2.75" inkscape:connector-curvature="0" id="path26" style="fill:#ffffff"/><path d="m 158.369,96.26 c 0.435,-2.76 2.1025,-5.0175 4,-6.875 0.23625,-0.275 0.35625,-1.05375 -0.125,-1 -0.59125,-0.05375 -4.875,0 -4.875,0 v 7.875 c 0,0 -0.0362,0.64875 0.375,0.625 0.535,0.02375 0.62875,-0.49375 0.625,-0.625" inkscape:connector-curvature="0" id="path28" style="fill:#ffffff"/><path d="m 148.744,81.385 c 0,0 -2.3225,-1.02375 -3.25,-4.125 l -10.125,6 10.125,3.25 3.25,-5.125" inkscape:connector-curvature="0" id="path30" style="fill:#ffffff"/><path d="m 142.244,170.385 c 6.82125,0.035 22.625,-0.75 22.625,-0.75 v 11.25 c 0,0 1.56375,2.69875 5.5,2.75 3.97375,-0.0512 5.875,-2.75 5.875,-2.75 v -12.25 c 2.92,-1.73875 2.625,-4.75 2.625,-4.75 v -15.75 c 0.0475,-5.42375 -5,-5.75 -5,-5.75 l -2.875,-17.5 c -1.1425,-7.43 -7.075,-8.7075 -9.5,-8.75 h -38.375 c -2.5025,0.0425 -8.43625,1.32 -9.625,8.75 l -2.75,17.5 c 0,0 -5.125,0.32625 -5.125,5.75 v 15.75 c 0,0 -0.2475,3.01125 2.75,4.75 v 12.25 c 0,0 1.82375,2.69875 5.75,2.75 3.98375,-0.0512 5.5,-2.75 5.5,-2.75 v -11.25 c 0,0 15.85,0.785 22.625,0.75" inkscape:connector-curvature="0" id="path32"/><path d="m 114.994,146.135 c 2.89375,-0.0137 5.245,2.33875 5.25,5.25 -0.005,2.89 -2.35625,5.24125 -5.25,5.25 -2.90875,-0.009 -5.26,-2.36 -5.25,-5.25 -0.01,-2.91125 2.34125,-5.26375 5.25,-5.25" inkscape:connector-curvature="0" id="path34" style="fill:#ffffff"/><path d="m 142.244,138.385 c 4.8025,-0.0412 18.915,0.78375 22.75,0.75 4.8575,0.0337 4,-4.625 4,-4.625 l -0.75,-5.25 c -0.90625,-4.43 -4.5575,-6.36 -7.75,-6.75 -0.57125,-0.0288 -11.14,-0.77 -12.125,-0.75 h -12.25 c -0.93875,-0.02 -11.50625,0.72125 -12.125,0.75 -3.14625,0.39 -6.79625,2.32 -7.625,6.75 l -0.875,5.25 c 0,0 -0.81125,4.65875 4,4.625 3.8825,0.0337 17.99375,-0.79125 22.75,-0.75" inkscape:connector-curvature="0" id="path36" style="fill:#ffffff"/><path d="m 142.244,150.635 c 2.0425,0.0288 16.525,0.23375 18.75,0.5 v 2.625 h -37.5 v -2.625 c 2.2725,-0.26625 16.755,-0.47125 18.75,-0.5" inkscape:connector-curvature="0" id="path38" style="fill:#ffffff"/><path d="m 142.244,165.26 c 2.0425,0.035 16.525,-0.17125 18.75,-0.5 v -2.5 h -37.5 v 2.5 c 2.2725,0.32875 16.755,0.535 18.75,0.5" inkscape:connector-curvature="0" id="path40" style="fill:#ffffff"/><path d="m 123.494,159.385 h 37.625 v -3 h -37.625 v 3 z" inkscape:connector-curvature="0" id="path42" style="fill:#ffffff"/><path d="m 169.494,146.135 c -2.84625,-0.0137 -5.19875,2.33875 -5.25,5.25 0.0513,2.89 2.40375,5.24125 5.25,5.25 2.955,-0.009 5.30625,-2.36 5.25,-5.25 0.0563,-2.91125 -2.295,-5.26375 -5.25,-5.25" inkscape:connector-curvature="0" id="path44" style="fill:#ffffff"/><path d="m 567.619,35.26 c 49.0425,-0.0125 88.82375,39.76875 88.875,88.875 -0.0512,49.03625 -39.8325,88.81625 -88.875,88.875 -49.09875,-0.0588 -88.88,-39.83875 -88.875,-88.875 -0.005,-49.10625 39.77625,-88.8875 88.875,-88.875" inkscape:connector-curvature="0" id="path46" style="fill:#ec1d24;fill-opacity:1"/><path d="m 567.619,52.885 c 39.26875,0.06 71.1275,31.9175 71.125,71.25 0.002,39.2625 -31.85625,71.12 -71.125,71.125 -39.32625,-0.005 -71.18375,-31.8625 -71.125,-71.125 -0.0588,-39.3325 31.79875,-71.19 71.125,-71.25" inkscape:connector-curvature="0" id="path48" style="fill:#ffffff"/><path d="m 577.994,87.51 c 2.735,-1.22375 4.58875,-4.045 4.625,-7.25 -0.0362,-4.50125 -3.67375,-8.13875 -8.125,-8.125 -4.5225,-0.01375 -8.16125,3.62375 -8.125,8.125 -0.0362,1.84875 0.5875,3.57 1.625,4.875 0.1875,0.27625 1.15375,1.87 -1,2.125 -2.095,0.2275 -8.22625,0.54125 -11.875,4.25 -7.32375,7.7025 -12.295,16.7675 -13.5,29.625 -0.47375,0.19625 -1.92125,0.7275 -1.875,2.375 -0.0462,1.53875 2.94625,4.96625 7.25,5 0.975,-0.0337 2.4075,-0.6975 2.375,-2.25 0.0325,-0.87375 0.0325,-1.45375 -0.25,-2.125 -0.20125,-0.68 -0.345,-2.515 -0.375,-5.5 0.03,-3.0975 3.0225,-9.95375 7.25,-12.875 0,0 3.46375,27.5875 -25.25,53.5 0,0 4.46375,8.12875 4.625,8.375 0.9325,1.9425 2.88375,2.59875 3.875,2.75 0.4775,0.1425 3.64,0.48 3.875,0.5 0.19875,0.0288 1.26125,0.22125 1.25,-0.5 0.0113,-0.82375 -0.28375,-0.99875 -0.625,-1.125 -0.70125,-0.47 -1.715,-0.87875 -2.25,-2.875 0,0 -1.2175,-4.71625 -1.25,-5.375 0,0 13.74375,-8.7325 23.75,-29.75 0,0 14.25375,16.35875 20.125,44.5 l 15.5,-6.875 c 0,0 0.57125,-0.30125 0.625,-0.875 -0.0538,-0.5125 -0.66875,-0.76625 -1.125,-0.875 -0.34,-0.0362 -8.9575,-0.905 -9.125,-0.875 -0.05,-0.03 -0.485,-0.1025 -0.5,-0.5 0.015,-6.15875 -2.43375,-16.29875 -4.5,-22 -0.3725,-1.21 -0.8075,-2.44125 -1.375,-3.25 -6.70375,-10.6175 -9.07125,-18.435 -5.75,-31.25 0,0 6.13625,14.31625 22.625,15.875 0,0 0.49375,0.7225 1.375,0.75 2.12375,-0.0275 2.81125,-5.65875 2.75,-6.25 0.0612,-1.65375 -1.35,-1.72625 -1.375,-1.75 -0.265,0.0237 -0.845,-0.03 -1.375,0.875 0,0 -12.42625,-3.66625 -16,-16.125 -1.4125,-4.99375 -4.4675,-9.54625 -7.875,-12.375 -0.59125,-0.50375 -1.9175,-1.8025 0,-2.75" inkscape:connector-curvature="0" id="path50"/><path d="m 355.494,35.26 c 49.0975,-0.0125 88.8775,39.76875 88.875,88.875 0.002,49.03625 -39.7775,88.81625 -88.875,88.875 -49.045,-0.0588 -88.82625,-39.83875 -88.875,-88.875 0.0487,-49.10625 39.83,-88.8875 88.875,-88.875" inkscape:connector-curvature="0" id="path52" style="fill:#ec1d24;fill-opacity:1"/><path d="m 355.494,52.885 c 39.32375,0.06 71.18125,31.9175 71.125,71.25 0.0562,39.2625 -31.80125,71.12 -71.125,71.125 -39.27125,-0.005 -71.12875,-31.8625 -71.125,-71.125 -0.004,-39.3325 31.85375,-71.19 71.125,-71.25" inkscape:connector-curvature="0" id="path54" style="fill:#ffffff"/><path d="m 396.744,117.76 c -3.05625,-0.0375 -5.96125,0.56875 -8.625,1.625 l -8.875,-15.375 1.75,-4.625 c 4.3925,-0.4025 5.98375,-4.455 6,-5.125 -0.0163,-0.705 -0.875,-0.75 -0.875,-0.75 h -19.125 c -0.38125,0.045 -1.78875,0.405 -1.75,1.875 -0.0388,1.5425 1.625,1.75 1.625,1.75 l 8.375,1.875 -2.125,5.625 h -40.625 c 0.545,-1.89 0.875,-3 0.875,-3 0,0 0.33,-1.1825 0.375,-1.625 -0.045,-2.31375 -1.73375,-4.01375 -2.5,-4.375 -0.0888,-0.1 -0.5625,-0.3125 -0.625,-1 0.0625,-0.58875 0.4325,-1.12375 1.25,-1.125 h 8.5 v -5.625 h -10.625 c 0,0 -5.65,0.51875 -5.625,6.25 -0.025,3.33 1.635,4.09125 3,4.875 0.38125,0.26375 0.77375,1.355 0.625,2 -0.1275,0.3225 -2.72875,10.08 -4.875,18.125 -2.44375,-0.90625 -5.08875,-1.4125 -7.875,-1.375 -12.25375,-0.0375 -22.20375,9.91375 -22.25,22.25 0.0462,12.2125 9.99625,22.1625 22.25,22.125 12.295,0.0375 22.245,-9.9125 22.25,-22.125 -0.005,-7.525 -3.6825,-14.1275 -9.375,-18.125 0.2925,-0.935 0.54,-1.855 0.75,-2.75 l 25.875,18 c -0.30875,0.88875 -0.46125,1.8325 -0.5,2.875 0.0387,5.0775 4.205,9.24375 9.375,9.25 0.89,-0.006 1.7775,-0.14 2.625,-0.375 l 1.375,3 h -2.375 v 3 h 2.625 c 0.44875,0.6625 1.185,1.1 2,1.125 0.86125,-0.025 1.59625,-0.4625 2,-1.125 h 2.625 v -3 h -3.875 l -2,-4.125 c 2.035,-1.30375 3.505,-3.35125 4,-5.75 h 2.125 c 1.1175,11.30875 10.68375,20.1625 22.25,20.125 12.26375,0.0375 22.215,-9.9125 22.25,-22.125 -0.035,-12.33625 -9.98625,-22.2875 -22.25,-22.25" inkscape:connector-curvature="0" id="path56"/><path d="m 363.369,134.135 c 3.1925,-0.0212 5.80375,2.59 5.75,5.875 0.0537,3.16 -2.5575,5.77125 -5.75,5.75 -3.2525,0.0213 -5.86375,-2.59 -5.875,-5.75 0.0112,-3.285 2.6225,-5.89625 5.875,-5.875" inkscape:connector-curvature="0" id="path58" style="fill:#ffffff"/><path d="m 363.744,130.635 c -0.16125,0.009 -0.2825,0.006 -0.375,0 -1,0.006 -1.93625,0.155 -2.875,0.375 l -1.375,-2.875 h 2.625 v -3 h -2.625 c -0.42625,-0.6775 -1.1625,-1.11625 -2,-1.125 -0.83875,0.009 -1.57375,0.4475 -2,1.125 h -2.625 v 3 h 4 l 1.75,4 c -0.16875,0.1325 -0.38,0.28375 -0.625,0.5 l -27.375,-19.25 c 0.24,-1.10375 0.5275,-2.17625 0.75,-3.25 h 40.125 l -7.375,20.5" inkscape:connector-curvature="0" id="path60" style="fill:#ffffff"/><path d="m 383.244,122.26 -6.5,-11.375 -7.75,21.625 c 1.69125,1.32375 2.95375,3.23625 3.375,5.5 h 2.25 c 0.55125,-6.46375 3.8375,-12.085 8.625,-15.75" inkscape:connector-curvature="0" id="path62" style="fill:#ffffff"/><path d="m 386.619,128.01 c -2.94625,2.515 -4.97875,5.98 -5.5,10 h 11.125 l -5.625,-10" inkscape:connector-curvature="0" id="path64" style="fill:#ffffff"/><path d="m 391.494,125.26 7.75,13.5 c 0,0 0.355,0.59875 0.375,1.25 -0.02,2 -2.05,2 -3,2 h -15.375 c 0.99125,7.695 7.5425,13.63375 15.5,13.625 8.65875,0.009 15.68625,-7.01875 15.625,-15.625 0.0612,-8.73125 -6.96625,-15.75875 -15.625,-15.75 -1.88875,-0.009 -3.6275,0.38 -5.25,1" inkscape:connector-curvature="0" id="path66" style="fill:#ffffff"/><path d="m 326.119,128.76 c -0.81625,2.8625 -1.34125,4.8175 -1.375,5.125 -1.75375,6.335 -8.30375,8.3 -9.625,8.25 -1.4575,0.05 -2.33,-0.91125 -2.375,-2.25 0.045,-1.3675 1.13625,-1.76 1.5,-2.125 5.005,-3.82625 5.75,-8 5.75,-8 0,0 0.49375,-1.67625 1.125,-4.25 -1.835,-0.81125 -3.9175,-1.25875 -6.125,-1.25 -8.6475,-0.009 -15.675,7.01875 -15.625,15.75 -0.05,8.60625 6.9775,15.63375 15.625,15.625 8.69,0.009 15.71625,-7.01875 15.75,-15.625 -0.0338,-4.42375 -1.8125,-8.36875 -4.625,-11.25" inkscape:connector-curvature="0" id="path68" style="fill:#ffffff"/><path d="m 41.12525,239.76 h 10.875 l 22.625,33.125 V 239.76 h 10 v 49.5 h -11 l -22.625,-33.25 v 33.25 h -9.875 v -49.5" inkscape:connector-curvature="0" id="path70"/><path d="m 94.37525,271.885 c 0.03613,-14.46375 8.47375,-19.7375 16.875,-19.75 7.70125,0.0125 17.26375,5.28625 17.25,19.75 0.0138,10.5675 -6.9475,18.58375 -16.75,18.625 -10.72875,-0.0412 -17.33875,-7.42375 -17.375,-18.625" inkscape:connector-curvature="0" id="path72"/><path d="m 118.869,271.885 c 0.006,-8.4175 -2.8775,-11.01875 -7.125,-11 -5.315,-0.0188 -7.495,4.34125 -7.5,11 0.005,5.71625 2.8175,10.07625 7.5,10.125 4.67,-0.0487 7.13125,-4.40875 7.125,-10.125" inkscape:connector-curvature="0" id="path74" style="fill:#ffffff"/><path d="m 196.619,261.76 c -4.08875,-0.05 -6.05875,2.97375 -6,6.75 v 20.75 h -9.875 v -20.5 c 0.0425,-4.8 -1.855,-7.05 -5,-7 -3.81625,-0.05 -6.2075,3.185 -6.25,6.75 v 20.75 h -9.375 v -35.625 h 9.375 v 2.625 c 2.99625,-2.63625 4.965,-3.62 8.25,-3.625 4.52,0.005 5.99625,0.6375 9.625,4.5 3.75375,-3.7925 6.42625,-4.63625 10.375,-4.625 7.72375,-0.0112 13.41875,7.02 13.375,14.5 v 22.25 h -9.5 v -20.5 c -0.0188,-4.8 -1.9175,-7.05 -5,-7" inkscape:connector-curvature="0" id="path76"/><path d="m 219.119,271.885 c -0.0538,-14.46375 8.38375,-19.7375 16.875,-19.75 7.61125,0.0125 17.17375,5.28625 17.125,19.75 0.0488,10.5675 -6.91125,18.58375 -16.625,18.625 -10.81875,-0.0412 -17.42875,-7.42375 -17.375,-18.625" inkscape:connector-curvature="0" id="path78"/><path d="m 243.494,271.885 c 0.0412,-8.4175 -2.84125,-11.01875 -7,-11 -5.40375,-0.0188 -7.585,4.34125 -7.625,11 0.04,5.71625 2.8525,10.07625 7.625,10.125 4.58,-0.0487 7.04125,-4.40875 7,-10.125" inkscape:connector-curvature="0" id="path80" style="fill:#ffffff"/><path d="m 264.744,261.76 h -5.625 v -8.125 h 5.625 v -11.25 l 9.75,-2.625 v 13.875 h 9.125 v 8.125 h -8.875 v 16 c -0.025,3.63875 1.31125,3.99 2.75,4 1.37375,-0.01 2.42875,-0.2925 5.25,-0.875 l 2.125,8 c -4.38375,1.16125 -8.3925,1.58375 -11,1.625 -3.36875,-0.0412 -9.06375,-1.79875 -9.125,-8.5 v -20.25" inkscape:connector-curvature="0" id="path82"/><path d="m 289.119,271.885 c -0.0325,-14.46375 8.405,-19.7375 16.875,-19.75 7.6325,0.0125 17.195,5.28625 17.25,19.75 -0.055,10.5675 -7.01625,18.58375 -16.75,18.625 -10.79875,-0.0412 -17.4075,-7.42375 -17.375,-18.625" inkscape:connector-curvature="0" id="path84"/><path d="m 313.494,271.885 c 0.0625,-8.4175 -2.82125,-11.01875 -7,-11 -5.38375,-0.0188 -7.56375,4.34125 -7.625,11 0.0612,5.71625 2.87375,10.07625 7.625,10.125 4.6,-0.0487 7.0625,-4.40875 7,-10.125" inkscape:connector-curvature="0" id="path86" style="fill:#ffffff"/><path d="m 341.369,257.01 c 2.105,-2.75375 5.69125,-4.08875 9.375,-4.125 0.465,0.0362 0.88625,0.0362 1.75,0.125 v 9.25 c -3.11375,0.0825 -4,0.125 -4,0.125 -4.03625,0.0987 -7.34,2.91125 -7.375,8.625 v 18.25 h -9.5 v -35.875 h 9.5 l 0.25,3.625" inkscape:connector-curvature="0" id="path88"/><path d="m 398.744,275.885 7.375,-22.25 h 9.75 l -11.875,35.625 h -10.75 l -12.375,-35.625 h 10.375 l 7.5,22.25" inkscape:connector-curvature="0" id="path90"/><path d="m 446.494,277.885 5.625,6.125 c -4.54125,4.20875 -7.565,5.96625 -14,6 -11.07375,-0.0337 -17.82375,-8.19 -17.875,-19.125 0.0512,-9.6675 6.31,-18.175 16,-18.125 10.42,-0.05 16.88875,7.755 16.875,19.375 v 2.5 h -23.5 c 0.23875,4.09125 3.96625,7.045 8.625,7 2.72375,0.045 4.20125,-0.3775 8.25,-3.75" inkscape:connector-curvature="0" id="path92"/><path d="m 429.619,267.385 h 14.5 c -0.2675,-3.495 -3.78375,-6.65875 -7.25,-6.625 -3.63625,-0.0337 -6.65875,2.77875 -7.25,6.625" inkscape:connector-curvature="0" id="path94" style="fill:#ffffff"/><path d="m 479.744,252.76 c 7.36,-0.05 13.5475,6.41875 13.5,14.875 v 21.625 h -9.625 v -21.875 c 0.04,-3.70625 -1.93,-5.745 -6.125,-5.75 -4.45375,0.005 -6.70375,3.52 -6.75,7.5 v 20.125 h -9.5 v -49.75 h 9.5 v 16.5 c 3.84375,-2.8075 5.8825,-3.3 9,-3.25" inkscape:connector-curvature="0" id="path96"/><path d="m 502.994,289.26 h 9.375 v -35.875 h -9.375 v 35.875 z" inkscape:connector-curvature="0" id="path98"/><path d="m 502.244,244.51 c -0.0188,-2.98 2.37125,-5.51125 5.375,-5.5 3.04375,-0.0112 5.43375,2.52 5.375,5.5 0.0587,2.99625 -2.33125,5.4575 -5.375,5.5 -3.00375,-0.0425 -5.39375,-2.50375 -5.375,-5.5" inkscape:connector-curvature="0" id="path100"/><path d="m 520.244,271.885 c 0.06,-11.23 5.89625,-19.245 17.375,-19.25 6.7325,0.005 13.4125,4.43375 15.875,11.625 l -9.125,3.5 c -1.2125,-3.94 -3.60375,-6.5425 -7.25,-6.5 -4.9325,-0.0425 -6.90125,4.73875 -6.875,10.625 -0.0263,6.1375 1.8025,10.21625 7,10.25 3.59125,-0.0337 5.49,-2.0025 7.125,-6.5 l 9.375,3.5 c -3.135,7.95875 -7.98625,11.40375 -16.375,11.375 -11.22875,0.0288 -17.065,-7.35375 -17.125,-18.625" inkscape:connector-curvature="0" id="path102"/><path d="m 560.869,239.385 h 9.375 v 36.5 c -0.003,3.82625 0.63,4.73875 2.625,4.875 1.23875,0.0763 2.22375,0.005 3.5,-0.375 l 1,8.375 c -3.33125,0.795 -6.495,1.3575 -8.75,1.375 -2.31625,-0.0175 -7.8,-0.79125 -7.75,-9.125 v -41.625" inkscape:connector-curvature="0" id="path104"/><path d="m 607.619,277.885 5.75,6.125 c -4.60125,4.20875 -7.625,5.96625 -14.125,6 -11.00875,-0.0337 -17.75875,-8.19 -17.75,-19.125 -0.009,-9.6675 6.25,-18.175 15.875,-18.125 10.48375,-0.05 16.95375,7.755 17,19.375 v 2.5 h -23.5 c 0.17875,4.09125 3.90625,7.045 8.625,7 2.66375,0.045 4.14125,-0.3775 8.125,-3.75" inkscape:connector-curvature="0" id="path106"/><path d="m 590.869,267.385 h 14.375 c -0.20375,-3.495 -3.71875,-6.65875 -7.25,-6.625 -3.57125,-0.0337 -6.59375,2.77875 -7.125,6.625" inkscape:connector-curvature="0" id="path108" style="fill:#ffffff"/><path d="m 634.744,266.76 5.875,0.75 c 6.26875,0.88 9.995,5.23875 10,10.75 -0.005,7.21625 -5.98125,12.20875 -14.5,12.25 -7.3725,-0.0412 -12.365,-1.87 -17.125,-6.625 l 7.125,-6.125 c 2.83875,2.935 6.0725,4.6225 9.5,4.625 2.83,-0.002 5.08125,-1.19875 5.125,-3 -0.0438,-1.5025 -1.52,-2.90875 -4.5,-3.5 l -6.125,-1.125 c -5.52125,-1.09625 -8.75625,-5.245 -8.75,-10.125 -0.006,-7.14375 5.54875,-11.71375 14.75,-11.75 4.9325,0.0362 9.15125,0.88 14.125,5.25 l -6.125,6.5 c -2.435,-2.925 -5.03625,-3.83875 -8.25,-3.875 -2.76375,0.0362 -4.66125,1.5825 -4.625,3.375 -0.0362,1.16125 0.59625,2.21625 3.5,2.625" inkscape:connector-curvature="0" id="path110"/><path d="m 661.494,287.26 c -2.62625,-0.0263 -4.0325,-2.205 -4,-4.5 -0.0325,-2.6275 2.1475,-4.52625 5.25,-4.5 2.38125,-0.0263 4.98375,1.52 5,5 0,0 -0.0163,8.1925 -8.625,10.125 l -1,-2.125 c 6.0925,-1.77625 5.5,-3.5 5.5,-3.5 -0.32125,-0.73625 -0.6725,-0.59625 -2.125,-0.5" inkscape:connector-curvature="0" id="path112"/><path d="m 87.37525,343.135 c 0.04788,-11.23 5.88375,-19.245 17.375,-19.25 6.72,0.005 13.4,4.43375 15.875,11.625 l -9.125,3.5 c -1.225,-3.94 -3.61625,-6.5425 -7.25,-6.5 -4.94375,-0.0425 -6.913125,4.73875 -6.875,10.625 -0.03812,6.1375 1.79,10.21625 7,10.25 3.58,-0.0337 5.4775,-2.0025 7.125,-6.5 l 9.375,3.5 c -3.1475,7.95875 -7.99875,11.40375 -16.375,11.375 -11.24125,0.0288 -17.0775,-7.35375 -17.125,-18.625" inkscape:connector-curvature="0" id="path114"/><path d="m 144.744,365.26 c -1.2025,3.63125 -3.4525,7.00625 -8.25,7 0,0 -2.515,0.006 -9.75,-0.875 l 0.875,-8.375 c 1.08625,0.255 3.5475,0.46625 5.125,0.5 1.65625,-0.0337 3.27375,-0.9475 3.25,-2.875 0.0238,-0.67375 0.0937,-1.5175 -0.25,-2.5 L 124.119,325.26 h 9.375 l 7.75,21.375 7.625,-21.375 h 9.625 l -13.75,40" inkscape:connector-curvature="0" id="path116"/><path d="m 162.869,343.135 c 0.0275,-11.23 5.86375,-19.245 17.375,-19.25 6.7,0.005 13.38,4.43375 15.875,11.625 l -9.125,3.5 c -1.245,-3.94 -3.63625,-6.5425 -7.25,-6.5 -4.965,-0.0425 -6.93375,4.73875 -6.875,10.625 -0.0588,6.1375 1.77,10.21625 7,10.25 3.55875,-0.0337 5.4575,-2.0025 7.125,-6.5 l 9.375,3.5 c -3.1675,7.95875 -8.01875,11.40375 -16.375,11.375 -11.26125,0.0288 -17.0975,-7.35375 -17.125,-18.625" inkscape:connector-curvature="0" id="path118"/><path d="m 203.369,310.635 h 9.5 v 36.5 c -0.0362,3.82625 0.5975,4.73875 2.625,4.875 1.20625,0.0763 2.19125,0.005 3.5,-0.375 l 1,8.375 c -3.36375,0.795 -6.5275,1.3575 -8.75,1.375 -2.34875,-0.0175 -7.8325,-0.79125 -7.875,-9.125 v -41.625" inkscape:connector-curvature="0" id="path120"/><path d="m 250.244,349.135 5.625,6.125 c -4.50875,4.20875 -7.5325,5.96625 -14,6 -11.04125,-0.0337 -17.79125,-8.19 -17.75,-19.125 -0.0412,-9.6675 6.21625,-18.175 15.875,-18.125 10.45125,-0.05 16.92125,7.755 16.875,19.375 v 2.5 h -23.5 c 0.27125,4.09125 3.9975,7.045 8.75,7 2.63125,0.045 4.1075,-0.3775 8.125,-3.75" inkscape:connector-curvature="0" id="path122"/><path d="m 233.369,338.635 h 14.5 c -0.23625,-3.495 -3.75125,-6.65875 -7.25,-6.625 -3.6025,-0.0337 -6.6275,2.77875 -7.25,6.625" inkscape:connector-curvature="0" id="path124" style="fill:#ffffff"/><path d="m 277.369,338.01 5.875,0.75 c 6.23625,0.88 9.9625,5.23875 10,10.75 -0.0375,7.21625 -6.01375,12.20875 -14.5,12.25 -7.405,-0.0412 -12.3975,-1.87 -17.125,-6.625 l 7,-6.125 c 2.93125,2.935 6.165,4.6225 9.625,4.625 2.79875,-0.002 5.04875,-1.19875 5,-3 0.0487,-1.5025 -1.42875,-2.90875 -4.375,-3.5 l -6.25,-1.125 c -5.42875,-1.09625 -8.6625,-5.245 -8.625,-10.125 -0.0375,-7.14375 5.51625,-11.71375 14.625,-11.75 5.025,0.0362 9.24375,0.88 14.125,5.25 l -6,6.5 c -2.4675,-2.925 -5.06875,-3.83875 -8.25,-3.875 -2.79625,0.0362 -4.69375,1.5825 -4.75,3.375 0.0562,1.16125 0.68875,2.21625 3.625,2.625" inkscape:connector-curvature="0" id="path126"/><path d="m 304.119,358.51 c -2.65875,-0.0263 -4.065,-2.205 -4.125,-4.5 0.06,-2.6275 2.24,-4.52625 5.375,-4.5 2.34875,-0.0263 4.95125,1.52 5,5 0,0 -0.0488,8.1925 -8.75,10.125 l -0.875,-2.125 c 6.06,-1.77625 5.375,-3.5 5.375,-3.5 -0.22875,-0.73625 -0.58,-0.59625 -2,-0.5" inkscape:connector-curvature="0" id="path128"/><path d="m 350.369,361.385 c -7.865,0.0525 -12.435,-4.3075 -12.375,-11.125 -0.06,-6.05 3.59625,-12.44875 20.75,-12.5 v -1.875 c 0.002,-2.15125 -2.1075,-3.4875 -5.375,-3.5 -2.70875,0.0125 -7.34875,1.63 -10.75,3.625 l -4.5,-6.875 c 2.48625,-1.94125 8.60375,-5.38625 15.125,-5.375 9.9325,-0.0113 15.065,3.78625 15.125,10.625 v 14.875 c -0.06,3.17625 0.78375,4.09125 4.125,4.625 l -3.375,7.5 c -1.65375,-0.0175 -6.365,-0.65125 -8.75,-3.625 -3.17,2.97375 -6.1225,3.6775 -10,3.625" inkscape:connector-curvature="0" id="path130"/><path d="m 353.369,353.51 c 3.90125,-0.0175 5.65875,-1.1425 5.625,-4.125 v -4.5 l -7.25,1.125 c -3.1225,0.45 -3.75625,2.1375 -3.75,4.125 -0.006,2.30125 1.4,3.3575 5.375,3.375" inkscape:connector-curvature="0" id="path132" style="fill:#ffffff"/><path d="m 392.119,324.76 c 1.46875,-0.73 3.22625,-0.94125 4.875,-1 7.77375,0.0588 13.60875,6.03625 13.625,13.25 v 23.5 h -9.375 v -20.5 c 0.007,-3.95625 -1.96125,-7.19 -5.875,-7.25 -4.52375,0.06 -7.4775,2.73125 -7.5,6.375 v 21.375 h -9.375 v -35.75 h 9.625 v 2.625 c 1.8825,-1.52625 2.445,-2.08875 4,-2.625" inkscape:connector-curvature="0" id="path134"/><path d="m 420.494,360.51 h 9.5 v -35.875 h -9.5 v 35.875 z" inkscape:connector-curvature="0" id="path136"/><path d="m 419.744,315.76 c 0.0262,-2.98 2.4175,-5.51125 5.375,-5.5 3.08875,-0.0113 5.48,2.52 5.5,5.5 -0.02,2.99625 -2.41125,5.4575 -5.375,5.5 -3.0825,-0.0425 -5.47375,-2.50375 -5.5,-5.5" inkscape:connector-curvature="0" id="path138"/><path d="m 476.994,333.01 c -4.19875,-0.05 -6.1675,2.97375 -6.125,6.75 v 20.75 h -9.875 v -20.5 c 0.0587,-4.8 -1.83875,-7.05 -4.875,-7 -3.92625,-0.05 -6.31625,3.185 -6.375,6.75 v 20.75 h -9.375 v -35.625 h 9.375 v 2.625 c 3.01125,-2.63625 4.98125,-3.62 8.25,-3.625 4.53625,0.005 6.0125,0.6375 9.625,4.5 3.77,-3.7925 6.4425,-4.63625 10.5,-4.625 7.61375,-0.0113 13.31,7.02 13.25,14.5 v 22.25 h -9.5 v -20.5 c -0.003,-4.8 -1.90125,-7.05 -4.875,-7" inkscape:connector-curvature="0" id="path140"/><path d="m 512.369,361.385 c -7.83375,0.0525 -12.40375,-4.3075 -12.375,-11.125 -0.0288,-6.05 3.6275,-12.44875 20.75,-12.5 v -1.875 c 0.0337,-2.15125 -2.07625,-3.4875 -5.25,-3.5 -2.8025,0.0125 -7.44375,1.63 -10.875,3.625 l -4.5,-6.875 c 2.5175,-1.94125 8.635,-5.38625 15.125,-5.375 9.96375,-0.0113 15.09625,3.78625 15.125,10.625 v 14.875 c -0.0288,3.17625 0.815,4.09125 4.125,4.625 l -3.25,7.5 c -1.7475,-0.0175 -6.45875,-0.65125 -8.875,-3.625 -3.13875,2.97375 -6.09125,3.6775 -10,3.625" inkscape:connector-curvature="0" id="path142"/><path d="m 515.369,353.51 c 3.9325,-0.0175 5.69,-1.1425 5.75,-4.125 v -4.5 l -7.25,1.125 c -3.21625,0.45 -3.84875,2.1375 -3.875,4.125 0.0262,2.30125 1.4325,3.3575 5.375,3.375" inkscape:connector-curvature="0" id="path144" style="fill:#ffffff"/><path d="m 540.744,310.635 h 9.375 v 36.5 c 0.015,3.82625 0.6475,4.73875 2.625,4.875 1.2575,0.0763 2.24125,0.005 3.625,-0.375 l 0.875,8.375 c -3.3125,0.795 -6.4775,1.3575 -8.75,1.375 -2.2975,-0.0175 -7.7825,-0.79125 -7.75,-9.125 v -41.625" inkscape:connector-curvature="0" id="path146"/><path d="m 575.494,338.01 5.875,0.75 c 6.3075,0.88 10.03375,5.23875 10,10.75 0.0337,7.21625 -5.9425,12.20875 -14.5,12.25 -7.33375,-0.0412 -12.32625,-1.87 -17,-6.625 l 7,-6.125 c 2.8775,2.935 6.11125,4.6225 9.5,4.625 2.86875,-0.002 5.12,-1.19875 5.125,-3 -0.005,-1.5025 -1.4825,-2.90875 -4.375,-3.5 l -6.25,-1.125 c -5.4825,-1.09625 -8.7175,-5.245 -8.75,-10.125 0.0325,-7.14375 5.5875,-11.71375 14.75,-11.75 4.97125,0.0362 9.19,0.88 14.125,5.25 l -6,6.5 c -2.52125,-2.925 -5.1225,-3.83875 -8.375,-3.875 -2.725,0.0362 -4.6225,1.5825 -4.625,3.375 0.002,1.16125 0.635,2.21625 3.5,2.625" inkscape:connector-curvature="0" id="path148"/><path d="m 602.369,358.51 c -2.7125,-0.0263 -4.11875,-2.205 -4.125,-4.5 0.006,-2.6275 2.18625,-4.52625 5.25,-4.5 2.42,-0.0263 5.0225,1.52 5,5 0,0 0.0225,8.1925 -8.625,10.125 l -1,-2.125 c 6.13125,-1.77625 5.5,-3.5 5.5,-3.5 -0.2825,-0.73625 -0.63375,-0.59625 -2,-0.5" inkscape:connector-curvature="0" id="path150"/><path d="m 197.119,414.135 c -0.0375,10.6775 -6.085,18.20125 -15.25,18.25 -4.8975,-0.0487 -5.60125,-0.54125 -10,-3.375 v 13.25 h -9.375 v -46.375 h 9.375 v 1.875 c 3.0625,-2.48 4.96125,-3.535 9,-3.5 10.65625,-0.035 16.2125,7.91125 16.25,19.875" inkscape:connector-curvature="0" id="path152"/><path d="m 171.869,417.01 c 0.0387,3.72375 4.1875,6.9575 7.875,7 5.45375,-0.0425 7.4925,-4.26125 7.5,-10.5 -0.007,-6.69875 -2.04625,-10.63625 -7.75,-10.625 -6.95375,-0.0113 -7.58625,6.10625 -7.625,8.625 v 5.5" inkscape:connector-curvature="0" id="path154" style="fill:#ffffff"/><path d="m 228.994,420.385 5.625,6.125 c -4.51125,4.20875 -7.53375,5.96625 -14,6 -11.0425,-0.0337 -17.7925,-8.19 -17.75,-19.125 -0.0425,-9.6675 6.215,-18.175 15.875,-18.125 10.45,-0.05 16.91875,7.755 16.875,19.375 v 2.5 h -23.5 c 0.27,4.09125 3.99625,7.045 8.75,7 2.63,0.045 4.10625,-0.3775 8.125,-3.75" inkscape:connector-curvature="0" id="path156"/><path d="m 212.119,409.885 h 14.5 c -0.2375,-3.495 -3.75375,-6.65875 -7.25,-6.625 -3.605,-0.0337 -6.62875,2.77875 -7.25,6.625" inkscape:connector-curvature="0" id="path158" style="fill:#ffffff"/><path d="m 241.619,414.135 c -0.04,-10.34625 5.09375,-19.27625 15.5,-19.25 3.65625,-0.0263 6.04625,0.465 9.875,3 V 382.01 h 9.625 v 49.75 h -9.625 v -2.25 c -3.125,2.615 -6.07875,3.03625 -10.125,3 -9.87625,0.0362 -15.29,-7.34625 -15.25,-18.375" inkscape:connector-curvature="0" id="path160"/><path d="m 259.494,424.01 c 4.8675,0.0288 7.53875,-2.64375 7.5,-7.5 v -5.625 c 0.0387,-4.21375 -2.84375,-7.51875 -7.375,-7.5 -5.59375,-0.0188 -8.40625,4.27 -8.375,10.375 -0.0313,6.34125 2.78125,10.27875 8.25,10.25" inkscape:connector-curvature="0" id="path162" style="fill:#ffffff"/><path d="m 310.369,420.385 5.75,6.125 c -4.575,4.20875 -7.59875,5.96625 -14.125,6 -10.98125,-0.0337 -17.73125,-8.19 -17.75,-19.125 0.0187,-9.6675 6.27625,-18.175 15.875,-18.125 10.51125,-0.05 16.98,7.755 17,19.375 v 2.5 h -23.5 c 0.20625,4.09125 3.9325,7.045 8.625,7 2.69125,0.045 4.1675,-0.3775 8.125,-3.75" inkscape:connector-curvature="0" id="path164"/><path d="m 293.619,409.885 h 14.375 c -0.17625,-3.495 -3.6925,-6.65875 -7.25,-6.625 -3.54375,-0.0337 -6.5675,2.77875 -7.125,6.625" inkscape:connector-curvature="0" id="path166" style="fill:#ffffff"/><path d="m 337.494,409.26 5.875,0.75 c 6.295,0.88 10.0225,5.23875 10,10.75 0.0225,7.21625 -5.955,12.20875 -14.5,12.25 -7.34625,-0.0412 -12.3375,-1.87 -17,-6.625 l 7,-6.125 c 2.865,2.935 6.1,4.6225 9.5,4.625 2.8575,-0.002 5.1075,-1.19875 5.125,-3 -0.0175,-1.5025 -1.49375,-2.90875 -4.5,-3.5 l -6.125,-1.125 c -5.49375,-1.09625 -8.72875,-5.245 -8.75,-10.125 0.0212,-7.14375 5.57625,-11.71375 14.75,-11.75 4.96,0.0362 9.17875,0.88 14.125,5.25 l -6.125,6.5 c -2.4075,-2.925 -5.00875,-3.83875 -8.25,-3.875 -2.73625,0.0362 -4.635,1.5825 -4.625,3.375 -0.01,1.16125 0.6225,2.21625 3.5,2.625" inkscape:connector-curvature="0" id="path168"/><path d="m 363.994,404.26 h -5.625 v -8.125 h 5.625 v -11.25 l 9.625,-2.625 v 13.875 h 9.25 v 8.125 h -9 v 16 c 0.01,3.63875 1.34625,3.99 2.75,4 1.40875,-0.01 2.46375,-0.2925 5.25,-0.875 l 2.25,8 c -4.47375,1.16125 -8.4825,1.58375 -11.125,1.625 -3.33375,-0.0412 -9.02875,-1.79875 -9,-8.5 v -20.25" inkscape:connector-curvature="0" id="path170"/><path d="m 400.244,399.51 c 2.13625,-2.75375 5.72125,-4.08875 9.375,-4.125 0.495,0.0362 0.9175,0.0362 1.75,0.125 v 9.25 c -3.0825,0.0825 -4,0.125 -4,0.125 -4.005,0.0987 -7.31,2.91125 -7.25,8.625 v 18.25 h -9.5 v -35.875 h 9.5 l 0.125,3.625" inkscape:connector-curvature="0" id="path172"/><path d="m 420.494,431.76 h 9.5 v -35.875 h -9.5 v 35.875 z" inkscape:connector-curvature="0" id="path174"/><path d="m 419.744,387.01 c 0.0237,-2.98 2.41375,-5.51125 5.375,-5.5 3.08625,-0.0113 5.47625,2.52 5.5,5.5 -0.0238,2.99625 -2.41375,5.4575 -5.5,5.5 -2.96125,-0.0425 -5.35125,-2.50375 -5.375,-5.5" inkscape:connector-curvature="0" id="path176"/><path d="m 450.619,432.635 c -7.85125,0.0525 -12.42125,-4.3075 -12.375,-11.125 -0.0463,-6.05 3.61,-12.44875 20.75,-12.5 v -1.875 c 0.0162,-2.15125 -2.0925,-3.4875 -5.375,-3.5 -2.69375,0.0125 -7.335,1.63 -10.75,3.625 l -4.5,-6.875 c 2.5,-1.94125 8.61875,-5.38625 15.125,-5.375 9.94625,-0.0113 15.08,3.78625 15.125,10.625 v 14.875 c -0.045,3.17625 0.79875,4.09125 4.125,4.625 l -3.375,7.5 c -1.63875,-0.0175 -6.35,-0.65125 -8.75,-3.625 -3.155,2.97375 -6.10875,3.6775 -10,3.625" inkscape:connector-curvature="0" id="path178"/><path d="m 453.619,424.76 c 3.915,-0.0175 5.6725,-1.1425 5.625,-4.125 v -4.5 l -7.25,1.125 c -3.10875,0.45 -3.74125,2.1375 -3.75,4.125 0.009,2.30125 1.415,3.3575 5.375,3.375" inkscape:connector-curvature="0" id="path180" style="fill:#ffffff"/><path d="m 492.369,396.01 c 1.4825,-0.73 3.24,-0.94125 4.875,-1 7.7875,0.0588 13.62375,6.03625 13.625,13.25 v 23.5 h -9.375 v -20.5 c 0.0225,-3.95625 -1.94625,-7.19 -5.875,-7.25 -4.51,0.06 -7.4625,2.73125 -7.5,6.375 v 21.375 h -9.375 v -35.75 h 9.75 v 2.625 c 1.77125,-1.52625 2.33375,-2.08875 3.875,-2.625" inkscape:connector-curvature="0" id="path182"/><path d="m 532.869,409.26 6,0.75 c 6.1975,0.88 9.92375,5.23875 9.875,10.75 0.0487,7.21625 -5.9275,12.20875 -14.375,12.25 -7.44375,-0.0412 -12.43625,-1.87 -17.125,-6.625 l 7,-6.125 c 2.8925,2.935 6.1275,4.6225 9.625,4.625 2.76,-0.002 5.01,-1.19875 5,-3 0.01,-1.5025 -1.46625,-2.90875 -4.375,-3.5 l -6.25,-1.125 c -5.4675,-1.09625 -8.70125,-5.245 -8.75,-10.125 0.0487,-7.14375 5.60375,-11.71375 14.75,-11.75 4.98625,0.0362 9.205,0.88 14.125,5.25 l -6,6.5 c -2.50625,-2.925 -5.1075,-3.83875 -8.375,-3.875 -2.70875,0.0362 -4.6075,1.5825 -4.625,3.375 0.0175,1.16125 0.65,2.21625 3.5,2.625" inkscape:connector-curvature="0" id="path184"/><path d="m 99.744,485.635 c 0.03375,-14.46375 8.4725,-19.7375 16.875,-19.75 7.69875,0.0125 17.26125,5.28625 17.25,19.75 0.0112,10.5675 -6.94875,18.58375 -16.75,18.625 -10.73125,-0.0412 -17.34125,-7.42375 -17.375,-18.625" inkscape:connector-curvature="0" id="path186"/><path d="m 124.244,485.635 c 0.004,-8.4175 -2.88,-11.01875 -7.125,-11 -5.3175,-0.0188 -7.49625,4.34125 -7.5,11 0.004,5.71625 2.81625,10.07625 7.5,10.125 4.6675,-0.0487 7.12875,-4.40875 7.125,-10.125" inkscape:connector-curvature="0" id="path188" style="fill:#ffffff"/><path d="m 156.119,467.26 c 1.4225,-0.73 3.18,-0.94125 4.875,-1 7.7275,0.0588 13.5625,6.03625 13.625,13.25 v 23.5 h -9.375 v -20.5 c -0.0387,-3.95625 -2.0075,-7.19 -5.875,-7.25 -4.57,0.06 -7.52375,2.73125 -7.5,6.375 v 21.375 h -9.5 v -35.75 h 9.75 v 2.625 c 1.83625,-1.52625 2.39875,-2.08875 4,-2.625" inkscape:connector-curvature="0" id="path190"/><path d="m 244.119,475.51 c -4.1425,-0.05 -6.11125,2.97375 -6.125,6.75 v 20.75 h -9.75 v -20.5 c -0.01,-4.8 -1.90875,-7.05 -5,-7 -3.87,-0.05 -6.26,3.185 -6.25,6.75 v 20.75 h -9.375 v -35.625 h 9.375 v 2.625 c 2.9425,-2.63625 4.9125,-3.62 8.125,-3.625 4.59125,0.005 6.06875,0.6375 9.625,4.5 3.82625,-3.7925 6.4975,-4.63625 10.5,-4.625 7.67,-0.0113 13.36625,7.02 13.375,14.5 v 22.25 h -9.625 v -20.5 c 0.0538,-4.8 -1.845,-7.05 -4.875,-7" inkscape:connector-curvature="0" id="path192"/><path d="m 266.494,485.635 c 0.0187,-14.46375 8.45625,-19.7375 16.875,-19.75 7.68375,0.0125 17.24625,5.28625 17.25,19.75 -0.004,10.5675 -6.965,18.58375 -16.75,18.625 -10.74625,-0.0412 -17.35625,-7.42375 -17.375,-18.625" inkscape:connector-curvature="0" id="path194"/><path d="m 290.994,485.635 c -0.0113,-8.4175 -2.895,-11.01875 -7.125,-11 -5.3325,-0.0188 -7.5125,4.34125 -7.5,11 -0.0125,5.71625 2.8,10.07625 7.5,10.125 4.6525,-0.0487 7.11375,-4.40875 7.125,-10.125" inkscape:connector-curvature="0" id="path196" style="fill:#ffffff"/><path d="m 305.494,467.635 h 9.875 l 6,22 5.5,-22 h 10.25 l 5.5,22 6.125,-22 h 9.375 l -9.625,35.375 h -11.375 l -5.125,-22 -5.375,22 h -11.125 l -10,-35.375" inkscape:connector-curvature="0" id="path198"/><path d="m 379.119,467.26 c 1.47875,-0.73 3.23625,-0.94125 4.875,-1 7.78375,0.0588 13.62,6.03625 13.625,13.25 v 23.5 h -9.375 v -20.5 c 0.0175,-3.95625 -1.95125,-7.19 -5.875,-7.25 -4.51375,0.06 -7.46625,2.73125 -7.5,6.375 v 21.375 h -9.375 v -35.75 h 9.75 v 2.625 c 1.7675,-1.52625 2.33,-2.08875 3.875,-2.625" inkscape:connector-curvature="0" id="path200"/><path d="m 444.619,489.635 7.375,-22.25 h 9.875 l -11.875,35.625 h -10.875 l -12.25,-35.625 h 10.25 l 7.5,22.25" inkscape:connector-curvature="0" id="path202"/><path d="m 492.369,491.635 5.75,6.125 c -4.6225,4.20875 -7.645,5.96625 -14.125,6 -11.02875,-0.0337 -17.77875,-8.19 -17.75,-19.125 -0.0288,-9.6675 6.22875,-18.175 15.875,-18.125 10.46375,-0.05 16.9325,7.755 16.875,19.375 v 2.5 h -23.375 c 0.15875,4.09125 3.885,7.045 8.625,7 2.6425,0.045 4.12,-0.3775 8.125,-3.75" inkscape:connector-curvature="0" id="path204"/><path d="m 475.619,481.135 h 14.375 c -0.22375,-3.495 -3.73875,-6.65875 -7.25,-6.625 -3.59125,-0.0337 -6.615,2.77875 -7.125,6.625" inkscape:connector-curvature="0" id="path206" style="fill:#ffffff"/><path d="m 516.994,470.76 c 2.1075,-2.75375 5.6925,-4.08875 9.375,-4.125 0.46625,0.0362 0.88875,0.0362 1.75,0.125 v 9.25 c -3.11125,0.0825 -4,0.125 -4,0.125 -4.03375,0.0987 -7.33875,2.91125 -7.375,8.625 v 18.25 h -9.5 v -35.875 h 9.5 l 0.25,3.625" inkscape:connector-curvature="0" id="path208"/><path d="m 550.244,500.885 c -9.39625,0.0288 -15.3025,-6.7925 -15.25,-16.625 -0.0525,-10.4175 6.135,-17.3075 15.5,-17.25 2.16625,-0.0575 4.5575,-0.12875 8,2.375 v -2 h 9.75 v 34.625 c 0.0263,7.06 -7.075,12.545 -16.625,12.5 -5.84875,0.045 -7.115,-0.025 -16,-4.125 l 4.375,-7.75 c 3.8075,3.13 10.5,3.125 10.5,3.125 4.69875,0.005 8.77625,-0.5575 7.875,-6.75 -3.10625,2.185 -4.4425,1.90375 -8.125,1.875" inkscape:connector-curvature="0" id="path210"/><path d="m 551.994,492.385 c 4.39375,-0.05 6.64375,-2.37 6.625,-6.5 v -4.75 c 0.0187,-3.21375 -2.79375,-5.745 -6.5,-5.75 -4.8025,0.005 -7.545,3.02875 -7.5,8.25 -0.045,6.16875 1.78375,8.7 7.375,8.75" inkscape:connector-curvature="0" id="path212" style="fill:#ffffff"/><path d="m 602.119,491.635 5.75,6.125 c -4.5775,4.20875 -7.60125,5.96625 -14.125,6 -10.98375,-0.0337 -17.73375,-8.19 -17.75,-19.125 0.0163,-9.6675 6.27375,-18.175 15.875,-18.125 10.50875,-0.05 16.9775,7.755 17,19.375 v 2.5 h -23.5 c 0.20375,4.09125 3.93,7.045 8.625,7 2.6875,0.045 4.165,-0.3775 8.125,-3.75" inkscape:connector-curvature="0" id="path214"/><path d="m 585.369,481.135 h 14.375 c -0.17875,-3.495 -3.695,-6.65875 -7.25,-6.625 -3.54625,-0.0337 -6.57,2.77875 -7.125,6.625" inkscape:connector-curvature="0" id="path216" style="fill:#ffffff"/></svg>