<?xml version="1.0" encoding="UTF-8" standalone="no"?>
<!-- Created with Inkscape (http://www.inkscape.org/) -->

<svg
   xmlns:dc="http://purl.org/dc/elements/1.1/"
   xmlns:cc="http://creativecommons.org/ns#"
   xmlns:rdf="http://www.w3.org/1999/02/22-rdf-syntax-ns#"
   xmlns:svg="http://www.w3.org/2000/svg"
   xmlns="http://www.w3.org/2000/svg"
   xmlns:inkscape="http://www.inkscape.org/namespaces/inkscape"
   version="1.1"
   width="755.03998"
   height="344.14001"
   id="svg2"
   xml:space="preserve"><metadata
     id="metadata8"><rdf:RDF><cc:Work
         rdf:about=""><dc:format>image/svg+xml</dc:format><dc:type
           rdf:resource="http://purl.org/dc/dcmitype/StillImage" /></cc:Work></rdf:RDF></metadata><defs
     id="defs6"><clipPath
       id="clipPath20"><path
         d="M 0.015015,275.31 H 604.04501 V 0 H 0.015015 v 275.31 z"
         inkscape:connector-curvature="0"
         id="path22" /></clipPath></defs><g
     transform="matrix(1.25,0,0,-1.25,-0.018769,344.14)"
     id="g10"><g
       transform="translate(603.55,27.568)"
       id="g12"><path
         d="m 0,0 c 0,-14.948 -12.119,-27.068 -27.068,-27.068 h -548.91 c -14.949,0 -27.068,12.12 -27.068,27.068 v 220.17 c 0,14.948 12.119,27.067 27.068,27.067 h 548.91 c 14.951,0 27.07,-12.12 27.07,-27.07 V -0.003"
         inkscape:connector-curvature="0"
         id="path14"
         style="fill:#ffffff" /></g><g
       id="g16"><g
         clip-path="url(#clipPath20)"
         id="g18"><g
           transform="translate(603.55,27.568)"
           id="g24"><path
             d="m 0,0 c 0,-14.948 -12.119,-27.068 -27.068,-27.068 h -548.91 c -14.949,0 -27.068,12.12 -27.068,27.068 v 220.17 c 0,14.948 12.119,27.067 27.068,27.067 h 548.91 c 14.951,0 27.07,-12.12 27.07,-27.07 V -0.003 z"
             inkscape:connector-curvature="0"
             id="path26"
             style="fill:none;stroke:#0079c1" /></g></g></g><g
       transform="translate(489.48,260.75)"
       id="g28"><path
         d="m 0,0 h 87 c 7.187,0 13.011,-5.826 13.011,-13.012 v -220.17 c 0,-7.187 -5.824,-13.013 -13.011,-13.013 H 0 l 0.001,246.19"
         inkscape:connector-curvature="0"
         id="path30"
         style="fill:#0079c1" /></g><g
       transform="translate(461.73,14.555)"
       id="g32"><path
         d="m 0,0 h -434.16 c -7.187,0 -13.012,5.826 -13.012,13.013 v 220.17 c 0,7.186 5.825,13.011 13.012,13.011 L 0,246.204 V 0.004"
         inkscape:connector-curvature="0"
         id="path34"
         style="fill:#0079c1" /></g><g
       transform="translate(339.04,155.06)"
       id="g36"><path
         d="m 0,0 c -7.468,0 -14.587,-1.484 -21.066,-4.204 l -21.672,37.763 4.115,11.322 c 10.81,1.052 14.709,10.986 14.709,12.671 0,1.685 -2.006,1.685 -2.006,1.685 h -46.866 c -1.043,0 -4.493,-0.883 -4.493,-4.574 0,-3.691 3.932,-4.333 3.932,-4.333 l 20.545,-4.524 -4.976,-13.693 h -99.576 c 1.232,4.599 1.993,7.437 1.993,7.437 0,0 0.856,2.782 0.856,3.959 0,5.577 -4.139,9.745 -5.885,10.686 -0.348,0.187 -1.512,0.709 -1.512,2.274 0,1.565 0.91,2.875 2.902,2.875 h 20.758 v 13.803 h -26.108 c 0,0 -13.695,-1.284 -13.695,-15.301 0,-8.194 4.066,-10.057 7.275,-11.983 1.071,-0.642 2.034,-3.318 1.605,-4.815 -0.249,-0.875 -6.624,-24.791 -11.888,-44.551 -5.985,2.261 -12.471,3.503 -19.248,3.503 -30.085,0 -54.474,-24.39 -54.474,-54.476 0,-30.084 24.389,-54.474 54.474,-54.474 30.085,0 54.475,24.39 54.475,54.474 0,18.29 -9.015,34.474 -22.842,44.354 0.592,2.211 1.196,4.467 1.805,6.738 l 63.26,-44.2 c -0.688,-2.175 -1.062,-4.488 -1.062,-6.892 0,-12.597 10.213,-22.81 22.811,-22.81 2.253,0 4.429,0.328 6.485,0.936 l 3.381,-7.363 h -5.813 v -7.382 h 6.514 c 1.024,-1.616 2.827,-2.689 4.881,-2.689 2.055,0 3.858,1.073 4.882,2.689 h 6.353 v 7.382 h -9.516 l -4.751,10.1 c 4.901,3.186 8.502,8.204 9.833,14.083 l 5.207,-0.08 c 2.625,-27.64 26.072,-49.34 54.398,-49.34 30.085,0 54.475,24.39 54.475,54.474 0,30.083 -24.39,54.473 -54.475,54.473"
         inkscape:connector-curvature="0"
         id="path38"
         style="fill:#ffffff" /></g><g
       transform="translate(257.19,114.88)"
       id="g40"><path
         d="M 0,0 C 7.898,0 14.3,-6.402 14.3,-14.301 14.3,-22.197 7.898,-28.6 0,-28.6 c -7.897,0 -14.299,6.403 -14.299,14.299 C -14.299,-6.402 -7.897,0 0,0"
         inkscape:connector-curvature="0"
         id="path42"
         style="fill:#0079c1" /></g><g
       transform="translate(258.08,123.38)"
       id="g44"><path
         d="m 0,0 c -0.296,0.011 -0.593,0.019 -0.892,0.019 -2.378,0 -4.672,-0.365 -6.828,-1.04 l -3.387,7.198 h 6.203 v 7.383 h -6.353 c -1.025,1.616 -2.827,2.689 -4.882,2.689 -2.054,0 -3.857,-1.073 -4.881,-2.689 h -6.514 V 6.177 h 9.777 l 4.5,-9.799 c -0.536,-0.345 -1.055,-0.715 -1.558,-1.104 l -67.331,47.042 c 0.724,2.703 1.429,5.334 2.1,7.838 H 18.226 L 0,0"
         inkscape:connector-curvature="0"
         id="path46"
         style="fill:#0079c1" /></g><g
       transform="translate(306.11,143.98)"
       id="g48"><path
         d="m 0,0 -15.916,27.833 -19.268,-53.019 c 4.265,-3.222 7.361,-7.91 8.542,-13.313 h 5.318 C -19.926,-22.803 -11.871,-9.022 0,0"
         inkscape:connector-curvature="0"
         id="path50"
         style="fill:#0079c1" /></g><g
       transform="translate(314.11,129.76)"
       id="g52"><path
         d="M 0,0 C -7.082,-6.088 -12.063,-14.58 -13.259,-24.328 H 14.019 L 0,0"
         inkscape:connector-curvature="0"
         id="path54"
         style="fill:#0079c1" /></g><g
       transform="translate(326.08,136.62)"
       id="g56"><path
         d="m 0,0 19.058,-33.067 c 0,0 0.921,-1.524 0.921,-3.17 0,-4.854 -4.975,-4.854 -7.341,-4.854 l -37.761,-0.075 c 2.541,-18.787 18.599,-33.342 38.081,-33.342 21.247,0 38.473,17.224 38.473,38.471 0,21.248 -17.226,38.474 -38.473,38.474 C 8.354,2.437 4.093,1.484 0,0"
         inkscape:connector-curvature="0"
         id="path58"
         style="fill:#0079c1" /></g><g
       transform="translate(165.81,127.92)"
       id="g60"><path
         d="m 0,0 c -1.856,-6.926 -3.141,-11.719 -3.318,-12.379 -4.206,-15.622 -20.261,-20.437 -23.54,-20.437 -3.531,0 -5.671,2.354 -5.671,5.671 0,3.316 2.675,4.28 3.638,5.029 12.198,9.523 14.124,19.688 14.124,19.688 0,0 1.111,4.174 2.794,10.491 -4.636,1.98 -9.739,3.078 -15.099,3.078 -21.247,0 -38.472,-17.226 -38.472,-38.474 0,-21.247 17.225,-38.471 38.472,-38.471 21.248,0 38.473,17.224 38.473,38.471 C 11.401,-16.642 7.04,-6.971 0,0"
         inkscape:connector-curvature="0"
         id="path62"
         style="fill:#0079c1" /></g></g></svg>