<?xml version="1.0" encoding="UTF-8" standalone="no"?>
<!-- Created with Inkscape (http://www.inkscape.org/) -->

<svg
   xmlns:dc="http://purl.org/dc/elements/1.1/"
   xmlns:cc="http://creativecommons.org/ns#"
   xmlns:rdf="http://www.w3.org/1999/02/22-rdf-syntax-ns#"
   xmlns:svg="http://www.w3.org/2000/svg"
   xmlns="http://www.w3.org/2000/svg"
   xmlns:inkscape="http://www.inkscape.org/namespaces/inkscape"
   version="1.1"
   width="416.88"
   height="611.5"
   id="svg2"
   xml:space="preserve"><defs
     id="defs36" /><metadata
     id="metadata8"><rdf:RDF><cc:Work
         rdf:about=""><dc:format>image/svg+xml</dc:format><dc:type
           rdf:resource="http://purl.org/dc/dcmitype/StillImage" /></cc:Work></rdf:RDF></metadata><g
     transform="matrix(1.25,0,0,-1.25,-169.41,810.16)"
     id="g10"><g
       transform="scale(0.1,0.1)"
       id="g12"><path
         d="m 4690.2,1751.2 c -0.25,-89.44 -73,-162.19 -163,-162 h -3010 c -89.5,-0.19 -162.25,72.56 -162,162 v 4567 c -0.25,89.94 72.5,162.69 162,163 h 3010 c 90,-0.31 162.75,-73.06 163,-163 v -4567"
         inkscape:connector-curvature="0"
         id="path14" /><path
         d="m 4605.2,4784.2 c 0.36,-43.34 -34.61,-78.31 -78,-78 h -3010 c -42.89,-0.31 -77.87,34.66 -78,78 v 1534 c 0.13,43.34 35.11,78.31 78,78 h 3010 c 43.39,0.31 78.36,-34.66 78,-78 v -1534"
         inkscape:connector-curvature="0"
         id="path16"
         style="fill:#ffffff" /><path
         d="m 4605.2,1751.2 c 0.36,-42.84 -34.61,-77.81 -78,-78 h -3010 c -42.89,0.19 -77.87,35.16 -78,78 v 2793 c 0.13,42.95 35.11,77.93 78,78 h 3010 c 43.39,-0.07 78.36,-35.05 78,-78 v -2793"
         inkscape:connector-curvature="0"
         id="path18"
         style="fill:#808080" /><path
         d="m 2020.2,6134.2 h 105 l 73,-329 75,329 h 107 l 75,-329 73,329 h 105 l -118,-483 h -115 l -74,325 -73,-325 h -115 l -118,483"
         inkscape:connector-curvature="0"
         id="path20" /><path
         d="m 3019.2,5939.2 v -87 h -197 v -103 h 234 v -98 h -330 v 480 h 308 v -91 h -212 v -101 h 197"
         inkscape:connector-curvature="0"
         id="path22" /><path
         d="m 3287.2,6131.2 h 131 l 160,-480 h -107 l -26,85 h -181 l -26,-85 h -104 l 153,480"
         inkscape:connector-curvature="0"
         id="path24" /><path
         d="m 3352.2,6029.2 -63,-207 h 128 l -65,207"
         inkscape:connector-curvature="0"
         id="path26"
         style="fill:#ffffff" /><path
         d="m 4031.2,6131.2 -156,-192 182,-288 h -116 l -137,215 -40,-47 v -168 h -96 v 480 h 96 v -162 l 147,162 h 120"
         inkscape:connector-curvature="0"
         id="path28" /><path
         d="m 1946.2,4970.2 h -222 v 480 h 207 c 67.06,-0.25 150.83,-39.75 151,-123 -0.17,-51.6 -25.37,-74.07 -49,-92 22.95,-14.77 70.63,-25.66 71,-122 -0.37,-92.32 -78.02,-142.72 -158,-143"
         inkscape:connector-curvature="0"
         id="path30" /><path
         d="m 1933.2,5358.2 h -111 v -100 h 109 c 34.37,-0.31 47.99,17.4 48,50 -0.01,31.42 -15.68,50.49 -46,50"
         inkscape:connector-curvature="0"
         id="path32"
         style="fill:#ffffff" /><path
         d="m 1995.2,5124.2 c 0.34,36.3 -21.46,59.45 -57,59 h -116 v -119 h 115 c 28.37,0.27 58.34,24.11 58,60"
         inkscape:connector-curvature="0"
         id="path34"
         style="fill:#ffffff" /><path
         d="m 2492.2,5169.2 119,-199 h -115 l -104,187 h -72 v -187 h -95 v 480 h 229 c 64.13,-0.25 134.28,-64.27 134,-142 0,0 0.28,-98.66 -96,-139"
         inkscape:connector-curvature="0"
         id="path36" /><path
         d="m 2490.2,5307.2 c -0.48,33.78 -28.41,54.89 -57,55 h -113 v -114 h 112 c 29.59,0.16 57.52,24.68 58,59"
         inkscape:connector-curvature="0"
         id="path38"
         style="fill:#ffffff" /><path
         d="m 2724.2,4970.2 h 101 v 480 h -101 v -480 z"
         inkscape:connector-curvature="0"
         id="path40" /><path
         d="m 3373.2,5216.2 c -0.44,-145.61 -104.64,-245.72 -225,-246 h -174 v 480 h 186 c 121.98,-0.25 212.56,-96.28 213,-234"
         inkscape:connector-curvature="0"
         id="path42" /><path
         d="m 3272.2,5215.2 c 0.44,118.29 -78.56,141.45 -119,141 h -78 v -288 h 67 c 80.72,-0.33 130.44,49.39 130,147"
         inkscape:connector-curvature="0"
         id="path44"
         style="fill:#ffffff" /><path
         d="m 3681.2,5455.2 c 0,0 142.11,0.2 191,-115 l -90,-46 c -24.95,67.89 -103,68 -103,68 -79.28,-0.11 -126.27,-59.36 -126,-157 -0.27,-95.78 46.72,-156.4 123,-156 64.7,-0.4 111.02,43.87 111,104 v 8 h -120 v 83 h 213 v -274 h -90 v 34 c -47.25,-48.02 -119,-48 -119,-48 -122.36,-0.02 -221.11,106.9 -221,251 -0.11,139.23 86.38,248.2 231,248"
         inkscape:connector-curvature="0"
         id="path46" /><path
         d="m 4309.2,5258.2 v -87 h -196 v -103 h 234 v -98 h -330 v 480 h 308 v -92 h -212 v -100 h 196"
         inkscape:connector-curvature="0"
         id="path48" /><path
         d="m 3015.2,4422.2 c 703.48,0.44 1274,-570.07 1274,-1274 0,-703.55 -570.52,-1274.1 -1274,-1274 -703.99,-0.06 -1274.5,570.45 -1274,1274 -0.5,703.93 570.01,1274.4 1274,1274"
         inkscape:connector-curvature="0"
         id="path50"
         style="fill:#ec1d24" /><path
         d="m 3015.2,4169.2 c 563.32,-0.36 1020.2,-457.23 1020,-1021 0.21,-563.38 -456.68,-1020.3 -1020,-1020 -563.82,-0.27 -1020.7,456.62 -1021,1020 0.29,563.77 457.18,1020.6 1021,1021"
         inkscape:connector-curvature="0"
         id="path52"
         style="fill:#ffffff" /><path
         d="m 3703.2,3547.2 v -363 h -90 v 363 h -126 v 86 h 341 v -86 h -125"
         inkscape:connector-curvature="0"
         id="path54" /><path
         d="m 2642.2,2707.2 c -29.89,-0.3 -43.98,-21.95 -44,-49 v -148 h -70 v 146 c 0.04,34.59 -13.55,50.7 -36,51 -27.38,-0.3 -44.5,-23.46 -44,-49 v -148 h -68 v 255 h 68 v -20 c 20.64,19.59 34.74,26.64 58,27 32.61,-0.36 43.18,-4.89 69,-33 27.04,27.6 46.17,33.64 75,34 54.73,-0.36 95.51,-50.7 96,-104 v -159 h -69 v 146 c 0.05,34.59 -13.55,50.7 -35,51"
         inkscape:connector-curvature="0"
         id="path56" /><path
         d="m 3018.2,2524.2 c -67.04,0.47 -109.32,49.3 -109,120 -0.32,74.28 43.97,123.61 111,124 15.53,-0.39 32.64,0.11 57,-18 v 15 h 70 v -249 c 0.28,-49.92 -50.56,-89.18 -119,-89 -41.8,-0.18 -50.86,0.32 -114,30 l 30,55 c 28.1,-22.26 76,-22 76,-22 33.65,-0.26 62.85,3.77 57,48 -22.85,-15.54 -32.41,-13.53 -59,-14"
         inkscape:connector-curvature="0"
         id="path58" /><path
         d="m 3031.2,2586.2 c 31.21,-0.11 47.32,16.5 47,46 v 34 c 0.32,23.08 -19.82,41.2 -46,41 -34.73,0.2 -54.36,-21.45 -54,-59 -0.36,-43.99 12.73,-62.11 53,-62"
         inkscape:connector-curvature="0"
         id="path60"
         style="fill:#ffffff" /><path
         d="m 3294.2,2763.2 h 71 l 43,-157 38,157 h 74 l 40,-157 43,157 h 68 l -70,-253 h -81 l -37,157 -38,-157 h -80 l -71,253"
         inkscape:connector-curvature="0"
         id="path62" /><path
         d="m 2458.2,3084.2 h -120 l 182,440 h -261 v 100 h 378 v -97 l -179,-443"
         inkscape:connector-curvature="0"
         id="path64" /><path
         d="m 2705.2,3125.2 c 0.05,31.61 26.21,57 57,57 31.52,0 58.44,-25.39 58,-57 0.44,-31.47 -26.48,-57.62 -56,-58 -32.79,0.38 -58.95,25.76 -59,58"
         inkscape:connector-curvature="0"
         id="path66" /><path
         d="m 3065.2,3523.2 -11,-76 c 32.66,18.85 53.43,28.08 85,28 113.82,0.08 185.36,-79.92 185,-199 0.36,-126.31 -75.02,-204.78 -201,-205 -106.34,0.22 -161.73,42.53 -196,146 l 102,33 c 9.97,-25.7 36.89,-78.77 95,-79 53.43,0.23 88.82,46.38 89,106 -0.18,57.31 -38.64,97.31 -93,97 -32.57,0.31 -55.64,-12.77 -82,-47 l -113,19 42,276 h 334 v -99 h -236"
         inkscape:connector-curvature="0"
         id="path68" /></g></g></svg>