<?xml version="1.0" encoding="UTF-8" standalone="no"?>
<!-- Created with Inkscape (http://www.inkscape.org/) -->

<svg
   xmlns:dc="http://purl.org/dc/elements/1.1/"
   xmlns:cc="http://creativecommons.org/ns#"
   xmlns:rdf="http://www.w3.org/1999/02/22-rdf-syntax-ns#"
   xmlns:svg="http://www.w3.org/2000/svg"
   xmlns="http://www.w3.org/2000/svg"
   xmlns:inkscape="http://www.inkscape.org/namespaces/inkscape"
   version="1.1"
   width="269.73001"
   height="135.5"
   id="svg2"
   xml:space="preserve"><metadata
     id="metadata8"><rdf:RDF><cc:Work
         rdf:about=""><dc:format>image/svg+xml</dc:format><dc:type
           rdf:resource="http://purl.org/dc/dcmitype/StillImage" /></cc:Work></rdf:RDF></metadata><defs
     id="defs6"><clipPath
       id="clipPath16"><path
         d="M 0.014999,108.42 H 215.795 V 0.02 H 0.014999 v 108.4 z"
         inkscape:connector-curvature="0"
         id="path18" /></clipPath></defs><g
     transform="matrix(1.25,0,0,-1.25,-0.018749,135.52)"
     id="g10"><g
       id="g12"><g
         clip-path="url(#clipPath16)"
         id="g14"><g
           transform="translate(12.676,108.42)"
           id="g20"><path
             d="m 0,0 c -7.0586,0 -12.676,-5.617 -12.676,-12.668 v -82.934 c 0,-7.054 5.6174,-12.816 12.676,-12.816 h 190.44 c 7.055,0 12.676,5.762 12.676,12.816 v 82.934 c 0,7.053 -5.62,12.67 -12.68,12.67 H -0.004"
             inkscape:connector-curvature="0"
             id="path22"
             style="fill:#231f20;fill-rule:evenodd" /></g></g></g><g
       transform="translate(12.676,102.08)"
       id="g24"><path
         d="m 0,0 c -3.4551,0 -6.3399,-2.879 -6.3399,-6.332 v -82.934 c 0,-3.601 2.8848,-6.48 6.3399,-6.48 h 190.44 c 3.453,0 6.336,2.879 6.336,6.48 V -6.332 C 196.776,-2.879 193.893,0 190.44,0 H 0"
         inkscape:connector-curvature="0"
         id="path26"
         style="fill:#ffd421;fill-rule:evenodd" /></g><g
       transform="translate(95.941,62.344)"
       id="g28"><path
         d="m 0,0 c 6.627,-6.625 17.289,-6.625 24.059,0 6.625,6.77 6.625,17.422 0,24.043 -6.77,6.77 -17.432,6.77 -24.059,0 C -6.77,17.422 -6.77,6.77 0,0"
         inkscape:connector-curvature="0"
         id="path30"
         style="fill:#ec1d24;fill-rule:evenodd" /></g><g
       transform="translate(98.244,64.793)"
       id="g32"><path
         d="m 0,0 c 5.332,-5.328 13.979,-5.328 19.307,0 5.328,5.328 5.328,13.965 0,19.293 C 13.979,24.621 5.332,24.621 0,19.293 -5.328,13.965 -5.328,5.328 0,0"
         inkscape:connector-curvature="0"
         id="path34"
         style="fill:#0079c1;fill-rule:evenodd" /></g><g
       transform="translate(117.4,62.344)"
       id="g36"><path
         d="M 0,0 2.743,2.738 -19.013,24.188 -21.75,21.453 0,0"
         inkscape:connector-curvature="0"
         id="path38"
         style="fill:#ec1d24;fill-rule:evenodd" /></g><g
       transform="translate(58.34,29.086)"
       id="g40"><path
         d="m 0,0 v -3.313 c 0,-1.296 -2.447,-1.296 -2.879,-1.296 -0.432,0 -3.023,0.144 -3.023,2.16 0,2.304 3.168,2.304 5.902,2.449 m 4.469,-3.168 v 8.781 c 0,2.305 -2.16,4.176 -6.916,4.176 -3.6,0 -6.192,-1.726 -7.057,-2.301 l 1.873,-3.312 c 1.44,1.008 4.608,1.726 5.76,1.726 C -0.574,5.902 0,4.894 0,4.32 V 3.309 c -1.439,0 -5.184,-0.575 -6.768,-1.149 -1.294,-0.433 -3.603,-1.441 -3.603,-4.754 0,-3.457 3.459,-5.761 6.916,-5.761 3.023,0 4.035,1.875 4.035,1.875 0,0 1.441,-1.875 4.033,-1.875 l 1.871,3.457 c -2.16,0.433 -2.015,1.152 -2.015,1.73"
         inkscape:connector-curvature="0"
         id="path42"
         style="fill:#231f20;fill-rule:evenodd" /></g><g
       transform="translate(92.484,32.828)"
       id="g44"><path
         d="m 0,0 v -11.664 h -4.467 v 10.512 c 0,1.73 -1.297,2.879 -2.594,2.879 -1.439,0 -3.023,-1.294 -3.023,-3.454 v -9.937 h -4.324 v 10.656 c 0,1.586 -1.295,2.735 -2.592,2.735 -1.152,0 -3.023,-1.008 -3.023,-3.309 v -10.082 h -4.469 V 5.473 h 4.469 V 4.465 c 0,0 1.583,1.297 4.462,1.297 2.598,0 4.182,-1.731 4.038,-1.731 0,0 1.871,1.871 4.752,1.871 C -2.447,5.902 0,2.879 0,0"
         inkscape:connector-curvature="0"
         id="path46"
         style="fill:#231f20;fill-rule:evenodd" /></g><g
       transform="translate(155.29,31.676)"
       id="g48"><path
         d="m 0,0 v -3.168 c 0,-1.727 1.152,-3.457 3.742,-3.457 2.598,0 4.039,2.449 4.039,5.043 0,2.734 -1.441,5.039 -4.039,5.039 C 1.152,3.457 0,1.586 0,0 M 0,5.906 V 6.625 H -4.465 V -15.262 H 0 v 6.192 c 0,0 1.437,-1.731 4.609,-1.731 6.051,0 7.778,6.336 7.778,9.074 0,2.161 -0.864,4.606 -2.16,6.192 C 8.93,5.906 7.203,7.199 4.469,7.344 2.879,7.344 1.152,6.769 0,5.906"
         inkscape:connector-curvature="0"
         id="path50"
         style="fill:#231f20;fill-rule:evenodd" /></g><g
       transform="translate(107.46,29.66)"
       id="g52"><path
         d="M 0,0 V 3.601"
         inkscape:connector-curvature="0"
         id="path54"
         style="fill:none;stroke:#231f20;stroke-width:7.4920001;stroke-miterlimit:10" /></g><g
       transform="translate(135.41,29.371)"
       id="g56"><path
         d="m 0,0 c 0,2.16 -1.726,4.035 -3.883,4.035 -2.164,0 -3.75,-1.875 -3.75,-4.179 0,-2.157 1.586,-4.032 3.75,-4.032 C -2.445,-4.176 0,-3.023 0,0 m -0.285,9.504 c 1.441,0.578 2.879,1.152 4.324,1.73 -0.867,2.442 -2.453,4.891 -7.922,4.891 -5.336,0 -9.222,-3.883 -9.222,-12.379 0,-4.32 1.73,-7.488 2.879,-9.215 1.152,-1.73 4.031,-3.027 6.629,-3.027 2.738,0 8.355,1.586 8.355,8.496 0,6.914 -5.332,8.352 -7.781,8.352 -2.305,0 -4.321,-1.149 -5.043,-1.871 0,3.746 2.453,5.328 4.183,5.328 1.727,0 2.735,-0.719 3.598,-2.305"
         inkscape:connector-curvature="0"
         id="path58"
         style="fill:#231f20;fill-rule:evenodd" /></g><g
       transform="translate(29.102,35.422)"
       id="g60"><path
         d="m 0,0 c -1.877,0 -3.748,0.863 -3.748,2.879 0,2.016 1.871,3.023 3.603,3.023 C 1.584,5.902 3.6,4.895 3.6,2.879 3.6,0.863 1.727,0 -0.145,0 H 0 z m 0,-10.227 c -2.598,0 -4.469,1.008 -4.469,3.168 0,2.016 2.16,3.024 4.324,3.024 2.303,0 4.321,-1.008 4.321,-3.024 0,-2.16 -1.729,-3.168 -4.321,-3.168 H 0 z m -0.145,20.301 c 4.032,0 8.784,-1.871 8.784,-7.195 0,-3.887 -2.879,-4.609 -2.879,-4.609 0,0 3.455,-0.864 3.455,-5.473 0,-4.75 -3.744,-7.488 -9.36,-7.488 -5.621,0 -9.365,2.738 -9.365,7.488 0,4.609 3.457,5.473 3.457,5.473 0,0 -2.736,0.722 -2.736,4.609 0,5.324 4.752,7.195 8.644,7.195"
         inkscape:connector-curvature="0"
         id="path62"
         style="fill:#231f20;fill-rule:evenodd" /></g><g
       transform="translate(196.06,32.828)"
       id="g64"><path
         d="m 0,0 v -11.664 h -4.461 v 10.512 c 0,1.73 -1.297,2.879 -2.598,2.879 -1.441,0 -3.023,-1.294 -3.023,-3.454 v -9.937 h -4.321 v 10.656 c 0,1.586 -1.293,2.735 -2.597,2.735 -1.149,0 -3.024,-1.008 -3.024,-3.309 v -10.082 h -4.461 V 5.473 h 4.461 V 4.465 c 0,0 1.586,1.297 4.469,1.297 2.594,0 4.031,-1.731 4.031,-1.731 0,0 1.875,1.871 4.754,1.871 C -2.446,5.902 0,2.879 0,0"
         inkscape:connector-curvature="0"
         id="path66"
         style="fill:#231f20;fill-rule:evenodd" /></g></g></svg>