<?xml version="1.0" encoding="UTF-8" standalone="no"?>
<!-- Created with Inkscape (http://www.inkscape.org/) -->

<svg
   xmlns:dc="http://purl.org/dc/elements/1.1/"
   xmlns:cc="http://creativecommons.org/ns#"
   xmlns:rdf="http://www.w3.org/1999/02/22-rdf-syntax-ns#"
   xmlns:svg="http://www.w3.org/2000/svg"
   xmlns="http://www.w3.org/2000/svg"
   xmlns:inkscape="http://www.inkscape.org/namespaces/inkscape"
   version="1.1"
   width="342.06"
   height="342.04001"
   id="svg2"
   xml:space="preserve"><metadata
     id="metadata8"><rdf:RDF><cc:Work
         rdf:about=""><dc:format>image/svg+xml</dc:format><dc:type
           rdf:resource="http://purl.org/dc/dcmitype/StillImage" /></cc:Work></rdf:RDF></metadata><defs
     id="defs6"><clipPath
       id="clipPath20"><path
         d="M 0,273.65 H 273.65 V 0.02 L 0,0.015 v 273.64 z"
         inkscape:connector-curvature="0"
         id="path22" /></clipPath></defs><g
     transform="matrix(1.25,0,0,-1.25,0,342.06)"
     id="g10"><g
       transform="translate(136.82,273.15)"
       id="g12"><path
         d="m 0,0 c 75.289,0 136.32,-61.035 136.32,-136.32 0,-75.289 -61.034,-136.32 -136.32,-136.32 -75.289,0 -136.32,61.034 -136.32,136.32 C -136.32,-61.035 -75.289,0 0,0"
         inkscape:connector-curvature="0"
         id="path14"
         style="fill:#ffffff" /></g><g
       id="g16"><g
         clip-path="url(#clipPath20)"
         id="g18"><g
           transform="translate(136.82,273.15)"
           id="g24"><path
             d="m 0,0 c 75.289,0 136.32,-61.035 136.32,-136.32 0,-75.289 -61.034,-136.32 -136.32,-136.32 -75.289,0 -136.32,61.034 -136.32,136.32 C -136.32,-61.035 -75.289,0 0,0 z"
             inkscape:connector-curvature="0"
             id="path26"
             style="fill:none;stroke:#0079c1" /></g></g></g><g
       transform="translate(136.82,267.92)"
       id="g28"><path
         d="m 0,0 c 72.4,0 131.09,-58.694 131.09,-131.09 0,-72.4 -58.693,-131.09 -131.09,-131.09 -72.4,0 -131.09,58.693 -131.09,131.09 C -131.09,-58.694 -72.4,0 0,0"
         inkscape:connector-curvature="0"
         id="path30"
         style="fill:#0079c1" /></g><g
       transform="translate(87.039,78.583)"
       id="g32"><path
         d="m 0,0 c 5.043,0 9.13,-4.089 9.13,-9.132 0,-5.042 -4.087,-9.13 -9.13,-9.13 -5.043,0 -9.131,4.088 -9.131,9.13 C -9.131,-4.089 -5.043,0 0,0"
         inkscape:connector-curvature="0"
         id="path34"
         style="fill:#ffffff" /></g><g
       transform="translate(177.36,78.583)"
       id="g36"><path
         d="m 0,0 c 5.043,0 9.131,-4.089 9.131,-9.132 0,-5.042 -4.088,-9.13 -9.131,-9.13 -5.043,0 -9.131,4.088 -9.131,9.13 C -9.131,-4.089 -5.043,0 0,0"
         inkscape:connector-curvature="0"
         id="path38"
         style="fill:#ffffff" /></g><g
       transform="translate(188.38,66.63)"
       id="g40"><path
         d="m 0,0 c 0.233,0.904 0.355,1.845 0.355,2.821 0,6.284 -5.094,11.379 -11.378,11.379 -6.283,0 -11.378,-5.095 -11.378,-11.379 0,-0.971 0.122,-1.922 0.351,-2.821 h -68.272 c 0.232,0.904 0.355,1.845 0.355,2.821 0,6.284 -5.095,11.379 -11.378,11.379 -6.285,0 -11.379,-5.095 -11.379,-11.379 0,-0.971 0.122,-1.922 0.351,-2.821 h -24.698 c -5.115,0 -5.016,5.313 -5.016,5.313 v 18.029 c 0,1.986 2.334,2.185 2.334,2.185 l 0.795,23.093 c 0.147,4.468 3.526,3.974 3.526,3.974 h 163.05 c 7.152,0 10.976,-6.953 10.976,-11.026 V 7.449 L -0.002,0"
         inkscape:connector-curvature="0"
         id="path42"
         style="fill:#ffffff" /></g><g
       transform="translate(87.039,73.993)"
       id="g44"><path
         d="M 0,0 C 2.508,0 4.542,-2.033 4.542,-4.542 4.542,-7.05 2.508,-9.084 0,-9.084 c -2.509,0 -4.542,2.034 -4.542,4.542 C -4.542,-2.033 -2.509,0 0,0"
         inkscape:connector-curvature="0"
         id="path46"
         style="fill:#0079c1" /></g><g
       transform="translate(177.36,73.993)"
       id="g48"><path
         d="M 0,0 C 2.509,0 4.543,-2.033 4.543,-4.542 4.543,-7.05 2.509,-9.084 0,-9.084 c -2.508,0 -4.541,2.034 -4.541,4.542 C -4.541,-2.033 -2.508,0 0,0"
         inkscape:connector-curvature="0"
         id="path50"
         style="fill:#0079c1" /></g><g
       transform="translate(106.19,94.392)"
       id="g52"><path
         d="m 0,0 c 1.372,0 2.483,1.111 2.483,2.483 v 10.776 c 0,1.372 -1.111,2.485 -2.483,2.485 h -26.794 c -1.371,0 -2.483,-1.113 -2.483,-2.485 V 2.483 C -29.277,1.111 -28.165,0 -26.794,0 H 0"
         inkscape:connector-curvature="0"
         id="path54"
         style="fill:#0079c1" /></g><g
       transform="translate(66.43,72.225)"
       id="g56"><path
         d="m 0,0 c 1.372,0 2.483,1.112 2.483,2.483 v 32.943 c 0,1.372 -1.111,2.485 -2.483,2.485 h -6.375 c -1.372,0 -2.484,-1.113 -2.484,-2.485 V 2.483 C -8.859,1.112 -7.747,0 -6.375,0 H 0"
         inkscape:connector-curvature="0"
         id="path58"
         style="fill:#0079c1" /></g><g
       transform="translate(143.64,94.392)"
       id="g60"><path
         d="m 0,0 c 1.372,0 2.484,1.111 2.484,2.483 v 10.776 c 0,1.372 -1.112,2.485 -2.484,2.485 h -26.794 c -1.371,0 -2.483,-1.113 -2.483,-2.485 V 2.483 C -29.277,1.111 -28.165,0 -26.794,0 H 0"
         inkscape:connector-curvature="0"
         id="path62"
         style="fill:#0079c1" /></g><g
       transform="translate(180.84,94.392)"
       id="g64"><path
         d="m 0,0 c 1.371,0 2.483,1.111 2.483,2.483 v 10.776 c 0,1.372 -1.112,2.485 -2.483,2.485 h -26.795 c -1.371,0 -2.483,-1.113 -2.483,-2.485 V 2.483 C -29.278,1.111 -28.166,0 -26.795,0 H 0"
         inkscape:connector-curvature="0"
         id="path66"
         style="fill:#0079c1" /></g><g
       transform="translate(217.76,94.392)"
       id="g68"><path
         d="m 0,0 c 1.371,0 2.484,1.111 2.484,2.483 v 6.134 c 0,3.965 -3.229,7.127 -6.995,7.127 h -22.101 c -1.371,0 -2.483,-1.113 -2.483,-2.485 V 2.483 C -29.095,1.111 -27.983,0 -26.612,0 H 0"
         inkscape:connector-curvature="0"
         id="path70"
         style="fill:#0079c1" /></g><g
       transform="translate(169.46,159.26)"
       id="g72"><path
         d="m 0,0 c 0,0 0.373,-6.005 6.289,-6.005 5.915,0 6.288,6.005 6.288,6.005 h 8.474 c 0,0 0.373,-6.005 6.288,-6.005 5.916,0 6.288,6.005 6.288,6.005 h 9.007 V 2.949 H 57.876 V 30.342 L 52.76,50.753 c -1.012,4.05 -4.849,3.984 -4.849,3.984 h -59.743 l -1.812,1.825 c -1.465,1.432 -2.844,1.226 -2.844,1.226 h -12.238 l 14.976,10.659 -15.386,10.711 v 3.225 c 0,1.435 -1.164,2.6 -2.6,2.6 h -2.185 c -1.436,0 -2.601,-1.165 -2.601,-2.6 V 79.158 L -51.908,68.447 -36.933,57.788 H -49.17 c 0,0 -1.379,0.206 -2.845,-1.226 l -1.812,-1.825 h -59.741 c 0,0 -3.838,0.066 -4.85,-3.984 l -5.117,-20.411 V 2.949 h 15.243 V 0 h 9.006 c 0,0 0.373,-6.005 6.289,-6.005 5.916,0 6.289,6.005 6.289,6.005 h 8.473 c 0,0 0.373,-6.005 6.289,-6.005 5.915,0 6.288,6.005 6.288,6.005 h 65.66"
         inkscape:connector-curvature="0"
         id="path74"
         style="fill:#ffffff" /></g><g
       transform="translate(119.87,189.66)"
       id="g76"><path
         d="M 0,0 C 1.413,0 2.558,1.146 2.558,2.558 V 14.23 c 0,1.412 -1.145,2.558 -2.558,2.558 h -15.948 c -1.413,0 -2.558,-1.146 -2.558,-2.558 V 2.558 C -18.506,1.146 -17.361,0 -15.948,0 H 0"
         inkscape:connector-curvature="0"
         id="path78"
         style="fill:#0079c1" /></g><g
       transform="translate(62.904,189.66)"
       id="g80"><path
         d="M 0,0 C 1.413,0 2.558,1.146 2.558,2.558 V 14.23 c 0,1.412 -1.145,2.558 -2.558,2.558 l -4.394,-0.064 c -2.331,0 -2.621,-2.494 -2.621,-2.494 L -10.053,2.558 C -10.053,1.146 -8.907,0 -7.495,0 H 0"
         inkscape:connector-curvature="0"
         id="path82"
         style="fill:#0079c1" /></g><g
       transform="translate(95.01,165.3)"
       id="g84"><path
         d="m 0,0 c 1.413,0 2.558,1.145 2.558,2.558 v 36.026 c 0,1.413 -1.145,2.558 -2.558,2.558 h -6.985 c -1.412,0 -2.558,-1.145 -2.558,-2.558 V 2.558 C -9.543,1.145 -8.397,0 -6.985,0 H 0"
         inkscape:connector-curvature="0"
         id="path86"
         style="fill:#0079c1" /></g><g
       transform="translate(79.825,165.3)"
       id="g88"><path
         d="m 0,0 c 1.413,0 2.558,1.145 2.558,2.558 v 36.026 c 0,1.413 -1.145,2.558 -2.558,2.558 h -6.984 c -1.413,0 -2.558,-1.145 -2.558,-2.558 V 2.558 C -9.542,1.145 -8.397,0 -6.984,0 H 0"
         inkscape:connector-curvature="0"
         id="path90"
         style="fill:#0079c1" /></g><g
       transform="translate(136.63,238.16)"
       id="g92"><path
         d="M 0,0 14.976,-10.445 0,-21.104 -14.976,-10.445 0,0"
         inkscape:connector-curvature="0"
         id="path94"
         style="fill:#0079c1" /></g><g
       transform="translate(153.39,189.66)"
       id="g96"><path
         d="M 0,0 C -1.412,0 -2.557,1.146 -2.557,2.558 V 14.23 c 0,1.412 1.145,2.558 2.557,2.558 h 15.949 c 1.412,0 2.558,-1.146 2.558,-2.558 V 2.558 C 18.507,1.146 17.361,0 15.949,0 H 0"
         inkscape:connector-curvature="0"
         id="path98"
         style="fill:#0079c1" /></g><g
       transform="translate(210.35,189.66)"
       id="g100"><path
         d="M 0,0 C -1.413,0 -2.558,1.146 -2.558,2.558 V 14.23 c 0,1.412 1.145,2.558 2.558,2.558 l 4.393,-0.064 c 2.332,0 2.622,-2.494 2.622,-2.494 L 10.052,2.558 C 10.052,1.146 8.907,0 7.494,0 H 0"
         inkscape:connector-curvature="0"
         id="path102"
         style="fill:#0079c1" /></g><g
       transform="translate(178.25,165.3)"
       id="g104"><path
         d="m 0,0 c -1.414,0 -2.558,1.145 -2.558,2.558 v 36.026 c 0,1.413 1.144,2.558 2.558,2.558 h 6.984 c 1.414,0 2.559,-1.145 2.559,-2.558 V 2.558 C 9.543,1.145 8.398,0 6.984,0 H 0"
         inkscape:connector-curvature="0"
         id="path106"
         style="fill:#0079c1" /></g><g
       transform="translate(193.43,165.3)"
       id="g108"><path
         d="m 0,0 c -1.412,0 -2.558,1.145 -2.558,2.558 v 36.026 c 0,1.413 1.146,2.558 2.558,2.558 h 6.984 c 1.414,0 2.559,-1.145 2.559,-2.558 V 2.558 C 9.543,1.145 8.398,0 6.984,0 H 0"
         inkscape:connector-curvature="0"
         id="path110"
         style="fill:#0079c1" /></g><g
       transform="translate(144.6,189.66)"
       id="g112"><path
         d="M 0,0 C 1.413,0 2.559,1.146 2.559,2.558 V 14.23 c 0,1.412 -1.146,2.558 -2.559,2.558 h -15.934 c -1.413,0 -2.558,-1.146 -2.558,-2.558 V 2.558 C -18.492,1.146 -17.347,0 -15.934,0 H 0"
         inkscape:connector-curvature="0"
         id="path114"
         style="fill:#0079c1" /></g></g></svg>