<?xml version="1.0" encoding="UTF-8" standalone="no"?>
<!-- Created with Inkscape (http://www.inkscape.org/) -->

<svg
   xmlns:dc="http://purl.org/dc/elements/1.1/"
   xmlns:cc="http://creativecommons.org/ns#"
   xmlns:rdf="http://www.w3.org/1999/02/22-rdf-syntax-ns#"
   xmlns:svg="http://www.w3.org/2000/svg"
   xmlns="http://www.w3.org/2000/svg"
   xmlns:inkscape="http://www.inkscape.org/namespaces/inkscape"
   version="1.1"
   width="383.92001"
   height="279.07001"
   id="svg2"
   xml:space="preserve"><metadata
     id="metadata8"><rdf:RDF><cc:Work
         rdf:about=""><dc:format>image/svg+xml</dc:format><dc:type
           rdf:resource="http://purl.org/dc/dcmitype/StillImage" /></cc:Work></rdf:RDF></metadata><defs
     id="defs6"><clipPath
       id="clipPath16"><path
         d="M 0,223.27 H 307.14 V 0.01 H 0 v 223.26 z"
         inkscape:connector-curvature="0"
         id="path18" /></clipPath></defs><g
     transform="matrix(1.25,0,0,-1.25,0,279.09)"
     id="g10"><g
       id="g12"><g
         clip-path="url(#clipPath16)"
         id="g14"><g
           transform="translate(12.824,0)"
           id="g20"><path
             d="M 0,0 C -7.0605,0 -12.824,5.765 -12.824,12.82 V 210.6 c 0,7.059 5.7635,12.676 12.824,12.676 h 281.64 c 6.918,0 12.683,-5.617 12.683,-12.676 V 12.82 C 294.333,5.765 288.563,0 281.643,0 H 0.003"
             inkscape:connector-curvature="0"
             id="path22"
             style="fill:#231f20;fill-rule:evenodd" /></g></g></g><g
       transform="translate(294.47,6.484)"
       id="g24"><path
         d="m 0,0 c 3.461,0 6.344,2.879 6.344,6.336 v 197.78 c 0,3.461 -2.883,6.34 -6.344,6.34 h -281.64 c -3.605,0 -6.484,-2.879 -6.484,-6.34 V 6.336 c 0,-3.457 2.879,-6.336 6.484,-6.336 L 0,-0.004"
         inkscape:connector-curvature="0"
         id="path26"
         style="fill:#ffffff;fill-rule:evenodd" /></g><g
       transform="translate(151.99,191.01)"
       id="g28"><path
         d="m 0,0 v -10.227 h -4.756 v 17.43 l -7.205,-10.082 -7.343,10.082 v -17.43 h -4.469 v 23.911 h 5.765 l 6.047,-8.5 5.908,8.5 H 0 V 0"
         inkscape:connector-curvature="0"
         id="path30"
         style="fill:#231f20;fill-rule:evenodd" /></g><g
       transform="translate(222.44,184.67)"
       id="g32"><path
         d="M 0,0 3.457,3.461 C 7.925,0.289 11.523,0 12.39,0 c 1.297,0 2.594,1.297 2.594,2.742 0,1.582 -1.156,2.305 -1.875,2.59 -0.863,0.145 -4.176,0.863 -5.469,1.152 -1.297,0.29 -5.765,1.442 -5.765,6.77 0,5.332 3.746,7.203 8.066,7.203 4.324,0 7.492,-1.297 10.23,-3.742 l -3.312,-3.172 c -1.727,1.297 -3.891,2.305 -7.203,2.305 -2.016,0 -2.305,-1.731 -2.305,-2.305 0,-0.723 0.43,-2.019 1.727,-2.305 1.152,-0.289 4.609,-1.152 5.043,-1.152 1.441,-0.145 6.05,-2.016 6.05,-7.059 0,-4.464 -2.882,-7.488 -8.5,-7.488 C 6.195,-4.461 1.875,-1.726 0,0"
         inkscape:connector-curvature="0"
         id="path34"
         style="fill:#231f20;fill-rule:evenodd" /></g><g
       transform="translate(257.02,188.56)"
       id="g36"><path
         d="m 0,0 v -3.316 c 0,-1.297 -2.594,-1.153 -2.883,-1.153 -0.434,0 -3.172,0 -3.172,2.016 C -6.055,-0.145 -2.735,0 0,0 m 4.464,-3.172 v 8.93 c 0,2.305 -2.304,4.031 -6.91,4.031 -3.75,0 -6.343,-1.582 -7.207,-2.16 L -7.782,4.32 c 1.442,1.008 4.61,1.582 5.907,1.582 C -0.578,5.902 0,4.895 0,4.461 V 3.453 c -1.586,0 -5.332,-0.719 -6.774,-1.152 -1.437,-0.574 -3.742,-1.438 -3.742,-4.899 0,-3.457 3.453,-5.617 6.914,-5.617 3.024,0 4.031,1.731 4.031,1.731 0,0 1.586,-1.871 4.18,-1.871 l 1.73,3.453 C 4.32,-4.469 4.464,-3.75 4.464,-3.172"
         inkscape:connector-curvature="0"
         id="path38"
         style="fill:#231f20;fill-rule:evenodd" /></g><g
       transform="translate(193.05,192.02)"
       id="g40"><path
         d="m 0,0 v -11.234 h -4.467 v 10.66 c 0,1.297 -1.008,2.59 -2.881,2.59 -1.875,0 -3.603,-1.582 -3.603,-3.887 v -9.363 h -4.465 V 5.762 h 4.465 V 4.609 c 0,0 1.871,1.586 4.324,1.586 C -2.74,6.195 0,3.027 0,0"
         inkscape:connector-curvature="0"
         id="path42"
         style="fill:#231f20;fill-rule:evenodd" /></g><g
       transform="translate(165.39,194.61)"
       id="g44"><path
         d="m 0,0 c -1.871,0 -3.887,-1.727 -3.887,-5.473 0,-3.746 2.016,-5.476 3.887,-5.476 1.877,0 3.892,1.73 3.892,5.476 C 3.892,-1.727 1.877,0 0,0 m 0,3.887 c -4.176,0 -8.356,-3.453 -8.356,-9.36 0,-5.906 4.18,-9.218 8.356,-9.218 4.181,0 8.357,3.312 8.357,9.218 0,5.907 -4.176,9.36 -8.357,9.36"
         inkscape:connector-curvature="0"
         id="path46"
         style="fill:#231f20;fill-rule:evenodd" /></g><g
       transform="translate(277.33,181.21)"
       id="g48"><path
         d="M 0,0 -0.719,3.742 C -3.89,2.734 -4.75,3.598 -4.75,4.316 v 8.5 h 4.461 v 3.891 H -4.75 v 6.629 l -4.328,-1.152 v -5.477 h -2.734 v -3.891 h 2.734 V 2.879 c 0,-2.16 1.297,-3.887 4.613,-3.887 2.305,0 4.032,0.863 4.465,1.008"
         inkscape:connector-curvature="0"
         id="path50"
         style="fill:#231f20;fill-rule:evenodd" /></g><g
       transform="translate(207.6,189.14)"
       id="g52"><path
         d="M 0,0 V 3.602"
         inkscape:connector-curvature="0"
         id="path54"
         style="fill:none;stroke:#231f20;stroke-width:7.4920001;stroke-miterlimit:10" /></g><g
       transform="translate(188.01,154.13)"
       id="g56"><path
         d="m 0,0 v -11.668 h -4.324 v 10.516 c 0,1.586 -1.297,2.738 -2.737,2.738 -1.295,0 -2.879,-1.152 -2.879,-3.313 v -9.941 h -4.468 v 10.516 c 0,1.586 -1.297,2.738 -2.592,2.738 -1.153,0 -3.024,-0.867 -3.024,-3.313 v -9.941 h -4.468 V 5.473 h 4.468 V 4.465 c 0,0 1.584,1.152 4.463,1.152 2.592,0 4.18,-1.73 4.18,-1.73 -0.143,0 1.728,2.019 4.609,2.019 C -2.305,5.906 0,2.734 0,0"
         inkscape:connector-curvature="0"
         id="path58"
         style="fill:#231f20;fill-rule:evenodd" /></g><g
       transform="translate(246.64,152.98)"
       id="g60"><path
         d="m 0,0 v -3.172 c 0,-1.726 1.156,-3.457 3.746,-3.457 2.593,0 4.035,2.305 4.035,5.047 0,2.734 -1.442,5.039 -4.035,5.039 C 1.156,3.457 0,1.586 0,0 M 0,5.906 V 6.625 H -4.465 V -15.414 H 0 v 6.195 c 0,0 1.445,-1.73 4.609,-1.73 6.055,0 7.781,6.48 7.781,9.222 0,2.161 -0.863,4.606 -2.16,6.047 C 8.937,5.906 7.203,7.199 4.468,7.199 2.882,7.199 1.156,6.625 0,5.906"
         inkscape:connector-curvature="0"
         id="path62"
         style="fill:#231f20;fill-rule:evenodd" /></g><g
       transform="translate(224.17,162.05)"
       id="g64"><path
         d="M 0,0 H 3.598 L -4.32,-19.59 H 0.719 L 8.645,-0.145 V 4.324 H -7.781 V 0 H 0"
         inkscape:connector-curvature="0"
         id="path66"
         style="fill:#231f20;fill-rule:evenodd" /></g><g
       transform="translate(124.76,156.73)"
       id="g68"><path
         d="M 0,0 C -1.877,0 -3.748,0.863 -3.748,2.879 -3.748,4.75 -1.733,5.762 0,5.762 1.728,5.762 3.599,4.75 3.599,2.879 3.599,0.863 1.728,0 0,0 m 0,-10.375 c -2.596,0 -4.325,1.152 -4.325,3.168 0,2.164 2.016,3.031 4.325,3.031 2.16,0 4.32,-0.867 4.32,-3.031 0,-2.016 -1.873,-3.168 -4.32,-3.168 M 0,9.938 c 3.888,0 8.644,-1.872 8.644,-7.204 0,-3.742 -2.885,-4.464 -2.885,-4.464 0,0 3.604,-0.864 3.604,-5.618 0,-4.609 -3.891,-7.347 -9.363,-7.347 -5.621,0 -9.508,2.738 -9.508,7.347 0,4.754 3.455,5.618 3.455,5.618 0,0 -2.736,0.722 -2.736,4.464 0,5.332 4.752,7.204 8.789,7.204"
         inkscape:connector-curvature="0"
         id="path70"
         style="fill:#231f20;fill-rule:evenodd" /></g><g
       transform="translate(154.01,150.25)"
       id="g72"><path
         d="m 0,0 v -3.172 c 0,-1.297 -2.449,-1.297 -2.881,-1.297 -0.432,0 -3.027,0 -3.027,2.016 C -5.908,-0.148 -2.737,0 0,0 m 4.467,-3.172 v 8.93 c 0,2.305 -2.164,4.035 -6.916,4.035 -3.604,0 -6.196,-1.586 -7.059,-2.16 L -7.637,4.32 c 1.44,1.008 4.613,1.582 5.764,1.582 C -0.576,5.902 0,5.039 0,4.465 V 3.457 c -1.44,0 -5.188,-0.723 -6.772,-1.152 -1.297,-0.434 -3.601,-1.442 -3.601,-4.903 0,-3.312 3.457,-5.617 6.916,-5.617 3.025,0 4.033,1.731 4.033,1.731 0,0 1.439,-1.731 4.035,-1.871 l 1.873,3.597 c -2.16,0.289 -2.017,1.153 -2.017,1.586"
         inkscape:connector-curvature="0"
         id="path74"
         style="fill:#231f20;fill-rule:evenodd" /></g><g
       transform="translate(202.78,150.96)"
       id="g76"><path
         d="M 0,0 V 3.602"
         inkscape:connector-curvature="0"
         id="path78"
         style="fill:none;stroke:#231f20;stroke-width:7.34800005;stroke-miterlimit:10" /></g><g
       transform="translate(287.27,154.13)"
       id="g80"><path
         d="m 0,0 v -11.668 h -4.321 v 10.516 c 0,1.586 -1.293,2.738 -2.59,2.738 -1.441,0 -3.027,-1.152 -3.027,-3.313 v -9.941 h -4.465 v 10.516 c 0,1.586 -1.293,2.738 -2.449,2.738 -1.297,0 -3.172,-0.867 -3.172,-3.313 v -9.941 h -4.32 V 5.473 h 4.32 V 4.465 c 0,0 1.586,1.152 4.469,1.152 2.594,0 4.176,-1.73 4.176,-1.73 0,0 1.871,2.019 4.754,2.019 C -2.305,5.906 0,2.734 0,0"
         inkscape:connector-curvature="0"
         id="path82"
         style="fill:#231f20;fill-rule:evenodd" /></g><g
       transform="translate(223.45,99.972)"
       id="g84"><path
         d="M 0,0 V 16.996"
         inkscape:connector-curvature="0"
         id="path86"
         style="fill:none;stroke:#231f20;stroke-width:4.32399988;stroke-miterlimit:10" /></g><g
       transform="translate(223.3,123.78)"
       id="g88"><path
         d="m 0,0 c 1.351,0 2.445,-1.098 2.445,-2.45 0,-1.351 -1.094,-2.445 -2.445,-2.445 -1.352,0 -2.449,1.094 -2.449,2.445 C -2.449,-1.098 -1.352,0 0,0"
         inkscape:connector-curvature="0"
         id="path90"
         style="fill:#231f20;fill-rule:evenodd" /></g><g
       transform="translate(249.23,102.71)"
       id="g92"><path
         d="m 0,0 3.313,2.879 c 1.152,-1.441 3.75,-2.593 4.898,-2.593 1.297,0 2.305,0.863 2.305,1.73 0,0.863 -0.719,1.293 -1.297,1.438 -0.574,0.144 -2.875,0.722 -3.312,0.863 -0.43,0 -4.465,0.723 -4.465,4.898 0,4.18 4.465,5.332 7.058,5.332 2.735,0 5.047,-0.863 6.918,-2.593 L 12.68,8.926 c -1.586,1.442 -2.738,2.02 -4.035,2.02 -1.441,0 -2.449,-0.578 -2.449,-1.586 0,-1.008 0.722,-1.152 1.156,-1.297 0.43,0 3.309,-0.578 3.883,-0.719 0.722,-0.289 4.039,-1.297 4.039,-5.187 0,-3.887 -3.602,-5.473 -7.203,-5.473 C 4.61,-3.316 1.153,-1.441 0,0"
         inkscape:connector-curvature="0"
         id="path94"
         style="fill:#231f20;fill-rule:evenodd" /></g><g
       transform="translate(143.06,114.81)"
       id="g96"><path
         d="m 0,0 h -4.899 c -0.144,4.32 2.447,9.649 9.651,9.649 7.205,0 8.644,-6.192 8.644,-8.352 0,-2.16 -0.144,-6.34 -9.076,-11.812 h 8.932 V -14.84 H -4.036 v 4.469 C 3.457,-5.187 8.5,-2.594 8.5,1.008 8.5,3.024 6.773,5.184 4.033,5.184 1.441,5.184 0,2.594 0,0"
         inkscape:connector-curvature="0"
         id="path98"
         style="fill:#231f20;fill-rule:evenodd" /></g><g
       transform="translate(170.86,119.42)"
       id="g100"><path
         d="M 0,0 C 2.592,0 5.045,-1.442 5.188,-7.637 5.188,-13.829 2.881,-15.7 0,-15.7 c -2.879,0 -5.187,1.871 -5.043,8.063 C -5.043,-1.442 -2.447,0 0,0 m 0,4.464 c 3.457,0 10.084,-1.875 10.084,-12.246 0,-10.367 -6.34,-12.386 -10.084,-12.386 -3.744,0 -10.084,2.019 -10.084,12.386 0,10.371 6.629,12.246 10.084,12.246"
         inkscape:connector-curvature="0"
         id="path102"
         style="fill:#231f20;fill-rule:evenodd" /></g><g
       transform="translate(216.1,111.49)"
       id="g104"><path
         d="m 0,0 v -11.524 h -4.321 v 10.371 c 0,1.731 -1.297,2.887 -2.742,2.887 -1.297,0 -2.879,-1.301 -2.879,-3.461 v -9.797 h -4.469 v 10.516 c 0,1.586 -1.296,2.742 -2.447,2.742 -1.297,0 -3.168,-1.012 -3.168,-3.316 v -9.942 h -4.469 V 5.621 h 4.469 V 4.468 c 0,0 1.584,1.297 4.463,1.297 2.596,0 4.18,-1.73 4.18,-1.73 0,0 1.726,1.875 4.75,1.875 C -2.305,5.91 0,2.886 0,0"
         inkscape:connector-curvature="0"
         id="path106"
         style="fill:#231f20;fill-rule:evenodd" /></g><g
       transform="translate(245.92,111.21)"
       id="g108"><path
         d="m 0,0 v -11.239 h -4.469 v 10.66 c 0,1.297 -1.008,2.598 -2.875,2.598 -1.875,0 -3.609,-1.59 -3.609,-3.894 v -9.364 h -4.461 v 17 h 4.461 V 4.609 c 0,0 1.879,1.586 4.328,1.586 C -2.738,6.195 0,3.027 0,0"
         inkscape:connector-curvature="0"
         id="path110"
         style="fill:#231f20;fill-rule:evenodd" /></g><g
       transform="translate(17,187.55)"
       id="g112"><path
         d="M 0,0 C 0,3.336 2.711,6.047 6.051,6.047 H 78.947 C 82.264,6.047 85,3.309 85,0 v -72.89 c 0,-3.457 -2.736,-6.196 -6.053,-6.196 H 6.051 C 2.74,-79.086 0,-76.347 0,-72.89 V 0"
         inkscape:connector-curvature="0"
         id="path114"
         style="fill:#0079c1;fill-rule:evenodd" /></g><g
       transform="translate(68,171.99)"
       id="g116"><path
         d="m 0,0 h -15.129 v -18.289 h 14.984 v 0.141 c 3.581,0 6.485,2.839 6.485,6.336 L 6.484,-6.48 C 6.484,-2.902 3.58,0 0,0 M -28.668,10.516 H 6.34 v -0.145 c 7.476,0 13.539,-6.062 13.539,-13.539 L 19.736,-15.41 c 0,-7.426 -5.912,-13.461 -13.256,-13.539 h 0.004 -21.613 v -25.356 h -13.539 v 64.821 -39.465"
         inkscape:connector-curvature="0"
         id="path118"
         style="fill:#ffffff;fill-rule:evenodd" /></g><g
       transform="translate(78.947,79.085)"
       id="g120"><path
         d="M 0,0 H 1.877 L 13.545,-16.281 V 0 h 4.607 V -23.769 H 12.824 L 2.019,-7.492 V -23.769 H -2.592 V 0 H 0"
         inkscape:connector-curvature="0"
         id="path122"
         style="fill:#231f20;fill-rule:evenodd" /></g><g
       transform="translate(151.42,65.546)"
       id="g124"><path
         d="M 0,0 H 6.772 C 6.772,1.582 5.615,3.454 3.455,3.454 1.295,3.454 0,1.727 0,0 m 0,-3.316 h 11.236 c 0.143,2.164 -0.72,10.66 -7.925,10.66 -6.34,0 -7.78,-6.769 -7.78,-8.93 0,-2.164 1.297,-9.218 8.356,-9.218 3.892,0 6.052,2.304 6.484,2.879 l -2.736,2.734 c 0,0 -1.156,-1.582 -3.748,-1.582 C 1.295,-6.773 0,-5.046 0,-3.316"
         inkscape:connector-curvature="0"
         id="path126"
         style="fill:#231f20;fill-rule:evenodd" /></g><g
       transform="translate(143.64,68.57)"
       id="g128"><path
         d="m 0,0 v 4.176 c -4.18,0 -4.899,-1.008 -5.908,-2.016 v 1.582 h -4.463 v -16.996 h 4.463 v 8.5 C -5.908,-2.16 -3.028,0 0,0"
         inkscape:connector-curvature="0"
         id="path130"
         style="fill:#231f20;fill-rule:evenodd" /></g><g
       transform="translate(192.33,56.613)"
       id="g132"><path
         d="M 0,0 V -1.297 H 4.467 V 15.844 H 0 V 6.336 C 0,3.742 -2.16,2.449 -3.744,2.449 c -1.729,0 -2.736,1.293 -2.736,2.879 v 10.516 h -4.325 V 4.32 c 0,-3.168 2.592,-5.906 6.196,-5.906 2.304,0 4.033,1.012 4.609,1.586"
         inkscape:connector-curvature="0"
         id="path134"
         style="fill:#231f20;fill-rule:evenodd" /></g><g
       transform="translate(110.5,69.144)"
       id="g136"><path
         d="m 0,0 c -1.873,0 -3.889,-1.726 -3.889,-5.473 0,-3.746 2.016,-5.476 3.889,-5.476 1.727,0 3.887,1.73 3.887,5.476 C 3.887,-1.726 1.871,0 0,0 m 0,3.887 c -4.176,0 -8.357,-3.453 -8.357,-9.36 0,-5.906 4.037,-9.218 8.357,-9.218 4.18,0 8.211,3.312 8.211,9.218 0,5.907 -4.18,9.36 -8.211,9.36"
         inkscape:connector-curvature="0"
         id="path138"
         style="fill:#231f20;fill-rule:evenodd" /></g><g
       transform="translate(177.35,55.75)"
       id="g140"><path
         d="M 0,0 -0.864,3.742 C -3.893,2.734 -4.756,3.597 -4.756,4.32 v 8.5 h 4.467 v 3.742 h -4.467 v 6.773 l -4.465,-1.296 v -5.477 h -2.74 V 12.82 h 2.74 V 2.878 c 0,-2.16 1.441,-3.886 4.609,-3.886 2.448,0 4.035,0.718 4.612,1.008"
         inkscape:connector-curvature="0"
         id="path142"
         style="fill:#231f20;fill-rule:evenodd" /></g><g
       transform="translate(211.35,68.57)"
       id="g144"><path
         d="m 0,0 v 4.176 c -4.035,0 -4.754,-1.008 -5.762,-2.016 v 1.582 h -4.471 v -16.996 h 4.471 v 8.5 C -5.762,-2.16 -3.028,0 0,0"
         inkscape:connector-curvature="0"
         id="path146"
         style="fill:#231f20;fill-rule:evenodd" /></g><g
       transform="translate(230.94,66.41)"
       id="g148"><path
         d="m 0,0 v -11.094 h -4.469 v 10.66 c 0,1.297 -1.008,2.594 -2.875,2.594 -1.875,0 -3.602,-1.586 -3.602,-3.891 v -9.363 H -15.27 V 5.902 h 4.324 V 4.75 c 0,0 1.871,1.586 4.321,1.586 C -2.59,6.336 0,3.168 0,0"
         inkscape:connector-curvature="0"
         id="path150"
         style="fill:#231f20;fill-rule:evenodd" /></g><g
       transform="translate(89.611,37.453)"
       id="g152"><path
         d="M 0,0 V 7.636 H -4.469 V -16.278 H 0 v 10.231 c 0,1.582 1.439,3.023 3.024,3.023 1.584,0 3.312,-1.152 3.312,-3.023 V -16.278 H 10.66 V -4.61 c 0,3.457 -3.023,5.762 -6.195,5.762 C 1.584,1.152 0.576,0.289 0,0"
         inkscape:connector-curvature="0"
         id="path154"
         style="fill:#231f20;fill-rule:evenodd" /></g><g
       transform="translate(52.008,21.32)"
       id="g156"><path
         d="M 0,0 H 1.439 L 6.195,16.996 H 1.439 L -1.152,5.91 -4.033,16.996 H -8.5 l -2.736,-11.231 -2.737,11.231 h -4.756 L -13.973,0 h 5.328 L -6.049,10.515 -3.312,0 H 0"
         inkscape:connector-curvature="0"
         id="path158"
         style="fill:#231f20;fill-rule:evenodd" /></g><g
       transform="translate(156.89,31.98)"
       id="g160"><path
         d="M 0,0 V -2.305 H -7.635 L 0,7.781 V 0 z M 4.756,0.289 V -2.305 H 7.781 V -6.484 H 4.756 V -10.66 H 0 v 4.176 h -12.963 v 4.179 L -1.295,13.109 H 4.756 V 0.289"
         inkscape:connector-curvature="0"
         id="path162"
         style="fill:#231f20;fill-rule:evenodd" /></g><g
       transform="translate(63.752,21.175)"
       id="g164"><path
         d="M 0,0 V 17.141"
         inkscape:connector-curvature="0"
         id="path166"
         style="fill:none;stroke:#231f20;stroke-width:4.46799994;stroke-miterlimit:10" /></g><g
       transform="translate(63.576,45.066)"
       id="g168"><path
         d="m 0,0 c 1.351,0 2.447,-1.098 2.447,-2.449 0,-1.352 -1.096,-2.449 -2.447,-2.449 -1.354,0 -2.449,1.097 -2.449,2.449 C -2.449,-1.098 -1.354,0 0,0"
         inkscape:connector-curvature="0"
         id="path170"
         style="fill:#231f20;fill-rule:evenodd" /></g><g
       transform="translate(81.687,21.753)"
       id="g172"><path
         d="m 0,0 -0.721,3.598 c -3.172,-0.863 -4.035,0 -4.035,0.723 v 8.5 h 4.469 v 3.742 h -4.469 v 6.773 l -4.32,-1.296 v -5.477 h -2.74 v -3.742 h 2.74 V 2.735 c 0,-2.016 1.297,-3.742 4.607,-3.742 2.305,0 4.037,0.718 4.469,1.007"
         inkscape:connector-curvature="0"
         id="path174"
         style="fill:#231f20;fill-rule:evenodd" /></g><g
       transform="translate(107.62,21.175)"
       id="g176"><path
         d="M 0,0 V 17.141"
         inkscape:connector-curvature="0"
         id="path178"
         style="fill:none;stroke:#231f20;stroke-width:4.32399988;stroke-miterlimit:10" /></g><g
       transform="translate(107.5,45.066)"
       id="g180"><path
         d="m 0,0 c 1.352,0 2.447,-1.098 2.447,-2.449 0,-1.352 -1.095,-2.449 -2.447,-2.449 -1.353,0 -2.449,1.097 -2.449,2.449 C -2.449,-1.098 -1.353,0 0,0"
         inkscape:connector-curvature="0"
         id="path182"
         style="fill:#231f20;fill-rule:evenodd" /></g><g
       transform="translate(130.09,32.414)"
       id="g184"><path
         d="m 0,0 v -11.094 h -4.465 v 10.66 c 0,1.297 -1.008,2.594 -2.883,2.594 -1.873,0 -3.601,-1.731 -3.601,-4.031 v -9.223 h -4.319 V 5.902 h 4.319 V 4.605 c 0,0 1.873,1.731 4.324,1.731 C -2.737,6.336 0,3.023 0,0"
         inkscape:connector-curvature="0"
         id="path186"
         style="fill:#231f20;fill-rule:evenodd" /></g><g
       transform="translate(179.22,40.769)"
       id="g188"><path
         d="m 0,0 c 2.592,0 5.041,-1.441 5.189,-7.637 0,-6.191 -2.308,-8.066 -5.189,-8.066 -2.735,0 -5.188,1.875 -5.043,8.066 C -5.043,-1.441 -2.448,0 0,0 m 0,4.465 c 3.457,0 10.084,-2.016 10.084,-12.246 0,-10.371 -6.196,-12.531 -10.084,-12.531 -3.748,0 -9.94,2.16 -9.94,12.531 0,10.23 6.629,12.246 9.94,12.246"
         inkscape:connector-curvature="0"
         id="path190"
         style="fill:#231f20;fill-rule:evenodd" /></g><g
       transform="translate(231.73,21.175)"
       id="g192"><path
         d="M 0,0 V 17.141"
         inkscape:connector-curvature="0"
         id="path194"
         style="fill:none;stroke:#231f20;stroke-width:4.46799994;stroke-miterlimit:10" /></g><g
       transform="translate(231.52,45.066)"
       id="g196"><path
         d="m 0,0 c 1.351,0 2.445,-1.098 2.445,-2.449 0,-1.352 -1.094,-2.449 -2.445,-2.449 -1.352,0 -2.446,1.097 -2.446,2.449 C -2.446,-1.098 -1.352,0 0,0"
         inkscape:connector-curvature="0"
         id="path198"
         style="fill:#231f20;fill-rule:evenodd" /></g><g
       transform="translate(257.44,24.058)"
       id="g200"><path
         d="M 0,0 3.313,2.883 C 4.469,1.438 7.207,0.285 8.36,0.285 c 1.148,0 2.156,0.867 2.156,1.731 0,0.867 -0.574,1.156 -1.148,1.441 C 8.649,3.602 6.485,4.18 6.055,4.18 5.477,4.324 1.442,5.043 1.442,9.219 c 0,4.176 4.468,5.328 7.207,5.328 2.59,0 5.039,-0.863 6.914,-2.594 L 12.68,8.93 c -1.586,1.441 -2.738,2.015 -4.031,2.015 -1.297,0 -2.453,-0.574 -2.453,-1.582 0,-1.007 0.867,-1.152 1.297,-1.296 0.289,0 3.171,-0.719 3.89,-0.864 0.578,-0.144 4.035,-1.152 4.035,-5.043 0,-4.035 -3.746,-5.617 -7.203,-5.617 C 4.61,-3.457 1.157,-1.586 0,0"
         inkscape:connector-curvature="0"
         id="path202"
         style="fill:#231f20;fill-rule:evenodd" /></g><g
       transform="translate(224.45,32.843)"
       id="g204"><path
         d="m 0,0 v -11.668 h -4.32 v 10.516 c 0,1.73 -1.297,2.883 -2.738,2.883 -1.293,0 -2.879,-1.297 -2.879,-3.457 v -9.942 h -4.469 v 10.66 c 0,1.586 -1.297,2.739 -2.445,2.739 -1.297,0 -3.172,-1.008 -3.172,-3.313 v -10.086 h -4.323 V 5.473 h 4.323 V 4.465 c 0,0 1.586,1.297 4.465,1.297 2.597,0 4.183,-1.727 4.183,-1.727 0,0 1.727,1.872 4.606,1.872 C -2.301,5.907 0,2.883 0,0"
         inkscape:connector-curvature="0"
         id="path206"
         style="fill:#231f20;fill-rule:evenodd" /></g><g
       transform="translate(254.13,32.414)"
       id="g208"><path
         d="m 0,0 v -11.094 h -4.32 v 10.66 c 0,1.297 -1.008,2.594 -2.883,2.594 -1.875,0 -3.602,-1.731 -3.602,-4.031 v -9.223 H -15.27 V 5.902 h 4.465 V 4.605 c 0,0 1.727,1.731 4.324,1.731 C -2.594,6.336 0,3.023 0,0"
         inkscape:connector-curvature="0"
         id="path210"
         style="fill:#231f20;fill-rule:evenodd" /></g></g></svg>