<?xml version="1.0" encoding="UTF-8" standalone="no"?>
<!-- Created with Inkscape (http://www.inkscape.org/) -->
<svg xmlns:dc="http://purl.org/dc/elements/1.1/" xmlns:cc="http://creativecommons.org/ns#" xmlns:rdf="http://www.w3.org/1999/02/22-rdf-syntax-ns#" xmlns:svg="http://www.w3.org/2000/svg" xmlns="http://www.w3.org/2000/svg" xmlns:inkscape="http://www.inkscape.org/namespaces/inkscape" version="1.1" width="218.39999" height="139.49001" id="svg2" xml:space="preserve"><metadata id="metadata8"><rdf:RDF><cc:Work rdf:about=""><dc:format>image/svg+xml</dc:format><dc:type rdf:resource="http://purl.org/dc/dcmitype/StillImage"/></cc:Work></rdf:RDF></metadata><defs id="defs6"><clipPath id="clipPath20"><path d="M 0.014999,111.6 H 174.735 V 0.01 H 0.014999 V 111.6 z" inkscape:connector-curvature="0" id="path22"/></clipPath></defs><g transform="matrix(1.25,0,0,-1.25,-0.018749,139.5)" id="g10"><g transform="translate(174.24,11.865)" id="g12"><path d="m 0,0 c 0,-6.2767 -5.088,-11.365 -11.364,-11.365 h -151.01 c -6.276,0 -11.364,5.0883 -11.364,11.365 v 87.876 c 0,6.275 5.088,11.363 11.364,11.363 h 151.01 c 6.272,0 11.36,-5.088 11.36,-11.363 V 0" inkscape:connector-curvature="0" id="path14" style="fill:#ffffff"/></g><g id="g16"><g clip-path="url(#clipPath20)" id="g18"><g transform="translate(174.24,11.865)" id="g24"><path d="m 0,0 c 0,-6.2767 -5.088,-11.365 -11.364,-11.365 h -151.01 c -6.276,0 -11.364,5.0883 -11.364,11.365 v 87.876 c 0,6.275 5.088,11.363 11.364,11.363 h 151.01 c 6.272,0 11.36,-5.088 11.36,-11.363 V 0 z" inkscape:connector-curvature="0" id="path26" style="fill:none;stroke:#0079c1"/></g></g></g><g transform="translate(168.88,11.865)" id="g28"><path d="m 0,0 c 0,-3.3197 -2.69,-6.0107 -6.01,-6.0107 h -151.01 c -3.319,0 -6.01,2.691 -6.01,6.0107 v 87.876 c 0,3.319 2.691,6.01 6.01,6.01 H -6.01 c 3.32,0 6.01,-2.691 6.01,-6.01 V 0" inkscape:connector-curvature="0" id="path30" style="fill:#0079c1"/></g><g transform="translate(25.485,77.897)" id="g32"><path d="M 0,0 C 3.208,0 4.354,3.065 4.354,5.185 V 17.418 H 7.678 V 4.612 C 7.678,0.516 4.669,-3.065 0,-3.065 c -4.584,0 -7.964,3.179 -7.964,7.677 v 12.806 h 3.38 V 5.185 C -4.584,2.349 -2.579,0 0,0" inkscape:connector-curvature="0" id="path34" style="fill:#ffffff"/></g><g transform="translate(50.18,85.145)" id="g36"><path d="m 0,0 v -9.913 h -3.151 v 9.226 c 0,0.515 -0.774,2.377 -2.521,2.377 -1.576,0 -2.951,-1.518 -2.951,-2.979 V -9.913 H -11.86 V 4.383 h 3.237 V 3.094 c 1.06,1.633 3.925,1.633 3.925,1.633 C -2.435,4.727 0,2.636 0,0" inkscape:connector-curvature="0" id="path38" style="fill:#ffffff"/></g><g transform="translate(56.552,85.604)" id="g40"><path d="m 0,0 c 0,-0.716 0.831,-1.261 2.091,-1.519 2.55,-0.515 2.206,-0.486 2.98,-0.802 1.576,-0.573 2.521,-1.776 2.521,-3.753 0,-2.378 -1.977,-4.641 -5.129,-4.641 -2.177,0 -3.609,0.43 -6.331,2.607 l 2.035,2.034 c 1.403,-1.289 2.492,-1.719 3.896,-1.719 1.518,0 2.349,0.459 2.349,1.519 0,1.06 -0.573,1.06 -3.553,1.919 -3.581,1.032 -3.896,2.922 -3.896,4.297 0,1.977 1.461,4.47 5.587,4.47 0,0 3.008,0 4.956,-2.063 L 5.787,0.171 C 4.326,1.633 2.492,1.633 2.492,1.633 1.002,1.633 0,0.945 0,0" inkscape:connector-curvature="0" id="path42" style="fill:#ffffff"/></g><g transform="translate(67.95,79.587)" id="g44"><path d="M 0,0 V 9.826 H 3.123 V 0.659 c 0,-0.86 0.429,-2.493 2.521,-2.493 1.546,0 2.922,1.662 2.922,3.094 v 8.566 h 3.208 V -4.355 H 8.566 v 1.29 C 7.563,-4.785 4.727,-4.785 4.727,-4.785 1.834,-4.785 0,-2.922 0,0" inkscape:connector-curvature="0" id="path46" style="fill:#ffffff"/></g><path d="m 84.295,75.232 h 3.1514 V 89.556 H 84.295 V 75.232 z" inkscape:connector-curvature="0" id="path48" style="fill:#ffffff"/><g transform="translate(83.923,93.424)" id="g50"><path d="M 0,0 C 0,1.003 0.888,1.919 1.891,1.919 3.008,1.919 3.868,1.031 3.868,0 3.868,-1.117 3.008,-1.977 1.919,-1.977 0.888,-1.977 0,-1.117 0,0" inkscape:connector-curvature="0" id="path52" style="fill:#ffffff"/></g><g transform="translate(93.498,89.557)" id="g54"><path d="M 0,0 V 4.555 L 3.123,5.816 V 0 H 6.82 V -2.578 H 3.123 v -7.363 c 0,-1.146 0.517,-1.633 1.404,-1.633 0,0 1.318,0 2.062,0.315 l 0.258,-2.807 c -1.489,-0.372 -3.266,-0.372 -3.266,-0.372 -2.578,0 -3.581,1.26 -3.581,4.354 v 7.506 H -2.521 V 0 H 0" inkscape:connector-curvature="0" id="path56" style="fill:#ffffff"/></g><g transform="translate(108.06,75.003)" id="g58"><path d="m 0,0 c -2.837,0 -5.329,2.034 -5.329,4.669 0,1.72 1.519,4.012 4.641,4.355 l 3.896,0.43 v 0.602 c 0,1.346 -0.572,2.148 -2.206,2.148 0,0 -2.263,0 -4.469,-1.146 l -1.231,2.435 c 1.747,1.003 4.125,1.519 5.844,1.519 4.64,0 5.243,-3.868 5.243,-4.727 V 3.782 c 0,-0.745 0.258,-1.06 1.202,-1.462 L 6.216,-0.172 C 4.841,0.315 4.383,0.544 3.81,1.261 2.062,0 0,0 0,0" inkscape:connector-curvature="0" id="path60" style="fill:#ffffff"/></g><g transform="translate(105.94,79.53)" id="g62"><path d="m 0,0 c 0,-1.146 1.204,-2.005 2.522,-2.005 1.604,0 2.807,0.917 2.807,2.034 V 2.378 L 2.092,2.063 C 0.688,1.919 0,1.003 0,0" inkscape:connector-curvature="0" id="path64" style="fill:#0079c1"/></g><g transform="translate(119.62,95.315)" id="g66"><path d="m 0,0 h 3.152 v -6.99 c 0.945,1.089 2.091,1.547 3.838,1.547 3.81,0 6.217,-3.123 6.217,-7.449 0,-5.873 -4.584,-7.391 -6.13,-7.391 0,0 -2.292,0 -3.925,1.375 v -1.174 H 0 V 0" inkscape:connector-curvature="0" id="path68" style="fill:#ffffff"/></g><g transform="translate(140.82,78.011)" id="g70"><path d="m 0,0 c 0,0 0.573,0 1.69,0.201 l 0.372,-2.808 c -1.318,-0.229 -2.835,-0.229 -2.835,-0.229 -2.98,-0.258 -3.696,1.232 -3.696,4.67 v 15.413 h 3.151 V 2.006 C -1.318,0.516 -0.975,0 0,0" inkscape:connector-curvature="0" id="path72" style="fill:#ffffff"/></g><g transform="translate(144.47,82.423)" id="g74"><path d="m 0,0 c 0,4.498 2.722,7.449 6.734,7.449 3.838,0 6.216,-2.779 6.216,-8.079 V -1.146 H 3.353 c 0.344,-2.177 1.518,-3.323 3.609,-3.323 0,0 2.064,0 3.381,1.404 l 1.891,-2.378 C 10.2,-7.592 7.02,-7.592 7.02,-7.592 2.637,-7.592 0,-4.698 0,0" inkscape:connector-curvature="0" id="path76" style="fill:#ffffff"/></g><g transform="translate(147.82,83.684)" id="g78"><path d="M 0,0 H 6.417 C 6.302,2.148 5.243,3.466 3.409,3.466 1.633,3.466 0.229,2.406 0,0" inkscape:connector-curvature="0" id="path80" style="fill:#0079c1"/></g><g transform="translate(40.108,62.137)" id="g82"><path d="M 0,0 V -1.261 H 2.607 V -3.925 H 0 V -15.557 H -3.151 V -3.925 H -5.5 v 2.664 h 2.349 v 2.636 c 0,2.091 2.091,3.18 4.24,3.18 0.83,0 1.604,-0.143 2.406,-0.315 L 3.18,1.633 H 1.69 C 0.458,1.633 0,1.06 0,0" inkscape:connector-curvature="0" id="path84" style="fill:#ffffff"/></g><g transform="translate(45.715,53.743)" id="g86"><path d="m 0,0 c 0,4.498 2.607,7.649 6.875,7.649 4.241,0 6.762,-3.094 6.762,-7.649 0,-5.071 -3.324,-7.535 -6.762,-7.535 C 2.865,-7.535 0,-4.268 0,0" inkscape:connector-curvature="0" id="path88" style="fill:#ffffff"/></g><g transform="translate(56.287,53.743)" id="g90"><path d="m 0,0 c 0,2.75 -1.433,4.584 -3.725,4.584 -2.263,0 -3.609,-1.862 -3.609,-4.584 0,-2.664 1.346,-4.555 3.638,-4.555 C -1.461,-4.555 0,-2.636 0,0" inkscape:connector-curvature="0" id="path92" style="fill:#0079c1"/></g><g transform="translate(71.03,57.783)" id="g94"><path d="m 0,0 c -4.326,0.831 -4.326,-3.954 -4.326,-3.954 v -7.248 H -7.449 V 3.094 h 3.123 V 1.633 C -3.725,2.521 -1.834,3.609 0,3.294 V 0" inkscape:connector-curvature="0" id="path96" style="fill:#ffffff"/></g><g transform="translate(87.821,49.36)" id="g98"><path d="m 0,0 c 0,0 0.573,0 1.69,0.2 l 0.373,-2.806 c -1.318,-0.23 -2.836,-0.23 -2.836,-0.23 -2.98,-0.258 -3.696,1.231 -3.696,4.669 v 15.414 h 3.151 V 2.005 C -1.318,0.516 -0.974,0 0,0" inkscape:connector-curvature="0" id="path100" style="fill:#ffffff"/></g><g transform="translate(91.588,53.743)" id="g102"><path d="m 0,0 c 0,4.498 2.607,7.649 6.875,7.649 4.242,0 6.762,-3.094 6.762,-7.649 0,-5.071 -3.323,-7.535 -6.762,-7.535 C 2.865,-7.535 0,-4.268 0,0" inkscape:connector-curvature="0" id="path104" style="fill:#ffffff"/></g><g transform="translate(102.16,53.743)" id="g106"><path d="m 0,0 c 0,2.75 -1.433,4.584 -3.725,4.584 -2.263,0 -3.609,-1.862 -3.609,-4.584 0,-2.664 1.346,-4.555 3.637,-4.555 C -1.461,-4.555 0,-2.636 0,0" inkscape:connector-curvature="0" id="path108" style="fill:#0079c1"/></g><g transform="translate(121.17,56.494)" id="g110"><path d="m 0,0 v -9.913 h -3.151 v 9.226 c 0,0.515 -0.773,2.377 -2.52,2.377 -1.576,0 -2.951,-1.518 -2.951,-2.979 V -9.913 H -11.86 V 4.383 h 3.238 V 3.094 c 1.06,1.633 3.924,1.633 3.924,1.633 C -2.434,4.727 0,2.636 0,0" inkscape:connector-curvature="0" id="path112" style="fill:#ffffff"/></g><g transform="translate(130.32,41.71)" id="g114"><path d="m 0,0 c 0,0 -2.922,0 -5.1,1.347 l 1.117,2.721 c 1.577,-0.773 2.894,-1.06 4.298,-1.06 1.232,0 3.095,0.23 3.095,2.264 v 1.89 C 1.948,5.988 0.172,5.988 0.172,5.988 c -5.186,0 -6.074,5.013 -6.074,6.847 0,2.091 1.06,6.618 5.902,6.618 0,0 2.435,0 3.352,-1.318 v 1.06 H 6.503 V 5.272 C 6.503,3.267 6.332,0 0,0" inkscape:connector-curvature="0" id="path116" style="fill:#ffffff"/></g><g transform="translate(130.67,50.649)" id="g118"><path d="M 0,0 C 2.234,0 3.066,1.662 3.066,3.781 3.409,7.42 0,7.42 0,7.42 -2.091,7.42 -2.979,6.102 -2.979,3.781 -2.979,1.633 -2.091,0 0,0" inkscape:connector-curvature="0" id="path120" style="fill:#0079c1"/></g><g transform="translate(42.112,17.929)" id="g122"><path d="m 0,0 h -3.695 l -4.67,14.182 h 3.409 L -1.862,4.384 1.29,14.182 H 4.641 L 0,0" inkscape:connector-curvature="0" id="path124" style="fill:#ffffff"/></g><g transform="translate(48.497,25.121)" id="g126"><path d="m 0,0 c 0,4.497 2.722,7.448 6.732,7.448 3.839,0 6.217,-2.778 6.217,-8.078 V -1.146 H 3.352 C 3.696,-3.323 4.87,-4.47 6.961,-4.47 c 0,0 2.063,0 3.381,1.405 l 1.891,-2.378 C 10.199,-7.592 7.019,-7.592 7.019,-7.592 2.636,-7.592 0,-4.698 0,0" inkscape:connector-curvature="0" id="path128" style="fill:#ffffff"/></g><g transform="translate(51.849,26.38)" id="g130"><path d="M 0,0 H 6.417 C 6.302,2.149 5.243,3.467 3.409,3.467 1.633,3.467 0.229,2.407 0,0" inkscape:connector-curvature="0" id="path132" style="fill:#0079c1"/></g><g transform="translate(76.679,28.243)" id="g134"><path d="m 0,0 v -10.314 h -2.922 v 8.653 c 0,1.489 -0.946,2.951 -2.521,2.951 -2.178,0 -3.037,-1.834 -3.037,-2.951 v -8.653 h -3.123 V 9.769 H -8.48 V 2.693 c 0.945,1.691 3.552,1.691 3.552,1.691 C -1.461,4.384 0,1.69 0,0" inkscape:connector-curvature="0" id="path136" style="fill:#ffffff"/></g><path d="m 80.749,17.929 h 3.1514 V 32.254 H 80.749 V 17.929 z" inkscape:connector-curvature="0" id="path138" style="fill:#ffffff"/><g transform="translate(80.376,36.122)" id="g140"><path d="M 0,0 C 0,1.003 0.888,1.92 1.891,1.92 3.008,1.92 3.868,1.031 3.868,0 3.868,-1.117 3.008,-1.978 1.919,-1.978 0.888,-1.978 0,-1.117 0,0" inkscape:connector-curvature="0" id="path142" style="fill:#ffffff"/></g><g transform="translate(100.18,28.874)" id="g144"><path d="m 0,0 -2.636,-1.347 c -1.031,2.149 -3.123,2.149 -3.123,2.149 -2.062,0 -3.609,-2.092 -3.609,-4.813 0,-2.579 1.661,-4.412 3.553,-4.412 0,0 1.461,0 3.323,2.149 l 2.55,-1.118 c -1.748,-3.753 -6.159,-3.753 -6.159,-3.753 -3.783,0 -6.418,3.438 -6.418,7.105 0,4.384 2.578,7.621 6.646,7.621 0,0 3.695,0 5.873,-3.581" inkscape:connector-curvature="0" id="path146" style="fill:#ffffff"/></g><g transform="translate(107.83,20.708)" id="g148"><path d="m 0,0 c 0,0 0.573,0 1.691,0.2 l 0.372,-2.807 c -1.317,-0.229 -2.836,-0.229 -2.836,-0.229 -2.979,-0.258 -3.696,1.232 -3.696,4.669 v 15.413 h 3.152 V 2.005 C -1.317,0.516 -0.974,0 0,0" inkscape:connector-curvature="0" id="path150" style="fill:#ffffff"/></g><g transform="translate(111.49,25.121)" id="g152"><path d="m 0,0 c 0,4.497 2.721,7.448 6.731,7.448 3.84,0 6.217,-2.778 6.217,-8.078 V -1.146 H 3.351 c 0.344,-2.177 1.518,-3.324 3.61,-3.324 0,0 2.062,0 3.381,1.405 l 1.89,-2.378 C 10.198,-7.592 7.018,-7.592 7.018,-7.592 2.635,-7.592 0,-4.698 0,0" inkscape:connector-curvature="0" id="path154" style="fill:#ffffff"/></g><g transform="translate(114.84,26.38)" id="g156"><path d="M 0,0 H 6.417 C 6.303,2.149 5.243,3.467 3.41,3.467 1.633,3.467 0.23,2.407 0,0" inkscape:connector-curvature="0" id="path158" style="fill:#0079c1"/></g><g transform="translate(130.27,28.3)" id="g160"><path d="m 0,0 c 0,-0.717 0.831,-1.26 2.092,-1.518 2.55,-0.516 2.205,-0.488 2.978,-0.802 1.576,-0.574 2.522,-1.777 2.522,-3.753 0,-2.378 -1.977,-4.642 -5.128,-4.642 -2.177,0 -3.61,0.43 -6.331,2.608 l 2.034,2.034 c 1.403,-1.289 2.492,-1.719 3.895,-1.719 1.519,0 2.35,0.458 2.35,1.518 0,1.06 -0.572,1.06 -3.553,1.92 -3.58,1.031 -3.896,2.921 -3.896,4.296 0,1.978 1.462,4.47 5.587,4.47 0,0 3.008,0 4.956,-2.062 L 5.787,0.172 C 4.326,1.633 2.492,1.633 2.492,1.633 1.003,1.633 0,0.945 0,0" inkscape:connector-curvature="0" id="path162" style="fill:#ffffff"/></g><g transform="translate(125.98,86.95)" id="g164"><path d="m 0,0 c -1.547,0 -3.208,-1.461 -3.208,-3.123 v -2.578 c 0,-1.69 1.833,-3.037 3.294,-3.037 1.805,0 3.495,1.891 3.495,4.298 C 3.581,-2.177 1.976,0 0,0" inkscape:connector-curvature="0" id="path166" style="fill:#0079c1"/></g></g></svg>