<?xml version="1.0" encoding="UTF-8" standalone="no"?>
<!-- Created with Inkscape (http://www.inkscape.org/) -->

<svg
   xmlns:dc="http://purl.org/dc/elements/1.1/"
   xmlns:cc="http://creativecommons.org/ns#"
   xmlns:rdf="http://www.w3.org/1999/02/22-rdf-syntax-ns#"
   xmlns:svg="http://www.w3.org/2000/svg"
   xmlns="http://www.w3.org/2000/svg"
   xmlns:inkscape="http://www.inkscape.org/namespaces/inkscape"
   version="1.1"
   width="340.35001"
   height="268.45999"
   id="svg2"
   xml:space="preserve"><metadata
     id="metadata8"><rdf:RDF><cc:Work
         rdf:about=""><dc:format>image/svg+xml</dc:format><dc:type
           rdf:resource="http://purl.org/dc/dcmitype/StillImage" /></cc:Work></rdf:RDF></metadata><defs
     id="defs6"><clipPath
       id="clipPath16"><path
         d="M 0,214.77 H 272.28 V 0 H 0 v 214.77 z"
         inkscape:connector-curvature="0"
         id="path18" /></clipPath></defs><g
     transform="matrix(1.25,0,0,-1.25,0,268.46)"
     id="g10"><g
       id="g12"><g
         clip-path="url(#clipPath16)"
         id="g14"><g
           transform="translate(12.824,0)"
           id="g20"><path
             d="M 0,0 C -7.0605,0 -12.824,5.757 -12.824,12.82 V 202.1 c 0,6.912 5.7635,12.678 12.824,12.678 h 246.64 c 7.062,0 12.828,-5.766 12.828,-12.678 V 12.82 C 259.458,5.757 253.698,0 246.638,0 H -0.002"
             inkscape:connector-curvature="0"
             id="path22"
             style="fill:#231f20;fill-rule:evenodd" /></g></g></g><g
       transform="translate(259.46,6.48)"
       id="g24"><path
         d="m 0,0 c 3.609,0 6.484,2.879 6.484,6.34 v 189.28 c 0,3.457 -2.875,6.338 -6.484,6.338 h -246.64 c -3.605,0 -6.484,-2.881 -6.484,-6.338 V 6.34 c 0,-3.461 2.879,-6.34 6.484,-6.34 H 0"
         inkscape:connector-curvature="0"
         id="path26"
         style="fill:#ffffff;fill-rule:evenodd" /></g><g
       transform="translate(17,191.72)"
       id="g28"><path
         d="m 0,0 c 0,3.34 2.711,6.053 6.051,6.053 h 72.896 c 3.461,0 6.198,-2.741 6.198,-6.053 v -72.889 c 0,-3.31 -2.737,-6.046 -6.198,-6.046 H 6.051 C 2.74,-78.935 0,-76.199 0,-72.889 V 0"
         inkscape:connector-curvature="0"
         id="path30"
         style="fill:#0079c1;fill-rule:evenodd" /></g><g
       transform="translate(68,176.17)"
       id="g32"><path
         d="M 0,0 H -14.984 V -18.295 H 0 c 3.523,0 6.4,2.815 6.48,6.336 l 0.004,5.475 C 6.484,-2.904 3.58,0 0,0 M -28.523,10.516 H 6.484 v -0.143 c 7.475,0 13.539,-6.068 13.539,-13.541 l -0.144,-12.244 c 0,-7.475 -6,-13.539 -13.395,-13.539 h -21.468 v -25.356 h -13.539 v 64.823 -39.467"
         inkscape:connector-curvature="0"
         id="path34"
         style="fill:#ffffff;fill-rule:evenodd" /></g><g
       transform="translate(102,96.078)"
       id="g36"><path
         d="M 0,0 C 0,3.336 -2.713,6.05 -6.053,6.05 H -78.949 C -82.26,6.05 -85,3.312 -85,0 v -72.891 c 0,-3.453 2.74,-6.047 6.051,-6.047 h 72.896 c 3.461,0 6.198,2.594 6.198,6.047 L 0,0"
         inkscape:connector-curvature="0"
         id="path38"
         style="fill:#0079c1;fill-rule:evenodd" /></g><g
       transform="translate(77.795,36.007)"
       id="g40"><path
         d="m 0,0 0.029,-0.023 c -3.873,-9.473 -13.172,-15.676 -23.508,-15.676 -14,0 -25.357,11.231 -25.357,25.067 0,9.296 5.209,17.835 13.529,22.171 l 0.741,-7.199 c -4.805,-3.5 -7.645,-9.058 -7.645,-14.972 0,-10.258 8.393,-18.582 18.732,-18.582 10.336,0 18.727,8.324 18.727,18.582 0,0.195 -0.004,0.39 -0.012,0.582 L 0,0"
         inkscape:connector-curvature="0"
         id="path42"
         style="fill:#ffffff;fill-rule:evenodd" /></g><g
       transform="translate(43.939,92.906)"
       id="g44"><path
         d="m 0,0 -0.141,-0.141 c -0.004,0.047 -0.004,0.094 -0.004,0.141 0,4.14 3.424,7.492 7.637,7.492 4.217,0 7.637,-3.352 7.637,-7.492 0,-4.133 -3.42,-7.492 -7.637,-7.492 -0.096,0 -0.195,0.007 -0.291,0.007 l 0.004,-0.148 1.008,-14.695 h 19.883 v -6.188 H 8.5 l 0.289,-5.336 h 25.643 l 10.664,-23.047 7.056,3.172 2.452,-5.043 -13.688,-5.902 -10.805,24.344 H 2.453 l -2.598,40.187"
         inkscape:connector-curvature="0"
         id="path46"
         style="fill:#ffffff;fill-rule:evenodd" /></g><g
       transform="translate(125.48,168.1)"
       id="g48"><path
         d="M 0,0 H -3.461 V -15.123 H 0 c 2.879,0 6.479,1.728 6.479,7.492 C 6.479,-2.016 2.879,0 0,0 m 0.143,4.324 h -8.5 V -19.443 H 0 c 6.479,0 11.235,4.175 11.235,11.812 0,8.065 -5.619,11.955 -11.092,11.955"
         inkscape:connector-curvature="0"
         id="path50"
         style="fill:#231f20;fill-rule:evenodd" /></g><g
       transform="translate(176.77,156.29)"
       id="g52"><path
         d="m 0,0 v -3.168 c 0,-1.297 -2.453,-1.297 -2.886,-1.297 -0.434,0 -3.024,0 -3.024,2.16 C -5.91,-0.144 -2.742,0 0,0 m 4.461,-3.168 v 8.932 c 0,2.302 -2.156,4.031 -6.914,4.031 -3.742,0 -6.195,-1.584 -7.054,-2.16 L -7.64,4.324 c 1.445,1.008 4.469,1.584 5.765,1.584 C -0.578,5.908 0,5.043 0,4.467 V 3.459 c -1.445,0 -5.187,-0.723 -6.773,-1.156 -1.297,-0.432 -3.75,-1.44 -3.75,-4.895 0,-3.312 3.605,-5.617 7.063,-5.617 3.027,0 4.035,1.729 4.035,1.729 0,0 1.441,-1.729 4.031,-1.872 l 1.871,3.6 C 4.321,-4.32 4.461,-3.601 4.461,-3.168"
         inkscape:connector-curvature="0"
         id="path54"
         style="fill:#231f20;fill-rule:evenodd" /></g><g
       transform="translate(191.03,158.45)"
       id="g56"><path
         d="m 0,0 v -3.312 c 0,-1.44 1.153,-3.458 3.75,-3.458 2.59,0 4.032,2.161 4.032,5.329 0,3.171 -1.727,4.755 -3.891,4.755 C 1.586,3.314 0,2.02 0,0 m 0,5.906 v 7.926 H -4.461 V -9.937 H 0 v 0.72 c 0,0 1.727,-1.295 4.324,-1.295 2.739,0 8.067,2.159 8.067,9.071 0,7.06 -5.617,8.933 -7.633,8.933 C 2.742,7.492 1.727,7.059 0,5.906"
         inkscape:connector-curvature="0"
         id="path58"
         style="fill:#231f20;fill-rule:evenodd" /></g><g
       transform="translate(248.37,158.45)"
       id="g60"><path
         d="m 0,0 v -3.312 c 0,-1.44 -1.152,-3.458 -3.746,-3.458 -2.594,0 -4.031,2.161 -4.031,5.329 0,3.171 1.726,4.755 3.886,4.755 C -1.726,3.314 0,2.02 0,0 m 0,5.906 v 7.926 H 4.465 V -9.937 H 0 v 0.72 c 0,0 -1.871,-1.439 -4.465,-1.439 -2.593,0 -7.926,2.303 -7.926,9.215 0,7.06 5.473,8.933 7.637,8.933 2.016,0 3.028,-0.433 4.754,-1.586"
         inkscape:connector-curvature="0"
         id="path62"
         style="fill:#231f20;fill-rule:evenodd" /></g><g
       transform="translate(221.58,158.88)"
       id="g64"><path
         d="M 0,0 H 6.77 C 6.77,1.588 5.469,3.316 3.309,3.316 1.293,3.316 0,1.732 0,0 m -0.148,-3.457 h 11.383 c 0.14,2.16 -0.719,10.66 -7.926,10.66 -6.34,0 -7.778,-6.771 -7.778,-8.932 0,-2.16 1.297,-9.214 8.211,-9.214 4.035,0 6.196,2.302 6.625,3.023 l -2.734,2.592 c 0,0 -1.148,-1.584 -3.75,-1.584 -2.59,0 -4.031,1.728 -4.031,3.455"
         inkscape:connector-curvature="0"
         id="path66"
         style="fill:#231f20;fill-rule:evenodd" /></g><g
       transform="translate(143.27,148.51)"
       id="g68"><path
         d="M 0,0 V 17.141"
         inkscape:connector-curvature="0"
         id="path70"
         style="fill:none;stroke:#231f20;stroke-width:4.46799994;stroke-miterlimit:10" /></g><g
       transform="translate(143.06,172.23)"
       id="g72"><path
         d="m 0,0 c 1.351,0 2.449,-1.096 2.449,-2.447 0,-1.354 -1.098,-2.449 -2.449,-2.449 -1.352,0 -2.446,1.095 -2.446,2.449 C -2.446,-1.096 -1.352,0 0,0"
         inkscape:connector-curvature="0"
         id="path74"
         style="fill:#231f20;fill-rule:evenodd" /></g><g
       transform="translate(215.09,148.51)"
       id="g76"><path
         d="m 0,0 -0.434,3.889 c -2.015,-0.432 -3.168,0 -3.168,1.007 V 23.77 H -7.926 V 3.025 c 0,-1.728 1.152,-3.599 4.465,-3.599 C -1.731,-0.574 0,0 0,0"
         inkscape:connector-curvature="0"
         id="path78"
         style="fill:#231f20;fill-rule:evenodd" /></g><g
       transform="translate(148.82,151.25)"
       id="g80"><path
         d="m 0,0 3.313,3.025 c 1.156,-1.441 3.89,-2.736 5.043,-2.736 1.156,0 2.164,0.863 2.164,1.727 0,0.865 -0.574,1.297 -1.301,1.441 C 8.641,3.6 6.34,4.176 5.907,4.32 5.477,4.465 1.446,5.041 1.446,9.221 c 0,4.32 4.461,5.328 7.054,5.328 2.743,0 5.188,-0.721 6.914,-2.592 L 12.68,9.076 c -1.586,1.44 -2.734,1.873 -4.039,1.873 -1.293,0 -2.445,-0.433 -2.445,-1.584 0,-1.013 0.718,-1.156 1.152,-1.156 0.434,-0.144 3.316,-0.721 3.895,-0.865 0.718,-0.143 4.171,-1.151 4.171,-5.184 0,-3.888 -3.742,-5.471 -7.203,-5.471 C 4.61,-3.311 1.157,-1.439 0,0"
         inkscape:connector-curvature="0"
         id="path82"
         style="fill:#231f20;fill-rule:evenodd" /></g><g
       transform="translate(141.48,124.46)"
       id="g84"><path
         d="m 0,0 v -3.316 c 0,-1.44 1.296,-3.457 3.886,-3.457 2.59,0 4.035,2.16 4.035,5.332 0,3.168 -1.73,4.754 -4.035,4.754 C 1.726,3.313 0,2.016 0,0 m 0,5.76 v 8.068 H -4.325 V -9.942 H 0 v 0.721 c 0,0 1.871,-1.295 4.461,-1.295 2.593,0 8.07,2.016 8.07,9.075 0,7.056 -5.621,8.929 -7.637,8.929 C 2.734,7.488 1.871,7.055 0,5.76"
         inkscape:connector-curvature="0"
         id="path86"
         style="fill:#231f20;fill-rule:evenodd" /></g><g
       transform="translate(166.97,122.29)"
       id="g88"><path
         d="m 0,0 v -3.312 c 0,-1.297 -2.45,-1.153 -2.879,-1.153 -0.434,0 -3.024,0 -3.024,2.016 C -5.903,-0.145 -2.739,0 0,0 m 4.465,-3.168 v 8.932 c 0,2.304 -2.157,4.031 -6.915,4.031 -3.742,0 -6.191,-1.584 -7.062,-2.16 l 1.879,-3.311 c 1.441,1.008 4.465,1.584 5.762,1.584 C -0.575,5.908 0,4.9 0,4.467 V 3.459 c -1.442,0 -5.184,-0.719 -6.77,-1.152 -1.297,-0.432 -3.601,-1.44 -3.601,-4.899 0,-3.457 3.461,-5.617 6.914,-5.617 3.023,0 4.035,1.729 4.035,1.729 0,0 1.441,-1.729 4.035,-1.872 l 1.867,3.6 c -2.156,0.287 -2.015,1.008 -2.015,1.584"
         inkscape:connector-curvature="0"
         id="path90"
         style="fill:#231f20;fill-rule:evenodd" /></g><g
       transform="translate(188.3,124.46)"
       id="g92"><path
         d="m 0,0 v -3.316 c 0,-1.44 -1.152,-3.457 -3.746,-3.457 -2.598,0 -4.035,2.16 -4.035,5.332 0,3.168 1.726,4.754 3.89,4.754 C -1.727,3.313 0,2.016 0,0 m 0,5.76 v 8.068 H 4.461 V -9.942 H 0 v 0.721 c 0,0 -1.875,-1.44 -4.469,-1.44 -2.594,0 -7.922,2.161 -7.922,9.22 0,7.056 5.617,8.929 7.633,8.929 2.024,0 3.031,-0.433 4.758,-1.728"
         inkscape:connector-curvature="0"
         id="path94"
         style="fill:#231f20;fill-rule:evenodd" /></g><g
       transform="translate(195.93,110.77)"
       id="g96"><path
         d="M 0,0 2.015,3.742 C 2.883,3.311 4.468,2.303 7.64,2.303 c 4.317,0 3.598,3.168 3.598,3.168 0,0 -1.582,-0.864 -3.457,-0.864 C 0.148,4.607 0,12.818 0,12.818 c 0,0 0,3.745 2.593,6.049 1.438,1.297 3.024,1.871 5.188,1.871 0.719,0 2.305,-0.142 3.457,-0.863 v 0.863 h 4.465 V 3.455 c 0,-3.889 -5.328,-5.332 -8.063,-5.332 C 4.898,-1.877 1.73,-1.014 0,0 m 11.238,12.818 c 0,1.729 -1.008,3.602 -3.168,3.602 -2.309,0 -3.027,-2.16 -3.027,-3.602 0,-1.588 0.574,-3.748 3.027,-3.748 2.305,0 3.168,1.873 3.168,3.748"
         inkscape:connector-curvature="0"
         id="path98"
         style="fill:#231f20;fill-rule:evenodd" /></g><g
       transform="translate(220.42,124.89)"
       id="g100"><path
         d="M 0,0 H 6.769 C 6.769,1.584 5.617,3.312 3.457,3.312 1.297,3.312 0,1.584 0,0 m 0,-3.461 h 11.238 c 0.145,2.164 -0.722,10.66 -7.926,10.66 -6.336,0 -7.781,-6.767 -7.781,-8.927 0,-2.164 1.297,-9.219 8.215,-9.219 4.035,0 6.195,2.303 6.629,2.879 l -2.734,2.736 c 0,0 -1.157,-1.584 -3.75,-1.584 C 1.297,-6.916 0,-5.187 0,-3.461"
         inkscape:connector-curvature="0"
         id="path102"
         style="fill:#231f20;fill-rule:evenodd" /></g><g
       transform="translate(130.09,96.652)"
       id="g104"><path
         d="M 0,0 V 7.637 H -4.465 V -16.277 H 0 v 10.23 c 0,1.582 1.439,3.023 3.027,3.023 1.584,0 3.311,-1.152 3.311,-3.023 v -10.23 h 4.32 v 11.671 c 0,3.454 -2.879,5.762 -6.189,5.762 C 1.584,1.156 0.576,0.289 0,0"
         inkscape:connector-curvature="0"
         id="path106"
         style="fill:#231f20;fill-rule:evenodd" /></g><g
       transform="translate(153.14,94.347)"
       id="g108"><path
         d="m 0,0 c -1.731,0 -3.895,-1.726 -3.895,-5.472 0,-3.747 2.164,-5.477 3.895,-5.477 1.871,0 4.031,1.73 4.031,5.477 C 4.031,-1.726 1.871,0 0,0 m 0,3.895 c -4.036,0 -8.215,-3.461 -8.215,-9.367 0,-5.907 4.031,-9.364 8.215,-9.364 4.316,0 8.355,3.457 8.355,9.364 0,5.906 -4.18,9.367 -8.355,9.367"
         inkscape:connector-curvature="0"
         id="path110"
         style="fill:#231f20;fill-rule:evenodd" /></g><g
       transform="translate(225.46,93.773)"
       id="g112"><path
         d="m 0,0 v 4.18 c -4.172,0 -4.75,-1.012 -5.758,-2.164 v 1.73 h -4.469 v -17 h 4.469 v 8.5 C -5.758,-2.16 -3.023,0 0,0"
         inkscape:connector-curvature="0"
         id="path114"
         style="fill:#231f20;fill-rule:evenodd" /></g><g
       transform="translate(173.45,80.519)"
       id="g116"><path
         d="m 0,0 -0.43,3.887 c -2.015,-0.43 -3.168,0 -3.168,0.867 V 23.77 H -7.922 V 3.027 c 0,-1.73 1.153,-3.601 4.469,-3.601 C -1.726,-0.574 0,0 0,0"
         inkscape:connector-curvature="0"
         id="path118"
         style="fill:#231f20;fill-rule:evenodd" /></g><g
       transform="translate(188.01,90.46)"
       id="g120"><path
         d="m 0,0 v -3.457 c 0,-1.3 -1.297,-3.457 -3.891,-3.457 -2.594,0 -4.031,2.157 -4.031,5.473 0,3.168 1.727,4.754 4.031,4.754 C -1.727,3.313 0,2.016 0,0 m 0,5.758 v 8.071 H 4.32 V -9.941 H 0 v 0.723 c 0,0 -1.875,-1.442 -4.469,-1.442 -2.594,0 -7.922,2.16 -7.922,9.219 0,7.059 5.477,8.934 7.492,8.934 2.164,0 3.024,-0.578 4.899,-1.735"
         inkscape:connector-curvature="0"
         id="path122"
         style="fill:#231f20;fill-rule:evenodd" /></g><g
       transform="translate(200.11,90.75)"
       id="g124"><path
         d="M 0,0 H 6.914 C 6.914,1.582 5.618,3.453 3.461,3.453 1.297,3.453 0,1.726 0,0 m 0,-3.313 h 11.239 c 0.285,2.156 -0.575,10.656 -7.926,10.656 -6.336,0 -7.777,-6.914 -7.777,-8.929 0,-2.161 1.293,-9.219 8.355,-9.219 4.031,0 6.047,2.305 6.625,2.879 l -2.738,2.738 c 0,0 -1.293,-1.586 -3.887,-1.586 C 1.438,-6.774 0,-5.047 0,-3.313"
         inkscape:connector-curvature="0"
         id="path126"
         style="fill:#231f20;fill-rule:evenodd" /></g><g
       transform="translate(228.06,83.257)"
       id="g128"><path
         d="M 0,0 3.308,2.883 C 4.46,1.438 7.195,0.289 8.351,0.289 c 1.156,0 2.305,0.86 2.305,1.727 0,0.867 -0.719,1.297 -1.297,1.445 C 8.785,3.602 6.476,4.18 6.046,4.18 5.613,4.321 1.437,5.043 1.437,9.219 c 0,4.176 4.461,5.332 7.203,5.332 2.594,0 5.039,-0.867 6.914,-2.598 L 12.816,8.93 c -1.727,1.441 -2.879,2.016 -4.176,2.016 -1.297,0 -2.305,-0.575 -2.305,-1.582 0,-1.008 0.719,-1.153 1.149,-1.297 0.289,0 3.172,-0.574 3.891,-0.864 0.722,-0.144 4.035,-1.152 4.035,-5.046 0,-4.032 -3.746,-5.614 -7.207,-5.614 C 4.75,-3.457 1.148,-1.586 0,0"
         inkscape:connector-curvature="0"
         id="path130"
         style="fill:#231f20;fill-rule:evenodd" /></g><g
       transform="translate(186.86,57.617)"
       id="g132"><path
         d="m 0,0 v -11.094 h -4.468 v 10.66 c 0,1.297 -1.008,2.594 -2.879,2.594 -1.875,0 -3.602,-1.731 -3.602,-4.035 v -9.219 h -4.468 v 17 h 4.468 V 4.609 c 0,0 1.727,1.731 4.321,1.731 C -2.738,6.34 0,3.172 0,0"
         inkscape:connector-curvature="0"
         id="path134"
         style="fill:#231f20;fill-rule:evenodd" /></g><g
       transform="translate(210.48,43.644)"
       id="g136"><path
         d="M 0,0 6.77,20.024 H 2.02 L -1.296,9.508 -4.753,20.024 H -9.507 L -3.746,3.598 C -3.457,2.449 -3.886,1.152 -6.191,1.441 l -1.586,0.141 -0.43,-3.742 2.59,-0.43 C -2.449,-3.023 -0.722,-1.871 0,0"
         inkscape:connector-curvature="0"
         id="path138"
         style="fill:#231f20;fill-rule:evenodd" /></g><g
       transform="translate(159.2,60.21)"
       id="g140"><path
         d="m 0,0 c -1.875,0 -4.035,-1.585 -4.035,-5.328 0,-3.746 2.16,-5.476 4.035,-5.476 1.727,0 3.891,1.73 3.891,5.476 C 3.891,-1.585 1.875,0 0,0 m 0,4.032 c -4.179,0 -8.355,-3.453 -8.355,-9.36 0,-5.906 4.031,-9.367 8.355,-9.367 4.176,0 8.356,3.461 8.356,9.367 0,5.907 -4.18,9.36 -8.356,9.36"
         inkscape:connector-curvature="0"
         id="path142"
         style="fill:#231f20;fill-rule:evenodd" /></g><g
       transform="translate(199.68,46.523)"
       id="g144"><path
         d="m 0,0 -0.434,3.891 c -2.015,-0.575 -3.164,0 -3.164,0.867 V 23.77 H -7.926 V 3.031 c 0,-1.734 1.156,-3.605 4.469,-3.605 C -1.731,-0.574 0,0 0,0"
         inkscape:connector-curvature="0"
         id="path146"
         style="fill:#231f20;fill-rule:evenodd" /></g></g></svg>