<?xml version="1.0" encoding="UTF-8" standalone="no"?>
<!-- Created with Inkscape (http://www.inkscape.org/) -->

<svg
   xmlns:dc="http://purl.org/dc/elements/1.1/"
   xmlns:cc="http://creativecommons.org/ns#"
   xmlns:rdf="http://www.w3.org/1999/02/22-rdf-syntax-ns#"
   xmlns:svg="http://www.w3.org/2000/svg"
   xmlns="http://www.w3.org/2000/svg"
   xmlns:inkscape="http://www.inkscape.org/namespaces/inkscape"
   version="1.1"
   width="779.64001"
   height="601.25"
   id="svg2"
   xml:space="preserve"><metadata
     id="metadata8"><rdf:RDF><cc:Work
         rdf:about=""><dc:format>image/svg+xml</dc:format><dc:type
           rdf:resource="http://purl.org/dc/dcmitype/StillImage" /></cc:Work></rdf:RDF></metadata><defs
     id="defs6"><clipPath
       id="clipPath16"><path
         d="M 0.015015,481.02 H 623.72501 V 0.02 H 0.015015 v 481 z"
         inkscape:connector-curvature="0"
         id="path18" /></clipPath></defs><g
     transform="matrix(1.25,0,0,-1.25,-0.018769,601.27)"
     id="g10"><g
       id="g12"><g
         clip-path="url(#clipPath16)"
         id="g14"><g
           transform="translate(623.73,34.091)"
           id="g20"><path
             d="m 0,0 c 0,-18.828 -15.262,-34.091 -34.091,-34.091 h -555.55 c -18.828,0 -34.091,15.263 -34.091,34.091 v 412.84 c 0,18.827 15.263,34.091 34.091,34.091 h 555.55 c 18.828,0 34.09,-15.27 34.09,-34.09 V 0.001"
             inkscape:connector-curvature="0"
             id="path22"
             style="fill:#231f20" /></g></g></g><g
       transform="translate(607.67,34.091)"
       id="g24"><path
         d="m 0,0 c 0,-9.958 -8.072,-18.03 -18.031,-18.03 h -555.55 c -9.958,0 -18.031,8.072 -18.031,18.03 v 412.84 c 0,9.958 8.073,18.031 18.031,18.031 h 555.55 c 9.958,0 18.03,-8.08 18.03,-18.03 V 0.001"
         inkscape:connector-curvature="0"
         id="path26"
         style="fill:#ffd421" /></g><g
       transform="translate(313.81,435.57)"
       id="g28"><path
         d="m 0,0 c 24.921,0 45.126,-20.204 45.126,-45.126 0,-24.923 -20.205,-45.128 -45.126,-45.128 -24.923,0 -45.127,20.205 -45.127,45.128 C -45.127,-20.204 -24.923,0 0,0"
         inkscape:connector-curvature="0"
         id="path30"
         style="fill:#ec1d24" /></g><g
       transform="translate(313.81,397.54)"
       id="g32"><path
         d="M 0,0 21.757,21.757 C 15.704,26.328 8.169,29.039 0,29.039 c -8.169,0 -15.705,-2.711 -21.757,-7.282 L 0,0"
         inkscape:connector-curvature="0"
         id="path34"
         style="fill:#0079c1" /></g><g
       transform="translate(342.67,412.2)"
       id="g36"><path
         d="M 0,0 -21.757,-21.757 0,-43.514 c 4.57,6.053 7.281,13.588 7.281,21.757 C 7.281,-13.588 4.57,-6.053 0,0"
         inkscape:connector-curvature="0"
         id="path38"
         style="fill:#0079c1" /></g><g
       transform="translate(306.71,390.44)"
       id="g40"><path
         d="M 0,0 -21.756,21.757 C -26.327,15.704 -29.038,8.168 -29.038,0 c 0,-8.169 2.711,-15.704 7.282,-21.757 L 0,0"
         inkscape:connector-curvature="0"
         id="path42"
         style="fill:#0079c1" /></g><g
       transform="translate(313.81,383.34)"
       id="g44"><path
         d="m 0,0 -21.757,-21.757 c 6.052,-4.57 13.588,-7.281 21.757,-7.281 8.169,0 15.704,2.711 21.757,7.281 L 0,0"
         inkscape:connector-curvature="0"
         id="path46"
         style="fill:#0079c1" /></g><g
       transform="translate(55.503,312.3)"
       id="g48"><path
         d="M 0,0 H 14.107 L 43.32,-42.956 V 0 H 56.243 V -64.07 H 42.137 L 12.833,-21.114 V -64.07 H 0 V 0"
         inkscape:connector-curvature="0"
         id="path50"
         style="fill:#231f20" /></g><g
       transform="translate(124.49,270.71)"
       id="g52"><path
         d="m 0,0 c 0,18.657 10.921,25.482 21.842,25.482 9.92,0 22.297,-6.825 22.297,-25.482 0,-13.742 -9.01,-24.117 -21.66,-24.117 C 8.555,-24.117 0,-14.561 0,0"
         inkscape:connector-curvature="0"
         id="path54"
         style="fill:#231f20" /></g><g
       transform="translate(156.16,270.71)"
       id="g56"><path
         d="m 0,0 c 0,10.83 -3.731,14.197 -9.192,14.197 -6.917,0 -9.738,-5.642 -9.738,-14.197 0,-7.463 3.641,-13.105 9.738,-13.105 C -3.185,-13.105 0,-7.463 0,0"
         inkscape:connector-curvature="0"
         id="path58"
         style="fill:#ffd421" /></g><g
       transform="translate(224.65,277.36)"
       id="g60"><path
         d="m 0,0 7.645,-1.091 c 8.1,-1.093 12.923,-6.735 12.923,-13.925 0,-9.283 -7.735,-15.744 -18.748,-15.744 -9.555,0 -16.017,2.366 -22.114,8.464 l 9.1,8.008 c 3.732,-3.822 7.918,-6.007 12.378,-6.007 3.64,0 6.552,1.548 6.552,3.914 0,1.911 -1.911,3.731 -5.734,4.46 l -8.008,1.546 c -7.099,1.366 -11.286,6.735 -11.286,13.015 0,9.283 7.19,15.198 19.021,15.198 6.462,0 11.922,-1.092 18.293,-6.825 L 12.195,2.731 C 9.01,6.462 5.643,7.645 1.457,7.645 -2.093,7.645 -4.55,5.643 -4.55,3.368 -4.55,1.821 -3.731,0.455 0,0"
         inkscape:connector-curvature="0"
         id="path62"
         style="fill:#231f20" /></g><g
       transform="translate(258.9,283.73)"
       id="g64"><path
         d="M 0,0 H -7.28 V 10.466 H 0 v 14.561 l 12.56,3.459 V 10.466 H 24.391 V 0 H 12.833 v -20.75 c 0,-4.641 1.729,-5.096 3.549,-5.096 1.821,0 3.185,0.364 6.826,1.092 l 2.821,-10.284 C 20.295,-36.585 15.108,-37.131 11.741,-37.131 7.372,-37.131 0,-34.856 0,-26.21 V 0"
         inkscape:connector-curvature="0"
         id="path66"
         style="fill:#231f20" /></g><g
       transform="translate(290.33,270.71)"
       id="g68"><path
         d="m 0,0 c 0,18.657 10.921,25.482 21.842,25.482 9.92,0 22.297,-6.825 22.297,-25.482 0,-13.742 -9.01,-24.117 -21.66,-24.117 C 8.555,-24.117 0,-14.561 0,0"
         inkscape:connector-curvature="0"
         id="path70"
         style="fill:#231f20" /></g><g
       transform="translate(322,270.71)"
       id="g72"><path
         d="m 0,0 c 0,10.83 -3.731,14.197 -9.192,14.197 -6.917,0 -9.738,-5.642 -9.738,-14.197 0,-7.463 3.64,-13.105 9.738,-13.105 C -3.186,-13.105 0,-7.463 0,0"
         inkscape:connector-curvature="0"
         id="path74"
         style="fill:#ffd421" /></g><g
       transform="translate(389.57,270.89)"
       id="g76"><path
         d="m 0,0 c 0,-13.742 -7.827,-23.48 -19.748,-23.48 -6.28,0 -7.19,0.637 -12.833,4.277 v -17.11 h -12.195 v 60.066 h 12.195 v -2.457 c 3.913,3.185 6.371,4.55 11.65,4.55 C -7.189,25.846 0,15.562 0,0"
         inkscape:connector-curvature="0"
         id="path78"
         style="fill:#231f20" /></g><g
       transform="translate(356.99,267.25)"
       id="g80"><path
         d="m 0,0 c 0,-4.823 5.369,-9.009 10.194,-9.009 7.006,0 9.646,5.46 9.646,13.469 0,8.737 -2.64,13.833 -10.102,13.833 C 0.82,18.293 0,10.375 0,7.19 V 0"
         inkscape:connector-curvature="0"
         id="path82"
         style="fill:#ffd421" /></g><g
       transform="translate(443.7,270.89)"
       id="g84"><path
         d="m 0,0 c 0,-13.742 -7.826,-23.48 -19.748,-23.48 -6.279,0 -7.19,0.637 -12.832,4.277 v -17.11 h -12.195 v 60.066 h 12.195 v -2.457 c 3.913,3.185 6.37,4.55 11.649,4.55 C -7.189,25.846 0,15.562 0,0"
         inkscape:connector-curvature="0"
         id="path86"
         style="fill:#231f20" /></g><g
       transform="translate(411.12,267.25)"
       id="g88"><path
         d="m 0,0 c 0,-4.823 5.369,-9.009 10.193,-9.009 7.007,0 9.646,5.46 9.646,13.469 0,8.737 -2.639,13.833 -10.102,13.833 C 0.819,18.293 0,10.375 0,7.19 V 0"
         inkscape:connector-curvature="0"
         id="path90"
         style="fill:#ffd421" /></g><path
       d="m 453.77,248.23 h 12.197 v 46.323 H 453.77 V 248.23 z"
       inkscape:connector-curvature="0"
       id="path92"
       style="fill:#231f20" /><g
       transform="translate(452.77,306.11)"
       id="g94"><path
         d="m 0,0 c 0,3.822 3.095,7.099 6.917,7.099 4.004,0 7.099,-3.277 7.099,-7.19 0,-3.822 -3.095,-7.007 -7.008,-7.007 C 3.095,-7.098 0,-3.913 0,0"
         inkscape:connector-curvature="0"
         id="path96"
         style="fill:#231f20" /></g><g
       transform="translate(496.56,294.46)"
       id="g98"><path
         d="m 0,0 c 1.911,0.91 4.186,1.183 6.371,1.183 10.009,0 17.563,-7.735 17.563,-17.018 V -46.232 H 11.831 v 26.392 c 0,5.188 -2.548,9.374 -7.554,9.374 -5.916,0 -9.738,-3.458 -9.738,-8.1 v -27.666 h -12.196 v 46.141 h 12.56 V -3.458 C -2.731,-1.456 -2.002,-0.728 0,0"
         inkscape:connector-curvature="0"
         id="path100"
         style="fill:#231f20" /></g><g
       transform="translate(550.2,250.87)"
       id="g102"><path
         d="m 0,0 c -12.195,0 -19.84,8.828 -19.84,21.569 0,13.469 8.008,22.388 20.204,22.388 2.73,0 5.825,0.091 10.285,-3.185 v 2.639 H 23.298 V -1.456 c 0,-9.101 -9.191,-16.2 -21.569,-16.2 -7.554,0 -9.192,0.091 -20.658,5.461 l 5.55,10.011 c 5.006,-4.095 13.653,-4.095 13.653,-4.095 6.096,0 11.376,0.728 10.283,8.737 C 6.461,-0.364 4.733,0 0,0"
         inkscape:connector-curvature="0"
         id="path104"
         style="fill:#231f20" /></g><g
       transform="translate(552.47,261.98)"
       id="g106"><path
         d="m 0,0 c 5.643,0 8.554,3.003 8.554,8.282 v 6.188 c 0,4.187 -3.639,7.463 -8.372,7.463 -6.279,0 -9.829,-3.913 -9.829,-10.648 C -9.647,3.276 -7.281,0 0,0"
         inkscape:connector-curvature="0"
         id="path108"
         style="fill:#ffd421" /></g><g
       transform="translate(148.89,162.4)"
       id="g110"><path
         d="m 0,0 7.371,-8.009 c -5.915,-5.369 -9.828,-7.645 -18.201,-7.645 -14.289,0 -23.025,10.557 -23.025,24.664 0,12.559 8.099,23.571 20.568,23.571 13.56,0 21.933,-10.102 21.933,-25.21 V 4.186 h -30.397 c 0.273,-5.278 5.096,-9.101 11.194,-9.101 3.458,0 5.369,0.547 10.557,4.915"
         inkscape:connector-curvature="0"
         id="path112"
         style="fill:#231f20" /></g><g
       transform="translate(127.14,175.96)"
       id="g114"><path
         d="M 0,0 H 18.656 C 18.383,4.551 13.833,8.647 9.283,8.647 4.641,8.647 0.728,5.007 0,0"
         inkscape:connector-curvature="0"
         id="path116"
         style="fill:#ffd421" /></g><g
       transform="translate(179.76,172.32)"
       id="g118"><path
         d="M 0,0 -14.38,21.477 H -0.819 L 6.734,10.192 13.56,21.477 H 27.848 L 13.833,0 29.941,-24.573 H 16.108 l -9.374,14.015 -9.1,-14.015 H -16.109 L 0,0"
         inkscape:connector-curvature="0"
         id="path120"
         style="fill:#231f20" /></g><g
       transform="translate(215.1,170.23)"
       id="g122"><path
         d="m 0,0 c 0,14.471 7.554,24.846 22.389,24.846 8.736,0 17.382,-5.734 20.568,-15.108 L 31.125,5.279 c -1.547,5.096 -4.641,8.464 -9.374,8.464 -6.37,0 -8.918,-6.189 -8.918,-13.743 0,-8.009 2.366,-13.286 9.101,-13.286 4.641,0 7.098,2.548 9.191,8.372 l 12.196,-4.46 C 39.225,-19.748 32.946,-24.208 22.116,-24.208 7.554,-24.208 0,-14.651 0,0"
         inkscape:connector-curvature="0"
         id="path124"
         style="fill:#231f20" /></g><g
       transform="translate(298.49,162.4)"
       id="g126"><path
         d="m 0,0 7.371,-8.009 c -5.915,-5.369 -9.828,-7.645 -18.201,-7.645 -14.288,0 -23.025,10.557 -23.025,24.664 0,12.559 8.099,23.571 20.568,23.571 13.56,0 21.933,-10.102 21.933,-25.21 V 4.186 h -30.397 c 0.273,-5.278 5.096,-9.101 11.194,-9.101 3.458,0 5.369,0.547 10.557,4.915"
         inkscape:connector-curvature="0"
         id="path128"
         style="fill:#231f20" /></g><g
       transform="translate(276.74,175.96)"
       id="g130"><path
         d="M 0,0 H 18.657 C 18.384,4.551 13.833,8.647 9.283,8.647 4.641,8.647 0.728,5.007 0,0"
         inkscape:connector-curvature="0"
         id="path132"
         style="fill:#ffd421" /></g><g
       transform="translate(361.93,170.41)"
       id="g134"><path
         d="m 0,0 c 0,-13.743 -7.827,-23.48 -19.749,-23.48 -6.28,0 -7.19,0.636 -12.832,4.276 v -17.109 h -12.195 v 60.065 h 12.195 v -2.457 c 3.913,3.186 6.37,4.55 11.649,4.55 C -7.19,25.845 0,15.562 0,0"
         inkscape:connector-curvature="0"
         id="path136"
         style="fill:#231f20" /></g><g
       transform="translate(329.35,166.77)"
       id="g138"><path
         d="m 0,0 c 0,-4.823 5.369,-9.01 10.193,-9.01 7.008,0 9.646,5.461 9.646,13.469 0,8.737 -2.638,13.834 -10.101,13.834 C 0.819,18.293 0,10.375 0,7.19 V 0"
         inkscape:connector-curvature="0"
         id="path140"
         style="fill:#ffd421" /></g><g
       transform="translate(376.01,183.24)"
       id="g142"><path
         d="M 0,0 H -7.281 V 10.466 H 0 v 14.561 l 12.559,3.458 V 10.466 H 24.39 V 0 H 12.833 v -20.75 c 0,-4.641 1.728,-5.096 3.549,-5.096 1.82,0 3.185,0.363 6.826,1.092 l 2.82,-10.285 C 20.295,-36.585 15.107,-37.131 11.741,-37.131 7.372,-37.131 0,-34.857 0,-26.211 V 0"
         inkscape:connector-curvature="0"
         id="path144"
         style="fill:#231f20" /></g><path
       d="m 439.84,147.75 h 12.195 v 46.324 H 439.84 V 147.75 z"
       inkscape:connector-curvature="0"
       id="path146"
       style="fill:#231f20" /><g
       transform="translate(438.84,205.63)"
       id="g148"><path
         d="m 0,0 c 0,3.822 3.094,7.098 6.917,7.098 4.004,0 7.098,-3.276 7.098,-7.19 0,-3.822 -3.094,-7.007 -7.007,-7.007 C 3.094,-7.099 0,-3.914 0,0"
         inkscape:connector-curvature="0"
         id="path150"
         style="fill:#231f20" /></g><g
       transform="translate(482.63,193.98)"
       id="g152"><path
         d="m 0,0 c 1.912,0.91 4.186,1.182 6.371,1.182 10.011,0 17.565,-7.735 17.565,-17.017 V -46.233 H 11.832 v 26.393 c 0,5.187 -2.549,9.373 -7.554,9.373 -5.916,0 -9.738,-3.458 -9.738,-8.1 V -46.233 H -17.655 V -0.092 H -5.096 V -3.459 C -2.73,-1.456 -2.001,-0.728 0,0"
         inkscape:connector-curvature="0"
         id="path154"
         style="fill:#231f20" /></g><g
       transform="translate(112.05,71.396)"
       id="g156"><path
         d="m 0,0 7.371,-8.009 c -5.915,-5.37 -9.829,-7.644 -18.201,-7.644 -14.288,0 -23.025,10.556 -23.025,24.663 0,12.559 8.099,23.571 20.567,23.571 13.561,0 21.933,-10.103 21.933,-25.21 V 4.186 h -30.396 c 0.273,-5.279 5.096,-9.1 11.194,-9.1 3.458,0 5.369,0.546 10.557,4.914"
         inkscape:connector-curvature="0"
         id="path158"
         style="fill:#231f20" /></g><g
       transform="translate(90.302,84.956)"
       id="g160"><path
         d="M 0,0 H 18.656 C 18.383,4.55 13.833,8.646 9.283,8.646 4.641,8.646 0.727,5.005 0,0"
         inkscape:connector-curvature="0"
         id="path162"
         style="fill:#ffd421" /></g><g
       transform="translate(179.32,92.328)"
       id="g164"><path
         d="m 0,0 c -5.37,0 -7.918,-3.914 -7.918,-8.829 v -26.755 h -12.65 v 26.392 c 0,6.279 -2.458,9.192 -6.462,9.192 -5.005,0 -8.1,-4.187 -8.1,-8.829 v -26.755 h -12.194 v 46.05 H -35.13 V 7.007 c 3.823,3.459 6.371,4.733 10.558,4.733 5.915,0 7.826,-0.82 12.468,-5.824 4.914,4.914 8.372,6.005 13.56,6.005 9.92,0 17.291,-9.1 17.291,-18.747 V -35.584 H 6.37 V -9.192 C 6.37,-2.913 3.913,0 0,0"
         inkscape:connector-curvature="0"
         id="path166"
         style="fill:#231f20" /></g><g
       transform="translate(242.61,71.396)"
       id="g168"><path
         d="m 0,0 7.372,-8.009 c -5.916,-5.37 -9.829,-7.644 -18.202,-7.644 -14.288,0 -23.025,10.556 -23.025,24.663 0,12.559 8.1,23.571 20.568,23.571 13.56,0 21.933,-10.103 21.933,-25.21 V 4.186 h -30.397 c 0.273,-5.279 5.097,-9.1 11.194,-9.1 3.459,0 5.37,0.546 10.557,4.914"
         inkscape:connector-curvature="0"
         id="path170"
         style="fill:#231f20" /></g><g
       transform="translate(220.86,84.956)"
       id="g172"><path
         d="M 0,0 H 18.657 C 18.384,4.55 13.833,8.646 9.283,8.646 4.642,8.646 0.728,5.005 0,0"
         inkscape:connector-curvature="0"
         id="path174"
         style="fill:#ffd421" /></g><g
       transform="translate(274.47,98.334)"
       id="g176"><path
         d="m 0,0 c 2.731,3.64 7.372,5.37 12.105,5.37 0.636,0 1.183,0 2.275,-0.091 V -6.643 C 10.375,-6.826 9.192,-6.826 9.192,-6.826 4.005,-7.007 -0.273,-10.648 -0.273,-18.019 V -41.59 H -12.559 V 4.733 H -0.273 L 0,0"
         inkscape:connector-curvature="0"
         id="path178"
         style="fill:#231f20" /></g><g
       transform="translate(317.55,59.382)"
       id="g180"><path
         d="m 0,0 c -12.195,0 -19.839,8.828 -19.839,21.57 0,13.468 8.008,22.388 20.203,22.388 2.731,0 5.825,0.091 10.284,-3.185 v 2.639 H 23.299 V -1.455 c 0,-9.101 -9.192,-16.2 -21.57,-16.2 -7.553,0 -9.192,0.092 -20.658,5.461 l 5.551,10.011 c 5.005,-4.096 13.651,-4.096 13.651,-4.096 6.098,0 11.376,0.728 10.284,8.737 C 6.462,-0.363 4.733,0 0,0"
         inkscape:connector-curvature="0"
         id="path182"
         style="fill:#231f20" /></g><g
       transform="translate(319.82,70.486)"
       id="g184"><path
         d="m 0,0 c 5.643,0 8.555,3.004 8.555,8.281 v 6.189 c 0,4.186 -3.641,7.463 -8.372,7.463 -6.28,0 -9.829,-3.914 -9.829,-10.648 C -9.646,3.276 -7.28,0 0,0"
         inkscape:connector-curvature="0"
         id="path186"
         style="fill:#ffd421" /></g><g
       transform="translate(384.72,71.396)"
       id="g188"><path
         d="m 0,0 7.371,-8.009 c -5.915,-5.37 -9.828,-7.644 -18.201,-7.644 -14.288,0 -23.025,10.556 -23.025,24.663 0,12.559 8.1,23.571 20.568,23.571 13.559,0 21.932,-10.103 21.932,-25.21 V 4.186 h -30.396 c 0.272,-5.279 5.096,-9.1 11.193,-9.1 3.459,0 5.37,0.546 10.558,4.914"
         inkscape:connector-curvature="0"
         id="path190"
         style="fill:#231f20" /></g><g
       transform="translate(362.97,84.956)"
       id="g192"><path
         d="M 0,0 H 18.656 C 18.384,4.55 13.833,8.646 9.283,8.646 4.64,8.646 0.728,5.005 0,0"
         inkscape:connector-curvature="0"
         id="path194"
         style="fill:#ffd421" /></g><g
       transform="translate(421.77,102.98)"
       id="g196"><path
         d="m 0,0 c 1.911,0.91 4.186,1.184 6.371,1.184 10.01,0 17.564,-7.737 17.564,-17.02 V -46.232 H 11.832 v 26.392 c 0,5.188 -2.548,9.373 -7.554,9.373 -5.916,0 -9.738,-3.457 -9.738,-8.098 v -27.667 h -12.196 v 46.14 h 12.56 V -3.459 C -2.73,-1.456 -2.002,-0.729 0,0"
         inkscape:connector-curvature="0"
         id="path198"
         style="fill:#231f20" /></g><g
       transform="translate(455.84,79.223)"
       id="g200"><path
         d="m 0,0 c 0,14.47 7.553,24.845 22.387,24.845 8.738,0 17.383,-5.734 20.569,-15.108 L 31.125,5.278 c -1.548,5.097 -4.642,8.464 -9.374,8.464 -6.371,0 -8.919,-6.188 -8.919,-13.742 0,-8.009 2.366,-13.287 9.1,-13.287 4.642,0 7.1,2.548 9.193,8.372 L 43.32,-9.374 C 39.224,-19.749 32.945,-24.208 22.115,-24.208 7.553,-24.208 0,-14.653 0,0"
         inkscape:connector-curvature="0"
         id="path202"
         style="fill:#231f20" /></g><g
       transform="translate(530.03,50.464)"
       id="g204"><path
         d="m 0,0 c -1.547,-4.641 -4.459,-9.01 -10.648,-9.01 0,0 -3.276,0 -12.65,1.183 l 1.183,10.83 c 1.365,-0.364 4.551,-0.637 6.553,-0.637 2.184,0 4.277,1.183 4.277,3.731 0,0.82 0.091,1.912 -0.364,3.186 l -15.017,42.5 h 12.105 L -4.459,24.208 5.369,51.783 H 17.747 L 0,0"
         inkscape:connector-curvature="0"
         id="path206"
         style="fill:#231f20" /></g></g></svg>