<?xml version="1.0" encoding="UTF-8" standalone="no"?>
<svg xmlns:dc="http://purl.org/dc/elements/1.1/" xmlns:cc="http://creativecommons.org/ns#" xmlns:rdf="http://www.w3.org/1999/02/22-rdf-syntax-ns#" xmlns:svg="http://www.w3.org/2000/svg" xmlns="http://www.w3.org/2000/svg" xmlns:sodipodi="http://sodipodi.sourceforge.net/DTD/sodipodi-0.dtd" xmlns:inkscape="http://www.inkscape.org/namespaces/inkscape" width="603.60004" height="603.60004" viewBox="-50 -30 60.359985 60.360002" id="svg2" version="1.1" inkscape:version="0.48.4 r9939" sodipodi:docname="AJAX.svg">
  <metadata id="metadata14">
    <rdf:RDF>
      <cc:Work rdf:about="">
        <dc:format>image/svg+xml</dc:format>
        <dc:type rdf:resource="http://purl.org/dc/dcmitype/StillImage"/>
        <dc:title/>
      </cc:Work>
    </rdf:RDF>
  </metadata>
  <defs id="defs12"/>
  <sodipodi:namedview pagecolor="#ffffff" bordercolor="#666666" borderopacity="1" objecttolerance="10" gridtolerance="10" guidetolerance="10" inkscape:pageopacity="0" inkscape:pageshadow="2" inkscape:window-width="1920" inkscape:window-height="1057" id="namedview10" showgrid="false" fit-margin-top="1.8" fit-margin-left="1.8" fit-margin-right="1.8" fit-margin-bottom="1.8" inkscape:zoom="1.0068369" inkscape:cx="380.93982" inkscape:cy="289.8648" inkscape:window-x="-8" inkscape:window-y="-8" inkscape:window-maximized="1" inkscape:current-layer="g3013" showguides="true" inkscape:guide-bbox="true"/>
  <g id="g3013" transform="matrix(0.1,0,0,0.1,-151.65846,-32.008905)">
    <path style="font-size:medium;font-style:normal;font-variant:normal;font-weight:normal;font-stretch:normal;text-indent:0;text-align:start;text-decoration:none;line-height:normal;letter-spacing:normal;word-spacing:normal;text-transform:none;direction:ltr;block-progression:tb;writing-mode:lr-tb;text-anchor:start;baseline-shift:baseline;color:#000000;fill:#ffffff;fill-opacity:1;fill-rule:nonzero;stroke:#0079c1;stroke-width:2.99999992;marker:none;visibility:visible;display:inline;overflow:visible;enable-background:accumulate;font-family:Sans;-inkscape-font-specification:Sans;stroke-opacity:1;stroke-miterlimit:4;stroke-dasharray:none" d="m 1575.3845,21.889053 c 23.5526,0 43,19.4487 43,43 l 0,513.999997 c 0,23.5513 -19.4474,43 -43,43 l -514,0 c -23.5526,0 -43,-19.4487 -43,-43 l 0,-513.999997 c 0,-23.5513 19.4474,-43 43,-43 z" id="path3125" inkscape:connector-curvature="0" sodipodi:nodetypes="sssssssss"/>
    <path style="fill:#0079c1;fill-opacity:1;fill-rule:nonzero;stroke:none" d="m 1575.2907,43.889034 c 11.6425,0 21.0938,9.4514 21.0938,21.0937 l 0,513.812496 c 0,11.6424 -9.4513,21.0938 -21.0938,21.0938 l -513.8125,0 c -11.6423,0 -21.0937,-9.4514 -21.0937,-21.0938 l 0,-513.812496 c 0,-11.6423 9.4514,-21.0937 21.0937,-21.0937 z" id="path3176" inkscape:connector-curvature="0" sodipodi:nodetypes="sssssssss"/>
    <path style="fill:#ffffff;fill-opacity:1;stroke:none" d="m 1355.9796,547.13904 -75.19,0 0,-370.49998 75.19,0 z" id="rect4089" inkscape:connector-curvature="0" sodipodi:nodetypes="ccccc"/>
    <path style="fill:#ffffff;fill-opacity:1;stroke:none" d="m 1468.3846,218.03906 -300,0 0,-121.399997 300,0 z" id="rect4103" inkscape:connector-curvature="0"/>
    <path inkscape:connector-curvature="0" id="path4118" d="m 1464.3846,214.03906 -292,0 0,-113.4 292,0 z" style="fill:#ec1d24;fill-opacity:1;stroke:none" sodipodi:nodetypes="ccccc"/>
  </g>
</svg>