<?xml version="1.0" encoding="UTF-8" standalone="no"?>
<!-- Created with Inkscape (http://www.inkscape.org/) -->

<svg
   xmlns:dc="http://purl.org/dc/elements/1.1/"
   xmlns:cc="http://creativecommons.org/ns#"
   xmlns:rdf="http://www.w3.org/1999/02/22-rdf-syntax-ns#"
   xmlns:svg="http://www.w3.org/2000/svg"
   xmlns="http://www.w3.org/2000/svg"
   xmlns:inkscape="http://www.inkscape.org/namespaces/inkscape"
   version="1.1"
   width="193.78999"
   height="299.09"
   id="svg2"
   xml:space="preserve"><metadata
     id="metadata8"><rdf:RDF><cc:Work
         rdf:about=""><dc:format>image/svg+xml</dc:format><dc:type
           rdf:resource="http://purl.org/dc/dcmitype/StillImage" /></cc:Work></rdf:RDF></metadata><defs
     id="defs6"><clipPath
       id="clipPath18"><path
         d="M 0,2392.8 V 0 H 1550.3 V 2392.8 H 0 z"
         inkscape:connector-curvature="0"
         id="path20" /></clipPath></defs><g
     transform="matrix(1.25,0,0,-1.25,0,299.09)"
     id="g10"><g
       transform="scale(0.1,0.1)"
       id="g12"><g
         id="g14"><g
           clip-path="url(#clipPath18)"
           id="g16"><path
             d="M 1545.3,178.24 C 1545.3,82.559 1467.8,5 1372.1,5 H 178.2 C 82.562,5 5,82.559 5,178.24 v 2036.3 c 0,95.68 77.562,173.24 173.24,173.24 h 1193.8 c 95.68,0 173.24,-77.56 173.24,-173.24 V 178.24"
             inkscape:connector-curvature="0"
             id="path22"
             style="fill:#ffffff" /><path
             d="M 1545.3,178.24 C 1545.3,82.559 1467.8,5 1372.1,5 H 178.2 C 82.562,5 5,82.559 5,178.24 v 2036.3 c 0,95.68 77.562,173.24 173.24,173.24 h 1193.8 c 95.68,0 173.24,-77.56 173.24,-173.24 V 178.24 z"
             inkscape:connector-curvature="0"
             id="path24"
             style="fill:none;stroke:#0079c1;stroke-width:10" /><path
             d="m 1462.2,178.24 c 0,-49.797 -40.35,-90.156 -90.15,-90.156 H 178.25 c -49.797,0 -90.156,40.359 -90.156,90.156 v 2036.3 c 0,49.79 40.359,90.15 90.156,90.15 h 1193.8 c 49.8,0 90.15,-40.36 90.15,-90.15 V 178.24"
             inkscape:connector-curvature="0"
             id="path26"
             style="fill:#0079c1" /><path
             d="m 980.45,303.01 v 127.5 h -56.258 c 23.867,7.16 35.223,23.289 35.223,23.289 v 124.46 c 29.961,17.476 27.473,47.449 27.473,47.449 v 159.41 c 0,54.938 -51.621,57.859 -51.621,57.859 l -28.301,177.74 c -11.66,74.51 -71.594,87.41 -96.574,87.41 h -387.51 c -24.973,0 -84.914,-12.9 -96.571,-87.41 l -28.3,-177.74 c 0,0 -51.617,-2.921 -51.617,-57.859 v -159.41 c 0,0 -2.493,-29.973 27.472,-47.449 v -124.46 c 0,0 11.352,-16.129 35.219,-23.289 H 247.96 v -202.5 h 1076.2 v 75 H 980.41"
             inkscape:connector-curvature="0"
             id="path28"
             style="fill:#ffffff" /><path
             d="m 387.92,454.63 v 114.06 c 0,0 160.04,-8.543 228.72,-8.543 68.679,0 228.73,8.543 228.73,8.543 V 454.63 c 0,0 9.414,-16.777 32.617,-24.117 h -522.69 c 23.207,7.34 32.629,24.117 32.629,24.117"
             inkscape:connector-curvature="0"
             id="path30"
             style="fill:#0079c1" /><path
             d="m 616.64,884.19 c 48.281,0 190.84,-8.32 229.55,-8.32 49.114,0 40.371,46.617 40.371,46.617 l -7.91,53.282 c -8.75,44.94 -45.625,64.45 -78.035,68.04 -5.621,0.63 -112.39,8.13 -122.38,8.13 h -123.2 c -9.988,0 -116.76,-7.5 -122.37,-8.13 -32.414,-3.59 -69.293,-23.1 -78.051,-68.04 l -7.906,-53.282 c 0,0 -8.742,-46.617 40.375,-46.617 38.711,0 181.27,8.32 229.56,8.32"
             inkscape:connector-curvature="0"
             id="path32"
             style="fill:#0079c1" /><path
             d="M 652.62,1250.8 H 461.16 v 906.78 h 482.48 c 108.51,0 196.5,-87.98 196.5,-196.5 v -160.64 c 0,-108.52 -87.99,-196.49 -196.5,-196.49 H 652.62 V 1250.8"
             inkscape:connector-curvature="0"
             id="path34"
             style="fill:#ffffff" /><path
             d="m 652.62,2008.8 h 211.52 c 50.379,0 91.238,-40.85 91.238,-91.23 v -73.46 c 0,-50.39 -40.859,-91.24 -91.238,-91.24 H 652.62 v 255.93"
             inkscape:connector-curvature="0"
             id="path36"
             style="fill:#0079c1" /></g></g></g></g></svg>