<?xml version="1.0" encoding="UTF-8" standalone="no"?>
<!-- Created with Inkscape (http://www.inkscape.org/) -->

<svg
   xmlns:dc="http://purl.org/dc/elements/1.1/"
   xmlns:cc="http://creativecommons.org/ns#"
   xmlns:rdf="http://www.w3.org/1999/02/22-rdf-syntax-ns#"
   xmlns:svg="http://www.w3.org/2000/svg"
   xmlns="http://www.w3.org/2000/svg"
   xmlns:inkscape="http://www.inkscape.org/namespaces/inkscape"
   version="1.1"
   width="505.64999"
   height="227.25999"
   id="svg2"
   xml:space="preserve"><defs
     id="defs24" /><metadata
     id="metadata8"><rdf:RDF><cc:Work
         rdf:about=""><dc:format>image/svg+xml</dc:format><dc:type
           rdf:resource="http://purl.org/dc/dcmitype/StillImage" /></cc:Work></rdf:RDF></metadata><g
     transform="matrix(1.25,0,0,-1.25,-1.5366,227.37)"
     id="g10"><path
       d="M 1.23,16.41 C 1.1906,11.48 2.7234,7.3665 5.67,4.41 8.5232,1.5667 12.636,0.0666 17.55,0.09 h 324.6 c 3.544,-0.023438 6.692,0.15527 9.72,1.92 2.665,1.6395 4.895,4.2691 7.92,9.36 v 0.12 c 7.738,13.371 43.667,73.033 43.92,73.56 1.092,1.78 2.099,3.704 2.04,6 -0.065,2.196 -0.948,4.12 -2.04,5.88 -0.253,0.547 -36.182,60.209 -43.92,73.56 v 0.12 c -3.025,5.111 -5.255,7.74 -7.92,9.36 -3.028,1.785 -6.176,1.963 -9.72,1.92 H 17.55 C 12.636,181.933 8.5232,180.433 5.67,177.57 2.7234,174.634 1.1906,170.52 1.23,165.69 V 16.41"
       inkscape:connector-curvature="0"
       id="path12" /><path
       d="M 9.03,16.41 C 8.9905,13.554 9.7132,11.407 11.19,9.93 12.564,8.5565 14.711,7.8665 17.55,7.89 h 324.6 c 5.396,-0.0235 6.514,0.0096 10.92,7.44 1.068,1.897 43.607,73.052 43.92,73.68 1.17,1.914 1.223,1.867 0,3.84 -0.313,0.661 -42.852,71.923 -43.92,73.8 -4.406,7.45 -5.524,7.484 -10.92,7.44 H 17.55 c -2.839,0.044 -4.986,-0.646 -6.36,-2.04 -1.4768,-1.457 -2.1995,-3.604 -2.16,-6.36 V 16.41"
       inkscape:connector-curvature="0"
       id="path14"
       style="fill:#ffffff" /><path
       d="M 347.43,90.93 C 347.07,90.292 304.71,16.89 304.71,16.89 h 33 c 0,0 42.371,73.51 42.72,74.16 -0.349,0.55 -42.72,74.04 -42.72,74.04 h -33 c 0,0 42.358,-73.382 42.72,-74.04"
       inkscape:connector-curvature="0"
       id="path16" /><path
       d="m 23.43,46.65 c -0.129,17.119 7.232,38.82 19.08,60 13.349,24.035 30.065,41.822 45.84,50.52 0,0 2.586,1.434 7.2,1.8 2.733,0.227 6.356,-0.3 9.36,-2.04 2.93,-1.749 11.4,-8.16 11.4,-8.16 0,0 3.858,-2.988 0.72,-6.72 L 96.51,121.29 c 0,0 -1.61,-1.403 -2.76,-1.44 -1.249,0.026 -3.427,1.283 -4.44,2.28 -1.263,1.151 -2.363,5.43 -4.2,6.48 -2.405,1.384 -7.317,4.19 -10.32,0.36 C 72.037,125.33 47.442,83.805 45.51,80.13 42.844,74.806 39.944,67.296 42.15,56.01 c 1.446,0.09 7.99,0.868 8.88,0.96 0.909,0.036 4.751,-0.126 6.6,-3.96 1.188,0.034 2.48,-0.385 2.52,-1.92 V 28.53 C 60.125,26.985 58.818,26.553 57.63,26.61 55.819,22.724 52.107,22.586 51.15,22.53 46.328,22.558 23.506,21.453 23.43,46.65"
       inkscape:connector-curvature="0"
       id="path18" /><path
       d="m 133.35,88.77 h -6.6 V 77.25 h -6.6 v 31.68 h 12.6 c 9.582,0.049 11.067,-8.051 11.04,-10.32 0.027,-3.086 -2.628,-9.88 -10.44,-9.84"
       inkscape:connector-curvature="0"
       id="path20" /><path
       d="m 137.19,98.61 c 0.012,2.899 -1.833,4.339 -4.44,4.32 h -6 v -8.52 h 6 c 2.112,-0.01 4.452,1.609 4.44,4.2"
       inkscape:connector-curvature="0"
       id="path22"
       style="fill:#ffffff" /><path
       d="m 155.19,76.65 c -5.006,0.02 -7.931,2.81 -7.92,7.2 -0.011,3.845 2.329,7.94 13.32,7.92 v 1.32 c -0.011,1.31 -1.361,2.164 -3.48,2.16 -1.706,0.004 -4.676,-1.03 -6.84,-2.28 l -2.88,4.44 c 1.579,1.174 5.494,3.379 9.72,3.36 6.304,0.019 9.588,-2.411 9.6,-6.84 v -9.48 c -0.012,-2.02 0.528,-2.605 2.64,-3 l -2.16,-4.68 c -1.032,-0.055 -4.047,0.35 -5.52,2.28 -2.081,-1.93 -3.971,-2.38 -6.48,-2.4"
       inkscape:connector-curvature="0"
       id="path24" /><path
       d="m 157.11,81.81 c 2.524,-0.055 3.649,0.665 3.6,2.52 v 2.88 l -4.56,-0.6 c -2.051,-0.355 -2.456,-1.435 -2.4,-2.64 -0.056,-1.54 0.844,-2.215 3.36,-2.16"
       inkscape:connector-curvature="0"
       id="path26"
       style="fill:#ffffff" /><path
       d="m 185.43,74.25 c -0.762,-2.35 -2.202,-4.509 -5.28,-4.56 0,0 -1.601,0.051 -6.24,0.6 l 0.6,5.4 c 0.664,-0.19 2.239,-0.325 3.24,-0.36 1.069,0.035 2.104,0.62 2.16,1.92 -0.056,0.365 -0.011,0.905 -0.24,1.56 l -7.44,21 h 6 l 5.04,-13.68 4.8,13.68 h 6.12 l -8.76,-25.56"
       inkscape:connector-curvature="0"
       id="path28" /><path
       d="m 220.71,88.53 c -0.027,-6.82 -3.897,-11.635 -9.84,-11.64 -3.056,0.005 -3.506,0.32 -6.24,2.16 v -8.52 h -6.12 v 29.76 h 6.12 v -1.2 c 1.879,1.519 3.094,2.194 5.76,2.16 6.738,0.034 10.293,-5.051 10.32,-12.72"
       inkscape:connector-curvature="0"
       id="path30" /><path
       d="m 204.63,86.73 c -0.056,-2.41 2.599,-4.48 5.04,-4.44 3.409,-0.04 4.714,2.66 4.68,6.6 0.034,4.339 -1.271,6.859 -4.92,6.84 -4.451,0.019 -4.856,-3.895 -4.8,-5.52 v -3.48"
       inkscape:connector-curvature="0"
       id="path32"
       style="fill:#ffffff" /><path
       d="m 237.39,100.65 c 4.699,0.004 8.659,-4.136 8.64,-9.48 V 77.25 h -6.12 v 14.04 c -0.026,2.344 -1.286,3.649 -3.96,3.6 -2.861,0.049 -4.301,-2.2 -4.32,-4.68 V 77.25 h -6 v 31.8 h 6 V 98.49 c 2.449,1.849 3.754,2.164 5.76,2.16"
       inkscape:connector-curvature="0"
       id="path34" /><path
       d="m 250.71,88.41 c 0.02,9.229 5.42,12.604 10.8,12.6 4.925,0.004 11.044,-3.371 11.04,-12.6 0.004,-6.79 -4.451,-11.92 -10.68,-11.88 -6.91,-0.04 -11.14,4.685 -11.16,11.88"
       inkscape:connector-curvature="0"
       id="path36" /><path
       d="m 266.43,88.41 c -0.04,5.359 -1.885,7.024 -4.56,7.08 -3.445,-0.056 -4.84,-2.846 -4.8,-7.08 -0.04,-3.685 1.76,-6.475 4.8,-6.48 2.945,0.005 4.52,2.795 4.56,6.48"
       inkscape:connector-curvature="0"
       id="path38"
       style="fill:#ffffff" /><path
       d="m 286.95,100.17 c 0.995,0.439 2.12,0.574 3.24,0.6 4.91,-0.026 8.645,-3.851 8.64,-8.4 V 77.25 h -6 v 13.08 c 0.02,2.584 -1.24,4.654 -3.72,4.68 -2.919,-0.026 -4.809,-1.735 -4.8,-4.08 V 77.25 h -6 v 22.92 h 6.12 v -1.68 c 1.221,0.949 1.581,1.309 2.52,1.68"
       inkscape:connector-curvature="0"
       id="path40" /><path
       d="m 320.43,84.57 3.6,-3.96 c -2.93,-2.68 -4.865,-3.805 -9,-3.84 -7.069,0.035 -11.389,5.255 -11.4,12.24 0.011,6.199 4.016,11.644 10.2,11.64 6.685,0.004 10.825,-4.991 10.8,-12.48 v -1.56 h -15 c 0.131,-2.605 2.516,-4.495 5.52,-4.44 1.721,-0.055 2.665,0.215 5.28,2.4"
       inkscape:connector-curvature="0"
       id="path42" /><path
       d="m 309.63,91.29 h 9.24 c -0.154,2.21 -2.404,4.234 -4.68,4.2 -2.269,0.034 -4.204,-1.766 -4.56,-4.2"
       inkscape:connector-curvature="0"
       id="path44"
       style="fill:#ffffff" /></g></svg>