<?xml version="1.0" encoding="UTF-8" standalone="no"?>
<!-- Created with Inkscape (http://www.inkscape.org/) -->
<svg xmlns:dc="http://purl.org/dc/elements/1.1/" xmlns:cc="http://creativecommons.org/ns#" xmlns:rdf="http://www.w3.org/1999/02/22-rdf-syntax-ns#" xmlns:svg="http://www.w3.org/2000/svg" xmlns="http://www.w3.org/2000/svg" xmlns:inkscape="http://www.inkscape.org/namespaces/inkscape" version="1.1" width="638.60999" height="247.24001" id="svg2" xml:space="preserve"><metadata id="metadata8"><rdf:RDF><cc:Work rdf:about=""><dc:format>image/svg+xml</dc:format><dc:type rdf:resource="http://purl.org/dc/dcmitype/StillImage"/></cc:Work></rdf:RDF></metadata><defs id="defs6"><clipPath id="clipPath16"><path d="M 0,197.79 H 510.89 V 0 H 0 v 197.79 z" inkscape:connector-curvature="0" id="path18"/></clipPath></defs><g transform="matrix(1.25,0,0,-1.25,0,247.24)" id="g10"><g id="g12"><g clip-path="url(#clipPath16)" id="g14"><g transform="translate(510.89,24.939)" id="g20"><path d="M 0,0 C 0,-13.773 -11.166,-24.939 -24.94,-24.939 H -438 c -5.827,0 -11.055,0.298 -16.038,3.277 -4.471,2.674 -8.174,7.04 -13.206,15.575 l -0.017,0.03 -0.018,0.029 c -12.807,22.264 -39.803,69.232 -40.315,70.112 -1.722,2.952 -3.292,6.106 -3.292,9.877 0,3.772 1.57,6.925 3.292,9.877 0.512,0.88 27.508,47.849 40.315,70.112 l 0.018,0.03 0.017,0.029 c 5.032,8.535 8.735,12.902 13.206,15.576 4.983,2.979 10.211,3.276 16.038,3.276 h 413.06 c 13.774,0 24.94,-11.16 24.94,-24.94 V 0.001" inkscape:connector-curvature="0" id="path22" style="fill:#ffd421"/></g></g></g><g transform="translate(497.94,24.939)" id="g24"><path d="m 0,0 c 0,-6.621 -5.367,-11.987 -11.988,-11.987 h -413.06 c -8.903,0 -10.76,0.056 -18.072,12.455 -1.778,3.091 -39.751,69.144 -40.333,70.142 -0.962,1.649 -1.456,2.479 -1.444,3.351 0.012,0.872 0.482,1.702 1.444,3.351 0.582,0.998 38.555,67.051 40.333,70.142 7.312,12.399 9.169,12.455 18.072,12.455 h 413.06 c 6.623,0 11.99,-5.37 11.99,-11.99 V -10e-4" inkscape:connector-curvature="0" id="path26" style="fill:#559721"/></g><g transform="translate(31.427,98.9)" id="g28"><path d="m 0,0 c 0.581,-0.997 42.049,-72.856 42.049,-72.856 h 38.915 c 0,0 -41.469,71.859 -42.05,72.856 0.581,0.997 42.05,72.856 42.05,72.856 H 42.049 C 42.049,72.858 0.581,0.999 0,0.002" inkscape:connector-curvature="0" id="path30" style="fill:#ffffff"/></g><g transform="translate(162.3,139.77)" id="g32"><path d="M 0,0 V -7.088 H -20.096 V -20.784 H 3.097 v -7.364 H -28.63 V 19.958 H 1.72 V 12.801 H -20.578 V 0 H 0" inkscape:connector-curvature="0" id="path34" style="fill:#ffffff"/></g><g transform="translate(207.88,139.29)" id="g36"><path d="m 0,0 c -3.647,0 -5.987,-2.959 -5.987,-7.088 v -20.578 h -7.501 v 22.161 c 0,1.376 -1.446,5.437 -5.437,5.437 -3.854,0 -6.194,-2.684 -6.194,-6.883 v -20.715 h -7.708 V 6.676 h 7.708 V 3.579 c 2.753,3.51 8.121,3.51 8.121,3.51 0,0 5.643,0 9.015,-4.267 3.51,4.336 9.291,4.336 9.291,4.336 6.4,0 12.044,-4.543 12.044,-10.943 v -23.881 h -7.57 v 22.23 C 5.782,-1.996 3.098,0 0,0" inkscape:connector-curvature="0" id="path38" style="fill:#ffffff"/></g><g transform="translate(230.26,128.9)" id="g40"><path d="m 0,0 c 0,10.805 6.538,17.893 16.173,17.893 9.222,0 14.934,-6.675 14.934,-19.407 V -2.753 H 8.052 c 0.826,-5.23 3.648,-7.983 8.671,-7.983 0,0 4.956,0 8.122,3.372 l 4.542,-5.712 C 24.5,-18.238 16.861,-18.238 16.861,-18.238 6.331,-18.238 0,-11.287 0,0" inkscape:connector-curvature="0" id="path42" style="fill:#ffffff"/></g><g transform="translate(238.31,131.93)" id="g44"><path d="M 0,0 H 15.416 C 15.141,5.162 12.594,8.328 8.19,8.328 3.923,8.328 0.55,5.781 0,0" inkscape:connector-curvature="0" id="path46" style="fill:#559721"/></g><g transform="translate(288.18,138.53)" id="g48"><path d="m 0,0 c -10.392,1.996 -10.392,-9.498 -10.392,-9.498 v -17.411 h -7.502 V 7.433 h 7.502 V 3.923 C -8.947,6.056 -4.405,8.671 0,7.914 V 0" inkscape:connector-curvature="0" id="path50" style="fill:#ffffff"/></g><g transform="translate(309.56,99.925)" id="g52"><path d="m 0,0 c 0,0 -7.02,0 -12.25,3.235 l 2.684,6.537 c 3.785,-1.857 6.95,-2.545 10.322,-2.545 2.96,0 7.434,0.55 7.434,5.436 v 4.543 C 4.679,14.384 0.413,14.384 0.413,14.384 c -12.456,0 -14.59,12.043 -14.59,16.448 0,5.024 2.547,15.898 14.177,15.898 0,0 5.85,0 8.052,-3.166 v 2.546 h 7.571 V 12.663 C 15.623,7.846 15.21,0 0,0" inkscape:connector-curvature="0" id="path54" style="fill:#ffffff"/></g><g transform="translate(310.39,121.4)" id="g56"><path d="M 0,0 C 5.368,0 7.364,3.992 7.364,9.084 8.19,17.825 0,17.825 0,17.825 -5.025,17.825 -7.157,14.659 -7.157,9.084 -7.157,3.923 -5.025,0 0,0" inkscape:connector-curvature="0" id="path58" style="fill:#559721"/></g><g transform="translate(333.99,128.9)" id="g60"><path d="m 0,0 c 0,10.805 6.538,17.893 16.173,17.893 9.222,0 14.935,-6.675 14.935,-19.407 V -2.753 H 8.053 c 0.825,-5.23 3.646,-7.983 8.671,-7.983 0,0 4.955,0 8.121,3.372 l 4.542,-5.712 C 24.5,-18.238 16.862,-18.238 16.862,-18.238 6.332,-18.238 0,-11.287 0,0" inkscape:connector-curvature="0" id="path62" style="fill:#ffffff"/></g><g transform="translate(342.04,131.93)" id="g64"><path d="M 0,0 H 15.416 C 15.141,5.162 12.594,8.328 8.188,8.328 3.922,8.328 0.55,5.781 0,0" inkscape:connector-curvature="0" id="path66" style="fill:#559721"/></g><g transform="translate(402.17,135.44)" id="g68"><path d="m 0,0 v -23.812 h -7.57 v 22.161 c 0,1.238 -1.859,5.712 -6.056,5.712 -3.785,0 -7.089,-3.648 -7.089,-7.158 v -20.715 h -7.777 V 10.53 h 7.777 V 7.433 c 2.546,3.922 9.429,3.922 9.429,3.922 C -5.85,11.355 0,6.332 0,0" inkscape:connector-curvature="0" id="path70" style="fill:#ffffff"/></g><g transform="translate(439.84,137.91)" id="g72"><path d="m 0,0 -6.331,-3.234 c -2.479,5.161 -7.502,5.161 -7.502,5.161 -4.955,0 -8.672,-5.024 -8.672,-11.562 0,-6.194 3.991,-10.598 8.534,-10.598 0,0 3.51,0 7.984,5.161 l 6.125,-2.684 c -4.199,-9.016 -14.797,-9.016 -14.797,-9.016 -9.085,0 -15.416,8.259 -15.416,17.068 0,10.53 6.194,18.307 15.966,18.307 0,0 8.878,0 14.109,-8.603" inkscape:connector-curvature="0" id="path74" style="fill:#ffffff"/></g><g transform="translate(474.26,145.97)" id="g76"><path d="m 0,0 -13.352,-40.673 c -1.719,-5.231 -7.226,-5.162 -8.74,-5.162 0,0 -3.166,0 -6.263,0.757 l 1.034,6.263 c 3.715,-0.344 5.023,-0.344 5.023,-0.344 0.757,-0.069 4.473,-0.207 2.409,5.918 L -30.763,0 h 8.19 L -15.416,-23.262 -8.19,0 H 0" inkscape:connector-curvature="0" id="path78" style="fill:#ffffff"/></g><g transform="translate(193.96,54.16)" id="g80"><path d="m 0,0 10.461,36.613 h 8.465 L 5.093,-11.356 H -5.23 l -14.384,47.969 h 8.465 L 0,0" inkscape:connector-curvature="0" id="path82" style="fill:#ffffff"/></g><g transform="translate(212.71,60.079)" id="g84"><path d="m 0,0 c 0,10.804 6.538,17.893 16.173,17.893 9.222,0 14.934,-6.675 14.934,-19.407 V -2.753 H 8.052 c 0.826,-5.231 3.648,-7.984 8.672,-7.984 0,0 4.955,0 8.12,3.373 l 4.543,-5.712 C 24.5,-18.238 16.861,-18.238 16.861,-18.238 6.331,-18.238 0,-11.286 0,0" inkscape:connector-curvature="0" id="path86" style="fill:#ffffff"/></g><g transform="translate(220.76,63.106)" id="g88"><path d="M 0,0 H 15.416 C 15.14,5.162 12.594,8.328 8.19,8.328 3.923,8.328 0.55,5.782 0,0" inkscape:connector-curvature="0" id="path90" style="fill:#559721"/></g><g transform="translate(280.41,67.58)" id="g92"><path d="m 0,0 v -24.776 h -7.019 v 20.785 c 0,3.579 -2.272,7.088 -6.057,7.088 -5.23,0 -7.295,-4.404 -7.295,-7.088 v -20.785 h -7.501 v 48.244 h 7.501 V 6.47 c 2.271,4.06 8.533,4.06 8.533,4.06 C -3.51,10.53 0,4.06 0,0" inkscape:connector-curvature="0" id="path94" style="fill:#ffffff"/></g><path d="m 290.18,42.804 h 7.571 V 77.215 H 290.18 V 42.804 z" inkscape:connector-curvature="0" id="path96" style="fill:#ffffff"/><g transform="translate(289.29,86.507)" id="g98"><path d="M 0,0 C 0,2.408 2.134,4.61 4.543,4.61 7.227,4.61 9.291,2.477 9.291,0 9.291,-2.685 7.227,-4.749 4.611,-4.749 2.134,-4.749 0,-2.685 0,0" inkscape:connector-curvature="0" id="path100" style="fill:#ffffff"/></g><g transform="translate(336.86,69.094)" id="g102"><path d="m 0,0 -6.332,-3.234 c -2.476,5.161 -7.501,5.161 -7.501,5.161 -4.955,0 -8.671,-5.023 -8.671,-11.562 0,-6.194 3.992,-10.598 8.534,-10.598 0,0 3.509,0 7.983,5.161 l 6.125,-2.683 c -4.198,-9.016 -14.796,-9.016 -14.796,-9.016 -9.085,0 -15.416,8.259 -15.416,17.067 0,10.53 6.194,18.307 15.966,18.307 0,0 8.878,0 14.108,-8.603" inkscape:connector-curvature="0" id="path104" style="fill:#ffffff"/></g><g transform="translate(355.24,49.48)" id="g106"><path d="m 0,0 c 0,0 1.377,0 4.061,0.483 l 0.894,-6.746 c -3.165,-0.55 -6.812,-0.55 -6.812,-0.55 -7.158,-0.619 -8.879,2.96 -8.879,11.217 v 37.027 h 7.57 V 4.818 C -3.166,1.238 -2.34,0 0,0" inkscape:connector-curvature="0" id="path108" style="fill:#ffffff"/></g><g transform="translate(364.01,60.079)" id="g110"><path d="m 0,0 c 0,10.804 6.538,17.893 16.172,17.893 9.222,0 14.934,-6.675 14.934,-19.407 V -2.753 H 8.051 c 0.826,-5.231 3.648,-7.984 8.671,-7.984 0,0 4.955,0 8.121,3.373 l 4.543,-5.712 C 24.5,-18.238 16.861,-18.238 16.861,-18.238 6.331,-18.238 0,-11.286 0,0" inkscape:connector-curvature="0" id="path112" style="fill:#ffffff"/></g><g transform="translate(372.06,63.106)" id="g114"><path d="M 0,0 H 15.415 C 15.141,5.162 12.595,8.328 8.19,8.328 3.923,8.328 0.55,5.782 0,0" inkscape:connector-curvature="0" id="path116" style="fill:#559721"/></g><g transform="translate(409.14,67.718)" id="g118"><path d="m 0,0 c 0,-1.72 1.996,-3.028 5.024,-3.648 6.125,-1.238 5.299,-1.17 7.157,-1.927 3.786,-1.376 6.057,-4.266 6.057,-9.015 0,-5.712 -4.749,-11.15 -12.319,-11.15 -5.231,0 -8.671,1.032 -15.21,6.263 l 4.886,4.887 c 3.373,-3.097 5.989,-4.13 9.361,-4.13 3.646,0 5.642,1.101 5.642,3.648 0,2.546 -1.376,2.546 -8.534,4.611 -8.602,2.478 -9.359,7.02 -9.359,10.323 0,4.749 3.51,10.736 13.42,10.736 0,0 7.226,0 11.906,-4.955 L 13.902,0.413 C 10.392,3.922 5.988,3.922 5.988,3.922 2.409,3.922 0,2.271 0,0" inkscape:connector-curvature="0" id="path120" style="fill:#ffffff"/></g></g></svg>