<?xml version="1.0" encoding="utf-8"?>
<!-- Generator: Adobe Illustrator 16.0.3, SVG Export Plug-In . SVG Version: 6.00 Build 0)  -->
<!DOCTYPE svg PUBLIC "-//W3C//DTD SVG 1.1//EN" "http://www.w3.org/Graphics/SVG/1.1/DTD/svg11.dtd">
<svg version="1.1" id="Layer_1" xmlns="http://www.w3.org/2000/svg" xmlns:xlink="http://www.w3.org/1999/xlink" x="0px" y="0px"
	 width="360px" height="159.887px" viewBox="0 0 360 159.887" enable-background="new 0 0 360 159.887" xml:space="preserve">
<path fill-rule="evenodd" clip-rule="evenodd" d="M54.523,0c-5.589,0-10.486,2.976-13.279,7.866
	C27.962,30.577,14.507,53.298,1.047,76.189C0.523,77.412,0,78.635,0,80.032c0,1.396,0.523,2.619,1.047,3.84
	c13.284,22.717,26.566,45.433,40.021,68.329c2.795,5.061,7.69,7.686,13.455,7.686h289.93c8.563,0,15.547-6.994,15.547-15.381V15.551
	C360,7.169,353.016,0,344.453,0H54.523"/>
<path fill-rule="evenodd" clip-rule="evenodd" fill="#FFFFFF" d="M54.523,152.373c-2.795,0-5.241-1.754-6.638-4.019
	c-13.28-22.716-26.564-45.433-40.021-68.322C21.146,57.316,34.43,34.6,47.711,11.884c1.571-2.445,3.843-4.018,6.812-4.018h289.93
	c4.188,0,7.861,3.492,7.861,7.686v129.135c0,4.019-3.673,7.687-7.861,7.687H54.523"/>
<polygon fill-rule="evenodd" clip-rule="evenodd" points="22.892,80.032 59.769,144.506 89.479,144.506 52.602,80.032 
	89.479,15.551 59.769,15.551 "/>
<polyline fill-rule="evenodd" clip-rule="evenodd" points="120.236,63.959 117.962,63.959 114.116,83.352 109.577,63.959 
	103.457,63.959 110.101,92.791 117.087,92.791 121.283,71.816 125.477,92.791 132.468,92.791 138.932,63.959 132.819,63.959 
	128.621,83.352 124.427,63.959 122.681,63.959 "/>
<path fill-rule="evenodd" clip-rule="evenodd" d="M184.023,73.74V64.13h-5.246v28.831h5.246v-0.872c0,0,2.27,1.573,5.416,1.573
	c3.146,0,9.784-2.625,9.784-11.012c0-8.561-6.818-10.835-9.264-10.835C187.345,71.816,186.293,72.342,184.023,73.74 M184.023,80.904
	v4.021c0,1.743,1.572,4.188,4.714,4.188c3.146,0,4.9-2.615,4.9-6.463c0-3.841-2.104-5.76-4.9-5.76
	C186.122,76.891,184.023,78.459,184.023,80.904"/>
<path fill-rule="evenodd" clip-rule="evenodd" d="M305.654,81.958c0-2.102-1.052-4.371-3.672-4.371
	c-2.791,0-3.843,2.445-3.843,4.371c0,1.914,0.876,4.54,3.843,4.54C304.603,86.499,305.654,84.223,305.654,81.958 M292.197,97.51
	l2.445-4.549c1.047,0.53,2.971,1.753,6.644,1.753c5.24,0,4.368-4.027,4.368-4.027s-1.748,1.231-4.018,1.231
	c-9.264,0-9.439-9.96-9.439-9.96s0-4.546,3.146-7.347c1.744-1.569,3.672-2.27,6.293-2.27c0.696,0,2.795,0.175,4.018,1.047v-1.223
	h5.416v20.975c0,4.891-6.292,6.634-9.609,6.634C298.14,99.775,294.292,98.552,292.197,97.51"/>
<path fill-rule="evenodd" clip-rule="evenodd" d="M322.779,73.389V64.13h-5.416v28.831h5.416V80.734
	c0-1.924,1.749-3.672,3.668-3.672c1.924,0,4.022,1.222,4.022,3.672v12.228h5.241V78.81c0-4.023-3.492-6.994-7.34-6.994
	C324.879,71.816,323.48,73.043,322.779,73.389"/>
<path fill-rule="evenodd" clip-rule="evenodd" d="M175.285,92.961l-0.699-4.891c-2.448,0.692-3.675,0.171-3.675-1.052V64.13h-5.414
	v25.163c0,2.095,1.398,4.369,5.414,4.369C173.013,93.663,175.285,92.961,175.285,92.961"/>
<path fill-rule="evenodd" clip-rule="evenodd" d="M212.506,71.47c-5.065,0-10.136,4.018-10.136,11.181
	c0,7.164,5.07,11.362,10.136,11.362c5.07,0,9.96-4.198,9.96-11.362C222.466,75.488,217.4,71.47,212.506,71.47 M212.506,76.189
	c-2.274,0-4.72,2.094-4.72,6.461c0,4.549,2.445,6.643,4.72,6.643c2.104,0,4.72-2.094,4.72-6.643
	C217.226,78.284,214.609,76.189,212.506,76.189"/>
<path fill-rule="evenodd" clip-rule="evenodd" d="M282.588,91.388v1.402h5.24V72.167h-5.24v11.536c0,2.966-2.62,4.539-4.72,4.539
	c-1.924,0-3.146-1.393-3.146-3.497V72.167h-5.416v13.801c0,3.848,3.317,7.345,7.69,7.345
	C279.792,93.312,281.887,92.089,282.588,91.388"/>
<path fill-rule="evenodd" clip-rule="evenodd" d="M159.378,87.37V76.536v0.004c0-2.8-2.621-4.895-8.385-4.895
	c-4.547,0-7.515,1.919-8.738,2.62l2.445,4.018c1.746-1.222,5.416-1.924,6.992-1.924c1.573,0,2.272,1.052,2.272,1.753v1.223
	c-1.749,0-6.468,0.872-8.216,1.398c-1.746,0.521-4.542,1.746-4.542,5.935c0,4.019,4.194,6.823,8.56,6.823
	c3.675,0,4.897-2.104,4.897-2.104s1.746,2.104,4.89,2.274l2.102-4.369C159.205,88.763,159.378,87.891,159.378,87.37 M153.964,83.522
	v3.848c0,1.573-2.971,1.573-3.495,1.573c-0.528,0-3.672,0-3.672-2.625C146.797,83.703,150.645,83.522,153.964,83.522"/>
<path fill-rule="evenodd" clip-rule="evenodd" d="M239.771,76.891v-5.075c-5.069-0.17-5.946,1.227-7.169,2.45v-2.099h-5.411v20.795
	h5.411V82.651C232.602,79.506,235.928,76.891,239.771,76.891"/>
<path fill-rule="evenodd" clip-rule="evenodd" d="M253.574,71.47c-4.891,0-9.96,4.018-9.96,11.181c0,7.164,4.895,11.362,9.96,11.362
	c5.245,0,10.136-4.198,10.136-11.362C263.71,75.488,258.645,71.47,253.574,71.47 M253.574,76.189c-2.27,0-4.715,2.094-4.715,6.461
	c0,4.549,2.62,6.643,4.715,6.643c2.274,0,4.895-2.094,4.895-6.643C258.469,78.284,255.849,76.189,253.574,76.189"/>
<polyline fill-rule="evenodd" clip-rule="evenodd" points="182.801,39.319 182.801,51.549 177.207,51.549 177.207,30.406 
	168.467,42.636 159.554,30.577 159.554,51.549 154.138,51.549 154.138,22.721 161.131,22.721 168.467,33.032 175.633,22.721 
	182.801,22.721 182.801,30.928 "/>
<path fill-rule="evenodd" clip-rule="evenodd" d="M207.09,45.958V35.301c0-2.795-2.791-4.895-8.392-4.895
	c-4.54,0-7.687,1.924-8.738,2.625l2.274,4.013c1.754-1.222,5.592-2.094,7.165-2.094s2.274,1.223,2.274,1.924v1.223
	c-1.924,0-6.463,0.696-8.217,1.397c-1.748,0.521-4.544,1.744-4.544,5.938c0,4.023,4.198,6.819,8.392,6.819
	c3.668,0,4.891-2.274,4.891-2.274s1.924,2.274,5.069,2.274l2.095-4.194C206.914,47.531,207.09,46.655,207.09,45.958 M201.674,42.115
	v4.014c0,1.578-3.146,1.578-3.497,1.578c-0.521,0-3.843-0.175-3.843-2.625C194.334,42.461,198.353,42.286,201.674,42.115"/>
<path fill-rule="evenodd" clip-rule="evenodd" d="M258.469,43.163h13.633c0.346-2.445-0.701-12.932-9.439-12.932
	c-7.865,0-9.438,8.387-9.438,11.008c0,2.62,1.573,11.012,9.965,11.012c4.895,0,7.34-2.796,8.036-3.497l-3.316-3.146
	c0,0-1.573,1.924-4.549,1.924C260.218,47.531,258.469,45.257,258.469,43.163 M258.645,39.144h8.216c0-1.924-1.577-4.193-4.198-4.193
	C260.042,34.951,258.645,37.045,258.645,39.144"/>
<polyline fill-rule="evenodd" clip-rule="evenodd" points="236.104,32.506 236.104,22.721 230.858,22.721 230.858,51.549 
	236.104,51.549 236.104,45.958 238.373,43.684 243.614,51.549 250.257,51.549 242.041,39.841 250.428,31.103 243.264,31.103 
	236.104,38.793 236.104,34.079 "/>
<path fill-rule="evenodd" clip-rule="evenodd" d="M225.617,35.652v-5.246c-5.07,0-5.771,1.398-6.994,2.625v-2.104h-5.416v20.622
	h5.416V41.239C218.623,38.272,221.945,35.652,225.617,35.652"/>
<path fill-rule="evenodd" clip-rule="evenodd" d="M290.103,51.028l-1.047-4.374c-3.677,1.052-4.725,0-4.725-0.872V35.477h5.421
	v-4.549h-5.421v-8.207l-5.416,1.568v6.639h-3.321v4.549h3.321v12.23c0,2.621,1.573,4.544,5.592,4.544
	C287.478,52.251,289.401,51.374,290.103,51.028"/>
<path fill-rule="evenodd" clip-rule="evenodd" d="M124.603,118.473c0.699-0.351,3.144-2.445,3.144-5.942
	c0-3.316-2.969-7.335-7.686-7.335h-13.983v29h14.159c4.542,0,8.385-3.839,8.385-8.558
	C128.621,120.738,124.953,118.824,124.603,118.473 M118.838,121.449h-6.992v7.506h7.167c2.795,0,4.018-2.265,4.018-3.668
	C123.032,123.714,121.982,121.449,118.838,121.449 M118.135,110.607h-6.288v6.464h6.463c2.45,0,3.499-1.744,3.499-3.317
	C121.809,112.01,120.584,110.607,118.135,110.607"/>
<path fill-rule="evenodd" clip-rule="evenodd" d="M158.854,120.738v3.156h3.848v5.24h-3.848v5.062h-5.764v-5.062h-15.557v-5.069
	l13.983-18.869h7.337v9.079 M153.09,121.269v2.625h-9.264l9.264-12.234v3.316V121.269z"/>
<path fill-rule="evenodd" clip-rule="evenodd" d="M211.634,112.711c1.744-0.531,3.497-1.223,5.241-1.924
	c-1.043-2.967-2.967-5.942-9.61-5.942c-6.468,0-11.357,4.72-11.357,14.851c0,5.421,2.094,9.259,3.667,11.354
	c1.398,2.104,4.896,3.497,8.042,3.497c3.316,0,10.135-1.744,10.135-10.131c0-8.567-6.468-10.141-9.438-10.141
	c-2.791,0-5.241,1.402-6.117,2.104c0-4.549,2.976-6.292,5.069-6.292C209.359,110.086,210.582,110.788,211.634,112.711
	 M211.984,124.416c0-2.616-1.924-4.899-4.72-4.899c-2.62,0-4.549,2.283-4.549,4.899c0,2.625,1.754,5.07,4.549,5.07
	C209.009,129.486,211.984,128.083,211.984,124.416"/>
<path fill-rule="evenodd" clip-rule="evenodd" d="M179.827,104.845c4.893,0,10.659,2.274,10.659,8.738
	c0,4.539-3.492,5.411-3.492,5.411s4.369,1.052,4.369,6.823c0,5.582-4.72,8.908-11.536,8.908c-6.639,0-11.36-3.326-11.36-8.908
	c0-5.771,4.198-6.823,4.198-6.823s-3.5-0.872-3.5-5.411C169.166,107.12,175.11,104.845,179.827,104.845 M180,129.486
	c-3.144,0-5.414-1.403-5.414-3.848c0-2.616,2.62-3.668,5.414-3.668c2.625,0,5.245,1.052,5.245,3.668c0,2.444-2.27,3.848-5.418,3.848
	H180z M180,116.9c-2.27,0-4.542-1.052-4.542-3.316c0-2.445,2.448-3.668,4.542-3.668c2.102,0,4.374,1.223,4.374,3.668
	c0,2.265-2.272,3.316-4.547,3.316H180z"/>
</svg>
