<!-- Created with Inkscape (http://www.inkscape.org/) -->
<svg xmlns:rdf="http://www.w3.org/1999/02/22-rdf-syntax-ns#" xmlns="http://www.w3.org/2000/svg" xml:space="preserve" height="600" width="600" version="1.1" xmlns:cc="http://creativecommons.org/ns#" xmlns:dc="http://purl.org/dc/elements/1.1/"><metadata><rdf:RDF><cc:Work rdf:about=""><dc:format>image/svg+xml</dc:format><dc:type rdf:resource="http://purl.org/dc/dcmitype/StillImage"/><dc:title/></cc:Work></rdf:RDF></metadata><g fill-rule="nonzero" transform="matrix(1.25,0,0,-1.25,-2.4374927,600.26249)"><path fill="#ec1d24" d="M1.95,240.21c-0.0384,132.49,107.42,239.95,240,240,132.51-0.05,239.97-107.51,240-240-0.03-132.6-107.49-240.06-240-240-132.58-0.05602-240.04,107.4-240,240"/><path fill="#FFF" d="M49.696,240.21c0.018,106.1,86.074,192.15,192.25,192.25,106.11-0.1,192.17-86.15,192.25-192.25-0.08-106.2-86.14-192.26-192.25-192.25-106.18-0.001-192.24,86.054-192.25,192.25"/><path fill="#000" d="m208.36,415.56,35.07-60.845,35.07,60.845-70.141,0"/><path fill="#000" d="m208.36,63.802,35.07,60.845,35.07-60.845-70.141,0"/><path fill="#000" d="m365.54,193.52,11.197,19.437,15.211,0-10.986-19.437-15.423,0"/><path fill="#000" d="m148.36,208.94,0-71.62-14.577,0,0,47.746-11.62,0,0,12.887c10.433-0.0247,11.349,4.757,13.099,10.986h13.099"/><path d="M243.22,339.09l-43.31,57.82v16.37h48.34v15.31h18.22v-15.31h11.09v-16.87h-11.09v-57.32h-23.25zm5.03,19.82v37.5h-27.75l27.75-37.5z" transform="matrix(0.8,0,0,-0.8,1.9499942,480.20999)" fill="#000"/><path fill="#000" d="m234.34,193.52,11.408,19.437,15.211,0-11.197-19.437-15.423,0"/><path d="M385.81,337.5c-24.13,0.09-35.03,14.82-35.09,45.94,0.06,30.56,12.38,46.2,35.9,46.22,24.67-0.02,30.52-17.06,30.63-32.75-0.11-19.15-10.78-30.2-29.03-30.1-8.2-0.1-16.35,3.72-19.03,6.35-1.01-10.77,5.73-19.29,15.31-19.28,9.62-0.01,12.56,4.81,14.28,8.96l16.38-6.06c-4.49-13.85-13.17-19.19-29.35-19.28zm-0.5,45.44c8.32,0.06,14.16,6.28,14.25,14.78-0.09,9.3-5.95,15.52-14.53,15.56-8.58-0.04-14.68-6-14.78-15.03,0.1-9.03,6.21-15.25,15.06-15.31z" transform="matrix(0.8,0,0,-0.8,1.9499942,480.20999)" fill="#000"/><path fill="#000" d="m345.26,193.52,11.197,19.437,15.211,0-11.197-19.437-15.211,0"/><path fill="#000" d="m243.43,172.39,24.507,0,0,11.831-24.507,0,0-11.831z"/><path d="M178.25,157.12l-53.87,71.85v20.59h60.21v19.28h22.97v-19.28h13.75v-21.12h-13.75v-71.32h-29.31zm6.34,24.85v46.47h-34.59l34.59-46.47z" transform="matrix(0.8,0,0,-0.8,1.9499942,480.20999)" fill="#000"/><path fill="#000" d="m196.32,272.11c-0.0387,5.1831,4.2746,9.368,9.2958,9.2958,5.2518,0.0722,9.6919-4.1127,9.7183-9.2958-0.0264-5.2183-4.4666-9.5299-9.507-9.507-5.2324-0.0229-9.5458,4.162-9.507,9.507"/><path d="M322.44,178.78l-43.56,58.1v16.37h48.59v15.59h18.47v-15.59h11.09v-16.91h-11.09v-57.56h-23.5zm5.03,20.34v37.76h-27.72l27.72-37.76z" transform="matrix(0.8,0,0,-0.8,1.9499942,480.20999)" fill="#000"/><path fill="#000" d="m372.51,305.28c-5.9842-0.081-8.8451-4.4754-8.8732-9.9296v-30.211h-14.155v29.789c-0.0211,7-2.7799,10.271-7.1831,10.352-5.713-0.081-9.1866-4.7817-9.0845-9.9296v-30.211h-13.732v51.761h13.732v-3.8028c4.1884,3.8521,7.0493,5.2834,11.831,5.2817,6.5616,0.002,8.7077-0.91725,13.944-6.5493,5.493,5.5282,9.3768,6.7553,15.211,6.7606,11.127-0.005,19.405-10.224,19.437-21.127v-32.324h-13.944v29.789c0.0141,7-2.7447,10.271-7.1831,10.352"/></g></svg>
