<?xml version="1.0" encoding="UTF-8" standalone="no"?>
<!-- Created with Inkscape (http://www.inkscape.org/) -->

<svg
   xmlns:dc="http://purl.org/dc/elements/1.1/"
   xmlns:cc="http://creativecommons.org/ns#"
   xmlns:rdf="http://www.w3.org/1999/02/22-rdf-syntax-ns#"
   xmlns:svg="http://www.w3.org/2000/svg"
   xmlns="http://www.w3.org/2000/svg"
   xmlns:inkscape="http://www.inkscape.org/namespaces/inkscape"
   version="1.1"
   width="448.95001"
   height="212.25"
   id="svg2"
   xml:space="preserve"><defs
     id="defs18" /><metadata
     id="metadata8"><rdf:RDF><cc:Work
         rdf:about=""><dc:format>image/svg+xml</dc:format><dc:type
           rdf:resource="http://purl.org/dc/dcmitype/StillImage" /></cc:Work></rdf:RDF></metadata><g
     transform="matrix(1.25,0,0,-1.25,-1.7625,212.36)"
     id="g10"><path
       d="M 360.57,32.85 C 360.57,14.788 345.91,0.125 327.81,0.09 H 34.17 C 16.089,0.12501 1.426,14.788 1.41,32.85 v 104.28 c 0.0163,18.082 14.679,32.745 32.76,32.76 h 293.64 c 18.101,-0.015 32.764,-14.678 32.76,-32.76 V 32.85"
       inkscape:connector-curvature="0"
       id="path12" /><path
       d="m 343.53,32.85 c 0.037,-8.67 -7.011,-15.719 -15.72,-15.72 H 34.17 c -8.689,0.001 -15.737,7.05 -15.72,15.72 v 104.28 c -0.017,8.69 7.031,15.739 15.72,15.72 h 293.64 c 8.709,0.019 15.757,-7.03 15.72,-15.72 V 32.85"
       inkscape:connector-curvature="0"
       id="path14"
       style="fill:#ffffff" /><path
       d="M 81.57,79.89 H 68.37 V 56.97 H 54.93 v 63.6 h 25.44 c 19.254,0.024 22.239,-16.258 22.2,-20.76 0.039,-6.261 -5.298,-19.92 -21,-19.92"
       inkscape:connector-curvature="0"
       id="path16" /><path
       d="m 89.37,99.81 c -0.057,5.769 -3.766,8.663 -8.88,8.64 H 68.37 V 91.29 h 12 c 4.239,-0.003 8.943,3.253 9,8.52"
       inkscape:connector-curvature="0"
       id="path18"
       style="fill:#ffffff" /><path
       d="m 124.65,55.65 c -10.006,-0.002 -15.886,5.606 -15.84,14.4 -0.046,7.76 4.658,15.991 26.76,15.96 v 2.52 c -0.031,2.757 -2.745,4.476 -6.96,4.44 -3.473,0.036 -9.443,-2.045 -13.8,-4.68 l -5.88,9 c 3.272,2.409 11.141,6.842 19.56,6.84 12.747,0.002 19.351,-4.883 19.32,-13.8 V 71.25 c 0.031,-4.024 1.116,-5.2 5.4,-5.88 l -4.32,-9.6 c -2.135,-0.031 -8.195,0.783 -11.28,4.68 -4.061,-3.897 -7.86,-4.802 -12.96,-4.8"
       inkscape:connector-curvature="0"
       id="path20" /><path
       d="m 128.61,65.85 c 5.029,0.02 7.291,1.467 7.32,5.28 v 5.76 l -9.36,-1.32 c -4.057,-0.655 -4.871,-2.826 -4.92,-5.4 0.049,-2.944 1.858,-4.3 6.96,-4.32"
       inkscape:connector-curvature="0"
       id="path22"
       style="fill:#ffffff" /><path
       d="m 164.85,92.25 h -7.2 v 10.32 h 7.2 v 14.52 l 12.48,3.36 v -17.88 h 11.76 V 92.25 h -11.4 V 71.61 c -0.044,-4.655 1.675,-5.107 3.48,-5.16 1.813,0.053 3.17,0.414 6.84,1.08 l 2.76,-10.2 c -5.706,-1.501 -10.862,-2.044 -14.16,-2.04 -4.391,-0.004 -11.718,2.258 -11.76,10.8 v 26.16"
       inkscape:connector-curvature="0"
       id="path24" /><path
       d="m 211.65,98.25 c 2.661,3.62 7.274,5.339 12,5.28 0.611,0.059 1.153,0.059 2.28,0 V 91.65 c -4.021,-0.182 -5.16,-0.24 -5.16,-0.24 -5.193,-0.123 -9.444,-3.741 -9.48,-11.04 v -23.4 h -12.12 v 45.96 h 12.12 l 0.36,-4.68"
       inkscape:connector-curvature="0"
       id="path26" /><path
       d="m 234.57,79.29 c 0.029,18.51 10.883,25.294 21.72,25.32 9.877,-0.026 22.179,-6.81 22.2,-25.32 -0.021,-13.692 -8.976,-24.004 -21.6,-24 -13.789,-0.004 -22.291,9.494 -22.32,24"
       inkscape:connector-curvature="0"
       id="path28" /><path
       d="m 266.13,79.29 c -0.053,10.731 -3.762,14.078 -9.24,14.04 -6.824,0.038 -9.628,-5.571 -9.6,-14.04 -0.028,-7.45 3.59,-13.059 9.6,-13.08 6.021,0.021 9.187,5.63 9.24,13.08"
       inkscape:connector-curvature="0"
       id="path30"
       style="fill:#ffffff" /><path
       d="m 289.77,120.93 h 12.12 V 74.01 c -0.038,-4.884 0.776,-6.06 3.36,-6.24 1.577,-0.091 2.843,-10e-4 4.56,0.48 l 1.2,-10.68 c -4.273,-1.108 -8.344,-1.831 -11.28,-1.8 -2.943,-0.031 -9.999,0.964 -9.96,11.64 v 53.52"
       inkscape:connector-curvature="0"
       id="path32" /></g></svg>