<?xml version="1.0" encoding="UTF-8" standalone="no"?>
<!-- Created with Inkscape (http://www.inkscape.org/) -->

<svg
   xmlns:dc="http://purl.org/dc/elements/1.1/"
   xmlns:cc="http://creativecommons.org/ns#"
   xmlns:rdf="http://www.w3.org/1999/02/22-rdf-syntax-ns#"
   xmlns:svg="http://www.w3.org/2000/svg"
   xmlns="http://www.w3.org/2000/svg"
   version="1.1"
   width="600"
   height="600"
   id="svg2"
   xml:space="preserve"><defs
     id="defs16" /><metadata
     id="metadata4"><rdf:RDF><cc:Work
         rdf:about=""><dc:format>image/svg+xml</dc:format><dc:type
           rdf:resource="http://purl.org/dc/dcmitype/StillImage" /><dc:title></dc:title></cc:Work></rdf:RDF></metadata><path
     d="m 300.00002,-4e-5 c 165.625,0.05 299.95,134.375 300,300 -0.05,165.7625 -134.375,300.0875 -300,300 -165.7625,0.0839 -300.0874978,-134.2375 -299.9999978,-300 -0.083875,-165.625 134.2374978,-299.95 299.9999978,-300"
     id="path8"
     style="fill:#ec1d24;fill-opacity:1;fill-rule:nonzero" /><path
     d="m 300.00002,59.68746 c 132.625,0.1125 240.2,107.6875 240.3125,240.3125 -0.1125,132.7625 -107.6875,240.325 -240.3125,240.3125 -132.7625,0.0125 -240.324998,-107.555 -240.312498,-240.3125 -0.0125,-132.625 107.554998,-240.2 240.312498,-240.3125"
     id="path10"
     style="fill:#ffffff;fill-rule:nonzero" /><path
     d="m 292.06,133.62 c -13.6,-0.07 -24.5,10.88 -24.53,24.32 0.03,0.82 0.06,1.58 0,2.37 h 5.53 v 15.85 c 0.06,13.05 11.87,13.64 15.6,13.72 1.75,-0.08 0,3.68 0,3.68 l -16.91,29.6 -18.5,14.53 c -0.98,0.73 -5.02,4.05 -8.97,1.56 -4.16,-2.52 -2.98,-7.75 -2.66,-9.5 0,0 12.02,-55.25 12.44,-56.25 0.21,-0.9 0.41,-2.45 -1.06,-3.16 -1.71,-0.56 -2.91,1.85 -2.91,1.85 0,0 -22.36,35.53 -27.47,44.37 C 205.93,245.19 176.16,244 176.16,244 h -15.85 v 25.91 c 0.68,-0.04 1.39,-0.05 2.1,0 9.19,-0.05 17.95,1.69 25.87,5 l -3.44,5.81 c -6.92,-2.69 -14.49,-4.13 -22.43,-4.22 -35.16,0.09 -63.653,28.61 -63.629,63.91 -0.024,35.05 28.469,63.58 63.629,63.65 35.2,-0.07 63.73,-28.6 63.65,-63.65 0.08,-19.57 -8.66,-36.99 -22.47,-48.6 l 3.72,-5.81 c 15.57,12.82 25.57,32.39 25.63,54.41 -0.06,32.76 30.62,30.9 30.62,30.9 h 110.91 c 10.82,19.49 31.67,32.68 55.47,32.75 35.29,-0.07 63.8,-28.6 63.9,-63.65 h 11.63 c 0.07,-31.39 -18.96,-58.22 -45.97,-69.72 -0.08,-19.24 -13.72,-18.5 -13.72,-18.5 h -59.44 c 0.08,-17.61 -8.68,-24.03 -8.68,-24.03 l -30.13,-32.72 -31.15,-13.47 h -4.76 v -9.53 c 3,-3.95 4.79,-8.98 4.76,-14.5 0.03,-13.44 -10.93,-24.39 -24.32,-24.32 z m 10.85,98.5 c 4.41,15.34 15.84,20.35 15.84,20.35 l -16.37,25.62 -50.69,-16.37 51.22,-29.6 z m 59.4,55.47 c 0,0 21.73,0.03 24.57,0 2.57,0.03 1.98,3.96 0.81,5.29 -9.58,9.41 -18,20.78 -20.1,34.59 -0.07,0.76 -0.55,3.37 -2.9,3.44 -2.41,-0.07 -2.38,-3.19 -2.38,-3.19 v -40.13 z m -199.9,14.53 c 3.13,0.09 6.17,0.44 9,1.04 l -7.69,12.93 c -0.37,-0.08 -0.82,-0.09 -1.31,0 -13.38,-0.09 -24.23,10.79 -24.29,24.32 0.06,13.27 10.91,24.14 24.29,24.03 13.42,0.11 24.3,-10.76 24.31,-24.03 -0.01,-5.03 -1.47,-9.6 -3.97,-13.47 l 7.66,-12.69 c 6.22,6.85 10.1,15.99 10.03,26.16 0.07,20.91 -16.98,37.96 -38.03,38.03 -21.01,-0.07 -38.06,-17.12 -38.03,-38.03 -0.03,-21.16 17.02,-38.2 38.03,-38.29 z m 267.53,0 c 21.14,0.09 38.18,17.13 38.28,38.29 -0.1,20.91 -17.14,37.96 -38.28,38.03 -20.92,-0.07 -37.97,-17.12 -38.03,-38.03 0.06,-12.44 5.91,-23.38 15.06,-30.38 l 5,14 c -3.82,4.28 -6.18,9.99 -6.06,16.38 -0.12,13.27 10.74,24.14 24.03,24.03 13.51,0.11 24.36,-10.76 24.28,-24.03 0.08,-12.69 -9.47,-23.04 -21.66,-24.32 l -5.28,-13.71 c 0.96,-0.15 1.87,-0.17 2.66,-0.26 z"
     id="path12"
     style="fill:#000000;fill-rule:nonzero" /></svg>