<?xml version="1.0" encoding="UTF-8" standalone="no"?>
<!-- Created with Inkscape (http://www.inkscape.org/) -->

<svg
   xmlns:dc="http://purl.org/dc/elements/1.1/"
   xmlns:cc="http://creativecommons.org/ns#"
   xmlns:rdf="http://www.w3.org/1999/02/22-rdf-syntax-ns#"
   xmlns:svg="http://www.w3.org/2000/svg"
   xmlns="http://www.w3.org/2000/svg"
   xmlns:inkscape="http://www.inkscape.org/namespaces/inkscape"
   version="1.1"
   width="233.38"
   height="66.440002"
   id="svg2"
   xml:space="preserve"><metadata
     id="metadata8"><rdf:RDF><cc:Work
         rdf:about=""><dc:format>image/svg+xml</dc:format><dc:type
           rdf:resource="http://purl.org/dc/dcmitype/StillImage" /></cc:Work></rdf:RDF></metadata><defs
     id="defs6"><clipPath
       id="clipPath18"><path
         d="M 0,531.52 V 0 H 1867.1 V 531.52 H 0 z"
         inkscape:connector-curvature="0"
         id="path20" /></clipPath></defs><g
     transform="matrix(1.25,0,0,-1.25,0,66.44)"
     id="g10"><g
       transform="scale(0.1,0.1)"
       id="g12"><g
         id="g14"><g
           clip-path="url(#clipPath18)"
           id="g16"><path
             d="M 933.56,531.52 H 106.61 C 47.715,531.52 0,483.81 0,424.96 V 106.6 C 0,47.734 47.715,0 106.6,0 h 1653.9 c 58.91,0 106.6,47.734 106.6,106.6 v 318.36 c 0,58.848 -47.69,106.56 -106.6,106.56 H 933.58"
             inkscape:connector-curvature="0"
             id="path22"
             style="fill:#231f20;fill-rule:evenodd" /><path
             d="M 933.56,478.24 H 106.61 c -29.454,0 -53.282,-23.828 -53.282,-53.281 v -318.36 c 0,-29.454 23.828,-53.282 53.282,-53.282 h 1653.9 c 29.45,0 53.32,23.828 53.32,53.282 v 318.36 c 0,29.453 -23.87,53.281 -53.32,53.281 H 933.59"
             inkscape:connector-curvature="0"
             id="path24"
             style="fill:#ffffff;fill-rule:evenodd" /><path
             d="m 197.34,375.96 h 15.84 L 309.742,239.1 v 136.86 h 38.887 V 177.23 H 303.941 L 213.18,312.6 V 177.23 h -38.868 v 198.73 h 23.028"
             inkscape:connector-curvature="0"
             id="path26"
             style="fill:#231f20;fill-rule:evenodd" /><path
             d="m 459.55,292.44 c -15.84,0 -33.125,-14.433 -33.125,-44.668 0,-31.679 17.285,-46.093 33.125,-46.093 14.394,0 33.164,14.414 33.164,46.093 0,30.235 -17.324,44.668 -33.164,44.668 m 0,33.125 c -34.551,0 -69.16,-28.808 -69.16,-77.793 0,-48.984 34.609,-77.773 69.16,-77.773 34.609,0 69.16,28.789 69.16,77.773 0,48.985 -34.551,77.793 -69.16,77.793"
             inkscape:connector-curvature="0"
             id="path28"
             style="fill:#231f20;fill-rule:evenodd" /><path
             d="m 1328.3,280.88 -34.57,-10.078 c -2.85,10.078 -12.97,21.64 -28.87,21.64 -14.37,0 -33.08,-14.433 -33.08,-44.668 0,-30.234 17.26,-46.093 33.08,-46.093 17.35,0 27.43,17.265 30.32,24.492 l 34.53,-7.227 c -4.3,-18.711 -25.9,-48.945 -63.36,-48.945 -36.02,0 -70.59,30.234 -70.59,77.773 0,47.559 37.46,77.793 67.7,77.793 31.72,0 57.65,-21.601 64.84,-44.687"
             inkscape:connector-curvature="0"
             id="path30"
             style="fill:#231f20;fill-rule:evenodd" /><path
             d="m 832.68,263.59 h 56.191 c 0,12.968 -10.078,27.402 -28.789,27.402 -17.285,0 -27.402,-12.988 -27.402,-27.402 m -1.446,-28.789 h 95.118 c 1.445,17.265 -5.762,89.316 -66.27,89.316 -53.32,0 -64.844,-57.637 -64.844,-74.941 0,-18.672 10.078,-76.289 69.161,-76.289 33.125,0 50.39,18.711 54.726,24.492 l -23.047,21.562 c 0,0 -10.078,-12.968 -31.679,-12.968 -21.602,0 -33.165,14.453 -33.165,28.828"
             inkscape:connector-curvature="0"
             id="path32"
             style="fill:#231f20;fill-rule:evenodd" /><path
             d="m 994.02,312.6 v 63.359 h -35.976 v -198.73 h 35.976 v 83.496 c 0,14.394 13.007,25.918 25.977,25.918 12.97,0 27.34,-8.633 27.34,-25.918 v -83.496 h 36.02 v 96.464 c 0,28.829 -24.49,47.559 -50.39,47.559 -24.49,0 -33.204,-7.207 -38.947,-8.652"
             inkscape:connector-curvature="0"
             id="path34"
             style="fill:#231f20;fill-rule:evenodd" /><path
             d="M 1144.6,177.23 V 319.81"
             inkscape:connector-curvature="0"
             id="path36"
             style="fill:none;stroke:#231f20;stroke-width:36;stroke-miterlimit:10" /><path
             d="m 1144,376 c 11.14,0 20.2,-9.023 20.2,-20.156 0,-11.113 -9.06,-20.156 -20.2,-20.156 -11.13,0 -20.15,9.043 -20.15,20.156 0,11.133 9.02,20.156 20.15,20.156"
             inkscape:connector-curvature="0"
             id="path38"
             style="fill:#231f20;fill-rule:evenodd" /><path
             d="m 1421.9,177.23 -2.89,33.125 c -17.26,-4.375 -25.89,0 -25.89,7.187 v 158.42 h -37.47 v -172.83 c 0,-14.414 10.08,-30.234 37.47,-30.234 14.37,0 28.78,4.336 28.78,4.336"
             inkscape:connector-curvature="0"
             id="path40"
             style="fill:#231f20;fill-rule:evenodd" /><path
             d="m 1587.6,200.23 27.42,24.493 c 10.08,-11.524 33.13,-21.602 41.76,-21.602 10.08,0 18.71,7.227 18.71,14.414 0,7.188 -5.78,10.078 -10.08,11.484 -5.78,1.485 -24.45,5.782 -27.34,7.227 -4.34,0 -38.91,5.742 -38.91,40.312 0,36.036 37.46,44.688 60.47,44.688 21.64,0 41.8,-7.207 57.66,-21.602 l -23.05,-24.531 c -14.45,11.524 -23.05,15.879 -34.61,15.879 -11.48,0 -20.16,-4.355 -20.16,-12.988 0,-8.653 7.23,-8.653 10.08,-10.078 2.89,0 27.38,-5.762 33.13,-7.207 5.78,-1.446 33.2,-10.059 33.2,-43.184 0,-31.719 -30.31,-44.648 -60.55,-44.648 -28.83,0 -57.65,14.414 -67.73,27.343"
             inkscape:connector-curvature="0"
             id="path42"
             style="fill:#231f20;fill-rule:evenodd" /><path
             d="m 714.55,177.23 h 14.394 l 49.004,141.13 h -41.797 l -30.234,-95.078 -30.254,95.078 h -38.906 l 48.984,-141.13 h 28.809"
             inkscape:connector-curvature="0"
             id="path44"
             style="fill:#231f20;fill-rule:evenodd" /><path
             d="m 1475.2,263.59 h 57.66 c 0,12.968 -11.56,27.402 -28.87,27.402 -17.26,0 -28.79,-12.988 -28.79,-27.402 m 0,-28.789 h 93.64 c 1.44,17.265 -5.74,89.316 -66.29,89.316 -51.84,0 -63.36,-57.637 -63.36,-74.941 0,-18.672 10.08,-76.289 67.69,-76.289 34.57,0 51.88,18.711 56.22,24.492 l -23.05,21.562 c 0,0 -10.08,-12.968 -31.72,-12.968 -21.6,0 -33.13,14.453 -33.13,28.828"
             inkscape:connector-curvature="0"
             id="path46"
             style="fill:#231f20;fill-rule:evenodd" /></g></g></g></g></svg>