<?xml version="1.0" encoding="UTF-8" standalone="no"?>
<!-- Created with Inkscape (http://www.inkscape.org/) -->

<svg
   xmlns:dc="http://purl.org/dc/elements/1.1/"
   xmlns:cc="http://creativecommons.org/ns#"
   xmlns:rdf="http://www.w3.org/1999/02/22-rdf-syntax-ns#"
   xmlns:svg="http://www.w3.org/2000/svg"
   xmlns="http://www.w3.org/2000/svg"
   xmlns:inkscape="http://www.inkscape.org/namespaces/inkscape"
   version="1.1"
   width="342.04999"
   height="342.04999"
   id="svg2"
   xml:space="preserve"><metadata
     id="metadata8"><rdf:RDF><cc:Work
         rdf:about=""><dc:format>image/svg+xml</dc:format><dc:type
           rdf:resource="http://purl.org/dc/dcmitype/StillImage" /></cc:Work></rdf:RDF></metadata><defs
     id="defs6"><clipPath
       id="clipPath18"><path
         d="M 0,2736.4 V 0 H 2736.4 V 2736.4 H 0 z"
         inkscape:connector-curvature="0"
         id="path20" /></clipPath></defs><g
     transform="matrix(1.25,0,0,-1.25,0,342.06)"
     id="g10"><g
       transform="scale(0.1,0.1)"
       id="g12"><g
         id="g14"><g
           clip-path="url(#clipPath18)"
           id="g16"><path
             d="m 1368.2,2731.4 c 752.87,0 1363.2,-610.35 1363.2,-1363.2 C 2731.4,615.35 2121.1,5 1368.2,5 615.34,5 5,615.35 5,1368.2 5,2121.1 615.34,2731.4 1368.2,2731.4"
             inkscape:connector-curvature="0"
             id="path22"
             style="fill:#ffffff" /><path
             d="m 1368.2,2731.4 c 752.87,0 1363.2,-610.35 1363.2,-1363.2 C 2731.4,615.35 2121.1,5 1368.2,5 615.34,5 5,615.35 5,1368.2 5,2121.1 615.34,2731.4 1368.2,2731.4 z"
             inkscape:connector-curvature="0"
             id="path24"
             style="fill:none;stroke:#0079c1;stroke-width:10" /><path
             d="m 1368.2,2679.1 c 723.98,0 1310.9,-586.93 1310.9,-1310.9 C 2679.1,644.24 2092.2,57.3 1368.2,57.3 644.23,57.301 57.3,644.24 57.3,1368.2 c 0,723.99 586.93,1310.9 1310.9,1310.9"
             inkscape:connector-curvature="0"
             id="path26"
             style="fill:#0079c1" /><path
             d="m 1775.5,989.43 c 0,0 4.63,-74.481 78.01,-74.481 73.39,0 78.02,74.481 78.02,74.481 h 105.12 c 0,0 4.63,-74.481 78.01,-74.481 73.39,0 78.02,74.481 78.02,74.481 h 111.73 v 36.59 h 189.08 v 339.83 l -63.46,253.22 c -12.56,50.25 -60.17,49.42 -60.17,49.42 h -741.13 l -22.48,22.64 c -18.19,17.77 -35.29,15.21 -35.29,15.21 h -151.81 l 185.78,132.22 -190.88,132.9 v 40 c 0,17.81 -14.45,32.25 -32.26,32.25 h -27.11 c -17.81,0 -32.25,-14.44 -32.25,-32.25 v -40 l -190.88,-132.9 185.78,-132.22 h -151.81 c 0,0 -17.11,2.56 -35.29,-15.21 l -22.48,-22.64 H 366.61 c 0,0 -47.606,0.83 -60.168,-49.42 l -63.473,-253.22 v -339.83 h 189.09 v -36.59 h 111.73 c 0,0 4.629,-74.481 78.02,-74.481 73.383,0 78.012,74.481 78.012,74.481 h 105.12 c 0,0 4.629,-74.481 78.012,-74.481 73.39,0 78.019,74.481 78.019,74.481 h 814.52"
             inkscape:connector-curvature="0"
             id="path28"
             style="fill:#ffffff" /><path
             d="m 1160.3,1366.5 c 17.52,0 31.74,14.21 31.74,31.74 v 144.79 c 0,17.52 -14.22,31.73 -31.74,31.73 H 962.45 c -17.523,0 -31.734,-14.21 -31.734,-31.73 v -144.79 c 0,-17.53 14.211,-31.74 31.734,-31.74 h 197.85"
             inkscape:connector-curvature="0"
             id="path30"
             style="fill:#0079c1" /><path
             d="m 453.61,1366.5 c 17.524,0 31.735,14.21 31.735,31.74 v 144.79 c 0,17.52 -14.211,31.73 -31.735,31.73 l -54.504,-0.79 c -28.921,0 -32.515,-30.94 -32.515,-30.94 l -37.688,-144.79 c 0,-17.53 14.203,-31.74 31.735,-31.74 h 92.972"
             inkscape:connector-curvature="0"
             id="path32"
             style="fill:#0079c1" /><path
             d="m 851.91,1064.4 c 17.524,0 31.735,14.21 31.735,31.74 v 446.94 c 0,17.52 -14.211,31.73 -31.735,31.73 h -86.652 c -17.528,0 -31.738,-14.21 -31.738,-31.73 v -446.94 c 0,-17.53 14.21,-31.74 31.738,-31.74 h 86.652"
             inkscape:connector-curvature="0"
             id="path34"
             style="fill:#0079c1" /><path
             d="m 663.52,1064.4 c 17.528,0 31.735,14.21 31.735,31.74 v 446.94 c 0,17.52 -14.207,31.73 -31.735,31.73 h -86.648 c -17.527,0 -31.738,-14.21 -31.738,-31.73 v -446.94 c 0,-17.53 14.211,-31.74 31.738,-31.74 h 86.648"
             inkscape:connector-curvature="0"
             id="path36"
             style="fill:#0079c1" /><path
             d="m 1368.2,1968.2 185.78,-129.59 -185.78,-132.22 -185.78,132.22 185.78,129.59"
             inkscape:connector-curvature="0"
             id="path38"
             style="fill:#0079c1" /><path
             d="m 1576.2,1366.5 c -17.53,0 -31.74,14.21 -31.74,31.74 v 144.79 c 0,17.52 14.21,31.73 31.74,31.73 h 197.84 c 17.53,0 31.74,-14.21 31.74,-31.73 v -144.79 c 0,-17.53 -14.21,-31.74 -31.74,-31.74 H 1576.2"
             inkscape:connector-curvature="0"
             id="path40"
             style="fill:#0079c1" /><path
             d="m 2282.8,1366.5 c -17.52,0 -31.73,14.21 -31.73,31.74 v 144.79 c 0,17.52 14.21,31.73 31.73,31.73 l 54.5,-0.79 c 28.93,0 32.52,-30.94 32.52,-30.94 l 37.69,-144.79 c 0,-17.53 -14.2,-31.74 -31.73,-31.74 h -92.98"
             inkscape:connector-curvature="0"
             id="path42"
             style="fill:#0079c1" /><path
             d="m 1884.5,1064.4 c -17.53,0 -31.74,14.21 -31.74,31.74 v 446.94 c 0,17.52 14.21,31.73 31.74,31.73 h 86.65 c 17.53,0 31.74,-14.21 31.74,-31.73 v -446.94 c 0,-17.53 -14.21,-31.74 -31.74,-31.74 h -86.65"
             inkscape:connector-curvature="0"
             id="path44"
             style="fill:#0079c1" /><path
             d="m 2072.9,1064.4 c -17.52,0 -31.73,14.21 -31.73,31.74 v 446.94 c 0,17.52 14.21,31.73 31.73,31.73 h 86.66 c 17.51,0 31.73,-14.21 31.73,-31.73 v -446.94 c 0,-17.53 -14.22,-31.74 -31.73,-31.74 h -86.66"
             inkscape:connector-curvature="0"
             id="path46"
             style="fill:#0079c1" /><path
             d="m 1467.1,1366.5 c 17.52,0 31.73,14.21 31.73,31.74 v 144.79 c 0,17.52 -14.21,31.73 -31.73,31.73 h -197.68 c -17.53,0 -31.74,-14.21 -31.74,-31.73 v -144.79 c 0,-17.53 14.21,-31.74 31.74,-31.74 h 197.68"
             inkscape:connector-curvature="0"
             id="path48"
             style="fill:#0079c1" /></g></g></g></g></svg>