<?xml version="1.0" encoding="UTF-8" standalone="no"?>
<!-- Created with Inkscape (http://www.inkscape.org/) -->

<svg
   xmlns:dc="http://purl.org/dc/elements/1.1/"
   xmlns:cc="http://creativecommons.org/ns#"
   xmlns:rdf="http://www.w3.org/1999/02/22-rdf-syntax-ns#"
   xmlns:svg="http://www.w3.org/2000/svg"
   xmlns="http://www.w3.org/2000/svg"
   xmlns:sodipodi="http://sodipodi.sourceforge.net/DTD/sodipodi-0.dtd"
   xmlns:inkscape="http://www.inkscape.org/namespaces/inkscape"
   width="130"
   height="120"
   viewBox="0 0 130 120"
   id="svg4372"
   version="1.1"
   inkscape:version="0.91 r13725"
   sodipodi:docname="UK_traffic_sign_660.svg">
  <defs
     id="defs4374" />
  <sodipodi:namedview
     id="base"
     pagecolor="#ffffff"
     bordercolor="#666666"
     borderopacity="1.0"
     inkscape:pageopacity="0.0"
     inkscape:pageshadow="2"
     inkscape:zoom="6.2133333"
     inkscape:cx="75"
     inkscape:cy="75"
     inkscape:document-units="px"
     inkscape:current-layer="layer1"
     showgrid="false"
     units="px"
     inkscape:window-width="1920"
     inkscape:window-height="1137"
     inkscape:window-x="-8"
     inkscape:window-y="-8"
     inkscape:window-maximized="1" />
  <metadata
     id="metadata4377">
    <rdf:RDF>
      <cc:Work
         rdf:about="">
        <dc:format>image/svg+xml</dc:format>
        <dc:type
           rdf:resource="http://purl.org/dc/dcmitype/StillImage" />
        <dc:title></dc:title>
      </cc:Work>
    </rdf:RDF>
  </metadata>
  <g
     inkscape:label="Layer 1"
     inkscape:groupmode="layer"
     id="layer1"
     transform="translate(0,-932.3622)">
    <g
       transform="matrix(0.125,0,0,-0.125,0.25004448,1054.1988)"
       id="g4250">
      <path
         inkscape:connector-curvature="0"
         id="path110"
         transform="matrix(8,0,0,-8,0,2030)"
         d="m 8.9199219,141.98047 c -2.932625,0 -5.3105469,2.37597 -5.3105469,5.30859 l 0,96.57032 c 0,2.93261 2.3779219,5.31054 5.3105469,5.31054 l 112.3652381,0 c 2.93262,0 5.31054,-2.37793 5.31054,-5.31054 l 0,-96.57032 c 0,-2.93262 -2.37792,-5.30859 -5.31054,-5.30859 l -56.183598,0 -56.1816401,0 z"
         style="fill:#231f20;fill-opacity:1;fill-rule:evenodd;stroke:none" />
      <g
         id="g4202">
        <path
           inkscape:connector-curvature="0"
           style="fill:#ffffff;fill-opacity:1;fill-rule:evenodd;stroke:none"
           d="m 8.9199219,144.63477 c -1.465825,0 -2.6542969,1.18804 -2.6542969,2.65429 l 0,96.57032 c 0,1.46631 1.1884719,2.65624 2.6542969,2.65624 l 112.3652381,0 c 1.46587,0 2.65429,-1.18993 2.65429,-2.65624 l 0,-96.57032 c 0,-1.46625 -1.18842,-2.65429 -2.65429,-2.65429 l -56.183598,0 -56.1816401,0 z"
           transform="matrix(8,0,0,-8,0,2030)"
           id="path112" />
        <g
           id="g4161">
          <path
             inkscape:connector-curvature="0"
             id="path130"
             transform="matrix(8,0,0,-8,0,2030)"
             d="m 54.595703,149.76562 0,9.98829 1.980469,0 0,-3.59961 2.294922,0 c 2.069875,0 3.103515,-1.52836 3.103515,-3.19336 0,-1.71 -1.124015,-3.19532 -2.74414,-3.19532 l -4.634766,0 z m 1.980469,1.79883 1.933594,0 c 0.900375,0 1.486328,0.72161 1.486328,1.39649 0,0.67475 -0.630828,1.43945 -1.486328,1.43945 l -1.933594,0 0,-2.83594 z"
             style="fill:#231f20;fill-opacity:1;fill-rule:evenodd;stroke:none" />
          <path
             inkscape:connector-curvature="0"
             id="path132"
             transform="matrix(8,0,0,-8,0,2030)"
             d="m 66.294922,152.375 c -2.609875,0 -3.195313,2.87942 -3.195313,3.7793 0,0.90037 0.495172,3.78125 3.419922,3.78125 1.665,0 2.520969,-0.94535 2.746094,-1.21485 l -1.125,-1.08008 c 0,0 -0.541047,0.67383 -1.576172,0.67383 -1.080125,0 -1.664062,-0.76475 -1.664062,-1.48437 l 4.724609,0 c 0.04488,-0.9 -0.269953,-4.45508 -3.330078,-4.45508 z m 0.04492,1.62109 c 0.900375,0 1.439453,0.76421 1.439453,1.43946 l -2.833985,0 c 0,-0.72013 0.539532,-1.43946 1.394532,-1.43946 z"
             style="fill:#231f20;fill-opacity:1;fill-rule:evenodd;stroke:none" />
          <path
             inkscape:connector-curvature="0"
             id="path134"
             transform="matrix(8,0,0,-8,0,2030)"
             d="m 89.560547,152.59961 0,7.1543 1.798828,0 0,-7.1543 -1.798828,0 z"
             style="fill:#231f20;fill-opacity:1;fill-rule:evenodd;stroke:none" />
          <path
             inkscape:connector-curvature="0"
             d="m 723.32,831.52 c 4.571,0 8.282,-3.711 8.282,-8.282 0,-4.57 -3.711,-8.277 -8.282,-8.277 -4.57,0 -8.281,3.707 -8.281,8.277 0,4.571 3.711,8.282 8.281,8.282"
             style="fill:#231f20;fill-opacity:1;fill-rule:evenodd;stroke:none"
             id="path136" />
          <path
             inkscape:connector-curvature="0"
             id="path138"
             transform="matrix(8,0,0,-8,0,2030)"
             d="m 84.609375,152.41992 c -1.214875,0 -1.980469,0.81055 -1.980469,0.81055 0,0 -0.628859,-0.7207 -1.708984,-0.7207 -1.21475,0 -1.890625,0.49414 -1.890625,0.49414 l 0,-0.4043 -1.798828,0 0,7.11133 1.798828,0 0,-4.14063 c 0,-0.98975 0.811515,-1.39648 1.306641,-1.39648 0.495125,0 1.078124,0.4965 1.078124,1.17187 l 0,4.36524 1.800782,0 0,-4.09571 c 0,-0.89987 0.674765,-1.4414 1.259765,-1.4414 0.54,0 1.080079,0.4965 1.080079,1.17187 l 0,4.36524 1.845703,0 0,-4.81641 c 0,-1.21487 -0.990766,-2.47461 -2.791016,-2.47461 z"
             style="fill:#231f20;fill-opacity:1;fill-rule:evenodd;stroke:none" />
          <path
             inkscape:connector-curvature="0"
             id="path140"
             transform="matrix(8,0,0,-8,0,2030)"
             d="m 75.474609,152.46484 c -1.71,-0.045 -1.979437,0.40572 -2.429687,0.85547 l 0,-0.7207 -1.84375,0 0,7.11133 1.84375,0 0,-3.55664 c 0,-1.03463 1.169437,-1.9336 2.429687,-1.9336 l 0,-1.75586 z"
             style="fill:#231f20;fill-opacity:1;fill-rule:evenodd;stroke:none" />
          <path
             inkscape:connector-curvature="0"
             id="path142"
             transform="matrix(8,0,0,-8,0,2030)"
             d="m 95.996094,149.76562 -1.845703,0.53907 0,2.29492 -1.169922,0 0,1.57422 1.169922,0 0,4.18555 c 0,0.89987 0.540547,1.57617 1.935547,1.57617 0.944749,0 1.663546,-0.31588 1.888671,-0.40625 L 97.615234,158 c -1.26025,0.40475 -1.61914,0.0453 -1.61914,-0.26953 l 0,-3.55664 1.84375,0 0,-1.57422 -1.84375,0 0,-2.83399 z"
             style="fill:#231f20;fill-opacity:1;fill-rule:evenodd;stroke:none" />
          <path
             inkscape:connector-curvature="0"
             id="path144"
             transform="matrix(8,0,0,-8,0,2030)"
             d="m 77.365234,163.98438 0,3.33007 c -0.72025,-0.49512 -1.124968,-0.67383 -1.980468,-0.67383 -0.855,0 -3.195313,0.80958 -3.195313,3.68946 0,2.92475 2.250078,3.87109 3.330078,3.87109 1.080125,0 1.845703,-0.63086 1.845703,-0.63086 l 0,0.31446 1.845704,0 0,-9.90039 -1.845704,0 z m -1.61914,4.36523 c 0.899875,0 1.61914,0.54148 1.61914,1.39648 l 0,1.43946 c 0,0.54012 -0.496047,1.39453 -1.576172,1.39453 -1.079999,0 -1.664062,-0.85496 -1.664062,-2.20508 0,-1.35012 0.721219,-2.02539 1.621094,-2.02539 z"
             style="fill:#231f20;fill-opacity:1;fill-rule:evenodd;stroke:none" />
          <path
             inkscape:connector-curvature="0"
             id="path146"
             transform="matrix(8,0,0,-8,0,2030)"
             d="m 51.490234,163.98438 0,9.94531 1.845704,0 0,-4.22852 c 0,-0.67537 0.58439,-1.26172 1.259765,-1.26172 0.629875,0 1.349609,0.4516 1.349609,1.26172 l 0,4.22852 1.84375,0 0,-4.85938 c 0,-1.44 -1.259828,-2.38476 -2.564453,-2.38476 -1.215375,0 -1.663672,0.35889 -1.888671,0.49414 l 0,-3.19531 -1.845704,0 z"
             style="fill:#231f20;fill-opacity:1;fill-rule:evenodd;stroke:none" />
          <path
             inkscape:connector-curvature="0"
             id="path148"
             transform="matrix(8,0,0,-8,0,2030)"
             d="m 68.048828,163.98438 0,8.64062 c 0,0.72025 0.450703,1.48438 1.845703,1.48438 0.72025,0 1.484375,-0.22461 1.484375,-0.22461 l -0.224609,-1.61915 c -0.855,0.22463 -1.304688,-9.5e-4 -1.304688,-0.36132 l 0,-7.91992 -1.800781,0 z"
             style="fill:#231f20;fill-opacity:1;fill-rule:evenodd;stroke:none" />
          <path
             inkscape:connector-curvature="0"
             d="m 503.359,684.641 c -6.121,0 -12.961,-5.403 -12.961,-18 0,-12.243 6.84,-18 12.961,-18 l 0,0 c 6.121,0 13.321,5.757 13.321,18 0,12.597 -7.2,18 -13.321,18 z m 0,13.32 c -13.679,0 -27.718,-11.52 -27.718,-30.961 0,-19.801 13.679,-31.32 27.718,-31.32 l 0,0 c 14.039,0 27.719,11.519 27.719,31.32 0,19.441 -13.68,30.961 -27.719,30.961"
             style="fill:#231f20;fill-opacity:1;fill-rule:evenodd;stroke:none"
             id="path150" />
          <path
             inkscape:connector-curvature="0"
             id="path152"
             transform="matrix(8,0,0,-8,0,2030)"
             d="m 97.615234,166.68555 c -1.080125,0 -2.970703,0.44975 -2.970703,2.25 0,1.71 1.7105,1.98039 1.890625,2.02539 0.17975,0.0449 1.124532,0.31437 1.394532,0.35937 0.224625,0.0449 0.49414,0.22411 0.49414,0.58399 0,0.36037 -0.403312,0.7207 -0.898437,0.7207 -0.495125,0 -1.620688,-0.49508 -2.070313,-1.08008 l -1.394531,1.16992 c 0.495125,0.67525 1.935125,1.43946 3.375,1.43946 1.484875,0 3.015623,-0.6748 3.015623,-2.29492 0,-1.665 -1.396014,-2.06846 -1.666014,-2.15821 -0.314875,-0.0455 -1.484437,-0.31645 -1.664062,-0.36133 -0.13525,0 -0.451172,-0.0894 -0.451172,-0.49414 0,-0.45025 0.405359,-0.67578 0.990234,-0.67578 0.540125,0 0.990641,0.22555 1.666016,0.81055 l 1.169918,-1.21485 c -0.765121,-0.72025 -1.755856,-1.08007 -2.880856,-1.08007 z"
             style="fill:#231f20;fill-opacity:1;fill-rule:evenodd;stroke:none" />
          <path
             inkscape:connector-curvature="0"
             id="path154"
             transform="matrix(8,0,0,-8,0,2030)"
             d="m 83.798828,166.54883 c -2.65475,0 -3.238281,2.88125 -3.238281,3.78125 0,0.89987 0.540047,3.7793 3.419922,3.7793 1.665,0 2.563937,-0.94485 2.789062,-1.21485 l -1.169922,-1.08008 c 0,0 -0.494093,0.67578 -1.574218,0.67578 -1.08,0 -1.621094,-0.76607 -1.621094,-1.48632 l 4.681641,0 c 0.08975,-0.855 -0.27186,-4.45508 -3.28711,-4.45508 z m 0.04687,1.62109 c 0.855,0 1.394531,0.76458 1.394531,1.43946 l -2.835937,0 c 0,-0.71975 0.541031,-1.43946 1.441406,-1.43946 z"
             style="fill:#231f20;fill-opacity:1;fill-rule:evenodd;stroke:none" />
          <path
             inkscape:connector-curvature="0"
             id="path156"
             transform="matrix(8,0,0,-8,0,2030)"
             d="m 92.935547,166.64062 c -1.709875,-0.0449 -1.981344,0.40522 -2.386719,0.85547 l 0,-0.7207 -1.84375,0 0,7.10938 1.84375,0 0,-3.55469 c 0,-1.03525 1.126469,-1.93555 2.386719,-1.93555 l 0,-1.75391 z"
             style="fill:#231f20;fill-opacity:1;fill-rule:evenodd;stroke:none" />
          <path
             inkscape:connector-curvature="0"
             id="path158"
             transform="matrix(8,0,0,-8,0,2030)"
             d="m 82.810547,180.95117 2.339844,6.79492 c 0.13525,0.49463 -0.04536,1.03319 -0.990235,0.89844 l -0.630859,-0.0898 -0.224609,1.61914 1.080078,0.13672 c 1.350125,0.22512 2.024843,-0.31496 2.339843,-1.08008 l 2.835938,-8.2793 -1.980469,0 -1.394531,4.36328 -1.439453,-4.36328 -1.935547,0 z"
             style="fill:#231f20;fill-opacity:1;fill-rule:evenodd;stroke:none" />
          <path
             inkscape:connector-curvature="0"
             id="path160"
             transform="matrix(8,0,0,-8,0,2030)"
             d="m 65.439453,180.67969 c -1.755,0 -3.464844,1.43951 -3.464844,3.86914 0,2.47512 1.709844,3.91601 3.464844,3.91601 1.754875,0 3.464844,-1.44089 3.464844,-3.91601 0,-2.42963 -1.754969,-3.86914 -3.464844,-3.86914 z m 0,1.66601 c 0.765125,0 1.621094,0.67475 1.621094,2.25 0,1.52975 -0.855969,2.25 -1.621094,2.25 -0.76525,0 -1.619141,-0.72025 -1.619141,-2.25 0,-1.57525 0.853891,-2.25 1.619141,-2.25 z"
             style="fill:#231f20;fill-opacity:1;fill-rule:evenodd;stroke:none" />
          <path
             inkscape:connector-curvature="0"
             id="path162"
             transform="matrix(8,0,0,-8,0,2030)"
             d="m 74.169922,180.81445 c -1.035125,0 -1.75586,0.67578 -1.75586,0.67578 l 0,-0.53906 -1.84375,0 0,7.10938 1.84375,0 0,-3.8711 c 0,-0.94487 0.676329,-1.61914 1.486329,-1.61914 0.765125,0 1.169921,0.49516 1.169921,1.03516 l 0,4.45508 1.84375,0 0,-4.63672 c 0,-1.30463 -1.079015,-2.60938 -2.74414,-2.60938 z"
             style="fill:#231f20;fill-opacity:1;fill-rule:evenodd;stroke:none" />
          <path
             inkscape:connector-curvature="0"
             id="path164"
             transform="matrix(8,0,0,-8,0,2030)"
             d="m 78.939453,178.16016 0,8.63867 c 0,0.72025 0.4955,1.48633 1.890625,1.48633 0.719625,0 1.439453,-0.22461 1.439453,-0.22461 l -0.179687,-1.6211 c -0.855,0.225 -1.304688,5e-4 -1.304688,-0.35937 l 0,-7.91992 -1.845703,0 z"
             style="fill:#231f20;fill-opacity:1;fill-rule:evenodd;stroke:none" />
        </g>
        <g
           id="g4153">
          <path
             inkscape:connector-curvature="0"
             id="path166"
             transform="matrix(8,0,0,-8,0,2030)"
             d="m 13.240234,151.70117 c -1.395037,0 -2.519531,1.16945 -2.519531,2.56445 l 0,30.33008 c 0,1.3945 1.124494,2.51953 2.519531,2.51953 l 30.330078,0 c 1.395001,0 2.519532,-1.12503 2.519532,-2.51953 l 0,-30.33008 c 0,-1.395 -1.124531,-2.56445 -2.519532,-2.56445 l -30.330078,0 z"
             style="fill:#1478c7;fill-opacity:1;fill-rule:evenodd;stroke:none" />
          <path
             inkscape:connector-curvature="0"
             id="path168"
             transform="matrix(8,0,0,-8,0,2030)"
             d="m 20.035156,156.33594 0,16.46875 0,10.53125 5.625,0 0,-10.57617 8.955078,0.0449 c 3.081,0 5.580078,-2.53855 5.580078,-5.66992 l 0.04492,-5.13086 c 0,-3.1065 -2.518625,-5.625 -5.625,-5.625 l 0,-0.043 -14.580078,0 z m 5.625,4.36523 6.253906,0 c 1.465875,0 2.65625,1.20847 2.65625,2.69922 l 0.04492,2.25 c 0,1.49075 -1.210422,2.69922 -2.701172,2.69922 l -6.253906,0 0,-7.64844 z"
             style="fill:#ffffff;fill-opacity:1;fill-rule:evenodd;stroke:none" />
        </g>
        <g
           id="g4157">
          <path
             inkscape:connector-curvature="0"
             id="path170"
             transform="matrix(8,0,0,-8,0,2030)"
             d="m 107.10938,160.56445 c -0.98976,0 -1.79883,0.81099 -1.79883,1.75586 l 0,14.17578 c 0,0.98975 0.80907,1.79883 1.79883,1.79883 l 10.62109,0 c 0.99025,0 1.75391,-0.80908 1.75391,-1.79883 l 0,-14.17578 c 0,-0.94487 -0.76366,-1.75586 -1.75391,-1.75586 l -10.62109,0 z"
             style="fill:#231f20;fill-opacity:1;fill-rule:evenodd;stroke:none" />
          <path
             inkscape:connector-curvature="0"
             id="path172"
             transform="matrix(8,0,0,-8,0,2030)"
             d="m 111.16016,163.75977 -3.59961,11.33984 1.84375,0 0.63086,-1.97852 2.38476,0 2.29492,0 0.63086,1.97852 1.88868,0 -3.64454,-11.33984 -2.42968,0 z m 1.21484,2.02539 1.8457,5.75976 -3.6914,0 1.8457,-5.75976 z"
             style="fill:#ffffff;fill-opacity:1;fill-rule:evenodd;stroke:none" />
        </g>
        <g
           id="g4181">
          <path
             inkscape:connector-curvature="0"
             id="path114"
             transform="matrix(8,0,0,-8,0,2030)"
             d="m 77.5,196.74609 0,9.89844 1.935547,0 0,-4.00391 4.140625,0 0,-1.8457 -4.140625,0 0,-2.16015 4.544922,0 0,-1.88868 -2.025391,0 -1.666016,0 -2.789062,0 z"
             style="fill:#231f20;fill-opacity:1;fill-rule:evenodd;stroke:none" />
          <path
             inkscape:connector-curvature="0"
             id="path116"
             transform="matrix(8,0,0,-8,0,2030)"
             d="m 89.650391,199.40039 c -1.754875,0 -2.024938,0.44877 -2.429688,0.85352 l 0,-0.67383 -1.845703,0 0,7.06445 1.845703,0 0,-3.50976 c 0,-1.07963 1.169938,-1.98047 2.429688,-1.98047 l 0,-1.75391 z"
             style="fill:#231f20;fill-opacity:1;fill-rule:evenodd;stroke:none" />
          <path
             inkscape:connector-curvature="0"
             id="path118"
             transform="matrix(8,0,0,-8,0,2030)"
             d="m 37.496094,196.74609 0,9.94336 1.888672,0 0,-7.24414 3.060546,4.14063 2.96875,-4.18555 0,7.28906 1.980469,0 0,-4.27539 0,-2.83398 0,-2.83399 -2.474609,0 -2.47461,3.55274 -2.566406,-3.55274 -2.382812,0 z"
             style="fill:#231f20;fill-opacity:1;fill-rule:evenodd;stroke:none" />
          <path
             inkscape:connector-curvature="0"
             id="path120"
             transform="matrix(8,0,0,-8,0,2030)"
             d="m 61.660156,199.40039 c -1.035125,0 -1.755859,0.7207 -1.755859,0.7207 l 0,-0.54101 -1.84375,0 0,7.10937 1.84375,0 0,-3.91406 c 0,-0.94475 0.676328,-1.62109 1.486328,-1.62109 0.764625,0 1.214844,0.49508 1.214844,1.08008 l 0,4.45507 1.845703,0 0,-4.67968 c 0,-1.25975 -1.125891,-2.60938 -2.791016,-2.60938 z"
             style="fill:#231f20;fill-opacity:1;fill-rule:evenodd;stroke:none" />
          <path
             inkscape:connector-curvature="0"
             id="path122"
             transform="matrix(8,0,0,-8,0,2030)"
             d="m 52.974609,199.31055 c -1.71,0 -3.464843,1.39414 -3.464843,3.86914 0,2.42975 1.709968,3.86914 3.464843,3.86914 1.754875,0 3.464844,-1.43939 3.464844,-3.86914 0,-2.475 -1.754969,-3.86914 -3.464844,-3.86914 z m 0,1.61914 c 0.765125,0 1.621094,0.71975 1.621094,2.25 0,1.52987 -0.855969,2.25 -1.621094,2.25 -0.765125,0 -1.61914,-0.72013 -1.61914,-2.25 0,-1.53025 0.854015,-2.25 1.61914,-2.25 z"
             style="fill:#231f20;fill-opacity:1;fill-rule:evenodd;stroke:none" />
          <path
             inkscape:connector-curvature="0"
             id="path124"
             transform="matrix(8,0,0,-8,0,2030)"
             d="m 68.951172,201.69531 0,1.48438 3.103516,0 0,-1.48438 -3.103516,0 z"
             style="fill:#231f20;fill-opacity:1;fill-rule:evenodd;stroke:none" />
          <path
             inkscape:connector-curvature="0"
             id="path126"
             transform="matrix(8,0,0,-8,0,2030)"
             d="m 91.404297,199.58008 0,7.10937 1.800781,0 0,-7.10937 -1.800781,0 z"
             style="fill:#231f20;fill-opacity:1;fill-rule:evenodd;stroke:none" />
          <path
             inkscape:connector-curvature="0"
             id="path128"
             transform="matrix(8,0,0,-8,0,2030)"
             d="m 92.259766,196.74609 c -0.57125,0 -1.035157,0.46196 -1.035157,1.03321 0,0.57137 0.463907,1.03515 1.035157,1.03515 0.57125,0 1.035156,-0.46378 1.035156,-1.03515 0,-0.57125 -0.463906,-1.03321 -1.035156,-1.03321 z"
             style="fill:#231f20;fill-opacity:1;fill-rule:evenodd;stroke:none" />
          <path
             inkscape:connector-curvature="0"
             id="path174"
             transform="matrix(8,0,0,-8,0,2030)"
             d="m 51.355469,217.625 0,1.48438 3.105469,0 0,-1.48438 -3.105469,0 z"
             style="fill:#231f20;fill-opacity:1;fill-rule:evenodd;stroke:none" />
          <path
             inkscape:connector-curvature="0"
             id="path176"
             transform="matrix(8,0,0,-8,0,2030)"
             d="m 98.605469,215.24023 c -0.674875,0 -1.3955,0.22557 -1.890625,0.58594 l 0,-0.3164 -1.84375,0 0,9.13476 1.84375,0 0,-2.56445 c 0,0 0.585422,0.71875 1.935547,0.71875 2.519999,0 3.285159,-2.65435 3.285159,-3.82422 0,-0.89988 -0.36032,-1.88958 -0.94532,-2.56445 -0.49512,-0.58488 -1.259761,-1.16993 -2.384761,-1.16993 z m -0.316407,1.57422 c 1.125,0 1.710938,0.99024 1.710938,2.11524 0,1.125 -0.630813,2.11523 -1.710938,2.11523 -1.035124,0 -1.574218,-0.76462 -1.574218,-1.48437 l 0,-1.30664 c 0,-0.62988 0.494219,-1.43946 1.574218,-1.43946 z"
             style="fill:#231f20;fill-opacity:1;fill-rule:evenodd;stroke:none" />
          <path
             inkscape:connector-curvature="0"
             id="path178"
             transform="matrix(8,0,0,-8,0,2030)"
             d="m 69.580078,220.86523 c -0.546375,0 -0.990234,0.44386 -0.990234,0.99024 0,0.54637 0.443859,0.99023 0.990234,0.99023 0.546375,0 0.990234,-0.44386 0.990234,-0.99023 0,-0.54638 -0.443859,-0.99024 -0.990234,-0.99024 z"
             style="fill:#231f20;fill-opacity:1;fill-rule:evenodd;stroke:none" />
          <path
             inkscape:connector-curvature="0"
             id="path180"
             transform="matrix(8,0,0,-8,0,2030)"
             d="m 76.015625,212.62891 c -2.294875,0 -3.690844,1.1255 -3.871094,3.01562 l 2.115235,0.22656 c 0.13525,-0.90037 0.586,-1.4414 1.890625,-1.4414 1.30525,0 1.484328,0.89997 1.439453,1.21484 0,0.89988 -0.540078,1.21485 -2.205078,1.21485 l 0,1.66601 c 0.495125,0.045 1.485906,-5.6e-4 1.800781,0.17969 0.540125,0.40475 0.539062,0.67528 0.539062,1.03515 0,0.22513 5e-4,1.34961 -1.484375,1.34961 -1.53025,0 -1.845218,-0.80959 -1.980468,-1.57422 l -2.115235,0.4043 c 0.27,1.66513 1.440906,3.01563 4.050781,3.01563 2.61025,0 3.644532,-1.75547 3.644532,-3.10547 0,-1.35013 -0.810063,-2.16017 -1.304688,-2.29492 0.08988,0 1.169922,-0.4506 1.169922,-1.98047 0,-1.53025 -1.394578,-2.92578 -3.689453,-2.92578 z"
             style="fill:#231f20;fill-opacity:1;fill-rule:evenodd;stroke:none" />
          <path
             inkscape:connector-curvature="0"
             id="path182"
             transform="matrix(8,0,0,-8,0,2030)"
             d="m 62.919922,212.53906 c -2.25,0 -3.871094,1.62111 -3.871094,5.13086 0,1.79988 0.721672,3.14902 1.216797,3.86914 0.494625,0.71975 1.664063,1.21485 2.789063,1.21485 1.079624,0 3.464843,-0.62794 3.464843,-3.50782 0,-2.92525 -2.249984,-3.46679 -3.240234,-3.46679 -0.98975,0 -1.845234,0.4507 -2.115235,0.7207 -0.04487,-1.53025 1.036235,-2.16016 1.75586,-2.16016 0.675375,0 1.1245,0.27007 1.484375,0.94532 0.5855,-0.22513 1.170906,-0.45071 1.800781,-0.72071 -0.359875,-1.03525 -1.035156,-2.02539 -3.285156,-2.02539 z m 0,5.04102 c 0.9,0 1.576172,0.76564 1.576172,1.66601 0,1.25975 -0.946297,1.75391 -1.576172,1.75391 -0.94475,0 -1.621094,-0.80903 -1.621094,-1.75391 0,-0.90037 0.721219,-1.66601 1.621094,-1.66601 z"
             style="fill:#231f20;fill-opacity:1;fill-rule:evenodd;stroke:none" />
          <path
             inkscape:connector-curvature="0"
             id="path184"
             transform="matrix(8,0,0,-8,0,2030)"
             d="m 86.275391,212.62891 c -1.439875,0 -4.185547,0.81111 -4.185547,5.13086 0,4.32037 2.610922,5.17578 4.185547,5.17578 1.57525,0 4.185547,-0.85541 4.185547,-5.17578 0,-4.31975 -2.790547,-5.13086 -4.185547,-5.13086 z m 0,1.89062 c 1.035125,0 2.070359,0.58544 2.115234,3.19531 0.04488,2.56488 -0.945234,3.33008 -2.115234,3.33008 -1.169875,0 -2.16011,-0.7652 -2.115235,-3.33008 0,-2.60987 1.08061,-3.19531 2.115235,-3.19531 z"
             style="fill:#231f20;fill-opacity:1;fill-rule:evenodd;stroke:none" />
          <path
             inkscape:connector-curvature="0"
             id="path186"
             transform="matrix(8,0,0,-8,0,2030)"
             d="m 110.89062,215.33008 c -1.21537,0 -1.98046,0.81054 -1.98046,0.81054 0,0 -0.62949,-0.7207 -1.70899,-0.7207 -1.21537,0 -1.89062,0.49414 -1.89062,0.49414 l 0,-0.40429 -1.80078,0 0,7.11132 1.80078,0 0,-4.14062 c 0,-0.99025 0.80956,-1.39453 1.30468,-1.39453 0.49463,0 1.08008,0.49322 1.08008,1.16797 l 0,4.36718 1.80078,0 0,-4.0957 c 0,-0.89987 0.67282,-1.43945 1.25782,-1.43945 0.54,0 1.08203,0.49322 1.08203,1.16797 l 0,4.36718 1.84375,0 0,-4.8164 c 0,-1.21525 -0.98919,-2.47461 -2.78907,-2.47461 z"
             style="fill:#231f20;fill-opacity:1;fill-rule:evenodd;stroke:none" />
          <path
             inkscape:connector-curvature="0"
             id="path188"
             transform="matrix(8,0,0,-8,0,2030)"
             d="m 43.929688,215.33008 c -1.21525,0 -1.978516,0.81054 -1.978516,0.81054 0.04487,0 -0.631313,-0.7207 -1.710938,-0.7207 -1.215375,0 -1.845703,0.49414 -1.845703,0.49414 l 0,-0.40429 -1.845703,0 0,7.11132 1.845703,0 0,-4.14062 c 0,-0.99025 0.765141,-1.39453 1.259766,-1.39453 0.540125,0 1.080078,0.49322 1.080078,1.16797 l 0,4.36718 1.845703,0 0,-4.0957 c 0,-0.89987 0.629969,-1.43945 1.214844,-1.43945 0.585,0 1.125,0.49322 1.125,1.16797 l 0,4.36718 1.800781,0 0,-4.8164 c 0,-1.21525 -0.946266,-2.47461 -2.791015,-2.47461 z"
             style="fill:#231f20;fill-opacity:1;fill-rule:evenodd;stroke:none" />
          <path
             inkscape:connector-curvature="0"
             id="path190"
             transform="matrix(8,0,0,-8,0,2030)"
             d="m 20.349609,212.53906 c -1.665125,0 -3.644531,0.76563 -3.644531,3.01563 0,1.52987 1.214844,1.8457 1.214844,1.8457 0,0 -1.484375,0.40522 -1.484375,2.33984 0,1.935 1.619062,3.0586 3.914062,3.0586 2.339875,0 3.916016,-1.1236 3.916016,-3.0586 0,-1.93462 -1.439453,-2.33984 -1.439453,-2.33984 0,0 1.169922,-0.31583 1.169922,-1.8457 0,-2.25 -1.981485,-3.01563 -3.646485,-3.01563 z m 0.04492,1.75586 c 0.72025,0 1.529297,0.40535 1.529297,1.21485 0,0.80183 -0.792673,1.16066 -1.550781,1.16796 0.0073,7e-5 0.01418,0.002 0.02148,0.002 l -0.04492,0 c 0.0078,0 0.0156,-0.002 0.02344,-0.002 -0.757743,-0.007 -1.507813,-0.36557 -1.507813,-1.16796 0,-0.8095 0.809047,-1.21485 1.529297,-1.21485 z m 0,4.0957 c 0.899875,0 1.800781,0.40477 1.800781,1.25977 0,0.8934 -0.756525,1.34122 -1.824218,1.34766 0.0084,5e-5 0.01496,0.002 0.02344,0.002 l -0.04492,0 c 0.0078,0 0.01374,-0.002 0.02148,-0.002 -1.066595,-0.007 -1.822266,-0.45485 -1.822266,-1.34766 0,-0.855 0.900953,-1.25977 1.845703,-1.25977 z"
             style="fill:#231f20;fill-opacity:1;fill-rule:evenodd;stroke:none" />
          <path
             inkscape:connector-curvature="0"
             id="path192"
             transform="matrix(8,0,0,-8,0,2030)"
             d="m 31.554688,215.28516 c -1.53025,0 -2.563501,0.72018 -2.96875,0.94531 l 0.808593,1.34961 c 0.585,-0.40538 1.891516,-0.67578 2.431641,-0.67578 0.54,0 0.763672,0.40573 0.763672,0.63086 l 0,0.40429 c -0.629875,0 -2.206063,0.2711 -2.835938,0.4961 -0.585,0.17975 -1.529297,0.63039 -1.529297,2.02539 0,1.395 1.440907,2.33789 2.925782,2.33789 1.215375,0 1.664062,-0.71875 1.664062,-0.71875 0,0 0.630891,0.76562 1.666016,0.76562 l 0.765625,-1.4414 c -0.855,-0.17963 -0.810547,-0.49363 -0.810547,-0.71875 l 0,-3.68946 c 0,-0.99025 -0.90086,-1.71093 -2.880859,-1.71093 z m 1.035156,4.09375 0,1.35156 c 0,0.54 -1.034719,0.53906 -1.214844,0.53906 -0.180125,0 -1.259766,-0.0434 -1.259766,-0.89844 0,-0.94537 1.34961,-0.99218 2.47461,-0.99218 z"
             style="fill:#231f20;fill-opacity:1;fill-rule:evenodd;stroke:none" />
        </g>
        <path
           inkscape:connector-curvature="0"
           style="fill:#231f20;fill-opacity:1;fill-rule:evenodd;stroke:none"
           d="m 65.080078,227.92969 4.72461,4.72461 -18.900391,0 0,4.72461 18.900391,0 -4.72461,4.72656 7.109375,0 7.064453,-7.10938 -7.064453,-7.0664 -7.109375,0 z"
           transform="matrix(8,0,0,-8,0,2030)"
           id="path194" />
      </g>
    </g>
  </g>
</svg>
