<?xml version="1.0" encoding="UTF-8" standalone="no"?>
<!-- Created with Inkscape (http://www.inkscape.org/) -->
<svg xmlns:dc="http://purl.org/dc/elements/1.1/" xmlns:cc="http://creativecommons.org/ns#" xmlns:rdf="http://www.w3.org/1999/02/22-rdf-syntax-ns#" xmlns:svg="http://www.w3.org/2000/svg" xmlns="http://www.w3.org/2000/svg" xmlns:inkscape="http://www.inkscape.org/namespaces/inkscape" version="1.1" width="555.35999" height="564.26001" id="svg2" xml:space="preserve"><metadata id="metadata8"><rdf:RDF><cc:Work rdf:about=""><dc:format>image/svg+xml</dc:format><dc:type rdf:resource="http://purl.org/dc/dcmitype/StillImage"/></cc:Work></rdf:RDF></metadata><defs id="defs6"><clipPath id="clipPath20"><path d="M 0,451.41 H 444.29 V 0 H 0 v 451.41 z" inkscape:connector-curvature="0" id="path22"/></clipPath></defs><g transform="matrix(1.25,0,0,-1.25,0,564.26)" id="g10"><g transform="translate(443.79,25.875)" id="g12"><path d="m 0,0 c 0,-14.014 -11.361,-25.375 -25.375,-25.375 h -392.54 c -14.014,0 -25.375,11.361 -25.375,25.375 v 399.67 c 0,14.014 11.361,25.375 25.375,25.375 h 392.54 c 14.019,0 25.38,-11.36 25.38,-25.37 V 0.005" inkscape:connector-curvature="0" id="path14" style="fill:#ffffff"/></g><g id="g16"><g clip-path="url(#clipPath20)" id="g18"><g transform="translate(443.79,25.875)" id="g24"><path d="m 0,0 c 0,-14.014 -11.361,-25.375 -25.375,-25.375 h -392.54 c -14.014,0 -25.375,11.361 -25.375,25.375 v 399.67 c 0,14.014 11.361,25.375 25.375,25.375 h 392.54 c 14.019,0 25.38,-11.36 25.38,-25.37 V 0.005 z" inkscape:connector-curvature="0" id="path26" style="fill:none;stroke:#0079c1"/></g></g></g><g transform="translate(430.62,25.875)" id="g28"><path d="m 0,0 c 0,-6.737 -5.461,-12.198 -12.198,-12.198 h -392.54 c -6.737,0 -12.198,5.461 -12.198,12.198 v 399.67 c 0,6.737 5.461,12.198 12.198,12.198 h 392.54 c 6.739,-0.01 12.2,-5.47 12.2,-12.2 V -0.002" inkscape:connector-curvature="0" id="path30" style="fill:#0079c1"/></g><g transform="translate(282.54,412)" id="g32"><path d="M 0,0 V -102 H -120.25 V 0 h -41.5 v -255.5 h 41.5 v 116 H 0 v -116 H 41.5 V 0 H 0" inkscape:connector-curvature="0" id="path34" style="fill:#ffffff"/></g><g transform="translate(47.582,109.15)" id="g36"><path d="M 0,0 H 11.199 L 40.834,-43.073 V 0 H 51 V -59.959 H 39.801 L 10.08,-17.058 V -59.959 H 0 V 0" inkscape:connector-curvature="0" id="path38" style="fill:#ffffff"/></g><g transform="translate(112.83,70.727)" id="g40"><path d="m 0,0 c 0,13.525 7.839,23.001 20.676,23.001 12.75,0 20.331,-9.303 20.331,-23.001 0,-15.249 -9.993,-22.657 -20.331,-22.657 C 8.615,-22.657 0,-12.837 0,0" inkscape:connector-curvature="0" id="path42" style="fill:#ffffff"/></g><g transform="translate(144.62,70.727)" id="g44"><path d="m 0,0 c 0,8.271 -4.307,13.783 -11.199,13.783 -6.806,0 -10.855,-5.599 -10.855,-13.783 0,-8.012 4.049,-13.698 10.941,-13.698 C -4.393,-13.698 0,-7.926 0,0" inkscape:connector-curvature="0" id="path46" style="fill:#0079c1"/></g><g transform="translate(208.79,109.41)" id="g48"><path d="M 0,0 H 12.491 L 32.65,-60.218 H 22.485 l -3.791,11.199 H -5.858 L -9.477,-60.218 H -20.159 L 0,0" inkscape:connector-curvature="0" id="path50" style="fill:#ffffff"/></g><g transform="translate(214.91,97.26)" id="g52"><path d="M 0,0 -8.873,-28.257 H 9.476 L 0,0" inkscape:connector-curvature="0" id="path54" style="fill:#0079c1"/></g><g transform="translate(320.75,75.638)" id="g56"><path d="m 0,0 c -0.172,-8.356 -6.375,-16.282 -6.375,-16.282 1.292,-1.552 3.876,-1.552 3.876,-1.552 0.69,0 2.929,0.345 3.705,0.432 L 2.24,-26.19 c -2.412,-0.948 -5.687,-0.948 -5.687,-0.948 -4.823,0 -6.547,1.121 -9.993,4.135 -6.633,-3.962 -7.839,-4.049 -12.922,-4.049 -10.768,0 -19.641,9.563 -19.641,19.212 0,0 0,11.63 10.166,16.454 -3.791,3.705 -3.791,10.511 -3.791,10.511 0,6.633 5.944,14.214 13.784,14.214 8.441,0 14.214,-6.375 14.214,-14.042 0,0 0,-9.649 -10.338,-14.387 l 9.648,-12.923 c 0,0 2.24,2.844 2.758,8.013 H 0" inkscape:connector-curvature="0" id="path58" style="fill:#ffffff"/></g><g transform="translate(294.22,57.804)" id="g60"><path d="M 0,0 C 0,0 4.567,0 7.238,3.016 L -4.564,19.47 c -5.773,-2.756 -5.773,-8.787 -5.773,-8.787 C -10.337,5.6 -5.255,0 0,0" inkscape:connector-curvature="0" id="path62" style="fill:#0079c1"/></g><g transform="translate(290.6,94.246)" id="g64"><path d="m 0,0 c 0,-2.068 0.259,-3.619 2.413,-6.203 2.67,0.689 7.15,4.135 7.15,7.409 0,2.757 -1.637,4.738 -4.307,4.738 C 1.466,5.944 0,3.101 0,0" inkscape:connector-curvature="0" id="path66" style="fill:#0079c1"/></g><g transform="translate(397.28,84.425)" id="g68"><path d="M 0,0 V -8.874 H -25.156 V -26.017 H 3.877 v -9.218 H -35.838 V 24.983 H 2.154 v -8.96 H -25.759 V 0 H 0" inkscape:connector-curvature="0" id="path70" style="fill:#ffffff"/></g></g></svg>