<?xml version="1.0" encoding="UTF-8" standalone="no"?>
<!-- Created with Inkscape (http://www.inkscape.org/) -->

<svg
   xmlns:dc="http://purl.org/dc/elements/1.1/"
   xmlns:cc="http://creativecommons.org/ns#"
   xmlns:rdf="http://www.w3.org/1999/02/22-rdf-syntax-ns#"
   xmlns:svg="http://www.w3.org/2000/svg"
   xmlns="http://www.w3.org/2000/svg"
   xmlns:inkscape="http://www.inkscape.org/namespaces/inkscape"
   version="1.1"
   width="416.85001"
   height="116.45"
   id="svg2"
   xml:space="preserve"><metadata
     id="metadata8"><rdf:RDF><cc:Work
         rdf:about=""><dc:format>image/svg+xml</dc:format><dc:type
           rdf:resource="http://purl.org/dc/dcmitype/StillImage" /></cc:Work></rdf:RDF></metadata><defs
     id="defs6"><clipPath
       id="clipPath20"><path
         d="M 0,93.172 H 333.48 V 0.015 H 0 v 93.157 z"
         inkscape:connector-curvature="0"
         id="path22" /></clipPath></defs><g
     transform="matrix(1.25,0,0,-1.25,0,116.46)"
     id="g10"><g
       transform="translate(13.385,0.8496)"
       id="g12"><path
         d="m 0,0 c -6.9141,0 -12.391,5.6172 -12.535,12.387 0.144,66.547 0,66.547 0,66.547 0,6.918 5.6209,12.539 12.535,12.539 h 286.7 c 4.461,0 8.5,-2.453 10.805,-6.34 l 20.883,-36.301 c 0.578,-1.008 0.871,-2.016 0.871,-3.168 0,-1.008 -0.293,-2.16 -0.871,-3.168 v 0.145 L 297.508,6.195 C 295.208,2.3047 291.168,0 286.708,0 H 0.008"
         inkscape:connector-curvature="0"
         id="path14"
         style="fill:#ffffff;fill-rule:evenodd" /></g><g
       id="g16"><g
         clip-path="url(#clipPath20)"
         id="g18"><g
           transform="translate(13.385,0.8496)"
           id="g24"><path
             d="m 0,0 c -6.9141,0 -12.391,5.6172 -12.535,12.387 0.144,66.547 0,66.547 0,66.547 0,6.918 5.6209,12.539 12.535,12.539 h 286.7 c 4.461,0 8.5,-2.453 10.805,-6.34 l 20.883,-36.301 c 0.578,-1.008 0.871,-2.016 0.871,-3.168 0,-1.008 -0.293,-2.16 -0.871,-3.168 v 0.145 L 297.508,6.195 C 295.208,2.3047 291.168,0 286.708,0 H 0.008 z"
             inkscape:connector-curvature="0"
             id="path26"
             style="fill:none;stroke:#0079c1;stroke-width:1.7ffd4215;stroke-miterlimit:10" /></g></g></g><g
       transform="translate(7.0493,13.236)"
       id="g28"><path
         d="m 0,0 v 66.551 l 0.1406,-0.004 c 0,3.422 2.7109,6.199 6.0544,6.199 h 0.149 -0.008 286.7 -0.008 c 2.141,-0.055 4.098,-1.199 5.188,-3.035 l 0.148,0.008 21.031,-36.442 -21.031,-36.301 -0.148,0.008 c -1.09,-1.8395 -3.047,-2.984 -5.188,-3.0309 l 0.008,-0.1445 H 6.336 l 0.008,0.1445 H 6.195 c -3.2887,0 -5.9763,2.6875 -6.0505,6.0509"
         inkscape:connector-curvature="0"
         id="path30"
         style="fill:#0079c1;fill-rule:evenodd" /></g><g
       transform="translate(278.47,79.783)"
       id="g32"><path
         d="M 0,0 H 19.16 L 38.324,-33.27 19.16,-66.547 H 0 L 19.16,-33.27 0,0"
         inkscape:connector-curvature="0"
         id="path34"
         style="fill:#ffffff;fill-rule:evenodd" /></g><g
       transform="translate(43.495,65.814)"
       id="g36"><path
         d="m 0,0 c -0.144,0.141 -0.289,0.285 -0.289,0.43 0,0.289 0.289,0.582 0.578,0.582 1.445,0.718 2.594,2.445 2.594,4.176 0,2.589 -2.02,4.75 -4.609,4.75 -2.45,0 -4.465,-2.161 -4.465,-4.75 0,-1.008 0.285,-2.016 1.007,-2.883 0.145,-0.141 0.286,-0.285 0.286,-0.43 0,-0.289 -0.43,-0.582 -0.719,-0.582 -2.453,-0.145 -5.043,-0.719 -6.774,-2.445 -4.754,-4.61 -7.203,-10.086 -7.777,-16.711 -0.574,-0.141 -0.863,-0.574 -0.863,-1.293 0,-0.289 0,-0.434 0.14,-0.723 0.868,-1.152 2.454,-2.015 3.891,-2.015 0.719,0 1.445,0.722 1.445,1.441 0,0.289 0,0.43 -0.144,0.574 -0.438,1.297 -0.438,1.297 -0.438,2.738 0,0.43 0,0.864 0.145,1.293 0.437,2.739 1.734,4.899 3.89,6.774 v -1.731 c 0,-5.043 -0.14,-6.625 -2.015,-11.519 -2.594,-6.485 -6.625,-12.246 -11.961,-16.86 l 2.598,-4.894 c 0.433,-0.863 1.296,-1.441 2.16,-1.441 l 2.445,-0.286 c 0.289,0 0.578,0.145 0.578,0.43 0,0.145 0,0.289 -0.14,0.434 l -0.868,0.574 c -0.429,0.289 -0.578,0.578 -0.718,1.008 l -0.719,3.168 c 5.762,4.32 10.367,10.086 13.394,16.855 5.622,-7.488 9.512,-15.848 11.239,-24.922 l 8.789,3.606 c 0.144,0.144 0.289,0.285 0.289,0.574 0,0.144 -0.145,0.434 -0.289,0.434 l -5.617,0.574 c -0.29,4.754 -1.297,9.218 -3.028,13.683 0,0.145 -3.172,6.051 -3.172,6.051 -1.152,2.594 -1.441,4.035 -1.441,6.914 0,2.594 0.148,3.024 0.867,5.473 2.453,-4.899 7.348,-8.352 12.82,-8.93 0.149,-0.285 0.434,-0.574 0.868,-0.574 0.289,0 0.578,0.289 0.718,0.574 0.578,1.297 0.719,1.875 0.868,3.168 0,0.434 -0.438,0.863 -1.008,0.863 -0.289,0 -0.578,-0.14 -0.578,-0.429 -4.469,1.297 -8.071,4.894 -9.368,9.363 C 4.324,-4.176 1.875,-1.73 0,0"
         inkscape:connector-curvature="0"
         id="path38"
         style="fill:#ffffff;fill-rule:evenodd" /></g><g
       transform="translate(191.31,55.877)"
       id="g40"><path
         d="m 0,0 -8.5,-19.734 h 4.468 L 4.324,0 V 3.457 H -11.668 V 0 H 0 z m -20.743,0 -2.738,-0.144 v -3.172 h 3.887 v -16.418 h 4.039 V 3.457 h -3.32 c 0,-1.152 -0.141,-3.313 -1.868,-3.457 m 42.352,-7.637 c 0,1.442 -0.285,3.024 -0.719,4.465 -0.578,2.016 -2.304,3.461 -4.468,3.606 -2.016,-0.145 -3.887,-1.59 -4.461,-3.606 -0.434,-1.441 -0.719,-3.023 -0.719,-4.465 0,-3.457 0.285,-8.929 5.18,-9.219 2.164,0.145 3.89,1.583 4.468,3.602 0.578,1.875 0.578,3.746 0.719,5.617 m 2.164,-8.066 c 1.438,2.738 1.727,4.469 1.867,7.637 -0.14,3.023 -0.429,4.75 -1.867,7.488 -1.441,3.027 -4.18,4.609 -7.492,4.609 -3.024,0 -5.91,-1.726 -7.203,-4.609 -1.012,-2.305 -1.586,-4.899 -1.731,-7.488 0.145,-2.594 0.719,-5.332 1.731,-7.782 1.293,-2.738 4.179,-4.464 7.203,-4.464 3.312,0 6.051,1.441 7.492,4.609"
         inkscape:connector-curvature="0"
         id="path42"
         style="fill:#ffffff;fill-rule:evenodd" /></g><g
       transform="translate(234.1,33.838)"
       id="g44"><path
         d="M 0,0 6.195,18.867 H 2.304 L -1.297,7.629 -5.039,18.867 h -3.75 L -3.172,1.582 C -3.024,0.863 -3.172,0.285 -3.746,0 -5.039,-0.289 -6.047,-0.289 -7.203,0 l -0.579,-2.883 c 1.438,-0.429 1.297,-0.429 2.883,-0.429 2.594,0 4.176,0.863 4.899,3.312 m 20.023,17.715 v 7.781 h 3.746 V 2.16 h -3.746 v 1.293 c -1.152,-0.719 -2.734,-1.437 -4.18,-1.437 -3.164,0 -6.046,2.16 -6.914,5.328 -0.578,2.164 -0.578,4.179 -0.14,6.195 0.285,1.008 0.719,1.871 1.293,2.734 1.156,1.731 3.172,2.739 5.187,3.028 h 0.574 c 1.586,0 2.739,-0.434 4.036,-1.442 l 0.144,-0.144 z m 0,-8.93 v 3.746 c 0,1.008 -0.433,1.727 -1.297,2.305 -0.578,0.574 -1.437,0.863 -2.304,0.863 -2.594,0 -4.321,-2.594 -4.321,-5.039 0,-1.441 0.578,-2.742 1.442,-3.894 0.718,-0.719 1.726,-1.153 2.879,-1.153 1.726,0 3.601,1.297 3.601,3.172 m -0.144,9.074 0.144,-0.144 -0.144,0.144 z M 31.55,5.902 C 30.828,6.336 30.398,6.766 29.82,7.344 L 27.515,4.75 c 2.02,-1.727 4.321,-3.023 7.203,-3.023 1.008,0 2.016,0.144 3.028,0.578 1.871,0.574 3.312,2.734 3.312,4.75 v 0.574 c -0.433,2.742 -2.738,4.324 -5.187,4.613 -0.863,0.145 -1.731,0.289 -2.594,0.434 -0.434,0.144 -0.719,0.429 -1.008,0.719 -0.144,0.289 -0.144,0.433 -0.144,0.718 0,0.578 0.144,1.008 0.578,1.297 0.719,0.434 1.297,0.719 2.16,0.719 1.293,0 2.883,-0.863 3.891,-1.727 l 2.304,2.45 c -1.73,1.582 -3.746,2.589 -6.05,2.589 -1.297,0 -2.594,-0.285 -3.747,-0.863 -1.582,-0.863 -2.738,-2.59 -2.738,-4.465 0,-1.152 0.438,-2.16 1.156,-3.168 1.149,-1.293 3.024,-1.871 4.61,-2.16 1.148,-0.144 2.59,-0.289 3.023,-1.441 V 6.91 c 0,-0.289 0,-0.574 -0.148,-0.863 C 36.879,5.758 36.59,5.473 36.156,5.328 35.582,5.184 35.148,5.039 34.574,5.039 c -1.152,0 -2.016,0.289 -3.024,0.863"
         inkscape:connector-curvature="0"
         id="path46"
         style="fill:#ffffff;fill-rule:evenodd" /></g><g
       transform="translate(96.799,59.334)"
       id="g48"><path
         d="m 0,0 c 1.195,0 2.164,-0.969 2.164,-2.16 0,-1.195 -0.969,-2.164 -2.164,-2.164 -1.195,0 -2.16,0.969 -2.16,2.164 C -2.16,-0.969 -1.195,0 0,0 M -1.875,-23.191 H 1.8711 V -6.628 H -1.875 V -23.191 z M 5.477,-6.34 h 3.742 l 3.75,-11.668 3.742,11.668 h 3.75 l -5.336,-16.711 h -4.32 L 5.477,-6.34 z M -14.406,0 c 2.883,0 5.472,-1.586 6.629,-4.176 0.574,-1.011 0.863,-2.164 0.863,-3.316 0,-1.297 -0.43,-2.738 -1.148,-3.891 -0.727,-1.152 -1.879,-2.015 -3.172,-2.301 l 4.754,-9.652 h -4.18 l -4.465,9.074 h -4.18 v -9.074 h -3.89 V 0 h 8.789 z m 3.746,-7.637 c 0,2.016 -1.582,4.036 -3.457,4.036 h -5.188 v -7.059 h 6.055 c 0,0 2.59,0.43 2.59,3.023 m 37.168,-8.64 H 37.75 c 0,1.441 -0.148,2.879 -0.437,4.32 -0.574,3.313 -3.746,5.762 -7.203,5.762 -2.016,0 -4.18,-1.012 -5.617,-2.594 -1.153,-1.871 -1.875,-3.887 -1.875,-6.191 0,-1.875 0.578,-3.606 1.441,-5.332 1.008,-1.442 2.449,-2.594 4.18,-3.168 2.019,-0.434 4.175,-0.289 6.191,0.574 0.719,0.433 1.445,1.008 2.309,1.586 -0.719,0.863 -1.442,1.726 -2.309,2.59 -2.445,-2.446 -7.922,-2.016 -7.922,2.453 m -0.144,2.734 h 7.492 c 0,2.02 -1.582,4.035 -3.746,4.035 -1.149,0 -2.305,-0.578 -2.879,-1.586 -0.434,-0.574 -0.723,-1.582 -0.867,-2.449 m 24.347,3.457 c -0.718,0 -1.586,0 -2.304,-0.289 -1.586,-0.285 -2.735,-1.726 -2.735,-3.309 v -9.507 h -3.75 v 16.562 h 3.75 v -1.726 c 1.149,1.582 3.168,2.16 5.039,2.16 v -3.891"
         inkscape:connector-curvature="0"
         id="path50"
         style="fill:#ffffff;fill-rule:evenodd" /></g></g></svg>