<?xml version="1.0" encoding="UTF-8" standalone="no"?>
<!-- Created with Inkscape (http://www.inkscape.org/) -->

<svg
   xmlns:dc="http://purl.org/dc/elements/1.1/"
   xmlns:cc="http://creativecommons.org/ns#"
   xmlns:rdf="http://www.w3.org/1999/02/22-rdf-syntax-ns#"
   xmlns:svg="http://www.w3.org/2000/svg"
   xmlns="http://www.w3.org/2000/svg"
   xmlns:inkscape="http://www.inkscape.org/namespaces/inkscape"
   version="1.1"
   width="730.79999"
   height="329.25"
   id="svg2"
   xml:space="preserve"><defs
     id="defs37" /><metadata
     id="metadata8"><rdf:RDF><cc:Work
         rdf:about=""><dc:format>image/svg+xml</dc:format><dc:type
           rdf:resource="http://purl.org/dc/dcmitype/StillImage" /></cc:Work></rdf:RDF></metadata><g
     transform="matrix(1.25,0,0,-1.25,-1.5374,329.59)"
     id="g10"><path
       d="M 585.87,33.87 C 585.82,15.328 570.78,0.292 552.27,0.27 H 34.71 C 16.219,0.29172 1.182,15.328 1.23,33.87 v 196.2 c -0.0475,18.602 14.989,33.638 33.48,33.6 h 517.56 c 18.511,0.038 33.547,-14.998 33.6,-33.6 V 33.87"
       inkscape:connector-curvature="0"
       id="path12" /><path
       d="m 568.35,33.87 c 0.028,-8.912 -7.2,-16.139 -16.08,-16.08 H 34.71 C 25.85,17.731 18.622,24.958 18.63,33.87 v 196.2 c -0.008,8.971 7.22,16.199 16.08,16.2 h 517.56 c 8.88,-0.001 16.108,-7.229 16.08,-16.2 V 33.87"
       inkscape:connector-curvature="0"
       id="path14"
       style="fill:#ffffff" /><path
       d="m 65.31,213.51 h 14.04 l 29.16,-42.72 v 42.72 h 12.84 V 149.79 H 107.31 L 78.15,192.51 V 149.79 H 65.31 v 63.72"
       inkscape:connector-curvature="0"
       id="path16" /><path
       d="m 134.07,172.11 c -0.024,18.619 10.851,25.416 21.72,25.44 9.885,-0.024 22.211,-6.821 22.2,-25.44 0.011,-13.646 -8.961,-23.977 -21.6,-24 -13.825,0.023 -22.344,9.539 -22.32,24"
       inkscape:connector-curvature="0"
       id="path18" /><path
       d="m 165.63,172.11 c -0.045,10.824 -3.761,14.178 -9.24,14.16 -6.847,0.018 -9.656,-5.601 -9.6,-14.16 -0.056,-7.392 3.569,-13.011 9.6,-12.96 6.023,-0.051 9.195,5.568 9.24,12.96"
       inkscape:connector-curvature="0"
       id="path20"
       style="fill:#ffffff" /><path
       d="m 218.43,213.87 h 12.24 v -46.92 c -0.052,-4.951 0.764,-6.129 3.36,-6.36 1.573,-0.041 2.842,0.05 4.56,0.48 l 1.2,-10.68 c -4.278,-1.079 -8.356,-1.804 -11.28,-1.8 -2.967,-0.004 -10.036,0.993 -10.08,11.64 v 53.64"
       inkscape:connector-curvature="0"
       id="path22" /><path
       d="m 244.71,172.11 c -0.049,18.619 10.826,25.416 21.72,25.44 9.86,-0.024 22.186,-6.821 22.2,-25.44 -0.014,-13.646 -8.986,-23.977 -21.6,-24 -13.85,0.023 -22.369,9.539 -22.32,24"
       inkscape:connector-curvature="0"
       id="path24" /><path
       d="m 276.15,172.11 c 0.049,10.824 -3.666,14.178 -9.12,14.16 -6.872,0.018 -9.681,-5.601 -9.72,-14.16 0.039,-7.392 3.664,-13.011 9.72,-12.96 5.998,-0.051 9.169,5.568 9.12,12.96"
       inkscape:connector-curvature="0"
       id="path26"
       style="fill:#ffffff" /><path
       d="m 313.35,148.47 c -10.094,0.025 -15.985,5.644 -15.96,14.4 -0.025,7.829 4.688,16.077 26.76,16.08 v 2.52 c 0.041,2.733 -2.678,4.455 -6.84,4.44 -3.541,0.015 -9.523,-2.069 -13.92,-4.68 l -5.88,9 c 3.299,2.402 11.184,6.843 19.56,6.84 12.831,0.003 19.447,-4.891 19.44,-13.8 v -19.08 c 0.007,-4.094 1.094,-5.272 5.4,-6 l -4.32,-9.6 c -2.161,-0.004 -8.233,0.811 -11.28,4.68 -4.113,-3.869 -7.919,-4.775 -12.96,-4.8"
       inkscape:connector-curvature="0"
       id="path28" /><path
       d="m 317.19,158.79 c 5.098,-0.054 7.364,1.396 7.32,5.16 v 5.88 l -9.24,-1.44 c -4.129,-0.591 -4.945,-2.766 -4.92,-5.28 -0.025,-3.014 1.787,-4.374 6.84,-4.32"
       inkscape:connector-curvature="0"
       id="path30"
       style="fill:#ffffff" /><path
       d="m 346.59,172.47 c -0.055,13.274 6.561,24.784 19.92,24.84 4.767,-0.056 7.848,-0.69 12.72,-3.96 v 20.4 h 12.48 v -63.96 h -12.48 v 2.76 c -3.965,-3.33 -7.772,-3.874 -13.08,-3.84 -12.636,-0.034 -19.615,9.483 -19.56,23.76"
       inkscape:connector-curvature="0"
       id="path32" /><path
       d="m 369.51,159.63 c 6.389,0.013 9.833,3.457 9.84,9.72 v 7.2 c -0.007,5.478 -3.723,9.738 -9.48,9.72 -7.293,0.018 -10.919,-5.511 -10.92,-13.44 0.001,-8.112 3.627,-13.187 10.56,-13.2"
       inkscape:connector-curvature="0"
       id="path34"
       style="fill:#ffffff" /><path
       d="m 404.19,149.79 h 12.12 v 46.08 h -12.12 v -46.08 z"
       inkscape:connector-curvature="0"
       id="path36" /><path
       d="m 403.23,207.39 c -0.044,3.821 3.037,7.084 6.84,7.08 3.991,0.004 7.073,-3.259 7.08,-7.2 -0.007,-3.763 -3.089,-6.935 -6.96,-6.96 -3.923,0.025 -7.004,3.197 -6.96,7.08"
       inkscape:connector-curvature="0"
       id="path38" /><path
       d="m 446.79,195.75 c 1.904,0.96 4.17,1.232 6.36,1.2 9.954,0.032 17.476,-7.672 17.52,-16.92 v -30.24 h -12.12 v 26.28 c 0.023,5.143 -2.515,9.311 -7.44,9.36 -5.95,-0.049 -9.757,-3.492 -9.72,-8.16 v -27.48 h -12.24 v 45.96 h 12.6 v -3.36 c 2.322,1.964 3.047,2.689 5.04,3.36"
       inkscape:connector-curvature="0"
       id="path40" /><path
       d="m 500.19,152.43 c -12.125,-0.038 -19.738,8.753 -19.68,21.48 -0.058,13.375 7.918,22.256 20.04,22.2 2.741,0.056 5.822,0.147 10.32,-3.12 v 2.64 h 12.6 v -44.64 c -0.059,-9.111 -9.213,-16.18 -21.48,-16.2 -7.581,0.02 -9.212,0.111 -20.64,5.4 l 5.52,10.08 c 5.002,-4.131 13.56,-4.08 13.56,-4.08 6.124,-0.051 11.38,0.674 10.32,8.64 -4.106,-2.8 -5.828,-2.438 -10.56,-2.4"
       inkscape:connector-curvature="0"
       id="path42" /><path
       d="m 502.47,163.47 c 5.624,-0.021 8.524,2.97 8.52,8.28 v 6.12 c 0.004,4.158 -3.621,7.421 -8.28,7.44 -6.307,-0.019 -9.842,-3.916 -9.84,-10.68 -0.002,-7.918 2.355,-11.181 9.6,-11.16"
       inkscape:connector-curvature="0"
       id="path44"
       style="fill:#ffffff" /><path
       d="m 67.23,56.67 c -10.028,0.058 -15.919,5.677 -15.96,14.52 0.041,7.742 4.754,15.989 26.88,15.96 v 2.52 c -0.012,2.765 -2.731,4.488 -6.96,4.44 -3.475,0.048 -9.456,-2.037 -13.8,-4.68 l -5.88,9 c 3.245,2.434 11.13,6.875 19.56,6.84 12.777,0.035 19.393,-4.859 19.44,-13.8 V 72.39 c -0.047,-4.062 1.041,-5.24 5.28,-6 l -4.2,-9.6 c -2.214,0.028 -8.287,0.844 -11.4,4.8 -4.046,-3.956 -7.853,-4.862 -12.96,-4.92"
       inkscape:connector-curvature="0"
       id="path46" /><path
       d="m 71.19,66.99 c 5.044,-0.021 7.31,1.429 7.32,5.28 v 5.76 l -9.36,-1.32 c -4.063,-0.678 -4.879,-2.854 -4.92,-5.4 0.041,-2.982 1.854,-4.341 6.96,-4.32"
       inkscape:connector-curvature="0"
       id="path48"
       style="fill:#ffffff" /><path
       d="m 107.55,93.39 h -7.2 v 10.32 h 7.2 v 14.52 l 12.48,3.48 v -18 h 11.76 V 93.39 H 120.27 V 72.63 c 0.059,-4.574 1.781,-5.027 3.6,-5.04 1.806,0.013 3.166,0.376 6.84,1.08 l 2.76,-10.2 c -5.709,-1.561 -10.875,-2.105 -14.28,-2.16 -4.299,0.055 -11.639,2.321 -11.64,10.92 v 26.16"
       inkscape:connector-curvature="0"
       id="path50" /><path
       d="m 184.83,56.67 c -10.087,0.058 -15.978,5.677 -15.96,14.52 -0.018,7.742 4.695,15.989 26.76,15.96 v 2.52 c 0.048,2.765 -2.67,4.488 -6.84,4.44 -3.534,0.048 -9.516,-2.037 -13.92,-4.68 l -5.88,9 c 3.306,2.434 11.191,6.875 19.56,6.84 12.838,0.035 19.454,-4.859 19.44,-13.8 V 72.39 c 0.014,-4.062 1.102,-5.24 5.4,-6 l -4.32,-9.6 c -2.153,0.028 -8.226,0.844 -11.28,4.8 -4.105,-3.956 -7.912,-4.862 -12.96,-4.92"
       inkscape:connector-curvature="0"
       id="path52" /><path
       d="m 188.67,66.99 c 5.105,-0.021 7.371,1.429 7.32,5.28 v 5.76 l -9.24,-1.32 c -4.122,-0.678 -4.938,-2.854 -4.92,-5.4 -0.018,-2.982 1.795,-4.341 6.84,-4.32"
       inkscape:connector-curvature="0"
       id="path54"
       style="fill:#ffffff" /><path
       d="m 238.71,104.07 c 1.879,0.872 4.145,1.144 6.36,1.2 9.929,-0.056 17.451,-7.759 17.4,-17.04 V 57.99 h -12 v 26.28 c -0.002,5.175 -2.54,9.344 -7.56,9.36 -5.856,-0.016 -9.662,-3.46 -9.72,-8.04 v -27.6 h -12.12 v 45.96 h 12.6 v -3.36 c 2.297,1.996 3.022,2.721 5.04,3.48"
       inkscape:connector-curvature="0"
       id="path56" /><path
       d="m 297.27,51.75 c -1.541,-4.629 -4.441,-8.979 -10.56,-9 0,0 -3.306,0.021 -12.6,1.2 l 1.08,10.8 c 1.417,-0.379 4.589,-0.651 6.6,-0.6 2.158,-0.051 4.242,1.127 4.2,3.72 0.042,0.761 0.133,1.848 -0.36,3.12 l -14.88,42.36 h 12 l 10.08,-27.48 9.84,27.48 h 12.24 l -17.64,-51.6"
       inkscape:connector-curvature="0"
       id="path58" /><path
       d="m 356.55,93.39 h -7.2 v 10.32 h 7.2 v 14.52 l 12.48,3.48 v -18 h 11.88 V 93.39 H 369.39 V 72.63 c -0.039,-4.574 1.683,-5.027 3.48,-5.04 1.828,0.013 3.188,0.376 6.84,1.08 l 2.76,-10.2 c -5.687,-1.561 -10.853,-2.105 -14.16,-2.16 -4.397,0.055 -11.738,2.321 -11.76,10.92 v 26.16"
       inkscape:connector-curvature="0"
       id="path60" /><path
       d="m 390.99,57.99 h 12.12 v 46.08 H 390.99 V 57.99 z"
       inkscape:connector-curvature="0"
       id="path62" /><path
       d="m 389.91,115.59 c 0.047,3.853 3.128,7.116 6.96,7.08 3.962,0.036 7.044,-3.227 7.08,-7.08 -0.036,-3.85 -3.118,-7.022 -6.96,-7.08 -3.952,0.058 -7.033,3.23 -7.08,7.08"
       inkscape:connector-curvature="0"
       id="path64" /><path
       d="m 463.71,93.39 c -5.406,0.042 -7.944,-3.855 -7.92,-8.76 V 57.99 h -12.6 v 26.28 c -0.022,6.262 -2.469,9.162 -6.48,9.12 -4.961,0.042 -8.042,-4.126 -8.04,-8.76 V 57.99 h -12.12 v 45.84 h 12.12 v -3.36 c 3.804,3.385 6.342,4.654 10.56,4.68 5.842,-0.026 7.745,-0.842 12.36,-5.88 4.901,4.947 8.345,6.035 13.56,6 9.83,0.035 17.17,-9.028 17.16,-18.6 V 57.99 h -12.36 v 26.28 c 0.045,6.262 -2.402,9.162 -6.24,9.12"
       inkscape:connector-curvature="0"
       id="path66" /><path
       d="m 526.71,72.63 7.32,-8.04 c -5.9,-5.325 -9.797,-7.591 -18.12,-7.56 -14.244,-0.031 -22.944,10.482 -22.92,24.48 -0.024,12.557 8.042,23.523 20.4,23.52 13.562,0.003 21.9,-10.057 21.84,-25.08 v -3.24 h -30.24 c 0.301,-5.21 5.105,-9.016 11.16,-9 3.461,-0.016 5.364,0.527 10.56,4.92"
       inkscape:connector-curvature="0"
       id="path68" /><path
       d="m 504.99,86.07 h 18.6 c -0.263,4.553 -4.795,8.631 -9.36,8.64 -4.588,-0.009 -8.485,-3.634 -9.24,-8.64"
       inkscape:connector-curvature="0"
       id="path70"
       style="fill:#ffffff" /></g></svg>