<?xml version="1.0" encoding="UTF-8" standalone="no"?>
<!-- Created with Inkscape (http://www.inkscape.org/) -->

<svg
   xmlns:dc="http://purl.org/dc/elements/1.1/"
   xmlns:cc="http://creativecommons.org/ns#"
   xmlns:rdf="http://www.w3.org/1999/02/22-rdf-syntax-ns#"
   xmlns:svg="http://www.w3.org/2000/svg"
   xmlns="http://www.w3.org/2000/svg"
   xmlns:inkscape="http://www.inkscape.org/namespaces/inkscape"
   version="1.1"
   width="243.13"
   height="177.5"
   id="svg2"
   xml:space="preserve"><defs
     id="defs30" /><metadata
     id="metadata8"><rdf:RDF><cc:Work
         rdf:about=""><dc:format>image/svg+xml</dc:format><dc:type
           rdf:resource="http://purl.org/dc/dcmitype/StillImage" /></cc:Work></rdf:RDF></metadata><g
     transform="matrix(1.25,0,0,-1.25,-257.78,590.03)"
     id="g10"><g
       transform="scale(0.1,0.1)"
       id="g12"><path
         d="m 4002.2,3436.2 c 0.34,-72.61 -60.15,-131.24 -135,-131 h -1665 c -74.35,-0.24 -134.84,58.39 -135,131 v 1148 c 0.16,72.11 60.65,130.74 135,131 h 1665 c 74.85,-0.26 135.34,-58.89 135,-131 v -1148"
         inkscape:connector-curvature="0"
         id="path14"
         style="fill:#ffffff" /><path
         d="m 4002.2,3436.2 c 0.34,-72.61 -60.15,-131.24 -135,-131 h -1665 c -74.35,-0.24 -134.84,58.39 -135,131 v 1148 c 0.16,72.11 60.65,130.74 135,131 h 1665 c 74.85,-0.26 135.34,-58.89 135,-131 v -1148 z"
         inkscape:connector-curvature="0"
         id="path16"
         style="fill:none;stroke:#ec1d24;stroke-width:10" /><path
         d="m 3932.2,3436.2 c 0.18,-35.05 -28.9,-63.23 -65,-63 h -1665 c -35.6,-0.23 -64.68,27.95 -65,63 v 1148 c 0.32,34.55 29.4,62.74 65,63 h 1665 c 36.1,-0.26 65.18,-28.45 65,-63 v -1148"
         inkscape:connector-curvature="0"
         id="path18"
         style="fill:#ec1d24" /><path
         d="m 2388.2,4359.2 h -46 v -98 h -43 v 250 h 92 c 60.41,0.13 86.17,-37.1 86,-79 0,0 0.17,-56.06 -45,-67 l 54,-104 h -46 l -52,98"
         inkscape:connector-curvature="0"
         id="path20"
         style="fill:#ffffff" /><path
         d="m 2437.2,4435.2 c -0.31,25.17 -18.34,38.9 -43,39 h -52 v -77 h 51 c 28.23,-0.09 43.69,11.11 44,38"
         inkscape:connector-curvature="0"
         id="path22"
         style="fill:#ec1d24" /><path
         d="m 2710.2,4408.2 v -37 h -108 v -72 h 124 v -38 h -169 v 252 h 162 v -37 h -119 v -68 h 110"
         inkscape:connector-curvature="0"
         id="path24"
         style="fill:#ffffff" /><path
         d="m 3009.2,4390.2 c -0.31,-73.34 -47.41,-129.37 -105,-129 h -109 v 251 h 109 c 58.69,0.22 104.69,-55.81 105,-122"
         inkscape:connector-curvature="0"
         id="path26"
         style="fill:#ffffff" /><path
         d="m 2965.2,4390.2 c -0.47,44.86 -26.6,84.63 -70,85 h -54 v -176 h 57 c 37.83,-0.05 66.53,39.71 67,91"
         inkscape:connector-curvature="0"
         id="path28"
         style="fill:#ec1d24" /><path
         d="m 3176.2,4294.2 c 41.41,0.25 56.13,38.93 56,66 v 154 h 43 v -162 c -0.18,-51.24 -38.82,-96.43 -99,-96 -58.69,-0.43 -102.12,39.7 -102,96 v 162 h 43 v -154 c 0.31,-36.11 26.07,-65.75 59,-66"
         inkscape:connector-curvature="0"
         id="path30"
         style="fill:#ffffff" /><path
         d="m 3564.2,4448.2 -41,-9 c -11.9,32.37 -35.82,44.66 -66,45 -45.26,-0.34 -76.17,-37.57 -76,-94 -0.17,-58.88 25.22,-96.83 79,-97 0,0 42.27,0.17 65,49 l 41,-9 c -22.51,-77.07 -105,-77 -105,-77 -91.58,-0.07 -125.44,65 -125,135 -0.44,76.39 49.61,132.06 120,132 54,0.06 93.74,-27.77 108,-75"
         inkscape:connector-curvature="0"
         id="path32"
         style="fill:#ffffff" /><path
         d="m 3778.2,4408.2 v -37 h -107 v -72 h 124 v -38 h -170 v 252 h 162 v -37 h -119 v -68 h 110"
         inkscape:connector-curvature="0"
         id="path34"
         style="fill:#ffffff" /><path
         d="m 2488.2,4080.2 c 0.35,-14.44 9.55,-25.65 35,-31 l 56,-12 c 30.05,-6.14 53.61,-30 54,-62 -0.39,-47.88 -37.56,-83.67 -95,-84 -44.86,0.33 -66.95,12.26 -101,48 l 33,27 c 24.61,-26.23 43.74,-35.27 68,-35 32.42,-0.27 52.66,10.21 53,34 -0.34,15.25 -11.75,28.63 -32,33 l -52,11 c -38.15,7.76 -61.34,37.4 -61,69 -0.34,45.75 35.36,74.67 92,75 0,0 65.17,-0.33 90,-42 l -35,-25 c -19.27,29.44 -61,29 -61,29 -28.93,0.44 -43.65,-14.74 -44,-35"
         inkscape:connector-curvature="0"
         id="path36"
         style="fill:#ffffff" /><path
         d="m 2800.2,3989.2 h -50 v -92 h -45 v 252 h 90 c 66.57,-0.3 88.65,-42.23 89,-80 -0.35,-35.25 -26.11,-80.43 -84,-80"
         inkscape:connector-curvature="0"
         id="path38"
         style="fill:#ffffff" /><path
         d="m 2842.2,4068.2 c 0.44,26.11 -18.7,42.38 -45,42 h -47 v -83 h 46 c 29.51,0.24 46.44,13.98 46,41"
         inkscape:connector-curvature="0"
         id="path40"
         style="fill:#ec1d24" /><path
         d="m 3100.2,4045.2 v -38 h -108 v -72 h 124 v -38 h -169 v 252 h 162 v -37 h -119 v -67 h 110"
         inkscape:connector-curvature="0"
         id="path42"
         style="fill:#ffffff" /><path
         d="m 3343.2,4045.2 v -38 h -107 v -72 h 124 v -38 h -170 v 252 h 162 v -37 h -119 v -67 h 110"
         inkscape:connector-curvature="0"
         id="path44"
         style="fill:#ffffff" /><path
         d="m 3641.2,4026.2 c -0.02,-73.22 -47.12,-129.25 -105,-129 h -108 v 251 h 108 c 58.98,0.34 104.98,-55.69 105,-122"
         inkscape:connector-curvature="0"
         id="path46"
         style="fill:#ffffff" /><path
         d="m 3597.2,4026.2 c -0.18,44.98 -26.3,84.74 -70,85 h -53 v -176 h 56 c 38.12,0.07 66.82,39.83 67,91"
         inkscape:connector-curvature="0"
         id="path48"
         style="fill:#ec1d24" /><path
         d="m 2622.2,3786.2 h 48 l 126,-181 v 181 h 44 v -252 h -48 l -127,180 v -180 h -43 v 252"
         inkscape:connector-curvature="0"
         id="path50"
         style="fill:#ffffff" /><path
         d="m 3031.2,3797.2 c 79.68,-0.25 121.63,-56.27 122,-133 -0.37,-76.9 -39.37,-134.37 -122,-134 -74.88,-0.37 -120.88,50.96 -121,134 0.12,74.92 42.07,132.75 121,133"
         inkscape:connector-curvature="0"
         id="path52"
         style="fill:#ffffff" /><path
         d="m 2955.2,3664.2 c -0.35,-60.27 21.73,-94.97 76,-95 56.5,0.03 76.74,37.62 77,95 -0.26,61.91 -28.6,92.99 -77,93 -56.48,-0.01 -76.35,-37.96 -76,-93"
         inkscape:connector-curvature="0"
         id="path54"
         style="fill:#ec1d24" /><path
         d="m 3186.2,3788.2 h 46 l 44,-167 38,167 h 51 l 42,-167 41,167 h 44 l -59,-254 h -49 l -44,187 -43,-187 h -49 l -62,254"
         inkscape:connector-curvature="0"
         id="path56"
         style="fill:#ffffff" /></g></g></svg>