<?xml version="1.0" encoding="UTF-8" standalone="no"?>
<!-- Created with Inkscape (http://www.inkscape.org/) -->

<svg
   xmlns:dc="http://purl.org/dc/elements/1.1/"
   xmlns:cc="http://creativecommons.org/ns#"
   xmlns:rdf="http://www.w3.org/1999/02/22-rdf-syntax-ns#"
   xmlns:svg="http://www.w3.org/2000/svg"
   xmlns="http://www.w3.org/2000/svg"
   xmlns:inkscape="http://www.inkscape.org/namespaces/inkscape"
   version="1.1"
   width="514.5"
   height="244.62"
   id="svg2"
   xml:space="preserve"><defs
     id="defs30" /><metadata
     id="metadata8"><rdf:RDF><cc:Work
         rdf:about=""><dc:format>image/svg+xml</dc:format><dc:type
           rdf:resource="http://purl.org/dc/dcmitype/StillImage" /></cc:Work></rdf:RDF></metadata><g
     transform="matrix(1.25,0,0,-1.25,-122.78,623.53)"
     id="g10"><g
       transform="scale(0.1,0.1)"
       id="g12"><path
         d="m 5098.2,3275.2 c -0.21,-134.45 -109.35,-243.58 -244,-244 h -3629 c -134.15,0.42 -243.28,109.55 -243,244 v 1469 c -0.285,134.95 108.85,244.08 243,244 h 3629 c 134.65,0.08 243.79,-109.05 244,-244 v -1469"
         inkscape:connector-curvature="0"
         id="path14" /><path
         d="m 4971.2,3275.2 c 0.21,-64.55 -52.25,-117.01 -117,-117 h -3629 c -64.25,-0.01 -116.71,52.45 -117,117 v 1469 c 0.29,65.05 52.75,117.51 117,118 h 3629 c 64.75,-0.49 117.21,-52.95 117,-118 v -1469"
         inkscape:connector-curvature="0"
         id="path16"
         style="fill:#ffffff" /><path
         d="m 1690.2,4422.2 v -86 h -195 v -102 h 232 v -98 h -328 v 477 h 306 v -90 h -210 v -101 h 195"
         inkscape:connector-curvature="0"
         id="path18" /><path
         d="m 1908.2,4319.2 -107,160 h 101 l 56,-84 51,84 h 106 l -104,-160 120,-183 h -103 l -70,105 -68,-105 h -102 l 120,183"
         inkscape:connector-curvature="0"
         id="path20" /><path
         d="m 2171.2,4304.2 c 0.07,107.51 56.3,184.75 167,185 64.79,-0.25 129.16,-42.93 153,-113 l -88,-33 c -11.73,38.02 -34.76,63.09 -70,63 -47.43,0.09 -66.4,-45.98 -66,-102 -0.4,-59.85 17.22,-99.15 67,-99 34.92,-0.15 53.21,18.82 69,62 l 91,-33 c -30.9,-77.25 -77.66,-110.46 -158,-110 -108.7,-0.46 -164.93,70.69 -165,180"
         inkscape:connector-curvature="0"
         id="path22" /><path
         d="m 2792.2,4246.2 55,-60 c -44.28,-40.1 -73.41,-57.04 -136,-57 -106.13,-0.04 -171.17,78.56 -171,184 -0.17,93.09 60.13,175.07 153,175 100.91,0.07 163.25,-75.14 163,-188 v -23 h -226 c 1.98,-39.63 37.89,-68.08 83,-68 26.03,-0.08 40.26,3.98 79,37"
         inkscape:connector-curvature="0"
         id="path24" /><path
         d="m 2630.2,4346.2 h 139 c -2.19,34.34 -36.07,64.83 -70,65 -34.5,-0.17 -63.64,-27.27 -69,-65"
         inkscape:connector-curvature="0"
         id="path26"
         style="fill:#ffffff" /><path
         d="m 3264.2,4305.2 c 0.27,-102.18 -58,-174.68 -147,-175 -46.52,0.32 -53.29,5.06 -95,32 v -127 h -91 v 447 h 91 v -18 c 28.84,23.39 47.13,33.56 86,34 102.74,-0.44 156.27,-77 156,-193"
         inkscape:connector-curvature="0"
         id="path28" /><path
         d="m 3022.2,4278.2 c -0.3,-35.88 39.68,-67.05 76,-67 51.76,-0.05 71.41,40.6 71,100 0.41,65.27 -19.24,103.22 -75,103 -66.2,0.22 -72.3,-58.73 -72,-82 v -54"
         inkscape:connector-curvature="0"
         id="path30"
         style="fill:#ffffff" /><path
         d="m 3369.2,4401.2 h -54 v 78 h 54 v 108 l 94,26 v -134 h 88 v -78 h -86 v -155 c -0.33,-34.37 12.54,-37.76 26,-38 13.64,0.24 23.81,2.95 51,8 l 21,-76 c -42.77,-11.71 -81.39,-15.78 -106,-16 -32.99,0.22 -87.87,17.16 -88,82 v 195"
         inkscape:connector-curvature="0"
         id="path32" /><path
         d="m 3964.2,4481.2 h 67 v -79 h -67 v -264 h -91 v 264 h -54 v 79 h 54 v 42 c -0.16,52.48 33.71,92.46 90,92 22.31,0.46 67.03,-3.61 90,-8 l -16,-76 c -26.62,0.44 -35,0 -35,0 -27.53,0.44 -37.69,0.44 -38,-33 v -17"
         inkscape:connector-curvature="0"
         id="path34" /><path
         d="m 4092.2,4304.2 c -0.02,138.68 81.29,189.5 163,189 73.46,0.5 165.61,-50.32 166,-189 -0.39,-102.54 -67.47,-179.78 -162,-180 -103.32,0.22 -167.02,71.36 -167,180"
         inkscape:connector-curvature="0"
         id="path36" /><path
         d="m 4328.2,4304.2 c -0.22,80.41 -28,105.48 -69,105 -51.15,0.48 -72.16,-41.53 -72,-105 -0.16,-55.79 26.95,-97.79 72,-98 45.06,0.21 68.78,42.21 69,98"
         inkscape:connector-curvature="0"
         id="path38"
         style="fill:#ffffff" /><path
         d="m 4596.2,4446.2 c 20.11,27.17 54.67,40.04 90,40 4.64,0.04 8.71,0.04 17,-1 v -88 c -29.97,-1.75 -39,-2 -39,-2 -38.4,-1.11 -70.25,-28.21 -70,-83 v -176 h -92 v 345 h 92 l 2,-35"
         inkscape:connector-curvature="0"
         id="path40" /><path
         d="m 2095.2,3449.2 c -75.6,0.33 -119.64,42.34 -120,108 0.36,58.33 35.59,119.99 201,120 v 19 c -0.08,20.29 -20.41,33.16 -52,33 -26,0.16 -70.72,-15.42 -103,-35 l -44,67 c 24.11,18.3 83.05,51.5 146,52 95.61,-0.5 145.07,-37.09 145,-103 v -143 c 0.07,-30.95 8.2,-39.75 40,-45 l -32,-72 c -16.06,0 -61.46,6.1 -84,35 -30.99,-28.9 -59.45,-35.67 -97,-36"
         inkscape:connector-curvature="0"
         id="path42" /><path
         d="m 2124.2,3526.2 c 37.69,-0.11 54.63,10.73 55,39 v 44 l -70,-11 c -30.65,-4.35 -36.75,-20.61 -37,-40 0.25,-21.95 13.8,-32.11 52,-32"
         inkscape:connector-curvature="0"
         id="path44"
         style="fill:#ffffff" /><path
         d="m 2346.2,3626.2 c -0.32,107.9 55.92,185.15 166,185 65.41,0.15 129.77,-42.54 153,-112 l -88,-34 c -11.11,38.41 -34.15,63.48 -69,63 -47.81,0.48 -66.79,-45.59 -67,-102 0.21,-59.45 17.83,-98.75 68,-99 34.53,0.25 52.82,19.22 68,63 l 91,-34 c -30.29,-76.86 -77.04,-110.06 -158,-110 -108.08,-0.06 -164.32,71.08 -164,180"
         inkscape:connector-curvature="0"
         id="path46" /><path
         d="m 2714.2,3626.2 c -0.24,107.9 56,185.15 166,185 65.49,0.15 129.86,-42.54 154,-112 l -89,-34 c -11.03,38.41 -34.07,63.48 -69,63 -47.73,0.48 -66.7,-45.59 -67,-102 0.3,-59.45 17.92,-98.75 68,-99 34.61,0.25 52.91,19.22 68,63 l 91,-34 c -30.21,-76.86 -76.96,-110.06 -158,-110 -108,-0.06 -164.24,71.08 -164,180"
         inkscape:connector-curvature="0"
         id="path48" /><path
         d="m 3335.2,3568.2 54,-60 c -43.58,-39.7 -72.72,-56.64 -135,-57 -106.43,0.36 -171.48,78.96 -171,184 -0.48,93.48 59.82,175.47 153,175 100.61,0.47 162.95,-74.74 163,-187 v -24 h -226 c 1.67,-39.23 37.58,-67.69 83,-68 25.73,0.31 39.96,4.38 79,37"
         inkscape:connector-curvature="0"
         id="path50" /><path
         d="m 3173.2,3669.2 h 139 c -2.49,33.73 -36.37,64.23 -70,64 -34.8,0.23 -63.94,-26.87 -69,-64"
         inkscape:connector-curvature="0"
         id="path52"
         style="fill:#ffffff" /><path
         d="m 3596.2,3676.2 56,-8 c 60.79,-8.63 96.7,-50.64 97,-104 -0.3,-69.28 -57.9,-117.38 -140,-117 -71.03,-0.38 -119.14,17.23 -165,63 l 68,59 c 28,-28.2 59.17,-44.46 92,-44 27.48,-0.46 49.16,11.05 49,29 0.16,13.9 -14.07,27.45 -43,33 l -59,11 c -53,10.55 -84.17,50.53 -84,97 -0.17,69.39 53.36,113.44 141,113 48.55,0.44 89.2,-7.7 137,-50 l -59,-62 c -23.36,27.74 -48.43,36.55 -80,37 -26.02,-0.45 -44.31,-15.36 -44,-32 -0.31,-11.82 5.79,-21.98 34,-25"
         inkscape:connector-curvature="0"
         id="path54" /><path
         d="m 3937.2,3676.2 57,-8 c 60.56,-8.63 96.48,-50.64 96,-104 0.48,-69.28 -57.12,-117.38 -139,-117 -71.25,-0.38 -119.36,17.23 -165,63 l 68,59 c 27.79,-28.2 58.95,-44.46 92,-44 27.26,-0.46 48.94,11.05 49,29 -0.06,13.9 -14.29,27.45 -43,33 l -59,11 c -53.22,10.55 -84.39,50.53 -84,97 -0.39,69.39 53.14,113.44 141,113 48.33,0.44 88.98,-7.7 136,-50 l -58,-62 c -23.57,27.74 -48.64,36.55 -80,37 -26.24,-0.45 -44.53,-15.36 -45,-32 0.47,-11.82 6.57,-21.98 34,-25"
         inkscape:connector-curvature="0"
         id="path56" /></g></g></svg>