<?xml version="1.0" encoding="UTF-8" standalone="no"?>
<!-- Created with Inkscape (http://www.inkscape.org/) -->
<svg xmlns:dc="http://purl.org/dc/elements/1.1/" xmlns:cc="http://creativecommons.org/ns#" xmlns:rdf="http://www.w3.org/1999/02/22-rdf-syntax-ns#" xmlns:svg="http://www.w3.org/2000/svg" xmlns="http://www.w3.org/2000/svg" xmlns:sodipodi="http://sodipodi.sourceforge.net/DTD/sodipodi-0.dtd" xmlns:inkscape="http://www.inkscape.org/namespaces/inkscape" width="500.39999" height="539.12158" id="svg2" sodipodi:version="0.32" inkscape:version="0.48.4 r9939" version="1.0" sodipodi:docname="22.svg" inkscape:output_extension="org.inkscape.output.svg.inkscape">
  <defs id="defs4">
    <inkscape:perspective sodipodi:type="inkscape:persp3d" inkscape:vp_x="0 : 300.5 : 1" inkscape:vp_y="0 : 1000 : 0" inkscape:vp_z="601 : 300.5 : 1" inkscape:persp3d-origin="300.5 : 200.33333 : 1" id="perspective3380"/>
    <inkscape:perspective id="perspective3990" inkscape:persp3d-origin="375 : 250 : 1" inkscape:vp_z="750 : 375 : 1" inkscape:vp_y="0 : 1000 : 0" inkscape:vp_x="0 : 375 : 1" sodipodi:type="inkscape:persp3d"/>
  </defs>
  <sodipodi:namedview id="base" pagecolor="#ffffff" bordercolor="#666666" borderopacity="1.0" gridtolerance="10000" guidetolerance="10" objecttolerance="10" inkscape:pageopacity="0.0" inkscape:pageshadow="2" inkscape:zoom="0.41331893" inkscape:cx="82.544784" inkscape:cy="118.23075" inkscape:document-units="px" inkscape:current-layer="layer1" width="601px" height="601px" inkscape:window-width="1280" inkscape:window-height="1001" inkscape:window-x="-8" inkscape:window-y="-8" showgrid="false" fit-margin-top="0.2" fit-margin-left="0.2" fit-margin-right="0.2" fit-margin-bottom="0.2" inkscape:window-maximized="1" showguides="true" inkscape:guide-bbox="true"/>
  <metadata id="metadata7">
    <rdf:RDF>
      <cc:Work rdf:about="">
        <dc:format>image/svg+xml</dc:format>
        <dc:type rdf:resource="http://purl.org/dc/dcmitype/StillImage"/>
        <dc:title/>
      </cc:Work>
    </rdf:RDF>
  </metadata>
  <g inkscape:label="Layer 1" inkscape:groupmode="layer" id="layer1" transform="translate(2446.5467,3729.9649)">
    <rect style="color:#000000;fill:#000000;fill-opacity:1;fill-rule:nonzero;stroke:none;stroke-width:0.8735441;marker:none;visibility:visible;display:inline;overflow:visible" id="rect3653" width="0" height="27.202072" x="578.73834" y="298.1684" rx="249.48199" ry="27.202072"/>
    <path inkscape:connector-curvature="0" d="m -2196.3467,-3729.7649 -212.4102,0 c -20.7617,0 -37.5898,16.814 -37.5898,37.5542 l 0,463.62 c 0,20.7334 16.8281,37.5474 37.5898,37.5474 l 424.8204,0 c 20.7611,0 37.5898,-16.814 37.5898,-37.5474 l 0,-463.62 c 0,-20.7402 -16.8287,-37.5542 -37.5898,-37.5542 l -212.4102,0" style="fill:#000000;fill-opacity:1;fill-rule:evenodd;stroke:none" id="path3437"/>
    <path inkscape:connector-curvature="0" d="m -2196.474,-3710.9205 -212.4102,0 c -10.4125,0 -18.8586,8.4319 -18.8586,18.8371 l 0,463.3654 c 0,10.3984 8.4461,18.8371 18.8586,18.8371 l 424.8203,0 c 10.4126,0 18.8586,-8.4387 18.8586,-18.8371 l 0,-463.3654 c 0,-10.4052 -8.446,-18.8371 -18.8586,-18.8371 l -212.4101,0" style="fill:#ffffff;fill-opacity:1;fill-rule:evenodd;stroke:none" id="path3439"/>
    <path inkscape:connector-curvature="0" d="m -2342.6248,-3365.4392 10.1936,-9.6769 c 12.9941,8.9129 23.697,9.9316 26.505,9.9316 3.5651,0 7.3849,-3.5652 7.3849,-8.149 0,-4.577 -3.3105,-6.8689 -5.6024,-7.3782 -2.2918,-0.7639 -11.9755,-2.8006 -16.0573,-3.5651 -3.8199,-1.0181 -16.8214,-4.5838 -16.8214,-20.1172 0,-15.5271 11.219,-20.8749 23.7044,-20.8749 12.4849,0 21.9144,3.5652 30.0702,10.9502 l -9.6837,9.4148 c -5.1004,-4.0671 -11.7215,-7.1229 -21.4051,-7.1229 -5.6098,0 -6.8831,5.3477 -6.8831,7.1229 0,1.7826 1.528,5.8571 5.1005,6.6211 3.8198,0.7639 13.7581,3.3105 15.0314,3.3105 4.0818,0.5093 17.84,5.857 17.84,20.6202 0,13.242 -8.6651,22.1549 -24.7225,22.1549 -16.3052,0 -29.0521,-7.8943 -34.6545,-13.242" style="fill:#000000;fill-opacity:1;fill-rule:evenodd;stroke:none" id="path3441"/>
    <path inkscape:connector-curvature="0" d="m -2197.62,-3384.0222 20.1319,0 c 0,-4.8384 -3.5652,-9.9315 -9.9389,-9.9315 -6.3732,0 -10.193,4.8384 -10.193,9.9315 z m 0,9.9247 33.1261,0 c 0.7639,-6.359 -1.7826,-31.5703 -23.1878,-31.5703 -18.8585,0 -22.9398,20.1177 -22.9398,26.484 0,6.3596 3.8266,26.9866 24.4678,26.9866 11.7214,0 17.8399,-6.621 19.3679,-8.4036 l -8.1558,-7.8943 c 0,0 -3.5651,4.5838 -11.2121,4.5838 -7.3918,0 -11.4663,-5.3477 -11.4663,-10.1862" style="fill:#000000;fill-opacity:1;fill-rule:evenodd;stroke:none" id="path3443"/>
    <path inkscape:connector-curvature="0" d="m -2142.3175,-3384.0222 20.1319,0 c 0,-4.8384 -3.8272,-9.9315 -10.1936,-9.9315 -6.1185,0 -9.9383,4.8384 -9.9383,9.9315 z m -0.2547,9.9247 33.3807,0 c 0.5093,-6.359 -2.0372,-31.5703 -23.4423,-31.5703 -18.8586,0 -22.9399,20.1177 -22.9399,26.484 0,6.3596 3.8266,26.9866 24.4678,26.9866 11.7215,0 17.84,-6.621 19.6225,-8.4036 l -8.1557,-7.8943 c 0,0 -3.8198,4.5838 -11.2122,4.5838 -7.6464,0 -11.7209,-5.3477 -11.7209,-10.1862" style="fill:#000000;fill-opacity:1;fill-rule:evenodd;stroke:none" id="path3445"/>
    <path inkscape:connector-curvature="0" d="m -2063.318,-3383.0036 c 0,3.3105 0,6.6143 0,9.9248 0,4.0744 -3.5725,10.1861 -11.2122,10.1861 -7.6464,0 -11.9829,-6.3663 -11.9829,-15.7812 0,-9.4228 5.1005,-14.2612 11.7283,-14.2612 6.3663,0 11.4668,3.8198 11.4668,9.9315 z m 0,-17.3165 c 0,-7.6323 0,-15.5266 0,-23.4208 4.3291,0 8.665,0 12.9942,0 0,23.1662 0,46.5949 0,70.0158 -4.3292,0 -8.6651,0 -12.9942,0 0,-0.764 0,-1.5279 0,-2.2919 0,0 -5.3551,4.3291 -13.2562,4.3291 -7.6396,0 -23.1877,-6.3663 -23.1877,-26.986 0,-20.8817 16.0574,-26.4846 22.4237,-26.4846 5.8639,0 8.6651,1.5279 14.0202,4.8384" style="fill:#000000;fill-opacity:1;fill-rule:evenodd;stroke:none" id="path3447"/>
    <path inkscape:connector-curvature="0" d="m -2256.4876,-3384.5315 0,9.1608 c 0,5.0931 3.8198,10.4408 11.4662,10.4408 7.3924,0 11.7215,-7.1303 11.7215,-15.0178 0,-8.149 -4.0745,-14.7694 -11.7215,-14.7694 -7.901,0 -11.4662,5.6018 -11.4662,10.1856 z m 0,-17.3165 0,-2.2913 -13.0015,0 0,64.6675 13.0015,0 0,-18.0731 c 0,0 4.3291,5.0931 13.7581,5.0931 17.84,0 23.1951,-18.8445 23.1951,-26.9866 0,-6.3664 -2.5539,-13.4961 -6.6284,-18.0805 -3.5719,-4.3291 -8.9197,-8.403 -17.076,-8.403 -4.5838,-0.2547 -9.6836,1.7826 -13.2488,4.0739" style="fill:#000000;fill-opacity:1;fill-rule:evenodd;stroke:none" id="path3449"/>
    <path inkscape:connector-curvature="0" d="m -2346.1967,-3290.3303 -11.9762,4.0677 c -1.2732,-3.813 -4.5837,-8.1421 -9.9383,-8.1421 -5.6024,0 -11.9761,5.3477 -11.9761,16.0364 0,10.4403 5.8644,16.0432 11.7215,16.0432 5.8638,0 9.429,-5.6029 10.4476,-8.6588 l 12.7469,2.5466 c -1.5347,6.621 -9.6837,17.5643 -22.6852,17.5643 -12.9948,0 -25.225,-10.6887 -25.225,-27.7505 0,-16.7999 13.2489,-26.986 24.461,-26.986 10.957,0 19.8772,7.3849 22.4238,15.2792" style="fill:#000000;fill-opacity:1;fill-rule:evenodd;stroke:none" id="path3451"/>
    <path inkscape:connector-curvature="0" d="m -2208.5775,-3287.7837 0,34.3642 -13.0015,0 0,-30.8064 c 0,-4.8311 -3.8198,-8.3963 -7.8943,-8.3963 -4.0813,0 -8.665,3.8199 -8.665,9.9242 l 0,29.2785 -13.0016,0 0,-31.0605 c 0,-4.577 -3.8198,-8.1422 -7.3849,-8.1422 -3.5726,0 -9.175,2.8012 -9.175,9.6701 l 0,29.5326 -13.0015,0 0,-50.4075 13.0015,0 0,3.0559 c 0,0 4.5838,-3.8198 13.2494,-3.8198 7.6465,0 12.2302,5.0931 11.9756,5.0931 0,0 5.6097,-5.6024 14.0201,-5.6024 12.9948,0 19.8772,8.9129 19.8772,17.3165" style="fill:#000000;fill-opacity:1;fill-rule:evenodd;stroke:none" id="path3453"/>
    <path inkscape:connector-curvature="0" d="m -2308.7342,-3276.5857 0,9.6769 c 0,3.8192 -7.1304,3.5646 -8.411,3.5646 -1.2733,0 -8.9129,0 -8.9129,-6.1118 0,-6.621 9.4296,-6.8756 17.3239,-7.1297 z m 13.2562,9.4222 0,-26.2226 c 0,-6.8757 -6.3738,-11.9688 -20.3866,-11.9688 -10.9642,0 -18.3492,4.8385 -21.1578,6.3664 l 5.6098,9.9315 c 4.3291,-3.0558 13.5035,-4.8384 17.3306,-4.8384 3.8198,0 5.3478,2.8012 5.3478,4.5838 l 0,2.7938 c -4.3292,0 -15.5413,1.7831 -19.8772,3.3105 -4.0745,1.5279 -10.9575,4.3291 -10.9575,14.5159 0,9.9309 10.1935,16.5452 20.6411,16.5452 8.9203,0 11.7215,-5.3404 11.7215,-5.3404 0,0 4.5906,5.3404 11.9829,5.595 l 5.3478,-10.4335 c -6.1118,-1.0191 -5.6024,-3.3105 -5.6024,-4.8384" style="fill:#000000;fill-opacity:1;fill-rule:evenodd;stroke:none" id="path3455"/>
    <path inkscape:connector-curvature="0" d="m -2068.4185,-3276.5857 0,9.6769 c 0,3.8192 -7.3917,3.5646 -8.665,3.5646 -1.0186,0 -8.9203,0 -8.9203,-6.1118 0,-6.621 9.4296,-6.8756 17.5853,-7.1297 z m 13.2562,9.4222 0,-26.2226 c 0,-6.8757 -6.6278,-11.9688 -20.3865,-11.9688 -10.9643,0 -18.3493,4.8385 -21.1572,6.3664 l 5.6091,9.9315 c 4.3292,-3.0558 13.2494,-4.8384 17.076,-4.8384 3.8199,0 5.6024,2.8012 5.6024,4.5838 l 0,2.7938 c -4.5837,0 -15.5407,1.7831 -19.8772,3.3105 -4.0744,1.5279 -10.9569,4.3291 -10.9569,14.5159 0,9.9309 10.193,16.5452 20.6412,16.5452 8.665,0 11.7209,-5.3404 11.7209,-5.3404 0,0 4.3365,5.3404 11.9829,5.595 l 5.3477,-10.4335 c -6.1117,-1.0191 -5.6024,-3.3105 -5.6024,-4.8384" style="fill:#000000;fill-opacity:1;fill-rule:evenodd;stroke:none" id="path3457"/>
    <path inkscape:connector-curvature="0" d="m -2044.9687,-3261.8163 9.6836,-8.4031 c 3.3105,4.074 11.4668,7.6391 14.7773,7.6391 3.3173,0 6.3732,-2.5465 6.3732,-5.0931 0,-2.546 -1.7826,-3.5651 -3.572,-4.0739 -1.7825,-0.5093 -8.4036,-2.0378 -9.9388,-2.2924 -1.2733,-0.5093 -13.2489,-2.546 -13.2489,-14.7626 0,-12.4781 13.2489,-15.534 21.1505,-15.534 7.9011,0 14.7841,2.2919 20.3865,7.385 l -8.1489,8.9129 c -4.8458,-4.3291 -8.411,-5.857 -12.2376,-5.857 -3.8198,0 -6.8757,1.5279 -6.8757,4.5838 0,3.049 2.2919,3.5578 3.3105,3.8124 1.2733,0.2547 9.6837,2.0372 11.7209,2.5471 1.7826,0.5093 11.7215,3.3105 11.7215,15.0241 0,11.7073 -10.7028,16.2911 -21.1505,16.2911 -10.4482,0 -20.6411,-5.6024 -23.9516,-10.1794" style="fill:#000000;fill-opacity:1;fill-rule:evenodd;stroke:none" id="path3459"/>
    <path inkscape:connector-curvature="0" d="m -2183.0979,-3283.9713 20.1319,0 c 0,-4.5764 -3.5652,-9.9241 -9.9383,-9.9241 -6.3664,0 -10.1936,5.0931 -10.1936,9.9241 z m 0,10.1862 33.1334,0 c 0.5093,-6.3663 -1.7826,-31.5698 -23.1945,-31.5698 -18.8586,0 -22.933,20.1104 -22.933,26.4767 0,6.3664 3.8198,26.9866 24.2131,26.9866 11.9761,0 18.0878,-6.8689 19.6225,-8.6509 l -8.1557,-7.8948 c 0,0 -3.5725,4.8384 -11.2122,4.8384 -7.3917,0 -11.4736,-5.3477 -11.4736,-10.1862" style="fill:#000000;fill-opacity:1;fill-rule:evenodd;stroke:none" id="path3461"/>
    <path inkscape:connector-curvature="0" d="m -2108.4275,-3292.3675 0,-12.4781 c -12.2302,-0.2546 -14.0128,3.0559 -17.076,6.1117 l 0,-5.0931 -13.2488,0 0,50.1528 13.2488,0 0,-24.9493 c 0,-7.3844 8.1563,-13.744 17.076,-13.744" style="fill:#000000;fill-opacity:1;fill-rule:evenodd;stroke:none" id="path3463"/>
    <path inkscape:connector-curvature="0" d="m -2243.4934,-3679.6054 -53.3852,0 c -13.8646,0 -25.105,11.2264 -25.105,25.0767 l 0,150.2105 c 0,13.8504 11.2404,25.0767 25.105,25.0767 l 106.7777,0 c 13.8578,0 25.0976,-11.2263 25.0976,-25.0767 l 0,-150.2105 c 0,-13.8503 -11.2398,-25.0767 -25.0976,-25.0767 l -53.3925,0 z m -15.5481,96.9951 0,0 c 22.5086,0 40.7804,18.2508 40.7804,40.738 0,22.4871 -18.2718,40.7373 -40.7804,40.7373 -22.5013,0 -40.773,-18.2502 -40.773,-40.7373 0,-22.4872 18.2717,-40.738 40.773,-40.738 z m -0.2547,11.9688 0,0 c 15.7603,0 28.5428,12.8883 28.5428,28.7692 0,15.8802 -12.7825,28.7686 -28.5428,28.7686 -15.7529,0 -28.5354,-12.8884 -28.5354,-28.7686 0,-15.8809 12.7825,-28.7692 28.5354,-28.7692 z m 50.2094,-95.474 0,0 c 13.2211,0 23.9517,10.7238 23.9517,23.9308 0,13.2137 -10.7306,23.9375 -23.9517,23.9375 -13.2279,0 -23.9584,-10.7238 -23.9584,-23.9375 0,-13.207 10.7305,-23.9308 23.9584,-23.9308 z m 0,11.4595 0,0 c 6.8898,0 12.4854,5.5883 12.4854,12.4713 0,6.8892 -5.5956,12.4775 -12.4854,12.4775 -6.8966,0 -12.4922,-5.5883 -12.4922,-12.4775 0,-6.883 5.5956,-12.4713 12.4922,-12.4713 z m 54.0224,122.2059 9.9383,0 0,-113.8023 -9.9383,0 0,113.8023 z m 20.1319,-106.4241 9.9383,0 0,106.4167 -9.9383,0 0,-106.4167 z m 19.8772,115.8389 0,-100.3055 10.4476,0 0,18.8376 33.6427,0 0,62.6309 -33.6427,0 0,31.3151 -50.4567,0 0,-12.4781 40.0091,0" style="fill:#000000;fill-opacity:1;fill-rule:evenodd;stroke:none" id="path3465"/>
  </g>
</svg>