<?xml version="1.0" encoding="UTF-8" standalone="no"?>
<!-- Created with Inkscape (http://www.inkscape.org/) -->

<svg
   xmlns:dc="http://purl.org/dc/elements/1.1/"
   xmlns:cc="http://creativecommons.org/ns#"
   xmlns:rdf="http://www.w3.org/1999/02/22-rdf-syntax-ns#"
   xmlns:svg="http://www.w3.org/2000/svg"
   xmlns="http://www.w3.org/2000/svg"
   xmlns:inkscape="http://www.inkscape.org/namespaces/inkscape"
   version="1.1"
   width="366.45001"
   height="212.7"
   id="svg2"
   xml:space="preserve"><defs
     id="defs14" /><metadata
     id="metadata8"><rdf:RDF><cc:Work
         rdf:about=""><dc:format>image/svg+xml</dc:format><dc:type
           rdf:resource="http://purl.org/dc/dcmitype/StillImage" /></cc:Work></rdf:RDF></metadata><g
     transform="matrix(1.25,0,0,-1.25,-1.7625,213.86)"
     id="g10"><path
       d="M 294.57,33.45 C 294.59,15.457 280.04,0.906 262.05,0.93 H 33.93 C 15.957,0.90618 1.406,15.457 1.41,33.45 v 105.12 c -0.0039,17.973 14.547,32.524 32.52,32.52 h 228.12 c 17.993,0.004 32.544,-14.547 32.52,-32.52 V 33.45"
       inkscape:connector-curvature="0"
       id="path12" /><path
       d="M 277.77,33.45 C 277.717,24.778 270.722,17.783 262.05,17.73 H 33.93 c -8.652,0.053 -15.647,7.048 -15.6,15.72 v 105.12 c -0.047,8.652 6.948,15.647 15.6,15.6 h 228.12 c 8.672,0.047 15.667,-6.948 15.72,-15.6 V 33.45"
       inkscape:connector-curvature="0"
       id="path14"
       style="fill:#ffffff" /><path
       d="m 82.41,55.41 c -17.215,-0.04 -30.858,13.783 -30.84,33 -0.018,19.813 12.631,33.366 30.84,33.36 18.653,0.006 30.759,-14.269 30.72,-33.48 0.039,-19.458 -12.609,-32.92 -30.72,-32.88"
       inkscape:connector-curvature="0"
       id="path16" /><path
       d="m 82.41,67.65 c 10.883,0.008 16.575,8.139 16.56,20.76 0.015,12.766 -5.587,20.898 -16.56,20.88 -11.342,0.018 -16.402,-7.933 -16.44,-20.88 0.038,-12.802 5.188,-20.752 16.44,-20.76"
       inkscape:connector-curvature="0"
       id="path18"
       style="fill:#ffffff" /><path
       d="m 141.57,102.81 c 1.843,0.896 4.101,1.167 6.24,1.2 9.968,-0.033 17.467,-7.712 17.52,-16.92 V 56.85 h -12.12 v 26.28 c 0.051,5.127 -2.479,9.283 -7.44,9.24 -5.881,0.043 -9.675,-3.391 -9.72,-8.04 V 56.85 h -12.12 v 45.84 h 12.48 v -3.36 c 2.395,2.027 3.118,2.75 5.16,3.48"
       inkscape:connector-curvature="0"
       id="path20" /><path
       d="m 178.29,120.93 h 12.12 V 74.01 c 0.018,-4.907 0.831,-6.082 3.48,-6.24 1.507,-0.112 2.772,-0.022 4.44,0.48 l 1.2,-10.68 c -4.224,-1.116 -8.289,-1.838 -11.16,-1.8 -3.002,-0.038 -10.049,0.955 -10.08,11.64 v 53.52"
       inkscape:connector-curvature="0"
       id="path22" /><path
       d="m 229.41,50.73 c -1.586,-4.665 -4.477,-9.002 -10.68,-9 0,0 -3.193,-0.002 -12.48,1.2 l 1.2,10.68 c 1.311,-0.318 4.473,-0.589 6.48,-0.6 2.149,0.011 4.227,1.186 4.2,3.72 0.027,0.809 0.118,1.893 -0.36,3.12 l -14.88,42.24 h 12 l 10.08,-27.36 9.72,27.36 h 12.24 L 229.41,50.73"
       inkscape:connector-curvature="0"
       id="path24" /></g></svg>