<?xml version="1.0" encoding="UTF-8" standalone="no"?>
<!-- Created with Inkscape (http://www.inkscape.org/) -->

<svg
   xmlns:dc="http://purl.org/dc/elements/1.1/"
   xmlns:cc="http://creativecommons.org/ns#"
   xmlns:rdf="http://www.w3.org/1999/02/22-rdf-syntax-ns#"
   xmlns:svg="http://www.w3.org/2000/svg"
   xmlns="http://www.w3.org/2000/svg"
   xmlns:inkscape="http://www.inkscape.org/namespaces/inkscape"
   version="1.1"
   width="405.89999"
   height="529.01001"
   id="svg2"
   xml:space="preserve"><metadata
     id="metadata8"><rdf:RDF><cc:Work
         rdf:about=""><dc:format>image/svg+xml</dc:format><dc:type
           rdf:resource="http://purl.org/dc/dcmitype/StillImage" /></cc:Work></rdf:RDF></metadata><defs
     id="defs6"><clipPath
       id="clipPath16"><path
         d="M 0,423.21 H 324.72 V 0 H 0 v 423.21 z"
         inkscape:connector-curvature="0"
         id="path18" /></clipPath></defs><g
     transform="matrix(1.25,0,0,-1.25,0,529.01)"
     id="g10"><g
       id="g12"><g
         clip-path="url(#clipPath16)"
         id="g14"><g
           transform="translate(162.36,423.21)"
           id="g20"><path
             d="m 0,0 h -149.61 c -7.045,0 -12.752,-5.703 -12.752,-12.746 v -397.72 c 0,-7.039 5.707,-12.746 12.752,-12.746 h 299.22 c 7.043,0 12.75,5.707 12.75,12.746 v 397.72 c 0,7.047 -5.7,12.75 -12.75,12.75 H 0"
             inkscape:connector-curvature="0"
             id="path22"
             style="fill:#231f20;fill-rule:evenodd" /></g></g></g><g
       transform="translate(162.36,416.87)"
       id="g24"><path
         d="m 0,0 h -149.61 c -3.541,0 -6.412,-2.871 -6.412,-6.41 v -397.72 c 0,-3.539 2.871,-6.406 6.412,-6.406 h 299.22 c 3.539,0 6.41,2.867 6.41,6.406 V -6.41 c 0,3.539 -2.871,6.41 -6.41,6.41 H 0"
         inkscape:connector-curvature="0"
         id="path26"
         style="fill:#ffffff;fill-rule:evenodd" /></g><g
       transform="translate(119.86,400.16)"
       id="g28"><path
         d="M 0,0 C 0,3.336 2.713,6.047 6.053,6.047 H 78.95 C 82.262,6.047 85,3.313 85,0 v -72.887 c 0,-3.461 -2.738,-6.199 -6.05,-6.199 H 6.053 C 2.737,-79.086 0,-76.348 0,-72.887 V 0"
         inkscape:connector-curvature="0"
         id="path30"
         style="fill:#0079c1;fill-rule:evenodd" /></g><g
       transform="translate(170.86,384.6)"
       id="g32"><path
         d="M 0,0 H -15.127 V -18.437 H 0 c 3.446,0.078 6.2,2.96 6.2,6.48 L 6.485,-6.48 C 6.485,-2.906 3.582,0 0,0 M -28.523,10.371 H 6.34 c 7.399,0 13.399,-6.066 13.399,-13.539 v -12.246 c 0,-7.422 -5.914,-13.461 -13.258,-13.539 h 0.004 -21.612 l 0.143,-7.059 v -18.293 h -13.539 v 64.676 -39.324"
         inkscape:connector-curvature="0"
         id="path34"
         style="fill:#ffffff;fill-rule:evenodd" /></g><g
       transform="translate(158.98,248.63)"
       id="g36"><path
         d="M 0,0 V 3.598"
         inkscape:connector-curvature="0"
         id="path38"
         style="fill:none;stroke:#231f20;stroke-width:7.34800005;stroke-miterlimit:10" /></g><g
       transform="translate(264.08,250.78)"
       id="g40"><path
         d="m 0,0 v -3.168 c 0,-1.73 1.293,-3.457 3.883,-3.457 2.594,0 4.039,2.305 4.039,5.039 0,2.742 -1.445,5.043 -4.039,5.043 C 1.293,3.457 0,1.586 0,0 M 0,5.762 V 6.625 H -4.328 V -15.414 H 0 v 6.195 c 0,0 1.582,-1.726 4.75,-1.726 5.906,0 7.781,6.48 7.781,9.215 0,2.16 -0.867,4.613 -2.164,6.054 C 9.074,5.762 7.195,7.203 4.606,7.203 3.024,7.203 1.293,6.625 0,5.762"
         inkscape:connector-curvature="0"
         id="path42"
         style="fill:#231f20;fill-rule:evenodd" /></g><g
       transform="translate(199.09,244.41)"
       id="g44"><path
         d="m 0,0 c 1.351,0 2.449,-1.094 2.449,-2.445 0,-1.352 -1.098,-2.449 -2.449,-2.449 -1.352,0 -2.446,1.097 -2.446,2.449 C -2.446,-1.094 -1.352,0 0,0"
         inkscape:connector-curvature="0"
         id="path46"
         style="fill:#231f20;fill-rule:evenodd" /></g><g
       transform="translate(220.42,252.52)"
       id="g48"><path
         d="m 0,0 c 0.289,0 2.883,1.007 2.883,4.753 0,3.743 -3.313,6.915 -8.934,6.915 -5.473,0 -8.785,-2.594 -9.219,-7.204 l 5.039,-0.578 c 0.289,2.305 1.442,3.602 4.614,3.602 3.023,0 3.453,-2.16 3.453,-3.024 0,-2.015 -1.297,-2.878 -5.328,-2.878 v -3.895 c 1.156,-0.145 3.601,-0.145 4.32,-0.574 1.297,-0.864 1.297,-1.586 1.297,-2.449 0,-0.434 0,-3.313 -3.602,-3.313 -3.597,0 -4.465,2.016 -4.754,3.891 l -5.039,-1.012 c 0.575,-4.031 3.457,-7.199 9.653,-7.199 6.34,0 8.929,4.176 8.929,7.488 C 3.312,-2.309 1.297,-0.289 0,0"
         inkscape:connector-curvature="0"
         id="path50"
         style="fill:#231f20;fill-rule:evenodd" /></g><g
       transform="translate(186.86,248.34)"
       id="g52"><path
         d="M 0,0 C 0,2.16 -1.73,4.18 -3.894,4.18 -6.05,4.18 -7.777,2.16 -7.777,0 c 0,-2.16 1.582,-4.176 3.883,-4.176 C -2.449,-4.176 0,-3.024 0,0 m -0.285,9.652 c 1.438,0.574 2.875,1.153 4.317,1.727 -0.864,2.304 -2.449,4.758 -7.926,4.758 -5.328,0 -9.359,-3.895 -9.359,-12.246 0,-4.465 1.726,-7.633 3.023,-9.364 1.156,-1.726 4.035,-2.879 6.625,-2.879 2.742,0 8.359,1.442 8.359,8.496 0,6.914 -5.328,8.211 -7.781,8.211 -2.305,0 -4.32,-1.152 -5.039,-1.726 -0.144,3.742 2.445,5.183 4.172,5.183 1.734,0 2.742,-0.578 3.609,-2.16"
         inkscape:connector-curvature="0"
         id="path54"
         style="fill:#231f20;fill-rule:evenodd" /></g><g
       transform="translate(239.01,259.72)"
       id="g56"><path
         d="M 0,0 C 2.594,0 5.039,-1.438 5.183,-7.633 5.328,-13.828 2.879,-15.699 0,-15.699 c -2.742,0 -5.188,1.871 -5.047,8.066 C -5.047,-1.438 -2.453,0 0,0 M 0,4.469 C 3.453,4.613 10.086,2.594 10.086,-7.774 10.086,-18.149 3.89,-20.164 0,-20.164 c -3.75,0 -9.938,2.015 -9.938,12.39 0,10.368 6.621,12.387 9.938,12.243"
         inkscape:connector-curvature="0"
         id="path58"
         style="fill:#231f20;fill-rule:evenodd" /></g><g
       transform="translate(304.84,251.94)"
       id="g60"><path
         d="m 0,0 v -11.668 h -4.321 v 10.512 c 0,1.586 -1.296,2.738 -2.734,2.738 -1.301,0 -2.883,-1.152 -2.883,-3.316 v -9.934 h -4.468 v 10.512 c 0,1.586 -1.293,2.738 -2.45,2.738 -1.297,0 -3.168,-0.863 -3.168,-3.316 v -9.934 h -4.465 V 5.469 h 4.465 V 4.461 c 0,0 1.586,1.153 4.469,1.153 2.59,0 4.172,-1.727 4.172,-1.727 -0.141,0 1.73,1.871 4.617,1.871 C -2.305,5.758 0,2.735 0,0"
         inkscape:connector-curvature="0"
         id="path62"
         style="fill:#231f20;fill-rule:evenodd" /></g><g
       transform="translate(110.5,248.05)"
       id="g64"><path
         d="m 0,0 v -3.313 c 0,-1.152 -2.592,-1.152 -2.881,-1.152 -0.431,0 -3.172,0 -3.172,2.02 C -6.053,-0.145 -2.736,0 0,0 m 4.467,-3.168 v 8.933 c 0,2.305 -2.307,4.032 -6.916,4.032 -3.748,0 -6.34,-1.582 -7.203,-2.16 L -7.781,4.324 C -6.34,5.332 -3.168,5.91 -1.873,5.91 -0.576,5.91 0,4.902 0,4.469 V 3.461 c -1.584,0 -5.332,-0.723 -6.771,-1.156 -1.442,-0.434 -3.745,-1.442 -3.745,-4.895 0,-3.313 3.455,-5.617 6.916,-5.617 3.024,0 4.032,1.726 4.032,1.726 0,0 1.584,-1.726 4.179,-1.871 L 6.34,-4.75 c -2.016,0.285 -1.873,1.008 -1.873,1.582"
         inkscape:connector-curvature="0"
         id="path66"
         style="fill:#231f20;fill-rule:evenodd" /></g><g
       transform="translate(144.21,251.94)"
       id="g68"><path
         d="m 0,0 v -11.668 h -4.324 v 10.512 c 0,1.586 -1.295,2.738 -2.735,2.738 -1.297,0 -2.881,-1.152 -2.881,-3.316 v -9.934 h -4.468 v 10.512 c 0,1.586 -1.295,2.738 -2.592,2.738 -1.15,0 -3.023,-0.863 -3.023,-3.316 v -9.934 h -4.469 V 5.469 h 4.469 V 4.461 c 0,0 1.583,1.153 4.464,1.153 2.592,0 4.18,-1.727 4.18,-1.727 -0.144,0 1.729,1.871 4.607,1.871 C -2.303,5.758 0,2.735 0,0"
         inkscape:connector-curvature="0"
         id="path70"
         style="fill:#231f20;fill-rule:evenodd" /></g><g
       transform="translate(25.5,259.86)"
       id="g72"><path
         d="M 0,0 H 3.604 L -4.32,-19.586 H 0.719 L 8.644,-0.144 V 4.325 H -7.924 V 0 H 0"
         inkscape:connector-curvature="0"
         id="path74"
         style="fill:#231f20;fill-rule:evenodd" /></g><g
       transform="translate(40.336,244.41)"
       id="g76"><path
         d="m 0,0 c 1.352,0 2.447,-1.094 2.447,-2.445 0,-1.352 -1.095,-2.449 -2.447,-2.449 -1.351,0 -2.449,1.097 -2.449,2.449 C -2.449,-1.094 -1.351,0 0,0"
         inkscape:connector-curvature="0"
         id="path78"
         style="fill:#231f20;fill-rule:evenodd" /></g><g
       transform="translate(61.66,252.52)"
       id="g80"><path
         d="m 0,0 c 0.142,0 2.74,1.007 2.74,4.753 0,3.743 -3.316,6.915 -8.789,6.915 -5.476,0 -8.787,-2.594 -9.219,-7.204 l 5.039,-0.578 c 0.288,2.305 1.44,3.602 4.612,3.602 3.025,0 3.457,-2.16 3.457,-3.024 C -2.305,2.449 -3.457,1.586 -7.488,1.586 v -3.895 c 1.152,-0.145 3.599,-0.145 4.32,-0.574 1.295,-0.864 1.295,-1.586 1.295,-2.449 0,-0.434 -0.143,-3.313 -3.6,-3.313 -3.603,0 -4.468,2.016 -4.756,3.891 l -5.039,-1.012 c 0.575,-4.031 3.456,-7.199 9.651,-7.199 6.193,0 8.789,4.176 8.789,7.488 C 3.172,-2.309 1.156,-0.289 0,0"
         inkscape:connector-curvature="0"
         id="path82"
         style="fill:#231f20;fill-rule:evenodd" /></g><g
       transform="translate(80.248,259.72)"
       id="g84"><path
         d="m 0,0 c 2.592,0 5.039,-1.438 5.184,-7.633 0,-6.195 -2.305,-8.066 -5.184,-8.066 -2.885,0 -5.188,1.871 -5.045,8.066 C -5.045,-1.438 -2.453,0 0,0 m 0,4.469 c 3.455,0.144 10.084,-1.875 10.084,-12.243 0,-10.375 -6.34,-12.39 -10.084,-12.39 -3.748,0 -9.945,2.015 -9.945,12.39 0,10.368 6.629,12.387 9.945,12.243"
         inkscape:connector-curvature="0"
         id="path86"
         style="fill:#231f20;fill-rule:evenodd" /></g><g
       transform="translate(112.95,288.82)"
       id="g88"><path
         d="M 0,0 V -10.226 H -4.752 V 7.2 L -11.955,-2.882 -19.302,7.2 v -17.426 h -4.465 v 23.765 h 5.76 l 6.052,-8.5 5.908,8.5 H 0 V 0"
         inkscape:connector-curvature="0"
         id="path90"
         style="fill:#231f20;fill-rule:evenodd" /></g><g
       transform="translate(183.4,282.48)"
       id="g92"><path
         d="M 0,0 3.457,3.312 C 7.922,0.289 11.524,0 12.391,0 c 1.297,0 2.59,1.152 2.59,2.734 0,1.441 -1.152,2.305 -1.871,2.594 C 12.247,5.472 8.93,6.195 7.633,6.484 6.336,6.769 1.875,7.921 1.875,13.25 c 0,5.332 3.743,7.207 8.067,7.207 4.176,0 7.488,-1.297 10.23,-3.75 l -3.32,-3.313 c -1.727,1.441 -4.031,2.449 -7.203,2.449 -2.016,0 -2.445,-1.726 -2.445,-2.449 0,-0.574 0.574,-1.871 1.871,-2.16 1.152,-0.285 4.465,-1.152 5.043,-1.152 1.437,-0.286 6.054,-2.016 6.054,-7.059 0,-4.465 -2.886,-7.488 -8.5,-7.488 C 6.196,-4.465 1.875,-1.731 0,0"
         inkscape:connector-curvature="0"
         id="path94"
         style="fill:#231f20;fill-rule:evenodd" /></g><g
       transform="translate(217.97,286.36)"
       id="g96"><path
         d="m 0,0 v -3.312 c 0,-1.297 -2.594,-1.153 -3.028,-1.153 -0.285,0 -3.023,0 -3.023,2.016 0,2.305 3.312,2.305 6.051,2.449 m 4.465,-3.168 v 8.934 c 0,2.305 -2.305,4.031 -7.059,4.031 -3.598,0 -6.195,-1.726 -7.059,-2.16 L -7.782,4.324 C -6.34,5.332 -3.168,5.91 -1.871,5.91 -0.575,5.91 0,4.903 0,4.324 V 3.461 c -1.586,0 -5.328,-0.719 -6.77,-1.152 -1.445,-0.578 -3.75,-1.59 -3.75,-4.899 0,-3.457 3.461,-5.617 6.918,-5.617 3.027,0 4.035,1.727 4.035,1.727 0,0 1.442,-1.871 4.032,-1.871 l 1.875,3.457 c -2.161,0.429 -1.875,1.152 -1.875,1.726"
         inkscape:connector-curvature="0"
         id="path98"
         style="fill:#231f20;fill-rule:evenodd" /></g><g
       transform="translate(154.01,289.68)"
       id="g100"><path
         d="m 0,0 v -11.09 h -4.469 v 10.656 c 0,1.297 -1.008,2.594 -2.879,2.594 -1.873,0 -3.599,-1.586 -3.599,-3.891 v -9.359 h -4.469 V 5.902 h 4.469 V 4.609 c 0,0 1.871,1.727 4.318,1.727 C -2.737,6.336 0,3.168 0,0"
         inkscape:connector-curvature="0"
         id="path102"
         style="fill:#231f20;fill-rule:evenodd" /></g><g
       transform="translate(126.35,292.41)"
       id="g104"><path
         d="m 0,0 c -1.871,0 -3.893,-1.727 -3.893,-5.473 0,-3.746 2.022,-5.472 3.893,-5.472 1.871,0 3.888,1.726 3.888,5.472 C 3.888,-1.727 1.871,0 0,0 m 0,3.891 c -4.18,0 -8.356,-3.457 -8.356,-9.364 0,-5.906 4.176,-9.363 8.356,-9.363 4.175,0 8.355,3.457 8.355,9.363 0,5.907 -4.18,9.364 -8.355,9.364"
         inkscape:connector-curvature="0"
         id="path106"
         style="fill:#231f20;fill-rule:evenodd" /></g><g
       transform="translate(238.29,279.02)"
       id="g108"><path
         d="M 0,0 -0.719,3.747 C -3.891,2.735 -4.758,3.602 -4.758,4.321 v 8.5 h 4.469 v 3.742 h -4.469 v 6.773 L -9.219,22.04 v -5.477 h -2.742 v -3.742 h 2.742 V 2.879 c 0,-2.16 1.438,-3.886 4.75,-3.886 2.305,0 4.035,0.718 4.469,1.007"
         inkscape:connector-curvature="0"
         id="path110"
         style="fill:#231f20;fill-rule:evenodd" /></g><g
       transform="translate(168.56,286.94)"
       id="g112"><path
         d="M 0,0 V 3.598"
         inkscape:connector-curvature="0"
         id="path114"
         style="fill:none;stroke:#231f20;stroke-width:7.4920001;stroke-miterlimit:10" /></g><g
       transform="translate(32.992,206.71)"
       id="g116"><path
         d="m 0,0 h -4.609 v -6.914 h 4.465 c 2.16,0 3.748,1.871 3.748,3.601 C 3.604,-1.727 2.16,0 0,0 M 1.727,4.32 H -9.365 v -23.91 h 4.756 v 8.5 h 5.328 c 5.045,0 7.637,3.742 7.637,7.777 0,4.036 -2.737,7.633 -6.629,7.633"
         inkscape:connector-curvature="0"
         id="path118"
         style="fill:#231f20;fill-rule:evenodd" /></g><g
       transform="translate(48.408,197.49)"
       id="g120"><path
         d="M 0,0 H 6.772 C 6.772,1.582 5.475,3.313 3.311,3.313 1.295,3.313 0,1.582 0,0 m 0,-3.457 h 11.236 c 0.143,2.16 -0.72,10.66 -7.925,10.66 -6.336,0 -7.78,-6.773 -7.78,-8.929 0,-2.16 1.301,-9.223 8.213,-9.223 4.035,0 6.051,2.305 6.627,2.879 l -2.736,2.742 c 0,0 -1.295,-1.586 -3.748,-1.586 C 1.295,-6.914 0,-5.183 0,-3.457"
         inkscape:connector-curvature="0"
         id="path122"
         style="fill:#231f20;fill-rule:evenodd" /></g><g
       transform="translate(109.64,187.12)"
       id="g124"><path
         d="M 0,0 V 16.996"
         inkscape:connector-curvature="0"
         id="path126"
         style="fill:none;stroke:#231f20;stroke-width:4.32399988;stroke-miterlimit:10" /></g><g
       transform="translate(109.46,210.93)"
       id="g128"><path
         d="m 0,0 c 1.354,0 2.449,-1.098 2.449,-2.45 0,-1.351 -1.095,-2.449 -2.449,-2.449 -1.351,0 -2.447,1.098 -2.447,2.449 C -2.447,-1.098 -1.351,0 0,0"
         inkscape:connector-curvature="0"
         id="path130"
         style="fill:#231f20;fill-rule:evenodd" /></g><g
       transform="translate(102.29,198.78)"
       id="g132"><path
         d="m 0,0 v -11.668 h -4.32 v 10.516 c 0,1.582 -1.299,2.734 -2.739,2.734 -1.296,0 -2.88,-1.152 -2.88,-3.312 v -9.938 h -4.469 v 10.516 c 0,1.582 -1.295,2.734 -2.447,2.734 -1.297,0 -3.168,-1.008 -3.168,-3.312 v -9.938 h -4.325 V 5.477 h 4.325 V 4.465 c 0,0 1.584,1.152 4.464,1.152 2.596,0 4.18,-1.726 4.18,-1.726 -0.144,0 1.727,1.871 4.608,1.871 C -2.303,5.762 0,2.734 0,0"
         inkscape:connector-curvature="0"
         id="path134"
         style="fill:#231f20;fill-rule:evenodd" /></g><g
       transform="translate(73.619,200.37)"
       id="g136"><path
         d="m 0,0 v 4.18 c -4.035,0 -4.756,-1.008 -5.764,-2.016 v 1.731 h -4.463 V -13.25 h 4.463 v 8.5 C -5.764,-2.16 -3.027,0 0,0"
         inkscape:connector-curvature="0"
         id="path138"
         style="fill:#231f20;fill-rule:evenodd" /></g><g
       transform="translate(127.64,187.55)"
       id="g140"><path
         d="M 0,0 -0.721,3.75 C -3.889,2.742 -4.758,3.605 -4.758,4.324 v 8.496 h 4.468 v 3.895 h -4.468 v 6.765 l -4.319,-1.297 v -5.468 h -2.736 V 12.82 h 2.736 V 2.887 c 0,-2.165 1.295,-3.895 4.608,-3.895 2.308,0 4.035,0.863 4.469,1.008"
         inkscape:connector-curvature="0"
         id="path142"
         style="fill:#231f20;fill-rule:evenodd" /></g><g
       transform="translate(203.86,197.06)"
       id="g144"><path
         d="m 0,0 v -3.453 c 0,-1.297 -1.152,-3.313 -3.746,-3.313 -2.593,0 -4.031,2.016 -4.031,5.328 0,3.168 1.727,4.75 3.883,4.75 C -1.73,3.312 0,2.015 0,0 m 0,5.91 v 7.918 H 4.465 V -9.938 H 0 v 0.719 c 0,0 -1.73,-1.442 -4.468,-1.442 -2.59,0 -7.926,2.161 -7.926,9.223 0,7.059 5.625,8.93 7.641,8.93 2.015,0 3.023,-0.43 4.753,-1.582"
         inkscape:connector-curvature="0"
         id="path146"
         style="fill:#231f20;fill-rule:evenodd" /></g><g
       transform="translate(146.08,203.25)"
       id="g148"><path
         d="m 0,0 v 7.633 h -4.32 v -23.91 H 0 v 10.226 c 0,1.586 1.584,3.024 3.168,3.024 1.443,0 3.172,-1.008 3.172,-3.024 v -10.226 h 4.463 v 11.812 c 0,3.317 -3.024,5.617 -6.192,5.617 C 1.729,1.152 0.719,0.289 0,0"
         inkscape:connector-curvature="0"
         id="path150"
         style="fill:#231f20;fill-rule:evenodd" /></g><g
       transform="translate(189.44,187.12)"
       id="g152"><path
         d="m 0,0 -0.429,3.891 c -2.016,-0.434 -3.168,0 -3.168,0.863 V 23.766 H -7.922 V 3.027 c 0,-1.734 1.153,-3.605 4.469,-3.605 C -1.726,-0.578 0,0 0,0"
         inkscape:connector-curvature="0"
         id="path154"
         style="fill:#231f20;fill-rule:evenodd" /></g><g
       transform="translate(169.28,200.94)"
       id="g156"><path
         d="m 0,0 c -1.875,0 -4.039,-1.73 -4.039,-5.472 0,-3.746 2.164,-5.329 4.039,-5.329 1.727,0 3.887,1.583 3.887,5.329 C 3.887,-1.73 1.727,0 0,0 m 0,3.891 c -4.179,0 -8.357,-3.461 -8.357,-9.363 0,-5.762 4.029,-9.223 8.357,-9.223 4.172,0 8.211,3.461 8.211,9.223 C 8.211,0.43 4.032,3.891 0,3.891"
         inkscape:connector-curvature="0"
         id="path158"
         style="fill:#231f20;fill-rule:evenodd" /></g><g
       transform="translate(243.91,189.86)"
       id="g160"><path
         d="m 0,0 3.313,2.879 c 1.152,-1.293 3.89,-2.59 5.039,-2.59 1.156,0 2.164,0.864 2.164,1.727 0,0.863 -0.578,1.297 -1.156,1.441 -0.719,0.145 -2.879,0.719 -3.313,0.864 -0.574,0 -4.605,0.718 -4.605,4.894 0,4.18 4.465,5.332 7.199,5.332 2.598,0 5.047,-0.863 6.914,-2.59 L 12.68,9.075 c -1.586,1.293 -2.742,1.871 -4.039,1.871 -1.297,0 -2.305,-0.578 -2.305,-1.586 0,-1.008 0.719,-1.153 1.156,-1.153 0.286,-0.144 3.172,-0.718 3.891,-0.863 0.719,-0.289 4.031,-1.297 4.031,-5.183 0,-3.891 -3.742,-5.477 -7.203,-5.477 C 4.754,-3.316 1.149,-1.445 0,0"
         inkscape:connector-curvature="0"
         id="path162"
         style="fill:#231f20;fill-rule:evenodd" /></g><g
       transform="translate(215.95,197.49)"
       id="g164"><path
         d="M 0,0 H 6.774 C 6.774,1.582 5.625,3.313 3.461,3.313 1.297,3.313 0,1.582 0,0 m 0,-3.457 h 11.238 c 0.145,2.16 -0.574,10.66 -7.918,10.66 -6.343,0 -7.781,-6.773 -7.781,-8.929 0,-2.16 1.297,-9.223 8.356,-9.223 3.886,0 6.05,2.305 6.625,2.879 l -2.739,2.742 c 0,0 -1.296,-1.586 -3.886,-1.586 C 1.445,-6.914 0,-5.183 0,-3.457"
         inkscape:connector-curvature="0"
         id="path166"
         style="fill:#231f20;fill-rule:evenodd" /></g><g
       transform="translate(241.31,200.37)"
       id="g168"><path
         d="m 0,0 v 4.18 c -4.18,0 -4.758,-1.008 -5.766,-2.016 v 1.731 h -4.461 V -13.25 h 4.461 v 8.5 C -5.766,-2.16 -3.024,0 0,0"
         inkscape:connector-curvature="0"
         id="path170"
         style="fill:#231f20;fill-rule:evenodd" /></g><g
       transform="translate(275.31,219.1)"
       id="g172"><path
         d="m 0,0 c -2.45,0 -4.325,-2.02 -4.325,-4.321 v -33.996 c 0,-2.304 1.875,-4.324 4.325,-4.324 h 25.5 c 2.304,0 4.175,2.02 4.175,4.324 V -4.321 C 29.675,-2.02 27.804,0 25.5,0 H 0"
         inkscape:connector-curvature="0"
         id="path174"
         style="fill:#231f20;fill-rule:evenodd" /></g><g
       transform="translate(292.45,192.73)"
       id="g176"><path
         d="M 0,0 H -8.93 L -4.465,13.684 0,0 z m -4.465,-3.89 h -5.761 l -1.438,-4.61 h -4.469 l 8.789,27.082 h 5.762 L 7.063,-8.5 H 2.594 l -1.438,4.61 h -5.621"
         inkscape:connector-curvature="0"
         id="path178"
         style="fill:#ffffff;fill-rule:evenodd" /></g><g
       transform="translate(154.87,156.29)"
       id="g180"><path
         d="m 0,0 c -1.871,0 -3.887,-1.731 -3.887,-5.477 0,-3.746 2.016,-5.472 3.887,-5.472 1.729,0 3.893,1.726 3.893,5.472 C 3.893,-1.731 1.873,0 0,0 m 0,3.887 c -4.176,0 -8.355,-3.457 -8.355,-9.364 0,-5.761 4.179,-9.214 8.355,-9.214 4.18,0 8.358,3.453 8.358,9.214 C 8.358,0.43 4.18,3.887 0,3.887"
         inkscape:connector-curvature="0"
         id="path182"
         style="fill:#231f20;fill-rule:evenodd" /></g><g
       transform="translate(177.35,155.72)"
       id="g184"><path
         d="m 0,0 v 4.176 c -4.18,0 -4.754,-1.008 -5.91,-2.016 v 1.586 h -4.321 V -13.25 h 4.321 v 8.496 C -5.91,-2.16 -3.028,0 0,0"
         inkscape:connector-curvature="0"
         id="path186"
         style="fill:#231f20;fill-rule:evenodd" /></g><g
       transform="translate(184.41,97.809)"
       id="g188"><path
         d="M 0,0 V 16.996"
         inkscape:connector-curvature="0"
         id="path190"
         style="fill:none;stroke:#231f20;stroke-width:4.32399988;stroke-miterlimit:10" /></g><g
       transform="translate(184.22,121.53)"
       id="g192"><path
         d="m 0,0 c 1.355,0 2.449,-1.094 2.449,-2.449 0,-1.352 -1.094,-2.445 -2.449,-2.445 -1.352,0 -2.449,1.093 -2.449,2.445 C -2.449,-1.094 -1.352,0 0,0"
         inkscape:connector-curvature="0"
         id="path194"
         style="fill:#231f20;fill-rule:evenodd" /></g><g
       transform="translate(210.19,100.54)"
       id="g196"><path
         d="M 0,0 3.317,2.887 C 4.469,1.586 7.059,0.289 8.215,0.289 c 1.157,0 2.305,0.863 2.305,1.727 0,0.871 -0.719,1.3 -1.297,1.445 C 8.645,3.605 6.34,4.18 5.911,4.324 c -0.434,0 -4.469,0.723 -4.469,4.899 0,4.175 4.469,5.328 7.058,5.328 2.739,0 5.043,-0.867 6.918,-2.594 L 12.68,8.934 c -1.582,1.437 -2.738,2.015 -4.18,2.015 -1.293,0 -2.304,-0.578 -2.304,-1.586 0,-1.008 0.722,-1.152 1.152,-1.293 0.434,0 3.316,-0.578 3.891,-0.722 C 11.961,7.062 15.27,6.055 15.27,2.16 15.27,-1.727 11.672,-3.313 8.067,-3.313 4.614,-3.313 1.157,-1.582 0,0"
         inkscape:connector-curvature="0"
         id="path198"
         style="fill:#231f20;fill-rule:evenodd" /></g><g
       transform="translate(104.02,112.64)"
       id="g200"><path
         d="m 0,0 h -4.897 c -0.142,4.325 2.449,9.653 9.652,9.653 7.206,0 8.645,-6.192 8.645,-8.356 0,-2.16 -0.145,-6.336 -9.076,-11.812 h 8.931 v -4.32 H -4.032 v 4.464 C 3.461,-5.183 8.5,-2.593 8.5,1.008 8.5,3.024 6.771,5.188 4.035,5.188 1.297,5.188 0,2.59 0,0"
         inkscape:connector-curvature="0"
         id="path202"
         style="fill:#231f20;fill-rule:evenodd" /></g><g
       transform="translate(131.82,117.25)"
       id="g204"><path
         d="m 0,0 c 2.596,0 5.043,-1.438 5.188,-7.633 0,-6.191 -2.305,-8.07 -5.188,-8.07 -2.881,0 -5.185,1.879 -5.041,8.07 C -5.041,-1.438 -2.449,0 0,0 m 0,4.465 c 3.459,0 10.088,-1.871 10.088,-12.242 0,-10.372 -6.34,-12.387 -10.088,-12.387 -3.744,0 -10.084,2.015 -10.084,12.387 0,10.371 6.627,12.242 10.084,12.242"
         inkscape:connector-curvature="0"
         id="path206"
         style="fill:#231f20;fill-rule:evenodd" /></g><g
       transform="translate(177.06,109.48)"
       id="g208"><path
         d="m 0,0 v -11.668 h -4.329 v 10.371 c 0,1.726 -1.296,2.879 -2.734,2.879 -1.297,0 -2.883,-1.293 -2.883,-3.454 v -9.796 h -4.465 v 10.515 c 0,1.582 -1.297,2.735 -2.449,2.735 -1.295,0 -3.172,-1.008 -3.172,-3.313 v -9.937 h -4.463 v 17.14 h 4.463 V 4.32 c 0,0 1.588,1.297 4.469,1.297 2.592,0 4.176,-1.731 4.176,-1.731 -0.145,0 1.73,1.871 4.613,1.871 C -2.313,5.757 0,2.734 0,0"
         inkscape:connector-curvature="0"
         id="path210"
         style="fill:#231f20;fill-rule:evenodd" /></g><g
       transform="translate(206.88,109.04)"
       id="g212"><path
         d="m 0,0 v -11.234 h -4.465 v 10.66 c 0,1.297 -1.008,2.59 -2.883,2.59 -1.871,0 -3.601,-1.582 -3.601,-3.887 v -9.363 h -4.469 V 5.762 h 4.469 V 4.609 c 0,0 1.875,1.582 4.32,1.582 C -2.734,6.191 0,3.023 0,0"
         inkscape:connector-curvature="0"
         id="path214"
         style="fill:#231f20;fill-rule:evenodd" /></g><g
       transform="translate(88.313,79.082)"
       id="g216"><path
         d="M 0,0 H 1.875 L 13.542,-16.422 V 0 h 4.612 V -23.766 H 12.822 L 2.02,-7.633 V -23.766 H -2.736 V 0 H 0"
         inkscape:connector-curvature="0"
         id="path218"
         style="fill:#231f20;fill-rule:evenodd" /></g><g
       transform="translate(160.78,65.539)"
       id="g220"><path
         d="M 0,0 H 6.772 C 6.772,1.59 5.471,3.461 3.455,3.461 1.297,3.461 0,1.734 0,0 m 0,-3.312 h 11.237 c 0.144,2.015 -0.719,10.66 -7.924,10.66 -6.34,0 -7.779,-6.91 -7.779,-9.075 0,-2.16 1.294,-9.074 8.21,-9.074 4.04,0 6.055,2.305 6.629,2.883 l -2.738,2.734 c 0,0 -1.297,-1.726 -3.746,-1.726 C 1.297,-6.91 0,-5.039 0,-3.312"
         inkscape:connector-curvature="0"
         id="path222"
         style="fill:#231f20;fill-rule:evenodd" /></g><g
       transform="translate(152.86,68.426)"
       id="g224"><path
         d="m 0,0 v 4.316 c -4.035,0 -4.755,-1.008 -5.763,-2.16 v 1.73 h -4.465 V -13.11 h 4.465 v 8.496 C -5.763,-2.16 -3.023,0 0,0"
         inkscape:connector-curvature="0"
         id="path226"
         style="fill:#231f20;fill-rule:evenodd" /></g><g
       transform="translate(201.69,56.469)"
       id="g228"><path
         d="M 0,0 V -1.153 H 4.325 V 15.843 H 0 V 6.336 C 0,3.886 -2.16,2.59 -3.886,2.59 -5.472,2.59 -6.48,3.886 -6.48,5.472 v 10.371 h -4.469 V 4.465 c 0,-3.168 2.742,-6.051 6.344,-6.051 2.301,0 4.031,1.008 4.605,1.586"
         inkscape:connector-curvature="0"
         id="path230"
         style="fill:#231f20;fill-rule:evenodd" /></g><g
       transform="translate(119.72,69)"
       id="g232"><path
         d="m 0,0 c -1.727,0 -3.887,-1.586 -3.887,-5.332 0,-3.742 2.16,-5.473 3.887,-5.473 1.873,0 4.037,1.731 4.037,5.473 C 4.037,-1.586 1.873,0 0,0 m 0,4.031 c -4.031,0 -8.211,-3.457 -8.211,-9.363 0,-5.902 4.035,-9.359 8.211,-9.359 4.324,0 8.357,3.457 8.357,9.359 0,5.906 -4.176,9.363 -8.357,9.363"
         inkscape:connector-curvature="0"
         id="path234"
         style="fill:#231f20;fill-rule:evenodd" /></g><g
       transform="translate(186.71,55.746)"
       id="g236"><path
         d="m 0,0 -0.863,3.602 c -3.028,-0.864 -3.895,0 -3.895,0.718 v 8.5 h 4.469 v 3.746 h -4.469 v 6.77 l -4.461,-1.297 v -5.473 h -2.742 V 12.82 h 2.742 V 2.738 c 0,-2.015 1.297,-3.746 4.61,-3.746 2.449,0 4.031,0.723 4.609,1.008"
         inkscape:connector-curvature="0"
         id="path238"
         style="fill:#231f20;fill-rule:evenodd" /></g><g
       transform="translate(220.71,68.426)"
       id="g240"><path
         d="m 0,0 v 4.316 c -4.18,0 -4.758,-1.008 -5.766,-2.16 v 1.73 h -4.465 V -13.11 h 4.465 v 8.496 C -5.766,-2.16 -3.027,0 0,0"
         inkscape:connector-curvature="0"
         id="path242"
         style="fill:#231f20;fill-rule:evenodd" /></g><g
       transform="translate(240.3,66.406)"
       id="g244"><path
         d="m 0,0 v -11.09 h -4.469 v 10.661 c 0,1.296 -1.008,2.589 -2.883,2.589 -1.867,0 -3.598,-1.726 -3.598,-3.89 v -9.36 h -4.324 V 5.906 h 4.324 V 4.61 c 0,0 1.872,1.726 4.321,1.726 C -2.735,6.336 0,3.168 0,0"
         inkscape:connector-curvature="0"
         id="path246"
         style="fill:#231f20;fill-rule:evenodd" /></g><g
       transform="translate(98.977,37.453)"
       id="g248"><path
         d="M 0,0 V 7.492 H -4.469 V -16.277 H 0 v 10.086 c 0,1.582 1.439,3.168 3.023,3.168 1.584,0 3.313,-1.153 3.313,-3.168 v -10.086 h 4.322 v 11.668 c 0,3.457 -3.024,5.761 -6.196,5.761 C 1.584,1.152 0.574,0.145 0,0"
         inkscape:connector-curvature="0"
         id="path250"
         style="fill:#231f20;fill-rule:evenodd" /></g><g
       transform="translate(61.371,21.176)"
       id="g252"><path
         d="M 0,0 H 1.445 L 6.197,17.14 H 1.445 L -1.152,5.902 -4.031,17.14 H -8.5 L -11.236,5.902 -13.971,17.14 h -4.756 L -13.971,0 h 5.184 L -6.191,10.66 -3.311,0 H 0"
         inkscape:connector-curvature="0"
         id="path254"
         style="fill:#231f20;fill-rule:evenodd" /></g><g
       transform="translate(166.25,31.98)"
       id="g256"><path
         d="M 0,0 V -2.304 H -7.631 L 0,7.774 V 0 z M 4.758,0.289 V -2.304 H 7.781 V -6.628 H 4.758 V -10.66 H 0 v 4.032 h -12.963 v 4.324 L -1.297,13.11 H 4.758 V 0.289"
         inkscape:connector-curvature="0"
         id="path258"
         style="fill:#231f20;fill-rule:evenodd" /></g><g
       transform="translate(73.039,21.176)"
       id="g260"><path
         d="M 0,0 V 17.14"
         inkscape:connector-curvature="0"
         id="path262"
         style="fill:none;stroke:#231f20;stroke-width:4.32399988;stroke-miterlimit:10" /></g><g
       transform="translate(72.855,45.094)"
       id="g264"><path
         d="m 0,0 c 1.352,0 2.447,-1.098 2.447,-2.45 0,-1.351 -1.095,-2.449 -2.447,-2.449 -1.352,0 -2.447,1.098 -2.447,2.449 C -2.447,-1.098 -1.352,0 0,0"
         inkscape:connector-curvature="0"
         id="path266"
         style="fill:#231f20;fill-rule:evenodd" /></g><g
       transform="translate(91.051,21.75)"
       id="g268"><path
         d="m 0,0 -0.719,3.602 c -3.172,-0.864 -4.037,0 -4.037,0.718 v 8.5 h 4.469 v 3.746 h -4.469 v 6.774 l -4.318,-1.297 v -5.477 h -2.74 V 12.82 h 2.74 V 2.738 c 0,-2.16 1.295,-3.746 4.607,-3.746 2.309,0 4.035,0.723 4.467,1.008"
         inkscape:connector-curvature="0"
         id="path270"
         style="fill:#231f20;fill-rule:evenodd" /></g><g
       transform="translate(116.98,21.176)"
       id="g272"><path
         d="M 0,0 V 17.14"
         inkscape:connector-curvature="0"
         id="path274"
         style="fill:none;stroke:#231f20;stroke-width:4.32399988;stroke-miterlimit:10" /></g><g
       transform="translate(116.84,45.094)"
       id="g276"><path
         d="m 0,0 c 1.352,0 2.447,-1.098 2.447,-2.45 0,-1.351 -1.095,-2.449 -2.447,-2.449 -1.352,0 -2.449,1.098 -2.449,2.449 C -2.449,-1.098 -1.352,0 0,0"
         inkscape:connector-curvature="0"
         id="path278"
         style="fill:#231f20;fill-rule:evenodd" /></g><g
       transform="translate(139.46,32.41)"
       id="g280"><path
         d="M 0,0 V -11.234 H -4.463 V -0.43 c 0,1.297 -1.008,2.45 -2.885,2.45 -1.871,0 -3.599,-1.586 -3.599,-3.891 v -9.363 h -4.465 v 17.14 h 4.465 V 4.609 c 0,0 1.871,1.727 4.324,1.727 C -2.736,6.336 0,3.027 0,0"
         inkscape:connector-curvature="0"
         id="path282"
         style="fill:#231f20;fill-rule:evenodd" /></g><g
       transform="translate(188.59,40.766)"
       id="g284"><path
         d="m 0,0 c 2.59,0 5.039,-1.586 5.187,-7.633 0,-6.196 -2.312,-8.215 -5.187,-8.215 -2.883,0 -5.188,2.019 -5.047,8.215 C -5.047,-1.586 -2.453,0 0,0 m 0,4.464 c 3.453,0 10.082,-2.015 10.082,-12.386 0,-10.227 -6.34,-12.387 -10.082,-12.387 -3.746,0 -9.941,2.16 -9.941,12.387 0,10.371 6.628,12.386 9.941,12.386"
         inkscape:connector-curvature="0"
         id="path286"
         style="fill:#231f20;fill-rule:evenodd" /></g><g
       transform="translate(241.02,21.176)"
       id="g288"><path
         d="M 0,0 V 17.14"
         inkscape:connector-curvature="0"
         id="path290"
         style="fill:none;stroke:#231f20;stroke-width:4.32399988;stroke-miterlimit:10" /></g><g
       transform="translate(240.86,45.094)"
       id="g292"><path
         d="m 0,0 c 1.352,0 2.45,-1.098 2.45,-2.45 0,-1.351 -1.098,-2.449 -2.45,-2.449 -1.351,0 -2.449,1.098 -2.449,2.449 C -2.449,-1.098 -1.351,0 0,0"
         inkscape:connector-curvature="0"
         id="path294"
         style="fill:#231f20;fill-rule:evenodd" /></g><g
       transform="translate(266.81,24.055)"
       id="g296"><path
         d="M 0,0 3.312,2.882 C 4.46,1.441 7.203,0.289 8.355,0.289 c 1.152,0 2.16,0.863 2.16,1.726 0,0.723 -0.578,1.153 -1.297,1.297 C 8.64,3.457 6.484,4.035 5.906,4.175 5.476,4.32 1.437,5.043 1.437,9.078 c 0,4.32 4.469,5.328 7.203,5.328 2.594,0 5.047,-0.723 6.918,-2.449 L 12.675,8.933 C 11.093,10.375 9.937,10.949 8.64,10.949 7.347,10.949 6.195,10.375 6.195,9.363 6.195,8.355 7.058,8.214 7.347,8.07 7.781,7.925 10.66,7.347 11.378,7.207 11.953,7.062 15.414,6.054 15.414,2.015 15.414,-1.871 11.667,-3.453 8.21,-3.453 4.609,-3.453 1.148,-1.582 0,0"
         inkscape:connector-curvature="0"
         id="path298"
         style="fill:#231f20;fill-rule:evenodd" /></g><g
       transform="translate(233.82,32.844)"
       id="g300"><path
         d="m 0,0 v -11.668 h -4.32 v 10.515 c 0,1.586 -1.297,2.879 -2.742,2.879 -1.297,0 -2.879,-1.293 -2.879,-3.453 v -9.941 h -4.465 v 10.515 c 0,1.586 -1.297,2.879 -2.453,2.879 -1.293,0 -3.164,-1.008 -3.164,-3.308 v -10.086 h -4.469 v 17.14 h 4.469 V 4.465 c 0,0 1.582,1.296 4.461,1.296 2.597,0 4.18,-1.73 4.18,-1.73 -0.141,0 1.73,1.871 4.609,1.871 C -2.304,5.902 0,2.879 0,0"
         inkscape:connector-curvature="0"
         id="path302"
         style="fill:#231f20;fill-rule:evenodd" /></g><g
       transform="translate(263.5,32.41)"
       id="g304"><path
         d="M 0,0 V -11.234 H -4.324 V -0.43 c 0,1.297 -1.153,2.45 -3.024,2.45 -1.871,0 -3.461,-1.586 -3.461,-3.891 v -9.363 h -4.464 v 17.14 h 4.464 V 4.609 c 0,0 1.731,1.727 4.18,1.727 C -2.594,6.336 0,3.027 0,0"
         inkscape:connector-curvature="0"
         id="path306"
         style="fill:#231f20;fill-rule:evenodd" /></g></g></svg>