<?xml version="1.0" encoding="UTF-8" standalone="no"?>
<!-- Created with Inkscape (http://www.inkscape.org/) -->

<svg
   xmlns:dc="http://purl.org/dc/elements/1.1/"
   xmlns:cc="http://creativecommons.org/ns#"
   xmlns:rdf="http://www.w3.org/1999/02/22-rdf-syntax-ns#"
   xmlns:svg="http://www.w3.org/2000/svg"
   xmlns="http://www.w3.org/2000/svg"
   xmlns:inkscape="http://www.inkscape.org/namespaces/inkscape"
   version="1.1"
   width="539.09998"
   height="247.82001"
   id="svg2"
   xml:space="preserve"><metadata
     id="metadata8"><rdf:RDF><cc:Work
         rdf:about=""><dc:format>image/svg+xml</dc:format><dc:type
           rdf:resource="http://purl.org/dc/dcmitype/StillImage" /></cc:Work></rdf:RDF></metadata><defs
     id="defs6"><clipPath
       id="clipPath16"><path
         d="M 0,198.26 H 431.28 V 0 H 0 v 198.26 z"
         inkscape:connector-curvature="0"
         id="path18" /></clipPath></defs><g
     transform="matrix(1.25,0,0,-1.25,0,247.82)"
     id="g10"><g
       id="g12"><g
         clip-path="url(#clipPath16)"
         id="g14"><g
           transform="translate(431.29,18.281)"
           id="g20"><path
             d="m 0,0 c 0,-10.097 -8.185,-18.281 -18.282,-18.281 h -394.73 c -10.096,0 -18.281,8.184 -18.281,18.281 v 161.7 c 0,10.096 8.185,18.281 18.281,18.281 h 394.73 c 10.095,0 18.28,-8.19 18.28,-18.28 V 0.001"
             inkscape:connector-curvature="0"
             id="path22"
             style="fill:#231f20" /></g></g></g><g
       transform="translate(421.8,18.281)"
       id="g24"><path
         d="m 0,0 c 0,-4.855 -3.934,-8.788 -8.788,-8.788 h -394.73 c -4.853,0 -8.788,3.933 -8.788,8.788 v 161.7 c 0,4.853 3.935,8.788 8.788,8.788 H -8.788 C -3.934,170.488 0,166.553 0,161.7 L 0.002,0"
         inkscape:connector-curvature="0"
         id="path26"
         style="fill:#ffffff" /></g><g
       transform="translate(171.08,38.523)"
       id="g28"><path
         d="m 0,0 c 0,-5.558 -4.507,-10.065 -10.066,-10.065 h -122.57 c -5.56,0 -10.066,4.507 -10.066,10.065 v 122.51 c 0,5.559 4.506,10.065 10.066,10.065 h 122.57 c 5.563,-0.01 10.07,-4.52 10.07,-10.07 V -0.005"
         inkscape:connector-curvature="0"
         id="path30"
         style="fill:#0079c1" /></g><g
       transform="translate(119.24,142.55)"
       id="g32"><path
         d="m 0,0 c 0.944,1.432 1.542,3.125 1.542,4.97 0,4.846 -3.928,8.775 -8.774,8.775 -4.846,0 -8.775,-3.929 -8.775,-8.775 0,-3.634 2.207,-6.76 5.36,-8.084 1.458,-0.613 0.93,-2.133 0.706,-2.421 -1.177,-1.513 -2.368,-3.462 -1.44,-7.518 0.459,-2.006 2.166,-10.921 2.166,-16.297 0,-5.375 -1.494,-8.915 -1.835,-9.726 -0.341,-0.81 -1.962,-2.517 -2.517,-2.858 l -11.049,-6.399 -27.686,-33.381 -16.51,13.246 -5.631,-6.719 23.485,-19.197 34.426,41.529 c 0,0 6.559,1.504 14.302,8.479 0,0 1.504,-2.635 0.907,-13.641 -0.653,-12.015 1.48,-24.232 2.58,-28.817 0.384,-1.599 0.448,-3.199 -0.672,-3.872 l -6.782,-3.999 c 0,0 -1.056,-0.479 -1.056,-1.343 0,-0.864 0.672,-1.056 1.151,-1.056 h 16.958 v 39.577 l 14.718,-31.291 c 0,0 0.831,-1.599 -0.352,-2.271 l -6.463,-3.744 c 0,0 -0.768,-0.287 -0.768,-1.12 0,-0.832 0.927,-1.151 1.151,-1.151 h 16.222 v 6.591 l -9.599,39.834 c 0,0 -2.047,7.551 -2.687,9.598 -0.64,2.048 -9.215,24.956 -9.982,26.748 C 10.93,-9.281 6.558,-4.348 0.937,-2.815 -0.47,-2.431 -1.098,-1.664 0,0"
         inkscape:connector-curvature="0"
         id="path34"
         style="fill:#ffffff" /></g><g
       transform="translate(71.797,99.549)"
       id="g36"><path
         d="M 0,0 13.326,-10.964 -5.995,-33.789 -19.321,-22.823 0,0"
         inkscape:connector-curvature="0"
         id="path38"
         style="fill:#ffffff" /></g><g
       transform="translate(85.277,61.664)"
       id="g40"><path
         d="m 0,0 c 4.499,0 8.145,-3.647 8.145,-8.145 0,-4.498 -3.646,-8.144 -8.145,-8.144 -4.498,0 -8.144,3.646 -8.144,8.144 C -8.144,-3.647 -4.498,0 0,0"
         inkscape:connector-curvature="0"
         id="path42"
         style="fill:#ffffff" /></g><g
       transform="translate(221.59,116.98)"
       id="g44"><path
         d="m 0,0 v -8.014 h -25.746 v 40.012 h 8.014 V 0 H 0"
         inkscape:connector-curvature="0"
         id="path46"
         style="fill:#231f20" /></g><g
       transform="translate(224.52,123.01)"
       id="g48"><path
         d="m 0,0 c 0,11.651 6.82,15.914 13.641,15.914 6.195,0 13.924,-4.263 13.924,-15.914 0,-8.582 -5.626,-15.061 -13.527,-15.061 C 5.342,-15.061 0,-9.094 0,0"
         inkscape:connector-curvature="0"
         id="path50"
         style="fill:#231f20" /></g><g
       transform="translate(244.29,123.01)"
       id="g52"><path
         d="m 0,0 c 0,6.763 -2.33,8.866 -5.74,8.866 -4.319,0 -6.081,-3.523 -6.081,-8.866 0,-4.661 2.274,-8.184 6.081,-8.184 C -1.989,-8.184 0,-4.661 0,0"
         inkscape:connector-curvature="0"
         id="path54"
         style="fill:#ffffff" /></g><g
       transform="translate(267.57,108.17)"
       id="g56"><path
         d="m 0,0 c -6.309,0 -10.002,3.524 -10.002,9.037 0,4.888 2.955,10.06 16.822,10.06 v 1.591 c 0,1.705 -1.705,2.785 -4.318,2.785 -2.217,0 -5.969,-1.308 -8.696,-2.955 l -3.695,5.626 c 2.046,1.535 6.991,4.32 12.277,4.32 8.013,0 12.162,-3.069 12.162,-8.639 V 9.833 c 0,-2.558 0.682,-3.297 3.353,-3.751 L 15.232,0.057 C 13.868,0.057 10.06,0.568 8.128,3.012 5.57,0.568 3.183,0 0,0"
         inkscape:connector-curvature="0"
         id="path58"
         style="fill:#231f20" /></g><g
       transform="translate(270.01,114.6)"
       id="g60"><path
         d="M 0,0 C 3.184,0 4.605,0.91 4.605,3.296 V 6.934 L -1.25,6.082 C -3.807,5.684 -4.319,4.32 -4.319,2.728 -4.319,0.853 -3.182,0 0,0"
         inkscape:connector-curvature="0"
         id="path62"
         style="fill:#ffffff" /></g><g
       transform="translate(288.4,123.18)"
       id="g64"><path
         d="m 0,0 c 0,8.355 4.148,15.573 12.561,15.573 2.955,0 4.887,-0.398 7.957,-2.444 v 12.788 h 7.786 v -40.125 h -7.786 v 1.761 c -2.501,-2.102 -4.889,-2.444 -8.185,-2.444 C 4.376,-14.891 0,-8.923 0,0"
         inkscape:connector-curvature="0"
         id="path66"
         style="fill:#231f20" /></g><g
       transform="translate(302.83,115.16)"
       id="g68"><path
         d="m 0,0 c 3.978,0 6.138,2.16 6.138,6.082 v 4.546 c 0,3.411 -2.33,6.081 -5.968,6.081 -4.546,0 -6.82,-3.466 -6.82,-8.411 C -6.65,3.183 -4.376,0 0,0"
         inkscape:connector-curvature="0"
         id="path70"
         style="fill:#ffffff" /></g><path
       d="m 324.54,108.97 h 7.618 v 28.929 H 324.54 V 108.97 z"
       inkscape:connector-curvature="0"
       id="path72"
       style="fill:#231f20" /><g
       transform="translate(323.92,145.12)"
       id="g74"><path
         d="m 0,0 c 0,2.387 1.933,4.433 4.32,4.433 2.502,0 4.433,-2.046 4.433,-4.49 0,-2.387 -1.931,-4.376 -4.376,-4.376 C 1.933,-4.433 0,-2.444 0,0"
         inkscape:connector-curvature="0"
         id="path76"
         style="fill:#231f20" /></g><g
       transform="translate(351.26,137.84)"
       id="g78"><path
         d="m 0,0 c 1.194,0.568 2.614,0.739 3.978,0.739 6.253,0 10.969,-4.831 10.969,-10.628 V -28.872 H 7.389 v 16.482 c 0,3.24 -1.592,5.854 -4.718,5.854 -3.694,0 -6.082,-2.16 -6.082,-5.058 v -17.278 h -7.615 v 28.815 h 7.843 V -2.16 C -1.706,-0.909 -1.251,-0.455 0,0"
         inkscape:connector-curvature="0"
         id="path80"
         style="fill:#231f20" /></g><g
       transform="translate(384.76,110.62)"
       id="g82"><path
         d="m 0,0 c -7.616,0 -12.39,5.513 -12.39,13.47 0,8.411 5.002,13.982 12.617,13.982 1.705,0 3.638,0.056 6.423,-1.99 v 1.648 h 7.899 V -0.909 c 0,-5.684 -5.739,-10.117 -13.469,-10.117 -4.717,0 -5.741,0.057 -12.902,3.41 l 3.467,6.252 c 3.127,-2.557 8.525,-2.557 8.525,-2.557 3.808,0 7.105,0.454 6.423,5.456 C 4.035,-0.227 2.955,0 0,0"
         inkscape:connector-curvature="0"
         id="path84"
         style="fill:#231f20" /></g><g
       transform="translate(386.18,117.55)"
       id="g86"><path
         d="m 0,0 c 3.525,0 5.344,1.875 5.344,5.172 v 3.865 c 0,2.614 -2.274,4.66 -5.23,4.66 -3.92,0 -6.137,-2.444 -6.137,-6.65 C -6.023,2.046 -4.546,0 0,0"
         inkscape:connector-curvature="0"
         id="path88"
         style="fill:#ffffff" /></g><g
       transform="translate(240.51,65.417)"
       id="g90"><path
         d="m 0,0 c 0,11.651 6.82,15.914 13.64,15.914 6.195,0 13.925,-4.263 13.925,-15.914 0,-8.582 -5.626,-15.062 -13.527,-15.062 C 5.343,-15.062 0,-9.094 0,0"
         inkscape:connector-curvature="0"
         id="path92"
         style="fill:#231f20" /></g><g
       transform="translate(260.29,65.417)"
       id="g94"><path
         d="m 0,0 c 0,6.763 -2.33,8.866 -5.74,8.866 -4.319,0 -6.081,-3.524 -6.081,-8.866 0,-4.661 2.274,-8.185 6.081,-8.185 C -1.989,-8.185 0,-4.661 0,0"
         inkscape:connector-curvature="0"
         id="path96"
         style="fill:#ffffff" /></g><g
       transform="translate(286.01,80.251)"
       id="g98"><path
         d="m 0,0 c 1.194,0.568 2.615,0.738 3.979,0.738 6.252,0 10.97,-4.831 10.97,-10.628 v -18.982 h -7.56 v 16.481 c 0,3.24 -1.591,5.855 -4.718,5.855 -3.693,0 -6.081,-2.16 -6.081,-5.059 v -17.277 h -7.616 v 28.814 h 7.844 V -2.16 C -1.705,-0.91 -1.251,-0.454 0,0"
         inkscape:connector-curvature="0"
         id="path100"
         style="fill:#231f20" /></g><g
       transform="translate(309.16,91.618)"
       id="g102"><path
         d="m 0,0 h 7.616 v -29.497 c 0,-3.07 0.512,-3.809 2.159,-3.923 0.966,-0.056 1.762,0 2.842,0.284 l 0.739,-6.706 C 10.684,-40.524 8.128,-40.979 6.308,-40.979 4.433,-40.979 0,-40.354 0,-33.647 V 0"
         inkscape:connector-curvature="0"
         id="path104"
         style="fill:#231f20" /></g><g
       transform="translate(341.27,47.457)"
       id="g106"><path
         d="m 0,0 c -0.966,-2.899 -2.785,-5.626 -6.649,-5.626 0,0 -2.046,0 -7.9,0.738 l 0.739,6.763 c 0.852,-0.227 2.841,-0.398 4.091,-0.398 1.365,0 2.671,0.74 2.671,2.33 0,0.512 0.058,1.195 -0.226,1.99 l -9.378,26.543 h 7.558 L -2.785,15.118 3.354,32.34 h 7.729 L 0,0"
         inkscape:connector-curvature="0"
         id="path108"
         style="fill:#231f20" /></g></g></svg>