<?xml version="1.0" encoding="UTF-8" standalone="no"?>
<!-- Created with Inkscape (http://www.inkscape.org/) -->

<svg
   xmlns:dc="http://purl.org/dc/elements/1.1/"
   xmlns:cc="http://creativecommons.org/ns#"
   xmlns:rdf="http://www.w3.org/1999/02/22-rdf-syntax-ns#"
   xmlns:svg="http://www.w3.org/2000/svg"
   xmlns="http://www.w3.org/2000/svg"
   xmlns:inkscape="http://www.inkscape.org/namespaces/inkscape"
   version="1.1"
   width="423.75"
   height="729.38"
   id="svg2"
   xml:space="preserve"><defs
     id="defs57" /><metadata
     id="metadata8"><rdf:RDF><cc:Work
         rdf:about=""><dc:format>image/svg+xml</dc:format><dc:type
           rdf:resource="http://purl.org/dc/dcmitype/StillImage" /></cc:Work></rdf:RDF></metadata><g
     transform="matrix(1.25,0,0,-1.25,-166.91,869.03)"
     id="g10"><g
       transform="scale(0.1,0.1)"
       id="g12"><path
         d="m 4725.2,1261.2 c -0.41,-79.3 -64.77,-143.66 -144,-144 h -3102 c -79.73,0.34 -144.09,64.7 -144,144 v 5547 c -0.09,79.8 64.27,144.16 144,144 h 3102 c 79.23,0.16 143.59,-64.2 144,-144 v -5547"
         inkscape:connector-curvature="0"
         id="path14" /><path
         d="m 4650.2,3701.2 c -0.05,-37.72 -30.99,-68.66 -69,-69 h -3102 c -38.51,0.34 -69.45,31.28 -69,69 v 3107 c -0.45,38.58 30.49,69.52 69,70 h 3102 c 38.01,-0.48 68.95,-31.42 69,-70 v -3107"
         inkscape:connector-curvature="0"
         id="path16"
         style="fill:#ffffff" /><path
         d="m 4650.2,1261.2 c -0.05,-38.08 -30.99,-69.02 -69,-69 h -3102 c -38.51,-0.02 -69.45,30.92 -69,69 v 2216 c -0.45,38.5 30.49,69.44 69,69 h 3102 c 38.01,0.44 68.95,-30.5 69,-69 v -2216"
         inkscape:connector-curvature="0"
         id="path18"
         style="fill:#ffffff" /><path
         d="m 3025.2,6668.2 c 782.14,0.23 1416.3,-633.95 1416,-1416 0.33,-782.52 -633.86,-1416.7 -1416,-1417 -782.43,0.29 -1416.6,634.48 -1417,1417 0.38,782.05 634.57,1416.2 1417,1416"
         inkscape:connector-curvature="0"
         id="path20"
         style="fill:#808080" /><path
         d="m 3025.2,6386.2 c 626.33,0.12 1134.2,-507.76 1134,-1134 0.21,-626.71 -507.67,-1134.6 -1134,-1135 -626.62,0.41 -1134.5,508.29 -1134,1135 -0.5,626.24 507.38,1134.1 1134,1134"
         inkscape:connector-curvature="0"
         id="path22"
         style="fill:#ffffff" /><path
         d="m 3577.2,5875.2 c 85.96,-35.82 146.13,-120.72 146,-220 h -37 c -0.2,-110.98 -90.44,-201.22 -202,-201 -75.43,-0.22 -141.37,41.49 -176,103 h -351 c 0,0 -96.7,-5.73 -97,98 0.3,69.63 -31.32,131.53 -81,172 l -11,-18 c 43.39,-37.02 70.97,-92.12 71,-154 -0.03,-110.98 -90.27,-201.22 -202,-201 -110.89,-0.22 -201.14,90.02 -201,201 -0.14,111.64 90.11,201.89 201,202 25.47,-0.11 49.46,-4.69 72,-13 l 11,19 c -25.82,9.67 -53.55,15.21 -83,15 -1.89,0.21 -4.2,0.18 -6,0 v 82 h 50 c 0,0 94.06,-3.7 147,87 16.04,27.85 86,140 86,140 0,0 4.56,7.91 10,6 4.62,-2.12 3.99,-7.05 3,-10 -1.02,-3.08 -39,-178 -39,-178 -0.98,-5.43 -4.75,-22.02 8,-30 12.89,-7.86 25.71,2.7 29,5 l 58,46 54,93 c 0,0 5.36,12.53 0,13 -11.99,-0.47 -49.31,1.42 -49,43 v 50 h -18 c 0.13,2.4 0.02,4.79 0,7 0.02,42.91 34.63,77.52 77,78 43.03,-0.48 77.65,-35.09 78,-78 -0.35,-17.09 -6.04,-33.06 -16,-46 v -30 h 16 l 98,-42 95,-104 c 0,0 28.25,-20.23 28,-76 h 188 c 0,0 43.23,2.43 43,-59"
         inkscape:connector-curvature="0"
         id="path24"
         style="fill:#808080" /><path
         d="m 2726.2,5738.2 c 19.63,-21.99 31.93,-50.89 32,-83 -0.07,-66.22 -54.03,-120.17 -121,-120 -66.13,-0.17 -120.09,53.78 -120,120 -0.09,66.89 53.87,120.84 120,121 10.25,-0.16 19.8,-1.34 29,-4 l -24,-40 c -1.64,0.07 -3.11,0.12 -5,0 -41.99,0.12 -76.36,-34.26 -76,-77 -0.36,-42.07 34.01,-76.45 76,-76 42.82,-0.45 77.2,33.93 77,76 0.2,15.87 -4.41,30.32 -12,42 l 24,41"
         inkscape:connector-curvature="0"
         id="path26"
         style="fill:#ffffff" /><path
         d="m 3476.2,5776.2 c 2.56,-0.26 5.39,-0.16 8,0 66.8,-0.16 120.75,-54.11 121,-121 -0.25,-66.22 -54.2,-120.17 -121,-120 -66.31,-0.17 -120.26,53.78 -120,120 -0.26,39.28 18.22,73.91 47,96 l 16,-44 c -12.03,-13.8 -19.54,-31.86 -20,-52 0.46,-42.07 34.84,-76.45 77,-76 42.65,-0.45 77.03,33.93 77,76 0.03,40.09 -30.19,72.79 -69,77 l -16,44"
         inkscape:connector-curvature="0"
         id="path28"
         style="fill:#ffffff" /><path
         d="m 3287.2,5696.2 c 6.3,43.58 32.88,79.57 63,110 3.89,3.57 5.8,15.98 -3,16 -8.29,-0.02 -77,0 -77,0 v -127 c 0,0 -0.16,-9.76 7,-10 7.92,0.24 9.42,8.49 10,11"
         inkscape:connector-curvature="0"
         id="path30"
         style="fill:#ffffff" /><path
         d="m 3132.2,5934.2 c 0,0 -36.1,15.05 -50,64 l -162,-94 160,-52 52,82"
         inkscape:connector-curvature="0"
         id="path32"
         style="fill:#ffffff" /><path
         d="m 3030.2,4513.2 c 108.05,0.34 361,14 361,14 v -180 c 0,0 23.9,-43.52 87,-44 63.02,0.48 93,43 93,43 v 196 c 46.86,27.5 43,75 43,75 v 251 c -0.07,87.06 -82,92 -82,92 l -44,280 c -18.58,117.7 -113.16,138.06 -153,138 h -611 c -39.5,0.06 -134.08,-20.3 -152,-138 l -45,-280 c 0,0 -81.59,-4.94 -82,-92 v -251 c 0,0 -3.53,-47.5 44,-75 v -196 c 0,0 29.32,-42.52 92,-43 63.43,0.48 88,44 88,44 v 180 c 0,0 252.29,-13.66 361,-14"
         inkscape:connector-curvature="0"
         id="path34"
         style="fill:#808080" /><path
         d="m 2595.2,4901.2 c 46,-0.31 83.49,-37.8 83,-84 0.49,-46.29 -37,-83.77 -83,-84 -46.48,0.23 -83.97,37.71 -84,84 0.03,46.2 37.52,83.69 84,84"
         inkscape:connector-curvature="0"
         id="path36"
         style="fill:#ffffff" /><path
         d="m 3030.2,5025.2 c 75.86,-0.32 300.83,-13.45 362,-13 77.42,-0.45 64,73 64,73 l -13,84 c -13.67,71.12 -71.86,101.9 -123,108 -8.87,0.57 -177.36,12.39 -193,12 h -195 c -15.31,0.39 -183.79,-11.43 -193,-12 -50.8,-6.1 -108.99,-36.88 -123,-108 l -12,-84 c 0,0 -14.08,-73.45 63,-73 61.51,-0.45 286.48,12.68 363,13"
         inkscape:connector-curvature="0"
         id="path38"
         style="fill:#ffffff" /><path
         d="m 3030.2,4828.2 c 31.85,0.29 262.73,-3 299,-8 v -40 h -599 v 40 c 36.61,5 267.48,8.29 300,8"
         inkscape:connector-curvature="0"
         id="path40"
         style="fill:#ffffff" /><path
         d="m 3030.2,4595.2 c 31.85,0.03 262.73,3.32 299,8 v 41 h -599 v -41 c 36.61,-4.68 267.48,-7.97 300,-8"
         inkscape:connector-curvature="0"
         id="path42"
         style="fill:#ffffff" /><path
         d="m 2730.2,4688.2 h 600 v 48 h -600 v -48 z"
         inkscape:connector-curvature="0"
         id="path44"
         style="fill:#ffffff" /><path
         d="m 3465.2,4901.2 c -46.67,-0.31 -84.16,-37.8 -84,-84 -0.16,-46.29 37.33,-83.77 84,-84 45.82,0.23 83.31,37.71 83,84 0.31,46.2 -37.18,83.69 -83,84"
         inkscape:connector-curvature="0"
         id="path46"
         style="fill:#ffffff" /><path
         d="m 1765.2,3632.2 h -79 l 2964,2964 v -79 l -2885,-2885"
         inkscape:connector-curvature="0"
         id="path48" /><path
         d="m 1608.2,3632.2 h -78 l 3120,3121 v -79 l -3042,-3042"
         inkscape:connector-curvature="0"
         id="path50" /><path
         d="m 1455.2,3636.2 c -18.02,6.56 -32.76,20.53 -40,38 l 3197,3197 c 16.86,-8.48 30.07,-23.88 36,-43 l -3193,-3192"
         inkscape:connector-curvature="0"
         id="path52" /><path
         d="m 1410.2,3747.2 v 78 l 3052,3053 h 78 l -3130,-3131"
         inkscape:connector-curvature="0"
         id="path54" /><path
         d="m 1410.2,3904.2 v 78 l 2894,2896 h 80 l -2974,-2974"
         inkscape:connector-curvature="0"
         id="path56" /><path
         d="m 1799.2,3093.2 h -83 v -144 h -84 v 398 h 159 c 120.21,0.09 138.87,-101.68 139,-130 -0.13,-38.96 -33.48,-124.34 -131,-124"
         inkscape:connector-curvature="0"
         id="path58" /><path
         d="m 1847.2,3217.2 c -0.24,36.23 -23.42,54.32 -56,54 h -75 v -107 h 75 c 26.36,-0.1 55.76,20.25 56,53"
         inkscape:connector-curvature="0"
         id="path60"
         style="fill:#ffffff" /><path
         d="m 2176.2,3040.2 46,-50 c -36.54,-33.04 -60.86,-47.17 -113,-47 -88.64,-0.17 -142.92,65.41 -143,153 0.08,78.08 50.4,146.49 128,146 84.11,0.49 136.12,-62.27 136,-156 v -20 h -189 c 1.97,-32.71 31.94,-56.45 70,-56 21.31,-0.45 33.18,2.94 65,30"
         inkscape:connector-curvature="0"
         id="path62" /><path
         d="m 2041.2,3124.2 h 116 c -1.51,28.59 -29.78,54.04 -58,54 -28.89,0.04 -53.2,-22.58 -58,-54"
         inkscape:connector-curvature="0"
         id="path64"
         style="fill:#ffffff" /><path
         d="m 2278.2,3090.2 c -0.3,83.51 40.97,155.32 125,155 29.05,0.32 48.27,-3.64 79,-24 v 127 h 77 v -399 h -77 v 18 c -25.07,-21.34 -48.82,-24.74 -82,-25 -78.77,0.26 -122.3,59.63 -122,148"
         inkscape:connector-curvature="0"
         id="path66" /><path
         d="m 2421.2,3011.2 c 39.89,-0.32 61.37,21.16 61,60 v 45 c 0.37,34.33 -22.81,60.9 -59,61 -45.23,-0.1 -67.84,-34.59 -68,-84 0.16,-50.66 22.77,-82.32 66,-82"
         inkscape:connector-curvature="0"
         id="path68"
         style="fill:#ffffff" /><path
         d="m 2831.2,3040.2 46,-50 c -36.7,-33.04 -61.02,-47.17 -113,-47 -88.8,-0.17 -143.08,65.41 -143,153 -0.08,78.08 50.24,146.49 128,146 83.95,0.49 135.96,-62.27 136,-156 v -20 h -189 c 1.81,-32.71 31.78,-56.45 70,-56 21.15,-0.45 33.02,2.94 65,30"
         inkscape:connector-curvature="0"
         id="path70" /><path
         d="m 2696.2,3124.2 h 116 c -1.67,28.59 -29.94,54.04 -58,54 -29.05,0.04 -53.36,-22.58 -58,-54"
         inkscape:connector-curvature="0"
         id="path72"
         style="fill:#ffffff" /><path
         d="m 3049.2,3130.2 48,-7 c 49.82,-6.59 79.79,-41.65 80,-86 -0.21,-57.98 -48.27,-98.13 -117,-98 -59.05,-0.13 -99.19,14.57 -137,52 l 56,50 c 23.64,-23.54 49.66,-37.11 77,-37 22.98,-0.11 41.07,9.5 41,24 0.07,12.08 -11.8,23.39 -36,28 l -49,10 c -44.41,8 -70.42,41.36 -70,80 -0.42,58.04 44.25,94.8 118,95 39.89,-0.2 73.82,-6.99 113,-43 l -48,-51 c -20.02,23.12 -40.94,30.47 -67,30 -22,0.47 -37.26,-11.97 -37,-26 -0.26,-9.71 4.83,-18.2 28,-21"
         inkscape:connector-curvature="0"
         id="path74" /><path
         d="m 3262.2,3170.2 h -45 v 65 h 45 v 90 l 78,22 v -112 h 73 v -65 h -71 v -129 c -0.46,-29.19 10.28,-32.02 22,-32 10.9,-0.02 19.38,2.24 42,7 l 18,-64 c -36.1,-9.74 -68.32,-13.13 -89,-13 -27.38,-0.13 -73.18,14.01 -73,68 v 163"
         inkscape:connector-curvature="0"
         id="path76" /><path
         d="m 3554.2,3207.2 c 16.71,23.05 45.55,33.8 75,34 3.91,-0.2 7.3,-0.2 14,-1 v -74 c -24.79,-0.97 -32,-1 -32,-1 -32.37,-1.1 -58.94,-23.71 -59,-70 v -146 h -76 v 288 h 76 l 2,-30"
         inkscape:connector-curvature="0"
         id="path78" /><path
         d="m 3717.2,2949.2 h 76 v 288 h -76 v -288 z"
         inkscape:connector-curvature="0"
         id="path80" /><path
         d="m 3711.2,3309.2 c -0.47,23.39 18.76,43.75 43,44 24.38,-0.25 43.61,-20.61 44,-45 -0.39,-23.67 -19.62,-43.46 -44,-43 -24.24,-0.46 -43.47,19.33 -43,44"
         inkscape:connector-curvature="0"
         id="path82" /><path
         d="m 3958.2,2941.2 c -62.52,0.13 -99.27,35.19 -99,90 -0.27,48.66 29.14,100.11 167,100 v 16 c 0.09,16.9 -16.87,27.64 -43,28 -21.93,-0.36 -59.24,-13.36 -86,-30 l -37,56 c 20.22,15.48 69.41,43.19 122,43 79.71,0.19 120.99,-30.34 121,-86 v -119 c -0.01,-25.5 6.77,-32.85 33,-37 l -26,-60 c -13.8,-0.3 -51.68,4.79 -71,29 -25.35,-24.21 -49.09,-29.87 -81,-30"
         inkscape:connector-curvature="0"
         id="path84" /><path
         d="m 3983.2,3005.2 c 31.22,0.02 45.36,9.07 45,33 v 36 l -58,-8 c -25.32,-4.44 -30.41,-18.01 -30,-34 -0.41,-18.5 10.89,-26.98 43,-27"
         inkscape:connector-curvature="0"
         id="path86"
         style="fill:#ffffff" /><path
         d="m 4294.2,3236.2 c 12.25,5.93 26.39,7.62 40,8 62.15,-0.38 109.08,-48.44 109,-106 v -189 h -75 v 164 c -0.12,32.24 -15.95,58.25 -47,58 -36.8,0.25 -60.54,-21.23 -61,-50 v -172 h -75 v 287 h 78 v -21 c 14.42,12.23 18.94,16.75 31,21"
         inkscape:connector-curvature="0"
         id="path88" /><path
         d="m 2495.2,2470.2 h 183 v -86 h -284 v 86 l 171,232 h -167 v 82 h 271 v -82 l -174,-232"
         inkscape:connector-curvature="0"
         id="path90" /><path
         d="m 2722.2,2523.2 c 0.38,116.22 68.23,158.62 136,159 61.7,-0.38 138.6,-42.78 139,-159 -0.4,-85.07 -56.37,-149.52 -135,-150 -86.47,0.48 -139.62,59.84 -140,150"
         inkscape:connector-curvature="0"
         id="path92" /><path
         d="m 2919.2,2523.2 c 0.14,67.59 -23.04,88.51 -57,89 -42.94,-0.49 -60.46,-35.54 -60,-89 -0.46,-46.05 22.15,-81.11 60,-81 37.35,-0.11 57.14,34.95 57,81"
         inkscape:connector-curvature="0"
         id="path94"
         style="fill:#ffffff" /><path
         d="m 3175.2,2671.2 c 11.86,5.54 25.99,7.23 40,7 61.75,0.23 108.68,-47.83 109,-106 v -188 h -76 v 164 c 0.48,31.85 -15.35,57.86 -46,58 -37.2,-0.14 -60.94,-21.63 -61,-50 v -172 h -76 v 286 h 78 v -21 c 15.02,12.83 19.54,17.36 32,22"
         inkscape:connector-curvature="0"
         id="path96" /><path
         d="m 3598.2,2475.2 45,-50 c -36.4,-33.43 -60.71,-47.56 -113,-48 -88.5,0.44 -142.78,66.02 -143,154 0.22,77.68 50.54,146.1 128,146 84.25,0.1 136.27,-62.66 136,-157 v -19 h -189 c 2.12,-33.1 32.08,-56.85 70,-57 21.45,0.15 33.32,3.55 66,31"
         inkscape:connector-curvature="0"
         id="path98" /><path
         d="m 3462.2,2559.2 h 116 c -1.37,28.2 -29.64,53.64 -58,54 -28.74,-0.36 -53.05,-22.97 -58,-54"
         inkscape:connector-curvature="0"
         id="path100"
         style="fill:#ffffff" /><path
         d="m 2212.2,1822.2 v -109 h -245 v -128 h 292 v -123 h -412 v 600 h 385 v -114 h -265 v -126 h 245"
         inkscape:connector-curvature="0"
         id="path102" /><path
         d="m 2422.2,2062.2 h 132 l 274,-402 v 402 h 121 v -600 h -132 l -275,402 v -402 h -120 v 600"
         inkscape:connector-curvature="0"
         id="path104" /><path
         d="m 3638.2,1770.2 c -0.11,-182.85 -130.56,-308.18 -281,-308 h -218 v 600 h 233 c 152.49,0.05 265.89,-120.17 266,-292"
         inkscape:connector-curvature="0"
         id="path106" /><path
         d="m 3513.2,1769.2 c -0.45,147.25 -99.35,176.24 -151,176 h -97 v -361 h 85 c 100.32,-0.26 162.55,61.98 163,185"
         inkscape:connector-curvature="0"
         id="path108"
         style="fill:#ffffff" /><path
         d="m 4094.2,1633.2 c 0.47,32.59 -13.17,53.91 -77,67 l -102,21 c -60.96,11.95 -140.25,63.95 -140,165 -0.25,95.9 87.57,188.84 228,189 0,0 157.98,-0.16 237,-94 l -87,-86 c -70.46,60.47 -154,60 -154,60 -54.58,0.47 -86.98,-25.96 -87,-65 0.02,-31.72 23.04,-52.18 126,-67 114.45,-15.03 192.04,-85.79 193,-186 0.74,-83.1 -46.15,-188.82 -254,-189 -118.7,0.18 -174.11,31.72 -256,114 l 102,78 c 56.62,-54.55 95.84,-71.61 161,-72 66.99,0.39 110.47,20.86 110,65"
         inkscape:connector-curvature="0"
         id="path110" /></g></g></svg>