<?xml version="1.0" encoding="UTF-8" standalone="no"?>
<!-- Created with Inkscape (http://www.inkscape.org/) -->
<svg xmlns:dc="http://purl.org/dc/elements/1.1/" xmlns:cc="http://creativecommons.org/ns#" xmlns:rdf="http://www.w3.org/1999/02/22-rdf-syntax-ns#" xmlns:svg="http://www.w3.org/2000/svg" xmlns="http://www.w3.org/2000/svg" xmlns:sodipodi="http://sodipodi.sourceforge.net/DTD/sodipodi-0.dtd" xmlns:inkscape="http://www.inkscape.org/namespaces/inkscape" width="1332.3857" height="500.39999" id="svg2" sodipodi:version="0.32" inkscape:version="0.48.4 r9939" version="1.0" sodipodi:docname="11.svg" inkscape:output_extension="org.inkscape.output.svg.inkscape">
  <defs id="defs4">
    <inkscape:perspective sodipodi:type="inkscape:persp3d" inkscape:vp_x="0 : 300.5 : 1" inkscape:vp_y="0 : 1000 : 0" inkscape:vp_z="601 : 300.5 : 1" inkscape:persp3d-origin="300.5 : 200.33333 : 1" id="perspective3380"/>
    <inkscape:perspective id="perspective3990" inkscape:persp3d-origin="375 : 250 : 1" inkscape:vp_z="750 : 375 : 1" inkscape:vp_y="0 : 1000 : 0" inkscape:vp_x="0 : 375 : 1" sodipodi:type="inkscape:persp3d"/>
  </defs>
  <sodipodi:namedview id="base" pagecolor="#ffffff" bordercolor="#666666" borderopacity="1.0" gridtolerance="10000" guidetolerance="10" objecttolerance="10" inkscape:pageopacity="0.0" inkscape:pageshadow="2" inkscape:zoom="0.41331893" inkscape:cx="696.25468" inkscape:cy="-67.476053" inkscape:document-units="px" inkscape:current-layer="layer1" width="601px" height="601px" inkscape:window-width="1280" inkscape:window-height="1001" inkscape:window-x="-8" inkscape:window-y="-8" showgrid="false" fit-margin-top="0.2" fit-margin-left="0.2" fit-margin-right="0.2" fit-margin-bottom="0.2" inkscape:window-maximized="1" showguides="true" inkscape:guide-bbox="true"/>
  <metadata id="metadata7">
    <rdf:RDF>
      <cc:Work rdf:about="">
        <dc:format>image/svg+xml</dc:format>
        <dc:type rdf:resource="http://purl.org/dc/dcmitype/StillImage"/>
        <dc:title/>
      </cc:Work>
    </rdf:RDF>
  </metadata>
  <g inkscape:label="Layer 1" inkscape:groupmode="layer" id="layer1" transform="translate(3060.2566,3876.9501)">
    <rect style="color:#000000;fill:#000000;fill-opacity:1;fill-rule:nonzero;stroke:none;stroke-width:0.8735441;marker:none;visibility:visible;display:inline;overflow:visible" id="rect3653" width="0" height="27.202072" x="578.73834" y="298.1684" rx="249.48199" ry="27.202072"/>
    <path inkscape:connector-curvature="0" d="m -2997.3345,-3876.7501 c -34.7489,0 -62.7221,27.9374 -62.7221,62.228 0,256.9931 0,118.1274 0,375.1214 0,34.7132 27.9732,62.6506 62.7221,62.6506 235.2074,0 971.3332,0 1206.5415,0 34.7489,0 62.7221,-27.9374 62.7221,-62.6506 0,-256.994 0,-118.1283 0,-375.1214 0,-34.2906 -27.9732,-62.228 -62.7221,-62.228 -235.2083,0 -971.3341,0 -1206.5415,0" style="fill:#000000;fill-opacity:1;fill-rule:evenodd;stroke:none" id="path3351"/>
    <path inkscape:connector-curvature="0" d="m -2997.3345,-3845.8474 c -17.3749,0 -31.3611,14.3974 -31.3611,31.3253 0,256.9931 0,118.1274 0,375.1214 0,17.3505 13.9862,31.3253 31.3611,31.3253 235.2074,0 971.3332,0 1206.5415,0 17.374,0 31.3611,-13.9748 31.3611,-31.3253 0,-256.994 0,-118.1283 0,-375.1214 0,-16.9279 -13.9871,-31.3253 -31.3611,-31.3253 -235.2083,0 -971.3341,0 -1206.5415,0" style="fill:#ffffff;fill-opacity:1;fill-rule:evenodd;stroke:none" id="path3353"/>
    <path inkscape:connector-curvature="0" d="m -2887.5704,-3677.3381 17.374,-16.5157 c 21.621,15.2453 38.995,16.9392 43.6533,16.9392 6.3522,0 12.7166,-5.9287 12.7166,-13.5514 0,-7.6226 -5.5165,-11.4339 -9.3288,-12.7044 -3.8104,-0.8469 -20.3383,-4.2348 -26.6905,-5.5052 -6.788,-1.6939 -27.9732,-7.6226 -27.9732,-33.4427 0,-25.8323 18.2209,-34.714 38.9836,-34.714 21.1976,0 36.4541,5.9174 50.0055,18.1974 l -16.1035,15.6687 c -8.0462,-6.7747 -19.0689,-11.8565 -35.1724,-11.8565 -9.74,0 -11.4462,8.8922 -11.4462,11.8565 0,2.9644 2.1296,9.7401 8.4818,11.0114 5.9288,1.2695 22.4558,5.5053 25.0089,5.5053 6.7757,0.8375 29.6549,9.7278 29.6549,34.2896 0,22.0097 -14.4096,36.8305 -41.5236,36.8305 -27.1272,0 -48.3125,-13.1278 -57.6404,-22.0087" style="fill:#000000;fill-opacity:1;fill-rule:evenodd;stroke:none" id="path3355"/>
    <path inkscape:connector-curvature="0" d="m -2646.0108,-3708.6756 33.4784,0 c 0,-7.6226 -6.3522,-16.5044 -16.9514,-16.5044 -10.1635,0 -16.527,8.4583 -16.527,16.5044 z m -0.4235,16.9392 55.5229,0 c 0.847,-10.587 -3.4,-52.4993 -38.9959,-52.4993 -31.361,0 -38.1367,33.4427 -38.1367,44.0297 0,10.587 6.3531,44.8766 40.6785,44.8766 19.5027,0 29.6662,-11.4339 32.6306,-14.3973 l -13.5514,-12.6931 c 0,0 -6.3635,7.6104 -18.6566,7.6104 -12.7044,0 -19.4914,-8.8809 -19.4914,-16.927" style="fill:#000000;fill-opacity:1;fill-rule:evenodd;stroke:none" id="path3357"/>
    <path inkscape:connector-curvature="0" d="m -2554.4685,-3708.6756 33.4784,0 c 0,-7.6226 -6.3522,-16.5044 -16.528,-16.5044 -10.5982,0 -16.9504,8.4583 -16.9504,16.5044 z m 0,16.9392 55.0881,0 c 0.847,-10.587 -2.9653,-52.4993 -38.5611,-52.4993 -31.3611,0 -38.1368,33.4427 -38.1368,44.0297 0,10.587 6.3532,44.8766 40.2551,44.8766 19.9149,0 30.0897,-11.4339 32.6306,-14.3973 l -13.5627,-12.6931 c 0,0 -5.9287,7.6104 -18.6454,7.6104 -12.2922,0 -19.0678,-8.8809 -19.0678,-16.927" style="fill:#000000;fill-opacity:1;fill-rule:evenodd;stroke:none" id="path3359"/>
    <path inkscape:connector-curvature="0" d="m -2423.0956,-3706.5582 c 0,5.5052 0,11.0105 0,16.5157 0,6.7757 -5.9288,16.9279 -18.6445,16.9279 -12.7166,0 -19.4923,-10.5757 -19.4923,-26.2444 0,-15.6688 8.4696,-23.7149 19.0679,-23.7149 11.0227,0 19.0689,6.3522 19.0689,16.5157 z m 0,-28.7853 c 0,-12.7044 0,-25.8323 0,-38.9593 7.2104,0 14.4096,0 21.621,0 0,38.5358 0,77.4846 0,116.4326 -7.2114,0 -14.4106,0 -21.621,0 0,-1.2695 0,-2.5409 0,-3.8104 0,0 -8.8931,7.1991 -21.6098,7.1991 -13.1391,0 -38.9949,-10.587 -38.9949,-45.301 0,-34.2897 27.1262,-43.6072 37.301,-43.6072 10.1645,0 14.8341,2.5409 23.3037,8.0462" style="fill:#000000;fill-opacity:1;fill-rule:evenodd;stroke:none" id="path3361"/>
    <path inkscape:connector-curvature="0" d="m -2743.9053,-3709.0991 0,15.2453 c 0,8.4696 5.9288,17.3627 18.6445,17.3627 12.7166,0 19.927,-11.8575 19.927,-24.9853 0,-13.5514 -7.2104,-24.5496 -19.927,-24.5496 -12.7157,0 -18.6445,9.3043 -18.6445,16.9269 z m 0,-28.7853 0,-3.8104 -21.6097,0 0,107.5394 21.6097,0 0,-30.067 c 0,0 6.787,8.4696 22.8915,8.4696 29.2314,0 38.1367,-31.3253 38.1367,-44.8767 0,-10.587 -4.2348,-22.4444 -10.5983,-30.0558 -6.3531,-7.1991 -15.2575,-13.9739 -28.3854,-13.9739 -8.0574,-0.4234 -16.5392,2.5409 -22.0445,6.7748" style="fill:#000000;fill-opacity:1;fill-rule:evenodd;stroke:none" id="path3363"/>
    <path inkscape:connector-curvature="0" d="m -2893.5,-3552.4472 -19.9149,6.3531 c -2.1296,-5.9297 -7.2114,-13.1279 -16.5279,-13.1279 -8.9044,0 -19.5037,8.8931 -19.5037,26.6793 0,17.3504 9.3288,26.667 19.5037,26.667 9.74,0 15.6687,-9.3166 16.9514,-14.3984 l 21.1853,4.2348 c -2.5409,11.0105 -15.6801,29.2202 -37.2888,29.2202 -21.622,0 -41.9603,-17.7862 -41.9603,-46.1481 0,-27.9487 22.0322,-44.8766 40.2541,-44.8766 18.2332,0 33.0672,12.2687 37.3011,25.3966" style="fill:#000000;fill-opacity:1;fill-rule:evenodd;stroke:none" id="path3365"/>
    <path inkscape:connector-curvature="0" d="m -2664.6552,-3548.2115 0,57.1576 -21.1862,0 0,-51.2289 c 0,-8.0461 -6.3645,-13.9748 -13.1402,-13.9748 -6.7756,0 -14.4096,5.9287 -14.4096,16.5157 l 0,48.688 -21.6087,0 0,-51.6524 c 0,-7.6226 -6.3645,-13.5513 -12.7167,-13.5513 -5.9287,0 -15.2575,4.6573 -15.2575,16.0922 l 0,49.1115 -21.1853,0 0,-83.8368 21.1853,0 0,5.0817 c 0,0 8.0461,-6.3531 22.0332,-6.3531 12.7157,0 20.3506,8.4696 20.3506,8.4696 -0.4235,0 8.893,-9.3156 23.3027,-9.3156 21.1862,0 32.6324,14.8208 32.6324,28.7966" style="fill:#000000;fill-opacity:1;fill-rule:evenodd;stroke:none" id="path3367"/>
    <path inkscape:connector-curvature="0" d="m -2830.7779,-3529.5784 0,16.08 c 0,6.3522 -12.2923,5.9287 -14.4097,5.9287 -1.6939,0 -14.834,0 -14.834,-10.1635 0,-10.9992 15.681,-11.4217 29.2437,-11.8452 z m 21.6097,15.6565 0,-43.6071 c 0,-11.433 -10.5993,-19.8913 -33.902,-19.8913 -18.2209,0 -30.514,8.0348 -34.7488,10.5757 l 9.3165,16.5157 c 7.2114,-5.0827 22.0445,-8.0461 28.3967,-8.0461 6.3635,0 9.3279,4.6583 9.3279,7.1991 l 0,5.0818 c -7.634,0 -25.8559,2.9644 -33.0541,5.5052 -7.2114,2.5409 -18.2218,7.1983 -18.2218,23.7027 0,16.9392 16.9504,27.9497 33.9019,27.9497 14.8331,0 19.9148,-8.8931 19.9148,-8.8931 0,0 7.1992,8.8931 19.9158,9.3165 l 8.9044,-17.3626 c -10.1748,-1.694 -9.7513,-5.5053 -9.7513,-8.0462" style="fill:#000000;fill-opacity:1;fill-rule:evenodd;stroke:none" id="path3369"/>
    <path inkscape:connector-curvature="0" d="m -2431.5652,-3529.5784 0,16.08 c 0,6.3522 -11.8697,5.9287 -13.9871,5.9287 -2.1174,0 -14.8331,0 -14.8331,-10.1635 0,-10.9992 15.68,-11.4217 28.8202,-11.8452 z m 22.0322,15.6565 0,-43.6071 c 0,-11.433 -10.5983,-19.8913 -33.9019,-19.8913 -18.2209,0 -30.5141,8.0348 -35.1724,10.5757 l 9.3166,16.5157 c 7.2114,-5.0827 22.4689,-8.0461 28.8201,-8.0461 6.3522,0 8.9054,4.6583 8.9054,7.1991 l 0,5.0818 c -7.2105,0 -25.8558,2.9644 -33.055,5.5052 -6.7879,2.5409 -18.2332,7.1983 -18.2332,23.7027 0,16.9392 16.9505,27.9497 34.3367,27.9497 14.3983,0 19.4923,-8.8931 19.4923,-8.8931 0,0 7.6227,8.8931 19.9149,9.3165 l 8.9053,-17.3626 c -10.1758,-1.694 -9.3288,-5.5053 -9.3288,-8.0462" style="fill:#000000;fill-opacity:1;fill-rule:evenodd;stroke:none" id="path3371"/>
    <path inkscape:connector-curvature="0" d="m -2392.5816,-3505.0288 16.1036,-13.9748 c 5.9296,6.7757 19.0688,12.7044 24.5853,12.7044 5.9288,0 11.0105,-4.2348 11.0105,-8.4696 0,-4.2348 -3.3869,-5.9287 -6.3512,-6.7757 -2.9653,-0.847 -13.9871,-3.3878 -16.1045,-4.2348 -2.1174,-0.4235 -22.0445,-3.7991 -22.0445,-24.1271 0,-20.7505 22.0445,-25.8322 34.7602,-25.8322 13.1401,0 24.9975,3.8122 33.9019,12.2818 l -13.5626,14.8218 c -8.0584,-7.1991 -13.5636,-9.74 -19.9158,-9.74 -6.787,0 -11.8688,2.5409 -11.8688,7.6226 0,5.0818 3.8113,5.5053 5.9287,6.3513 1.694,0.4235 15.6801,3.3878 19.0679,4.2357 3.4001,0.4235 19.9271,5.5053 19.9271,24.9731 0,19.0566 -18.2209,27.1027 -35.5958,27.1027 -16.9627,0 -34.3367,-9.3165 -39.842,-16.9392" style="fill:#000000;fill-opacity:1;fill-rule:evenodd;stroke:none" id="path3373"/>
    <path inkscape:connector-curvature="0" d="m -2621.8489,-3541.8602 33.0549,0 c 0,-7.6227 -5.9409,-16.5148 -16.5279,-16.5148 -10.5983,0 -16.527,8.4686 -16.527,16.5148 z m -0.4235,16.5044 55.0882,0 c 1.2695,-10.1513 -2.9644,-52.0645 -38.5612,-52.0645 -31.361,0 -38.148,33.4427 -38.148,44.0297 0,10.5757 6.3635,44.8775 40.6889,44.8775 19.4923,0 29.6671,-11.4339 32.208,-14.3983 l -13.1392,-13.1279 c 0,0 -6.3522,8.0462 -18.6453,8.0462 -12.7157,0 -19.4914,-8.8931 -19.4914,-17.3627" style="fill:#000000;fill-opacity:1;fill-rule:evenodd;stroke:none" id="path3375"/>
    <path inkscape:connector-curvature="0" d="m -2497.6874,-3555.8341 0,-20.7515 c -20.7618,-0.4235 -23.7262,5.0827 -28.8079,10.1645 l 0,-8.4696 -21.621,0 0,83.4133 21.621,0 0,-41.4898 c 0,-12.7034 13.5626,-22.8669 28.8079,-22.8669" style="fill:#000000;fill-opacity:1;fill-rule:evenodd;stroke:none" id="path3377"/>
    <path inkscape:connector-curvature="0" d="m -2098.263,-3793.7715 -88.5656,0 c -23.0571,0 -41.7486,18.6679 -41.7486,41.7014 l 0,250.2174 c 0,23.0326 18.6915,41.7015 41.7486,41.7015 l 177.1435,0 c 23.0562,0 41.7476,-18.6689 41.7476,-41.7015 l 0,-250.2174 c 0,-23.0335 -18.6914,-41.7014 -41.7476,-41.7014 l -88.5779,0 z m -26.0553,161.7335 0,0 c 37.43,0 67.8029,30.3382 67.8029,67.7343 0,37.3951 -30.3729,67.7445 -67.8029,67.7445 -37.4309,0 -67.8038,-30.3494 -67.8038,-67.7445 0,-37.3961 30.3729,-67.7343 67.8038,-67.7343 z m 0,19.8923 0,0 c 26.4318,0 47.8881,21.4328 47.8881,47.842 0,26.4082 -21.4563,47.841 -47.8881,47.841 -26.4327,0 -47.889,-21.4328 -47.889,-47.841 0,-26.4092 21.4563,-47.842 47.889,-47.842 z m 83.4839,-158.7692 0,0 c 21.9862,0 39.8307,17.8332 39.8307,39.8071 0,21.9617 -17.8445,39.7949 -39.8307,39.7949 -21.9861,0 -39.8306,-17.8332 -39.8306,-39.7949 0,-21.9739 17.8445,-39.8071 39.8306,-39.8071 z m 0,19.0556 0,0 c 11.4575,0 20.7618,9.2931 20.7618,20.7515 0,11.4452 -9.3043,20.7383 -20.7618,20.7383 -11.4575,0 -20.7627,-9.2931 -20.7627,-20.7383 0,-11.4584 9.3052,-20.7515 20.7627,-20.7515 z m 106.3754,13.9749 -16.9505,0 0,189.2494 16.9505,0 0,-189.2494 z m 16.5279,11.8584 16.9515,0 0,177.391 -16.9515,0 0,-177.391 z m 33.4785,193.0588 0,-166.8153 17.3749,0 0,31.3253 55.5107,0 0,104.1535 -55.5107,0 0,52.0758 -84.3318,0 0,-20.7393 66.9569,0" style="fill:#000000;fill-opacity:1;fill-rule:evenodd;stroke:none" id="path3379"/>
  </g>
</svg>