<?xml version="1.0" encoding="UTF-8" standalone="no"?>
<!-- Created with Inkscape (http://www.inkscape.org/) -->
<svg xmlns:dc="http://purl.org/dc/elements/1.1/" xmlns:cc="http://creativecommons.org/ns#" xmlns:rdf="http://www.w3.org/1999/02/22-rdf-syntax-ns#" xmlns:svg="http://www.w3.org/2000/svg" xmlns="http://www.w3.org/2000/svg" version="1.1" width="600" height="661.33002" id="svg2" xml:space="preserve"><defs id="defs26"/><metadata id="metadata4"><rdf:RDF><cc:Work rdf:about=""><dc:format>image/svg+xml</dc:format><dc:type rdf:resource="http://purl.org/dc/dcmitype/StillImage"/><dc:title/></cc:Work></rdf:RDF></metadata><path d="m 599.29697,623.45195 c 0,20.5325 -15.34125,37.1775 -34.265,37.1775 H 34.96947 c -18.92375,0 -34.265,-16.645 -34.265,-37.1775 v -585.575 c 0,-20.5325 15.34125,-37.1775 34.265,-37.1775 h 530.0625 c 18.92375,0 34.265,16.645 34.265,37.1775 v 585.575" id="path8" style="fill:#ffffff;fill-rule:nonzero"/><path d="m 599.29697,623.45195 c 0,20.5325 -15.34125,37.1775 -34.265,37.1775 H 34.96947 c -18.92375,0 -34.265,-16.645 -34.265,-37.1775 v -585.575 c 0,-20.5325 15.34125,-37.1775 34.265,-37.1775 h 530.0625 c 18.92375,0 34.265,16.645 34.265,37.1775 v 585.575 z" id="path10" style="fill:none;stroke:#ec1d24;stroke-width:1.40657163;stroke-linecap:butt;stroke-linejoin:miter;stroke-miterlimit:4;stroke-opacity:1;stroke-dasharray:none"/><path d="m 581.49822,623.45195 c 0,9.87075 -7.37425,17.87125 -16.47125,17.87125 H 34.96447 c -9.09725,0 -16.47125,-8.00112 -16.47125,-17.87125 v -585.575 c 0,-9.87075 7.37425,-17.87125 16.47125,-17.87125 h 530.0625 c 9.09725,0 16.47125,8.001125 16.47125,17.87125 v 585.5625" id="path12" style="fill:#ec1d24;fill-opacity:1;fill-rule:nonzero"/><path d="m 384.59447,54.7107 0,143.025 -167.3125,0 0,-143.025 -59.8875,0 0,357.65 59.8875,0 0,-161.65 167.3125,0 0,161.65 59.8875,0 0,-357.65 -59.8875,0" id="path14" style="fill:#ffffff;fill-rule:nonzero"/><path d="m 152.59197,481.32812 -33.938,100.94 18,0 6.0938,-18.656 41.25,0 6.2812,18.656 16.938,0 -33.688,-100.94 -20.938,0 z m 10.25,20.312 15.906,47.531 -30.781,0 14.875,-47.531 z" id="path18" style="fill:#ffffff;fill-rule:nonzero"/><path d="m 296.84197,482.16812 c -13.056,-0.089 -23.02,12.617 -23.031,23.656 0,0 0.01,11.511 6.2812,17.812 -16.963,7.999 -16.938,27.406 -16.938,27.406 -0.002,16.249 14.877,32.287 32.875,32.25 8.5836,0.0367 10.579,-0.0932 21.75,-6.6875 5.7306,5.0046 8.6478,6.8784 16.781,6.9062 0,0 5.4294,-0.0402 9.4062,-1.6875 l -1.6875,-14.656 c -1.2913,0.12565 -5.0458,0.7 -6.2812,0.625 0,0 -4.2317,0.0878 -6.4688,-2.5 0,0 10.449,-13.299 10.656,-27.219 h -15.906 c -0.90564,8.5749 -4.5938,13.406 -4.5938,13.406 l -16.344,-21.781 c 17.432,-7.8961 17.375,-24.094 17.375,-24.094 0.0523,-12.852 -9.6289,-23.526 -23.875,-23.438 z m 1.6875,14.656 c 4.4811,-0.0122 7.2409,3.2906 7.3438,7.9375 -0.10295,5.4653 -7.6263,11.265 -12.156,12.375 -3.5598,-4.2892 -3.9829,-6.9099 -3.9688,-10.281 -0.014,-5.296 2.4277,-10.044 8.7812,-10.031 z m -10.469,38.312 19.906,27.656 c -4.509,5.1006 -12.156,5 -12.156,5 -8.8314,0.075 -17.349,-9.2954 -17.375,-17.781 0,0 0.0188,-10.158 9.625,-14.875 z" id="path20" style="fill:#ffffff;fill-rule:nonzero"/><path d="m 468.55697,523.20562 0,14.8675 -42.08875,0 0,28.8975 48.58,0 0,15.28625 -66.58875,0 0,-100.93 63.6575,0 0,15.07625 -46.69625,0 0,26.8025 43.13625,0" id="path22" style="fill:#ffffff;fill-rule:nonzero"/></svg>