<?xml version="1.0" encoding="UTF-8" standalone="no"?>
<!-- Created with Inkscape (http://www.inkscape.org/) -->

<svg
   xmlns:dc="http://purl.org/dc/elements/1.1/"
   xmlns:cc="http://creativecommons.org/ns#"
   xmlns:rdf="http://www.w3.org/1999/02/22-rdf-syntax-ns#"
   xmlns:svg="http://www.w3.org/2000/svg"
   xmlns="http://www.w3.org/2000/svg"
   xmlns:inkscape="http://www.inkscape.org/namespaces/inkscape"
   version="1.1"
   width="340.75"
   height="340.88"
   id="svg2"
   xml:space="preserve"><defs
     id="defs14" /><metadata
     id="metadata8"><rdf:RDF><cc:Work
         rdf:about=""><dc:format>image/svg+xml</dc:format><dc:type
           rdf:resource="http://purl.org/dc/dcmitype/StillImage" /></cc:Work></rdf:RDF></metadata><g
     transform="matrix(1.25,0,0,-1.25,-201.28,669.03)"
     id="g10"><g
       transform="scale(0.1,0.1)"
       id="g12"><path
         d="m 2973.2,5352.2 c 752.77,-0.4 1363.1,-610.77 1363,-1364 0.14,-752.59 -610.23,-1363 -1363,-1363 -753.04,0.04 -1363.4,610.41 -1363,1363 -0.42,753.23 609.96,1363.6 1363,1364"
         inkscape:connector-curvature="0"
         id="path14"
         style="fill:#ec1d24" /><path
         d="m 2973.2,5080.2 c 602.82,0.07 1091.6,-488.73 1092,-1092 -0.38,-602.63 -489.18,-1091.4 -1092,-1091 -603.09,-0.44 -1091.9,488.37 -1092,1091 0.11,603.27 488.91,1092.1 1092,1092"
         inkscape:connector-curvature="0"
         id="path16"
         style="fill:#ffffff" /><path
         d="m 2847.2,3844.2 c 0.09,-178.35 -66.15,-371.31 -347,-371 -264.89,-0.31 -404.57,176.81 -405,522 0.43,353.2 124.27,520.23 398,520 182.73,0.23 280.65,-60.25 332,-217 l -185,-69 c -20.42,47.2 -53.54,101.91 -163,102 -107.98,-0.09 -184.3,-96.56 -173,-218 30.46,29.28 122.62,72.48 216,72 206.13,0.48 327.09,-124.8 327,-341"
         inkscape:connector-curvature="0"
         id="path18" /><path
         d="m 2647.2,3834.2 c -0.06,96.6 -66.3,167.16 -161,167 -99.7,0.16 -168.82,-70.4 -169,-174 0.18,-100.87 69.3,-168.55 166,-169 97.7,0.45 163.94,71.01 164,176"
         inkscape:connector-curvature="0"
         id="path20"
         style="fill:#ffffff" /><path
         d="m 3466.2,3457.2 c -285.12,-0.15 -429.12,184.17 -429,525 -0.12,359 149.64,533.23 428,533 291.87,0.23 430.11,-188.41 430,-531 0.11,-339.95 -141.01,-527.15 -429,-527"
         inkscape:connector-curvature="0"
         id="path22" /><path
         d="m 3467.2,4322.2 c -150.76,0.27 -217,-110.6 -217,-337 0,-209.91 70.56,-335.19 217,-335 148.75,-0.19 216.43,112.13 216,335 0.43,219.2 -67.25,337.27 -216,337"
         inkscape:connector-curvature="0"
         id="path24"
         style="fill:#ffffff" /></g></g></svg>