<?xml version="1.0" encoding="UTF-8" standalone="no"?>
<svg xmlns:dc="http://purl.org/dc/elements/1.1/" xmlns:cc="http://creativecommons.org/ns#" xmlns:rdf="http://www.w3.org/1999/02/22-rdf-syntax-ns#" xmlns:svg="http://www.w3.org/2000/svg" xmlns="http://www.w3.org/2000/svg" xmlns:sodipodi="http://sodipodi.sourceforge.net/DTD/sodipodi-0.dtd" xmlns:inkscape="http://www.inkscape.org/namespaces/inkscape" width="900.39996" height="900.40015" viewBox="-50 -30 90.039916 90.040023" id="svg2" version="1.1" inkscape:version="0.48.4 r9939" sodipodi:docname="AJAX.svg">
  <metadata id="metadata14">
    <rdf:RDF>
      <cc:Work rdf:about="">
        <dc:format>image/svg+xml</dc:format>
        <dc:type rdf:resource="http://purl.org/dc/dcmitype/StillImage"/>
        <dc:title/>
      </cc:Work>
    </rdf:RDF>
  </metadata>
  <defs id="defs12"/>
  <sodipodi:namedview pagecolor="#ffffff" bordercolor="#666666" borderopacity="1" objecttolerance="10" gridtolerance="10" guidetolerance="10" inkscape:pageopacity="0" inkscape:pageshadow="2" inkscape:window-width="1920" inkscape:window-height="1057" id="namedview10" showgrid="false" fit-margin-top="0.2" fit-margin-left="0.2" fit-margin-right="0.2" fit-margin-bottom="0.2" inkscape:zoom="0.45254834" inkscape:cx="319.69503" inkscape:cy="314.22771" inkscape:window-x="-8" inkscape:window-y="-8" inkscape:window-maximized="1" inkscape:current-layer="svg2" showguides="true" inkscape:guide-bbox="true" inkscape:showpageshadow="true" borderlayer="false" showborder="true"/>
  <path sodipodi:nodetypes="sssss" style="fill:#ec1d24;fill-opacity:1;stroke:none" d="m -4.9800268,60.020021 c -24.8528362,0 -45.0000172,-20.147186 -45.0000172,-45.000021 0,-24.852797 20.147181,-45 45.0000172,-45 24.8528008,0 44.9999898,20.147203 44.9999898,45 0,24.852835 -20.147189,45.000021 -44.9999898,45.000021 z" id="path4310" inkscape:connector-curvature="0"/>
  <path inkscape:connector-curvature="0" id="path4312" d="m -4.9800308,51.020021 c -19.8822662,0 -36.0000122,-16.117753 -36.0000122,-36.000021 0,-19.882241 16.117746,-35.999999 36.0000122,-35.999999 19.8822448,0 35.9999938,16.117758 35.9999938,35.999999 0,19.882268 -16.117749,36.000021 -35.9999938,36.000021 z" style="fill:#ffffff;fill-opacity:1;stroke:none" sodipodi:nodetypes="sssss"/>
  <path style="fill:#000000;fill-rule:nonzero;stroke:none" d="m -14.775323,2.496414 c 0.927272,0.0077 3.136689,0.483183 3.580207,3.215983 l 1.030606,6.554051 c 0,0 1.9008492,0.121277 1.8811612,2.125369 l 0,5.885609 c 0,0 0.112038,1.116278 -0.970589,1.759056 l 0,4.612951 c 0,0 -0.711425,0.959669 -2.1833072,0.970584 -1.474536,-0.01086 -2.065345,-1.0306 -2.065345,-1.0306 l 0,-4.188704 c 0,0 -5.912075,0.305295 -8.472467,0.304216 -2.560392,0.0013 -8.472465,-0.304216 -8.472465,-0.304216 l 0,4.188704 c 0,0 -0.590809,1.019745 -2.065344,1.0306 -1.471881,-0.01092 -2.183306,-0.970584 -2.183306,-0.970584 l 0,-4.612951 c -1.082628,-0.642778 -0.970589,-1.759056 -0.970589,-1.759056 l 0,-5.885609 c -0.01969,-2.004092 1.881162,-2.125369 1.881162,-2.125369 l 1.030602,-6.554051 c 0.443519,-2.7328 2.652936,-3.208231 3.580208,-3.215983 l 7.199732,0 z" id="path3814" inkscape:connector-curvature="0" sodipodi:nodetypes="ccccccccccccccccccccccc"/>
  <path style="fill:#ffffff;fill-rule:nonzero;stroke:none" d="m -19.715886,4.566414 c 0.357459,0.01611 4.292328,0.292957 4.489382,0.304123 1.204654,0.144383 2.564558,0.862064 2.912926,2.546743 l 0.242055,1.94264 c 0,0 0.34503,1.712352 -1.456464,1.698516 -1.424842,0.01361 -6.605556,-0.289596 -8.447072,-0.304124 -1.841515,0.01449 -7.022228,0.31779 -8.447071,0.304124 -1.801492,0.01383 -1.456463,-1.698516 -1.456463,-1.698516 l 0.242055,-1.94264 c 0.348369,-1.684679 1.708272,-2.40236 2.912927,-2.546743 0.197054,-0.01118 4.131921,-0.288037 4.489379,-0.304123 l 2.259173,0 2.259173,0 z" id="path3816" inkscape:connector-curvature="0"/>
  <path sodipodi:nodetypes="ccccccccccccccccccccccc" inkscape:connector-curvature="0" id="path3869" d="m 4.8152112,2.496414 c -0.92727,0.0077 -3.13668,0.483183 -3.5802,3.215983 l -1.03061,6.554051 c 0,0 -1.900849,0.121277 -1.881159,2.125369 l 0,5.885609 c 0,0 -0.11204,1.116278 0.97059,1.759056 l 0,4.612951 c 0,0 0.711419,0.959669 2.183309,0.970584 1.47453,-0.01086 2.06534,-1.0306 2.06534,-1.0306 l 0,-4.188704 c 0,0 5.91208,0.305295 8.4724708,0.304216 2.56039,0.0013 8.472461,-0.304216 8.472461,-0.304216 l 0,4.188704 c 0,0 0.590812,1.019745 2.065347,1.0306 1.471881,-0.01092 2.183306,-0.970584 2.183306,-0.970584 l 0,-4.612951 c 1.082628,-0.642778 0.970589,-1.759056 0.970589,-1.759056 l 0,-5.885609 c 0.01969,-2.004092 -1.881162,-2.125369 -1.881162,-2.125369 L 22.794891,5.712397 C 22.351372,2.979597 20.141953,2.504166 19.214682,2.496414 l -7.19973,0 z" style="fill:#ec1d24;fill-opacity:1;fill-rule:nonzero;stroke:none"/>
  <path inkscape:connector-curvature="0" id="path3871" d="m 14.274116,4.566414 c 0.35746,0.01611 4.29233,0.292957 4.48938,0.304123 1.20466,0.144383 2.56456,0.862064 2.91293,2.546743 l 0.24206,1.94264 c 0,0 0.34503,1.712352 -1.45647,1.698516 -1.42484,0.01361 -6.60555,-0.289596 -8.44707,-0.304124 -1.841521,0.01449 -7.0222308,0.31779 -8.4470718,0.304124 -1.801493,0.01383 -1.456464,-1.698516 -1.456464,-1.698516 l 0.242055,-1.94264 c 0.348369,-1.684679 1.708269,-2.40236 2.91293,-2.546743 0.19705,-0.01118 4.13192,-0.288037 4.48938,-0.304123 l 2.2591708,0 2.25917,0 z" style="fill:#ffffff;fill-rule:nonzero;stroke:none"/>
</svg>