<?xml version="1.0" encoding="UTF-8" standalone="no"?>
<!-- Created with Inkscape (http://www.inkscape.org/) -->

<svg
   xmlns:dc="http://purl.org/dc/elements/1.1/"
   xmlns:cc="http://creativecommons.org/ns#"
   xmlns:rdf="http://www.w3.org/1999/02/22-rdf-syntax-ns#"
   xmlns:svg="http://www.w3.org/2000/svg"
   xmlns="http://www.w3.org/2000/svg"
   xmlns:inkscape="http://www.inkscape.org/namespaces/inkscape"
   version="1.1"
   width="494.70001"
   height="212.25"
   id="svg2"
   xml:space="preserve"><defs
     id="defs17" /><metadata
     id="metadata8"><rdf:RDF><cc:Work
         rdf:about=""><dc:format>image/svg+xml</dc:format><dc:type
           rdf:resource="http://purl.org/dc/dcmitype/StillImage" /></cc:Work></rdf:RDF></metadata><g
     transform="matrix(1.25,0,0,-1.25,-2.0625,212.36)"
     id="g10"><path
       d="M 397.41,32.85 C 397.38,14.788 382.71,0.125 364.65,0.09 H 34.41 C 16.288,0.12501 1.625,14.788 1.65,32.85 v 104.28 c -0.0249,18.082 14.638,32.745 32.76,32.76 h 330.24 c 18.062,-0.015 32.725,-14.678 32.76,-32.76 V 32.85"
       inkscape:connector-curvature="0"
       id="path12" /><path
       d="M 380.37,32.85 C 380.368,24.18 373.32,17.131 364.65,17.13 H 34.41 c -8.73,0.001 -15.778,7.05 -15.72,15.72 v 104.28 c -0.058,8.69 6.99,15.739 15.72,15.72 h 330.24 c 8.67,0.019 15.718,-7.03 15.72,-15.72 V 32.85"
       inkscape:connector-curvature="0"
       id="path14"
       style="fill:#ffffff" /><path
       d="m 93.21,75.09 c 0.002,3.443 -1.445,5.704 -8.28,7.08 l -10.8,2.28 c -6.426,1.229 -14.838,6.747 -14.88,17.4 0.042,10.242 9.359,20.101 24.24,20.16 0,0 16.778,-0.059 25.2,-9.96 l -9.24,-9.24 c -7.504,6.478 -16.32,6.48 -16.32,6.48 -5.837,-0.002 -9.275,-2.807 -9.24,-6.96 -0.035,-3.354 2.408,-5.525 13.32,-7.08 12.153,-1.611 20.385,-9.119 20.52,-19.68 0.046,-8.886 -4.929,-20.103 -27,-20.16 -12.573,0.057 -18.453,3.404 -27.12,12.12 l 10.8,8.28 c 6.008,-5.78 10.169,-7.589 17.04,-7.56 7.149,-0.029 11.762,2.142 11.76,6.84"
       inkscape:connector-curvature="0"
       id="path16" /><path
       d="m 117.81,79.29 c -0.003,14.349 7.504,24.661 22.2,24.72 8.732,-0.059 17.325,-5.758 20.52,-15.12 l -11.76,-4.44 c -1.566,5.119 -4.641,8.465 -9.36,8.52 -6.317,-0.055 -8.849,-6.206 -8.88,-13.68 0.031,-7.993 2.383,-13.24 9.12,-13.2 4.569,-0.04 7.012,2.493 9.12,8.28 l 12.12,-4.44 c -4.098,-10.302 -10.339,-14.734 -21.12,-14.76 -14.456,0.026 -21.963,9.524 -21.96,24.12"
       inkscape:connector-curvature="0"
       id="path18" /><path
       d="m 193.29,103.89 c 9.382,-0.03 17.342,-8.351 17.4,-19.2 V 56.97 h -12.48 v 27.96 c 0.029,4.819 -2.503,7.443 -7.92,7.44 -5.709,0.003 -8.604,-4.52 -8.64,-9.6 v -25.8 h -12.12 v 63.84 h 12.12 V 99.57 c 4.921,3.657 7.544,4.29 11.64,4.32"
       inkscape:connector-curvature="0"
       id="path20" /><path
       d="m 220.05,79.29 c -0.006,18.51 10.849,25.294 21.72,25.32 9.843,-0.026 22.145,-6.81 22.2,-25.32 -0.055,-13.692 -9.01,-24.004 -21.6,-24 -13.823,-0.004 -22.326,9.494 -22.32,24"
       inkscape:connector-curvature="0"
       id="path22" /><path
       d="m 251.49,79.29 c 0.033,10.731 -3.676,14.078 -9.12,14.04 -6.858,0.038 -9.662,-5.571 -9.72,-14.04 0.058,-7.45 3.676,-13.059 9.72,-13.08 5.987,0.021 9.153,5.63 9.12,13.08"
       inkscape:connector-curvature="0"
       id="path24"
       style="fill:#ffffff" /><path
       d="m 271.89,79.29 c -0.06,18.51 10.795,25.294 21.6,25.32 9.909,-0.026 22.21,-6.81 22.2,-25.32 0.01,-13.692 -8.945,-24.004 -21.48,-24 -13.877,-0.004 -22.38,9.494 -22.32,24"
       inkscape:connector-curvature="0"
       id="path26" /><path
       d="m 303.33,79.29 c -0.022,10.731 -3.731,14.078 -9.12,14.04 -6.912,0.038 -9.716,-5.571 -9.72,-14.04 0.004,-7.45 3.622,-13.059 9.72,-13.08 5.932,0.021 9.098,5.63 9.12,13.08"
       inkscape:connector-curvature="0"
       id="path28"
       style="fill:#ffffff" /><path
       d="m 326.97,120.93 h 12.12 V 74.01 c -0.007,-4.884 0.808,-6.06 3.48,-6.24 1.488,-0.091 2.755,-10e-4 4.44,0.48 l 1.2,-10.68 c -4.242,-1.108 -8.312,-1.831 -11.16,-1.8 -3.032,-0.031 -10.087,0.964 -10.08,11.64 v 53.52"
       inkscape:connector-curvature="0"
       id="path30" /></g></svg>