<?xml version="1.0" encoding="UTF-8" standalone="no"?>
<!-- Created with Inkscape (http://www.inkscape.org/) -->

<svg
   xmlns:dc="http://purl.org/dc/elements/1.1/"
   xmlns:cc="http://creativecommons.org/ns#"
   xmlns:rdf="http://www.w3.org/1999/02/22-rdf-syntax-ns#"
   xmlns:svg="http://www.w3.org/2000/svg"
   xmlns="http://www.w3.org/2000/svg"
   xmlns:inkscape="http://www.inkscape.org/namespaces/inkscape"
   version="1.1"
   width="519.59998"
   height="245.55"
   id="svg2"
   xml:space="preserve"><defs
     id="defs27" /><metadata
     id="metadata8"><rdf:RDF><cc:Work
         rdf:about=""><dc:format>image/svg+xml</dc:format><dc:type
           rdf:resource="http://purl.org/dc/dcmitype/StillImage" /></cc:Work></rdf:RDF></metadata><g
     transform="matrix(1.25,0,0,-1.25,-1.4623,246.49)"
     id="g10"><path
       d="M 416.85,25.95 C 416.88,12.051 405.6,0.771 391.65,0.75 H 26.37 C 12.399,0.77121 1.119,12.051 1.17,25.95 v 146.04 c -0.0514,13.959 11.229,25.239 25.2,25.2 h 365.28 c 13.951,0.039 25.231,-11.241 25.2,-25.2 V 25.95"
       inkscape:connector-curvature="0"
       id="path12" /><path
       d="m 403.77,25.95 c 0.028,-6.674 -5.394,-12.096 -12.12,-12.12 H 26.37 c -6.746,0.024 -12.169,5.446 -12.12,12.12 v 146.04 c -0.049,6.734 5.374,12.156 12.12,12.12 h 365.28 c 6.726,0.036 12.148,-5.386 12.12,-12.12 V 25.95"
       inkscape:connector-curvature="0"
       id="path14"
       style="fill:#ffffff" /><path
       d="m 72.81,141.15 v 18.36 h 9.84 v -47.64 h -9.84 v 19.92 H 53.25 v -19.92 h -9.84 v 47.64 h 9.84 v -18.36 h 19.56"
       inkscape:connector-curvature="0"
       id="path16" /><path
       d="m 112.53,112.11 c -1.422,-0.731 -2.98,-0.866 -4.56,-0.84 -7.499,-0.026 -13.056,5.462 -13.08,12.36 v 22.56 h 9 v -19.56 c 0.036,-3.935 1.933,-6.781 5.76,-6.84 4.372,0.059 7.15,2.363 7.2,5.76 v 20.64 h 9.12 v -34.32 h -9.48 v 2.52 c -1.655,-1.52 -2.468,-1.791 -3.96,-2.28"
       inkscape:connector-curvature="0"
       id="path18" /><path
       d="m 171.33,138.39 c -4.005,-0.043 -5.902,-2.957 -5.88,-6.6 v -19.92 h -9.48 v 19.68 c 0.04,4.628 -1.789,6.797 -4.8,6.84 -3.697,-0.043 -6.001,-3.16 -6,-6.6 v -19.92 h -9.12 v 34.32 h 9.12 v -2.64 c 2.845,2.589 4.742,3.537 7.8,3.48 4.463,0.057 5.886,-0.552 9.36,-4.32 3.64,3.7 6.215,4.513 10.08,4.56 7.383,-0.047 12.871,-6.823 12.84,-14.04 v -21.36 h -9.24 v 19.68 c 0.056,4.628 -1.773,6.797 -4.68,6.84"
       inkscape:connector-curvature="0"
       id="path20" /><path
       d="m 227.97,128.67 c 0.028,-10.176 -5.799,-17.426 -14.64,-17.4 -4.71,-0.026 -5.388,0.448 -9.6,3.12 v -12.72 h -9.12 v 44.76 h 9.12 v -1.8 c 2.925,2.322 4.754,3.338 8.64,3.36 10.276,-0.022 15.628,-7.678 15.6,-19.32"
       inkscape:connector-curvature="0"
       id="path22" /><path
       d="m 203.73,126.03 c 0.012,-3.606 4.009,-6.723 7.56,-6.72 5.258,-0.003 7.222,4.062 7.2,10.08 0.022,6.45 -1.942,10.244 -7.44,10.2 -6.699,0.044 -7.308,-5.851 -7.32,-8.28 v -5.28"
       inkscape:connector-curvature="0"
       id="path24"
       style="fill:#ffffff" /><path
       d="m 247.17,133.59 5.64,-0.84 c 6.069,-0.84 9.66,-5.041 9.6,-10.44 0.06,-6.865 -5.7,-11.676 -13.92,-11.64 -7.093,-0.036 -11.903,1.726 -16.44,6.24 l 6.72,6 c 2.831,-2.858 5.947,-4.484 9.24,-4.44 2.738,-0.044 4.906,1.108 4.92,2.88 -0.014,1.413 -1.437,2.768 -4.32,3.36 l -5.88,1.08 c -5.33,1.038 -8.447,5.036 -8.4,9.72 -0.047,6.902 5.306,11.306 14.16,11.28 4.765,0.026 8.83,-0.787 13.56,-5.04 l -5.76,-6.24 c -2.425,2.837 -4.932,3.718 -8.04,3.72 -2.652,-0.002 -4.481,-1.493 -4.44,-3.24 -0.041,-1.099 0.569,-2.115 3.36,-2.4"
       inkscape:connector-curvature="0"
       id="path26" /><path
       d="m 303.45,146.31 h 6.72 v -7.92 h -6.72 v -26.28 h -9.12 v 26.28 h -5.4 v 7.92 h 5.4 v 4.2 c 0.016,5.25 3.404,9.248 9,9.24 2.263,0.008 6.735,-0.399 9,-0.84 l -1.56,-7.56 c -2.67,0.006 -3.6,0 -3.6,0 -2.661,0.006 -3.677,0.006 -3.72,-3.36 v -1.68"
       inkscape:connector-curvature="0"
       id="path28" /><path
       d="m 316.29,128.55 c -0.03,13.93 8.101,19.012 16.2,18.96 7.417,0.052 16.632,-5.03 16.68,-18.96 -0.048,-10.191 -6.756,-17.916 -16.2,-17.88 -10.34,-0.036 -16.71,7.079 -16.68,17.88"
       inkscape:connector-curvature="0"
       id="path30" /><path
       d="m 339.81,128.55 c 0.03,8.103 -2.748,10.61 -6.84,10.56 -5.123,0.05 -7.224,-4.151 -7.2,-10.56 -0.024,-5.516 2.687,-9.717 7.2,-9.72 4.498,0.003 6.87,4.204 6.84,9.72"
       inkscape:connector-curvature="0"
       id="path32"
       style="fill:#ffffff" /><path
       d="m 366.69,142.83 c 1.982,2.699 5.438,3.986 9,3.96 0.436,0.026 0.842,0.026 1.68,0 v -8.88 c -3.006,-0.173 -3.84,-0.12 -3.84,-0.12 -3.909,-0.189 -7.094,-2.899 -7.08,-8.4 v -17.52 h -9.12 v 34.44 h 9.12 l 0.24,-3.48"
       inkscape:connector-curvature="0"
       id="path34" /><path
       d="m 214.29,70.59 c -3.953,-0.003 -5.851,-2.916 -5.88,-6.6 V 44.07 h -9.36 v 19.68 c -0.029,4.669 -1.858,6.837 -4.8,6.84 -3.766,-0.003 -6.07,-3.12 -6.12,-6.6 V 44.07 h -9 v 34.32 h 9 v -2.64 c 2.896,2.629 4.793,3.578 7.92,3.6 4.394,-0.022 5.817,-0.632 9.24,-4.32 3.692,3.62 6.266,4.433 10.08,4.44 7.434,-0.007 12.922,-6.782 12.96,-13.92 V 44.07 h -9.24 v 19.68 c -0.013,4.669 -1.842,6.837 -4.8,6.84"
       inkscape:connector-curvature="0"
       id="path36" /><path
       d="m 238.17,44.07 h 9.12 v 34.56 h -9.12 V 44.07 z"
       inkscape:connector-curvature="0"
       id="path38" /><path
       d="m 237.45,87.15 c 0.02,2.883 2.324,5.323 5.16,5.28 2.991,0.043 5.295,-2.397 5.28,-5.28 0.015,-2.876 -2.289,-5.247 -5.16,-5.28 -2.956,0.033 -5.26,2.404 -5.28,5.28"
       inkscape:connector-curvature="0"
       id="path40" /><path
       d="m 257.13,92.07 h 9.12 V 56.91 c -0.042,-3.668 0.568,-4.549 2.52,-4.68 1.165,-0.073 2.113,-0.005 3.36,0.36 l 0.96,-8.04 c -3.223,-0.794 -6.272,-1.336 -8.4,-1.32 -2.276,-0.016 -7.561,0.729 -7.56,8.76 v 40.08"
       inkscape:connector-curvature="0"
       id="path42" /><path
       d="m 302.25,54.99 5.52,-6 c -4.435,-3.947 -7.349,-5.641 -13.56,-5.64 -10.66,-0.001 -17.165,7.859 -17.16,18.36 -0.005,9.352 6.025,17.55 15.36,17.52 10.044,0.03 16.277,-7.491 16.32,-18.72 v -2.4 h -22.68 c 0.21,-3.92 3.801,-6.766 8.4,-6.72 2.516,-0.046 3.938,0.361 7.8,3.6"
       inkscape:connector-curvature="0"
       id="path44" /><path
       d="m 286.05,65.07 h 13.92 c -0.226,3.417 -3.614,6.466 -6.96,6.48 -3.498,-0.014 -6.411,-2.724 -6.96,-6.48"
       inkscape:connector-curvature="0"
       id="path46"
       style="fill:#ffffff" /><path
       d="m 113.73,93.51 h 6.96 V 60.39 h -7.68 v 23.16 h -4.32 v 5.04 c 3.858,0.491 4.988,2.043 5.04,4.92"
       inkscape:connector-curvature="0"
       id="path48" /><path
       d="m 136.89,67.71 c -3.214,0.012 -5.457,-3.366 -5.4,-6.6 v -0.72 h -7.56 v 1.56 c 0.044,7.908 6.978,12.164 13.2,12.12 4.51,0.044 12.143,-1.646 12.12,-11.64 0.023,-4.899 -1.197,-8.438 -8.04,-13.56 l -3.24,-2.4 h 11.28 v -6.6 h -24.84 v 6.24 c 12.095,7.804 17.55,10.929 17.52,16.2 0.03,3.018 -1.77,5.412 -5.04,5.4"
       inkscape:connector-curvature="0"
       id="path50" /></g></svg>