<?xml version="1.0" encoding="UTF-8" standalone="no"?>
<!-- Created with Inkscape (http://www.inkscape.org/) -->
<svg xmlns:dc="http://purl.org/dc/elements/1.1/" xmlns:cc="http://creativecommons.org/ns#" xmlns:rdf="http://www.w3.org/1999/02/22-rdf-syntax-ns#" xmlns:svg="http://www.w3.org/2000/svg" xmlns="http://www.w3.org/2000/svg" xmlns:inkscape="http://www.inkscape.org/namespaces/inkscape" version="1.1" width="754.12" height="730.70001" id="svg2" xml:space="preserve"><metadata id="metadata8"><rdf:RDF><cc:Work rdf:about=""><dc:format>image/svg+xml</dc:format><dc:type rdf:resource="http://purl.org/dc/dcmitype/StillImage"/></cc:Work></rdf:RDF></metadata><defs id="defs6"><clipPath id="clipPath20"><path d="M 0,584.58 H 603.3 V 0.02 L 0,0.015 v 584.56 z" inkscape:connector-curvature="0" id="path22"/></clipPath></defs><g transform="matrix(1.25,0,0,-1.25,0,730.72)" id="g10"><g transform="translate(602.8,27.567)" id="g12"><path d="m 0,0 c 0,-14.948 -12.119,-27.067 -27.068,-27.067 h -548.16 c -14.949,0 -27.068,12.119 -27.068,27.067 v 529.44 c 0,14.949 12.119,27.068 27.068,27.068 h 548.16 c 14.951,0 27.07,-12.12 27.07,-27.07 V -0.002" inkscape:connector-curvature="0" id="path14" style="fill:#ffffff"/></g><g id="g16"><g clip-path="url(#clipPath20)" id="g18"><g transform="translate(602.8,27.567)" id="g24"><path d="m 0,0 c 0,-14.948 -12.119,-27.067 -27.068,-27.067 h -548.16 c -14.949,0 -27.068,12.119 -27.068,27.067 v 529.44 c 0,14.949 12.119,27.068 27.068,27.068 h 548.16 c 14.951,0 27.07,-12.12 27.07,-27.07 V -0.002 z" inkscape:connector-curvature="0" id="path26" style="fill:none;stroke:#0079c1"/></g></g></g><g transform="translate(575.73,570.02)" id="g28"><path d="m 0,0 h -86.432 v -159.02 h -26.5 V 0 h -435.23 c -7.187,0 -13.012,-5.826 -13.012,-13.012 v -529.44 c 0,-7.185 5.825,-13.011 13.012,-13.011 h 548.16 c 7.187,0 13.011,5.826 13.011,13.011 v 529.44 c 0,7.184 -5.824,13.01 -13.011,13.01" inkscape:connector-curvature="0" id="path30" style="fill:#0079c1"/></g><g transform="translate(369.3,294)" id="g32"><path d="M 0,0 -17.606,20.981 -73,-25.5 -55.395,-46.482 0,0" inkscape:connector-curvature="0" id="path34" style="fill:#ffffff"/></g><g transform="translate(453.36,364.54)" id="g36"><path d="M 0,0 -17.606,20.982 -73,-25.5 -55.394,-46.481 0,0" inkscape:connector-curvature="0" id="path38" style="fill:#ffffff"/></g><g transform="translate(285.23,223.46)" id="g40"><path d="M 0,0 -17.606,20.98 -72.999,-25.501 -55.394,-46.483 0,0" inkscape:connector-curvature="0" id="path42" style="fill:#ffffff"/></g><g transform="translate(201.17,152.92)" id="g44"><path d="M 0,0 -17.606,20.981 -72.999,-25.501 -55.394,-46.483 0,0" inkscape:connector-curvature="0" id="path46" style="fill:#ffffff"/></g><g transform="translate(117.1,82.381)" id="g48"><path d="M 0,0 -17.606,20.981 -73,-25.5 -55.394,-46.482 0,0" inkscape:connector-curvature="0" id="path50" style="fill:#ffffff"/></g><g transform="translate(311.05,465)" id="g52"><path d="m 0,0 c -7.478,0 -14.605,-1.485 -21.093,-4.208 l -21.696,37.807 4.12,11.336 c 10.823,1.053 14.726,10.998 14.726,12.686 0,1.687 -2.009,1.687 -2.009,1.687 h -46.92 c -1.045,0 -4.5,-0.884 -4.5,-4.58 0,-3.696 3.937,-4.338 3.937,-4.338 l 20.57,-4.529 -4.982,-13.709 h -99.694 c 1.234,4.604 1.995,7.445 1.995,7.445 0,0 0.857,2.785 0.857,3.964 0,5.583 -4.143,9.757 -5.892,10.699 -0.348,0.187 -1.513,0.709 -1.513,2.276 0,1.567 0.91,2.879 2.905,2.879 h 20.783 v 13.819 h -26.139 c 0,0 -13.712,-1.286 -13.712,-15.319 0,-8.204 4.071,-10.07 7.285,-11.998 1.071,-0.642 2.035,-3.321 1.607,-4.82 -0.25,-0.876 -6.633,-24.82 -11.903,-44.604 -5.992,2.265 -12.486,3.507 -19.271,3.507 -30.12,0 -54.539,-24.418 -54.539,-54.539 0,-30.121 24.419,-54.539 54.539,-54.539 30.121,0 54.539,24.418 54.539,54.539 0,18.311 -9.025,34.514 -22.869,44.406 0.593,2.213 1.198,4.472 1.807,6.745 l 63.336,-44.251 c -0.689,-2.178 -1.064,-4.495 -1.064,-6.9 0,-12.613 10.226,-22.838 22.839,-22.838 2.255,0 4.434,0.328 6.492,0.937 l 3.385,-7.371 h -5.82 v -7.392 h 6.522 c 1.026,-1.617 2.83,-2.691 4.887,-2.691 2.057,0 3.862,1.074 4.888,2.691 h 6.36 v 7.392 h -9.527 l -4.757,10.112 c 4.907,3.19 8.512,8.212 9.844,14.098 l 5.213,-0.079 c 2.628,-27.672 26.103,-49.398 54.464,-49.398 30.12,0 54.539,24.418 54.539,54.539 0.007,30.118 -24.412,54.536 -54.532,54.536" inkscape:connector-curvature="0" id="path54" style="fill:#ffffff"/></g><g transform="translate(229.1,424.78)" id="g56"><path d="m 0,0 c 7.906,0 14.316,-6.411 14.316,-14.317 0,-7.907 -6.41,-14.317 -14.316,-14.317 -7.907,0 -14.317,6.41 -14.317,14.317 C -14.317,-6.411 -7.907,0 0,0" inkscape:connector-curvature="0" id="path58" style="fill:#0079c1"/></g><g transform="translate(229.99,433.28)" id="g60"><path d="m 0,0 c -0.296,0.012 -0.593,0.019 -0.892,0.019 -2.382,0 -4.679,-0.365 -6.837,-1.041 l -3.391,7.207 h 6.211 v 7.392 h -6.361 c -1.026,1.617 -2.831,2.691 -4.887,2.691 -2.058,0 -3.862,-1.074 -4.888,-2.691 h -6.522 V 6.185 h 9.789 l 4.506,-9.81 c -0.537,-0.347 -1.056,-0.717 -1.561,-1.106 l -67.41,47.098 c 0.725,2.706 1.431,5.34 2.102,7.846 H 18.248 L 0,0" inkscape:connector-curvature="0" id="path62" style="fill:#0079c1"/></g><g transform="translate(278.08,453.91)" id="g64"><path d="m 0,0 -15.935,27.865 -19.291,-53.081 c 4.271,-3.227 7.37,-7.92 8.553,-13.329 h 5.324 C -19.949,-22.83 -11.885,-9.033 0,0" inkscape:connector-curvature="0" id="path66" style="fill:#0079c1"/></g><g transform="translate(286.09,439.68)" id="g68"><path d="m 0,0 c -7.09,-6.094 -12.078,-14.597 -13.275,-24.356 h 27.31 L 0,0" inkscape:connector-curvature="0" id="path70" style="fill:#0079c1"/></g><g transform="translate(298.08,446.54)" id="g72"><path d="m 0,0 19.079,-33.107 c 0,0 0.925,-1.526 0.925,-3.173 0,-4.861 -4.982,-4.861 -7.352,-4.861 l -37.805,-0.075 c 2.545,-18.808 18.621,-33.381 38.127,-33.381 21.272,0 38.517,17.245 38.517,38.518 0,21.273 -17.245,38.518 -38.517,38.518 C 8.363,2.439 4.098,1.485 0,0" inkscape:connector-curvature="0" id="path74" style="fill:#0079c1"/></g><g transform="translate(137.61,437.83)" id="g76"><path d="m 0,0 c -1.858,-6.936 -3.144,-11.734 -3.322,-12.395 -4.211,-15.64 -20.285,-20.46 -23.567,-20.46 -3.536,0 -5.678,2.356 -5.678,5.677 0,3.321 2.678,4.285 3.642,5.035 12.212,9.535 14.141,19.711 14.141,19.711 0,0 1.112,4.18 2.797,10.504 -4.642,1.983 -9.751,3.081 -15.117,3.081 -21.273,0 -38.518,-17.245 -38.518,-38.518 0,-21.273 17.245,-38.518 38.518,-38.518 21.273,0 38.518,17.245 38.518,38.518 C 11.414,-16.662 7.048,-6.98 0,0" inkscape:connector-curvature="0" id="path78" style="fill:#0079c1"/></g></g></svg>