<?xml version="1.0" encoding="UTF-8" standalone="no"?>
<!-- Created with Inkscape (http://www.inkscape.org/) -->
<svg xmlns:dc="http://purl.org/dc/elements/1.1/" xmlns:cc="http://creativecommons.org/ns#" xmlns:rdf="http://www.w3.org/1999/02/22-rdf-syntax-ns#" xmlns:svg="http://www.w3.org/2000/svg" xmlns="http://www.w3.org/2000/svg" xmlns:inkscape="http://www.inkscape.org/namespaces/inkscape" version="1.1" width="757.54999" height="326.29999" id="svg2" xml:space="preserve"><defs id="defs48"/><metadata id="metadata8"><rdf:RDF><cc:Work rdf:about=""><dc:format>image/svg+xml</dc:format><dc:type rdf:resource="http://purl.org/dc/dcmitype/StillImage"/></cc:Work></rdf:RDF></metadata><g transform="matrix(1.25,0,0,-1.25,-2.4865,328.11)" id="g10"><path d="M 607.53,22.47 C 607.55,11.164 598.37,1.982 587.01,1.95 H 90.45 C 85.707,1.9825 81.407,2.2265 77.37,4.71 73.634,6.875 70.59,10.466 66.45,17.43 v 0.12 C 55.892,35.838 5.58,123.16 5.13,123.87 c -1.3872,2.436 -2.6781,5.029 -2.64,8.16 -0.0381,3.071 1.2528,5.664 2.64,8.04 0.4501,0.775 50.762,88.092 61.32,106.44 4.14,7.024 7.184,10.615 10.92,12.84 4.037,2.423 8.337,2.668 13.08,2.64 h 496.56 c 11.357,0.028 20.538,-9.154 20.52,-20.52 v -219" inkscape:connector-curvature="0" id="path12" style="fill:#ffffff"/><path d="M 607.53,22.47 C 607.55,11.164 598.37,1.982 587.01,1.95 H 90.45 C 85.707,1.9825 81.407,2.2265 77.37,4.71 73.634,6.875 70.59,10.466 66.45,17.43 v 0.12 C 55.892,35.838 5.58,123.16 5.13,123.87 c -1.3872,2.436 -2.6781,5.029 -2.64,8.16 -0.0381,3.071 1.2528,5.664 2.64,8.04 0.4501,0.775 50.762,88.092 61.32,106.44 4.14,7.024 7.184,10.615 10.92,12.84 4.037,2.423 8.337,2.668 13.08,2.64 h 496.56 c 11.357,0.028 20.538,-9.154 20.52,-20.52 v -219 z" inkscape:connector-curvature="0" id="path14" style="fill:none;stroke:#ffd421"/><path d="m 596.85,22.47 c 0.049,-5.425 -4.364,-9.838 -9.84,-9.84 H 90.45 c -7.272,0.002 -8.799,0.049 -14.76,10.2 -1.514,2.585 -60.853,105.59 -61.32,106.44 -0.802,1.331 -1.208,2.014 -1.2,2.76 0.011,0.686 0.398,1.369 1.2,2.76 0.467,0.786 59.806,103.8 61.32,106.32 5.961,10.212 7.488,10.258 14.76,10.2 h 496.56 c 5.476,0.058 9.889,-4.355 9.84,-9.84 v -219" inkscape:connector-curvature="0" id="path16"/><path d="m 38.37,132.03 c 0.489,-0.849 62.76,-108.6 62.76,-108.6 h 49.08 c 0,0 -62.184,107.75 -62.64,108.6 0.456,0.789 62.64,108.6 62.64,108.6 h -49.08 c 0,0 -62.271,-107.81 -62.76,-108.6" inkscape:connector-curvature="0" id="path18" style="fill:#ffffff"/><path d="m 231.93,230.43 h 7.44 l 19.56,-28.56 v 28.56 h 6.84 v -39.72 h -7.44 l -19.68,28.44 v -28.44 h -6.72 v 39.72" inkscape:connector-curvature="0" id="path20" style="fill:#ffffff"/><path d="m 275.13,204.99 c 0.02,8.959 5.211,15.234 13.68,15.24 8.475,-0.006 13.496,-6.167 13.44,-15.24 0.056,-10.097 -6.562,-15.003 -13.44,-15 -7.955,-0.003 -13.66,6.501 -13.68,15" inkscape:connector-curvature="0" id="path22" style="fill:#ffffff"/><path d="m 296.25,204.99 c -0.048,5.479 -2.901,9.13 -7.44,9.12 -4.532,0.01 -7.214,-3.699 -7.2,-9.12 -0.014,-5.304 2.668,-9.07 7.2,-9.12 4.482,0.05 7.392,3.873 7.44,9.12" inkscape:connector-curvature="0" id="path24"/><path d="m 325.53,213.03 c -8.586,1.66 -8.64,-7.92 -8.64,-7.92 v -14.4 h -6.12 v 28.44 h 6.12 v -2.88 c 1.252,1.786 5.017,3.954 8.64,3.36 v -6.6" inkscape:connector-curvature="0" id="path26" style="fill:#ffffff"/><path d="m 335.97,219.27 v 9 l 6.12,2.52 v -11.52 h 7.44 v -5.16 h -7.44 v -14.64 c 0.051,-2.295 1.077,-3.264 2.88,-3.24 0,0 2.59,-0.024 4.08,0.6 l 0.48,-5.64 c -2.939,-0.69 -6.48,-0.72 -6.48,-0.72 -5.131,0.03 -7.128,2.541 -7.08,8.76 v 14.88 h -5.04 v 5.16 h 5.04" inkscape:connector-curvature="0" id="path28" style="fill:#ffffff"/><path d="m 379.41,211.23 v -20.52 h -5.88 v 17.28 c 0.051,2.935 -1.832,5.845 -4.92,5.88 -4.385,-0.035 -6.097,-3.687 -6.12,-5.88 v -17.28 h -6.24 v 39.96 h 6.24 v -14.04 c 1.906,3.366 7.08,3.36 7.08,3.36 6.921,0.006 9.83,-5.357 9.84,-8.76" inkscape:connector-curvature="0" id="path30" style="fill:#ffffff"/><path d="m 396.09,199.95 4.68,18.96 h 6.24 l 4.92,-18.96 4.68,18.96 h 6.24 l -7.68,-28.2 h -6.96 l -4.32,18.96 -4.08,-18.96 h -6.72 l -8.16,28.2 h 6.36 l 4.8,-18.96" inkscape:connector-curvature="0" id="path32" style="fill:#ffffff"/><path d="m 438.21,190.23 c -5.699,0.042 -10.663,4.093 -10.68,9.36 0.017,3.405 3.041,7.969 9.24,8.64 l 7.8,0.84 v 1.2 c -0.021,2.709 -1.162,4.306 -4.44,4.32 0,0 -4.482,-0.014 -8.88,-2.28 l -2.4,4.8 c 3.433,2.03 8.168,3.057 11.64,3 9.193,0.057 10.391,-7.645 10.44,-9.36 v -12.96 c -0.049,-1.47 0.465,-2.098 2.4,-2.88 l -2.76,-5.04 c -2.77,1.03 -3.682,1.486 -4.8,2.88 -3.504,-2.478 -7.56,-2.52 -7.56,-2.52" inkscape:connector-curvature="0" id="path34" style="fill:#ffffff"/><path d="m 433.89,199.23 c 0.047,-2.226 2.443,-3.937 5.04,-3.96 3.222,0.023 5.619,1.848 5.64,4.08 v 4.68 l -6.48,-0.6 c -2.784,-0.321 -4.153,-2.147 -4.2,-4.2" inkscape:connector-curvature="0" id="path36"/><path d="m 483.09,219.15 -11.04,-33.72 c -1.446,-4.286 -6.01,-4.229 -7.32,-4.2 0,0 -2.57,-0.029 -5.16,0.6 l 0.84,5.16 c 3.12,-0.255 4.2,-0.24 4.2,-0.24 0.631,-0.072 3.712,-0.186 2.04,4.92 l -9,27.48 h 6.72 l 6,-19.2 5.88,19.2 h 6.84" inkscape:connector-curvature="0" id="path38" style="fill:#ffffff"/><path d="m 137.73,133.71 h 6.96 v 39.96 h -6.96 v -39.96 z" inkscape:connector-curvature="0" id="path40" style="fill:#ffffff"/><path d="m 179.49,153.39 v -19.68 h -6.24 v 18.36 c -0.016,1.006 -1.557,4.714 -5.04,4.68 -3.135,0.034 -5.873,-2.99 -5.88,-5.88 v -17.16 h -6.48 v 28.44 h 6.48 v -2.52 c 2.118,3.201 7.8,3.24 7.8,3.24 4.53,-0.039 9.38,-4.203 9.36,-9.48" inkscape:connector-curvature="0" id="path42" style="fill:#ffffff"/><path d="m 205.89,135.99 c -3.311,-2.711 -7.92,-2.76 -7.92,-2.76 -3.036,0.049 -12.164,3.072 -12.12,14.76 -0.044,8.623 4.805,14.841 12.36,14.88 3.456,-0.039 5.738,-0.951 7.68,-3.12 v 13.92 h 6.24 v -39.96 h -6.24 v 2.28" inkscape:connector-curvature="0" id="path44" style="fill:#ffffff"/><path d="m 205.89,145.71 v 5.04 c -0.059,3.352 -3.311,6.262 -6.36,6.24 -3.968,0.022 -7.22,-4.314 -7.2,-8.88 -0.02,-4.733 3.403,-8.499 6.96,-8.52 2.89,0.021 6.541,2.703 6.6,6.12" inkscape:connector-curvature="0" id="path46"/><path d="m 221.85,142.35 v 19.56 h 6.12 v -18.24 c 0.048,-1.72 0.904,-4.971 5.04,-4.92 3.109,-0.051 5.848,3.258 5.88,6.12 v 17.04 h 6.36 v -28.2 h -6.36 v 2.52 c -2.029,-3.408 -7.68,-3.36 -7.68,-3.36 -5.759,-0.048 -9.411,3.661 -9.36,9.48" inkscape:connector-curvature="0" id="path48" style="fill:#ffffff"/><path d="m 259.05,154.35 c -0.026,-1.446 1.629,-2.53 4.08,-3 5.137,-1.07 4.452,-1.013 6,-1.68 3.13,-1.102 5.013,-3.498 5.04,-7.44 -0.027,-4.73 -3.964,-9.237 -10.2,-9.24 -4.375,0.003 -7.228,0.859 -12.6,5.16 l 3.96,4.08 c 2.838,-2.562 5.006,-3.417 7.8,-3.36 3.026,-0.057 4.68,0.855 4.68,3 0,2.077 -1.141,2.077 -7.08,3.84 -7.126,2.003 -7.753,5.768 -7.8,8.52 0.047,3.923 2.956,8.886 11.16,8.88 0,0 6.002,0.006 9.84,-4.08 l -3.36,-4.32 c -2.931,2.873 -6.6,2.88 -6.6,2.88 -2.949,-0.007 -4.946,-1.377 -4.92,-3.24" inkscape:connector-curvature="0" id="path50" style="fill:#ffffff"/><path d="m 284.37,162.15 v 9.12 l 6.24,2.52 v -11.64 h 7.32 v -5.04 h -7.32 v -14.76 c 0.009,-2.225 1.036,-3.195 2.76,-3.24 0,0 2.669,0.045 4.2,0.72 l 0.48,-5.64 c -2.981,-0.74 -6.48,-0.72 -6.48,-0.72 -5.173,-0.02 -7.169,2.49 -7.2,8.64 v 15 h -5.04 v 5.04 h 5.04" inkscape:connector-curvature="0" id="path52" style="fill:#ffffff"/><path d="m 319.77,156.03 c -8.607,1.61 -8.64,-7.92 -8.64,-7.92 v -14.4 h -6.24 v 28.44 h 6.24 v -2.88 c 1.231,1.736 4.997,3.904 8.64,3.24 v -6.48" inkscape:connector-curvature="0" id="path54" style="fill:#ffffff"/><path d="m 327.33,133.71 h 6.24 v 28.44 h -6.24 v -28.44 z" inkscape:connector-curvature="0" id="path56" style="fill:#ffffff"/><path d="m 326.49,169.95 c 0.057,1.952 1.826,3.778 3.84,3.72 2.208,0.058 3.919,-1.71 3.96,-3.72 -0.041,-2.269 -1.752,-3.981 -3.96,-3.96 -2.014,-0.021 -3.783,1.691 -3.84,3.96" inkscape:connector-curvature="0" id="path58" style="fill:#ffffff"/><path d="m 351.69,133.23 c -5.675,-0.008 -10.638,4.042 -10.68,9.24 0.042,3.474 3.066,8.038 9.24,8.76 l 7.8,0.84 v 1.2 c 0.003,2.658 -1.138,4.256 -4.44,4.2 0,0 -4.457,0.056 -8.88,-2.28 l -2.4,4.92 c 3.457,1.98 8.192,3.006 11.64,3 9.218,0.006 10.416,-7.695 10.44,-9.36 v -12.96 c -0.024,-1.521 0.49,-2.149 2.4,-3 l -2.76,-4.92 c -2.745,0.979 -3.658,1.436 -4.8,2.88 -3.479,-2.528 -7.56,-2.52 -7.56,-2.52" inkscape:connector-curvature="0" id="path60" style="fill:#ffffff"/><path d="m 347.49,142.23 c -0.048,-2.276 2.348,-3.988 4.92,-3.96 3.247,-0.028 5.643,1.798 5.64,4.08 v 4.68 l -6.48,-0.72 c -2.759,-0.252 -4.128,-2.077 -4.08,-4.08" inkscape:connector-curvature="0" id="path62"/><path d="m 383.37,139.23 c 0,0 1.081,-0.018 3.36,0.36 l 0.72,-5.52 c -2.657,-0.506 -5.64,-0.48 -5.64,-0.48 -5.974,-0.54 -7.4,2.427 -7.44,9.24 v 30.72 h 6.36 v -30.36 c -0.044,-2.951 0.64,-3.978 2.64,-3.96" inkscape:connector-curvature="0" id="path64" style="fill:#ffffff"/><path d="m 436.17,156.99 v -5.88 h -16.68 v -11.28 h 19.2 v -6.12 h -26.28 v 39.84 h 25.2 v -5.88 h -18.48 v -10.68 h 17.04" inkscape:connector-curvature="0" id="path66" style="fill:#ffffff"/><path d="m 451.65,154.35 c -0.038,-1.446 1.617,-2.53 4.08,-3 5.124,-1.07 4.44,-1.013 6,-1.68 3.118,-1.102 5.001,-3.498 5.04,-7.44 -0.039,-4.73 -3.976,-9.237 -10.2,-9.24 -4.387,0.003 -7.24,0.859 -12.6,5.16 l 3.96,4.08 c 2.826,-2.562 4.994,-3.417 7.8,-3.36 3.014,-0.057 4.668,0.855 4.68,3 -0.012,2.077 -1.153,2.077 -7.08,3.84 -7.138,2.003 -7.765,5.768 -7.8,8.52 0.035,3.923 2.944,8.886 11.16,8.88 0,0 5.99,0.006 9.84,-4.08 l -3.36,-4.32 c -2.943,2.873 -6.6,2.88 -6.6,2.88 -2.961,-0.007 -4.958,-1.377 -4.92,-3.24" inkscape:connector-curvature="0" id="path68" style="fill:#ffffff"/><path d="m 476.97,162.15 v 9.12 l 6.24,2.52 v -11.64 h 7.32 v -5.04 h -7.32 v -14.76 c -0.003,-2.225 1.024,-3.195 2.76,-3.24 0,0 2.657,0.045 4.2,0.72 l 0.48,-5.64 c -2.993,-0.74 -6.48,-0.72 -6.48,-0.72 -5.185,-0.02 -7.181,2.49 -7.2,8.64 v 15 h -5.04 v 5.04 h 5.04" inkscape:connector-curvature="0" id="path70" style="fill:#ffffff"/><path d="m 506.01,133.23 c -5.682,-0.008 -10.645,4.042 -10.68,9.24 0.035,3.474 3.058,8.038 9.24,8.76 l 7.8,0.84 v 1.2 c -0.004,2.658 -1.145,4.256 -4.44,4.2 0,0 -4.464,0.056 -8.88,-2.28 l -2.4,4.92 c 3.45,1.98 8.185,3.006 11.64,3 9.211,0.006 10.409,-7.695 10.44,-9.36 v -12.96 c -0.031,-1.521 0.482,-2.149 2.4,-3 l -2.76,-4.92 c -2.752,0.979 -3.665,1.436 -4.8,2.88 -3.486,-2.528 -7.56,-2.52 -7.56,-2.52" inkscape:connector-curvature="0" id="path72" style="fill:#ffffff"/><path d="m 501.81,142.23 c -0.056,-2.276 2.341,-3.988 4.92,-3.96 3.24,-0.028 5.636,1.798 5.64,4.08 v 4.68 l -6.48,-0.72 c -2.766,-0.252 -4.136,-2.077 -4.08,-4.08" inkscape:connector-curvature="0" id="path74"/><path d="m 531.57,162.15 v 9.12 l 6.12,2.52 v -11.64 h 7.44 v -5.04 h -7.44 v -14.76 c 0.047,-2.225 1.074,-3.195 2.88,-3.24 0,0 2.587,0.045 4.08,0.72 l 0.48,-5.64 c -2.943,-0.74 -6.48,-0.72 -6.48,-0.72 -5.135,-0.02 -7.132,2.49 -7.08,8.64 v 15 h -5.04 v 5.04 h 5.04" inkscape:connector-curvature="0" id="path76" style="fill:#ffffff"/><path d="m 549.93,147.99 c 0.021,8.965 5.441,14.841 13.44,14.88 7.633,-0.039 12.369,-5.573 12.36,-16.08 0.009,-0.732 0,-1.08 0,-1.08 h -19.08 c 0.661,-4.33 3,-6.612 7.2,-6.6 0,0 4.072,-0.012 6.72,2.76 l 3.72,-4.68 c -4.028,-4.311 -10.32,-4.32 -10.32,-4.32 -8.77,0.009 -14.019,5.771 -14.04,15.12" inkscape:connector-curvature="0" id="path78" style="fill:#ffffff"/><path d="m 556.65,150.51 h 12.72 c -0.192,4.277 -2.303,6.901 -6,6.96 -3.492,-0.059 -6.287,-2.169 -6.72,-6.96" inkscape:connector-curvature="0" id="path80"/><path d="m 295.65,58.95 c 7.813,-0.01 14.19,-6.388 14.16,-14.28 0.03,-7.841 -6.347,-14.219 -14.16,-14.16 -7.921,-0.059 -14.298,6.319 -14.28,14.16 -0.018,7.892 6.359,14.27 14.28,14.28" inkscape:connector-curvature="0" id="path82" style="fill:#ffffff"/><path d="m 408.33,58.95 c 7.817,-0.01 14.195,-6.388 14.16,-14.28 0.035,-7.841 -6.343,-14.219 -14.16,-14.16 -7.917,-0.059 -14.294,6.319 -14.28,14.16 -0.014,7.892 6.363,14.27 14.28,14.28" inkscape:connector-curvature="0" id="path84" style="fill:#ffffff"/><path d="m 285.93,104.07 c 0,0 -7.721,0.43 -9.24,-8.28 l -3.72,-20.88 c 0,0 -3.994,-1.047 -3.96,-5.28 -0.034,-0.983 0.12,-2.04 0.12,-2.04 l 4.92,-22.8 h 5.76 c 0.015,8.66 7.076,15.676 15.84,15.72 8.656,-0.044 15.716,-7.105 15.72,-15.84 h 81.12 c 0.02,8.735 7.08,15.796 15.84,15.84 8.66,-0.044 15.721,-7.105 15.72,-15.84 h 16.56 v 67.56 c 0,0 0.076,3.901 -3.48,3.96 H 324.81 c -3.64,-0.059 -3.6,-3.96 -3.6,-3.96 V 80.55 h -7.32 v 19.56 c 0,0 -0.008,4.015 -3.36,3.96 h -24.6" inkscape:connector-curvature="0" id="path86" style="fill:#ffffff"/><path d="m 295.65,51.87 c 3.879,-0.052 7.068,-3.241 7.08,-7.2 -0.012,-3.908 -3.201,-7.097 -7.08,-7.08 -3.987,-0.017 -7.176,3.172 -7.2,7.08 0.024,3.959 3.213,7.148 7.2,7.2" inkscape:connector-curvature="0" id="path88"/><path d="m 408.33,51.87 c 3.884,-0.052 7.072,-3.241 7.08,-7.2 -0.008,-3.908 -3.196,-7.097 -7.08,-7.08 -3.983,-0.017 -7.172,3.172 -7.2,7.08 0.028,3.959 3.217,7.148 7.2,7.2" inkscape:connector-curvature="0" id="path90"/><path d="m 279.69,80.55 h 21.48 v 17.88 h -14.16 c 0,0 -4.229,0.015 -4.68,-2.64 l -2.64,-15.24" inkscape:connector-curvature="0" id="path92"/></g></svg>