<?xml version="1.0" encoding="UTF-8" standalone="no"?>
<!-- Created with Inkscape (http://www.inkscape.org/) -->

<svg
   xmlns:dc="http://purl.org/dc/elements/1.1/"
   xmlns:cc="http://creativecommons.org/ns#"
   xmlns:rdf="http://www.w3.org/1999/02/22-rdf-syntax-ns#"
   xmlns:svg="http://www.w3.org/2000/svg"
   xmlns="http://www.w3.org/2000/svg"
   xmlns:inkscape="http://www.inkscape.org/namespaces/inkscape"
   version="1.1"
   width="329.54999"
   height="213.60001"
   id="svg2"
   xml:space="preserve"><defs
     id="defs13" /><metadata
     id="metadata8"><rdf:RDF><cc:Work
         rdf:about=""><dc:format>image/svg+xml</dc:format><dc:type
           rdf:resource="http://purl.org/dc/dcmitype/StillImage" /></cc:Work></rdf:RDF></metadata><g
     transform="matrix(1.25,0,0,-1.25,-1.4625,214.31)"
     id="g10"><path
       d="M 264.81,33.09 C 264.81,15.134 250.26,0.583 232.29,0.57 H 33.69 C 15.737,0.58339 1.186,15.134 1.17,33.09 v 105.84 c 0.0162,17.935 14.567,32.487 32.52,32.52 h 198.6 c 17.972,-0.033 32.524,-14.585 32.52,-32.52 V 33.09"
       inkscape:connector-curvature="0"
       id="path12" /><path
       d="m 247.89,33.09 c 0.047,-8.635 -6.948,-15.63 -15.6,-15.6 H 33.69 c -8.632,-0.03 -15.627,6.965 -15.6,15.6 v 105.84 c -0.027,8.615 6.968,15.61 15.6,15.6 h 198.6 c 8.652,0.01 15.647,-6.985 15.6,-15.6 V 33.09"
       inkscape:connector-curvature="0"
       id="path14"
       style="fill:#ffffff" /><path
       d="M 96.45,96.21 V 84.69 H 69.81 V 71.01 h 31.68 V 58.05 H 56.73 v 63.6 H 98.61 V 109.53 H 69.81 V 96.21 h 26.64"
       inkscape:connector-curvature="0"
       id="path16" /><path
       d="m 132.57,103.89 c 1.95,0.95 4.265,1.221 6.48,1.2 10.198,0.021 17.887,-7.659 17.88,-16.92 V 58.05 h -12.36 v 26.16 c 0.046,5.18 -2.547,9.336 -7.68,9.36 -5.983,-0.024 -9.874,-3.457 -9.84,-8.04 V 58.05 h -12.48 v 45.84 h 12.84 v -3.36 c 2.385,1.961 3.126,2.683 5.16,3.36"
       inkscape:connector-curvature="0"
       id="path18" /><path
       d="m 166.89,80.61 c -0.007,13.298 6.756,24.772 20.52,24.72 4.762,0.052 7.912,-0.581 12.96,-3.84 v 20.28 h 12.6 V 58.05 h -12.6 v 2.76 c -4.122,-3.312 -8.012,-3.854 -13.44,-3.84 -12.914,-0.014 -20.047,9.472 -20.04,23.64"
       inkscape:connector-curvature="0"
       id="path20" /><path
       d="m 190.41,67.89 c 6.487,-0.002 10.007,3.431 9.96,9.72 v 7.2 c 0.047,5.393 -3.751,9.64 -9.72,9.6 -7.37,0.04 -11.076,-5.471 -11.04,-13.32 -0.036,-8.143 3.67,-13.202 10.8,-13.2"
       inkscape:connector-curvature="0"
       id="path22"
       style="fill:#ffffff" /></g></svg>