<!-- Created with Inkscape (http://www.inkscape.org/) -->
<svg xmlns:rdf="http://www.w3.org/1999/02/22-rdf-syntax-ns#" xmlns="http://www.w3.org/2000/svg" xml:space="preserve" height="600" width="600" version="1.1" xmlns:cc="http://creativecommons.org/ns#" xmlns:dc="http://purl.org/dc/elements/1.1/"><metadata><rdf:RDF><cc:Work rdf:about=""><dc:format>image/svg+xml</dc:format><dc:type rdf:resource="http://purl.org/dc/dcmitype/StillImage"/><dc:title/></cc:Work></rdf:RDF></metadata><defs/><g transform="matrix(1.25,0,0,-1.25,-318.69998,872.91375)"><path fill-rule="evenodd" fill="#ec1d24" d="m494.96,698.33c132.46,0,240-107.52,240-240s-107.54-240-240-240c-132.49,0-240,107.52-240,240s107.51,240,240,240"/><g transform="matrix(17.032148,0,0,17.032148,494.95998,650.24925)"><path d="m0,0c6.221,0,11.267-5.048,11.267-11.268,0-6.221-5.046-11.268-11.267-11.268-6.22,0-11.269,5.047-11.269,11.268,0,6.22,5.049,11.268,11.269,11.268" fill-rule="evenodd" fill="#FFF"/></g><g transform="matrix(17.032148,0,0,17.032148,670.9363,410.21518)"><path d="M0,0-3.574,2.063,0,4.133,0,0" fill-rule="evenodd" fill="#231f20"/></g><g transform="matrix(17.032148,0,0,17.032148,318.9329,480.60905)"><path d="M0,0,0-4.133,3.582-2.07,0,0" fill-rule="evenodd" fill="#231f20"/></g><g transform="matrix(17.032148,0,0,17.032148,532.90795,373.11934)"><path d="m0,0c-0.415,0-0.716-0.316-0.716-0.716,0-0.423,0.301-0.688,0.716-0.717,0.395,0,0.653,0.352,0.653,0.717,0,0.372-0.258,0.716-0.653,0.716zm-0.172,2.128c-0.515-0.044-0.988-0.322-1.216-0.81-0.008,0-0.13-0.308-0.13-0.308-0.087-0.336-0.136-0.665-0.136-1.002,0-0.552,0.093-1.204,0.43-1.656,0.314-0.416,0.767-0.565,1.275-0.565,0.931,0,1.461,0.665,1.461,1.519,0.006,0.287-0.05,0.58-0.179,0.831-0.229,0.365-0.623,0.594-1.06,0.615,0.008,0-0.108,0.008-0.108,0.008-0.365,0-0.666-0.108-0.952-0.324,0,0-0.144,0.403,0.387,0.818,0.121,0.071,0.258,0.115,0.4,0.115,0.136,0,0.195-0.015,0.316-0.065,0.158-0.057,0.279-0.201,0.307-0.366l0.803,0.293c-0.1,0.409-0.401,0.69-0.788,0.819-0.258,0.086-0.545,0.099-0.81,0.078zm-6.36-2.12c-0.416,0-0.717-0.324-0.717-0.724,0-0.415,0.301-0.688,0.717-0.717,0.401,0,0.652,0.352,0.652,0.717,0,0.372-0.251,0.724-0.652,0.724zm-0.173,2.12c-0.515-0.044-0.988-0.322-1.217-0.803,0-0.007-0.122-0.315-0.122-0.315-0.093-0.329-0.137-0.659-0.137-1.002,0-0.545,0.087-1.204,0.431-1.656,0.307-0.416,0.766-0.565,1.267-0.565,0.932,0,1.469,0.665,1.469,1.525,0,0.281-0.05,0.58-0.186,0.831-0.229,0.366-0.624,0.595-1.053,0.609-0.036,0-0.072,0-0.115,0.008-0.358,0-0.659-0.1-0.945-0.315,0,0-0.144,0.401,0.379,0.816,0.129,0.072,0.265,0.108,0.408,0.108,0.129,0,0.187-0.015,0.309-0.065,0.164-0.057,0.286-0.194,0.315-0.366l0.795,0.293c-0.093,0.409-0.394,0.69-0.781,0.819-0.258,0.086-0.544,0.099-0.817,0.078zm9.973-0.967,0.901,0,0.667,1.16-0.903,0-0.665-1.16zm-1.204,0,0.902,0,0.667,1.16-0.903,0-0.666-1.16zm-4.564-1.261h-1.439v0.723h1.439v-0.723zm-1.962,1.261,0.902,0,0.666,1.16-0.895,0-0.673-1.16" fill-rule="evenodd" fill="#231f20"/></g><g transform="matrix(17.032148,0,0,17.032148,387.53839,553.98338)"><path d="m0,0,0-0.12-1.098,0,0,0.254c0,1.256,0.963,1.854,1.95,1.854,0.717,0,2.018-0.187,2.018-1.779,0-0.777-0.284-1.412-1.383-2.219l-0.531-0.389h1.802v-0.979h-3.677v0.986c1.92,1.249,2.713,1.749,2.713,2.579,0,0.485-0.337,0.829-0.852,0.829-0.583,0-0.942-0.396-0.942-1.016" fill-rule="nonzero" fill="#231f20"/></g><g transform="matrix(17.032148,0,0,17.032148,453.6061,503.31291)"><path d="M0,0c0,0.307,0.254,0.554,0.552,0.554,0.307,0,0.568-0.247,0.568-0.554,0-0.306-0.261-0.56-0.552-0.56-0.314,0-0.568,0.247-0.568,0.56" fill-rule="nonzero" fill="#231f20"/></g><g transform="matrix(17.032148,0,0,17.032148,517.93635,555.92504)"><path d="m0,0c-0.63,0-0.906-0.462-0.906-1.404,0-0.876,0.294-1.398,0.906-1.398,0.618,0,0.9,0.468,0.9,1.398,0,0.912-0.282,1.404-0.9,1.404zm-0.006-3.606c-1.188,0-1.788,0.768-1.788,2.19,0,1.494,0.624,2.22,1.782,2.22,1.218,0,1.794-0.786,1.794-2.214,0-1.416-0.588-2.196-1.788-2.196" fill-rule="nonzero" fill="#231f20"/></g><g transform="matrix(17.032148,0,0,17.032148,623.29739,536.40637)"><path d="m0,0c-0.353,0-0.521-0.258-0.521-0.582v-1.764h-0.834v1.74c0,0.414-0.163,0.606-0.427,0.606-0.33,0-0.533-0.276-0.533-0.582v-1.764h-0.805v3.036h0.805v-0.228c0.252,0.228,0.42,0.312,0.695,0.312,0.391,0,0.517-0.054,0.822-0.384,0.324,0.324,0.552,0.396,0.894,0.396,0.654,0,1.14-0.6,1.14-1.236v-1.896h-0.816v1.74c0,0.414-0.162,0.606-0.42,0.606" fill-rule="nonzero" fill="#231f20"/></g></g></svg>
