<?xml version="1.0" encoding="UTF-8" standalone="no"?>
<svg
   xmlns:dc="http://purl.org/dc/elements/1.1/"
   xmlns:cc="http://creativecommons.org/ns#"
   xmlns:rdf="http://www.w3.org/1999/02/22-rdf-syntax-ns#"
   xmlns:svg="http://www.w3.org/2000/svg"
   xmlns="http://www.w3.org/2000/svg"
   xmlns:sodipodi="http://sodipodi.sourceforge.net/DTD/sodipodi-0.dtd"
   xmlns:inkscape="http://www.inkscape.org/namespaces/inkscape"
   viewBox="0 0 375 250"
   height="250"
   width="375"
   xml:space="preserve"
   version="1.1"
   id="svg2"
   inkscape:version="0.92.2 (5c3e80d, 2017-08-06)"
   sodipodi:docname="Traffic_signs_manual-chapter-4-_diagram_502_(2008).svg"><sodipodi:namedview
     pagecolor="#ffffff"
     bordercolor="#666666"
     borderopacity="1"
     objecttolerance="10"
     gridtolerance="10"
     guidetolerance="10"
     inkscape:pageopacity="0"
     inkscape:pageshadow="2"
     inkscape:window-width="1366"
     inkscape:window-height="705"
     id="namedview30"
     showgrid="false"
     inkscape:zoom="0.8563128"
     inkscape:cx="176.77918"
     inkscape:cy="96.662143"
     inkscape:window-x="-8"
     inkscape:window-y="-8"
     inkscape:window-maximized="1"
     inkscape:current-layer="g12"
     inkscape:pagecheckerboard="true" /><metadata
     id="metadata8"><rdf:RDF><cc:Work
         rdf:about=""><dc:format>image/svg+xml</dc:format><dc:type
           rdf:resource="http://purl.org/dc/dcmitype/StillImage" /><dc:title></dc:title></cc:Work></rdf:RDF></metadata><defs
     id="defs6" /><g
     id="g10"
     transform="matrix(1.25,0,0,-1.25,0,250)"><g
       id="g12"
       transform="scale(0.1)"><path
         id="path3449"
         style="fill:#ffffff;fill-opacity:1;fill-rule:evenodd;stroke:none;stroke-width:3.76644659"
         d="M 1499.9953,1999.9835 H 240.17194 C 107.54864,1999.9835 0.0155,1892.5956 0.0155,1760.1552 V 239.8321 C 0.0155,107.38789 107.54864,-1e-5 240.17194,-1e-5 H 2759.8187 c 132.6308,0 240.1602,107.3879 240.1602,239.83211 v 1520.3231 c 0,132.4404 -107.5294,239.8283 -240.1602,239.8283 H 1499.9953"
         inkscape:connector-curvature="0" /><path
         style="fill:#000000;fill-opacity:1;fill-rule:evenodd;stroke:none;stroke-width:30.13157272"
         d="M 240.15543,2000 C 107.53213,2000 0,1892.6092 0,1760.1688 V 239.84621 C 0,107.40201 107.53213,0.01504 240.15543,0.01504 H 2759.8447 C 2892.4755,0.01504 3000,107.40201 3000,239.84621 V 1760.1688 C 3000,1892.6092 2892.4755,2000 2759.8447,2000 H 1500.0002 Z m 0.70676,-120.6214 H 1500.6477 2760.4922 c 66.2966,0 120.0782,-53.6935 120.0782,-119.9155 V 239.14048 c 0,-66.2221 -53.7816,-119.9156 -120.0782,-119.9156 H 240.86215 c -66.31165,0 -120.07775,53.6935 -120.07775,119.9156 V 1759.4631 c 0,66.222 53.7661,119.9155 120.07775,119.9155 z"
         id="path20"
         inkscape:connector-curvature="0" /><path
         d="m 1708.2698,1566.3857 c -61.0577,0 -118.0448,-47.429 -118.0448,-144.9818 0,-97.5679 59.7008,-145.0006 118.0448,-145.0006 v 0 c 58.344,0 119.4017,47.4327 119.4017,145.0006 0,97.5528 -58.344,144.9818 -119.4017,144.9818 z m 0,88.0715 c -85.4807,0 -211.6666,-67.7502 -211.6666,-230.3508 0,-163.9481 123.4722,-228.9921 211.6666,-228.9921 v 0 c 89.5513,0 211.6666,65.044 211.6666,228.9921 0,162.6006 -124.829,230.3508 -211.6666,230.3508"
         style="fill:#000000;fill-opacity:1;fill-rule:evenodd;stroke:none;stroke-width:3.76644659"
         id="path24"
         inkscape:connector-curvature="0" /><path
         d="m 2211.6564,1567.7407 h -88.1944 v -128.7255 h 86.8376 v 0 c 39.3483,0 69.1987,35.2301 69.1987,65.0327 0,31.1689 -27.1368,63.6928 -67.8419,63.6928 z m 31.2073,81.289 h -207.5961 v -451.2129 h 88.1944 v 161.2456 h 103.1196 v 0 c 94.9786,0 142.468,69.1053 142.468,144.9855 0,75.8803 -51.5599,144.9818 -126.1859,144.9818"
         style="fill:#000000;fill-opacity:1;fill-rule:evenodd;stroke:none;stroke-width:3.76644659"
         id="path26"
         inkscape:connector-curvature="0" /><path
         d="m 644.5132,1273.7009 65.11688,62.3227 v 0.015 c 84.12391,-58.2652 151.96577,-63.6927 168.25159,-63.6927 24.42307,0 48.84991,23.0388 48.84991,51.4901 0,28.4476 -21.70186,44.7114 -35.27777,48.784 -14.92898,4.0575 -77.33595,16.26 -103.11586,21.6725 -24.42684,5.4238 -107.19391,28.4627 -107.19391,127.3667 0,100.2742 70.548,134.1493 150.60893,134.1493 80.04963,0 139.75047,-23.0238 192.67843,-69.1015 v 0 l -62.42582,-60.9752 v 0 c -32.56787,25.7451 -74.62982,46.0664 -135.68373,46.0664 -36.63083,0 -44.77186,-33.8751 -44.77186,-46.0664 0,-10.8325 9.49786,-36.5776 32.56787,-42.0052 24.42307,-5.4238 86.83381,-20.3175 96.3279,-21.6838 25.77991,-4.0613 113.98564,-37.9364 113.98564,-131.428 0,-84.014 -55.63787,-140.928 -158.7575,-140.928 -104.46893,0 -185.8867,50.1389 -221.1607,84.0141"
         style="fill:#000000;fill-opacity:1;fill-rule:evenodd;stroke:none;stroke-width:3.76644659"
         id="path28"
         inkscape:connector-curvature="0" /><path
         d="m 1358.2058,1565.0344 h -48.8461 v -364.5113 h -88.1944 v 364.5113 h -127.539 v 82.6441 h 341.9192 v -82.6441 h -52.9166"
         style="fill:#000000;fill-opacity:1;fill-rule:evenodd;stroke:none;stroke-width:3.76644659"
         id="path30"
         inkscape:connector-curvature="0" /><path
         d="m 2240.15,585.36212 c 0,-20.33637 0,-40.65391 0,-62.32646 0,-27.1114 -23.0662,-66.39901 -71.9124,-66.39901 -48.8461,0 -75.9828,40.63886 -75.9828,101.62537 0,59.62022 33.9209,90.7778 74.626,90.7778 42.062,0 73.2692,-24.37879 73.2692,-63.6777 z m 0,109.7554 c 0,50.13518 0,100.27036 0,151.76055 27.1368,0 54.2735,0 82.7671,0 0,-149.05431 0,-298.09732 0,-448.50663 -27.1368,0 -54.2735,0 -82.7671,0 0,4.05748 0,9.48127 0,14.90881 0,0 -33.9209,-28.46639 -84.1239,-28.46639 -48.8461,0 -149.2521,42.00892 -149.2521,173.44816 0,132.78296 104.4765,169.37562 143.8248,169.37562 39.3482,0 55.6303,-9.48127 89.5512,-32.52012"
         style="fill:#000000;fill-opacity:1;fill-rule:evenodd;stroke:none;stroke-width:3.76644659"
         id="path32"
         inkscape:connector-curvature="0" /><path
         d="m 2370.4064,451.21287 62.4145,54.19267 v 0 c 21.7094,-27.09634 71.9124,-50.12013 93.6218,-50.12013 21.7094,0 42.0619,17.61506 42.0619,33.87512 0,16.24501 -12.2115,23.02379 -23.0662,25.7451 -12.2115,2.70624 -54.2735,13.54252 -63.7714,16.245 -8.141,1.37006 -84.1239,14.90882 -84.1239,92.1441 0,79.95282 84.1239,100.27036 134.3269,100.27036 50.203,0 94.9786,-14.90881 130.2564,-47.41388 v 0 l -52.9167,-55.56273 v 0 c -31.2072,25.7451 -52.9166,36.58137 -77.3397,36.58137 -24.4231,0 -44.7756,-10.83627 -44.7756,-29.80258 0,-18.9663 14.9252,-21.68761 21.7094,-23.03885 8.141,-2.70624 62.4145,-13.54252 74.626,-17.61506 12.2116,-2.70625 75.9829,-21.68761 75.9829,-96.20159 0,-73.17403 -69.1987,-102.97661 -135.6837,-102.97661 -66.485,0 -131.6132,35.22637 -153.3226,63.67771"
         style="fill:#000000;fill-opacity:1;fill-rule:evenodd;stroke:none;stroke-width:3.76644659"
         id="path34"
         inkscape:connector-curvature="0" /><path
         d="m 1830.3852,346.88125 128.8995,373.98136 h -89.5512 l -63.7714,-197.84201 -63.7713,197.84201 h -89.5513 l 107.1901,-307.58236 v 0 c 6.7842,-21.6876 -2.7136,-46.07769 -46.1324,-40.65391 v 0 l -28.4936,4.05749 -9.4979,-71.80773 48.8462,-6.77879 v 0 c 61.0576,-9.48127 92.2649,13.55758 105.8333,48.78394"
         style="fill:#000000;fill-opacity:1;fill-rule:evenodd;stroke:none;stroke-width:3.76644659"
         id="path36"
         inkscape:connector-curvature="0" /><path
         d="m 434.19966,848.22931 h 81.41777 V 399.72268 h -89.55879 v 310.30366 h -73.27675 v 71.80773 h 12.22284 v 0 c 21.69809,0 58.344,1.35124 69.19493,66.39524"
         style="fill:#000000;fill-opacity:1;fill-rule:evenodd;stroke:none;stroke-width:3.76644659"
         id="path38"
         inkscape:connector-curvature="0" /><path
         d="m 823.61195,765.57401 c 46.12869,0 93.62177,-28.45134 96.33167,-143.63429 1.35307,-116.53418 -43.41879,-151.76055 -96.33167,-151.76055 v 0 c -54.26595,0 -99.05289,35.22637 -96.32791,151.76055 1.35307,115.18295 48.83484,143.63429 96.32791,143.63429 z m 0,84.01031 c 63.76381,0 188.59665,-36.58137 188.59665,-231.70208 0,-193.76571 -118.04489,-233.06838 -188.59665,-233.06838 v 0 c -71.91991,0 -189.94968,39.30267 -189.94968,233.06838 0,195.12071 124.81772,231.70208 189.94968,231.70208"
         style="fill:#000000;fill-opacity:1;fill-rule:evenodd;stroke:none;stroke-width:3.76644659"
         id="path40"
         inkscape:connector-curvature="0" /><path
         d="m 1287.6503,765.57401 c 47.4893,0 94.9786,-28.45134 96.3354,-143.63429 1.3569,-116.53418 -43.4188,-151.76055 -96.3354,-151.76055 v 0 c -54.2735,0 -97.6923,35.22637 -96.3355,151.76055 1.3569,115.18295 48.8462,143.63429 96.3355,143.63429 z m 0,84.01031 c 63.7713,0 188.6004,-36.58137 188.6004,-231.70208 0,-193.76571 -118.0449,-233.06838 -188.6004,-233.06838 v 0 c -71.9124,0 -188.6079,39.30267 -188.6079,233.06838 0,195.12071 124.8365,231.70208 188.6079,231.70208"
         style="fill:#000000;fill-opacity:1;fill-rule:evenodd;stroke:none;stroke-width:3.76644659"
         id="path42"
         inkscape:connector-curvature="0" /></g></g></svg>