<?xml version="1.0" encoding="UTF-8" standalone="no"?>
<svg
   xmlns:dc="http://purl.org/dc/elements/1.1/"
   xmlns:cc="http://creativecommons.org/ns#"
   xmlns:rdf="http://www.w3.org/1999/02/22-rdf-syntax-ns#"
   xmlns:svg="http://www.w3.org/2000/svg"
   xmlns="http://www.w3.org/2000/svg"
   viewBox="0 0 754.125 730.72498"
   height="730.72498"
   width="754.125"
   xml:space="preserve"
   version="1.1"
   id="svg4136"><metadata
     id="metadata4142"><rdf:RDF><cc:Work
         rdf:about=""><dc:format>image/svg+xml</dc:format><dc:type
           rdf:resource="http://purl.org/dc/dcmitype/StillImage" /><dc:title></dc:title></cc:Work></rdf:RDF></metadata><defs
     id="defs4140"><clipPath
       id="clipPath4152"
       clipPathUnits="userSpaceOnUse"><path
         id="path4154"
         d="M 0,5845.78 0,0 l 6032.97,0 0,5845.78 -6032.97,0 z" /></clipPath></defs><g
     transform="matrix(1.25,0,0,-1.25,0,730.725)"
     id="g4144"><g
       transform="scale(0.1,0.1)"
       id="g4146"><g
         id="g4148"><g
           clip-path="url(#clipPath4152)"
           id="g4150"><path
             id="path4156"
             style="fill:#ffffff;fill-opacity:1;fill-rule:nonzero;stroke:none"
             d="M 6027.97,275.672 C 6027.97,126.191 5906.78,5 5757.29,5 L 275.68,5 C 126.191,5 5,126.191 5,275.672 L 5,5570.1 c 0,149.49 121.191,270.68 270.68,270.68 l 5481.61,0 c 149.49,0 270.68,-121.19 270.68,-270.68 l 0,-5294.428" /><path
             id="path4158"
             style="fill:none;stroke:#1476c6;stroke-width:10;stroke-linecap:butt;stroke-linejoin:miter;stroke-miterlimit:4;stroke-dasharray:none;stroke-opacity:1"
             d="M 6027.97,275.672 C 6027.97,126.191 5906.78,5 5757.29,5 L 275.68,5 C 126.191,5 5,126.191 5,275.672 L 5,5570.1 c 0,149.49 121.191,270.68 270.68,270.68 l 5481.61,0 c 149.49,0 270.68,-121.19 270.68,-270.68 l 0,-5294.428 z" /><path
             id="path4160"
             style="fill:#1476c6;fill-opacity:1;fill-rule:nonzero;stroke:none"
             d="m 5757.29,5700.22 -864.32,0 0,-1590.22 -265,0 0,1590.22 -4352.29,0 c -71.867,0 -130.117,-58.25 -130.117,-130.12 l 0,-5294.428 c 0,-71.852 58.25,-130.109 130.117,-130.109 l 5481.61,0 c 71.87,0 130.11,58.257 130.11,130.109 l 0,5294.428 c 0,71.87 -58.24,130.12 -130.11,130.12" /><path
             id="path4162"
             style="fill:#ffffff;fill-opacity:1;fill-rule:nonzero;stroke:none"
             d="m 634.375,2602.54 0,117.66 80.676,32.57 0,-150.23 95.461,0 0,-66.61 -95.461,0 0,-190.2 c 0,-29.61 13.312,-42.19 36.258,-42.19 0,0 34.043,0 53.285,8.14 l 6.66,-72.52 c -38.481,-9.62 -84.363,-9.62 -84.363,-9.62 -66.614,0 -92.516,32.57 -92.516,112.49 l 0,193.9 -65.121,0 0,66.61 65.121,0" /><path
             id="path4164"
             style="fill:#ffffff;fill-opacity:1;fill-rule:nonzero;stroke:none"
             d="m 1010.4,2226.58 c -73.267,0 -137.65,52.54 -137.65,120.63 0,44.41 39.223,103.61 119.891,112.5 l 100.649,11.09 0,15.54 c 0,34.78 -14.8,55.51 -56.99,55.51 0,0 -58.456,0 -115.445,-29.61 l -31.828,62.91 c 45.149,25.9 106.575,39.22 150.973,39.22 119.9,0 135.44,-99.91 135.44,-122.11 l 0,-167.99 c 0,-19.25 6.66,-27.39 31.08,-37.75 L 1171,2222.14 c -35.53,12.59 -47.37,18.5 -62.17,37 -45.14,-32.56 -98.43,-32.56 -98.43,-32.56" /><path
             id="path4166"
             style="fill:#1476c6;fill-opacity:1;fill-rule:nonzero;stroke:none"
             d="m 955.641,2343.51 c 0,-29.61 31.078,-51.81 65.119,-51.81 41.45,0 72.53,23.68 72.53,52.55 l 0,60.69 -83.63,-8.14 c -36.262,-3.71 -54.019,-27.39 -54.019,-53.29" /><path
             id="path4168"
             style="fill:#ffffff;fill-opacity:1;fill-rule:nonzero;stroke:none"
             d="m 1371.34,2598.83 69.56,-100.65 64.39,100.65 90.29,0 -107.31,-171.69 124.33,-194.64 -92.51,0 -80.67,121.37 -77.71,-121.37 -94.72,0 125.07,193.9 -110.27,172.43 89.55,0" /><path
             id="path4170"
             style="fill:#ffffff;fill-opacity:1;fill-rule:nonzero;stroke:none"
             d="m 1684.52,2232.5 81.4023,0 0,370.039 -81.4023,0 0,-370.039 z" /><path
             id="path4172"
             style="fill:#ffffff;fill-opacity:1;fill-rule:nonzero;stroke:none"
             d="m 1674.89,2702.44 c 0,25.9 22.95,49.59 48.85,49.59 28.86,0 51.06,-22.95 51.06,-49.59 0,-28.87 -22.2,-51.06 -50.32,-51.06 -26.64,0 -49.59,22.19 -49.59,51.06" /><path
             id="path4174"
             style="fill:#ffffff;fill-opacity:1;fill-rule:nonzero;stroke:none"
             d="M 3692.97,2940 3516.91,3149.81 2962.97,2685 3139.02,2475.18 3692.97,2940" /><path
             id="path4176"
             style="fill:#ffffff;fill-opacity:1;fill-rule:nonzero;stroke:none"
             d="m 4533.62,3645.39 -176.06,209.82 -553.94,-464.82 176.06,-209.81 553.94,464.81" /><path
             id="path4178"
             style="fill:#ffffff;fill-opacity:1;fill-rule:nonzero;stroke:none"
             d="m 2852.31,2234.61 -176.06,209.8 -553.93,-464.81 176.05,-209.82 553.94,464.83" /><path
             id="path4180"
             style="fill:#ffffff;fill-opacity:1;fill-rule:nonzero;stroke:none"
             d="m 2011.66,1529.21 -176.06,209.81 -553.93,-464.82 176.05,-209.82 553.94,464.83" /><path
             id="path4182"
             style="fill:#ffffff;fill-opacity:1;fill-rule:nonzero;stroke:none"
             d="M 1171.01,823.813 994.945,1033.62 441.012,568.809 617.066,358.992 1171.01,823.813" /><path
             id="path4184"
             style="fill:#ffffff;fill-opacity:1;fill-rule:nonzero;stroke:none"
             d="m 1830.58,3562.17 c -37.41,0 -73.07,-7.43 -105.53,-21.05 l -108.56,189.17 20.61,56.72 c 54.16,5.26 73.69,55.02 73.69,63.47 0,8.44 -10.05,8.44 -10.05,8.44 l -234.77,0 c -5.22,0 -22.51,-4.42 -22.51,-22.92 0,-18.49 19.7,-21.7 19.7,-21.7 l 102.91,-22.66 -24.92,-68.59 -498.82,0 c 6.18,23.03 9.98,37.25 9.98,37.25 0,0 4.29,13.93 4.29,19.83 0,27.94 -20.73,48.82 -29.48,53.53 -1.74,0.94 -7.57,3.55 -7.57,11.39 0,7.84 4.56,14.41 14.54,14.41 l 103.99,0 0,69.14 -130.79,0 c 0,0 -68.606,-6.43 -68.606,-76.65 0,-41.05 20.371,-50.38 36.449,-60.03 5.359,-3.22 10.183,-16.61 8.043,-24.12 -1.258,-4.38 -33.192,-124.19 -59.563,-223.17 -29.98,11.33 -62.468,17.54 -96.418,17.54 -150.711,0 -272.882,-122.17 -272.882,-272.88 0,-150.71 122.171,-272.89 272.882,-272.89 150.711,0 272.885,122.18 272.885,272.89 0,91.62 -45.16,172.69 -114.428,222.18 2.969,11.08 5.996,22.38 9.043,33.75 L 1311.6,3323.81 c -3.45,-10.89 -5.33,-22.49 -5.33,-34.52 0,-63.11 51.17,-114.27 114.28,-114.27 11.28,0 22.18,1.64 32.48,4.69 l 16.94,-36.88 -29.12,0 0,-36.99 32.63,0 c 5.13,-8.09 14.16,-13.46 24.45,-13.46 10.29,0 19.32,5.37 24.45,13.46 l 31.83,0 0,36.99 -47.67,0 -23.8,50.59 c 24.55,15.96 42.59,41.1 49.26,70.54 l 26.08,-0.4 c 13.15,-138.45 130.61,-247.16 272.5,-247.16 150.71,0 272.89,122.18 272.89,272.89 0,150.71 -122.18,272.88 -272.89,272.88" /><path
             id="path4186"
             style="fill:#1476c6;fill-opacity:1;fill-rule:nonzero;stroke:none"
             d="m 1420.55,3360.92 c 39.56,0 71.63,-32.07 71.63,-71.63 0,-39.56 -32.07,-71.64 -71.63,-71.64 -39.56,0 -71.64,32.08 -71.64,71.64 0,39.56 32.08,71.63 71.64,71.63" /><path
             id="path4188"
             style="fill:#1476c6;fill-opacity:1;fill-rule:nonzero;stroke:none"
             d="m 1425.01,3403.47 c -1.48,0.05 -2.97,0.09 -4.46,0.09 -11.92,0 -23.41,-1.83 -34.21,-5.21 l -16.97,36.06 31.07,0 0,36.99 -31.82,0 c -5.13,8.09 -14.16,13.46 -24.45,13.46 -10.3,0 -19.33,-5.37 -24.46,-13.46 l -32.63,0 0,-36.99 48.98,0 22.54,-49.08 c -2.68,-1.74 -5.28,-3.59 -7.8,-5.54 l -337.29,235.65 c 3.63,13.54 7.16,26.72 10.52,39.27 l 492.28,0 -91.3,-251.24" /><path
             id="path4190"
             style="fill:#1476c6;fill-opacity:1;fill-rule:nonzero;stroke:none"
             d="m 1665.63,3506.67 -79.73,139.42 -96.52,-265.59 c 21.36,-16.15 36.87,-39.62 42.79,-66.69 l 26.64,0 c 7,78.63 47.35,147.66 106.82,192.86" /><path
             id="path4192"
             style="fill:#1476c6;fill-opacity:1;fill-rule:nonzero;stroke:none"
             d="m 1705.69,3435.47 c -35.48,-30.49 -60.43,-73.03 -66.42,-121.86 l 136.64,0 -70.22,121.86" /><path
             id="path4194"
             style="fill:#1476c6;fill-opacity:1;fill-rule:nonzero;stroke:none"
             d="m 1765.67,3469.81 95.47,-165.65 c 0,0 4.62,-7.64 4.62,-15.88 0,-24.32 -24.93,-24.32 -36.79,-24.32 l -189.15,-0.37 c 12.73,-94.11 93.17,-167.03 190.76,-167.03 106.44,0 192.73,86.29 192.73,192.73 0,106.44 -86.29,192.73 -192.73,192.73 -23.06,0 -44.41,-4.78 -64.91,-12.21" /><path
             id="path4196"
             style="fill:#1476c6;fill-opacity:1;fill-rule:nonzero;stroke:none"
             d="m 962.813,3426.21 c -9.301,-34.7 -15.739,-58.71 -16.625,-62.02 -21.071,-78.25 -101.497,-102.37 -117.922,-102.37 -17.684,0 -28.407,11.79 -28.407,28.41 0,16.61 13.403,21.44 18.227,25.19 61.102,47.7 70.746,98.62 70.746,98.62 0,0 5.57,20.91 14,52.56 -23.223,9.92 -48.789,15.42 -75.637,15.42 -106.433,0 -192.722,-86.29 -192.722,-192.73 0,-106.44 86.289,-192.73 192.722,-192.73 106.438,0 192.725,86.29 192.725,192.73 0,53.55 -21.85,101.99 -57.107,136.92" /><path
             id="path4198"
             style="fill:#ffffff;fill-opacity:1;fill-rule:nonzero;stroke:none"
             d="m 1379.83,4570.35 c 102.3,0 185.23,-82.94 185.23,-185.23 0,-102.3 -82.93,-185.23 -185.23,-185.23 -102.3,0 -185.23,82.93 -185.23,185.23 0,102.29 82.93,185.23 185.23,185.23" /><path
             id="path4200"
             style="fill:#ffffff;fill-opacity:1;fill-rule:nonzero;stroke:none"
             d="m 3212.17,4570.35 c 102.29,0 185.22,-82.94 185.22,-185.23 0,-102.3 -82.93,-185.23 -185.22,-185.23 -102.31,0 -185.23,82.93 -185.23,185.23 0,102.29 82.92,185.23 185.23,185.23" /><path
             id="path4202"
             style="fill:#ffffff;fill-opacity:1;fill-rule:nonzero;stroke:none"
             d="m 3435.79,4327.86 c 4.7,18.35 7.2,37.43 7.2,57.26 0,127.47 -103.34,230.82 -230.82,230.82 -127.48,0 -230.83,-103.35 -230.83,-230.82 0,-19.71 2.47,-39 7.12,-57.26 l -1385,0 c 4.7,18.35 7.2,37.43 7.2,57.26 0,127.47 -103.35,230.82 -230.83,230.82 -127.48,0 -230.82,-103.35 -230.82,-230.82 0,-19.71 2.47,-39 7.12,-57.26 l -501.032,0 c -103.774,0 -101.762,107.8 -101.762,107.8 0,0 0,325.43 0,365.73 0,40.3 47.352,44.33 47.352,44.33 l 16.125,468.49 c 2.984,90.63 71.531,80.6 71.531,80.6 l 3307.676,0 c 145.07,0 222.65,-141.05 222.65,-223.67 l 0,-692.16 -782.88,-151.12" /><path
             id="path4204"
             style="fill:#231f20;fill-opacity:1;fill-rule:nonzero;stroke:none"
             d="m 1858.56,4866.62 0,418.63 101.26,0 0,-391.43 c 0,-44.58 7.55,-51.38 38.53,-51.38 15.87,0 24.94,1.51 40.81,6.8 l 6.05,-98.99 c -34.77,-7.56 -49.88,-9.07 -74.06,-9.07 -90.68,0 -112.59,30.98 -112.59,125.44" /><path
             id="path4206"
             style="fill:#231f20;fill-opacity:1;fill-rule:nonzero;stroke:none"
             d="m 2253.22,4741.18 c -115.61,0 -191.18,79.35 -191.18,200.25 0,118.64 78.59,199.49 185.89,199.49 119.39,0 194.2,-77.83 194.2,-199.49 0,-120.9 -74.81,-200.25 -188.91,-200.25" /><path
             id="path4208"
             style="fill:#231f20;fill-opacity:1;fill-rule:nonzero;stroke:none"
             d="m 2691.89,4741.18 c -120.9,0 -202.51,79.35 -202.51,200.25 0,120.15 81.61,199.49 204.78,199.49 86.14,0 140.55,-30.99 170.02,-118.63 l -97.48,-37.04 c -12.84,42.32 -38.54,61.96 -77.83,61.96 -52.89,0 -89.17,-43.07 -89.17,-105.78 0,-66.5 34.76,-106.55 90.68,-106.55 38.54,0 58.94,17.38 76.32,65.75 l 100.5,-37.03 c -33.24,-85.39 -85.38,-122.42 -175.31,-122.42" /><path
             id="path4210"
             style="fill:#231f20;fill-opacity:1;fill-rule:nonzero;stroke:none"
             d="m 3220.74,4741.18 c -39.29,0 -64.23,13.6 -83.87,43.83 -33.26,-32.5 -62.73,-43.83 -105.04,-43.83 -83.88,0 -139.79,46.85 -139.79,120.15 0,60.45 38.53,101.26 110.32,114.85 l 120.15,23.43 0,15.87 c 0,22.67 -22.68,37.03 -57.43,37.03 -43.07,0 -68.77,-6.8 -120.91,-38.54 l -52.13,75.57 c 43.07,25.68 80.09,51.38 171.53,51.38 106.55,0 160.95,-36.27 160.95,-110.33 l 0,-158.68 c 0,-34.01 9.06,-43.83 44.58,-49.88 l -35.52,-80.09 c -5.28,-0.76 -9.06,-0.76 -12.84,-0.76" /><path
             id="path4212"
             style="fill:#231f20;fill-opacity:1;fill-rule:nonzero;stroke:none"
             d="m 3310.17,4866.62 0,418.63 101.25,0 0,-391.43 c 0,-44.58 7.55,-51.38 38.54,-51.38 15.86,0 24.93,1.51 40.8,6.8 l 6.05,-98.99 c -34.76,-7.56 -49.88,-9.07 -74.06,-9.07 -90.68,0 -112.58,30.98 -112.58,125.44" /><path
             id="path4214"
             style="fill:#1476c6;fill-opacity:1;fill-rule:nonzero;stroke:none"
             d="m 1379.83,4477.25 c 50.89,0 92.14,-41.25 92.14,-92.13 0,-50.89 -41.25,-92.14 -92.14,-92.14 -50.88,0 -92.13,41.25 -92.13,92.14 0,50.88 41.25,92.13 92.13,92.13" /><path
             id="path4216"
             style="fill:#1476c6;fill-opacity:1;fill-rule:nonzero;stroke:none"
             d="m 3212.17,4477.25 c 50.89,0 92.14,-41.25 92.14,-92.13 0,-50.89 -41.25,-92.14 -92.14,-92.14 -50.89,0 -92.14,41.25 -92.14,92.14 0,50.88 41.25,92.13 92.14,92.13" /><path
             id="path4218"
             style="fill:#1476c6;fill-opacity:1;fill-rule:nonzero;stroke:none"
             d="m 1638.08,4891.05 c 27.82,0 50.38,22.56 50.38,50.38 l 0,218.63 c 0,27.82 -22.56,50.38 -50.38,50.38 l -413.23,0 c -27.83,0 -50.38,-22.56 -50.38,-50.38 l 0,-218.63 c 0,-27.82 22.55,-50.38 50.38,-50.38 l 413.23,0" /><path
             id="path4220"
             style="fill:#1476c6;fill-opacity:1;fill-rule:nonzero;stroke:none"
             d="m 961.758,4441.37 c 27.82,0 50.372,22.55 50.372,50.37 l 0,668.32 c 0,27.82 -22.552,50.38 -50.372,50.38 l -129.34,0 c -27.824,0 -50.375,-22.56 -50.375,-50.38 l 0,-668.32 c 0,-27.82 22.551,-50.37 50.375,-50.37 l 129.34,0" /><path
             id="path4222"
             style="fill:#1476c6;fill-opacity:1;fill-rule:nonzero;stroke:none"
             d="m 4031.61,4891.05 c 27.82,0 50.38,22.56 50.38,50.38 l 0,124.43 c 0,80.43 -65.49,144.58 -141.89,144.58 l -293.01,0 c -27.82,0 -50.37,-22.56 -50.37,-50.38 l 0,-218.63 c 0,-27.82 22.55,-50.38 50.37,-50.38 l 384.52,0" /><path
             id="path4224"
             style="fill:#ffffff;fill-opacity:1;fill-rule:nonzero;stroke:none"
             d="m 2253.22,4837.9 c 49.88,0 85.39,41.56 85.39,103.53 0,62.71 -34.76,105.78 -85.39,105.78 -50.63,0 -85.38,-43.07 -85.38,-105.78 0,-61.97 34.75,-103.53 85.38,-103.53" /><path
             id="path4226"
             style="fill:#ffffff;fill-opacity:1;fill-rule:nonzero;stroke:none"
             d="m 2998.58,4869.64 c 0,-24.93 20.4,-38.54 62.72,-38.54 42.31,0 61.21,14.36 61.21,46.1 l 0,48.36 -76.33,-15.11 c -33.24,-6.81 -47.6,-19.65 -47.6,-40.81" /></g></g></g></g></svg>