<?xml version="1.0" encoding="UTF-8" standalone="no"?>
<!-- Created with Inkscape (http://www.inkscape.org/) -->
<svg xmlns:dc="http://purl.org/dc/elements/1.1/" xmlns:cc="http://creativecommons.org/ns#" xmlns:rdf="http://www.w3.org/1999/02/22-rdf-syntax-ns#" xmlns:svg="http://www.w3.org/2000/svg" xmlns="http://www.w3.org/2000/svg" xmlns:inkscape="http://www.inkscape.org/namespaces/inkscape" version="1.1" width="342.01999" height="342.04001" id="svg2" xml:space="preserve"><metadata id="metadata8"><rdf:RDF><cc:Work rdf:about=""><dc:format>image/svg+xml</dc:format><dc:type rdf:resource="http://purl.org/dc/dcmitype/StillImage"/></cc:Work></rdf:RDF></metadata><defs id="defs6"><clipPath id="clipPath20"><path d="M 0.014999,273.63 H 273.635 V 0 H 0.014999 v 273.63 z" inkscape:connector-curvature="0" id="path22"/></clipPath></defs><g transform="matrix(1.25,0,0,-1.25,-0.018749,342.04)" id="g10"><g transform="translate(136.82,273.14)" id="g12"><path d="m 0,0 c -75.284,0 -136.32,-61.032 -136.32,-136.32 0,-75.286 61.033,-136.32 136.32,-136.32 75.286,0 136.32,61.032 136.32,136.32 C 136.32,-61.032 75.286,0 0,0" inkscape:connector-curvature="0" id="path14" style="fill:#ffffff"/></g><g id="g16"><g clip-path="url(#clipPath20)" id="g18"><g transform="translate(136.82,273.14)" id="g24"><path d="m 0,0 c -75.284,0 -136.32,-61.032 -136.32,-136.32 0,-75.286 61.033,-136.32 136.32,-136.32 75.286,0 136.32,61.032 136.32,136.32 C 136.32,-61.032 75.286,0 0,0 z" inkscape:connector-curvature="0" id="path26" style="fill:none;stroke:#0079c1"/></g></g></g><g transform="translate(136.82,267.9)" id="g28"><path d="m 0,0 c -72.396,0 -131.09,-58.691 -131.09,-131.09 0,-72.397 58.691,-131.09 131.09,-131.09 72.397,0 131.09,58.691 131.09,131.09 C 131.09,-58.691 72.397,0 0,0" inkscape:connector-curvature="0" id="path30" style="fill:#0079c1"/></g><g transform="translate(149.28,135.03)" id="g32"><path d="m 0,0 c 3.002,0 5.866,-0.597 8.47,-1.69 l 8.713,15.182 -1.654,4.552 c -4.346,0.423 -5.913,4.417 -5.913,5.094 0,0.678 0.805,0.678 0.805,0.678 h 18.842 c 0.42,0 1.808,-0.355 1.808,-1.839 0,-1.484 -1.582,-1.742 -1.582,-1.742 l -8.26,-1.819 2.001,-5.505 h 40.033 c -0.495,1.849 -0.801,2.989 -0.801,2.989 0,0 -0.344,1.119 -0.344,1.592 0,2.242 1.665,3.919 2.367,4.297 0.139,0.075 0.607,0.285 0.607,0.914 0,0.629 -0.365,1.156 -1.167,1.156 h -8.346 v 5.549 h 10.497 c 0,0 5.506,-0.516 5.506,-6.151 0,-3.295 -1.634,-4.044 -2.924,-4.818 -0.43,-0.258 -0.818,-1.334 -0.646,-1.936 0.101,-0.352 2.663,-9.967 4.779,-17.912 2.407,0.91 5.015,1.409 7.74,1.409 12.094,0 21.901,-9.806 21.901,-21.902 0,-12.096 -9.807,-21.901 -21.901,-21.901 -12.096,0 -21.902,9.805 -21.902,21.901 0,7.354 3.624,13.86 9.184,17.832 -0.238,0.889 -0.482,1.796 -0.726,2.709 l -25.433,-17.77 c 0.276,-0.874 0.426,-1.805 0.426,-2.771 0,-5.065 -4.105,-9.171 -9.17,-9.171 -0.907,0 -1.781,0.132 -2.608,0.376 l -1.359,-2.96 h 2.337 v -2.967 h -2.62 c -0.411,-0.65 -1.135,-1.082 -1.961,-1.082 -0.827,0 -1.551,0.432 -1.963,1.082 h -2.554 v 2.967 h 3.825 l 1.91,4.061 c -1.97,1.281 -3.418,3.299 -3.952,5.662 L 21.87,-23.966 C 20.816,-35.079 11.389,-43.803 0,-43.803 c -12.095,0 -21.901,9.805 -21.901,21.901 C -21.901,-9.806 -12.095,0 0,0" inkscape:connector-curvature="0" id="path34" style="fill:#ffffff"/></g><g transform="translate(182.19,118.88)" id="g36"><path d="m 0,0 c -3.176,0 -5.75,-2.573 -5.75,-5.749 0,-3.175 2.574,-5.749 5.75,-5.749 3.174,0 5.749,2.574 5.749,5.749 C 5.749,-2.573 3.174,0 0,0" inkscape:connector-curvature="0" id="path38" style="fill:#0079c1"/></g><g transform="translate(181.83,122.29)" id="g40"><path d="m 0,0 c 0.119,0.006 0.238,0.009 0.359,0.009 0.956,0 1.877,-0.147 2.745,-0.419 L 4.465,2.485 H 1.971 v 2.968 h 2.554 c 0.413,0.649 1.137,1.08 1.963,1.08 0.827,0 1.551,-0.431 1.963,-1.08 h 2.618 V 2.485 h -3.93 l -1.81,-3.94 c 0.216,-0.139 0.425,-0.288 0.627,-0.444 l 27.069,18.913 c -0.291,1.087 -0.574,2.144 -0.843,3.151 H -7.328 L 0,0" inkscape:connector-curvature="0" id="path42" style="fill:#0079c1"/></g><g transform="translate(162.52,130.57)" id="g44"><path d="m 0,0 6.398,11.191 7.746,-21.316 c -1.714,-1.295 -2.959,-3.18 -3.433,-5.353 H 8.573 C 8.01,-9.167 4.772,-3.626 0,0" inkscape:connector-curvature="0" id="path46" style="fill:#0079c1"/></g><g transform="translate(159.3,124.86)" id="g48"><path d="M 0,0 C 2.847,-2.448 4.85,-5.863 5.331,-9.781 H -5.636 L 0,0" inkscape:connector-curvature="0" id="path50" style="fill:#0079c1"/></g><g transform="translate(154.49,127.62)" id="g52"><path d="m 0,0 -7.661,-13.294 c 0,0 -0.371,-0.613 -0.371,-1.275 0,-1.951 2.001,-1.951 2.952,-1.951 l 15.182,-0.03 c -1.023,-7.553 -7.478,-13.406 -15.311,-13.406 -8.542,0 -15.467,6.926 -15.467,15.468 0,8.543 6.925,15.468 15.467,15.468 C -3.357,0.98 -1.644,0.597 0,0" inkscape:connector-curvature="0" id="path54" style="fill:#0079c1"/></g><g transform="translate(218.92,124.12)" id="g56"><path d="m 0,0 c 0.747,-2.785 1.263,-4.712 1.334,-4.977 1.691,-6.28 8.146,-8.216 9.464,-8.216 1.42,0 2.281,0.946 2.281,2.279 0,1.334 -1.076,1.721 -1.463,2.022 -4.904,3.829 -5.679,7.916 -5.679,7.916 0,0 -0.446,1.678 -1.123,4.218 1.865,0.796 3.915,1.237 6.071,1.237 8.542,0 15.467,-6.925 15.467,-15.468 0,-8.542 -6.925,-15.468 -15.467,-15.468 -8.543,0 -15.468,6.926 -15.468,15.468 0,4.298 1.754,8.186 4.583,10.989" inkscape:connector-curvature="0" id="path58" style="fill:#0079c1"/></g><g transform="translate(69.769,206.18)" id="g60"><path d="m 0,0 c -4.817,0 -8.389,-3.827 -8.389,-8.551 0,-2.958 3.065,-7.206 3.334,-7.529 0.269,-0.322 0.645,-1.721 -0.322,-2.044 -2.36,-0.786 -5.893,-1.859 -8.605,-3.603 -0.753,-0.483 -2.313,-1.236 -2.636,-2.85 l -9.169,-39.164 c 0,0 -2.285,-0.148 -2.285,-2.031 0,-1.398 0.349,-1.478 0.349,-1.478 0,0 -4.598,-0.363 -6.05,0.04 -1.452,0.403 -2.057,1.291 -0.887,2.42 1.169,1.13 1.935,2.662 1.935,4.356 0,1.694 -2.016,5.808 -5.848,5.808 -3.832,0 -5.929,-3.428 -5.929,-5.687 0,-2.258 1.291,-4.033 1.815,-4.558 0.524,-0.524 0.928,-1.29 -0.484,-1.976 -5.486,-2.665 -6.322,-5.674 -7.018,-12.221 -0.202,-1.896 -0.323,-10.93 -0.242,-11.657 0.08,-0.726 1.089,-2.34 2.783,-2.34 1.694,0 2.461,1.049 2.461,1.856 0,0.807 -0.646,1.211 -0.928,1.493 -0.282,0.281 -0.605,1.048 -0.404,1.653 0.202,0.605 1.372,7.421 1.332,7.946 0.241,0.202 0.927,1.372 1.331,2.057 2.19,-4.107 0.606,-11.234 -0.323,-16.497 -0.121,-0.685 -0.162,-1.129 1.008,-1.452 0,-0.363 -0.04,-14.803 -0.04,-14.803 0,0 -0.081,-1.048 -0.323,-1.29 -0.242,-0.242 -0.887,-0.807 -0.887,-1.371 0,-0.565 0.443,-0.807 0.847,-0.807 0.403,0 0.645,0.202 0.887,0.363 0.242,0.161 2.339,1.653 2.339,1.653 0,0 0.767,0.687 1.009,1.695 l 2.258,10.607 c 0,0 0,0.646 0.484,1.09 0.485,0.443 0.807,0.725 1.09,0.847 0.282,0.121 0.685,0.242 0.685,-0.323 v -12.666 c 0,0 0.041,-0.684 0.404,-1.008 0.363,-0.322 3.831,-2.581 3.952,-2.743 0.121,-0.16 0.686,-0.322 0.847,-0.322 0.162,0 0.888,0.242 0.888,0.848 0,0.604 -0.323,0.927 -0.524,1.209 -0.202,0.283 -1.009,1.291 -1.13,1.412 -0.121,0.121 -0.66,0.901 -0.323,2.137 0.121,0.445 1.694,9.036 1.735,9.923 0.484,0.161 4.114,1.735 2.944,5.969 l -4.558,18.716 c 0,0 -0.51,1.115 0.525,1.492 4.315,1.573 6.856,2.743 10.446,5.445 0.434,0.327 1.694,1.493 -0.564,3.106 l 10.728,27.548 -0.645,-30.049 c 0,0 -0.161,-1.855 -0.04,-3.348 l 3.227,-39.366 c 0,0 -0.081,-0.564 -0.283,-0.848 -0.202,-0.281 -1.533,-2.257 -1.694,-2.419 -0.161,-0.161 -0.403,-0.565 -0.282,-0.887 0.121,-0.324 0.524,-0.928 1.008,-0.928 0.484,0 0.726,0.242 1.089,0.444 l 5.889,4.315 c 0,0 0.807,0.444 0.847,2.137 0,0 0.238,12.088 0.484,19.563 0.283,8.591 0.807,10.85 2.662,19.24 l 1.251,-16.537 c 0,0 0.322,-7.503 0.322,-8.067 0,-3.782 0.097,-11.946 -0.605,-15.691 -0.121,-0.645 0.081,-0.684 0.242,-0.846 0.162,-0.162 3.873,-3.711 4.034,-3.954 0.161,-0.242 0.766,-0.564 1.049,-0.564 0.282,0 1.492,0.363 1.492,1.089 0,0.242 -0.041,0.605 -0.282,0.968 -0.243,0.363 -0.686,1.13 -0.767,1.251 -0.081,0.121 -0.242,0.323 -0.121,1.007 0.121,0.687 3.106,25.748 3.267,26.447 0.162,0.699 1.129,16.403 1.129,18.177 0,1.775 -2.689,28.826 -2.689,29.256 0,0 6.669,-8.466 6.669,-20.49 0,-1.882 -0.189,-4.683 -0.269,-5.163 -0.053,-0.322 -0.107,-0.914 -0.269,-1.29 -0.161,-0.377 -0.591,-1.56 -0.591,-2.366 0,-0.807 0.699,-3.443 3.603,-3.443 1.613,0 3.253,1.963 3.253,3.254 0,1.291 -0.349,2.071 -0.51,2.286 -0.162,0.215 -0.323,1.237 -0.108,2.259 0.215,1.021 0.699,8.12 0.699,9.895 0,6.547 -2.366,17.586 -3.925,24.469 -0.205,0.905 -1.238,2.85 -2.582,3.765 -3.89,2.644 -7.337,4.763 -11.348,5.431 -0.645,0.108 -1.989,0.646 -0.86,2.42 1.129,1.775 3.173,4.679 3.173,7.744 0,3.078 -2.205,8.133 -8.067,8.133" inkscape:connector-curvature="0" id="path62" style="fill:#ffffff"/></g><path d="m 105.93,18.869 h 8.4 v 236.8 h -8.4 v -236.8 z" inkscape:connector-curvature="0" id="path64" style="fill:#ffffff"/></g></svg>