<?xml version="1.0" encoding="UTF-8" standalone="no"?>
<!-- Created with Inkscape (http://www.inkscape.org/) -->

<svg
   xmlns:dc="http://purl.org/dc/elements/1.1/"
   xmlns:cc="http://creativecommons.org/ns#"
   xmlns:rdf="http://www.w3.org/1999/02/22-rdf-syntax-ns#"
   xmlns:svg="http://www.w3.org/2000/svg"
   xmlns="http://www.w3.org/2000/svg"
   xmlns:inkscape="http://www.inkscape.org/namespaces/inkscape"
   version="1.1"
   width="439.63"
   height="160.13"
   id="svg2"
   xml:space="preserve"><defs
     id="defs19" /><metadata
     id="metadata8"><rdf:RDF><cc:Work
         rdf:about=""><dc:format>image/svg+xml</dc:format><dc:type
           rdf:resource="http://purl.org/dc/dcmitype/StillImage" /></cc:Work></rdf:RDF></metadata><g
     transform="matrix(1.25,0,0,-1.25,-160.16,581.28)"
     id="g10"><g
       transform="scale(0.1,0.1)"
       id="g12"><path
         d="m 4798.2,3613.2 c 0.29,-134.74 -108.84,-243.87 -243,-244 h -3030 c -134.66,0.13 -243.79,109.26 -244,244 v 794 c 0.21,134.24 109.34,243.37 244,243 h 3030 c 134.16,0.37 243.29,-108.76 243,-243 v -794"
         inkscape:connector-curvature="0"
         id="path14" /><path
         d="m 4672.2,3613.2 c -0.29,-64.84 -52.75,-117.3 -117,-117 h -3030 c -64.75,-0.3 -117.21,52.16 -117,117 v 794 c -0.21,64.34 52.25,116.8 117,117 h 3030 c 64.25,-0.2 116.71,-52.66 117,-117 v -794"
         inkscape:connector-curvature="0"
         id="path16"
         style="fill:#ffffff" /><path
         d="m 1899.2,3779.2 c -130,-0.11 -232.89,104.14 -233,249 0.11,149.5 95.5,251.71 233,252 140.5,-0.29 231.81,-107.95 232,-252 -0.19,-147.58 -95.59,-249.11 -232,-249"
         inkscape:connector-curvature="0"
         id="path18" /><path
         d="m 1899.2,3872.2 c 81.91,-0.44 124.83,60.89 125,156 -0.17,96.35 -42.41,157.68 -125,158 -85.71,-0.32 -123.87,-60.29 -124,-158 0.13,-96.48 38.97,-156.44 124,-156"
         inkscape:connector-curvature="0"
         id="path20"
         style="fill:#ffffff" /><path
         d="m 2345.2,4137.2 c 13.89,6.43 30.93,8.47 47,8 75.23,0.47 131.79,-57.44 132,-127 v -228 h -91 v 198 c 0.16,38.91 -18.91,70.26 -56,70 -44.68,0.26 -73.3,-25.63 -73,-60 v -208 h -92 v 346 h 94 v -25 c 18.14,14.71 23.6,20.16 39,26"
         inkscape:connector-curvature="0"
         id="path22" /><path
         d="m 2854.2,3900.2 55,-60 c -44.27,-39.98 -73.57,-57.02 -136,-57 -107.23,-0.02 -172.64,79.02 -173,185 0.36,93.66 61,176.11 154,176 101.87,0.11 164.56,-75.52 165,-189 v -23 h -228 c 2.03,-40 38.14,-68.61 84,-69 25.68,0.39 39.99,4.47 79,37"
         inkscape:connector-curvature="0"
         id="path24" /><path
         d="m 2691.2,4002.2 h 140 c -2.38,33.77 -36.45,64.43 -71,64 -34.27,0.43 -63.57,-26.82 -69,-64"
         inkscape:connector-curvature="0"
         id="path26"
         style="fill:#ffffff" /><path
         d="m 3183.2,4133.2 h 96 l 58,-213 53,213 h 100 l 53,-213 59,213 h 91 l -94,-343 h -109 l -51,213 -51,-213 h -108 l -97,343"
         inkscape:connector-curvature="0"
         id="path28" /><path
         d="m 3867.2,3781.2 c -75.48,-0.06 -119.77,42.18 -120,108 0.23,58.87 35.66,120.88 202,121 v 19 c -0.08,20.4 -20.52,33.35 -52,33 -26.44,0.35 -71.41,-15.32 -104,-35 l -44,67 c 24.13,18.77 83.4,52.16 147,52 95.85,0.16 145.59,-36.64 146,-103 v -144 c -0.41,-30.84 7.76,-39.7 40,-45 l -32,-72 c -16.59,-0.38 -62.24,5.75 -85,35 -31.07,-29.25 -59.69,-36.06 -98,-36"
         inkscape:connector-curvature="0"
         id="path30" /><path
         d="m 3896.2,3858.2 c 38.61,-0.07 55.64,10.84 56,39 v 44 l -71,-10 c -30.2,-4.93 -36.33,-21.28 -36,-40 -0.33,-22.84 13.3,-33.07 51,-33"
         inkscape:connector-curvature="0"
         id="path32"
         style="fill:#ffffff" /><path
         d="m 4305.2,3743.2 c -11.64,-34.29 -33.45,-66.99 -80,-67 0,0 -24.31,0.01 -94,9 l 8,81 c 10.59,-2.78 34.44,-4.82 49,-5 16.78,0.18 32.45,9.04 32,28 0.45,6.25 1.13,14.43 -2,24 l -113,318 h 91 l 76,-206 73,206 h 93 l -133,-388"
         inkscape:connector-curvature="0"
         id="path34" /></g></g></svg>