<?xml version="1.0" encoding="UTF-8" standalone="no"?>
<svg xmlns:dc="http://purl.org/dc/elements/1.1/" xmlns:cc="http://creativecommons.org/ns#" xmlns:rdf="http://www.w3.org/1999/02/22-rdf-syntax-ns#" xmlns:svg="http://www.w3.org/2000/svg" xmlns="http://www.w3.org/2000/svg" xmlns:sodipodi="http://sodipodi.sourceforge.net/DTD/sodipodi-0.dtd" xmlns:inkscape="http://www.inkscape.org/namespaces/inkscape" viewBox="0 0 273.75 285" height="285" width="273.75" xml:space="preserve" version="1.1" id="svg2" inkscape:version="0.91 r13725" sodipodi:docname="Traffic-signs-manual-chapter-3-diagram figure 10-9 (2008).svg"><sodipodi:namedview pagecolor="#ffffff" bordercolor="#666666" borderopacity="1" objecttolerance="10" gridtolerance="10" guidetolerance="10" inkscape:pageopacity="0" inkscape:pageshadow="2" inkscape:window-width="1280" inkscape:window-height="964" id="namedview90" showgrid="false" inkscape:zoom="3.3122807" inkscape:cx="136.82003" inkscape:cy="169.22083" inkscape:window-x="-4" inkscape:window-y="-4" inkscape:window-maximized="1" inkscape:current-layer="g12"/><metadata id="metadata8"><rdf:RDF><cc:Work rdf:about=""><dc:format>image/svg+xml</dc:format><dc:type rdf:resource="http://purl.org/dc/dcmitype/StillImage"/><dc:title/></cc:Work></rdf:RDF></metadata><defs id="defs6"/><g transform="matrix(1.25,0,0,-1.25,0,285)" id="g10"><g transform="scale(0.1,0.1)" id="g12"><g id="g4552"><path id="path14" transform="matrix(8,0,0,-8,0,2280)" d="M 76.515625 4.0195312 C 72.82575 4.0195312 69.855469 6.9897656 69.855469 10.634766 L 69.855469 274.19922 C 69.855469 277.84423 72.82575 280.81445 76.515625 280.81445 L 197.47461 280.81445 C 201.16461 280.81445 204.13477 277.84423 204.13477 274.19922 L 204.13477 10.634766 C 204.13477 6.9897656 201.16461 4.0195312 197.47461 4.0195312 L 76.515625 4.0195312 z " style="fill:#e22739;fill-opacity:1;fill-rule:evenodd;stroke:none"/><g id="g4457"><path style="fill:#ffffff;fill-opacity:1;fill-rule:evenodd;stroke:none" d="M 76.515625 7.3046875 C 74.670375 7.3046875 73.185547 8.8347652 73.185547 10.634766 L 73.185547 50.505859 C 73.185547 52.350859 74.670375 53.835938 76.515625 53.835938 L 197.47461 53.835938 C 199.31961 53.835938 200.80469 52.350859 200.80469 50.505859 L 200.80469 10.634766 C 200.80469 8.8347652 199.31961 7.3046875 197.47461 7.3046875 L 76.515625 7.3046875 z " transform="matrix(8,0,0,-8,0,2280)" id="path20"/><g id="g4442"><g id="g4305"><path style="fill:#e22739;fill-opacity:1;fill-rule:evenodd;stroke:none" d="M 100.41016 12.884766 C 90.645031 12.884766 82.679688 20.805313 82.679688 30.570312 C 82.679688 40.380313 90.645031 48.300781 100.41016 48.300781 C 110.17478 48.300781 118.14062 40.380313 118.14062 30.570312 C 118.14062 20.805312 110.17478 12.884766 100.41016 12.884766 z " transform="matrix(8,0,0,-8,0,2280)" id="path22"/><path style="fill:#1478c7;fill-opacity:1;fill-rule:evenodd;stroke:none" d="M 100.41016 16.394531 C 92.580156 16.394531 86.234375 22.740313 86.234375 30.570312 C 86.234375 38.400313 92.580156 44.744141 100.41016 44.744141 C 108.24028 44.744141 114.58594 38.400313 114.58594 30.570312 C 114.58594 22.740313 108.24028 16.394531 100.41016 16.394531 z " transform="matrix(8,0,0,-8,0,2280)" id="path24"/><path style="fill:#e22739;fill-opacity:1;fill-rule:evenodd;stroke:none" d="M 90.509766 17.925781 L 87.765625 20.669922 L 97.666016 30.570312 L 87.765625 40.470703 L 90.509766 43.214844 L 100.41016 33.314453 L 110.31055 43.214844 L 113.05469 40.470703 L 103.1543 30.570312 L 113.05469 20.669922 L 110.31055 17.925781 L 100.41016 27.826172 L 90.509766 17.925781 z " transform="matrix(8,0,0,-8,0,2280)" id="path26"/></g><g id="g4310"><path style="fill:#231f20;fill-opacity:1;fill-rule:evenodd;stroke:none" d="M 142.25977 15.539062 L 142.25977 27.869141 L 144.7793 27.869141 L 144.7793 22.964844 L 146.58008 22.964844 L 149.41406 27.869141 L 152.07031 27.869141 L 149.2793 22.964844 C 150.1343 22.829844 151.93555 21.615469 151.93555 19.230469 C 151.93555 16.710469 150.13422 15.539062 148.19922 15.539062 L 142.25977 15.539062 z M 144.7793 17.744141 L 147.48047 17.744141 C 148.65047 17.744141 149.09961 18.510469 149.09961 19.230469 C 149.09961 19.860469 148.65047 20.759766 147.48047 20.759766 L 144.7793 20.759766 L 144.7793 17.744141 z " transform="matrix(8,0,0,-8,0,2280)" id="path30"/><path style="fill:#231f20;fill-opacity:1;fill-rule:evenodd;stroke:none" d="M 155.53516 15.539062 L 155.53516 27.914062 L 163.9043 27.914062 L 163.9043 25.619141 L 157.96484 25.619141 L 157.96484 22.875 L 163.00586 22.875 L 163.00586 20.535156 L 157.96484 20.535156 L 157.96484 17.835938 L 163.54492 17.835938 L 163.54492 15.539062 L 161.47461 15.539062 L 159.53906 15.539062 L 155.53516 15.539062 z " transform="matrix(8,0,0,-8,0,2280)" id="path32"/><path style="fill:#231f20;fill-opacity:1;fill-rule:evenodd;stroke:none" d="M 167.50586 15.494141 L 167.50586 27.914062 L 171.82422 27.914062 C 175.15422 27.914062 177.67578 25.755 177.67578 21.75 C 177.67578 17.52 174.70422 15.494141 171.82422 15.494141 L 167.50586 15.494141 z M 169.98047 17.789062 L 171.7793 17.789062 C 173.3093 17.789062 175.19922 18.78 175.19922 21.75 C 175.19922 24.72 173.3093 25.664062 171.7793 25.664062 L 169.98047 25.664062 L 169.98047 17.789062 z " transform="matrix(8,0,0,-8,0,2280)" id="path34"/><path style="fill:#231f20;fill-opacity:1;fill-rule:evenodd;stroke:none" d="M 129.70508 33.224609 L 129.70508 45.599609 L 132.22461 45.599609 L 132.22461 40.695312 L 134.02539 40.695312 L 136.85938 45.599609 L 139.51562 45.599609 L 136.67969 40.695312 C 137.57969 40.560313 139.38086 39.345938 139.38086 36.960938 C 139.38086 34.440937 137.57953 33.224609 135.64453 33.224609 L 129.70508 33.224609 z M 132.22461 35.474609 L 134.92578 35.474609 C 136.09578 35.474609 136.54492 36.240938 136.54492 36.960938 C 136.54492 37.545938 136.09578 38.445312 134.92578 38.445312 L 132.22461 38.445312 L 132.22461 35.474609 z " transform="matrix(8,0,0,-8,0,2280)" id="path36"/><path style="fill:#231f20;fill-opacity:1;fill-rule:evenodd;stroke:none" d="M 147.88477 33.089844 C 145.49977 33.089844 142.03516 34.935547 142.03516 39.435547 C 142.03516 43.935547 145.40977 45.779297 147.88477 45.779297 C 150.31477 45.779297 153.73438 43.935547 153.73438 39.435547 C 153.73438 34.935547 150.26977 33.089844 147.88477 33.089844 z M 147.88477 35.519531 C 149.54977 35.519531 151.125 36.780469 151.125 39.480469 C 151.125 42.180469 149.50477 43.529297 147.88477 43.529297 C 146.26477 43.529297 144.59961 42.180469 144.59961 39.480469 C 144.59961 36.780469 146.17477 35.519531 147.88477 35.519531 z " transform="matrix(8,0,0,-8,0,2280)" id="path38"/><path style="fill:#231f20;fill-opacity:1;fill-rule:evenodd;stroke:none" d="M 156.83984 33.269531 L 156.83984 40.964844 C 156.83984 43.079844 158.77594 45.779297 161.83594 45.779297 C 165.07594 45.779297 166.83008 43.079844 166.83008 40.964844 L 166.83008 33.269531 L 164.35547 33.269531 L 164.35547 40.964844 C 164.35547 42.179844 163.45594 43.439453 161.83594 43.439453 C 160.39594 43.439453 159.31445 42.179844 159.31445 40.964844 L 159.31445 33.269531 L 156.83984 33.269531 z " transform="matrix(8,0,0,-8,0,2280)" id="path40"/><path style="fill:#231f20;fill-opacity:1;fill-rule:evenodd;stroke:none" d="M 169.30469 33.224609 L 169.30469 35.564453 L 172.81445 35.564453 L 172.81445 45.644531 L 175.24414 45.644531 L 175.24414 35.564453 L 176.5957 35.564453 L 177.26953 35.564453 L 178.71094 35.564453 L 178.71094 33.224609 L 169.30469 33.224609 z " transform="matrix(8,0,0,-8,0,2280)" id="path42"/><path style="fill:#231f20;fill-opacity:1;fill-rule:evenodd;stroke:none" d="M 181.36523 33.224609 L 181.36523 45.644531 L 189.7793 45.644531 L 189.7793 43.304688 L 183.79492 43.304688 L 183.79492 40.560547 L 188.83594 40.560547 L 188.83594 38.265625 L 183.79492 38.265625 L 183.79492 35.564453 L 189.375 35.564453 L 189.375 33.224609 L 187.34961 33.224609 L 185.41406 33.224609 L 181.36523 33.224609 z " transform="matrix(8,0,0,-8,0,2280)" id="path44"/></g></g></g><g id="g4474"><path style="fill:#ffffff;fill-opacity:1;fill-rule:evenodd;stroke:none" d="M 76.515625 57.164062 C 74.670375 57.164062 73.185547 58.649141 73.185547 60.494141 L 73.185547 122.50586 C 73.185547 124.30586 74.670375 125.78906 76.515625 125.78906 L 197.47461 125.78906 C 199.31961 125.78906 200.80469 124.30586 200.80469 122.50586 L 200.80469 60.494141 C 200.80469 58.649141 199.31961 57.164062 197.47461 57.164062 L 76.515625 57.164062 z " transform="matrix(8,0,0,-8,0,2280)" id="path18"/><g id="g4320"><path id="path46" transform="matrix(8,0,0,-8,0,2280)" d="M 86.955078 63.599609 L 86.955078 76.019531 L 89.384766 76.019531 L 89.384766 67.560547 L 95.009766 76.019531 L 97.798828 76.019531 L 97.798828 63.599609 L 95.414062 63.599609 L 95.414062 72.105469 L 89.339844 63.599609 L 88.349609 63.599609 L 87.539062 63.599609 L 86.955078 63.599609 z " style="fill:#231f20;fill-opacity:1;fill-rule:evenodd;stroke:none"/><path id="path48" transform="matrix(8,0,0,-8,0,2280)" d="M 104.73047 66.794922 C 102.57034 66.794922 100.36523 68.549375 100.36523 71.609375 C 100.36523 74.669375 102.52534 76.470703 104.73047 76.470703 C 106.93547 76.470703 109.04883 74.669375 109.04883 71.609375 C 109.04883 68.549375 106.89059 66.794922 104.73047 66.794922 z M 104.73047 68.820312 C 105.67522 68.820312 106.75391 69.719375 106.75391 71.609375 C 106.75391 73.544375 105.67522 74.445312 104.73047 74.445312 C 103.78559 74.445312 102.70508 73.544375 102.70508 71.609375 C 102.70508 69.719375 103.74072 68.820312 104.73047 68.820312 z " style="fill:#231f20;fill-opacity:1;fill-rule:evenodd;stroke:none"/><path id="path50" transform="matrix(8,0,0,-8,0,2280)" d="M 185.18945 67.109375 L 185.18945 67.605469 C 184.60445 67.245469 183.75063 67.154297 183.39062 67.154297 C 182.26562 67.154297 181.49937 67.469531 180.73438 68.144531 C 179.38438 69.314531 179.38477 71.294922 179.38477 71.294922 C 179.38477 71.294922 179.47555 75.570312 183.43555 75.570312 C 184.38055 75.570312 185.18945 75.074219 185.18945 75.074219 C 185.18945 75.074219 185.55078 76.785156 183.30078 76.785156 C 181.68078 76.785156 180.86992 76.244531 180.41992 76.019531 L 179.33984 77.955078 C 180.23984 78.450078 181.9057 78.945312 183.3457 78.945312 C 184.7407 78.945312 187.48438 78.179375 187.48438 76.109375 L 187.48438 67.109375 L 185.18945 67.109375 z M 183.52539 69.404297 C 184.69539 69.404297 185.18945 70.349922 185.18945 71.294922 C 185.18945 72.284922 184.74039 73.230469 183.52539 73.230469 C 182.26539 73.230469 181.94922 72.104922 181.94922 71.294922 C 181.94922 70.484922 182.35539 69.404297 183.52539 69.404297 z " style="fill:#231f20;fill-opacity:1;fill-rule:evenodd;stroke:none"/><path id="path52" transform="matrix(8,0,0,-8,0,2280)" d="M 164.44531 67.109375 L 164.44531 76.019531 L 166.69531 76.019531 L 166.69531 67.109375 L 164.44531 67.109375 z " style="fill:#231f20;fill-opacity:1;fill-rule:evenodd;stroke:none"/><path id="path54" transform="matrix(8,0,0,-8,0,2280)" d="M 165.52539 63.599609 C 164.80414 63.599609 164.2207 64.183047 164.2207 64.904297 C 164.2207 65.624297 164.80414 66.210938 165.52539 66.210938 C 166.24539 66.210938 166.83008 65.624297 166.83008 64.904297 C 166.83008 64.183047 166.24539 63.599609 165.52539 63.599609 z " style="fill:#231f20;fill-opacity:1;fill-rule:evenodd;stroke:none"/><path id="path56" transform="matrix(8,0,0,-8,0,2280)" d="M 173.84961 66.929688 C 172.54461 66.929688 171.59961 67.785156 171.59961 67.785156 L 171.59961 67.109375 L 169.30469 67.109375 L 169.30469 76.019531 L 171.59961 76.019531 L 171.59961 71.115234 C 171.59961 69.945234 172.50031 69.089844 173.44531 69.089844 C 174.43531 69.089844 174.97461 69.719453 174.97461 70.439453 L 174.97461 76.019531 L 177.26953 76.019531 L 177.26953 70.169922 C 177.26953 68.594922 175.87461 66.929688 173.84961 66.929688 z " style="fill:#231f20;fill-opacity:1;fill-rule:evenodd;stroke:none"/><path id="path58" transform="matrix(8,0,0,-8,0,2280)" d="M 147.61523 66.75 C 146.80523 66.75 145.90539 67.065625 145.27539 67.515625 L 145.27539 67.109375 L 142.98047 67.109375 L 142.98047 78.539062 L 145.27539 78.539062 L 145.27539 75.345703 C 145.27539 75.345703 146.04008 76.199219 147.70508 76.199219 C 150.85508 76.199219 151.80078 72.869609 151.80078 71.474609 C 151.80078 70.304609 151.35086 69.044375 150.63086 68.234375 C 150.00086 67.514375 149.05523 66.795 147.61523 66.75 z M 147.30078 68.730469 C 148.65078 68.730469 149.36914 69.944766 149.36914 71.384766 C 149.36914 72.779766 148.60578 73.994141 147.30078 73.994141 C 145.95078 73.994141 145.27539 73.095313 145.27539 72.195312 L 145.27539 70.529297 C 145.27539 69.719297 145.90578 68.730469 147.30078 68.730469 z " style="fill:#231f20;fill-opacity:1;fill-rule:evenodd;stroke:none"/><path id="path60" transform="matrix(8,0,0,-8,0,2280)" d="M 120.29883 67.019531 C 118.90383 67.019531 116.56445 67.560625 116.56445 69.765625 C 116.56445 71.925625 118.67967 72.285078 118.9043 72.330078 C 119.12942 72.420078 120.34528 72.689297 120.66016 72.779297 C 120.97516 72.869297 121.28906 73.05 121.28906 73.5 C 121.28906 73.95 120.74906 74.400391 120.16406 74.400391 C 119.53419 74.400391 118.13969 73.770781 117.55469 73.050781 L 115.79883 74.535156 C 116.4292 75.345156 118.23092 76.335938 120.07617 76.335938 C 121.87592 76.335938 123.81055 75.525078 123.81055 73.455078 C 123.81055 71.385078 122.05556 70.845781 121.69531 70.800781 C 121.38031 70.710781 119.85017 70.394609 119.66992 70.349609 C 119.44492 70.304609 119.03906 70.215781 119.03906 69.675781 C 119.03906 69.135781 119.62408 68.865234 120.29883 68.865234 C 120.9742 68.865234 121.55906 69.135391 122.41406 69.900391 L 123.85547 68.324219 C 122.91059 67.424219 121.64895 67.019531 120.29883 67.019531 z " style="fill:#231f20;fill-opacity:1;fill-rule:evenodd;stroke:none"/><path id="path62" transform="matrix(8,0,0,-8,0,2280)" d="M 128.71484 63.599609 L 126.41992 64.275391 L 126.41992 67.109375 L 124.98047 67.109375 L 124.98047 69.089844 L 126.41992 69.089844 L 126.41992 74.310547 C 126.41992 75.390547 127.13961 76.289062 128.84961 76.289062 C 130.06461 76.289062 130.91938 75.885 131.23438 75.75 L 130.78516 73.859375 C 129.16516 74.354375 128.71484 73.905 128.71484 73.5 L 128.71484 69.089844 L 131.05469 69.089844 L 131.05469 67.109375 L 128.71484 67.109375 L 128.71484 63.599609 z " style="fill:#231f20;fill-opacity:1;fill-rule:evenodd;stroke:none"/><path id="path64" transform="matrix(8,0,0,-8,0,2280)" d="M 136.76953 66.794922 C 134.65453 66.794922 132.44922 68.549375 132.44922 71.609375 C 132.44922 74.669375 134.60953 76.470703 136.76953 76.470703 C 138.97453 76.470703 141.13477 74.669375 141.13477 71.609375 C 141.13477 68.549375 138.92953 66.794922 136.76953 66.794922 z M 136.76953 68.820312 C 137.75953 68.820312 138.83984 69.719375 138.83984 71.609375 C 138.83984 73.544375 137.75953 74.445312 136.76953 74.445312 C 135.82453 74.445312 134.74414 73.544375 134.74414 71.609375 C 134.74414 69.719375 135.82453 68.820312 136.76953 68.820312 z " style="fill:#231f20;fill-opacity:1;fill-rule:evenodd;stroke:none"/><path id="path66" transform="matrix(8,0,0,-8,0,2280)" d="M 158.23438 66.75 C 157.42437 66.75 156.52453 67.065625 155.89453 67.515625 L 155.89453 67.109375 L 153.59961 67.109375 L 153.59961 78.539062 L 155.89453 78.539062 L 155.89453 75.345703 C 155.89453 75.345703 156.65914 76.199219 158.36914 76.199219 C 161.47414 76.199219 162.41992 72.869609 162.41992 71.474609 C 162.41992 70.304609 161.97 69.044375 161.25 68.234375 C 160.62 67.514375 159.67437 66.795 158.23438 66.75 z M 157.91992 68.730469 C 159.26992 68.730469 160.03516 69.944766 160.03516 71.384766 C 160.03516 72.779766 159.22492 73.994141 157.91992 73.994141 C 156.56992 73.994141 155.89453 73.095313 155.89453 72.195312 L 155.89453 70.529297 C 155.89453 69.719297 156.56992 68.730469 157.91992 68.730469 z " style="fill:#231f20;fill-opacity:1;fill-rule:evenodd;stroke:none"/><path id="path68" transform="matrix(8,0,0,-8,0,2280)" d="M 109.63477 108.91406 C 107.70027 108.91406 106.39544 109.76906 105.94531 110.03906 L 106.93555 111.79492 C 107.7008 111.25492 109.2758 110.93945 109.95117 110.93945 C 110.62592 110.93945 110.93945 111.435 110.93945 111.75 L 110.93945 112.24414 C 110.12933 112.24414 108.19489 112.60508 107.38477 112.83008 C 106.66502 113.10008 105.45117 113.59453 105.45117 115.39453 C 105.45117 117.14953 107.29533 118.32031 109.0957 118.32031 C 110.67033 118.32031 111.21094 117.375 111.21094 117.375 C 111.21094 117.375 111.97605 118.32023 113.32617 118.36523 L 114.26953 116.51953 C 113.18953 116.33953 113.2793 115.93406 113.2793 115.66406 L 113.2793 111.0293 C 113.2793 109.8143 112.10989 108.91406 109.63477 108.91406 z M 110.93945 114.04492 L 110.93945 115.71094 C 110.93945 116.38594 109.63478 116.38477 109.41016 116.38477 C 109.23003 116.38477 107.83594 116.33969 107.83594 115.30469 C 107.83594 114.08969 109.49945 114.04492 110.93945 114.04492 z " style="fill:#231f20;fill-opacity:1;fill-rule:evenodd;stroke:none"/><path id="path70" transform="matrix(8,0,0,-8,0,2280)" d="M 125.11523 108.96094 C 123.63011 108.96094 122.64067 109.94922 122.68555 109.94922 C 122.68555 109.94922 121.87552 109.05078 120.52539 109.05078 C 118.99564 109.05078 118.18555 109.72461 118.18555 109.72461 L 118.18555 109.18555 L 115.89062 109.18555 L 115.89062 118.0957 L 118.18555 118.0957 L 118.18555 112.875 C 118.18555 111.66 119.17431 111.16406 119.80469 111.16406 C 120.43456 111.16406 121.10938 111.79547 121.10938 112.60547 L 121.10938 118.0957 L 123.4043 118.0957 L 123.4043 112.91992 C 123.4043 111.79492 124.26022 111.16406 124.98047 111.16406 C 125.70047 111.16406 126.375 111.79539 126.375 112.65039 L 126.375 118.0957 L 128.625 118.0957 L 128.625 112.01953 C 128.625 110.53453 127.41023 108.96094 125.11523 108.96094 z " style="fill:#231f20;fill-opacity:1;fill-rule:evenodd;stroke:none"/><path id="path72" transform="matrix(8,0,0,-8,0,2280)" d="M 134.38477 111.83984 L 134.38477 113.68555 L 138.25586 113.68555 L 138.25586 111.83984 L 134.38477 111.83984 z " style="fill:#231f20;fill-opacity:1;fill-rule:evenodd;stroke:none"/><path id="path74" transform="matrix(8,0,0,-8,0,2280)" d="M 92.400391 105.67578 L 92.400391 107.92578 L 94.695312 107.92578 L 96.496094 107.92578 L 98.384766 107.92578 L 94.246094 118.05078 L 96.900391 118.05078 L 100.99609 107.92578 L 100.99609 105.67578 L 92.400391 105.67578 z " style="fill:#231f20;fill-opacity:1;fill-rule:evenodd;stroke:none"/><path id="path76" transform="matrix(8,0,0,-8,0,2280)" d="M 143.38477 105.67578 L 143.38477 107.92578 L 145.67969 107.92578 L 147.43555 107.92578 L 149.36914 107.92578 L 145.23047 118.05078 L 147.83984 118.05078 L 151.93555 107.92578 L 151.93555 105.67578 L 143.38477 105.67578 z " style="fill:#231f20;fill-opacity:1;fill-rule:evenodd;stroke:none"/><path id="path78" transform="matrix(8,0,0,-8,0,2280)" d="M 161.51953 108.82422 C 160.66453 108.82422 159.76477 109.13984 159.13477 109.58984 L 159.13477 109.18555 L 156.83984 109.18555 L 156.83984 120.61523 L 159.13477 120.61523 L 159.13477 117.41992 C 159.13477 117.41992 159.89937 118.27539 161.60938 118.27539 C 164.71437 118.27539 165.66016 114.99078 165.66016 113.55078 C 165.66016 112.38078 165.21016 111.12055 164.53516 110.31055 C 163.86016 109.59055 162.91453 108.86922 161.51953 108.82422 z M 161.16016 110.84961 C 162.51016 110.84961 163.27539 112.02094 163.27539 113.46094 C 163.27539 114.85594 162.46516 116.07031 161.16016 116.07031 C 159.81016 116.07031 159.13477 115.16953 159.13477 114.26953 L 159.13477 112.65039 C 159.13477 111.79539 159.81016 110.84961 161.16016 110.84961 z " style="fill:#231f20;fill-opacity:1;fill-rule:evenodd;stroke:none"/><path id="path80" transform="matrix(8,0,0,-8,0,2280)" d="M 176.86523 108.96094 C 175.38023 108.96094 174.39055 109.94922 174.43555 109.94922 C 174.43555 109.94922 173.62539 109.05078 172.27539 109.05078 C 170.79039 109.05078 169.93555 109.72461 169.93555 109.72461 L 169.93555 109.18555 L 167.64062 109.18555 L 167.64062 118.0957 L 169.93555 118.0957 L 169.93555 112.875 C 169.93555 111.66 170.92469 111.16406 171.55469 111.16406 C 172.18469 111.16406 172.9043 111.79547 172.9043 112.60547 L 172.9043 118.0957 L 175.19922 118.0957 L 175.19922 112.91992 C 175.19922 111.79492 176.01047 111.16406 176.73047 111.16406 C 177.45047 111.16406 178.125 111.79539 178.125 112.65039 L 178.125 118.0957 L 180.41992 118.0957 L 180.41992 112.01953 C 180.41992 110.53453 179.20523 108.96094 176.86523 108.96094 z " style="fill:#231f20;fill-opacity:1;fill-rule:evenodd;stroke:none"/><path id="path82" transform="matrix(8,0,0,-8,0,2280)" d="M 98.878906 85.740234 L 98.878906 98.160156 L 101.2207 98.160156 L 101.2207 89.070312 L 105.04492 94.289062 L 108.7793 89.070312 L 108.7793 98.160156 L 111.21094 98.160156 L 111.21094 92.804688 L 111.21094 89.294922 L 111.21094 85.740234 L 108.15039 85.740234 L 105.04492 90.150391 L 101.89453 85.740234 L 98.878906 85.740234 z " style="fill:#231f20;fill-opacity:1;fill-rule:evenodd;stroke:none"/><path id="path84" transform="matrix(8,0,0,-8,0,2280)" d="M 129.16406 89.070312 C 127.85906 89.070312 126.91406 89.925781 126.91406 89.925781 L 126.91406 89.25 L 124.62109 89.25 L 124.62109 98.160156 L 126.91406 98.160156 L 126.91406 93.300781 C 126.91406 92.085781 127.81469 91.230469 128.80469 91.230469 C 129.74969 91.230469 130.28906 91.905078 130.28906 92.580078 L 130.28906 98.160156 L 132.63086 98.160156 L 132.63086 92.310547 C 132.63086 90.735547 131.23406 89.070312 129.16406 89.070312 z " style="fill:#231f20;fill-opacity:1;fill-rule:evenodd;stroke:none"/><path id="path86" transform="matrix(8,0,0,-8,0,2280)" d="M 118.23047 88.935547 C 116.07034 88.935547 113.86523 90.69 113.86523 93.75 C 113.86523 96.81 116.02534 98.609375 118.23047 98.609375 C 120.43547 98.609375 122.54883 96.81 122.54883 93.75 C 122.54883 90.69 120.39059 88.935547 118.23047 88.935547 z M 118.23047 90.960938 C 119.17522 90.960938 120.25391 91.859922 120.25391 93.794922 C 120.25391 95.684922 119.17522 96.585938 118.23047 96.585938 C 117.28559 96.585938 116.20508 95.684922 116.20508 93.794922 C 116.20508 91.859922 117.24072 90.960938 118.23047 90.960938 z " style="fill:#231f20;fill-opacity:1;fill-rule:evenodd;stroke:none"/><path id="path88" transform="matrix(8,0,0,-8,0,2280)" d="M 153.10547 85.470703 C 150.90047 85.470703 148.91992 86.460078 148.91992 89.205078 C 148.91992 91.950078 151.21555 92.579766 151.93555 92.759766 C 152.61055 92.894766 154.31961 93.255703 154.72461 93.345703 C 155.17461 93.480703 155.75977 93.885312 155.75977 94.695312 C 155.75977 95.460313 155.04016 96.089844 154.41016 96.089844 C 153.91516 96.089844 152.07047 95.955938 149.73047 94.335938 L 147.92969 96.089844 C 148.91969 97.034844 151.17078 98.384766 154.05078 98.384766 C 156.93078 98.384766 158.46094 96.855625 158.46094 94.515625 C 158.46094 91.905625 156.03062 90.959141 155.26562 90.869141 C 155.04062 90.869141 153.2843 90.420156 152.6543 90.285156 C 151.9793 90.150156 151.75586 89.430234 151.75586 89.115234 C 151.75586 88.800234 151.9357 87.855469 152.9707 87.855469 C 154.6357 87.855469 155.85008 88.395234 156.70508 89.115234 L 158.41406 87.449219 C 156.97406 86.144219 155.35547 85.470703 153.10547 85.470703 z " style="fill:#231f20;fill-opacity:1;fill-rule:evenodd;stroke:none"/><path id="path90" transform="matrix(8,0,0,-8,0,2280)" d="M 164.625 88.980469 C 162.69 88.980469 161.38555 89.835391 160.93555 90.150391 L 161.88086 91.859375 C 162.64586 91.319375 164.26445 91.005859 164.93945 91.005859 C 165.61445 91.005859 165.92969 91.499453 165.92969 91.814453 L 165.92969 92.310547 C 165.11969 92.310547 163.185 92.669531 162.375 92.894531 C 161.655 93.164531 160.43945 93.660937 160.43945 95.460938 C 160.43945 97.215937 162.24094 98.384766 164.08594 98.384766 C 165.66094 98.384766 166.1543 97.439453 166.1543 97.439453 C 166.1543 97.439453 166.96445 98.429688 168.31445 98.429688 L 169.25977 96.630859 C 168.17977 96.405859 168.22461 96.000469 168.22461 95.730469 L 168.22461 91.095703 C 168.22461 89.880703 167.1 88.980469 164.625 88.980469 z M 165.92969 94.109375 L 165.92969 95.775391 C 165.92969 96.450391 164.62539 96.449219 164.40039 96.449219 C 164.17539 96.449219 162.82422 96.404141 162.82422 95.369141 C 162.82422 94.154141 164.48969 94.109375 165.92969 94.109375 z " style="fill:#231f20;fill-opacity:1;fill-rule:evenodd;stroke:none"/><path id="path92" transform="matrix(8,0,0,-8,0,2280)" d="M 174.0293 85.740234 L 171.7793 86.414062 L 171.7793 89.25 L 170.33984 89.25 L 170.33984 91.230469 L 171.7793 91.230469 L 171.7793 96.449219 C 171.7793 97.529219 172.45406 98.429688 174.16406 98.429688 C 175.37906 98.429688 176.28078 98.025547 176.55078 97.935547 L 176.14453 96 C 174.47953 96.495 174.0293 96.045625 174.0293 95.640625 L 174.0293 91.230469 L 176.36914 91.230469 L 176.36914 89.25 L 174.0293 89.25 L 174.0293 85.740234 z " style="fill:#231f20;fill-opacity:1;fill-rule:evenodd;stroke:none"/><path id="path94" transform="matrix(8,0,0,-8,0,2280)" d="M 138.30078 91.904297 L 138.30078 93.75 L 142.16992 93.75 L 142.16992 91.904297 L 138.30078 91.904297 z " style="fill:#231f20;fill-opacity:1;fill-rule:evenodd;stroke:none"/></g></g><g id="g4503"><path style="fill:#ffffff;fill-opacity:1;fill-rule:evenodd;stroke:none" d="M 76.515625 129.11914 C 74.670375 129.11914 73.185547 130.60422 73.185547 132.44922 L 73.185547 274.19922 C 73.185547 275.99951 74.670375 277.48438 76.515625 277.48438 L 197.47461 277.48438 C 199.31961 277.48438 200.80469 275.99951 200.80469 274.19922 L 200.80469 132.44922 C 200.80469 130.60422 199.31961 129.11914 197.47461 129.11914 L 76.515625 129.11914 z " transform="matrix(8,0,0,-8,0,2280)" id="path16"/><g id="g4395"><g id="g4347"><path style="fill:#1478c7;fill-opacity:1;fill-rule:evenodd;stroke:none" d="M 81.871094 177.85547 C 80.161094 177.85547 78.720703 179.29391 78.720703 181.00391 L 78.720703 218.98438 C 78.720703 220.69437 80.161094 222.13477 81.871094 222.13477 L 119.84961 222.13477 C 121.60448 222.13477 123 220.69438 123 218.98438 L 123 181.00391 C 123 179.29391 121.60448 177.85547 119.84961 177.85547 L 81.871094 177.85547 z " transform="matrix(8,0,0,-8,0,2280)" id="path108"/><path style="fill:#ffffff;fill-opacity:1;fill-rule:evenodd;stroke:none" d="M 109.81445 200.40039 L 105.7207 203.77539 L 111.52539 210.79492 L 115.57617 207.46484 L 109.81445 200.40039 z " transform="matrix(8,0,0,-8,0,2280)" id="path110"/><path style="fill:#ffffff;fill-opacity:1;fill-rule:evenodd;stroke:none" d="M 105.45117 212.09961 C 104.01067 212.09961 102.88477 213.26906 102.88477 214.66406 C 102.88477 216.05906 104.01067 217.23047 105.45117 217.23047 C 106.84617 217.23047 107.9707 216.05906 107.9707 214.66406 C 107.9707 213.26906 106.84617 212.09961 105.45117 212.09961 z " transform="matrix(8,0,0,-8,0,2280)" id="path112"/><path style="fill:#ffffff;fill-opacity:1;fill-rule:evenodd;stroke:none" d="M 97.214844 182.71484 C 95.684969 182.71484 94.470703 183.92919 94.470703 185.41406 C 94.470703 185.99906 94.605047 186.49556 94.919922 186.94531 C 95.190047 187.21531 95.279703 187.71095 94.830078 187.8457 C 94.424703 187.98095 93.479563 188.33891 92.804688 188.87891 C 92.129437 189.37403 91.364328 190.27391 91.048828 191.12891 L 91.003906 191.12891 L 87.855469 199.36523 L 83.939453 215.33984 L 83.939453 217.18555 L 88.845703 217.18555 C 89.520453 217.18555 89.475562 216.60012 89.070312 216.375 L 86.865234 215.11523 L 89.25 210.12109 L 91.5 204.53906 L 91.5 217.18555 L 96.451172 217.18555 C 97.306047 217.18555 97.1255 216.60012 96.765625 216.375 C 96.45075 216.14988 94.335938 215.02539 94.335938 215.02539 C 94.335938 215.02539 94.74025 212.23537 94.875 211.51562 C 95.00975 210.79537 95.279297 207.42084 95.279297 206.74609 C 95.279297 206.07084 95.234422 202.69434 95.279297 202.19922 C 95.369672 201.74947 95.548828 200.625 95.548828 200.625 C 96.943953 202.19975 98.969281 203.05459 100.00391 203.32422 L 100.00391 203.32617 L 110.84961 216.33008 L 117.87109 210.3457 L 116.20508 208.27539 L 111.3457 212.37109 L 102.48047 201.79492 L 99.509766 200.2207 C 99.060016 199.99608 98.789484 199.85991 98.474609 199.41016 C 98.114734 198.91503 97.664062 197.2042 97.664062 195.67383 C 97.664062 194.0992 98.474609 190.59083 98.474609 190.0957 C 98.474609 189.60108 98.11575 188.87942 97.890625 188.6543 C 97.7105 188.42967 97.980016 188.11525 98.384766 187.89062 C 99.330141 187.4405 99.960938 186.49419 99.960938 185.41406 C 99.960938 183.92919 98.700219 182.71484 97.214844 182.71484 z " transform="matrix(8,0,0,-8,0,2280)" id="path114"/></g><g id="g4353"><path style="fill:#1478c7;fill-opacity:1;fill-rule:evenodd;stroke:none" d="M 81.871094 227.66992 C 80.161094 227.66992 78.720703 229.11031 78.720703 230.82031 L 78.720703 268.79883 C 78.720703 270.5537 80.161094 271.94922 81.871094 271.94922 L 119.84961 271.94922 C 121.60448 271.94922 123 270.5537 123 268.79883 L 123 230.82031 C 123 229.08106 121.58886 227.66992 119.84961 227.66992 L 81.871094 227.66992 z " transform="matrix(8,0,0,-8,0,2280)" id="path146"/><path style="fill:#ffffff;fill-opacity:1;fill-rule:evenodd;stroke:none" d="M 91.994141 245.67383 C 87.675266 247.9467 84.974609 252.39263 84.974609 257.23438 C 84.974609 264.46625 90.898453 270.33008 98.205078 270.33008 C 103.58095 270.33008 108.42383 267.11034 110.45508 262.18359 L 110.44531 262.14062 L 108.00977 256.91211 C 108.01314 257.01898 108.01562 257.12738 108.01562 257.23438 C 108.01562 262.6025 103.62245 266.95508 98.205078 266.95508 C 92.787578 266.95508 88.394531 262.6025 88.394531 257.23438 C 88.394531 254.165 89.857922 251.27541 92.341797 249.44141 L 91.994141 245.67383 z " transform="matrix(8,0,0,-8,0,2280)" id="path148"/><path style="fill:#ffffff;fill-opacity:1;fill-rule:evenodd;stroke:none" d="M 96.628906 228.61523 C 94.441906 228.61523 92.669922 230.36717 92.669922 232.5293 C 92.669922 232.54367 92.669854 232.55971 92.669922 232.57422 L 92.714844 232.57422 L 92.669922 232.57812 L 94.064453 253.5 L 108.41992 253.5 L 114.08984 266.14453 L 121.1543 263.03906 L 119.93945 260.42969 L 116.20508 262.0957 L 110.66992 250.08008 L 97.349609 250.08008 L 97.169922 247.28906 L 107.33984 247.28906 L 107.33984 244.0957 L 97.035156 244.0957 L 96.539062 236.44531 L 96.492188 236.44141 C 96.538062 236.44291 96.583531 236.44531 96.628906 236.44531 C 98.815906 236.44531 100.58984 234.69142 100.58984 232.5293 C 100.58984 230.36717 98.815906 228.61523 96.628906 228.61523 z " transform="matrix(8,0,0,-8,0,2280)" id="path150"/></g><g id="g4358"><path style="fill:#231f20;fill-opacity:1;fill-rule:evenodd;stroke:none" d="M 109.58984 135.55469 L 109.58984 147.92969 L 117.96094 147.92969 L 117.96094 145.63477 L 111.97461 145.63477 L 111.97461 142.89062 L 117.06055 142.89062 L 117.06055 140.5957 L 111.97461 140.5957 L 111.97461 137.84961 L 117.59961 137.84961 L 117.59961 135.55469 L 115.5293 135.55469 L 113.5957 135.55469 L 109.58984 135.55469 z " transform="matrix(8,0,0,-8,0,2280)" id="path96"/><path style="fill:#231f20;fill-opacity:1;fill-rule:evenodd;stroke:none" d="M 120.25391 139.06445 L 122.95508 143.20508 L 119.89453 147.92969 L 122.50391 147.92969 L 124.30469 145.27539 L 126.06055 147.92969 L 126.86914 147.92969 L 127.72461 147.92969 L 128.71484 147.92969 L 125.60938 143.20508 L 128.35547 139.06445 L 125.69922 139.06445 L 124.30469 141.22461 L 122.86523 139.06445 L 120.25391 139.06445 z " transform="matrix(8,0,0,-8,0,2280)" id="path98"/><path style="fill:#231f20;fill-opacity:1;fill-rule:evenodd;stroke:none" d="M 134.11523 138.75 C 132.13523 138.75 129.79492 140.54945 129.79492 143.56445 C 129.79492 146.53445 131.955 148.4707 134.25 148.4707 C 136.545 148.4707 137.98586 146.49023 138.25586 145.36523 L 136.00586 144.86914 C 135.87086 145.40914 135.19516 146.40039 134.16016 146.40039 C 133.12516 146.40039 132.08984 145.45445 132.08984 143.56445 C 132.08984 141.71945 133.21508 140.73047 134.20508 140.73047 C 135.15008 140.73047 135.73594 141.53992 135.96094 142.16992 L 138.07422 141.44922 C 137.62422 140.05422 136.05023 138.75 134.11523 138.75 z " transform="matrix(8,0,0,-8,0,2280)" id="path100"/><path style="fill:#231f20;fill-opacity:1;fill-rule:evenodd;stroke:none" d="M 143.47461 138.79492 C 140.14461 138.79492 139.42578 142.34961 139.42578 143.47461 C 139.42578 144.59961 140.09914 148.24414 143.74414 148.24414 C 145.81414 148.24414 146.89406 147.07477 147.16406 146.75977 L 145.76953 145.36523 C 145.76953 145.36523 145.09406 146.2207 143.78906 146.2207 C 142.43906 146.2207 141.7207 145.23 141.7207 144.375 L 147.57031 144.375 C 147.70531 143.25 147.25461 138.79492 143.47461 138.79492 z M 143.51953 140.86523 C 144.64453 140.86523 145.27539 141.76414 145.27539 142.61914 L 141.7207 142.61914 C 141.7207 141.71914 142.39453 140.86523 143.51953 140.86523 z " transform="matrix(8,0,0,-8,0,2280)" id="path102"/><path style="fill:#231f20;fill-opacity:1;fill-rule:evenodd;stroke:none" d="M 154.05078 138.75 C 153.24078 138.705 152.34094 139.0657 151.71094 139.4707 L 151.71094 139.06445 L 149.41406 139.06445 L 149.41406 150.49414 L 151.71094 150.49414 L 151.71094 147.30078 C 151.71094 147.30078 152.47562 148.19922 154.14062 148.19922 C 157.24562 148.19922 158.23438 144.86969 158.23438 143.42969 C 158.23438 142.30469 157.78445 141.04438 157.06445 140.23438 C 156.43445 139.46938 155.44578 138.75 154.05078 138.75 z M 153.68945 140.73047 C 155.08445 140.73047 155.80469 141.94484 155.80469 143.33984 C 155.80469 144.73484 155.03945 145.99414 153.68945 145.99414 C 152.38445 145.99414 151.71094 145.05039 151.71094 144.15039 L 151.71094 142.5293 C 151.71094 141.7193 152.33945 140.73047 153.68945 140.73047 z " transform="matrix(8,0,0,-8,0,2280)" id="path104"/><path style="fill:#231f20;fill-opacity:1;fill-rule:evenodd;stroke:none" d="M 163.41016 135.55469 L 161.16016 136.32031 L 161.16016 139.1543 L 159.67578 139.1543 L 159.67578 141.04492 L 161.16016 141.04492 L 161.16016 146.26562 C 161.16016 147.48063 161.74492 148.19922 163.54492 148.19922 C 164.71492 148.19922 165.61469 147.93 165.92969 147.75 L 165.48047 145.81445 C 163.81547 146.44445 163.41016 145.99492 163.41016 145.54492 L 163.41016 141.04492 L 165.75 141.04492 L 165.75 139.1543 L 163.41016 139.1543 L 163.41016 135.55469 z " transform="matrix(8,0,0,-8,0,2280)" id="path106"/><path style="fill:#231f20;fill-opacity:1;fill-rule:evenodd;stroke:none" d="M 134.02539 204.08984 C 130.29039 204.08984 128.93945 206.69922 128.93945 208.94922 L 131.5957 208.94922 C 131.5957 207.64447 132.13406 206.33984 133.66406 206.33984 C 135.14906 206.33984 135.91406 207.46491 135.91406 208.41016 C 135.91406 210.29978 133.30539 211.60502 129.52539 214.25977 L 129.52539 216.68945 L 138.3457 216.68945 L 138.3457 214.43945 L 133.8457 214.43945 C 138.3457 211.60445 138.57031 209.35547 138.57031 208.23047 C 138.57031 207.10547 137.80539 204.08984 134.02539 204.08984 z " transform="matrix(8,0,0,-8,0,2280)" id="path116"/><path style="fill:#231f20;fill-opacity:1;fill-rule:evenodd;stroke:none" d="M 145.94922 204.17969 C 144.19422 204.13431 140.73047 205.17031 140.73047 210.57031 C 140.73047 215.92519 143.96922 217.00391 145.94922 217.00391 C 147.92922 217.00391 151.16992 215.92519 151.16992 210.57031 C 151.16992 205.17031 147.70422 204.13431 145.94922 204.17969 z M 145.94922 206.47461 C 147.25422 206.47461 148.56047 207.24022 148.60547 210.48047 C 148.65047 213.67522 147.43422 214.66406 145.94922 214.66406 C 144.46422 214.66406 143.24992 213.67522 143.29492 210.48047 C 143.33992 207.24022 144.64422 206.47461 145.94922 206.47461 z " transform="matrix(8,0,0,-8,0,2280)" id="path118"/><path style="fill:#231f20;fill-opacity:1;fill-rule:evenodd;stroke:none" d="M 165.97461 207.50977 C 164.48961 207.50977 163.49992 208.5 163.54492 208.5 C 163.54492 208.5 162.73477 207.59961 161.38477 207.59961 C 159.89977 207.59961 159.04492 208.27539 159.04492 208.27539 L 159.04492 207.73438 L 156.75 207.73438 L 156.75 216.64453 L 159.04492 216.64453 L 159.04492 211.42383 C 159.04492 210.20908 160.03406 209.71484 160.66406 209.71484 C 161.29406 209.71484 162.01562 210.3443 162.01562 211.1543 L 162.01562 216.64453 L 164.26562 216.64453 L 164.26562 211.4707 C 164.26562 210.3457 165.11984 209.71484 165.83984 209.71484 C 166.55984 209.71484 167.23438 210.34422 167.23438 211.19922 L 167.23438 216.64453 L 169.48438 216.64453 L 169.48438 210.57031 C 169.48438 209.08544 168.26961 207.50977 165.97461 207.50977 z " transform="matrix(8,0,0,-8,0,2280)" id="path120"/><path id="path122" style="fill:#231f20;fill-opacity:1;fill-rule:evenodd;stroke:none" d="m 1377.12,546.84 18,0 0,71.2813 -18,0 0,-71.2813 z"/><path style="fill:#231f20;fill-opacity:1;fill-rule:evenodd;stroke:none" d="M 173.2207 204.22461 C 172.5007 204.22461 171.91406 204.80867 171.91406 205.5293 C 171.91406 206.25005 172.5007 206.83594 173.2207 206.83594 C 173.94195 206.83594 174.52539 206.25005 174.52539 205.5293 C 174.52539 204.80867 173.94195 204.22461 173.2207 204.22461 z " transform="matrix(8,0,0,-8,0,2280)" id="path124"/><path style="fill:#231f20;fill-opacity:1;fill-rule:evenodd;stroke:none" d="M 181.54492 207.55469 C 180.23992 207.55469 179.29492 208.41016 179.29492 208.41016 L 179.29492 207.73438 L 177 207.73438 L 177 216.64453 L 179.29492 216.64453 L 179.29492 211.74023 C 179.29492 210.57036 180.19563 209.71484 181.14062 209.71484 C 182.13063 209.71484 182.66992 210.3442 182.66992 211.06445 L 182.66992 216.64453 L 184.96484 216.64453 L 184.96484 210.79492 C 184.96484 209.2198 183.56992 207.55469 181.54492 207.55469 z " transform="matrix(8,0,0,-8,0,2280)" id="path126"/><path style="fill:#231f20;fill-opacity:1;fill-rule:evenodd;stroke:none" d="M 191.13086 207.64453 C 189.78086 207.64453 187.43945 208.1855 187.43945 210.39062 C 187.43945 212.55025 189.5543 212.91008 189.7793 212.95508 C 190.0043 213.04483 191.22016 213.31455 191.53516 213.4043 C 191.85016 213.49467 192.16406 213.67475 192.16406 214.125 C 192.16406 214.57475 191.62414 215.07031 190.99414 215.07031 C 190.40914 215.07031 189.01469 214.39408 188.42969 213.67383 L 186.67578 215.16016 C 187.30578 215.96978 189.10422 216.96094 190.94922 216.96094 C 192.74922 216.96094 194.68555 216.14983 194.68555 214.08008 C 194.68555 212.0097 192.93031 211.5142 192.57031 211.42383 C 192.21031 211.33408 190.72492 211.01948 190.54492 210.97461 C 190.31992 210.92961 189.91406 210.83895 189.91406 210.29883 C 189.91406 209.75883 190.50078 209.49023 191.17578 209.49023 C 191.85078 209.49023 192.43406 209.76027 193.28906 210.52539 L 194.73047 208.94922 C 193.78547 208.04922 192.52586 207.64453 191.13086 207.64453 z " transform="matrix(8,0,0,-8,0,2280)" id="path128"/><path style="fill:#231f20;fill-opacity:1;fill-rule:evenodd;stroke:none" d="M 153.86914 185.32422 C 151.93414 185.32422 150.62969 186.17959 150.17969 186.44922 L 151.16992 188.20508 C 151.93492 187.66495 153.51055 187.34961 154.18555 187.34961 C 154.86055 187.34961 155.17578 187.84523 155.17578 188.11523 L 155.17578 188.6543 C 154.36578 188.6543 152.42914 188.97023 151.61914 189.24023 C 150.89914 189.51023 149.73047 190.00444 149.73047 191.80469 C 149.73047 193.55956 151.53008 194.73047 153.33008 194.73047 C 154.90508 194.73047 155.40039 193.78516 155.40039 193.78516 C 155.40039 193.78516 156.21055 194.73052 157.56055 194.77539 L 158.46094 192.92969 C 157.38094 192.74956 157.4707 192.34422 157.4707 192.07422 L 157.4707 187.43945 C 157.4707 186.22458 156.34414 185.32422 153.86914 185.32422 z M 155.17578 190.41016 L 155.17578 192.12109 C 155.17578 192.79584 153.86953 192.75 153.64453 192.75 C 153.41953 192.75 152.07031 192.75005 152.07031 191.66992 C 152.07031 190.50005 153.73578 190.45516 155.17578 190.41016 z " transform="matrix(8,0,0,-8,0,2280)" id="path130"/><path style="fill:#231f20;fill-opacity:1;fill-rule:evenodd;stroke:none" d="M 166.19922 182.08594 L 166.19922 186.26953 C 165.29922 185.63966 164.80461 185.37109 163.72461 185.37109 C 162.64461 185.37109 159.76562 186.40383 159.76562 190.04883 C 159.76562 193.69395 162.5543 194.86523 163.9043 194.86523 C 165.2543 194.86523 166.19922 194.09961 166.19922 194.09961 L 166.19922 194.50391 L 168.49414 194.50391 L 168.49414 182.08594 L 166.19922 182.08594 z M 164.2207 187.57422 C 165.3457 187.57422 166.19922 188.25003 166.19922 189.28516 L 166.19922 191.08594 C 166.19922 191.80606 165.5707 192.88477 164.2207 192.88477 C 162.9157 192.88477 162.15039 191.7607 162.15039 190.0957 C 162.15039 188.3857 163.0507 187.57422 164.2207 187.57422 z " transform="matrix(8,0,0,-8,0,2280)" id="path132"/><path style="fill:#231f20;fill-opacity:1;fill-rule:evenodd;stroke:none" d="M 191.40039 185.5957 L 191.40039 186.08984 C 190.81539 185.72997 189.95961 185.64062 189.59961 185.64062 C 188.51961 185.64062 187.71031 185.95416 186.94531 186.62891 C 185.59531 187.79878 185.5957 189.7793 185.5957 189.7793 C 185.5957 189.7793 185.68461 194.05469 189.59961 194.05469 C 190.63461 194.05469 191.40039 193.56055 191.40039 193.56055 C 191.40039 193.56055 191.75977 195.26953 189.50977 195.26953 C 187.88977 195.26953 187.08086 194.72903 186.63086 194.50391 L 185.55078 196.43945 C 186.45078 196.93445 188.11469 197.42969 189.55469 197.42969 C 190.94969 197.42969 193.69531 196.66595 193.69531 194.5957 L 193.69531 185.5957 L 191.40039 185.5957 z M 189.73438 187.89062 C 190.90437 187.89062 191.40039 188.83455 191.40039 189.7793 C 191.40039 190.76955 190.94938 191.71484 189.73438 191.71484 C 188.51938 191.71484 188.16016 190.58942 188.16016 189.7793 C 188.16016 188.9693 188.56438 187.89062 189.73438 187.89062 z " transform="matrix(8,0,0,-8,0,2280)" id="path134"/><path style="fill:#231f20;fill-opacity:1;fill-rule:evenodd;stroke:none" d="M 170.6543 185.59375 L 170.6543 194.50391 L 172.95117 194.50391 L 172.95117 185.59375 L 170.6543 185.59375 z " transform="matrix(8,0,0,-8,0,2280)" id="path136"/><path style="fill:#231f20;fill-opacity:1;fill-rule:evenodd;stroke:none" d="M 171.73438 182.08594 C 171.01313 182.08594 170.42969 182.66987 170.42969 183.39062 C 170.42969 184.11137 171.01313 184.69531 171.73438 184.69531 C 172.45437 184.69531 173.03906 184.11137 173.03906 183.39062 C 173.03906 182.66987 172.45437 182.08594 171.73438 182.08594 z " transform="matrix(8,0,0,-8,0,2280)" id="path138"/><path style="fill:#231f20;fill-opacity:1;fill-rule:evenodd;stroke:none" d="M 180.06055 185.41406 C 178.75555 185.41406 177.81055 186.26953 177.81055 186.26953 L 177.81055 185.5957 L 175.51562 185.5957 L 175.51562 194.50391 L 177.81055 194.50391 L 177.81055 189.59961 C 177.81055 188.42961 178.70922 187.57422 179.69922 187.57422 C 180.64422 187.57422 181.18555 188.20416 181.18555 188.87891 L 181.18555 194.50391 L 183.48047 194.50391 L 183.48047 188.6543 C 183.48047 187.07967 182.13055 185.41406 180.06055 185.41406 z " transform="matrix(8,0,0,-8,0,2280)" id="path140"/><path style="fill:#231f20;fill-opacity:1;fill-rule:evenodd;stroke:none" d="M 143.92578 185.2793 C 141.76578 185.2793 139.60547 187.03608 139.60547 190.0957 C 139.60547 193.1557 141.72078 194.95508 143.92578 194.95508 C 146.13078 194.95508 148.24414 193.1557 148.24414 190.0957 C 148.24414 187.03608 146.08578 185.2793 143.92578 185.2793 z M 143.92578 187.30469 C 144.87078 187.30469 145.94922 188.16108 145.94922 190.0957 C 145.94922 192.0307 144.87078 192.92969 143.92578 192.92969 C 142.98078 192.92969 141.90039 192.0307 141.90039 190.0957 C 141.90039 188.16108 142.93578 187.30469 143.92578 187.30469 z " transform="matrix(8,0,0,-8,0,2280)" id="path142"/><path style="fill:#231f20;fill-opacity:1;fill-rule:evenodd;stroke:none" d="M 130.56055 182.08594 L 130.56055 194.46094 L 138.57031 194.46094 L 138.57031 192.0293 L 133.08008 192.0293 L 133.08008 182.08594 L 130.56055 182.08594 z " transform="matrix(8,0,0,-8,0,2280)" id="path144"/><path style="fill:#231f20;fill-opacity:1;fill-rule:evenodd;stroke:none" d="M 134.25 242.87891 C 131.415 242.87891 129.66055 244.31991 129.43555 246.66016 L 132.04492 246.97461 C 132.22492 245.80411 132.80969 245.12891 134.42969 245.12891 C 136.04969 245.12891 136.23047 246.25491 136.23047 246.66016 C 136.23047 247.73978 135.55437 248.18945 133.48438 248.18945 L 133.48438 250.25977 C 134.11437 250.30464 135.32945 250.25925 135.68945 250.48438 C 136.40945 250.9795 136.41016 251.34084 136.41016 251.74609 C 136.41016 252.01609 136.36453 253.5 134.51953 253.5 C 132.67453 253.5 132.22492 252.46441 132.04492 251.51953 L 129.43555 251.9707 C 129.75055 254.13083 131.23461 255.79492 134.47461 255.79492 C 137.71461 255.79492 139.06445 253.58891 139.06445 251.87891 C 139.06445 250.16891 138.03039 249.17967 137.40039 249.04492 C 137.49039 249.04492 138.83984 248.46052 138.83984 246.52539 C 138.83984 244.59039 137.13 242.87891 134.25 242.87891 z " transform="matrix(8,0,0,-8,0,2280)" id="path152"/><path style="fill:#231f20;fill-opacity:1;fill-rule:evenodd;stroke:none" d="M 147.25586 243.01562 L 147.25586 255.43555 L 149.55078 255.43555 L 149.55078 250.125 C 149.55078 249.315 150.315 248.54883 151.125 248.54883 C 151.935 248.54883 152.83594 249.08988 152.83594 250.125 L 152.83594 255.43555 L 155.08594 255.43555 L 155.08594 249.31445 C 155.08594 247.55945 153.55562 246.3457 151.89062 246.3457 C 150.40562 246.3457 149.86578 246.83936 149.55078 246.97461 L 149.55078 243.01562 L 147.25586 243.01562 z " transform="matrix(8,0,0,-8,0,2280)" id="path154"/><path style="fill:#231f20;fill-opacity:1;fill-rule:evenodd;stroke:none" d="M 161.51953 246.25391 C 159.31453 246.25391 157.19922 248.01022 157.19922 250.98047 C 157.19922 254.13034 159.31453 255.92969 161.51953 255.92969 C 163.76953 255.92969 165.83984 254.13034 165.83984 250.98047 C 165.83984 248.01022 163.58953 246.25391 161.51953 246.25391 z M 161.51953 248.18945 C 162.41953 248.18945 163.58984 249.04534 163.58984 250.98047 C 163.58984 252.96047 162.41953 253.81445 161.51953 253.81445 C 160.48453 253.81445 159.44922 252.96047 159.44922 250.98047 C 159.44922 249.04534 160.48453 248.18945 161.51953 248.18945 z " transform="matrix(8,0,0,-8,0,2280)" id="path156"/><path style="fill:#231f20;fill-opacity:1;fill-rule:evenodd;stroke:none" d="M 168.22461 246.52539 L 168.22461 252.50977 C 168.22461 254.12989 169.52984 255.61523 171.46484 255.61523 C 172.67984 255.61523 173.57961 255.02972 173.84961 254.71484 L 173.84961 255.48047 L 176.23438 255.48047 L 176.23438 246.52539 L 173.84961 246.52539 L 173.84961 251.42969 C 173.84961 252.77981 172.81406 253.36523 171.91406 253.36523 C 171.01406 253.36523 170.56445 252.77878 170.56445 251.87891 L 170.56445 246.52539 L 168.22461 246.52539 z " transform="matrix(8,0,0,-8,0,2280)" id="path158"/><path style="fill:#231f20;fill-opacity:1;fill-rule:evenodd;stroke:none" d="M 183.88477 246.29883 C 181.72477 246.29883 181.40914 246.83891 180.86914 247.37891 L 180.86914 246.48047 L 178.57422 246.48047 L 178.57422 255.3457 L 180.86914 255.3457 L 180.86914 250.93555 C 180.86914 249.63042 182.30977 248.50391 183.88477 248.50391 L 183.88477 246.29883 z " transform="matrix(8,0,0,-8,0,2280)" id="path160"/><path style="fill:#231f20;fill-opacity:1;fill-rule:evenodd;stroke:none" d="M 189.73438 246.39062 C 188.33937 246.39062 186 246.92969 186 249.17969 C 186 251.29494 188.11484 251.70072 188.33984 251.74609 C 188.56484 251.79097 189.7807 252.06052 190.0957 252.15039 C 190.4107 252.24027 190.72461 252.46394 190.72461 252.91406 C 190.72461 253.36381 190.18461 253.81445 189.59961 253.81445 C 188.96961 253.81445 187.57523 253.18505 186.99023 252.41992 L 185.23438 253.94922 C 185.86437 254.71434 187.66477 255.70508 189.50977 255.70508 C 191.30977 255.70508 193.24414 254.89447 193.24414 252.82422 C 193.24414 250.79922 191.49086 250.2598 191.13086 250.16992 C 190.81586 250.08017 189.28547 249.76608 189.10547 249.7207 C 188.88047 249.6757 188.51953 249.58505 188.51953 249.04492 C 188.51953 248.50492 189.05937 248.23438 189.73438 248.23438 C 190.40938 248.23438 190.99461 248.50441 191.84961 249.26953 L 193.33594 247.69531 C 192.34594 246.79531 191.08437 246.39062 189.73438 246.39062 z " transform="matrix(8,0,0,-8,0,2280)" id="path162"/><path style="fill:#231f20;fill-opacity:1;fill-rule:evenodd;stroke:none" d="M 113.64062 158.77539 C 111.70562 158.77539 110.39942 159.63039 109.9043 159.90039 L 110.89453 161.60938 C 111.65966 161.11425 113.2797 160.75391 113.95508 160.75391 C 114.62983 160.75391 114.90039 161.29433 114.90039 161.56445 L 114.90039 162.06055 C 114.13527 162.06055 112.15525 162.41933 111.39062 162.68945 C 110.67038 162.91445 109.45508 163.45606 109.45508 165.21094 C 109.45508 166.96581 111.25436 168.13477 113.09961 168.13477 C 114.67423 168.13477 115.16992 167.23438 115.16992 167.23438 C 115.16992 167.23438 115.98003 168.17969 117.28516 168.17969 L 118.23047 166.37891 C 117.15034 166.15378 117.24023 165.79534 117.24023 165.48047 L 117.24023 160.89062 C 117.24023 159.6755 116.11575 158.77539 113.64062 158.77539 z M 114.90039 163.85938 L 114.90039 165.57031 C 114.90039 166.20019 113.63919 166.19922 113.41406 166.19922 C 113.18906 166.19922 111.83984 166.15572 111.83984 165.12109 C 111.83984 163.95072 113.50539 163.85938 114.90039 163.85938 z " transform="matrix(8,0,0,-8,0,2280)" id="path164"/><path style="fill:#231f20;fill-opacity:1;fill-rule:evenodd;stroke:none" d="M 129.11914 158.82031 C 127.63414 158.82031 126.64445 159.81055 126.68945 159.81055 C 126.68945 159.81055 125.87955 158.86523 124.5293 158.86523 C 123.04442 158.86523 122.18945 159.53906 122.18945 159.53906 L 122.18945 159 L 119.89453 159 L 119.89453 167.91016 L 122.18945 167.91016 L 122.18945 162.73438 C 122.18945 161.5195 123.18067 160.98047 123.81055 160.98047 C 124.44055 160.98047 125.16016 161.60992 125.16016 162.41992 L 125.16016 167.91016 L 127.41016 167.91016 L 127.41016 162.7793 C 127.41016 161.6543 128.26438 160.98047 128.98438 160.98047 C 129.70437 160.98047 130.38086 161.60984 130.38086 162.46484 L 130.38086 167.91016 L 132.63086 167.91016 L 132.63086 161.87891 C 132.63086 160.39403 131.41414 158.82031 129.11914 158.82031 z " transform="matrix(8,0,0,-8,0,2280)" id="path166"/><path style="fill:#231f20;fill-opacity:1;fill-rule:evenodd;stroke:none" d="M 168.22461 158.68555 C 167.36961 158.64055 166.46977 158.9543 165.88477 159.4043 L 165.88477 159 L 163.58984 159 L 163.58984 170.42969 L 165.88477 170.42969 L 165.88477 167.23438 C 165.88477 167.23438 166.60445 168.13477 168.31445 168.13477 C 171.41945 168.13477 172.36523 164.80561 172.36523 163.36523 C 172.36523 162.24023 171.91523 160.98005 171.24023 160.16992 C 170.56523 159.40505 169.61961 158.68555 168.22461 158.68555 z M 167.86523 160.66406 C 169.21523 160.66406 169.98047 161.83552 169.98047 163.27539 C 169.98047 164.67039 169.21523 165.92969 167.86523 165.92969 C 166.51523 165.92969 165.88477 164.98581 165.88477 164.08594 L 165.88477 162.46484 C 165.88477 161.65472 166.51523 160.66406 167.86523 160.66406 z " transform="matrix(8,0,0,-8,0,2280)" id="path168"/><path style="fill:#231f20;fill-opacity:1;fill-rule:evenodd;stroke:none" d="M 88.621094 155.49023 C 88.306094 157.29023 87.270547 157.28906 86.685547 157.28906 L 86.326172 157.28906 L 86.326172 159.26953 L 88.349609 159.26953 L 88.349609 167.86523 L 90.826172 167.86523 L 90.826172 155.49023 L 88.621094 155.49023 z " transform="matrix(8,0,0,-8,0,2280)" id="path170"/><path style="fill:#231f20;fill-opacity:1;fill-rule:evenodd;stroke:none" d="M 153.28516 155.49023 L 147.25586 163.54492 L 147.25586 165.75 L 153.96094 165.75 L 153.96094 167.86523 L 156.43555 167.86523 L 156.43555 165.75 L 158.05469 165.75 L 158.05469 163.5 L 156.43555 163.5 L 156.43555 162.15039 L 156.43555 159.35938 L 156.43555 155.49023 L 153.28516 155.49023 z M 153.96094 158.2793 L 153.96094 159.67578 L 153.96094 162.33008 L 153.96094 163.5 L 150 163.5 L 153.96094 158.2793 z " transform="matrix(8,0,0,-8,0,2280)" id="path172"/><path style="fill:#231f20;fill-opacity:1;fill-rule:evenodd;stroke:none" d="M 99.330078 155.44531 C 97.529703 155.40031 94.109375 156.43594 94.109375 161.83594 C 94.109375 167.23581 97.350078 168.31445 99.330078 168.31445 C 101.26508 168.31445 104.54883 167.23581 104.54883 161.83594 C 104.54883 156.43594 101.08495 155.40031 99.330078 155.44531 z M 99.330078 157.78516 C 100.6347 157.78516 101.9395 158.55097 101.98438 161.74609 C 102.02925 164.98584 100.81495 165.92969 99.330078 165.92969 C 97.845203 165.92969 96.628953 164.98584 96.673828 161.74609 C 96.719328 158.55097 98.024828 157.78516 99.330078 157.78516 z " transform="matrix(8,0,0,-8,0,2280)" id="path174"/><path style="fill:#231f20;fill-opacity:1;fill-rule:evenodd;stroke:none" d="M 138.3457 161.6543 L 138.3457 163.54492 L 142.21484 163.54492 L 142.21484 161.6543 L 138.3457 161.6543 z " transform="matrix(8,0,0,-8,0,2280)" id="path176"/><path style="fill:#231f20;fill-opacity:1;fill-rule:evenodd;stroke:none" d="M 183.57031 158.82031 C 182.08531 158.82031 181.0957 159.81055 181.0957 159.81055 C 181.1407 159.81055 180.33047 158.86523 178.98047 158.86523 C 177.45047 158.86523 176.64062 159.53906 176.64062 159.53906 L 176.64062 159 L 174.3457 159 L 174.3457 167.91016 L 176.64062 167.91016 L 176.64062 162.73438 C 176.64062 161.5195 177.62977 160.98047 178.25977 160.98047 C 178.88977 160.98047 179.56445 161.60992 179.56445 162.41992 L 179.56445 167.91016 L 181.85938 167.91016 L 181.85938 162.7793 C 181.85938 161.6543 182.67063 160.98047 183.39062 160.98047 C 184.11062 160.98047 184.78516 161.60984 184.78516 162.46484 L 184.78516 167.91016 L 187.08008 167.91016 L 187.08008 161.87891 C 187.08008 160.39403 185.86531 158.82031 183.57031 158.82031 z " transform="matrix(8,0,0,-8,0,2280)" id="path178"/></g></g></g></g></g></g></svg>