<?xml version="1.0" encoding="UTF-8" standalone="no"?>
<!-- Created with Inkscape (http://www.inkscape.org/) -->
<svg xmlns:dc="http://purl.org/dc/elements/1.1/" xmlns:cc="http://creativecommons.org/ns#" xmlns:rdf="http://www.w3.org/1999/02/22-rdf-syntax-ns#" xmlns:svg="http://www.w3.org/2000/svg" xmlns="http://www.w3.org/2000/svg" xmlns:sodipodi="http://sodipodi.sourceforge.net/DTD/sodipodi-0.dtd" xmlns:inkscape="http://www.inkscape.org/namespaces/inkscape" version="1.1" width="360.26767" height="318.20004" id="svg2816" xml:space="preserve" inkscape:version="0.91 r13725" sodipodi:docname="Drawing.svg"><metadata id="metadata81"><rdf:RDF><cc:Work rdf:about=""><dc:format>image/svg+xml</dc:format><dc:type rdf:resource="http://purl.org/dc/dcmitype/StillImage"/><dc:title/></cc:Work></rdf:RDF></metadata><sodipodi:namedview pagecolor="#ffffff" bordercolor="#666666" borderopacity="1" objecttolerance="10" gridtolerance="10" guidetolerance="10" inkscape:pageopacity="0" inkscape:pageshadow="2" inkscape:window-width="1920" inkscape:window-height="1057" id="namedview79" showgrid="false" fit-margin-top="0.1" fit-margin-left="0.1" fit-margin-right="0.1" fit-margin-bottom="0.1" inkscape:zoom="2.0000001" inkscape:cx="228.00253" inkscape:cy="172.90446" inkscape:window-x="-8" inkscape:window-y="-8" inkscape:window-maximized="1" inkscape:current-layer="svg2816" showguides="true" inkscape:guide-bbox="true"/><defs id="defs2820"><clipPath id="clipPath2832"><path d="m -0.24,595.138 317.48,0 0,-595.276 -317.48,0 0,595.276 z" id="path2834" inkscape:connector-curvature="0"/></clipPath><clipPath id="clipPath2840"><path d="m 0.03,595.32 317.46,0 0,-595.32 -317.46,0 0,595.32 z" id="path2842" inkscape:connector-curvature="0"/></clipPath><clipPath id="clipPath2858"><path d="m -0.24,595.138 317.48,0 0,-595.276 -317.48,0 0,595.276 z" id="path2860" inkscape:connector-curvature="0"/></clipPath><clipPath id="clipPath2864"><path d="m 0.03,595.32 317.46,0 0,-595.32 -317.46,0 0,595.32 z" id="path2866" inkscape:connector-curvature="0"/></clipPath><clipPath id="clipPath3306"><path d="m 199.238,472.977 0,-29.74 29.744,0 0,29.74" id="path3308" inkscape:connector-curvature="0"/></clipPath><clipPath id="clipPath3322"><path d="m -0.24,595.138 317.48,0 0,-595.276 -317.48,0 0,595.276 z" id="path3324" inkscape:connector-curvature="0"/></clipPath><clipPath id="clipPath3330"><path d="m 0.03,595.32 317.46,0 0,-595.32 -317.46,0 0,595.32 z" id="path3332" inkscape:connector-curvature="0"/></clipPath><clipPath id="clipPath3344"><path d="m 88.233,387.221 0,-28.335 32.08,0 0,28.335" id="path3346" inkscape:connector-curvature="0"/></clipPath><clipPath id="clipPath3462"><path d="m -0.24,595.138 317.48,0 0,-595.276 -317.48,0 0,595.276 z" id="path3464" inkscape:connector-curvature="0"/></clipPath><clipPath id="clipPath3470"><path d="m 0.03,595.32 317.46,0 0,-595.32 -317.46,0 0,595.32 z" id="path3472" inkscape:connector-curvature="0"/></clipPath><clipPath id="clipPath3490"><path d="m -0.24,595.138 317.48,0 0,-595.276 -317.48,0 0,595.276 z" id="path3492" inkscape:connector-curvature="0"/></clipPath><clipPath id="clipPath3496"><path d="m 0.03,595.32 317.46,0 0,-595.32 -317.46,0 0,595.32 z" id="path3498" inkscape:connector-curvature="0"/></clipPath><clipPath id="clipPath3520"><path d="m 254.788,326.215 0,-28.309 28.326,0 0,28.309" id="path3522" inkscape:connector-curvature="0"/></clipPath><clipPath id="clipPath3544"><path d="m 145.049,326.142 0,-28.333 28.342,0 0,28.333" id="path3546" inkscape:connector-curvature="0"/></clipPath><clipPath id="clipPath3682"><path d="m -0.24,595.138 317.48,0 0,-595.276 -317.48,0 0,595.276 z" id="path3684" inkscape:connector-curvature="0"/></clipPath><clipPath id="clipPath3690"><path d="m 0.03,595.32 317.46,0 0,-595.32 -317.46,0 0,595.32 z" id="path3692" inkscape:connector-curvature="0"/></clipPath><clipPath id="clipPath3980"><path d="m -0.24,595.138 317.48,0 0,-595.276 -317.48,0 0,595.276 z" id="path3982" inkscape:connector-curvature="0"/></clipPath><clipPath id="clipPath3988"><path d="m 0.03,595.32 317.46,0 0,-595.32 -317.46,0 0,595.32 z" id="path3990" inkscape:connector-curvature="0"/></clipPath><clipPath id="clipPath4010"><path d="m -0.24,595.138 317.48,0 0,-595.276 -317.48,0 0,595.276 z" id="path4012" inkscape:connector-curvature="0"/></clipPath><clipPath id="clipPath4016"><path d="m 0.03,595.32 317.46,0 0,-595.32 -317.46,0 0,595.32 z" id="path4018" inkscape:connector-curvature="0"/></clipPath><clipPath id="clipPath4062"><path d="m 200.163,177.773 0,-28.284 28.283,0 0,28.284" id="path4064" inkscape:connector-curvature="0"/></clipPath><clipPath id="clipPath4090"><path d="m 34.886,177.515 0,-51.632 30.367,0 0,51.632" id="path4092" inkscape:connector-curvature="0"/></clipPath><clipPath id="clipPath4106"><path d="m 34.886,177.515 0,-51.632 30.367,0 0,51.632" id="path4108" inkscape:connector-curvature="0"/></clipPath><clipPath id="clipPath4272"><path d="m 34.886,177.515 0,-51.632 30.367,0 0,51.632" id="path4274" inkscape:connector-curvature="0"/></clipPath><clipPath id="clipPath4304"><path d="m 254.653,176.442 0,-48.167 28.317,0 0,48.167" id="path4306" inkscape:connector-curvature="0"/></clipPath><clipPath id="clipPath4310"><path d="m 253.565,177.983 31.181,0 0,-49.183 -31.181,0 0,49.183 z" id="path4312" inkscape:connector-curvature="0"/></clipPath><clipPath id="clipPath4316"><path d="m -0.24,595.138 317.48,0 0,-595.276 -317.48,0 0,595.276 z" id="path4318" inkscape:connector-curvature="0"/></clipPath><clipPath id="clipPath4322"><path d="m 0.03,595.32 317.46,0 0,-595.32 -317.46,0 0,595.32 z" id="path4324" inkscape:connector-curvature="0"/></clipPath><clipPath id="clipPath4456"><path d="m -0.24,595.138 317.48,0 0,-595.276 -317.48,0 0,595.276 z" id="path4458" inkscape:connector-curvature="0"/></clipPath><clipPath id="clipPath4464"><path d="m 0.03,595.32 317.46,0 0,-595.32 -317.46,0 0,595.32 z" id="path4466" inkscape:connector-curvature="0"/></clipPath></defs><path style="fill:#ec1d24;fill-opacity:1;fill-rule:evenodd;stroke:none" d="m 336.29007,318.10005 c 8.58551,0 16.45648,-4.5216 20.6875,-11.90625 4.25347,-7.37342 4.25347,-16.47912 0,-23.875 L 200.82137,11.975039 C 196.54541,4.6016433 188.7233,0.10005333 180.2276,0.10005333 c -0.0312,0 -0.0625,-1.2e-4 -0.0937,0 -0.0312,-1.2e-4 -0.0625,0 -0.0937,0 -8.49572,0 -16.31784,4.50157997 -20.59375,11.87498567 L 3.2901025,282.3188 c -4.25347,7.39588 -4.25347,16.50158 0,23.875 4.23102,7.38465 12.1019895,11.90625 20.6874995,11.90625 z" id="path3101" inkscape:connector-curvature="0" sodipodi:nodetypes="scccscscccss"/><path inkscape:connector-curvature="0" style="fill:#ffffff;fill-opacity:1;fill-rule:evenodd;stroke:none" id="path3121" d="m 322.51267,286.28316 -284.757828,0 L 180.13385,39.806509 Z" sodipodi:nodetypes="cccc"/><path d="m 158.11436,202.35503 c 2.49841,0 4.52724,2.02884 4.52724,4.52724 0,2.50066 -2.02883,4.5295 -4.52724,4.5295 -2.49841,0 -4.52724,-2.02884 -4.52724,-4.5295 0,-2.4984 2.02883,-4.52724 4.52724,-4.52724" style="fill:#1a1a1a;fill-opacity:1;fill-rule:evenodd;stroke:none" id="path4462" inkscape:connector-curvature="0"/><path d="m 129.89942,190.05621 0,4.28684 -14.30744,0 14.30744,-18.92231 0,5.17431 0,9.46116 z m 8.97135,-0.56619 0,4.85303 5.73824,0 0,8.00524 -5.73824,0 0,7.68171 -8.97135,0 0,-7.68171 -24.16851,0 0,-7.92661 21.74425,-28.94739 11.39561,0 0,13.98839" style="fill:#1a1a1a;fill-opacity:1;fill-rule:evenodd;stroke:none" id="path4466-0" inkscape:connector-curvature="0"/><path d="m 187.36956,193.37244 0,3.478 -11.80005,0 11.80005,-15.6892 0,4.28684 0,7.92436 z m 7.51769,-0.4853 0,3.9633 4.76765,0 0,6.71111 -4.76765,0 0,6.46845 -7.51769,0 0,-6.46845 -20.12657,0 0,-6.54934 18.18761,-24.17975 9.45666,0 0,11.7259" style="fill:#1a1a1a;fill-opacity:1;fill-rule:evenodd;stroke:none" id="path4470" inkscape:connector-curvature="0"/><path d="m 251.06103,191.99742 0,18.11346 -6.78974,0 0,-16.33402 c 0,-2.58828 -2.01985,-4.44861 -4.20371,-4.44861 -2.10073,0 -4.60588,2.0221 -4.60588,5.33833 l 0,15.4443 -6.78974,0 0,-16.4149 c 0,-2.5074 -2.10073,-4.36773 -3.96106,-4.36773 -1.93896,0 -4.84853,1.53679 -4.84853,5.25745 l 0,15.52518 -6.87063,0 0,-26.68489 6.87063,0 0,1.61767 c 0,0 2.42426,-2.02209 6.94926,-2.02209 4.04194,0 6.46621,2.75004 6.46621,2.75004 -0.0809,0 2.83093,-2.91181 7.27504,-2.91181 6.87063,0 10.50815,4.69126 10.50815,9.13762" style="fill:#1a1a1a;fill-opacity:1;fill-rule:evenodd;stroke:none" id="path4474" inkscape:connector-curvature="0"/><path d="m 118.0185,235.90606 6.62797,0 0,37.11666 -7.35593,0 0,-25.7143 -6.06178,0 0,-5.98539 1.05148,0 c 1.69632,0 4.84854,-0.0809 5.73826,-5.41697" style="fill:#1a1a1a;fill-opacity:1;fill-rule:evenodd;stroke:none" id="path4478" inkscape:connector-curvature="0"/><path d="m 151.72454,256.36516 0,3.55888 -11.88093,0 11.88093,-15.6892 0,4.28684 0,7.84348 z m 7.51769,-0.4853 0,4.04418 4.76765,0 0,6.63022 -4.76765,0 0,6.46846 -7.51769,0 0,-6.46846 -20.12656,0 0,-6.54933 18.18759,-24.09887 9.45666,0 0,11.64502" style="fill:#1a1a1a;fill-opacity:1;fill-rule:evenodd;stroke:none" id="path4482" inkscape:connector-curvature="0"/><path d="m 213.96235,260.48798 c 0,-3.39711 -2.50516,-6.38757 -5.90001,-6.38757 -3.47578,0 -6.06181,2.99046 -6.06181,6.38757 0,3.478 2.50516,6.46846 6.06181,6.46846 2.1816,0 5.90001,-1.69856 5.90001,-6.46846 z m -0.40443,-14.959 c 2.26252,-0.88972 4.52725,-1.77944 6.78976,-2.66916 -1.45591,-3.79929 -3.96107,-7.60083 -12.28534,-7.60083 -8.40742,0 -14.5501,6.14492 -14.5501,19.24584 0,6.87287 2.66692,11.80454 4.60813,14.55458 1.85808,2.58828 6.14268,4.52725 10.34637,4.52725 4.12059,0 12.93243,-2.34338 12.93243,-13.17956 0,-10.83618 -8.32653,-12.93691 -12.04494,-12.93691 -3.63528,0 -6.86838,1.7772 -7.91987,2.7478 -0.0809,-5.82138 3.88018,-8.16701 6.54709,-8.16701 2.66692,0 4.20371,1.05149 5.57649,3.478" style="fill:#1a1a1a;fill-opacity:1;fill-rule:evenodd;stroke:none" id="path4486" inkscape:connector-curvature="0"/><path d="m 168.94155,243.83042 8.00299,0 5.90003,-10.1891 -8.00301,0 -5.90002,10.1891" style="fill:#1a1a1a;fill-opacity:1;fill-rule:evenodd;stroke:none" id="path4490" inkscape:connector-curvature="0"/><path d="m 173.54742,254.99013 12.69,0 0,-6.38801 -12.69,0 0,6.38801 z" style="fill:#1a1a1a;fill-opacity:1;fill-rule:nonzero;stroke:none" id="path4492" inkscape:connector-curvature="0"/><path d="m 226.49034,243.83042 7.92212,0 5.90001,-10.1891 -7.9221,0 -5.90003,10.1891" style="fill:#1a1a1a;fill-opacity:1;fill-rule:evenodd;stroke:none" id="path4496" inkscape:connector-curvature="0"/><path d="m 237.07936,243.83042 8.00301,0 5.81915,-10.1891 -7.92213,0 -5.90003,10.1891" style="fill:#1a1a1a;fill-opacity:1;fill-rule:evenodd;stroke:none" id="path4500" inkscape:connector-curvature="0"/><path inkscape:connector-curvature="0" id="path5194" style="fill:#1a1a1a;fill-opacity:1;fill-rule:evenodd;stroke:none" d="m 150.43384,107.49316 59.4,0 -29.7,51.43" sodipodi:nodetypes="ccc"/></svg>