<?xml version="1.0" encoding="UTF-8" standalone="no"?>
<!-- Created with Inkscape (http://www.inkscape.org/) -->

<svg
   xmlns:dc="http://purl.org/dc/elements/1.1/"
   xmlns:cc="http://creativecommons.org/ns#"
   xmlns:rdf="http://www.w3.org/1999/02/22-rdf-syntax-ns#"
   xmlns:svg="http://www.w3.org/2000/svg"
   xmlns="http://www.w3.org/2000/svg"
   xmlns:inkscape="http://www.inkscape.org/namespaces/inkscape"
   version="1.1"
   width="641.70001"
   height="907.95001"
   id="svg2"
   xml:space="preserve"><defs
     id="defs36" /><metadata
     id="metadata8"><rdf:RDF><cc:Work
         rdf:about=""><dc:format>image/svg+xml</dc:format><dc:type
           rdf:resource="http://purl.org/dc/dcmitype/StillImage" /></cc:Work></rdf:RDF></metadata><g
     transform="matrix(1.25,0,0,-1.25,-1.6874,908.96)"
     id="g10"><path
       d="M 514.71,25.29 C 514.69,11.773 503.77,0.859 490.35,0.81 H 25.71 C 12.226,0.85941 1.312,11.773 1.35,25.29 v 677.52 c -0.0377,13.417 10.876,24.331 24.36,24.36 h 464.64 c 13.424,-0.029 24.338,-10.943 24.36,-24.36 V 25.29"
       inkscape:connector-curvature="0"
       id="path12" /><path
       d="m 501.99,25.29 c 0.04,-6.527 -5.206,-11.773 -11.64,-11.76 H 25.71 C 19.216,13.517 13.97,18.763 13.95,25.29 v 179.88 c 0.02,6.443 5.266,11.689 11.76,11.64 h 464.64 c 6.434,0.049 11.68,-5.197 11.64,-11.64 V 25.29"
       inkscape:connector-curvature="0"
       id="path14"
       style="fill:#ffffff" /><path
       d="m 501.99,241.29 c 0.04,-6.527 -5.206,-11.773 -11.64,-11.76 H 25.71 c -6.494,-0.013 -11.74,5.233 -11.76,11.76 v 461.52 c 0.02,6.427 5.266,11.673 11.76,11.64 h 464.64 c 6.434,0.033 11.68,-5.213 11.64,-11.64 V 241.29"
       inkscape:connector-curvature="0"
       id="path16"
       style="fill:#ffffff" /><path
       d="m 116.07,199.41 c 46.712,0.016 84.581,-37.854 84.6,-84.6 -0.019,-46.679 -37.888,-84.549 -84.6,-84.6 -46.714,0.051 -84.584,37.921 -84.6,84.6 0.016,46.746 37.886,84.616 84.6,84.6"
       inkscape:connector-curvature="0"
       id="path18"
       style="fill:#808080" /><path
       d="m 116.07,182.61 c 37.408,-0.031 67.735,-30.357 67.68,-67.8 0.055,-37.375 -30.272,-67.702 -67.68,-67.68 -37.41,-0.022 -67.737,30.305 -67.68,67.68 -0.057,37.443 30.27,67.769 67.68,67.8"
       inkscape:connector-curvature="0"
       id="path20"
       style="fill:#ffffff" /><path
       d="m 74.67,123.93 v -1.44 H 61.59 v 3.12 c -0.05,14.956 11.474,22.104 23.28,22.08 8.564,0.024 24.109,-2.21 24.12,-21.24 -0.011,-9.291 -3.406,-16.885 -16.56,-26.52 l -6.36,-4.68 h 21.6 V 83.61 H 63.63 v 11.76 c 23.014,14.91 32.484,20.896 32.52,30.84 -0.036,5.78 -4.056,9.889 -10.2,9.84 -6.989,0.049 -11.277,-4.686 -11.28,-12.12"
       inkscape:connector-curvature="0"
       id="path22"
       style="fill:#808080" /><path
       d="m 147.75,81.81 c -17.732,0.06 -26.666,11.495 -26.64,32.64 -0.026,22.275 9.265,33.085 26.52,33.12 18.124,-0.035 26.701,-11.739 26.76,-33 -0.059,-21.086 -8.814,-32.7 -26.64,-32.76"
       inkscape:connector-curvature="0"
       id="path24"
       style="fill:#808080" /><path
       d="m 147.75,135.57 c -9.334,-0.007 -13.444,-6.886 -13.44,-20.88 -0.004,-13.076 4.374,-20.849 13.44,-20.88 9.249,0.031 13.448,7 13.44,20.88 0.008,13.547 -4.191,20.873 -13.44,20.88"
       inkscape:connector-curvature="0"
       id="path26"
       style="fill:#ffffff" /><path
       d="m 287.67,145.89 h 22.08 v -10.32 h -34.08 v 10.32 l 20.52,27.96 h -20.16 v 9.84 h 32.64 v -9.84 l -21,-27.96"
       inkscape:connector-curvature="0"
       id="path28" /><path
       d="m 315.03,152.37 c 0.058,13.888 8.213,18.985 16.32,18.96 7.456,0.025 16.698,-5.072 16.68,-18.96 0.018,-10.306 -6.71,-18.053 -16.2,-18 -10.354,-0.053 -16.742,7.082 -16.8,18"
       inkscape:connector-curvature="0"
       id="path30" /><path
       d="m 338.79,152.37 c -0.052,8.043 -2.839,10.558 -6.96,10.56 -5.121,-0.002 -7.228,-4.216 -7.2,-10.56 -0.028,-5.617 2.69,-9.83 7.2,-9.84 4.529,0.01 6.908,4.223 6.96,9.84"
       inkscape:connector-curvature="0"
       id="path32"
       style="fill:#ffffff" /><path
       d="m 369.51,170.01 c 1.407,0.733 3.106,0.937 4.68,0.96 7.532,-0.023 13.173,-5.8 13.2,-12.72 v -22.68 h -9.12 v 19.68 c 0.054,3.872 -1.849,6.998 -5.64,6.96 -4.364,0.038 -7.218,-2.544 -7.2,-6 v -20.64 h -9.12 v 34.44 h 9.36 v -2.52 c 1.781,1.486 2.324,2.03 3.84,2.52"
       inkscape:connector-curvature="0"
       id="path34" /><path
       d="m 420.27,146.49 5.52,-6 c -4.422,-3.999 -7.344,-5.698 -13.56,-5.64 -10.706,-0.058 -17.23,7.826 -17.28,18.36 0.05,9.378 6.099,17.601 15.36,17.64 10.175,-0.039 16.427,-7.582 16.44,-18.84 v -2.4 h -22.68 c 0.173,-3.944 3.774,-6.798 8.28,-6.84 2.63,0.042 4.057,0.449 7.92,3.72"
       inkscape:connector-curvature="0"
       id="path36" /><path
       d="m 404.07,156.57 h 13.92 c -0.223,3.435 -3.621,6.494 -6.96,6.48 -3.525,0.014 -6.448,-2.705 -6.96,-6.48"
       inkscape:connector-curvature="0"
       id="path38"
       style="fill:#ffffff" /><path
       d="M 269.19,82.05 V 71.25 H 244.71 V 58.29 h 29.16 V 46.05 h -41.16 v 60 h 38.52 v -11.4 h -26.52 v -12.6 h 24.48"
       inkscape:connector-curvature="0"
       id="path40" /><path
       d="m 290.19,106.05 h 13.2 l 27.36,-40.2 v 40.2 h 12.12 v -60 h -13.2 l -27.48,40.2 v -40.2 h -12 v 60"
       inkscape:connector-curvature="0"
       id="path42" /><path
       d="m 411.63,76.77 c 0,-18.167 -13.03,-30.685 -28.08,-30.72 h -21.72 v 60 h 23.28 c 15.195,-0.014 26.521,-12.021 26.52,-29.28"
       inkscape:connector-curvature="0"
       id="path44" /><path
       d="m 399.15,76.77 c -0.037,14.704 -9.916,17.6 -15,17.64 h -9.72 V 58.29 h 8.4 c 10.066,-0.027 16.283,6.189 16.32,18.48"
       inkscape:connector-curvature="0"
       id="path46"
       style="fill:#ffffff" /><path
       d="m 457.23,63.21 c 0.005,3.228 -1.358,5.357 -7.8,6.6 l -10.2,2.16 c -6.01,1.195 -13.929,6.39 -13.92,16.44 -0.009,9.622 8.762,18.904 22.8,18.96 0,0 15.767,-0.056 23.64,-9.48 l -8.64,-8.52 c -7.067,6.022 -15.36,6 -15.36,6 -5.503,0.022 -8.739,-2.618 -8.76,-6.48 0.021,-3.206 2.32,-5.25 12.6,-6.72 11.436,-1.511 19.185,-8.579 19.32,-18.6 0.035,-8.288 -4.648,-18.847 -25.44,-18.84 -11.824,-0.007 -17.359,3.143 -25.56,11.4 l 10.2,7.8 c 5.665,-5.497 9.583,-7.2 16.08,-7.2 6.702,0 11.045,2.044 11.04,6.48"
       inkscape:connector-curvature="0"
       id="path48" /><path
       d="m 30.87,13.41 h -5.28 c -0.925,0.038 -1.853,0.153 -2.76,0.36 l 203.16,203.04 h 8.28 L 30.87,13.41"
       inkscape:connector-curvature="0"
       id="path50" /><path
       d="m 20.31,14.73 c -1.783,0.891 -3.305,2.244 -4.44,3.84 l 198.24,198.24 h 8.28 L 20.31,14.73"
       inkscape:connector-curvature="0"
       id="path52" /><path
       d="m 14.67,20.97 c -0.503,1.276 -0.78,2.698 -0.72,4.2 v 3.24 l 188.4,188.4 h 8.16 L 14.67,20.97"
       inkscape:connector-curvature="0"
       id="path54" /><path
       d="m 13.95,32.13 v 8.28 l 176.52,176.4 h 8.28 L 13.95,32.13"
       inkscape:connector-curvature="0"
       id="path56" /><path
       d="m 42.75,13.53 h -8.16 l 203.28,203.28 h 8.28 L 42.75,13.53"
       inkscape:connector-curvature="0"
       id="path58" /><path
       d="m 257.55,687.45 c 118.55,0 214.63,-96.07 214.68,-214.56 C 472.18,354.35 376.1,258.28 257.55,258.33 139.08,258.28 43,354.35 42.99,472.89 c 0.013,118.49 96.089,214.56 214.56,214.56"
       inkscape:connector-curvature="0"
       id="path60"
       style="fill:#ec1d24" /><path
       d="m 257.55,644.73 c 94.948,-0.017 171.89,-76.957 171.84,-171.84 0.048,-94.932 -76.892,-171.87 -171.84,-171.84 -94.867,-0.033 -171.81,76.908 -171.84,171.84 0.032,94.883 76.973,171.82 171.84,171.84"
       inkscape:connector-curvature="0"
       id="path62"
       style="fill:#ffffff" /><path
       d="m 112.95,440.85 34.68,6.12 c 1.086,-18.322 16.273,-26.935 30.96,-26.88 15.685,-0.055 24.751,8.105 24.72,21.72 0.031,13.358 -7.675,19.931 -23.76,19.92 h -15.48 v 29.04 c 37.911,-0.017 37.92,17.4 37.92,17.4 -0.009,12.955 -9.528,20.435 -26.76,20.4 -15.407,0.035 -25.38,-5.631 -27.84,-25.56 l -34.08,4.92 c 4.128,30.648 29.967,49.234 62.64,49.2 35.098,0.034 58.443,-21.045 58.44,-47.16 0.003,-9.471 -0.45,-25.11 -17.28,-33.48 18.643,-9.536 17.737,-18.829 17.76,-35.64 -0.023,-32.147 -15.209,-50.734 -59.64,-50.76 -36.033,0.026 -57.113,17.026 -62.28,50.76"
       inkscape:connector-curvature="0"
       id="path64" /><path
       d="m 339.39,389.25 c -44.857,-0.04 -67.523,28.972 -67.56,82.68 0.037,56.448 23.609,83.874 67.32,83.88 46.046,-0.006 67.806,-29.698 67.8,-83.64 0.006,-53.494 -22.207,-82.96 -67.56,-82.92"
       inkscape:connector-curvature="0"
       id="path66" /><path
       d="m 339.63,525.45 c -23.791,-0.018 -34.218,-17.471 -34.2,-53.04 -0.018,-33.109 11.089,-52.828 34.2,-52.8 23.354,-0.028 34.007,17.651 33.96,52.8 0.047,34.436 -10.606,53.022 -33.96,53.04"
       inkscape:connector-curvature="0"
       id="path68"
       style="fill:#ffffff" /></g></svg>