<?xml version="1.0" encoding="UTF-8" standalone="no"?>
<!-- Created with Inkscape (http://www.inkscape.org/) -->

<svg
   xmlns:dc="http://purl.org/dc/elements/1.1/"
   xmlns:cc="http://creativecommons.org/ns#"
   xmlns:rdf="http://www.w3.org/1999/02/22-rdf-syntax-ns#"
   xmlns:svg="http://www.w3.org/2000/svg"
   xmlns="http://www.w3.org/2000/svg"
   xmlns:inkscape="http://www.inkscape.org/namespaces/inkscape"
   version="1.1"
   width="340.79999"
   height="340.79999"
   id="svg2"
   xml:space="preserve"><defs
     id="defs20" /><metadata
     id="metadata8"><rdf:RDF><cc:Work
         rdf:about=""><dc:format>image/svg+xml</dc:format><dc:type
           rdf:resource="http://purl.org/dc/dcmitype/StillImage" /></cc:Work></rdf:RDF></metadata><g
     transform="matrix(1.25,0,0,-1.25,-2.4375,341.06)"
     id="g10"><path
       d="M 1.95,136.53 C 1.9261,211.79 62.962,272.82 138.27,272.85 213.54,272.82 274.57,211.79 274.59,136.53 274.57,61.211 213.54,0.18 138.27,0.21 62.962,0.17609 1.93,61.211 1.95,136.53"
       inkscape:connector-curvature="0"
       id="path12"
       style="fill:#ec1d24" /><path
       d="m 29.07,136.53 c 0.008,60.263 48.887,109.14 109.2,109.2 60.273,-0.058 109.15,-48.937 109.2,-109.2 C 247.42,76.207 198.54,27.33 138.27,27.33 77.957,27.328 29.08,76.207 29.07,136.53"
       inkscape:connector-curvature="0"
       id="path14"
       style="fill:#ffffff" /><path
       d="m 111.03,236.61 27.24,-47.04 27.24,47.04 h -54.48"
       inkscape:connector-curvature="0"
       id="path16" /><path
       d="m 111.03,36.93 27.24,47.16 27.24,-47.16 h -54.48"
       inkscape:connector-curvature="0"
       id="path18" /><path
       d="m 210.63,150.21 7.44,12.96 h 10.2 l -7.44,-12.96 h -10.2"
       inkscape:connector-curvature="0"
       id="path20" /><path
       d="m 66.15,160.53 v -47.76 h -9.72 v 31.92 h -7.68 v 8.52 c 6.861,-0.045 7.47,3.136 8.64,7.32 h 8.76"
       inkscape:connector-curvature="0"
       id="path22" /><path
       d="m 116.43,120.93 h -5.88 v -8.16 h -9.84 v 8.16 H 75.03 v 8.76 l 23.04,30.84 h 12.48 v -30.48 h 5.88 v -9.12"
       inkscape:connector-curvature="0"
       id="path24" /><path
       d="m 86.07,130.05 h 14.64 v 19.92 L 86.07,130.05"
       inkscape:connector-curvature="0"
       id="path26"
       style="fill:#ffffff" /><path
       d="m 123.39,150.21 7.44,12.96 h 10.08 l -7.44,-12.96 h -10.08"
       inkscape:connector-curvature="0"
       id="path28" /><path
       d="m 190.71,129.69 c 0.013,-8.337 -3.1,-17.406 -16.32,-17.4 -12.432,-0.006 -18.997,8.319 -18.96,24.6 -0.037,16.546 5.783,24.397 18.6,24.36 8.639,0.037 13.242,-2.806 15.72,-10.2 l -8.76,-3.24 c -0.961,2.241 -2.517,4.813 -7.68,4.8 -5.057,0.013 -8.645,-4.521 -8.16,-10.2 1.478,1.347 5.81,3.377 10.2,3.36 9.688,0.017 15.373,-5.871 15.36,-16.08"
       inkscape:connector-curvature="0"
       id="path30" /><path
       d="m 181.35,129.33 c -0.035,4.477 -3.148,7.794 -7.56,7.8 -4.725,-0.006 -7.974,-3.323 -7.92,-8.16 -0.054,-4.774 3.195,-7.955 7.68,-7.92 4.652,-0.035 7.765,3.282 7.8,8.28"
       inkscape:connector-curvature="0"
       id="path32"
       style="fill:#ffffff" /><path
       d="m 197.07,150.21 7.44,12.96 h 10.2 l -7.44,-12.96 h -10.2"
       inkscape:connector-curvature="0"
       id="path34" /><path
       d="m 129.39,136.17 h 16.2 v 7.8 h -16.2 v -7.8 z"
       inkscape:connector-curvature="0"
       id="path36" /></g></svg>