<?xml version="1.0" encoding="UTF-8" standalone="no"?>
<!-- Created with Inkscape (http://www.inkscape.org/) -->
<svg xmlns:dc="http://purl.org/dc/elements/1.1/" xmlns:cc="http://creativecommons.org/ns#" xmlns:rdf="http://www.w3.org/1999/02/22-rdf-syntax-ns#" xmlns:svg="http://www.w3.org/2000/svg" xmlns="http://www.w3.org/2000/svg" xmlns:inkscape="http://www.inkscape.org/namespaces/inkscape" version="1.1" width="456.45001" height="206.42999" id="svg2" xml:space="preserve"><metadata id="metadata8"><rdf:RDF><cc:Work rdf:about=""><dc:format>image/svg+xml</dc:format><dc:type rdf:resource="http://purl.org/dc/dcmitype/StillImage"/></cc:Work></rdf:RDF></metadata><defs id="defs6"><clipPath id="clipPath20"><path d="M 0,165.15 H 365.16 V 0 H 0 v 165.15 z" inkscape:connector-curvature="0" id="path22"/></clipPath></defs><g transform="matrix(1.25,0,0,-1.25,0,206.43)" id="g10"><g transform="translate(364.66,16.197)" id="g12"><path d="m 0,0 c 0,-8.669 -7.029,-15.697 -15.698,-15.697 h -332.77 c -8.67,0 -15.698,7.028 -15.698,15.697 v 132.75 c 0,8.67 7.028,15.698 15.698,15.698 h 332.77 c 8.671,0 15.7,-7.03 15.7,-15.7 V -0.002" inkscape:connector-curvature="0" id="path14" style="fill:#ffffff"/></g><g id="g16"><g clip-path="url(#clipPath20)" id="g18"><g transform="translate(364.66,16.197)" id="g24"><path d="m 0,0 c 0,-8.669 -7.029,-15.697 -15.698,-15.697 h -332.77 c -8.67,0 -15.698,7.028 -15.698,15.697 v 132.75 c 0,8.67 7.028,15.698 15.698,15.698 h 332.77 c 8.671,0 15.7,-7.03 15.7,-15.7 V -0.002 z" inkscape:connector-curvature="0" id="path26" style="fill:none;stroke:#0079c1"/></g></g></g><g transform="translate(144.3,157.72)" id="g28"><path d="m 0,0 h 204.67 c 4.843,0 8.769,-3.925 8.769,-8.768 v -132.75 c 0,-4.843 -3.926,-8.768 -8.769,-8.768 H 0 V 0.004" inkscape:connector-curvature="0" id="path30" style="fill:#0079c1"/></g><g transform="translate(130.35,7.429)" id="g32"><path d="m 0,0 h -114.15 c -4.843,0 -8.768,3.925 -8.768,8.768 v 132.75 c 0,4.843 3.925,8.768 8.768,8.768 H 0 V -0.004" inkscape:connector-curvature="0" id="path34" style="fill:#0079c1"/></g><g transform="translate(45.447,41.7)" id="g36"><path d="M 0,0 V 57.399 L 12,45.4 v 18.399 l -18.3,18.3 -18.3,-18.3 V 45.4 l 12,11.999 V 0 H 0" inkscape:connector-curvature="0" id="path38" style="fill:#ffffff"/></g><g transform="translate(104.85,41.7)" id="g40"><path d="M 0,0 V 57.399 L 12,45.4 v 18.399 l -18.299,18.3 -18.3,-18.3 V 45.4 l 12,11.999 V 0 H 0" inkscape:connector-curvature="0" id="path42" style="fill:#ffffff"/></g><g transform="translate(254.97,73.6)" id="g44"><path d="M 0,0 V -36.268 L 8.868,-27.4 V -40.998 L -4.655,-54.52 -18.178,-40.998 V -27.4 l 8.868,-8.868 V 0 H 0" inkscape:connector-curvature="0" id="path46" style="fill:#ffffff"/></g><g transform="translate(200.61,100.84)" id="g48"><path d="m 0,0 c 5.087,0 9.211,-4.125 9.211,-9.211 0,-5.088 -4.124,-9.212 -9.211,-9.212 -5.088,0 -9.212,4.124 -9.212,9.212 C -9.212,-4.125 -5.088,0 0,0" inkscape:connector-curvature="0" id="path50" style="fill:#ffffff"/></g><g transform="translate(291.73,100.84)" id="g52"><path d="m 0,0 c 5.086,0 9.211,-4.125 9.211,-9.211 0,-5.088 -4.125,-9.212 -9.211,-9.212 -5.088,0 -9.212,4.124 -9.212,9.212 C -9.212,-4.125 -5.088,0 0,0" inkscape:connector-curvature="0" id="path54" style="fill:#ffffff"/></g><g transform="translate(200.61,96.21)" id="g56"><path d="M 0,0 C 2.53,0 4.582,-2.052 4.582,-4.582 4.582,-7.113 2.53,-9.165 0,-9.165 c -2.53,0 -4.582,2.052 -4.582,4.583 C -4.582,-2.052 -2.53,0 0,0" inkscape:connector-curvature="0" id="path58" style="fill:#0079c1"/></g><g transform="translate(291.73,96.21)" id="g60"><path d="m 0,0 c 2.529,0 4.581,-2.052 4.581,-4.582 0,-2.531 -2.052,-4.583 -4.581,-4.583 -2.531,0 -4.583,2.052 -4.583,4.583 C -4.583,-2.052 -2.531,0 0,0" inkscape:connector-curvature="0" id="path62" style="fill:#0079c1"/></g><g transform="translate(302.85,88.78)" id="g64"><path d="m 0,0 c 0.233,0.913 0.357,1.862 0.357,2.848 0,6.339 -5.138,11.478 -11.477,11.478 -6.34,0 -11.48,-5.139 -11.48,-11.478 0,-0.981 0.123,-1.94 0.355,-2.848 h -68.877 c 0.234,0.913 0.358,1.862 0.358,2.848 0,6.339 -5.138,11.478 -11.478,11.478 -6.34,0 -11.48,-5.139 -11.48,-11.478 0,-0.981 0.124,-1.94 0.355,-2.848 h -24.916 c -5.161,0 -5.061,5.361 -5.061,5.361 v 18.187 c 0,2.005 2.355,2.205 2.355,2.205 l 0.802,23.298 c 0.148,4.507 3.557,4.009 3.557,4.009 H 27.86 c 7.214,0 11.073,-7.015 11.073,-11.123 V 7.516 L 0.01,0" inkscape:connector-curvature="0" id="path66" style="fill:#ffffff"/></g><g transform="translate(219.93,116.79)" id="g68"><path d="m 0,0 c 1.384,0 2.505,1.122 2.505,2.505 v 10.872 c 0,1.384 -1.121,2.506 -2.505,2.506 h -27.031 c -1.383,0 -2.505,-1.122 -2.505,-2.506 V 2.505 C -29.536,1.122 -28.414,0 -27.031,0 H 0" inkscape:connector-curvature="0" id="path70" style="fill:#0079c1"/></g><g transform="translate(179.82,94.425)" id="g72"><path d="M 0,0 C 1.384,0 2.505,1.122 2.505,2.505 V 35.74 c 0,1.384 -1.121,2.506 -2.505,2.506 h -6.432 c -1.384,0 -2.505,-1.122 -2.505,-2.506 V 2.505 C -8.937,1.122 -7.816,0 -6.432,0 H 0" inkscape:connector-curvature="0" id="path74" style="fill:#0079c1"/></g><g transform="translate(257.71,116.79)" id="g76"><path d="m 0,0 c 1.385,0 2.506,1.122 2.506,2.505 v 10.872 c 0,1.384 -1.121,2.506 -2.506,2.506 h -27.03 c -1.384,0 -2.505,-1.122 -2.505,-2.506 V 2.505 C -29.535,1.122 -28.414,0 -27.03,0 H 0" inkscape:connector-curvature="0" id="path78" style="fill:#0079c1"/></g><g transform="translate(295.24,116.79)" id="g80"><path d="m 0,0 c 1.384,0 2.506,1.122 2.506,2.505 v 10.872 c 0,1.384 -1.122,2.506 -2.506,2.506 h -27.03 c -1.384,0 -2.505,-1.122 -2.505,-2.506 V 2.505 C -29.535,1.122 -28.414,0 -27.03,0 H 0" inkscape:connector-curvature="0" id="path82" style="fill:#0079c1"/></g><g transform="translate(332.48,116.79)" id="g84"><path d="m 0,0 c 1.384,0 2.506,1.122 2.506,2.505 v 6.188 c 0,4 -3.258,7.19 -7.057,7.19 h -22.297 c -1.383,0 -2.505,-1.122 -2.505,-2.506 V 2.505 C -29.353,1.122 -28.231,0 -26.848,0 H 0" inkscape:connector-curvature="0" id="path86" style="fill:#0079c1"/></g></g></svg>