<?xml version="1.0" encoding="UTF-8" standalone="no"?>
<!-- Created with Inkscape (http://www.inkscape.org/) -->

<svg
   xmlns:dc="http://purl.org/dc/elements/1.1/"
   xmlns:cc="http://creativecommons.org/ns#"
   xmlns:rdf="http://www.w3.org/1999/02/22-rdf-syntax-ns#"
   xmlns:svg="http://www.w3.org/2000/svg"
   xmlns="http://www.w3.org/2000/svg"
   xmlns:inkscape="http://www.inkscape.org/namespaces/inkscape"
   version="1.1"
   width="356.01999"
   height="390.54999"
   id="svg2"
   xml:space="preserve"><defs
     id="defs135" /><metadata
     id="metadata8"><rdf:RDF><cc:Work
         rdf:about=""><dc:format>image/svg+xml</dc:format><dc:type
           rdf:resource="http://purl.org/dc/dcmitype/StillImage" /></cc:Work></rdf:RDF></metadata><g
     transform="matrix(1.25,0,0,-1.25,0,390.55)"
     id="g10"><g
       transform="translate(284.82,12.821)"
       id="g12"><path
         d="m 0,0 c 0,-6.914 -5.761,-12.821 -12.679,-12.821 h -259.32 c -7.205,0 -12.824,5.907 -12.824,12.821 v 286.8 c 0,7.054 5.619,12.82 12.824,12.82 h 259.32 c 6.919,0 12.68,-5.77 12.68,-12.82 V 0"
         inkscape:connector-curvature="0"
         id="path14"
         style="fill:#231f20;fill-rule:evenodd" /></g><g
       transform="translate(278.48,299.62)"
       id="g16"><path
         d="m 0,0 c 0,3.457 -2.879,6.336 -6.34,6.336 h -259.32 c -3.605,0 -6.484,-2.879 -6.484,-6.336 v -286.8 c 0,-3.457 2.879,-6.34 6.484,-6.34 H -6.34 c 3.461,0 6.34,2.883 6.34,6.34 V 0"
         inkscape:connector-curvature="0"
         id="path18"
         style="fill:#ffd421;fill-rule:evenodd" /></g><g
       transform="translate(177.92,252.95)"
       id="g20"><path
         d="m 0,0 c 0,-21.176 17.289,-38.316 38.32,-38.316 21.176,0 38.32,17.14 38.32,38.316 0,21.031 -17.144,38.172 -38.32,38.172 C 17.289,38.172 0,21.031 0,0"
         inkscape:connector-curvature="0"
         id="path22"
         style="fill:#0079c1;fill-rule:evenodd" /></g><g
       transform="translate(240.01,222.56)"
       id="g24"><path
         d="M 0,0 6.625,6.621 -47.543,60.645 -54.309,54.16 0,0"
         inkscape:connector-curvature="0"
         id="path26"
         style="fill:#ec1d24;fill-rule:evenodd" /></g><g
       transform="translate(185.99,283.06)"
       id="g28"><path
         d="m 0,0 c -16.422,-16.57 -16.422,-43.649 0,-60.07 16.567,-16.422 43.653,-16.422 60.074,0 16.422,16.421 16.422,43.5 0,60.07 C 43.653,16.418 16.567,16.418 0,0 m 5.617,-5.91 c -13.109,-13.25 -13.109,-35.004 0,-48.254 13.258,-12.965 35.008,-12.965 48.266,0 13.106,13.25 13.106,35.004 0,48.254 -13.258,13.254 -35.008,13.254 -48.266,0"
         inkscape:connector-curvature="0"
         id="path30"
         style="fill:#ec1d24;fill-rule:evenodd" /></g><g
       transform="translate(178.93,197.92)"
       id="g32"><path
         d="m 0,0 h -6.629 v -23.769 h 4.609 v 9.648 h 9.945 v 4.469 H -2.02 v 5.184 H 8.933 V 0 H 0"
         inkscape:connector-curvature="0"
         id="path34"
         style="fill:#231f20;fill-rule:evenodd" /></g><g
       transform="translate(99.695,184.38)"
       id="g36"><path
         d="M 0,0 V -10.23 H -4.756 V 7.2 L -11.959,-2.886 -19.309,7.2 v -17.43 h -4.462 v 23.769 h 5.908 l 5.904,-8.5 6.051,8.5 H 0 V 0"
         inkscape:connector-curvature="0"
         id="path38"
         style="fill:#231f20;fill-rule:evenodd" /></g><g
       transform="translate(207.89,174.15)"
       id="g40"><path
         d="M 0,0 V 16.996"
         inkscape:connector-curvature="0"
         id="path42"
         style="fill:none;stroke:#231f20;stroke-width:4.61199999;stroke-linejoin:round;stroke-miterlimit:10" /></g><g
       transform="translate(205.3,195.32)"
       id="g44"><path
         d="m 0,0 c 0,-1.293 1.008,-2.446 2.594,-2.446 1.293,0 2.445,1.153 2.445,2.446 0,1.445 -1.152,2.597 -2.445,2.597 C 1.008,2.597 0,1.445 0,0"
         inkscape:connector-curvature="0"
         id="path46"
         style="fill:#231f20;fill-rule:evenodd" /></g><g
       transform="translate(140.9,185.25)"
       id="g48"><path
         d="m 0,0 v -11.094 h -4.609 v 10.66 c 0,1.297 -0.863,2.449 -2.736,2.449 -2.02,0 -3.604,-1.586 -3.604,-3.75 v -9.359 h -4.463 V 5.902 h 4.463 V 4.605 c 0,0 1.729,1.731 4.18,1.731 C -2.593,6.336 0,3.023 0,0"
         inkscape:connector-curvature="0"
         id="path50"
         style="fill:#231f20;fill-rule:evenodd" /></g><g
       transform="translate(113.24,187.84)"
       id="g52"><path
         d="m 0,0 c -1.873,0 -4.033,-1.582 -4.033,-5.332 0,-3.597 2.16,-5.468 4.033,-5.468 1.727,0 3.748,1.871 3.748,5.468 C 3.748,-1.582 1.727,0 0,0 m 0,3.891 c -4.175,0 -8.5,-3.312 -8.5,-9.223 0,-5.902 4.325,-9.359 8.5,-9.359 4.18,0 8.211,3.457 8.211,9.359 0,5.911 -4.176,9.223 -8.211,9.223"
         inkscape:connector-curvature="0"
         id="path54"
         style="fill:#231f20;fill-rule:evenodd" /></g><g
       transform="translate(201.4,187.26)"
       id="g56"><path
         d="m 0,0 v 4.321 c -4.175,0 -4.754,-1.153 -5.761,-2.161 V 2.016 3.887 h -4.469 v -16.996 h 4.469 v 8.351 C -5.761,-2.16 -3.023,0 0,0"
         inkscape:connector-curvature="0"
         id="path58"
         style="fill:#231f20;fill-rule:evenodd" /></g><g
       transform="translate(155.38,182.51)"
       id="g60"><path
         d="M 0,0 V 3.602"
         inkscape:connector-curvature="0"
         id="path62"
         style="fill:none;stroke:#231f20;stroke-width:7.34800005;stroke-linejoin:round;stroke-miterlimit:10" /></g><g
       transform="translate(227.33,143.76)"
       id="g64"><path
         d="m 0,0 v -3.312 c 0,-1.153 -2.445,-1.153 -2.879,-1.153 -0.43,0 -3.168,0 -3.168,2.016 C -6.047,-0.144 -2.734,0 0,0 m 4.469,-3.168 v 8.789 c 0,2.301 -2.16,4.032 -6.914,4.032 -3.891,0 -6.34,-1.586 -7.207,-2.161 L -7.777,4.18 c 1.441,1.008 4.609,1.727 5.761,1.727 C -0.574,5.907 0,4.899 0,4.325 V 3.461 c -1.582,0 -5.328,-0.726 -6.914,-1.156 -1.297,-0.578 -3.602,-1.441 -3.602,-4.898 0,-3.454 3.457,-5.614 6.918,-5.614 3.024,0 4.032,1.871 4.032,1.871 0,0 1.589,-2.015 4.179,-2.015 L 6.34,-4.754 C 4.324,-4.32 4.469,-3.746 4.469,-3.168"
         inkscape:connector-curvature="0"
         id="path66"
         style="fill:#231f20;fill-rule:evenodd" /></g><g
       transform="translate(75.924,145.92)"
       id="g68"><path
         d="m 0,0 v -3.457 c 0,-1.296 -1.297,-3.312 -3.748,-3.312 -2.592,0 -4.176,2.16 -4.176,5.328 0,3.027 1.729,4.758 4.032,4.758 C -1.729,3.317 0,1.875 0,0 m 0,5.762 v 7.926 H 4.32 V -9.937 H 0 v 0.863 c 0,0 -1.873,-1.582 -4.469,-1.582 -2.736,0 -8.068,2.16 -8.068,9.215 0,7.063 5.621,8.934 7.637,8.934 2.164,0 3.027,-0.578 4.9,-1.731"
         inkscape:connector-curvature="0"
         id="path70"
         style="fill:#231f20;fill-rule:evenodd" /></g><g
       transform="translate(113.09,132.38)"
       id="g72"><path
         d="M 0,0 2.015,3.602 V 3.457 C 2.879,3.028 4.469,2.161 7.637,2.161 c 4.322,0 3.599,3.171 3.599,3.171 0,0 -1.441,-0.867 -3.312,-0.867 -7.78,0 -7.924,8.067 -7.924,8.067 0,0 0,3.746 2.592,6.05 1.443,1.297 3.171,1.872 5.187,1.872 0.576,0 2.449,-0.286 3.457,-0.719 h -0.144 v 0.863 h 4.611 V 3.317 c 0,-3.75 -5.332,-5.332 -8.066,-5.332 C 4.9,-2.015 1.728,-1.007 0,0 m 11.092,12.532 c 0,2.015 -0.721,3.746 -3.024,3.746 -2.16,0 -3.025,-2.02 -3.025,-3.746 0,-1.442 0.72,-3.602 3.025,-3.602 2.303,0 3.024,1.731 3.024,3.602"
         inkscape:connector-curvature="0"
         id="path74"
         style="fill:#231f20;fill-rule:evenodd" /></g><g
       transform="translate(138.45,152.11)"
       id="g76"><path
         d="M 0,0 V 7.488 H -4.607 V -16.278 H 0 v 10.227 c 0,1.441 1.44,3.027 2.881,3.027 1.588,0 3.315,-1.152 3.315,-3.027 v -10.227 h 4.32 V -4.61 c 0,3.457 -2.879,5.762 -6.047,5.762 C 1.584,1.152 0.432,0.144 0,0"
         inkscape:connector-curvature="0"
         id="path78"
         style="fill:#231f20;fill-rule:evenodd" /></g><g
       transform="translate(261.19,147.5)"
       id="g80"><path
         d="m 0,0 v -11.523 h -4.32 v 10.512 -0.145 c 0,1.59 -1.297,2.887 -2.598,2.887 -1.441,0 -3.023,-1.297 -3.023,-3.461 v -9.793 h -4.32 v 10.512 c 0,1.445 -1.446,2.742 -2.598,2.742 -1.293,0 -3.168,-1.008 -3.168,-3.317 v -9.937 h -4.324 V 5.473 h 4.324 V 4.61 c 0,0 1.586,1.152 4.465,1.152 2.598,0 4.18,-1.726 4.18,-1.726 0,0 1.73,1.871 4.753,1.871 C -2.304,5.907 0,2.883 0,0"
         inkscape:connector-curvature="0"
         id="path82"
         style="fill:#231f20;fill-rule:evenodd" /></g><g
       transform="translate(165.1,136.42)"
       id="g84"><path
         d="m 0,0 -0.864,3.597 c -3.168,-0.863 -3.89,-0.14 -3.89,0.723 v 8.5 h 4.465 v 3.742 h -4.465 v 6.625 l -4.467,-1.152 v -5.473 h -2.736 V 12.82 h 2.736 V 2.878 c 0,-2.16 1.297,-3.886 4.611,-3.886 2.449,0 4.035,0.863 4.61,1.008"
         inkscape:connector-curvature="0"
         id="path86"
         style="fill:#231f20;fill-rule:evenodd" /></g><g
       transform="translate(48.695,146.21)"
       id="g88"><path
         d="m 0,0 v -10.227 h -4.756 v 17.43 l -7.203,-10.086 -7.344,10.086 v -17.43 h -4.469 v 23.769 h 5.764 l 6.049,-8.355 5.906,8.355 H 0 V 0"
         inkscape:connector-curvature="0"
         id="path90"
         style="fill:#231f20;fill-rule:evenodd" /></g><g
       transform="translate(57.047,135.98)"
       id="g92"><path
         d="M 0,0 V 16.996"
         inkscape:connector-curvature="0"
         id="path94"
         style="fill:none;stroke:#231f20;stroke-width:4.32399988;stroke-linejoin:round;stroke-miterlimit:10" /></g><g
       transform="translate(54.455,157.3)"
       id="g96"><path
         d="M 0,0 C 0,-1.437 1.012,-2.449 2.453,-2.449 3.748,-2.449 4.9,-1.437 4.9,0 4.9,1.297 3.748,2.453 2.453,2.453 1.012,2.453 0,1.297 0,0"
         inkscape:connector-curvature="0"
         id="path98"
         style="fill:#231f20;fill-rule:evenodd" /></g><g
       transform="translate(99.695,147.22)"
       id="g100"><path
         d="m 0,0 v -11.238 h -4.467 v 10.801 c 0,1.156 -0.865,2.453 -2.881,2.453 -1.873,0 -3.461,-1.731 -3.461,-3.895 v -9.359 h -4.462 V 5.758 h 4.462 V 4.606 c 0,0 1.733,1.586 4.182,1.586 C -2.596,6.192 0,2.879 0,0"
         inkscape:connector-curvature="0"
         id="path102"
         style="fill:#231f20;fill-rule:evenodd" /></g><g
       transform="translate(106.9,135.98)"
       id="g104"><path
         d="M 0,0 V 16.996"
         inkscape:connector-curvature="0"
         id="path106"
         style="fill:none;stroke:#231f20;stroke-width:4.61199999;stroke-linejoin:round;stroke-miterlimit:10" /></g><g
       transform="translate(104.16,157.3)"
       id="g108"><path
         d="m 0,0 c 0,-1.437 1.153,-2.449 2.592,-2.449 1.443,0 2.451,1.012 2.451,2.449 0,1.297 -1.008,2.453 -2.451,2.453 C 1.153,2.453 0,1.297 0,0"
         inkscape:connector-curvature="0"
         id="path110"
         style="fill:#231f20;fill-rule:evenodd" /></g><g
       transform="translate(178.14,144.48)"
       id="g112"><path
         d="M 0,0 V 3.457"
         inkscape:connector-curvature="0"
         id="path114"
         style="fill:none;stroke:#231f20;stroke-width:7.34800005;stroke-linejoin:round;stroke-miterlimit:10" /></g><g
       transform="translate(199.39,155.43)"
       id="g116"><path
         d="M 0,0 H 3.597 L -4.176,-19.445 H 0.863 L 8.644,0 V 4.324 H -7.782 V 0 H 0"
         inkscape:connector-curvature="0"
         id="path118"
         style="fill:#231f20;fill-rule:evenodd" /></g><g
       transform="translate(53.592,112.5)"
       id="g120"><path
         d="m 0,0 v -3.171 c 0,-1.727 1.295,-3.598 3.748,-3.598 2.592,0 4.176,2.445 4.176,5.187 0,2.735 -1.584,5.04 -4.176,5.04 C 1.295,3.458 0,1.586 0,0 M 0,5.907 V 6.625 H -4.32 V -15.414 H 0 v 6.196 c 0,0 1.439,-1.727 4.611,-1.727 6.198,0 7.924,6.336 7.924,9.074 0,2.305 -0.863,4.61 -2.16,6.336 C 9.076,5.907 7.203,7.344 4.469,7.344 2.883,7.344 1.295,6.77 0,5.907"
         inkscape:connector-curvature="0"
         id="path122"
         style="fill:#231f20;fill-rule:evenodd" /></g><g
       transform="translate(29.68,116.25)"
       id="g124"><path
         d="M 0,0 C -1.877,0 -3.748,0.863 -3.748,2.878 -3.748,4.75 -1.877,5.757 0,5.757 1.729,5.757 3.6,4.75 3.6,2.878 3.6,0.863 1.729,0 0,0 m 0,-10.372 c -2.451,0 -4.469,1.153 -4.469,3.309 0,2.024 2.16,3.031 4.469,3.031 2.305,0 4.32,-1.007 4.32,-3.031 0,-2.156 -1.873,-3.309 -4.32,-3.309 M 0,9.937 c 3.889,0 8.5,-1.871 8.5,-7.203 0,-3.742 -2.74,-4.465 -2.74,-4.465 0,0 3.461,-1.008 3.461,-5.617 0,-4.609 -3.893,-7.344 -9.221,-7.344 -5.619,0 -9.367,2.735 -9.367,7.344 0,4.609 3.459,5.617 3.459,5.617 0,0 -2.881,0.723 -2.881,4.465 0,5.332 4.754,7.203 8.789,7.203"
         inkscape:connector-curvature="0"
         id="path126"
         style="fill:#231f20;fill-rule:evenodd" /></g><g
       transform="translate(94.363,113.65)"
       id="g128"><path
         d="m 0,0 v -11.668 h -4.467 l 0.004,10.515 c 0,1.586 -1.156,2.739 -2.598,2.739 -1.294,0 -2.878,-1.153 -2.878,-3.313 v -9.941 h -4.469 v 10.66 c 0,1.441 -1.295,2.594 -2.592,2.594 -1.152,0 -3.023,-0.864 -3.023,-3.168 v -10.086 h -4.469 v 17.14 h 4.469 V 4.465 c 0,0 1.584,1.297 4.462,1.297 2.598,0 4.038,-1.731 4.038,-1.731 0,0 1.728,1.875 4.752,1.875 C -2.447,5.906 0,2.883 0,0"
         inkscape:connector-curvature="0"
         id="path130"
         style="fill:#231f20;fill-rule:evenodd" /></g><g
       transform="translate(109.06,110.34)"
       id="g132"><path
         d="M 0,0 V 3.602"
         inkscape:connector-curvature="0"
         id="path134"
         style="fill:none;stroke:#231f20;stroke-width:7.4920001;stroke-linejoin:round;stroke-miterlimit:10" /></g><g
       transform="translate(177.06,111.93)"
       id="g136"><path
         d="m 0,0 v -3.461 c 0,-1.297 -1.153,-3.312 -3.746,-3.312 -2.59,0 -4.176,2.16 -4.176,5.332 0,3.168 1.73,4.754 4.031,4.754 C -1.731,3.313 0,2.016 0,0 m 0,5.758 v 8.07 H 4.324 V -9.941 H 0 v 0.863 c 0,0 -1.875,-1.582 -4.465,-1.582 -2.735,0 -8.067,2.16 -8.067,9.219 0,7.058 5.618,8.93 7.633,8.93 2.16,0 3.024,-0.434 4.899,-1.731"
         inkscape:connector-curvature="0"
         id="path138"
         style="fill:#231f20;fill-rule:evenodd" /></g><g
       transform="translate(214.08,98.243)"
       id="g140"><path
         d="M 0,0 2.016,3.742 C 2.879,3.168 4.465,2.16 7.637,2.16 c 4.32,0 3.597,3.312 3.597,3.312 0,0 -1.437,-0.867 -3.312,-0.867 C 0.145,4.605 0,12.82 0,12.82 c 0,0 0,3.742 2.59,6.047 1.441,1.152 3.168,1.871 5.191,1.871 0.719,0 2.446,-0.285 3.453,-0.863 H 11.09 v 1.007 h 4.613 V 3.597 c 0,-3.886 -5.332,-5.472 -8.066,-5.472 C 4.895,-1.875 1.727,-0.868 0,0 m 11.09,12.675 c 0,1.872 -0.719,3.743 -3.024,3.743 -2.164,0 -3.027,-2.016 -3.027,-3.743 0,-1.445 0.719,-3.605 3.027,-3.605 2.305,0 3.024,1.73 3.024,3.605"
         inkscape:connector-curvature="0"
         id="path142"
         style="fill:#231f20;fill-rule:evenodd" /></g><g
       transform="translate(239.44,118.12)"
       id="g144"><path
         d="M 0,0 V 7.636 H -4.468 V -16.133 H 0 v 10.23 c 0,1.438 1.442,3.024 3.024,3.024 1.441,0 3.168,-1.153 3.168,-3.024 v -10.23 h 4.324 v 11.668 c 0,3.457 -2.879,5.762 -6.051,5.762 C 1.586,1.297 0.575,0.289 0,0"
         inkscape:connector-curvature="0"
         id="path146"
         style="fill:#231f20;fill-rule:evenodd" /></g><g
       transform="translate(266.09,102.42)"
       id="g148"><path
         d="M 0,0 -0.863,3.598 C -3.891,2.735 -4.758,3.457 -4.758,4.321 v 8.5 h 4.469 v 3.742 h -4.469 v 6.773 l -4.461,-1.152 v -5.621 h -2.742 v -3.742 h 2.742 V 2.879 c 0,-2.304 1.293,-3.886 4.606,-3.886 2.449,0 4.035,0.863 4.613,1.007"
         inkscape:connector-curvature="0"
         id="path150"
         style="fill:#231f20;fill-rule:evenodd" /></g><g
       transform="translate(149.68,112.22)"
       id="g152"><path
         d="M 0,0 V -10.23 H -4.608 V 7.2 L -11.813,-2.886 -19.161,7.2 v -17.43 h -4.462 v 23.769 h 5.615 l 6.195,-8.355 5.908,8.355 H 0 V 0"
         inkscape:connector-curvature="0"
         id="path154"
         style="fill:#231f20;fill-rule:evenodd" /></g><g
       transform="translate(158.11,101.98)"
       id="g156"><path
         d="M 0,0 V 16.996"
         inkscape:connector-curvature="0"
         id="path158"
         style="fill:none;stroke:#231f20;stroke-width:4.46799994;stroke-linejoin:round;stroke-miterlimit:10" /></g><g
       transform="translate(155.45,123.16)"
       id="g160"><path
         d="m 0,0 c 0,-1.293 1.008,-2.45 2.594,-2.45 1.293,0 2.449,1.157 2.449,2.45 0,1.586 -1.156,2.593 -2.449,2.593 C 1.008,2.593 0,1.586 0,0"
         inkscape:connector-curvature="0"
         id="path162"
         style="fill:#231f20;fill-rule:evenodd" /></g><g
       transform="translate(200.68,113.08)"
       id="g164"><path
         d="m 0,0 v -11.094 h -4.317 v 10.805 c 0,1.152 -1.008,2.449 -2.886,2.449 -1.872,0 -3.598,-1.731 -3.598,-3.891 v -9.363 h -4.324 V 5.902 h 4.324 V 4.605 c 0,0 1.726,1.731 4.176,1.731 C -2.59,6.336 0,3.023 0,0"
         inkscape:connector-curvature="0"
         id="path166"
         style="fill:#231f20;fill-rule:evenodd" /></g><g
       transform="translate(207.89,101.98)"
       id="g168"><path
         d="M 0,0 V 16.996"
         inkscape:connector-curvature="0"
         id="path170"
         style="fill:none;stroke:#231f20;stroke-width:4.61199999;stroke-linejoin:round;stroke-miterlimit:10" /></g><g
       transform="translate(205.3,123.16)"
       id="g172"><path
         d="m 0,0 c 0,-1.293 1.008,-2.45 2.594,-2.45 1.293,0 2.445,1.157 2.445,2.45 0,1.586 -1.152,2.593 -2.445,2.593 C 1.008,2.593 0,1.586 0,0"
         inkscape:connector-curvature="0"
         id="path174"
         style="fill:#231f20;fill-rule:evenodd" /></g><g
       transform="translate(61.084,63.383)"
       id="g176"><path
         d="M 0,0 3.604,3.313 C 7.924,0.145 11.527,0 12.535,0 c 1.153,0 2.592,1.153 2.592,2.59 0,1.586 -1.295,2.305 -1.871,2.594 -0.865,0.144 -4.324,0.863 -5.621,1.152 -1.44,0.43 -5.764,1.582 -5.764,6.77 0,5.328 3.893,7.203 8.068,7.203 4.325,0 7.493,-1.152 10.377,-3.602 l -3.461,-3.312 c -1.584,1.441 -3.888,2.449 -7.203,2.449 -1.873,0 -2.304,-1.73 -2.304,-2.449 0,-0.574 0.431,-1.871 1.728,-2.16 1.295,-0.289 4.612,-1.153 5.043,-1.297 1.44,-0.145 6.197,-2.02 6.197,-6.914 0,-4.465 -3.029,-7.492 -8.5,-7.492 C 6.195,-4.468 1.871,-1.875 0,0"
         inkscape:connector-curvature="0"
         id="path178"
         style="fill:#231f20;fill-rule:evenodd" /></g><g
       transform="translate(198.67,60.934)"
       id="g180"><path
         d="M 0,0 V -1.301 H 4.32 V 15.555 H 0 V 6.191 C 0,3.742 -2.16,2.449 -3.742,2.449 c -1.731,0 -2.742,1.153 -2.742,2.735 v 10.371 h -4.317 V 4.32 c 0,-3.168 2.735,-6.05 6.192,-6.05 2.308,0 4.035,1.007 4.609,1.73"
         inkscape:connector-curvature="0"
         id="path182"
         style="fill:#231f20;fill-rule:evenodd" /></g><g
       transform="translate(137.15,75.196)"
       id="g184"><path
         d="m 0,0 c 1.008,0.285 2.303,1.008 2.303,2.445 0,1.297 -1.295,1.586 -1.726,1.586 H 0.719 C 0,4.031 -0.865,3.308 -0.865,2.301 -0.865,1.293 -0.289,0.285 0.143,0 H 0 z m -1.297,-5.047 3.745,-5.902 c -0.287,-0.289 -1.297,-0.864 -2.161,-0.864 -2.015,0 -3.744,1.582 -3.744,3.598 0,2.016 1.44,2.883 2.16,3.168 m 11.813,-6.766 0.576,-3.461 c -3.601,-1.007 -5.328,-0.144 -6.34,1.012 -0.433,-0.144 -1.873,-1.73 -4.752,-1.73 -4.181,0 -7.923,3.171 -7.923,7.203 0,2.015 0.431,4.75 4.175,7.203 -0.289,0.433 -1.441,1.441 -1.441,3.742 0,2.738 2.164,5.617 5.908,5.617 3.744,0 5.908,-2.59 5.908,-5.328 0,-2.734 -1.875,-4.465 -4.324,-5.621 l 3.316,-4.75 c 0.577,0.863 1.008,1.582 1.008,2.594 h 3.889 c 0,-3.168 -1.439,-5.188 -2.305,-6.196 0.576,-0.429 1.44,-0.429 2.305,-0.285"
         inkscape:connector-curvature="0"
         id="path186"
         style="fill:#231f20;fill-rule:evenodd" /></g><g
       transform="translate(95.516,67.27)"
       id="g188"><path
         d="m 0,0 v -3.312 c 0,-1.153 -2.447,-1.153 -2.881,-1.153 -0.431,0 -3.027,0 -3.027,2.016 C -5.908,-0.145 -2.736,0 0,0 m 4.469,-3.168 v 8.785 c 0,2.309 -2.164,4.035 -6.916,4.035 -3.606,0 -6.197,-1.586 -7.061,-2.16 l 1.871,-3.316 c 1.584,1.008 4.469,1.73 5.908,1.73 C -0.576,5.906 0,4.895 0,4.32 V 3.457 c -1.439,0 -5.184,-0.723 -6.629,-1.152 -1.439,-0.578 -3.744,-1.442 -3.744,-4.899 0,-3.453 3.457,-5.617 6.918,-5.617 3.023,0 4.031,1.875 4.031,1.875 0,0 1.44,-2.019 4.035,-2.019 l 1.728,3.601 c -2.015,0.434 -1.87,1.012 -1.87,1.586"
         inkscape:connector-curvature="0"
         id="path190"
         style="fill:#231f20;fill-rule:evenodd" /></g><g
       transform="translate(115.97,59.922)"
       id="g192"><path
         d="M 0,0 -0.864,3.606 C -4.032,2.739 -4.752,3.461 -4.752,4.325 v 8.496 h 4.465 v 3.746 h -4.465 v 6.625 l -4.467,-1.153 v -5.472 h -2.736 v -3.746 h 2.736 V 2.883 c 0,-2.16 1.299,-3.89 4.611,-3.89 2.45,0 4.033,0.863 4.608,1.007"
         inkscape:connector-curvature="0"
         id="path194"
         style="fill:#231f20;fill-rule:evenodd" /></g><g
       transform="translate(161.93,63.383)"
       id="g196"><path
         d="M 0,0 3.601,3.313 C 7.925,0.145 11.523,0 12.531,0 c 1.297,0 2.594,1.153 2.594,2.59 0,1.586 -1.153,2.305 -1.875,2.594 -0.864,0.144 -4.317,0.863 -5.614,1.152 -1.297,0.43 -5.765,1.582 -5.765,6.77 0,5.328 3.89,7.203 8.07,7.203 4.32,0 7.492,-1.152 10.371,-3.602 l -3.457,-3.312 c -1.582,1.441 -3.891,2.449 -7.203,2.449 -1.871,0 -2.305,-1.73 -2.305,-2.449 0,-0.574 0.434,-1.871 1.727,-2.16 1.297,-0.289 4.754,-1.153 5.043,-1.297 1.441,-0.145 6.195,-2.02 6.195,-6.914 0,-4.465 -3.023,-7.492 -8.5,-7.492 C 6.339,-4.468 1.871,-1.875 0,0"
         inkscape:connector-curvature="0"
         id="path198"
         style="fill:#231f20;fill-rule:evenodd" /></g><g
       transform="translate(222.87,70.727)"
       id="g200"><path
         d="m 0,0 v -11.238 h -4.469 v 10.804 c 0,1.153 -0.863,2.45 -2.879,2.45 -1.875,0 -3.457,-1.731 -3.457,-3.891 v -9.363 h -4.468 v 17 h 4.468 V 4.609 c 0,0 1.727,1.586 4.176,1.586 C -2.598,6.195 0,2.883 0,0"
         inkscape:connector-curvature="0"
         id="path202"
         style="fill:#231f20;fill-rule:evenodd" /></g><g
       transform="translate(58.635,29.817)"
       id="g204"><path
         d="M 0,0 H -1.871 L 1.152,9.223 4.033,0 H 0 z M -0.574,-4.176 H -3.459 L -4.756,-8.5 H -9.65 l 7.779,23.769 H 4.033 L 11.813,-8.5 H 6.916 l -1.439,4.324 h -6.051"
         inkscape:connector-curvature="0"
         id="path206"
         style="fill:#231f20;fill-rule:evenodd" /></g><g
       transform="translate(146.37,18.583)"
       id="g208"><path
         d="M 0,0 6.916,19.878 H 2.16 L -1.152,9.363 -4.611,19.878 H -9.363 L -3.6,3.457 h -0.144 c 0.434,-1.008 0,-2.45 -2.307,-2.161 l -1.584,0.286 -0.433,-3.743 2.593,-0.433 C -2.303,-3.168 -0.576,-2.016 0,0"
         inkscape:connector-curvature="0"
         id="path210"
         style="fill:#231f20;fill-rule:evenodd" /></g><g
       transform="translate(85.287,21.606)"
       id="g212"><path
         d="M 0,0 -0.863,3.746 C -3.887,2.738 -4.756,3.605 -4.756,4.469 v 8.351 h 4.469 v 3.891 h -4.469 v 6.769 l -4.463,-1.296 v -5.473 h -2.736 V 12.82 h 2.736 V 2.883 c 0,-2.164 1.295,-3.746 4.608,-3.746 2.451,0 4.035,0.718 4.611,0.863"
         inkscape:connector-curvature="0"
         id="path214"
         style="fill:#231f20;fill-rule:evenodd" /></g><g
       transform="translate(108.77,28.954)"
       id="g216"><path
         d="m 0,0 v -3.168 c 0,-1.297 -2.451,-1.297 -2.884,-1.297 -0.432,0 -3.168,0 -3.168,2.015 C -6.052,-0.145 -2.74,0 0,0 m 4.465,-3.024 v 8.785 c 0,2.305 -2.16,4.035 -6.916,4.035 -3.888,0 -6.336,-1.585 -7.201,-2.16 l 1.873,-3.172 c 1.44,0.864 4.608,1.582 5.76,1.582 C -0.576,6.046 0,5.039 0,4.609 V 3.457 c -1.587,0 -5.332,-0.719 -6.916,-1.153 -1.294,-0.433 -3.603,-1.441 -3.603,-4.894 0,-3.317 3.459,-5.477 6.916,-5.477 3.027,0 4.035,1.727 4.035,1.727 0,0 1.584,-1.871 4.176,-1.871 l 1.728,3.461 c -2.015,0.429 -1.871,1.148 -1.871,1.726"
         inkscape:connector-curvature="0"
         id="path218"
         style="fill:#231f20;fill-rule:evenodd" /></g><g
       transform="translate(133.55,32.411)"
       id="g220"><path
         d="m 0,0 v -11.094 h -4.467 v 10.66 c 0,1.297 -1.008,2.449 -2.736,2.449 -2.02,0 -3.748,-1.586 -3.748,-3.746 v -9.363 h -4.321 v 17 h 4.321 V 4.609 c 0,0 1.728,1.586 4.179,1.586 C -2.596,6.195 0,3.023 0,0"
         inkscape:connector-curvature="0"
         id="path222"
         style="fill:#231f20;fill-rule:evenodd" /></g><g
       transform="translate(178.07,21.606)"
       id="g224"><path
         d="M 0,0 -0.863,3.746 C -4.035,2.738 -4.757,3.605 -4.757,4.469 v 8.351 h 4.468 v 3.891 h -4.468 v 6.769 l -4.606,-1.296 v -5.473 h -2.742 V 12.82 h 2.742 V 2.883 c 0,-2.164 1.438,-3.746 4.606,-3.746 2.593,0 4.179,0.718 4.757,0.863"
         inkscape:connector-curvature="0"
         id="path226"
         style="fill:#231f20;fill-rule:evenodd" /></g><g
       transform="translate(183.61,21.321)"
       id="g228"><path
         d="M 0,0 V 16.996"
         inkscape:connector-curvature="0"
         id="path230"
         style="fill:none;stroke:#231f20;stroke-width:4.46799994;stroke-linejoin:round;stroke-miterlimit:10" /></g><g
       transform="translate(180.95,42.493)"
       id="g232"><path
         d="m 0,0 c 0,-1.293 1.153,-2.446 2.594,-2.446 1.438,0 2.449,1.153 2.449,2.446 0,1.441 -1.011,2.593 -2.449,2.593 C 1.153,2.593 0,1.441 0,0"
         inkscape:connector-curvature="0"
         id="path234"
         style="fill:#231f20;fill-rule:evenodd" /></g><g
       transform="translate(215.38,32.985)"
       id="g236"><path
         d="m 0,0 v -11.668 h -4.469 v 10.375 c 0,1.726 -1.297,2.879 -2.738,2.879 -1.293,0 -2.879,-1.153 -2.879,-3.313 v -9.941 h -4.469 v 10.516 c 0,1.585 -1.293,2.738 -2.59,2.738 -1.152,0 -3.023,-0.863 -3.023,-3.313 v -9.941 h -4.469 V 5.476 h 4.469 V 4.469 c 0,0 1.582,1.152 4.461,1.152 2.594,0 4.183,-1.727 4.039,-1.727 0,0 1.871,1.871 4.75,1.871 C -2.449,5.765 0,2.887 0,0"
         inkscape:connector-curvature="0"
         id="path238"
         style="fill:#231f20;fill-rule:evenodd" /></g><g
       transform="translate(224.02,31.547)"
       id="g240"><path
         d="M 0,0 H 6.77 C 6.77,1.582 5.618,3.313 3.454,3.313 1.149,3.313 0,1.727 0,0 M -0.144,-3.312 H 11.09 c 0.145,2.015 -0.574,10.515 -7.781,10.515 -6.477,0 -7.777,-6.773 -7.777,-8.933 0,-2.16 1.156,-9.074 8.211,-9.074 4.035,0 6.05,2.304 6.628,2.882 l -2.738,2.739 c 0,0 -1.293,-1.731 -3.89,-1.731 -2.594,0 -3.887,1.871 -3.887,3.602"
         inkscape:connector-curvature="0"
         id="path242"
         style="fill:#231f20;fill-rule:evenodd" /></g><g
       transform="translate(35.439,231.62)"
       id="g244"><path
         d="m 0,0 c 0,-5.758 4.756,-10.516 10.66,-10.516 5.908,0 10.664,4.758 10.664,10.516 0,5.91 -4.756,10.66 -10.664,10.66 C 4.756,10.66 0,5.91 0,0 m 5.332,0 c 0,-2.879 2.447,-5.328 5.328,-5.328 2.885,0 5.332,2.449 5.332,5.328 0,2.883 -2.447,5.332 -5.332,5.332 C 7.779,5.332 5.332,2.883 5.332,0"
         inkscape:connector-curvature="0"
         id="path246"
         style="fill:#231f20;fill-rule:evenodd" /></g><g
       transform="translate(119.29,231.62)"
       id="g248"><path
         d="m 0,0 c 0,-5.758 4.752,-10.516 10.66,-10.516 6.053,0 10.805,4.758 10.805,10.516 0,5.91 -4.752,10.66 -10.805,10.66 C 4.752,10.66 0,5.91 0,0 m 5.328,0 c 0,-2.879 2.453,-5.328 5.477,-5.328 2.879,0 5.332,2.449 5.332,5.328 0,2.883 -2.453,5.332 -5.332,5.332 C 7.781,5.332 5.328,2.883 5.328,0"
         inkscape:connector-curvature="0"
         id="path250"
         style="fill:#231f20;fill-rule:evenodd" /></g><g
       transform="translate(118.14,231.62)"
       id="g252"><path
         d="M 0,0 H 4.465 L 7.06,6.918 h 9.653 L 22.617,0 h 7.203 l -9.652,13.684 v 0.289 H 0 V 0"
         inkscape:connector-curvature="0"
         id="path254"
         style="fill:#231f20;fill-rule:evenodd" /></g><g
       transform="translate(29.535,254.1)"
       id="g256"><path
         d="m 0,0 c 0.865,5.332 1.729,10.66 2.736,15.988 v -0.144 c 0.577,3.316 3.313,5.621 6.629,5.621 h 17.864 c 1.439,0 2.736,-1.297 2.736,-2.738 V 4.18 h 5.187 v 23.765 c 0,1.442 1.297,2.739 2.737,2.739 h 83.847 c 1.584,0 2.737,-1.297 2.737,-2.739 v -50.418 h -12.248 c 0,6.485 -5.328,11.813 -11.668,11.813 -6.485,0 -11.668,-5.328 -11.668,-11.813 H 28.236 c 0,6.485 -5.332,11.813 -11.672,11.813 -6.335,0 -11.668,-5.328 -11.668,-11.813 h -4.32 c -1.299,5.911 -2.596,11.813 -3.892,17.719 -0.143,0.289 -0.143,0.578 -0.143,1.008 0,1.875 1.439,3.457 3.459,3.746 M 20.6,4.18 H 4.752 c 0.576,3.601 1.152,7.199 1.873,10.945 0.287,1.301 1.439,2.164 2.74,2.164 H 20.6 V 4.18"
         inkscape:connector-curvature="0"
         id="path258"
         style="fill:#231f20;fill-rule:evenodd" /></g><g
       transform="translate(88.313,251.5)"
       id="g260"><path
         d="m 0,0 -6.193,-1.727 c 1.728,-5.332 5.759,-9.941 13.541,-9.941 2.879,0 13.831,1.441 13.831,13.543 0,11.953 -10.228,13.395 -12.679,13.395 -2.305,0 -4.896,-0.864 -6.625,-1.872 l 1.297,7.059 h 15.844 v 6.047 H -2.736 L -5.762,6.914 1.008,6.195 c 0.867,2.02 3.027,3.457 6.34,3.457 3.603,0 7.492,-2.304 7.492,-7.777 0,-5.617 -3.744,-7.633 -7.492,-7.633 C 3.604,-5.758 1.008,-3.309 0,0"
         inkscape:connector-curvature="0"
         id="path262"
         style="fill:#ffffff;fill-rule:evenodd" /></g><g
       transform="translate(127.93,253.95)"
       id="g264"><path
         d="m 0,0 h 1.728 v 20.168 h 6.483 v 3.746 h -17 v -3.746 h 6.484 V 0 H 0"
         inkscape:connector-curvature="0"
         id="path266"
         style="fill:#ffffff;fill-rule:evenodd" /></g></g></svg>