<?xml version="1.0" encoding="UTF-8" standalone="no"?>
<!-- Created with Inkscape (http://www.inkscape.org/) -->
<svg xmlns:dc="http://purl.org/dc/elements/1.1/" xmlns:cc="http://creativecommons.org/ns#" xmlns:rdf="http://www.w3.org/1999/02/22-rdf-syntax-ns#" xmlns:svg="http://www.w3.org/2000/svg" xmlns="http://www.w3.org/2000/svg" xmlns:inkscape="http://www.inkscape.org/namespaces/inkscape" version="1.1" width="215.88" height="175.42" id="svg2" xml:space="preserve"><metadata id="metadata8"><rdf:RDF><cc:Work rdf:about=""><dc:format>image/svg+xml</dc:format><dc:type rdf:resource="http://purl.org/dc/dcmitype/StillImage"/></cc:Work></rdf:RDF></metadata><defs id="defs6"><clipPath id="clipPath20"><path d="M 0.014999,140.35 H 172.715 V 0.01 H 0.014999 v 140.34 z" inkscape:connector-curvature="0" id="path22"/></clipPath></defs><g transform="matrix(1.25,0,0,-1.25,-0.018749,175.44)" id="g10"><g transform="translate(172.22,11.865)" id="g12"><path d="m 0,0 c 0,-6.277 -5.087,-11.365 -11.364,-11.365 h -148.99 c -6.277,0 -11.364,5.088 -11.364,11.365 v 116.62 c 0,6.276 5.087,11.364 11.364,11.364 h 148.99 c 6.273,0.01 11.36,-5.08 11.36,-11.36 V 0.004" inkscape:connector-curvature="0" id="path14" style="fill:#ffffff"/></g><g id="g16"><g clip-path="url(#clipPath20)" id="g18"><g transform="translate(172.22,11.865)" id="g24"><path d="m 0,0 c 0,-6.277 -5.087,-11.365 -11.364,-11.365 h -148.99 c -6.277,0 -11.364,5.088 -11.364,11.365 v 116.62 c 0,6.276 5.087,11.364 11.364,11.364 h 148.99 c 6.273,0.01 11.36,-5.08 11.36,-11.36 V 0.004 z" inkscape:connector-curvature="0" id="path26" style="fill:none;stroke:#0079c1"/></g></g></g><g transform="translate(166.86,11.865)" id="g28"><path d="m 0,0 c 0,-3.32 -2.691,-6.011 -6.011,-6.011 h -148.99 c -3.32,0 -6.011,2.691 -6.011,6.011 v 116.62 c 0,3.32 2.691,6.01 6.011,6.01 h 148.99 c 3.32,0 6.011,-2.69 6.011,-6.01 L -10e-4,0" inkscape:connector-curvature="0" id="path30" style="fill:#0079c1"/></g><g transform="translate(25.108,106.66)" id="g32"><path d="M 0,0 C 3.209,0 4.354,3.066 4.354,5.185 V 17.418 H 7.678 V 4.612 C 7.678,0.516 4.669,-3.065 0,-3.065 c -4.584,0 -7.964,3.179 -7.964,7.677 v 12.806 h 3.38 V 5.185 C -4.584,2.349 -2.579,0 0,0" inkscape:connector-curvature="0" id="path34" style="fill:#ffffff"/></g><g transform="translate(49.802,113.91)" id="g36"><path d="m 0,0 v -9.913 h -3.151 v 9.225 c 0,0.516 -0.774,2.378 -2.521,2.378 -1.576,0 -2.951,-1.518 -2.951,-2.98 V -9.913 H -11.86 V 4.383 h 3.237 V 3.094 c 1.06,1.633 3.925,1.633 3.925,1.633 C -2.435,4.727 0,2.635 0,0" inkscape:connector-curvature="0" id="path38" style="fill:#ffffff"/></g><g transform="translate(56.175,114.37)" id="g40"><path d="m 0,0 c 0,-0.716 0.831,-1.26 2.091,-1.518 2.55,-0.516 2.206,-0.487 2.979,-0.802 1.576,-0.574 2.522,-1.777 2.522,-3.753 0,-2.378 -1.977,-4.641 -5.129,-4.641 -2.177,0 -3.609,0.429 -6.331,2.607 l 2.035,2.034 c 1.403,-1.289 2.492,-1.719 3.896,-1.719 1.518,0 2.349,0.458 2.349,1.518 0,1.06 -0.574,1.06 -3.553,1.92 -3.581,1.031 -3.896,2.922 -3.896,4.297 0,1.976 1.461,4.469 5.586,4.469 0,0 3.009,0 4.956,-2.063 L 5.787,0.172 C 4.326,1.633 2.492,1.633 2.492,1.633 1.002,1.633 0,0.946 0,0" inkscape:connector-curvature="0" id="path42" style="fill:#ffffff"/></g><g transform="translate(67.572,108.36)" id="g44"><path d="M 0,0 V 9.827 H 3.123 V 0.659 c 0,-0.859 0.43,-2.492 2.521,-2.492 1.547,0 2.922,1.661 2.922,3.094 v 8.566 h 3.209 V -4.354 H 8.566 v 1.289 C 7.563,-4.784 4.727,-4.784 4.727,-4.784 1.834,-4.784 0,-2.922 0,0" inkscape:connector-curvature="0" id="path46" style="fill:#ffffff"/></g><path d="m 83.918,104 h 3.1513 v 14.324 H 83.918 V 104 z" inkscape:connector-curvature="0" id="path48" style="fill:#ffffff"/><g transform="translate(83.545,122.19)" id="g50"><path d="M 0,0 C 0,1.002 0.888,1.919 1.891,1.919 3.008,1.919 3.868,1.031 3.868,0 3.868,-1.118 3.008,-1.977 1.919,-1.977 0.888,-1.977 0,-1.118 0,0" inkscape:connector-curvature="0" id="path52" style="fill:#ffffff"/></g><g transform="translate(93.122,118.32)" id="g54"><path d="m 0,0 v 4.555 l 3.122,1.26 V 0 H 6.817 V -2.578 H 3.122 v -7.363 c 0,-1.146 0.516,-1.633 1.404,-1.633 0,0 1.318,0 2.063,0.315 l 0.258,-2.807 c -1.49,-0.373 -3.267,-0.373 -3.267,-0.373 -2.578,0 -3.58,1.261 -3.58,4.355 v 7.506 H -2.521 V 0 H 0" inkscape:connector-curvature="0" id="path56" style="fill:#ffffff"/></g><g transform="translate(107.68,103.77)" id="g58"><path d="m 0,0 c -2.836,0 -5.328,2.034 -5.328,4.669 0,1.72 1.518,4.011 4.64,4.355 l 3.897,0.43 v 0.602 c 0,1.346 -0.574,2.148 -2.206,2.148 0,0 -2.263,0 -4.469,-1.146 l -1.232,2.435 c 1.748,1.003 4.125,1.519 5.844,1.519 4.641,0 5.243,-3.868 5.243,-4.727 V 3.781 C 6.389,3.037 6.646,2.722 7.592,2.32 L 6.217,-0.172 C 4.842,0.315 4.384,0.544 3.81,1.26 2.062,0 0,0 0,0" inkscape:connector-curvature="0" id="path60" style="fill:#ffffff"/></g><g transform="translate(105.56,108.3)" id="g62"><path d="m 0,0 c 0,-1.146 1.202,-2.005 2.52,-2.005 1.605,0 2.808,0.916 2.808,2.034 V 2.378 L 2.09,2.062 C 0.687,1.92 0,1.002 0,0" inkscape:connector-curvature="0" id="path64" style="fill:#0079c1"/></g><g transform="translate(119.25,124.08)" id="g66"><path d="m 0,0 h 3.151 v -6.99 c 0.946,1.089 2.091,1.547 3.838,1.547 3.811,0 6.217,-3.123 6.217,-7.449 0,-5.873 -4.584,-7.391 -6.13,-7.391 0,0 -2.292,0 -3.925,1.375 v -1.174 H 0 V 0" inkscape:connector-curvature="0" id="path68" style="fill:#ffffff"/></g><g transform="translate(140.44,106.78)" id="g70"><path d="m 0,0 c 0,0 0.573,0 1.689,0.201 l 0.373,-2.808 c -1.318,-0.229 -2.837,-0.229 -2.837,-0.229 -2.978,-0.258 -3.694,1.232 -3.694,4.669 v 15.414 h 3.15 V 2.005 C -1.319,0.516 -0.974,0 0,0" inkscape:connector-curvature="0" id="path72" style="fill:#ffffff"/></g><g transform="translate(144.09,111.19)" id="g74"><path d="m 0,0 c 0,4.498 2.722,7.448 6.733,7.448 3.838,0 6.216,-2.779 6.216,-8.078 V -1.146 H 3.352 c 0.344,-2.177 1.519,-3.323 3.61,-3.323 0,0 2.062,0 3.38,1.404 l 1.891,-2.378 C 10.199,-7.592 7.018,-7.592 7.018,-7.592 2.636,-7.592 0,-4.698 0,0" inkscape:connector-curvature="0" id="path76" style="fill:#ffffff"/></g><g transform="translate(147.44,112.45)" id="g78"><path d="M 0,0 H 6.417 C 6.302,2.149 5.243,3.467 3.409,3.467 1.633,3.467 0.23,2.407 0,0" inkscape:connector-curvature="0" id="path80" style="fill:#0079c1"/></g><g transform="translate(31.165,90.905)" id="g82"><path d="M 0,0 V -1.261 H 2.607 V -3.925 H 0 V -15.556 H -3.151 V -3.925 H -5.5 v 2.664 h 2.349 v 2.636 c 0,2.091 2.091,3.18 4.24,3.18 0.83,0 1.604,-0.143 2.406,-0.315 L 3.18,1.633 H 1.69 C 0.458,1.633 0,1.06 0,0" inkscape:connector-curvature="0" id="path84" style="fill:#ffffff"/></g><g transform="translate(36.772,82.511)" id="g86"><path d="m 0,0 c 0,4.498 2.607,7.649 6.875,7.649 4.241,0 6.762,-3.094 6.762,-7.649 0,-5.071 -3.324,-7.535 -6.762,-7.535 C 2.865,-7.535 0,-4.269 0,0" inkscape:connector-curvature="0" id="path88" style="fill:#ffffff"/></g><g transform="translate(47.344,82.511)" id="g90"><path d="m 0,0 c 0,2.75 -1.433,4.583 -3.725,4.583 -2.263,0 -3.609,-1.861 -3.609,-4.583 0,-2.664 1.346,-4.555 3.638,-4.555 C -1.461,-4.555 0,-2.636 0,0" inkscape:connector-curvature="0" id="path92" style="fill:#0079c1"/></g><g transform="translate(62.087,86.551)" id="g94"><path d="m 0,0 c -4.326,0.83 -4.326,-3.954 -4.326,-3.954 v -7.248 H -7.449 V 3.094 h 3.123 V 1.633 C -3.725,2.521 -1.833,3.609 0,3.294 V 0" inkscape:connector-curvature="0" id="path96" style="fill:#ffffff"/></g><g transform="translate(86.126,85.663)" id="g98"><path d="m 0,0 v -10.313 h -2.922 v 8.651 c 0,1.49 -0.946,2.951 -2.521,2.951 -2.178,0 -3.037,-1.833 -3.037,-2.951 v -8.651 h -3.123 V 9.769 H -8.48 V 2.693 c 0.945,1.69 3.552,1.69 3.552,1.69 C -1.461,4.383 0,1.69 0,0" inkscape:connector-curvature="0" id="path100" style="fill:#ffffff"/></g><g transform="translate(89.365,82.54)" id="g102"><path d="m 0,0 c 0,4.498 2.722,7.448 6.733,7.448 3.837,0 6.216,-2.779 6.216,-8.078 V -1.146 H 3.352 c 0.343,-2.177 1.518,-3.323 3.61,-3.323 0,0 2.062,0 3.38,1.404 l 1.891,-2.378 C 10.199,-7.592 7.019,-7.592 7.019,-7.592 2.636,-7.592 0,-4.699 0,0" inkscape:connector-curvature="0" id="path104" style="fill:#ffffff"/></g><g transform="translate(92.717,83.8)" id="g106"><path d="M 0,0 H 6.417 C 6.303,2.149 5.243,3.467 3.409,3.467 1.633,3.467 0.229,2.407 0,0" inkscape:connector-curvature="0" id="path108" style="fill:#0079c1"/></g><g transform="translate(110.27,75.12)" id="g110"><path d="m 0,0 c -2.836,0 -5.329,2.034 -5.329,4.669 0,1.719 1.519,4.011 4.641,4.355 l 3.896,0.43 v 0.601 c 0,1.347 -0.573,2.149 -2.206,2.149 0,0 -2.262,0 -4.469,-1.146 l -1.232,2.435 c 1.747,1.003 4.126,1.519 5.845,1.519 4.641,0 5.242,-3.868 5.242,-4.727 V 3.781 c 0,-0.744 0.258,-1.06 1.203,-1.461 L 6.216,-0.172 C 4.841,0.315 4.382,0.544 3.81,1.26 2.062,0 0,0 0,0" inkscape:connector-curvature="0" id="path112" style="fill:#ffffff"/></g><g transform="translate(108.15,79.647)" id="g114"><path d="m 0,0 c 0,-1.146 1.203,-2.005 2.521,-2.005 1.604,0 2.807,0.916 2.807,2.034 V 2.378 L 2.091,2.063 C 0.688,1.919 0,1.002 0,0" inkscape:connector-curvature="0" id="path116" style="fill:#0079c1"/></g><g transform="translate(128.43,75.349)" id="g118"><path d="m 0,0 h -3.696 l -4.669,14.181 h 3.41 l 3.092,-9.798 3.152,9.798 H 4.641 L 0,0" inkscape:connector-curvature="0" id="path120" style="fill:#ffffff"/></g><g transform="translate(146.81,89.645)" id="g122"><path d="m 0,0 -5.557,-16.931 c -0.716,-2.177 -3.008,-2.149 -3.638,-2.149 0,0 -1.317,0 -2.607,0.315 l 0.429,2.607 c 1.548,-0.143 2.092,-0.143 2.092,-0.143 0.315,-0.029 1.862,-0.086 1.002,2.464 L -12.805,0 h 3.41 L -6.416,-9.683 -3.408,0 H 0" inkscape:connector-curvature="0" id="path124" style="fill:#ffffff"/></g><g transform="translate(52.836,41.828)" id="g126"><path d="m 0,0 c 0,0 -2.922,0 -5.1,1.346 l 1.118,2.722 c 1.575,-0.774 2.893,-1.06 4.297,-1.06 1.232,0 3.094,0.229 3.094,2.263 V 7.162 C 1.948,5.987 0.172,5.987 0.172,5.987 c -5.186,0 -6.074,5.014 -6.074,6.848 0,2.091 1.06,6.617 5.902,6.617 0,0 2.435,0 3.352,-1.317 v 1.059 H 6.503 V 5.271 C 6.503,3.266 6.331,0 0,0" inkscape:connector-curvature="0" id="path128" style="fill:#ffffff"/></g><g transform="translate(53.18,50.765)" id="g130"><path d="M 0,0 C 2.234,0 3.065,1.662 3.065,3.782 3.409,7.42 0,7.42 0,7.42 -2.091,7.42 -2.979,6.103 -2.979,3.782 -2.979,1.634 -2.091,0 0,0" inkscape:connector-curvature="0" id="path132" style="fill:#0079c1"/></g><g transform="translate(63.123,53.86)" id="g134"><path d="m 0,0 c 0,4.497 2.607,7.648 6.875,7.648 4.241,0 6.762,-3.092 6.762,-7.648 0,-5.071 -3.324,-7.535 -6.762,-7.535 C 2.865,-7.535 0,-4.269 0,0" inkscape:connector-curvature="0" id="path136" style="fill:#ffffff"/></g><g transform="translate(73.694,53.86)" id="g138"><path d="m 0,0 c 0,2.75 -1.433,4.583 -3.724,4.583 -2.264,0 -3.61,-1.861 -3.61,-4.583 0,-2.664 1.346,-4.556 3.638,-4.556 C -1.461,-4.556 0,-2.636 0,0" inkscape:connector-curvature="0" id="path140" style="fill:#0079c1"/></g><g transform="translate(80.044,53.86)" id="g142"><path d="m 0,0 c 0,4.497 2.607,7.648 6.875,7.648 4.241,0 6.762,-3.092 6.762,-7.648 0,-5.071 -3.324,-7.535 -6.762,-7.535 C 2.865,-7.535 0,-4.269 0,0" inkscape:connector-curvature="0" id="path144" style="fill:#ffffff"/></g><g transform="translate(90.614,53.86)" id="g146"><path d="m 0,0 c 0,2.75 -1.432,4.583 -3.724,4.583 -2.263,0 -3.61,-1.861 -3.61,-4.583 0,-2.664 1.347,-4.556 3.639,-4.556 C -1.461,-4.556 0,-2.636 0,0" inkscape:connector-curvature="0" id="path148" style="fill:#0079c1"/></g><g transform="translate(106.88,47.872)" id="g150"><path d="m 0,0 c -1.633,-1.375 -3.925,-1.375 -3.925,-1.375 -1.547,0 -6.131,1.519 -6.131,7.392 0,4.326 2.435,7.449 6.245,7.449 1.719,0 2.866,-0.459 3.811,-1.547 v 6.99 H 3.15 V -1.174 H 0 V 0" inkscape:connector-curvature="0" id="path152" style="fill:#ffffff"/></g><g transform="translate(106.88,52.713)" id="g154"><path d="m 0,0 v 2.578 c 0,1.662 -1.633,3.124 -3.181,3.124 -1.976,0 -3.609,-2.178 -3.609,-4.441 0,-2.407 1.719,-4.297 3.523,-4.297 C -1.834,-3.036 0,-1.69 0,0" inkscape:connector-curvature="0" id="path156" style="fill:#0079c1"/></g><g transform="translate(117.16,57.068)" id="g158"><path d="m 0,0 c 0,-0.716 0.831,-1.26 2.092,-1.518 2.55,-0.516 2.205,-0.487 2.979,-0.802 1.576,-0.573 2.521,-1.777 2.521,-3.752 0,-2.379 -1.977,-4.642 -5.128,-4.642 -2.178,0 -3.609,0.43 -6.331,2.607 l 2.034,2.035 c 1.403,-1.29 2.492,-1.72 3.896,-1.72 1.518,0 2.349,0.458 2.349,1.519 0,1.059 -0.573,1.059 -3.552,1.919 -3.582,1.032 -3.897,2.922 -3.897,4.297 0,1.977 1.462,4.469 5.587,4.469 0,0 3.009,0 4.956,-2.062 L 5.787,0.173 C 4.326,1.633 2.492,1.633 2.492,1.633 1.003,1.633 0,0.945 0,0" inkscape:connector-curvature="0" id="path160" style="fill:#ffffff"/></g><g transform="translate(41.735,18.046)" id="g162"><path d="m 0,0 h -3.696 l -4.669,14.181 h 3.409 l 3.094,-9.798 3.151,9.798 H 4.641 L 0,0" inkscape:connector-curvature="0" id="path164" style="fill:#ffffff"/></g><g transform="translate(48.119,25.237)" id="g166"><path d="m 0,0 c 0,4.498 2.722,7.448 6.733,7.448 3.838,0 6.216,-2.778 6.216,-8.078 V -1.146 H 3.352 c 0.343,-2.177 1.518,-3.323 3.609,-3.323 0,0 2.064,0 3.381,1.403 l 1.891,-2.377 C 10.199,-7.592 7.019,-7.592 7.019,-7.592 2.636,-7.592 0,-4.698 0,0" inkscape:connector-curvature="0" id="path168" style="fill:#ffffff"/></g><g transform="translate(51.471,26.498)" id="g170"><path d="M 0,0 H 6.417 C 6.303,2.148 5.243,3.465 3.409,3.465 1.633,3.465 0.229,2.406 0,0" inkscape:connector-curvature="0" id="path172" style="fill:#0079c1"/></g><g transform="translate(76.302,28.36)" id="g174"><path d="m 0,0 v -10.314 h -2.922 v 8.653 c 0,1.489 -0.946,2.95 -2.521,2.95 -2.178,0 -3.037,-1.833 -3.037,-2.95 v -8.653 h -3.123 V 9.769 H -8.48 V 2.692 c 0.945,1.691 3.552,1.691 3.552,1.691 C -1.462,4.383 0,1.69 0,0" inkscape:connector-curvature="0" id="path176" style="fill:#ffffff"/></g><path d="m 80.372,18.046 h 3.1509 V 32.371 H 80.372 V 18.046 z" inkscape:connector-curvature="0" id="path178" style="fill:#ffffff"/><g transform="translate(79.999,36.238)" id="g180"><path d="M 0,0 C 0,1.003 0.888,1.92 1.891,1.92 3.008,1.92 3.868,1.031 3.868,0 3.868,-1.117 3.008,-1.977 1.92,-1.977 0.888,-1.977 0,-1.117 0,0" inkscape:connector-curvature="0" id="path182" style="fill:#ffffff"/></g><g transform="translate(99.803,28.99)" id="g184"><path d="m 0,0 -2.636,-1.347 c -1.031,2.148 -3.123,2.148 -3.123,2.148 -2.062,0 -3.609,-2.09 -3.609,-4.812 0,-2.578 1.662,-4.412 3.552,-4.412 0,0 1.462,0 3.324,2.149 l 2.55,-1.117 c -1.748,-3.753 -6.16,-3.753 -6.16,-3.753 -3.782,0 -6.417,3.438 -6.417,7.105 0,4.382 2.578,7.62 6.646,7.62 0,0 3.696,0 5.873,-3.581" inkscape:connector-curvature="0" id="path186" style="fill:#ffffff"/></g><g transform="translate(107.46,20.825)" id="g188"><path d="m 0,0 c 0,0 0.572,0 1.69,0.201 l 0.373,-2.808 c -1.319,-0.229 -2.836,-0.229 -2.836,-0.229 -2.98,-0.258 -3.697,1.232 -3.697,4.67 v 15.412 h 3.152 V 2.006 C -1.318,0.516 -0.975,0 0,0" inkscape:connector-curvature="0" id="path190" style="fill:#ffffff"/></g><g transform="translate(111.11,25.237)" id="g192"><path d="m 0,0 c 0,4.498 2.723,7.448 6.733,7.448 3.84,0 6.217,-2.778 6.217,-8.078 V -1.146 H 3.353 c 0.344,-2.177 1.518,-3.323 3.609,-3.323 0,0 2.064,0 3.381,1.403 l 1.891,-2.377 C 10.2,-7.592 7.02,-7.592 7.02,-7.592 2.636,-7.592 0,-4.698 0,0" inkscape:connector-curvature="0" id="path194" style="fill:#ffffff"/></g><g transform="translate(114.46,26.498)" id="g196"><path d="M 0,0 H 6.417 C 6.302,2.148 5.242,3.465 3.409,3.465 1.633,3.465 0.228,2.406 0,0" inkscape:connector-curvature="0" id="path198" style="fill:#0079c1"/></g><g transform="translate(129.9,28.416)" id="g200"><path d="m 0,0 c 0,-0.715 0.831,-1.26 2.09,-1.518 2.55,-0.515 2.207,-0.486 2.98,-0.802 1.576,-0.573 2.521,-1.775 2.521,-3.753 0,-2.377 -1.976,-4.64 -5.128,-4.64 -2.176,0 -3.61,0.429 -6.331,2.606 l 2.034,2.034 c 1.404,-1.289 2.493,-1.718 3.896,-1.718 1.519,0 2.35,0.458 2.35,1.518 0,1.06 -0.574,1.06 -3.553,1.92 -3.581,1.03 -3.897,2.921 -3.897,4.297 0,1.976 1.461,4.469 5.587,4.469 0,0 3.008,0 4.956,-2.063 L 5.787,0.172 C 4.326,1.634 2.492,1.634 2.492,1.634 1.002,1.634 0,0.947 0,0" inkscape:connector-curvature="0" id="path202" style="fill:#ffffff"/></g><g transform="translate(125.61,115.72)" id="g204"><path d="m 0,0 c -1.546,0 -3.208,-1.461 -3.208,-3.123 v -2.578 c 0,-1.69 1.833,-3.037 3.294,-3.037 1.805,0 3.496,1.891 3.496,4.297 C 3.582,-2.177 1.977,0 0,0" inkscape:connector-curvature="0" id="path206" style="fill:#0079c1"/></g></g></svg>