<?xml version="1.0" encoding="UTF-8" standalone="no"?>
<!-- Created with Inkscape (http://www.inkscape.org/) -->

<svg
   xmlns:dc="http://purl.org/dc/elements/1.1/"
   xmlns:cc="http://creativecommons.org/ns#"
   xmlns:rdf="http://www.w3.org/1999/02/22-rdf-syntax-ns#"
   xmlns:svg="http://www.w3.org/2000/svg"
   xmlns="http://www.w3.org/2000/svg"
   xmlns:sodipodi="http://sodipodi.sourceforge.net/DTD/sodipodi-0.dtd"
   xmlns:inkscape="http://www.inkscape.org/namespaces/inkscape"
   width="447.01361"
   height="1012.9575"
   id="svg2947"
   version="1.1"
   inkscape:version="0.47 r22583"
   sodipodi:docname="UK traffic sign 663.svg">
  <defs
     id="defs2949">
    <inkscape:perspective
       sodipodi:type="inkscape:persp3d"
       inkscape:vp_x="0 : 526.18109 : 1"
       inkscape:vp_y="0 : 1000 : 0"
       inkscape:vp_z="744.09448 : 526.18109 : 1"
       inkscape:persp3d-origin="372.04724 : 350.78739 : 1"
       id="perspective2955" />
    <inkscape:perspective
       id="perspective2982"
       inkscape:persp3d-origin="187.815 : 45.626668 : 1"
       inkscape:vp_z="375.63 : 68.440002 : 1"
       inkscape:vp_y="0 : 1000 : 0"
       inkscape:vp_x="0 : 68.440002 : 1"
       sodipodi:type="inkscape:persp3d" />
    <inkscape:perspective
       id="perspective3797"
       inkscape:persp3d-origin="0.5 : 0.33333333 : 1"
       inkscape:vp_z="1 : 0.5 : 1"
       inkscape:vp_y="0 : 1000 : 0"
       inkscape:vp_x="0 : 0.5 : 1"
       sodipodi:type="inkscape:persp3d" />
    <inkscape:perspective
       id="perspective4701"
       inkscape:persp3d-origin="0.5 : 0.33333333 : 1"
       inkscape:vp_z="1 : 0.5 : 1"
       inkscape:vp_y="0 : 1000 : 0"
       inkscape:vp_x="0 : 0.5 : 1"
       sodipodi:type="inkscape:persp3d" />
    <clipPath
       clipPathUnits="userSpaceOnUse"
       id="clipPath3104">
      <path
         d="m 22.11,25.795 267.236,0 0,418.677 -267.236,0 0,-418.677 z"
         id="path3106" />
    </clipPath>
    <inkscape:perspective
       id="perspective4975"
       inkscape:persp3d-origin="0.5 : 0.33333333 : 1"
       inkscape:vp_z="1 : 0.5 : 1"
       inkscape:vp_y="0 : 1000 : 0"
       inkscape:vp_x="0 : 0.5 : 1"
       sodipodi:type="inkscape:persp3d" />
    <inkscape:perspective
       id="perspective6010"
       inkscape:persp3d-origin="0.5 : 0.33333333 : 1"
       inkscape:vp_z="1 : 0.5 : 1"
       inkscape:vp_y="0 : 1000 : 0"
       inkscape:vp_x="0 : 0.5 : 1"
       sodipodi:type="inkscape:persp3d" />
    <clipPath
       clipPathUnits="userSpaceOnUse"
       id="clipPath5370">
      <path
         d="m 34.016,36.469 255.118,0 0,485.105 -255.118,0 0,-485.105 z"
         id="path5372" />
    </clipPath>
    <clipPath
       clipPathUnits="userSpaceOnUse"
       id="clipPath5360">
      <path
         d="m 31.181,30.409 261,0 0,494 -261,0 0,-494 z"
         id="path5362" />
    </clipPath>
    <inkscape:perspective
       id="perspective6118"
       inkscape:persp3d-origin="0.5 : 0.33333333 : 1"
       inkscape:vp_z="1 : 0.5 : 1"
       inkscape:vp_y="0 : 1000 : 0"
       inkscape:vp_x="0 : 0.5 : 1"
       sodipodi:type="inkscape:persp3d" />
    <clipPath
       clipPathUnits="userSpaceOnUse"
       id="clipPath5370-2">
      <path
         d="m 34.016,36.469 255.118,0 0,485.105 -255.118,0 0,-485.105 z"
         id="path5372-6" />
    </clipPath>
    <clipPath
       clipPathUnits="userSpaceOnUse"
       id="clipPath5360-5">
      <path
         d="m 31.181,30.409 261,0 0,494 -261,0 0,-494 z"
         id="path5362-7" />
    </clipPath>
    <inkscape:perspective
       id="perspective8380"
       inkscape:persp3d-origin="0.5 : 0.33333333 : 1"
       inkscape:vp_z="1 : 0.5 : 1"
       inkscape:vp_y="0 : 1000 : 0"
       inkscape:vp_x="0 : 0.5 : 1"
       sodipodi:type="inkscape:persp3d" />
    <inkscape:perspective
       id="perspective9041"
       inkscape:persp3d-origin="0.5 : 0.33333333 : 1"
       inkscape:vp_z="1 : 0.5 : 1"
       inkscape:vp_y="0 : 1000 : 0"
       inkscape:vp_x="0 : 0.5 : 1"
       sodipodi:type="inkscape:persp3d" />
    <inkscape:perspective
       id="perspective9702"
       inkscape:persp3d-origin="0.5 : 0.33333333 : 1"
       inkscape:vp_z="1 : 0.5 : 1"
       inkscape:vp_y="0 : 1000 : 0"
       inkscape:vp_x="0 : 0.5 : 1"
       sodipodi:type="inkscape:persp3d" />
    <inkscape:perspective
       id="perspective10096"
       inkscape:persp3d-origin="211.875 : 243.12667 : 1"
       inkscape:vp_z="423.75 : 364.69 : 1"
       inkscape:vp_y="0 : 1000 : 0"
       inkscape:vp_x="0 : 364.69 : 1"
       sodipodi:type="inkscape:persp3d" />
    <inkscape:perspective
       id="perspective11188"
       inkscape:persp3d-origin="0.5 : 0.33333333 : 1"
       inkscape:vp_z="1 : 0.5 : 1"
       inkscape:vp_y="0 : 1000 : 0"
       inkscape:vp_x="0 : 0.5 : 1"
       sodipodi:type="inkscape:persp3d" />
    <clipPath
       clipPathUnits="userSpaceOnUse"
       id="clipPath10834">
      <path
         d="m 28.346,37.475 76,0 0,311.753 -76,0 0,-311.753 z"
         id="path10836" />
    </clipPath>
    <inkscape:perspective
       id="perspective12743"
       inkscape:persp3d-origin="0.5 : 0.33333333 : 1"
       inkscape:vp_z="1 : 0.5 : 1"
       inkscape:vp_y="0 : 1000 : 0"
       inkscape:vp_x="0 : 0.5 : 1"
       sodipodi:type="inkscape:persp3d" />
    <clipPath
       clipPathUnits="userSpaceOnUse"
       id="clipPath12469">
      <path
         d="m 31.928,26.74 69.552,0 0,164.598 -69.552,0 0,-164.598 z"
         id="path12471" />
    </clipPath>
  </defs>
  <sodipodi:namedview
     id="base"
     pagecolor="#ffffff"
     bordercolor="#666666"
     borderopacity="1.0"
     inkscape:pageopacity="0.0"
     inkscape:pageshadow="2"
     inkscape:zoom="0.29534138"
     inkscape:cx="1291.3911"
     inkscape:cy="213.51495"
     inkscape:document-units="px"
     inkscape:current-layer="layer1"
     showgrid="false"
     inkscape:window-width="1600"
     inkscape:window-height="838"
     inkscape:window-x="-8"
     inkscape:window-y="-8"
     inkscape:window-maximized="1" />
  <metadata
     id="metadata2952">
    <rdf:RDF>
      <cc:Work
         rdf:about="">
        <dc:format>image/svg+xml</dc:format>
        <dc:type
           rdf:resource="http://purl.org/dc/dcmitype/StillImage" />
        <dc:title></dc:title>
      </cc:Work>
    </rdf:RDF>
  </metadata>
  <g
     inkscape:label="Livello 1"
     inkscape:groupmode="layer"
     id="layer1"
     transform="translate(744.72642,542.39725)">
    <g
       transform="matrix(7.3084429,0,0,-7.3084429,-993.32748,815.58014)"
       id="g12465">
      <g
         id="g12467"
         clip-path="url(#clipPath12469)">
        <g
           id="g12473"
           transform="translate(36.895599,185.8094)">
          <path
             d="m 0,0 c -1.584,0 -2.88,-1.296 -2.88,-2.916 l 0,-132.805 c 0,-1.584 1.296,-2.88 2.88,-2.88 l 55.403,0 c 1.584,0 2.881,1.296 2.881,2.88 l 0,132.805 C 58.284,-1.296 56.987,0 55.403,0 L 0,0 z"
             style="fill:#1a1a18;fill-opacity:1;fill-rule:evenodd;stroke:none"
             id="path12475" />
        </g>
        <g
           id="g12477"
           transform="translate(36.895599,184.3334)">
          <path
             d="m 0,0 c -0.792,0 -1.44,-0.648 -1.44,-1.44 l 0,-87.84 c 0,-0.828 0.648,-1.476 1.44,-1.476 l 55.403,0 c 0.793,0 1.442,0.648 1.442,1.476 l 0,87.84 C 56.845,-0.648 56.196,0 55.403,0 L 0,0 z"
             style="fill:#ffffff;fill-opacity:1;fill-rule:evenodd;stroke:none"
             id="path12479" />
        </g>
        <g
           id="g12481"
           transform="translate(36.895599,92.137497)">
          <path
             d="m 0,0 c -0.792,0 -1.44,-0.648 -1.44,-1.44 l 0,-40.609 c 0,-0.792 0.648,-1.439 1.44,-1.439 l 55.403,0 c 0.793,0 1.442,0.647 1.442,1.439 l 0,40.609 C 56.845,-0.648 56.196,0 55.403,0 L 0,0 z"
             style="fill:#ffffff;fill-opacity:1;fill-rule:evenodd;stroke:none"
             id="path12483" />
        </g>
        <g
           id="g12485"
           transform="translate(80.816498,109.09309)">
          <path
             d="m 0,0 -3.312,0 0,-10.188 6.875,0 0,1.908 -4.895,0 0,2.268 4.139,0 0,1.872 -4.139,0 0,2.232 4.607,0 L 3.275,0 1.584,0 0,0 z"
             style="fill:#1a1a18;fill-opacity:1;fill-rule:evenodd;stroke:none"
             id="path12487" />
        </g>
        <g
           id="g12489"
           transform="translate(66.378998,109.09309)">
          <path
             d="m 0,0 0.793,0 4.967,-7.02 0,7.02 1.98,0 0,-10.188 -2.302,0 -4.573,6.912 0,-6.912 -2.017,0 0,10.188 0.506,0 L 0,0 z"
             style="fill:#1a1a18;fill-opacity:1;fill-rule:evenodd;stroke:none"
             id="path12491" />
        </g>
        <g
           id="g12493"
           transform="translate(57.847702,109.23711)">
          <path
             d="m 0,0 c -1.944,0 -4.788,-1.548 -4.788,-5.256 0,-3.672 2.772,-5.184 4.788,-5.184 2.052,0 4.824,1.512 4.824,5.184 C 4.824,-1.548 1.98,0 0,0 m 0,-2.016 c -1.368,0 -2.664,-1.043 -2.664,-3.276 0,-2.196 1.368,-3.276 2.664,-3.276 1.332,0 2.7,1.08 2.7,3.276 0,2.233 -1.296,3.276 -2.7,3.276"
             style="fill:#1a1a18;fill-opacity:1;fill-rule:evenodd;stroke:none"
             id="path12495" />
        </g>
        <g
           id="g12497"
           transform="translate(47.515701,109.09309)">
          <path
             d="m 0,0 -3.348,0 0,-1.8 4.5,0 -4.644,-6.407 0,-1.981 7.308,0 0,1.981 -4.896,0 4.716,6.407 0,1.8 L 1.224,0 0,0 z"
             style="fill:#1a1a18;fill-opacity:1;fill-rule:evenodd;stroke:none"
             id="path12499" />
        </g>
        <g
           id="g12501"
           transform="translate(55.543503,86.521301)">
          <path
             d="m 0,0 0,-2.16 -1.008,0 0,3.708 -1.548,-2.124 -1.548,2.124 0,-3.708 -0.936,0 0,5.076 1.224,0 1.26,-1.8 1.296,1.8 1.26,0 L 0,1.476 0,0 z"
             style="fill:#1a1a18;fill-opacity:1;fill-rule:evenodd;stroke:none"
             id="path12503" />
        </g>
        <path
           d="m 77.936,87.997 0.936,0 0,-3.635 -0.936,0 0,3.635 z"
           style="fill:#1a1a18;fill-opacity:1;fill-rule:evenodd;stroke:none"
           id="path12505" />
        <g
           id="g12507"
           transform="translate(78.416107,89.412903)">
          <path
             d="m 0,0 c 0.297,0 0.539,-0.242 0.539,-0.54 0,-0.298 -0.242,-0.54 -0.539,-0.54 -0.299,0 -0.541,0.242 -0.541,0.54 C -0.541,-0.242 -0.299,0 0,0"
             style="fill:#1a1a18;fill-opacity:1;fill-rule:evenodd;stroke:none"
             id="path12509" />
        </g>
        <g
           id="g12511"
           transform="translate(64.219406,86.737106)">
          <path
             d="m 0,0 0,-2.376 -0.936,0 0,2.268 c 0,0.288 -0.216,0.54 -0.612,0.54 -0.396,0 -0.756,-0.324 -0.756,-0.827 l 0,-1.981 -0.936,0 0,3.636 0.936,0 0,-0.288 c 0,0 0.36,0.36 0.9,0.36 C -0.54,1.332 0,0.649 0,0"
             style="fill:#1a1a18;fill-opacity:1;fill-rule:evenodd;stroke:none"
             id="path12513" />
        </g>
        <g
           id="g12515"
           transform="translate(58.387802,88.141403)">
          <path
             d="m 0,0 c -0.864,0 -1.764,-0.721 -1.764,-1.98 0,-1.26 0.864,-1.98 1.764,-1.98 0.9,0 1.764,0.72 1.764,1.98 C 1.764,-0.721 0.9,0 0,0 m 0,-0.828 c -0.396,0 -0.828,-0.36 -0.828,-1.152 0,-0.792 0.432,-1.152 0.828,-1.152 0.396,0 0.828,0.36 0.828,1.152 0,0.792 -0.432,1.152 -0.828,1.152"
             style="fill:#1a1a18;fill-opacity:1;fill-rule:evenodd;stroke:none"
             id="path12517" />
        </g>
        <g
           id="g12519"
           transform="translate(77.035202,87.168899)">
          <path
             d="m 0,0 0,0.9 c -0.863,0 -1.008,-0.216 -1.225,-0.431 l 0,0.359 -0.935,0 0,-3.635 0.935,0 0,1.799 C -1.225,-0.468 -0.648,0 0,0"
             style="fill:#1a1a18;fill-opacity:1;fill-rule:evenodd;stroke:none"
             id="path12521" />
        </g>
        <path
           d="m 66.524,86.917 1.584,0 0,-0.756 -1.584,0 0,0.756 z"
           style="fill:#1a1a18;fill-opacity:1;fill-rule:evenodd;stroke:none"
           id="path12523" />
        <g
           id="g12525"
           transform="translate(72.320404,89.437302)">
          <path
             d="m 0,0 -1.441,0 0,-5.076 1.007,0 0,2.052 2.088,0 0,0.972 -2.088,0 0,1.079 2.305,0 L 1.871,0 0.826,0 0,0 z"
             style="fill:#1a1a18;fill-opacity:1;fill-rule:evenodd;stroke:none"
             id="path12527" />
        </g>
        <g
           id="g12529"
           transform="translate(83.732498,77.269394)">
          <path
             d="m 0,0 0,1.908 c 0,0.468 -0.469,0.863 -1.477,0.863 -0.793,0 -1.332,-0.359 -1.511,-0.467 l 0.394,-0.72 c 0.324,0.216 0.973,0.359 1.225,0.359 0.289,0 0.396,-0.216 0.396,-0.323 l 0,-0.216 C -1.297,1.404 -2.09,1.26 -2.412,1.151 -2.701,1.044 -3.205,0.864 -3.205,0.144 c 0,-0.756 0.756,-1.224 1.512,-1.224 0.613,0 0.828,0.395 0.828,0.395 0,0 0.324,-0.395 0.865,-0.395 l 0.395,0.72 C -0.037,-0.252 0,-0.108 0,0 m -0.973,0.684 0,-0.684 c 0,-0.288 -0.504,-0.288 -0.613,-0.288 -0.07,0 -0.646,0.036 -0.646,0.468 0,0.467 0.683,0.504 1.259,0.504"
             style="fill:#1a1a18;fill-opacity:1;fill-rule:evenodd;stroke:none"
             id="path12531" />
        </g>
        <g
           id="g12533"
           transform="translate(50.539597,79.645401)">
          <path
             d="m 0,0 0,1.691 0.936,0 0,-5.04 -0.936,0 0,0.145 c 0,0 -0.396,-0.288 -0.936,-0.288 -0.576,0 -1.692,0.468 -1.692,1.944 0,1.512 1.152,1.907 1.62,1.907 C -0.576,0.359 -0.36,0.252 0,0 M 0,-1.225 0,-1.944 C 0,-2.269 -0.252,-2.7 -0.792,-2.7 c -0.576,0 -0.864,0.468 -0.864,1.152 0,0.684 0.36,1.008 0.828,1.008 C -0.36,-0.54 0,-0.792 0,-1.225"
             style="fill:#1a1a18;fill-opacity:1;fill-rule:evenodd;stroke:none"
             id="path12535" />
        </g>
        <g
           id="g12537"
           transform="translate(60.835495,78.205399)">
          <path
             d="m 0,0 c 0,0.396 -0.216,0.791 -0.684,0.791 -0.468,0 -0.648,-0.467 -0.648,-0.791 0,-0.325 0.144,-0.792 0.648,-0.792 C -0.18,-0.792 0,-0.396 0,0 m -2.412,-2.701 0.432,0.792 c 0.216,-0.107 0.54,-0.323 1.188,-0.323 0.936,0 0.792,0.684 0.792,0.684 0,0 -0.324,-0.18 -0.756,-0.18 -1.584,0 -1.62,1.728 -1.62,1.728 0,0 0,0.828 0.54,1.295 0.324,0.288 0.648,0.397 1.08,0.397 0.144,0 0.504,-0.036 0.756,-0.18 l 0,0.216 0.936,0 0,-3.672 c 0,-0.864 -1.116,-1.152 -1.692,-1.152 -0.612,0 -1.26,0.179 -1.656,0.395"
             style="fill:#1a1a18;fill-opacity:1;fill-rule:evenodd;stroke:none"
             id="path12539" />
        </g>
        <g
           id="g12541"
           transform="translate(63.823898,79.717407)">
          <path
             d="m 0,0 0,1.619 -0.937,0 0,-5.075 0.937,0 0,2.159 c 0,0.361 0.324,0.649 0.648,0.649 0.36,0 0.72,-0.216 0.72,-0.649 l 0,-2.159 0.935,0 0,2.484 c 0,0.755 -0.648,1.224 -1.331,1.224 C 0.36,0.252 0.144,0.071 0,0"
             style="fill:#1a1a18;fill-opacity:1;fill-rule:evenodd;stroke:none"
             id="path12543" />
        </g>
        <g
           id="g12545"
           transform="translate(89.959198,78.745499)">
          <path
             d="m 0,0 0,-2.449 -0.936,0 0,2.233 c 0,0.324 -0.252,0.576 -0.576,0.576 -0.287,0 -0.611,-0.252 -0.611,-0.72 l 0,-2.089 -0.936,0 0,2.233 c 0,0.324 -0.289,0.576 -0.541,0.576 -0.252,0 -0.648,-0.18 -0.648,-0.685 l 0,-2.124 -0.936,0 0,3.637 0.936,0 0,-0.216 c 0,0 0.324,0.252 0.935,0.252 0.541,0 0.901,-0.36 0.866,-0.36 0,0 0.396,0.395 1.007,0.395 C -0.504,1.259 0,0.612 0,0"
             style="fill:#1a1a18;fill-opacity:1;fill-rule:evenodd;stroke:none"
             id="path12547" />
        </g>
        <g
           id="g12549"
           transform="translate(69.511795,76.405395)">
          <path
             d="m 0,0 -0.18,0.756 c -0.648,-0.18 -0.828,0 -0.828,0.144 l 0,1.8 0.936,0 0,0.828 -0.936,0 0,1.439 -0.935,-0.288 0,-1.151 -0.614,0 0,-0.828 0.614,0 0,-2.124 c 0,-0.432 0.287,-0.792 0.97,-0.792 0.504,0 0.866,0.143 0.973,0.216"
             style="fill:#1a1a18;fill-opacity:1;fill-rule:evenodd;stroke:none"
             id="path12551" />
        </g>
        <g
           id="g12553"
           transform="translate(44.779404,78.456406)">
          <path
             d="m 0,0 0,-2.16 -1.008,0 0,3.708 -1.548,-2.159 -1.548,2.159 0,-3.708 -0.972,0 0,5.076 1.26,0 1.26,-1.799 1.26,1.799 L 0,2.916 0,1.441 0,0 z"
             style="fill:#1a1a18;fill-opacity:1;fill-rule:evenodd;stroke:none"
             id="path12555" />
        </g>
        <path
           d="m 46.04,79.897 0.936,0 0,-3.601 -0.936,0 0,3.601 z"
           style="fill:#1a1a18;fill-opacity:1;fill-rule:evenodd;stroke:none"
           id="path12557" />
        <g
           id="g12559"
           transform="translate(46.375595,81.336395)">
          <path
             d="m 0,0 c 0.278,0 0.504,-0.225 0.504,-0.504 0,-0.278 -0.226,-0.503 -0.504,-0.503 -0.278,0 -0.504,0.225 -0.504,0.503 C -0.504,-0.225 -0.278,0 0,0"
             style="fill:#1a1a18;fill-opacity:1;fill-rule:evenodd;stroke:none"
             id="path12561" />
        </g>
        <g
           id="g12563"
           transform="translate(55.615799,78.673401)">
          <path
             d="m 0,0 0,-2.377 -0.936,0 0,2.269 c 0,0.288 -0.216,0.54 -0.612,0.54 -0.396,0 -0.756,-0.324 -0.756,-0.828 l 0,-1.981 -0.936,0 0,3.637 0.936,0 0,-0.288 c 0,0 0.36,0.359 0.9,0.359 C -0.576,1.331 0,0.648 0,0"
             style="fill:#1a1a18;fill-opacity:1;fill-rule:evenodd;stroke:none"
             id="path12565" />
        </g>
        <path
           d="m 56.66,79.897 0.936,0 0,-3.601 -0.936,0 0,3.601 z"
           style="fill:#1a1a18;fill-opacity:1;fill-rule:evenodd;stroke:none"
           id="path12567" />
        <g
           id="g12569"
           transform="translate(57.1754,81.336395)">
          <path
             d="m 0,0 c 0.278,0 0.504,-0.225 0.504,-0.504 0,-0.278 -0.226,-0.503 -0.504,-0.503 -0.278,0 -0.504,0.225 -0.504,0.503 C -0.504,-0.225 -0.278,0 0,0"
             style="fill:#1a1a18;fill-opacity:1;fill-rule:evenodd;stroke:none"
             id="path12571" />
        </g>
        <path
           d="m 71.455,78.853 1.584,0 0,-0.756 -1.584,0 0,0.756 z"
           style="fill:#1a1a18;fill-opacity:1;fill-rule:evenodd;stroke:none"
           id="path12573" />
        <g
           id="g12575"
           transform="translate(76.820404,80.437393)">
          <path
             d="m 0,0 0.756,0 -1.656,-4.141 1.043,0 1.693,4.141 0,0.935 -3.492,0 0,-0.935 0.935,0 L 0,0 z"
             style="fill:#1a1a18;fill-opacity:1;fill-rule:evenodd;stroke:none"
             id="path12577" />
        </g>
        <g
           id="g12579"
           transform="translate(45.607498,72.517395)">
          <path
             d="m 0,0 0,0.144 -0.936,0 0,-4.644 0.936,0 0,1.296 c 0,0 0.324,-0.36 1.008,-0.36 1.26,0 1.656,1.368 1.656,1.944 0,0.468 -0.18,0.972 -0.468,1.296 C 1.908,0 1.548,0.288 0.972,0.288 0.612,0.288 0.252,0.18 0,0 m 0,-1.26 0,-0.648 c 0,-0.397 0.288,-0.756 0.828,-0.756 0.54,0 0.864,0.504 0.864,1.08 0,0.576 -0.324,1.044 -0.864,1.044 C 0.252,-0.54 0,-0.937 0,-1.26"
             style="fill:#1a1a18;fill-opacity:1;fill-rule:evenodd;stroke:none"
             id="path12581" />
        </g>
        <g
           id="g12583"
           transform="translate(40.495697,74.173401)">
          <path
             d="m 0,0 c 0.864,0 1.872,-0.396 1.872,-1.512 0,-0.829 -0.612,-0.972 -0.612,-0.972 0,0 0.756,-0.18 0.756,-1.189 0,-0.971 -0.828,-1.547 -2.016,-1.547 -1.188,0 -1.98,0.576 -1.98,1.547 0,1.009 0.72,1.189 0.72,1.189 0,0 -0.576,0.143 -0.576,0.972 C -1.836,-0.396 -0.828,0 0,0 m 0.036,-4.284 c -0.54,0 -0.936,0.216 -0.936,0.648 0,0.467 0.432,0.648 0.9,0.648 0.504,0 0.936,-0.181 0.936,-0.648 C 0.936,-4.068 0.54,-4.284 0,-4.284 l 0.036,0 z m 0,2.16 c -0.396,0 -0.792,0.18 -0.792,0.612 0,0.396 0.396,0.612 0.756,0.612 0.396,0 0.792,-0.216 0.792,-0.612 0,-0.432 -0.396,-0.612 -0.792,-0.612 l 0.036,0 z"
             style="fill:#1a1a18;fill-opacity:1;fill-rule:evenodd;stroke:none"
             id="path12585" />
        </g>
        <g
           id="g12587"
           transform="translate(54.319397,71.509399)">
          <path
             d="m 0,0 0,-2.484 -0.936,0 0,2.232 c 0,0.36 -0.288,0.612 -0.576,0.612 -0.288,0 -0.612,-0.289 -0.612,-0.72 l 0,-2.124 -0.936,0 0,2.232 c 0,0.36 -0.288,0.612 -0.54,0.612 -0.288,0 -0.684,-0.216 -0.684,-0.72 l 0,-2.124 -0.936,0 0,3.636 0.936,0 0,-0.216 c 0,0 0.36,0.288 0.972,0.288 0.54,0 0.864,-0.397 0.864,-0.397 0,0 0.396,0.397 1.008,0.397 C -0.504,1.224 0,0.612 0,0"
             style="fill:#1a1a18;fill-opacity:1;fill-rule:evenodd;stroke:none"
             id="path12589" />
        </g>
        <path
           d="m 56.624,71.58 1.584,0 0,-0.755 -1.584,0 0,0.755 z"
           style="fill:#1a1a18;fill-opacity:1;fill-rule:evenodd;stroke:none"
           id="path12591" />
        <g
           id="g12593"
           transform="translate(71.886795,72.372406)">
          <path
             d="m 0,0 0,1.729 0.938,0 0,-5.076 -0.938,0 0,0.18 c 0,0 -0.395,-0.325 -0.936,-0.325 -0.576,0 -1.691,0.469 -1.691,1.981 0,1.475 1.187,1.872 1.619,1.872 C -0.576,0.361 -0.359,0.252 0,0 m 0,-1.223 0,-0.72 c 0,-0.288 -0.252,-0.721 -0.791,-0.721 -0.576,0 -0.863,0.433 -0.863,1.117 0,0.684 0.359,1.044 0.826,1.044 0.469,0 0.828,-0.289 0.828,-0.72"
             style="fill:#1a1a18;fill-opacity:1;fill-rule:evenodd;stroke:none"
             id="path12595" />
        </g>
        <g
           id="g12597"
           transform="translate(82.255997,70.969406)">
          <path
             d="m 0,0 c 0,0.36 -0.217,0.756 -0.684,0.756 -0.468,0 -0.648,-0.433 -0.648,-0.756 0,-0.36 0.144,-0.792 0.648,-0.792 C -0.18,-0.792 0,-0.396 0,0 m -2.412,-2.736 0.432,0.792 c 0.179,-0.109 0.541,-0.324 1.187,-0.324 0.938,0 0.793,0.719 0.793,0.719 0,0 -0.324,-0.215 -0.721,-0.215 -1.619,0 -1.656,1.764 -1.656,1.764 0,0 0,0.792 0.541,1.26 0.324,0.288 0.648,0.432 1.08,0.432 0.143,0 0.504,-0.073 0.756,-0.18 l 0,0.18 0.936,0 0,-3.672 c 0,-0.828 -1.116,-1.153 -1.692,-1.153 -0.613,0 -1.26,0.217 -1.656,0.397"
             style="fill:#1a1a18;fill-opacity:1;fill-rule:evenodd;stroke:none"
             id="path12599" />
        </g>
        <g
           id="g12601"
           transform="translate(85.207108,72.4814)">
          <path
             d="m 0,0 0,1.62 -0.971,0 0,-5.076 0.971,0 0,2.16 c 0,0.324 0.289,0.647 0.613,0.647 0.36,0 0.719,-0.252 0.719,-0.647 l 0,-2.16 0.936,0 0,2.484 c 0,0.72 -0.647,1.224 -1.332,1.224 C 0.324,0.252 0.109,0.036 0,0"
             style="fill:#1a1a18;fill-opacity:1;fill-rule:evenodd;stroke:none"
             id="path12603" />
        </g>
        <g
           id="g12605"
           transform="translate(90.894608,69.133408)">
          <path
             d="M 0,0 -0.18,0.792 C -0.826,0.575 -1.043,0.756 -1.043,0.936 l 0,1.8 0.973,0 0,0.792 -0.973,0 0,1.44 -0.935,-0.288 0,-1.152 -0.577,0 0,-0.792 0.577,0 0,-2.124 c 0,-0.468 0.287,-0.829 1.007,-0.829 0.504,0 0.864,0.181 0.971,0.217"
             style="fill:#1a1a18;fill-opacity:1;fill-rule:evenodd;stroke:none"
             id="path12607" />
        </g>
        <g
           id="g12609"
           transform="translate(66.126999,71.221405)">
          <path
             d="m 0,0 0,-2.196 -1.008,0 0,3.708 -1.512,-2.124 -1.583,2.124 0,-3.708 -0.936,0 0,5.076 1.224,0 1.295,-1.8 1.261,1.8 L 0,2.88 0,1.44 0,0 z"
             style="fill:#1a1a18;fill-opacity:1;fill-rule:evenodd;stroke:none"
             id="path12611" />
        </g>
        <path
           d="m 67.424,72.661 0.936,0 0,-3.636 -0.936,0 0,3.636 z"
           style="fill:#1a1a18;fill-opacity:1;fill-rule:evenodd;stroke:none"
           id="path12613" />
        <g
           id="g12615"
           transform="translate(67.855499,74.053497)">
          <path
             d="m 0,0 c 0.277,0 0.504,-0.242 0.504,-0.54 0,-0.299 -0.227,-0.54 -0.504,-0.54 -0.277,0 -0.504,0.241 -0.504,0.54 C -0.504,-0.242 -0.277,0 0,0"
             style="fill:#1a1a18;fill-opacity:1;fill-rule:evenodd;stroke:none"
             id="path12617" />
        </g>
        <g
           id="g12619"
           transform="translate(76.962997,71.401398)">
          <path
             d="m 0,0 0,-2.376 -0.936,0 0,2.304 c 0,0.251 -0.216,0.54 -0.611,0.54 -0.431,0 -0.793,-0.36 -0.793,-0.865 l 0,-1.979 -0.935,0 0,3.636 0.935,0 0,-0.252 c 0,0 0.397,0.324 0.936,0.324 C -0.576,1.332 0,0.648 0,0"
             style="fill:#1a1a18;fill-opacity:1;fill-rule:evenodd;stroke:none"
             id="path12621" />
        </g>
        <path
           d="m 78.008,72.661 0.935,0 0,-3.636 -0.935,0 0,3.636 z"
           style="fill:#1a1a18;fill-opacity:1;fill-rule:evenodd;stroke:none"
           id="path12623" />
        <g
           id="g12625"
           transform="translate(78.535202,74.053497)">
          <path
             d="m 0,0 c 0.279,0 0.504,-0.242 0.504,-0.54 0,-0.299 -0.225,-0.54 -0.504,-0.54 -0.277,0 -0.504,0.241 -0.504,0.54 C -0.504,-0.242 -0.277,0 0,0"
             style="fill:#1a1a18;fill-opacity:1;fill-rule:evenodd;stroke:none"
             id="path12627" />
        </g>
        <g
           id="g12629"
           transform="translate(47.2276,52.861496)">
          <path
             d="m 0,0 -0.612,0 -0.288,-0.901 -1.044,0 1.656,5.04 1.26,0 1.656,-5.04 -1.044,0 L 1.26,0 0.648,0 0,0 z m 0.108,0.9 -0.396,0 0.612,1.98 0.684,-1.98 -0.432,0 -0.468,0 z"
             style="fill:#1a1a18;fill-opacity:1;fill-rule:evenodd;stroke:none"
             id="path12631" />
        </g>
        <g
           id="g12633"
           transform="translate(82.470795,53.401398)">
          <path
             d="M 0,0 2.412,0 C 2.449,0.468 2.27,2.267 0.721,2.267 c -1.367,0 -1.657,-1.439 -1.657,-1.907 0,-0.469 0.29,-1.944 1.764,-1.944 0.865,0 1.297,0.504 1.404,0.612 l -0.576,0.575 c 0,0 -0.287,-0.323 -0.828,-0.323 C 0.289,-0.72 0,-0.361 0,0 m 0,0.72 1.477,0 C 1.477,1.08 1.189,1.44 0.756,1.44 0.289,1.44 0,1.08 0,0.72"
             style="fill:#1a1a18;fill-opacity:1;fill-rule:evenodd;stroke:none"
             id="path12635" />
        </g>
        <g
           id="g12637"
           transform="translate(66.019699,51.349396)">
          <path
             d="m 0,0 1.439,4.212 -1.007,0 -0.719,-2.232 -0.721,2.232 -1.008,0 1.223,-3.456 C -0.756,0.504 -0.828,0.252 -1.332,0.288 L -1.656,0.324 -1.764,-0.469 -1.188,-0.54 C -0.504,-0.648 -0.18,-0.396 0,0"
             style="fill:#1a1a18;fill-opacity:1;fill-rule:evenodd;stroke:none"
             id="path12639" />
        </g>
        <g
           id="g12641"
           transform="translate(52.987396,52.033401)">
          <path
             d="M 0,0 -0.144,0.792 C -0.828,0.576 -1.008,0.755 -1.008,0.936 l 0,1.8 0.936,0 0,0.792 -0.936,0 0,1.439 -0.936,-0.288 0,-1.151 -0.576,0 0,-0.792 0.576,0 0,-2.124 c 0,-0.468 0.288,-0.828 0.972,-0.828 0.504,0 0.864,0.179 0.972,0.216"
             style="fill:#1a1a18;fill-opacity:1;fill-rule:evenodd;stroke:none"
             id="path12643" />
        </g>
        <g
           id="g12645"
           transform="translate(58.927307,52.933395)">
          <path
             d="m 0,0 0,1.872 c 0,0.504 -0.468,0.863 -1.476,0.863 -0.756,0 -1.296,-0.359 -1.512,-0.467 l 0.396,-0.684 c 0.324,0.216 0.972,0.324 1.26,0.324 0.288,0 0.396,-0.18 0.396,-0.324 l 0,-0.181 c -0.324,0 -1.116,-0.143 -1.44,-0.252 -0.288,-0.107 -0.792,-0.323 -0.792,-1.044 0,-0.719 0.756,-1.187 1.476,-1.187 0.648,0 0.864,0.359 0.864,0.359 0,0 0.324,-0.395 0.864,-0.395 L 0.432,-0.36 C -0.036,-0.288 0,-0.145 0,0 m -0.936,0.647 0,-0.683 c 0,-0.252 -0.54,-0.252 -0.612,-0.252 -0.108,0 -0.648,0 -0.648,0.432 0,0.467 0.684,0.503 1.26,0.503"
             style="fill:#1a1a18;fill-opacity:1;fill-rule:evenodd;stroke:none"
             id="path12647" />
        </g>
        <g
           id="g12649"
           transform="translate(63.283798,54.301498)">
          <path
             d="m 0,0 0,-2.376 -0.936,0 0,2.304 c 0,0.252 -0.216,0.54 -0.612,0.54 -0.396,0 -0.756,-0.36 -0.756,-0.828 l 0,-2.016 -0.936,0 0,3.636 0.936,0 0,-0.252 c 0,0 0.36,0.324 0.9,0.324 C -0.576,1.332 0,0.648 0,0"
             style="fill:#1a1a18;fill-opacity:1;fill-rule:evenodd;stroke:none"
             id="path12651" />
        </g>
        <g
           id="g12653"
           transform="translate(72.679794,52.033401)">
          <path
             d="M 0,0 -0.145,0.792 C -0.828,0.576 -1.008,0.755 -1.008,0.936 l 0,1.8 0.971,0 0,0.792 -0.971,0 0,1.439 -0.935,-0.288 0,-1.151 -0.577,0 0,-0.792 0.577,0 0,-2.124 c 0,-0.468 0.287,-0.828 0.97,-0.828 0.504,0 0.865,0.179 0.973,0.216"
             style="fill:#1a1a18;fill-opacity:1;fill-rule:evenodd;stroke:none"
             id="path12655" />
        </g>
        <path
           d="m 73.436,55.561 0.936,0 0,-3.636 -0.936,0 0,3.636 z"
           style="fill:#1a1a18;fill-opacity:1;fill-rule:evenodd;stroke:none"
           id="path12657" />
        <g
           id="g12659"
           transform="translate(73.855499,57.013397)">
          <path
             d="m 0,0 c 0.277,0 0.504,-0.242 0.504,-0.54 0,-0.299 -0.227,-0.54 -0.504,-0.54 -0.277,0 -0.504,0.241 -0.504,0.54 C -0.504,-0.242 -0.277,0 0,0"
             style="fill:#1a1a18;fill-opacity:1;fill-rule:evenodd;stroke:none"
             id="path12661" />
        </g>
        <g
           id="g12663"
           transform="translate(80.634796,54.409393)">
          <path
             d="m 0,0 0,-2.484 -0.935,0 0,2.232 c 0,0.36 -0.288,0.612 -0.577,0.612 -0.287,0 -0.611,-0.288 -0.611,-0.72 l 0,-2.124 -0.936,0 0,2.232 c 0,0.36 -0.289,0.612 -0.541,0.612 -0.287,0 -0.683,-0.216 -0.683,-0.72 l 0,-2.124 -0.936,0 0,3.636 0.936,0 0,-0.216 c 0,0 0.359,0.288 0.973,0.288 0.539,0 0.863,-0.396 0.863,-0.396 0,0 0.396,0.431 1.008,0.431 C -0.504,1.259 0,0.612 0,0"
             style="fill:#1a1a18;fill-opacity:1;fill-rule:evenodd;stroke:none"
             id="path12665" />
        </g>
        <g
           id="g12667"
           transform="translate(47.2276,60.8535)">
          <path
             d="M 0,0 0.72,0.72 C 1.656,0.072 2.448,0 2.628,0 c 0.288,0 0.54,0.252 0.54,0.576 0,0.323 -0.216,0.504 -0.396,0.54 -0.18,0.071 -0.864,0.18 -1.152,0.252 -0.288,0.071 -1.224,0.323 -1.224,1.44 0,1.152 0.792,1.547 1.728,1.547 0.9,0 1.548,-0.288 2.16,-0.792 L 3.564,2.88 C 3.204,3.168 2.736,3.384 2.052,3.384 1.62,3.384 1.548,2.988 1.548,2.88 1.548,2.735 1.656,2.448 1.908,2.376 2.196,2.34 2.88,2.16 2.988,2.124 3.276,2.088 4.284,1.727 4.284,0.647 4.284,-0.288 3.672,-0.937 2.484,-0.937 1.296,-0.937 0.396,-0.397 0,0"
             style="fill:#1a1a18;fill-opacity:1;fill-rule:evenodd;stroke:none"
             id="path12669" />
        </g>
        <g
           id="g12671"
           transform="translate(65.695404,60.8535)">
          <path
             d="M 0,0 0.107,-0.72 C -0.684,-0.937 -1.008,-0.756 -1.26,-0.504 -1.332,-0.576 -1.656,-0.9 -2.268,-0.9 c -0.9,0 -1.692,0.684 -1.692,1.547 0,0.433 0.108,1.009 0.9,1.549 -0.072,0.072 -0.324,0.287 -0.324,0.792 0,0.575 0.468,1.188 1.296,1.188 0.792,0 1.26,-0.576 1.26,-1.153 0,-0.575 -0.396,-0.899 -0.936,-1.187 l 0.72,-1.008 c 0.108,0.18 0.216,0.359 0.18,0.54 L 0,1.368 C 0,0.72 -0.324,0.252 -0.504,0.072 -0.396,-0.036 -0.18,-0.036 0,0 M -2.556,1.439 -1.728,0.18 C -1.8,0.107 -2.016,0 -2.196,0 c -0.468,0 -0.828,0.324 -0.828,0.756 0,0.431 0.324,0.612 0.468,0.683 m 0.324,1.08 c 0.18,0.073 0.468,0.252 0.468,0.541 0,0.288 -0.288,0.324 -0.36,0.324 -0.144,0.036 -0.324,-0.109 -0.324,-0.361 0,-0.215 0.108,-0.431 0.216,-0.504"
             style="fill:#1a1a18;fill-opacity:1;fill-rule:evenodd;stroke:none"
             id="path12673" />
        </g>
        <g
           id="g12675"
           transform="translate(76.531296,60.277405)">
          <path
             d="m 0,0 0,-0.252 0.936,0 0,3.636 L 0,3.384 0,1.368 C 0,0.828 -0.469,0.54 -0.791,0.54 c -0.361,0 -0.576,0.288 -0.576,0.612 l 0,2.232 -0.938,0 0,-2.413 c 0,-0.683 0.577,-1.295 1.332,-1.295 0.469,0 0.866,0.215 0.973,0.324"
             style="fill:#1a1a18;fill-opacity:1;fill-rule:evenodd;stroke:none"
             id="path12677" />
        </g>
        <g
           id="g12679"
           transform="translate(55.5074,60.996399)">
          <path
             d="m 0,0 0,1.909 c 0,0.504 -0.468,0.864 -1.476,0.864 -0.756,0 -1.296,-0.36 -1.512,-0.468 l 0.396,-0.721 c 0.324,0.216 0.972,0.361 1.26,0.361 0.288,0 0.396,-0.216 0.396,-0.324 l 0,-0.216 c -0.324,0 -1.116,-0.144 -1.44,-0.252 -0.288,-0.072 -0.792,-0.288 -0.792,-1.008 0,-0.756 0.756,-1.225 1.476,-1.225 0.648,0 0.864,0.397 0.864,0.397 0,0 0.324,-0.397 0.864,-0.433 l 0.396,0.757 C -0.036,-0.251 0,-0.107 0,0 m -0.936,0.685 0,-0.685 c 0,-0.288 -0.54,-0.288 -0.612,-0.288 -0.108,0 -0.648,0 -0.648,0.469 0,0.468 0.684,0.504 1.26,0.504"
             style="fill:#1a1a18;fill-opacity:1;fill-rule:evenodd;stroke:none"
             id="path12681" />
        </g>
        <g
           id="g12683"
           transform="translate(58.8918,60.097397)">
          <path
             d="m 0,0 -0.144,0.792 c -0.684,-0.181 -0.864,0 -0.864,0.144 l 0,1.799 0.936,0 0,0.829 -0.936,0 0,1.44 -0.936,-0.288 0,-1.152 -0.576,0 0,-0.829 0.576,0 0,-2.124 c 0,-0.431 0.288,-0.792 0.972,-0.792 0.504,0 0.864,0.145 0.972,0.181"
             style="fill:#1a1a18;fill-opacity:1;fill-rule:evenodd;stroke:none"
             id="path12685" />
        </g>
        <g
           id="g12687"
           transform="translate(68.718796,60.8535)">
          <path
             d="M 0,0 0.721,0.72 C 1.656,0.072 2.449,0 2.629,0 2.881,0 3.168,0.252 3.168,0.576 3.168,0.899 2.953,1.08 2.774,1.116 2.592,1.187 1.908,1.296 1.621,1.368 1.332,1.439 0.397,1.691 0.397,2.808 c 0,1.152 0.793,1.547 1.691,1.547 0.9,0 1.584,-0.288 2.197,-0.792 L 3.565,2.88 C 3.205,3.168 2.736,3.384 2.053,3.384 1.621,3.384 1.549,2.988 1.549,2.88 1.549,2.735 1.656,2.448 1.908,2.376 2.16,2.34 2.881,2.16 2.988,2.124 3.277,2.088 4.285,1.727 4.285,0.647 4.285,-0.288 3.672,-0.937 2.484,-0.937 1.297,-0.937 0.397,-0.397 0,0"
             style="fill:#1a1a18;fill-opacity:1;fill-rule:evenodd;stroke:none"
             id="path12689" />
        </g>
        <g
           id="g12691"
           transform="translate(81.679794,62.401398)">
          <path
             d="m 0,0 0,-2.376 -0.936,0 0,2.267 c 0,0.288 -0.216,0.54 -0.613,0.54 -0.394,0 -0.756,-0.323 -0.756,-0.828 l 0,-1.979 -0.935,0 0,3.636 0.935,0 0,-0.289 c 0,0 0.362,0.361 0.901,0.361 C -0.541,1.332 0,0.648 0,0"
             style="fill:#1a1a18;fill-opacity:1;fill-rule:evenodd;stroke:none"
             id="path12693" />
        </g>
        <g
           id="g12695"
           transform="translate(64.495697,180.577)">
          <path
             d="m 0,0 c 12.002,0 21.745,-9.741 21.745,-21.744 0,-12.003 -9.743,-21.744 -21.745,-21.744 -12.003,0 -21.744,9.741 -21.744,21.744 C -21.744,-9.741 -12.003,0 0,0"
             style="fill:#dd0029;fill-opacity:1;fill-rule:evenodd;stroke:none"
             id="path12697" />
        </g>
        <g
           id="g12699"
           transform="translate(64.495697,176.101)">
          <path
             d="m 0,0 c 9.598,0 17.387,-7.79 17.387,-17.388 0,-9.598 -7.789,-17.388 -17.387,-17.388 -9.598,0 -17.388,7.79 -17.388,17.388 C -17.388,-7.79 -9.598,0 0,0"
             style="fill:#0070ba;fill-opacity:1;fill-rule:evenodd;stroke:none"
             id="path12701" />
        </g>
        <g
           id="g12703"
           transform="translate(52.411697,174.325)">
          <path
             d="m 0,0 -3.384,-3.384 27.683,-27.684 3.385,3.384 L 0,0 z"
             style="fill:#dd0029;fill-opacity:1;fill-rule:evenodd;stroke:none"
             id="path12705" />
        </g>
        <g
           id="g12707"
           transform="translate(51.0074,118.48911)">
          <path
             d="M 0,0 0,0 C 0.895,0 1.62,-0.742 1.62,-1.656 1.62,-2.57 0.895,-3.312 0,-3.312 c -0.894,0 -1.62,0.742 -1.62,1.656 C -1.62,-0.742 -0.894,0 0,0 m 0,1.62 0,0 c 1.809,0 3.276,-1.468 3.276,-3.276 0,-1.808 -1.467,-3.276 -3.276,-3.276 -1.808,0 -3.276,1.468 -3.276,3.276 0,1.808 1.468,3.276 3.276,3.276"
             style="fill:#1a1a18;fill-opacity:1;fill-rule:evenodd;stroke:none"
             id="path12709" />
        </g>
        <g
           id="g12711"
           transform="translate(76.890701,118.48911)">
          <path
             d="M 0,0 0,0 C 0.895,0 1.621,-0.742 1.621,-1.656 1.621,-2.57 0.895,-3.312 0,-3.312 c -0.893,0 -1.619,0.742 -1.619,1.656 C -1.619,-0.742 -0.893,0 0,0 m 0,1.62 0,0 c 1.809,0 3.277,-1.468 3.277,-3.276 0,-1.808 -1.468,-3.276 -3.277,-3.276 -1.807,0 -3.275,1.468 -3.275,3.276 0,1.808 1.468,3.276 3.275,3.276"
             style="fill:#1a1a18;fill-opacity:1;fill-rule:evenodd;stroke:none"
             id="path12713" />
        </g>
        <g
           id="g12715"
           transform="translate(52.267807,129.0731)">
          <path
             d="m 0,0 0,-4.032 -4.896,0 0.576,3.42 c 0.072,0.396 0.432,0.684 0.828,0.684 L 0,0.072 0,0 z m -6.372,-5.292 0.864,4.896 c 0.18,0.972 1.008,1.692 2.016,1.692 l 5.508,0 c 0.437,0 0.792,-0.355 0.792,-0.792 l 0.072,0 0,-4.536 1.62,0 0,7.38 c 0,0.457 0.371,0.828 0.828,0.828 l 25.883,0 c 0.457,0 0.828,-0.371 0.828,-0.828 l 0,-15.588 -3.779,0 -0.035,0 c 0,1.987 -1.614,3.6 -3.602,3.6 -1.986,0 -3.6,-1.613 -3.6,-3.6 l -18.683,0 c 0,1.987 -1.613,3.6 -3.6,3.6 -1.988,0 -3.6,-1.613 -3.6,-3.6 l -0.036,0 -1.296,0 -1.188,5.472 -0.002,0 c -0.023,0.095 -0.034,0.191 -0.034,0.288 0,0.607 0.445,1.123 1.045,1.211 l -10e-4,-0.023 z"
             style="fill:#1a1a18;fill-opacity:1;fill-rule:evenodd;stroke:none"
             id="path12717" />
        </g>
        <g
           id="g12719"
           transform="translate(73.291107,116.8333)">
          <path
             d="m 0,0 1.332,0 0.793,2.088 2.988,0 L 6.912,0 9.109,0 6.156,4.212 l 0,0.072 -6.228,0 L 0,0 z"
             style="fill:#1a1a18;fill-opacity:1;fill-rule:evenodd;stroke:none"
             id="path12721" />
        </g>
        <g
           id="g12723"
           transform="translate(76.171997,123.7449)">
          <path
             d="m 0,0 0.576,0 0,6.228 1.979,0 0,1.152 -5.256,0 0,-1.152 1.98,0 L -0.721,0 -0.18,0 0,0 z"
             style="fill:#ffffff;fill-opacity:1;fill-rule:evenodd;stroke:none"
             id="path12725" />
        </g>
        <g
           id="g12727"
           transform="translate(64.039597,122.98911)">
          <path
             d="m 0,0 -1.872,-0.54 c 0.468,-1.656 1.764,-3.096 4.139,-3.096 0.9,0 4.285,0.468 4.285,4.176 0,3.708 -3.205,4.176 -3.888,4.176 -0.719,0 -1.547,-0.288 -2.088,-0.612 l 0.396,2.196 4.897,0 0,1.872 -6.697,0 -0.936,-6.048 2.088,-0.252 c 0.252,0.612 0.935,1.08 1.943,1.08 1.08,0 2.305,-0.684 2.305,-2.412 0,-1.728 -1.153,-2.376 -2.305,-2.376 C 1.117,-1.836 0.288,-1.044 0,0"
             style="fill:#ffffff;fill-opacity:1;fill-rule:evenodd;stroke:none"
             id="path12729" />
        </g>
      </g>
    </g>
  </g>
</svg>
