<?xml version="1.0" encoding="UTF-8" standalone="no"?>
<!-- Created with Inkscape (http://www.inkscape.org/) -->

<svg
   xmlns:dc="http://purl.org/dc/elements/1.1/"
   xmlns:cc="http://creativecommons.org/ns#"
   xmlns:rdf="http://www.w3.org/1999/02/22-rdf-syntax-ns#"
   xmlns:svg="http://www.w3.org/2000/svg"
   xmlns="http://www.w3.org/2000/svg"
   xmlns:sodipodi="http://sodipodi.sourceforge.net/DTD/sodipodi-0.dtd"
   xmlns:inkscape="http://www.inkscape.org/namespaces/inkscape"
   version="1.1"
   width="587.63501"
   height="199.41626"
   id="svg2"
   xml:space="preserve"
   inkscape:version="0.48.4 r9939"
   sodipodi:docname="UK_traffic_sign_618.1.svg"><sodipodi:namedview
     pagecolor="#ffffff"
     bordercolor="#666666"
     borderopacity="1"
     objecttolerance="10"
     gridtolerance="10"
     guidetolerance="10"
     inkscape:pageopacity="0"
     inkscape:pageshadow="2"
     inkscape:window-width="1600"
     inkscape:window-height="837"
     id="namedview3113"
     showgrid="false"
     inkscape:zoom="1.7300072"
     inkscape:cx="295.64667"
     inkscape:cy="145.95794"
     inkscape:window-x="-8"
     inkscape:window-y="-8"
     inkscape:window-maximized="1"
     inkscape:current-layer="g12"
     fit-margin-top="0"
     fit-margin-left="0"
     fit-margin-right="0"
     fit-margin-bottom="0" /><defs
     id="defs61" /><metadata
     id="metadata8"><rdf:RDF><cc:Work
         rdf:about=""><dc:format>image/svg+xml</dc:format><dc:type
           rdf:resource="http://purl.org/dc/dcmitype/StillImage" /><dc:title /></cc:Work></rdf:RDF></metadata><g
     transform="matrix(1.25,0,0,-1.25,-103.775,592.53923)"
     id="g10"><g
       transform="scale(0.1,0.1)"
       id="g12"><path
         d="m 5531.2798,3253.4906 c 0.234,-59.8456 -92.6493,-108.4289 -207.4476,-108.5069 H 1037.6476 c -114.26643,0.078 -207.14973,48.6613 -207.4476,108.5069 v 1378.3157 c 0.29894,60.1241 93.18117,108.7072 207.4476,108.5069 h 4286.1846 c 114.7983,0.2003 207.6816,-48.3828 207.4476,-108.5069 V 3253.4906"
         inkscape:connector-curvature="0"
         id="path14" /><path
         d="m 5416.407,3290.5051 c -0.042,-26.9935 -44.6825,-48.9365 -99.98,-49.1456 H 1031.1166 c -54.76352,0.2091 -99.40244,22.1521 -98.91636,49.1456 v 1295.038 c -0.48608,27.2548 44.15284,49.1978 98.91636,49.1454 H 5316.427 c 55.2975,0.053 99.9374,-21.8906 99.98,-49.1454 v -1295.038"
         inkscape:connector-curvature="0"
         id="path16"
         style="fill:#ffffff" /><path
         d="m 4616.0771,4255.1926 45,-6 c 48.68,-6.59 77.4,-40.2 77,-83 0.4,-55.31 -45.67,-93.8 -111,-94 -57.17,0.2 -95.66,14.3 -132,51 l 54,47 c 22.45,-22.45 47.39,-35.46 74,-35 21.63,-0.46 38.97,8.75 39,23 -0.03,11.23 -11.41,22.07 -34,26 l -48,10 c -42.15,7.75 -67.09,39.73 -67,77 -0.09,55.42 42.73,90.65 113,91 38.68,-0.35 71.21,-6.85 109,-41 l -46,-49 c -19.44,21.9 -39.49,28.95 -64,29 -21.57,-0.05 -36.2,-11.98 -36,-26 -0.2,-8.75 4.68,-16.87 27,-20"
         inkscape:connector-curvature="0"
         id="path64" /><g
         id="g3163"
         transform="translate(655.17471,-89.33346)"><path
           id="path72"
           inkscape:connector-curvature="0"
           d="m 2503.2207,4256.7701 44,-47 c -35.13,-32.45 -58.43,-46 -108,-46 -85.4,0 -137.44,62.87 -137,147 -0.44,74.69 47.8,140.28 122,140 80.83,0.28 130.7,-59.89 131,-150 v -19 h -181 c 1.28,-31.28 30.01,-54.04 66,-54 20.92,-0.04 32.3,3.21 63,29" /><path
           style="fill:#ffffff"
           id="path74"
           inkscape:connector-curvature="0"
           d="m 2374.2207,4337.7701 h 111 c -1.85,27.09 -28.96,51.49 -56,51 -27.7,0.49 -51.01,-21.2 -55,-51" /></g><g
         id="g3167"
         transform="translate(116.82491,2624.6373)"><path
           id="path78"
           inkscape:connector-curvature="0"
           d="m 4279.3231,1540.8962 44,-48 c -35.11,-31.53 -58.41,-45.08 -108,-45 -85.38,-0.08 -137.42,62.8 -137,147 -0.42,74.62 47.82,140.21 122,140 80.85,0.21 130.71,-59.96 131,-150 v -19 h -181 c 1.3,-31.35 30.03,-54.12 66,-54 20.94,-0.12 32.32,3.14 63,29" /><path
           style="fill:#ffffff"
           id="path80"
           inkscape:connector-curvature="0"
           d="m 4150.3231,1621.8962 h 111 c -1.83,27.02 -28.94,51.41 -56,51 -27.68,0.41 -50.99,-21.27 -55,-51" /></g><path
         d="m 1375.5164,3640.9515 -86,128 h 81 l 45,-67 41,67 h 85 l -84,-128 96,-146 h -82 l -56,83 -54,-83 h -82 l 96,146"
         inkscape:connector-curvature="0"
         id="path82" /><path
         d="m 1586.5164,3628.9515 c -0.36,85.96 44.63,147.75 133,148 52.02,-0.25 103.51,-34.4 122,-90 l -70,-27 c -9.2,30.56 -27.63,50.62 -56,51 -37.75,-0.38 -52.93,-37.24 -53,-82 0.07,-47.93 14.16,-79.37 54,-79 27.92,-0.37 42.55,14.81 55,50 l 73,-27 c -24.74,-61.86 -62.14,-88.41 -127,-88 -86.37,-0.41 -131.36,56.5 -131,144"
         inkscape:connector-curvature="0"
         id="path84" /><path
         d="m 2082.5164,3581.9515 44,-48 c -35.04,-31.53 -58.35,-45.08 -108,-45 -85.32,-0.08 -137.36,62.8 -137,147 -0.36,74.62 47.89,140.21 122,140 80.91,0.21 130.78,-59.96 131,-150 v -19 h -181 c 1.36,-31.35 30.09,-54.12 66,-54 21,-0.12 32.39,3.14 63,29"
         inkscape:connector-curvature="0"
         id="path86" /><path
         d="m 1953.5164,3662.9515 h 111 c -1.77,27.02 -28.87,51.41 -56,51 -27.62,0.41 -50.93,-21.27 -55,-51"
         inkscape:connector-curvature="0"
         id="path88"
         style="fill:#ffffff" /><path
         d="m 2460.5164,3629.9515 c 0.19,-82 -46.43,-139.99 -117,-140 -37.84,0.01 -43.25,3.8 -77,25 v -101 h -72 v 357 h 72 v -14 c 23.45,18.66 38.08,26.8 70,27 81.37,-0.2 124.19,-61.46 124,-154"
         inkscape:connector-curvature="0"
         id="path90" /><path
         d="m 2266.5164,3607.9515 c 0.14,-28.55 32.12,-53.49 61,-53 41.59,-0.49 57.3,32.04 57,80 0.3,51.77 -15.41,82.13 -60,82 -52.98,0.13 -57.86,-47.04 -58,-66 v -43"
         inkscape:connector-curvature="0"
         id="path92"
         style="fill:#ffffff" /><path
         d="m 2544.5164,3705.9515 h -43 v 63 h 43 v 86 l 75,21 v -107 h 70 v -63 h -68 v -123 c -0.5,-27.95 9.8,-30.66 21,-31 10.48,0.34 18.62,2.51 40,7 l 17,-61 c -34.05,-9.62 -64.95,-12.87 -85,-13 -26.02,0.13 -69.92,13.68 -70,65 v 156"
         inkscape:connector-curvature="0"
         id="path94" /><path
         d="m 2972.5164,3770.9515 h 54 v -64 h -54 v -210 h -73 v 210 h -43 v 64 h 43 v 33 c 0.04,42.13 27.14,74.11 72,74 18.02,0.11 53.79,-3.14 72,-6 l -13,-61 c -20.93,-0.1 -28,0 -28,0 -21.66,-0.1 -29.79,-0.1 -30,-27 v -13"
         inkscape:connector-curvature="0"
         id="path96" /><path
         d="m 3074.5164,3628.9515 c 0.35,110.89 65.4,151.54 130,152 59.52,-0.46 133.24,-41.11 133,-152 0.24,-82.08 -53.42,-143.87 -129,-144 -82.7,0.13 -133.65,57.04 -134,144"
         inkscape:connector-curvature="0"
         id="path98" /><path
         d="m 3263.5164,3628.9515 c -0.02,64.27 -22.24,84.33 -55,84 -40.96,0.33 -57.76,-33.28 -58,-84 0.24,-44.68 21.92,-78.29 58,-78 36.01,-0.29 54.98,33.32 55,78"
         inkscape:connector-curvature="0"
         id="path100"
         style="fill:#ffffff" /><path
         d="m 3477.5164,3742.9515 c 16.64,21.28 44.29,31.58 72,32 4.27,-0.42 7.52,-0.42 14,-1 v -71 c -23.82,-1.05 -31,-1 -31,-1 -30.77,-1.14 -56.24,-22.82 -56,-67 v -140 h -73 v 276 h 73 l 1,-28"
         inkscape:connector-curvature="0"
         id="path102" /><path
         d="m 3783.2738,3485.0668 c -59.94,0.22 -95.17,33.83 -95,86 -0.17,47.02 28.02,96.35 160,96 v 16 c 0.28,15.79 -15.98,26.09 -41,26 -21.06,0.09 -56.83,-12.38 -83,-28 l -35,54 c 19.43,14.2 66.59,40.76 117,41 76.43,-0.24 115.99,-29.51 116,-83 v -114 c -0.01,-24.4 6.5,-31.45 32,-36 l -26,-57 c -12.51,-0.24 -48.83,4.64 -67,28 -24.65,-23.36 -47.41,-28.78 -78,-29"
         inkscape:connector-curvature="0"
         id="path104" /><path
         d="m 3807.2738,3546.0668 c 29.89,0.47 43.45,9.14 43,32 v 35 l -55,-9 c -24.78,-3.32 -29.66,-16.33 -30,-32 0.34,-17.4 11.18,-25.53 42,-26"
         inkscape:connector-curvature="0"
         id="path106"
         style="fill:#ffffff" /><path
         d="m 3984.2738,3627.0668 c 0.08,85.88 45.07,147.67 133,148 52.46,-0.33 103.96,-34.48 123,-90 l -71,-27 c -8.75,30.49 -27.18,50.54 -55,51 -38.31,-0.46 -53.49,-37.32 -53,-82 -0.49,-48 13.61,-79.45 54,-79 27.36,-0.45 42,14.73 54,49 l 73,-26 c -24.3,-61.93 -61.7,-88.49 -126,-88 -86.93,-0.49 -131.92,56.43 -132,144"
         inkscape:connector-curvature="0"
         id="path108" /><path
         d="m 4279.2738,3627.0668 c -0.45,85.88 44.54,147.67 133,148 51.93,-0.33 103.42,-34.48 122,-90 l -70,-27 c -9.29,30.49 -27.72,50.54 -56,51 -37.85,-0.46 -53.03,-37.32 -53,-82 -0.03,-48 14.07,-79.45 54,-79 27.82,-0.45 42.46,14.73 55,49 l 73,-26 c -24.83,-61.93 -62.23,-88.49 -127,-88 -86.46,-0.49 -131.45,56.43 -131,144"
         inkscape:connector-curvature="0"
         id="path110" /><path
         d="m 4775.2738,3580.0668 44,-48 c -35.14,-31.6 -58.45,-45.15 -108,-45 -85.41,-0.15 -137.45,62.72 -137,147 -0.45,74.54 47.79,140.13 122,140 80.82,0.13 130.68,-60.04 131,-150 v -19 h -181 c 1.27,-31.43 30,-54.19 66,-54 20.91,-0.19 32.29,3.06 63,29"
         inkscape:connector-curvature="0"
         id="path112" /><path
         d="m 4641.6496,3651.8183 h 111 c -1.87,26.95 -28.97,51.34 -56,51 -27.71,0.34 -51.02,-21.34 -55,-51"
         inkscape:connector-curvature="0"
         id="path114"
         style="fill:#ffffff" /><path
         d="m 4984.2738,3666.0668 46,-6 c 47.75,-6.75 76.48,-40.35 76,-83 0.48,-55.46 -45.59,-93.95 -111,-94 -57.1,0.05 -95.58,14.14 -132,50 l 54,48 c 22.53,-22.6 47.46,-35.61 74,-36 21.7,0.39 39.05,9.6 39,24 0.05,11.08 -11.33,21.92 -34,26 l -48,9 c -42.08,8.6 -67.01,40.58 -67,78 -0.01,55.27 42.81,90.5 113,91 38.76,-0.5 71.28,-7 109,-41 l -46,-49 c -19.36,21.75 -39.42,28.8 -64,29 -21.49,-0.2 -36.13,-12.13 -36,-26 -0.13,-8.89 4.75,-17.03 27,-20"
         inkscape:connector-curvature="0"
         id="path116" /><path
         d="m 5257.2738,3666.0668 46,-6 c 48.17,-6.75 76.9,-40.35 77,-83 -0.1,-55.46 -46.18,-93.95 -112,-94 -56.68,0.05 -95.16,14.14 -131,50 l 54,48 c 21.95,-22.6 46.88,-35.61 73,-36 22.13,0.39 39.47,9.6 39,24 0.47,11.08 -10.91,21.92 -34,26 l -47,9 c -42.66,8.6 -67.59,40.58 -68,78 0.41,55.27 43.23,90.5 114,91 38.18,-0.5 70.7,-7 109,-41 l -47,-49 c -18.94,21.75 -39,28.8 -64,29 -21.07,-0.2 -35.71,-12.13 -36,-26 0.29,-8.89 5.17,-17.03 27,-20"
         inkscape:connector-curvature="0"
         id="path118" /><g
         transform="matrix(1,0,0,-1,240,48)"
         style="font-size:566.70410156px;font-style:normal;font-variant:normal;font-weight:normal;font-stretch:normal;line-height:125%;letter-spacing:0px;word-spacing:0px;fill:#000000;fill-opacity:1;stroke:none;font-family:Transport;-inkscape-font-specification:Transport"
         id="text3121"><path
           d="m 1576.349,-4451.1898 81.9064,0 4.4274,7.7479 2.2137,2.2137 4.4274,7.7479 c 1.4756,2.0297 2.7669,4.0128 3.8739,5.9493 1.1067,1.9374 2.0291,3.6438 2.7671,5.1192 l 2.2137,1.1068 1.1069,2.2137 9.9616,15.4958 8.8547,13.2821 c 0.7377,0.5539 1.1067,1.1073 1.1069,1.6603 l 0,0.5534 c 5.534,6.0881 9.2234,11.6223 11.0684,16.6027 2.5824,2.7675 4.75,5.4424 6.5027,8.0246 1.7523,2.583 3.2742,5.0734 4.5657,7.4712 l 4.4274,5.5342 3.3205,6.6411 2.2137,3.3205 2.2137,2.2137 4.4274,7.7479 2.2137,2.2137 7.7479,12.1753 8.8547,13.2821 7.7479,11.0684 2.2137,2.2137 2.2137,3.3206 1.1069,3.3205 2.2137,3.3205 2.2136,2.2137 4.4274,7.7479 2.2137,2.2137 7.7479,12.1753 1.1069,2.2137 2.2136,3.3205 c 0.7376,0.5537 1.1066,1.1071 1.1069,1.6603 l 0,0.5534 c 1.8444,2.0295 3.5047,3.9665 4.9808,5.8109 1.4755,1.845 2.7668,3.5975 3.8739,5.2575 l 3.3206,5.5343 2.2137,4.4273 c 3.8736,4.0587 6.4562,8.1171 7.7479,12.1753 l 4.4273,6.6411 c 2.2134,1.6605 4.0581,3.8742 5.5343,6.641 l 4.4273,6.6411 c 1.8444,2.5829 3.3664,4.981 4.5658,7.1945 1.1987,2.2139 2.2594,4.2431 3.1821,6.0876 1.291,0.9226 2.0289,2.0295 2.2137,3.3206 l 3.3206,2.2137 1.1068,3.3205 2.2137,2.2137 2.2137,3.3205 1.1068,3.3205 c 5.7184,6.6413 9.7768,12.1755 12.1753,16.6027 l 0,-304.3821 73.0517,0 0,423.9212 -81.9064,0 -4.4274,-7.7479 -2.2137,-2.2136 -1.1068,-3.3206 c -5.7191,-6.641 -9.7775,-12.1752 -12.1753,-16.6026 l -1.1069,-2.2137 c -2.7674,-3.6894 -5.1656,-7.1022 -7.1945,-10.2383 -2.0295,-3.136 -3.6898,-5.9953 -4.9808,-8.5781 l -5.5342,-6.641 -11.0684,-16.6027 -1.1069,-2.2137 -2.2136,-2.2137 -4.4274,-7.7479 c -1.4761,-2.029 -2.7674,-4.0121 -3.874,-5.9493 -1.1071,-1.9368 -2.0295,-3.6432 -2.7671,-5.1191 -3.8742,-3.8738 -6.4569,-7.1943 -7.7479,-9.9616 -2.7674,-4.2427 -4.6121,-7.5633 -5.5342,-9.9616 -1.2916,-0.7377 -2.0295,-1.4756 -2.2137,-2.2137 l -2.2137,-2.2137 -1.1068,-3.3205 -2.2137,-2.2137 -1.1069,-3.3205 c -2.0294,-2.0291 -3.7819,-3.9199 -5.2575,-5.6726 -1.476,-1.7523 -2.6751,-3.5509 -3.5972,-5.3959 l -14.389,-21.03 -2.2137,-5.5342 c -4.6121,-4.2427 -7.5636,-8.6701 -8.8547,-13.2822 -5.5345,-6.0874 -9.2239,-11.6216 -11.0685,-16.6026 l -4.4273,-4.4274 -2.2137,-5.5342 -5.5343,-5.5342 -3.3205,-6.6411 -3.3205,-4.4274 c -1.476,-2.0289 -2.7673,-4.012 -3.874,-5.9493 -1.107,-1.9366 -2.0294,-3.643 -2.7671,-5.1191 l -4.4274,-6.6411 c -1.2915,-0.7376 -2.0294,-1.4755 -2.2136,-2.2137 l -7.748,-11.0684 c -1.8449,-2.5823 -3.3668,-4.9805 -4.5657,-7.1945 -1.1992,-2.2134 -2.26,-4.2426 -3.1822,-6.0876 l -3.3205,-3.3206 -1.1068,-3.3205 -3.3206,-3.3205 -1.1068,-3.3206 c -1.2915,-0.7375 -2.0294,-1.4754 -2.2137,-2.2136 -0.3691,-0.3686 -0.6458,-0.6915 -0.8301,-0.9685 -0.1847,-0.2764 -0.2769,-0.5992 -0.2767,-0.9685 l 0,-0.2767 c -5.7189,-6.6407 -9.7773,-12.175 -12.1753,-16.6027 l 0,303.2752 -73.0517,0 z"
           id="path3172"
           inkscape:connector-curvature="0" /></g><g
         transform="matrix(1,0,0,-1,240,48)"
         style="font-size:566.70410156px;font-style:normal;font-variant:normal;font-weight:normal;font-stretch:normal;line-height:125%;letter-spacing:0px;word-spacing:0px;fill:#000000;fill-opacity:1;stroke:none;font-family:Transport;-inkscape-font-specification:Transport"
         id="text3125"><path
           d="m 2284.0902,-4270.6051 c 12.7284,30.4385 19.0927,60.4155 19.093,89.9311 -3e-4,18.0786 -2.3062,35.6958 -6.9177,52.8517 -12.729,54.9734 -44.8275,89.2855 -96.2955,102.9365 -7.5636,2.0293 -14.9426,3.459 -22.1369,4.2891 -7.1946,0.8301 -14.2969,1.3374 -21.3067,1.5219 -27.3023,0 -52.2985,-7.4712 -74.9887,-22.4136 -42.6135,-29.7002 -65.1193,-69.1776 -67.5175,-118.4323 -0.1845,-2.5825 -0.2767,-5.119 -0.2767,-7.6096 0,-2.4902 0,-4.9345 0,-7.3328 0,-92.2367 42.1523,-147.7633 126.457,-166.58 1.6601,-0.1841 3.3203,-0.2764 4.9808,-0.2767 1.6601,3e-4 3.3203,3e-4 4.9808,0 59.7693,3e-4 104.412,23.7052 133.9281,71.1147 z m -201.4456,105.1502 c 6.0875,49.4391 31.1759,76.3723 75.2654,80.7996 45.1959,-4.2428 70.2843,-27.8555 75.2653,-70.8381 0.7377,-5.534 1.3834,-10.8837 1.937,-16.0492 0.5532,-5.1651 0.7377,-10.1458 0.5534,-14.9424 -2e-4,-55.8953 -27.7635,-85.7801 -83.29,-89.6543 -47.0409,11.6221 -70.5614,42.8904 -70.5613,93.805 -1e-4,5.3499 0.2767,10.9764 0.8302,16.8794 z"
           id="path3178"
           inkscape:connector-curvature="0" /></g><g
         transform="matrix(1,0,0,-1,240,48)"
         style="font-size:566.70410156px;font-style:normal;font-variant:normal;font-weight:normal;font-stretch:normal;line-height:125%;letter-spacing:0px;word-spacing:0px;fill:#000000;fill-opacity:1;stroke:none;font-family:Transport;-inkscape-font-specification:Transport"
         id="text3129"><path
           d="m 2410.6627,-4330.1046 70.838,0 0,4.4273 2.2137,3.3206 0,3.3205 c 2.767,5.3501 4.6118,10.1464 5.5342,14.389 l 0,3.3205 c 2.2136,4.0588 3.6894,8.1172 4.4274,12.1753 l 1.1068,3.3205 c 2.0292,4.7966 3.136,8.8551 3.3206,12.1753 3.1359,6.8258 5.3496,12.729 6.641,17.7095 l 1.1069,6.6411 c 2.9515,5.7189 4.7962,10.8842 5.5342,15.4958 l 1.1068,5.5342 3.3206,6.6411 2.2137,7.7479 1.1068,2.2137 1.1069,3.3205 2.2136,11.0684 c 2.2136,3.5053 3.3205,6.8258 3.3206,9.9616 l 5.5342,14.389 0,3.3205 2.2137,3.3206 1.1068,7.7479 c 0.7378,0.9225 1.1067,2.0294 1.1069,3.3205 l 2.2137,4.4274 2.2136,8.8547 c 0.7378,0.5536 1.1068,1.107 1.1069,1.6603 l 0,0.5534 c 1.2912,6.0878 3.5049,11.2531 6.6411,15.4958 l 3.3205,-13.2821 3.3205,-9.9616 1.1069,-4.4274 3.3205,-7.7479 5.5342,-19.9232 4.4274,-13.2821 5.5342,-15.4958 c 1.2912,-6.8253 3.1359,-12.7285 5.5342,-17.7095 l 4.4274,-15.4958 1.1068,-4.4274 2.2137,-3.3205 2.2137,-7.7479 1.1069,-2.2137 4.4273,-17.7095 2.2137,-3.3206 0,-3.3205 1.1069,-2.2137 6.641,-21.03 1.1069,-4.4274 c 1.4756,-3.5047 2.6746,-6.6868 3.5972,-9.5465 0.9222,-2.859 1.5678,-5.58 1.937,-8.163 l 5.5342,-1.1068 66.4107,0 -2.2137,8.8547 c -1.6606,3.6898 -2.7674,6.6414 -3.3206,8.8548 l -4.4273,13.2821 -1.1069,4.4274 -1.1068,3.3205 -1.1069,4.4274 -3.3205,7.7479 -5.5342,19.9232 c -0.9226,2.0295 -1.7989,4.0587 -2.6288,6.0876 -0.8304,2.0295 -1.4299,4.0587 -1.7986,6.0876 l -5.5342,18.8164 -2.2137,6.6411 -1.1068,2.2136 c -2.214,8.4861 -4.4277,15.1272 -6.6411,19.9232 l -2.2137,7.7479 -1.1068,3.3206 -1.1069,4.4274 -3.3205,9.9615 -1.1069,4.4274 -8.8547,27.6711 -1.1069,2.2137 c -2.2139,8.486 -4.4276,15.127 -6.641,19.9232 l -1.1069,6.6411 -2.2137,3.3205 -1.1068,6.6411 -3.3205,9.9616 -5.5343,14.3889 -1.1068,6.6411 -6.6411,18.8163 -7.7479,24.3506 -81.9064,0 -2.2137,-8.8547 c -2.2138,-4.0584 -3.6896,-8.1168 -4.4274,-12.1753 l -1.1068,-3.3206 c -1.107,-3.8738 -2.2138,-6.8254 -3.3206,-8.8547 l 0,-3.3205 -3.3205,-7.748 0,-3.3205 c -2.0293,-3.1359 -3.1361,-6.0875 -3.3205,-8.8547 l -2.2137,-7.7479 c -2.9517,-7.0099 -5.1654,-13.282 -6.6411,-18.8164 l -2.2137,-8.8547 c -0.7379,-0.9223 -1.1069,-2.0291 -1.1068,-3.3206 l -6.6411,-17.7095 0,-3.3205 c -2.7671,-5.3496 -4.2429,-10.1459 -4.4273,-14.389 -0.738,-0.9222 -1.1069,-2.029 -1.1069,-3.3205 -1.2914,-2.5824 -2.3982,-4.9806 -3.3205,-7.1945 -0.9224,-2.2135 -1.6603,-4.2427 -2.2137,-6.0876 l -1.1069,-7.7479 c -1.2913,-2.398 -2.0292,-4.6117 -2.2136,-6.6411 -0.738,-0.9222 -1.1069,-2.029 -1.1069,-3.3205 -0.369,-0.3688 -0.6457,-0.6916 -0.8301,-0.9685 -0.1845,-0.2765 -0.2768,-0.5993 -0.2767,-0.9685 l 0,-0.2767 c -4.0585,-9.5924 -6.6411,-18.0782 -7.7479,-25.4574 -1.2914,-2.2135 -2.0293,-4.0582 -2.2137,-5.5343 l -2.2137,-4.4273 -4.4274,-17.7095 -2.2137,-4.4274 -4.4274,-15.4958 -2.2136,-4.4274 -1.1069,-4.4274 c -0.369,-1.8444 -0.8763,-3.5047 -1.5219,-4.9808 -0.6457,-1.4755 -1.2452,-2.7668 -1.7986,-3.8739 l 0,-4.4274 c -0.7379,-0.9221 -1.1069,-2.0289 -1.1069,-3.3205 -1.2913,-2.5823 -2.3981,-4.9805 -3.3205,-7.1945 -0.9224,-2.2134 -1.6603,-4.2426 -2.2137,-6.0877 l 0,-3.3205 c -3.505,-6.8252 -5.3497,-13.0973 -5.5342,-18.8163 z"
           id="path3181"
           inkscape:connector-curvature="0" /></g><g
         transform="matrix(1,0,0,-1,240,48)"
         style="font-size:566.70410156px;font-style:normal;font-variant:normal;font-weight:normal;font-stretch:normal;line-height:125%;letter-spacing:0px;word-spacing:0px;fill:#000000;fill-opacity:1;stroke:none;font-family:Transport;-inkscape-font-specification:Transport"
         id="text3137"><path
           d="m 3024.4845,-4445.6503 67.5175,0 0,143.8898 c 24.166,-21.7676 50.269,-32.6516 78.3092,-32.6519 4.0583,3e-4 8.1628,0.2309 12.3137,0.6917 4.1504,0.4616 8.255,1.1534 12.3136,2.0754 38.5548,9.7774 63.6433,31.9143 75.2654,66.4106 l 1.1068,7.7479 c 0.7376,2.0295 1.1066,4.2432 1.1069,6.6411 l 0,226.903 -67.5175,0 0,-197.0182 -2.2137,-8.8548 0,-3.3205 -3.3205,-7.7479 c -2.9518,-4.4271 -4.7966,-8.1166 -5.5342,-11.0685 -9.7774,-8.6699 -19.7389,-14.5731 -29.8848,-17.7095 -31.5452,0.5538 -54.051,14.2048 -67.5175,40.9533 l 0,3.3205 c -0.9225,2.5829 -1.7987,4.9349 -2.6288,7.0561 -0.8302,2.1217 -1.4297,4.1971 -1.7986,6.226 l 0,188.1635 -67.5175,0 z"
           id="path3184"
           inkscape:connector-curvature="0" /></g><g
         transform="matrix(1,0,0,-1,240,48)"
         style="font-size:566.70410156px;font-style:normal;font-variant:normal;font-weight:normal;font-stretch:normal;line-height:125%;letter-spacing:0px;word-spacing:0px;fill:#000000;fill-opacity:1;stroke:none;font-family:Transport;-inkscape-font-specification:Transport"
         id="text3141"><path
           d="m 3336.1016,-4334.3355 67.5175,0 0,302.1684 -67.5175,0 z m 74.1585,-88.5475 0,3.5973 c -10e-5,15.3117 -4.7964,27.7637 -14.3889,37.3559 -10.1462,4.9812 -19.4621,7.4716 -27.9478,7.4712 -14.758,4e-4 -26.4721,-8.0242 -35.1423,-24.0738 -1.6603,-6.4562 -2.4905,-12.1749 -2.4904,-17.1561 -1e-4,-18.8159 10.4227,-31.5446 31.2683,-38.1861 l 2.7671,0 c 23.4281,5e-4 38.7395,10.331 45.934,30.9916 z"
           id="path3187"
           inkscape:connector-curvature="0" /></g><g
         transform="matrix(1,0,0,-1,240,48)"
         style="font-size:566.70410156px;font-style:normal;font-variant:normal;font-weight:normal;font-stretch:normal;line-height:125%;letter-spacing:0px;word-spacing:0px;fill:#000000;fill-opacity:1;stroke:none;font-family:Transport;-inkscape-font-specification:Transport"
         id="text3145"><path
           d="m 3717.9228,-4252.4897 -12.1753,4.4274 c -2.7674,2.214 -5.719,4.0587 -8.8548,5.5342 l -2.2137,1.1069 -6.641,2.2137 c -2.9519,2.3984 -5.9034,3.8742 -8.8548,4.4273 l -17.7095,9.9616 c -16.0494,-31.3603 -38.9242,-47.0405 -68.6243,-47.0408 -5.1654,3e-4 -10.6996,0.5537 -16.6027,1.6602 l -3.3205,2.2137 -3.3205,1.1069 -12.1753,6.641 c -2.9517,3.5053 -5.7188,6.6414 -8.3013,9.4082 -2.5828,2.7674 -4.9809,5.1655 -7.1945,7.1945 -11.622,23.7974 -17.4329,46.6721 -17.4328,68.6243 -1e-4,23.2439 6.5487,45.7497 19.6465,67.5175 13.8354,17.8941 30.7147,26.8411 50.6381,26.8409 0.9222,2e-4 1.8907,2e-4 2.9054,0 1.0145,2e-4 1.983,-0.092 2.9055,-0.2767 30.0691,-4.7962 50.7301,-20.292 61.9833,-46.4874 l 11.0684,6.6411 4.4274,2.2136 c 4.0582,1.107 7.0097,2.2139 8.8547,3.3206 l 4.4274,2.2137 2.2137,2.2136 24.3506,11.0685 c -29.5161,52.2062 -70.1926,78.3093 -122.0296,78.3092 -4.0586,1e-4 -8.2092,-0.1844 -12.452,-0.5534 -4.243,-0.3689 -8.4859,-0.8301 -12.7287,-1.3836 -66.0417,-13.8355 -103.6744,-55.5265 -112.8981,-125.0733 -1.1068,-9.408 -1.6603,-18.6317 -1.6602,-27.6711 -10e-5,-32.6517 7.5634,-62.1675 22.6903,-88.5476 23.0591,-41.5063 58.4781,-63.6431 106.257,-66.4106 63.2744,1.4762 107.5481,27.6714 132.8213,78.5859 z"
           id="path3190"
           inkscape:connector-curvature="0" /></g><g
         transform="matrix(1,0,0,-1,240,48)"
         style="font-size:566.70410156px;font-style:normal;font-variant:normal;font-weight:normal;font-stretch:normal;line-height:125%;letter-spacing:0px;word-spacing:0px;fill:#000000;fill-opacity:1;stroke:none;font-family:Transport;-inkscape-font-specification:Transport"
         id="text3149"><path
           d="m 3783.0248,-4458.6405 67.5175,0 0,306.5958 c -0.1846,2.3983 -0.2768,4.7043 -0.2767,6.9178 l 0,6.3643 c -1e-4,12.5444 0.83,23.2439 2.4904,32.0985 7.9323,10.1462 20.1076,15.2192 36.5259,15.2191 7.0098,1e-4 15.1267,-1.0145 24.3505,-3.0438 l 0,6.6411 1.1069,3.3205 2.2137,15.4958 0,6.6411 1.1068,2.2137 0,6.641 3.3205,18.8164 c -20.4767,4.9808 -38.7396,7.4712 -54.7887,7.4712 -42.7981,0 -70.2847,-17.6172 -82.4599,-52.8518 -0.1845,-1.8447 -0.3229,-3.5049 -0.4151,-4.9808 -0.092,-1.4757 -0.3228,-2.767 -0.6918,-3.874 z"
           id="path3193"
           inkscape:connector-curvature="0" /></g><path
         style="fill:#000000;fill-rule:evenodd"
         id="path28"
         inkscape:connector-curvature="0"
         d="m 1120.4395,3870.7981 h -123.86 v -380.28 h 257.85 v 70.55 h -184.38 v 85 h 155.55 v 70.59 h -155.55 v 83.51 h 172.86 v 70.63 h -122.47" /></g></g></svg>