<?xml version="1.0" encoding="UTF-8" standalone="no"?>
<!-- Created with Inkscape (http://www.inkscape.org/) -->
<svg xmlns:dc="http://purl.org/dc/elements/1.1/" xmlns:cc="http://creativecommons.org/ns#" xmlns:rdf="http://www.w3.org/1999/02/22-rdf-syntax-ns#" xmlns:svg="http://www.w3.org/2000/svg" xmlns="http://www.w3.org/2000/svg" xmlns:inkscape="http://www.inkscape.org/namespaces/inkscape" version="1.1" width="658.12" height="182.99001" id="svg2" xml:space="preserve"><metadata id="metadata8"><rdf:RDF><cc:Work rdf:about=""><dc:format>image/svg+xml</dc:format><dc:type rdf:resource="http://purl.org/dc/dcmitype/StillImage"/></cc:Work></rdf:RDF></metadata><defs id="defs6"><clipPath id="clipPath20"><path d="M 0,146.41 H 526.5 V 0.01 H 0 v 146.4 z" inkscape:connector-curvature="0" id="path22"/></clipPath></defs><g transform="matrix(1.25,0,0,-1.25,0,183.01)" id="g10"><g transform="translate(0.5,17.126)" id="g12"><path d="m 0,0 c 0,-9.182 7.4441,-16.626 16.626,-16.626 h 456.37 c 3.885,0 7.37,0.198 10.692,2.184 2.981,1.783 5.449,4.694 8.804,10.384 l 0.011,0.02 0.012,0.02 c 8.538,14.842 30.445,52.925 30.786,53.512 1.148,1.968 2.195,4.071 2.195,6.585 0,2.515 -1.047,4.617 -2.195,6.584 -0.341,0.587 -22.248,38.671 -30.786,53.513 l -0.012,0.02 -0.011,0.02 c -3.355,5.69 -5.823,8.601 -8.804,10.383 -3.322,1.987 -6.807,2.185 -10.692,2.185 H 16.626 c -9.1859,0 -16.63,-7.44 -16.63,-16.62 V 0.004" inkscape:connector-curvature="0" id="path14" style="fill:#ffffff"/></g><g id="g16"><g clip-path="url(#clipPath20)" id="g18"><g transform="translate(0.5,17.126)" id="g24"><path d="m 0,0 c 0,-9.182 7.4441,-16.626 16.626,-16.626 h 456.37 c 3.885,0 7.37,0.198 10.692,2.184 2.981,1.783 5.449,4.694 8.804,10.384 l 0.011,0.02 0.012,0.02 c 8.538,14.842 30.445,52.925 30.786,53.512 1.148,1.968 2.195,4.071 2.195,6.585 0,2.515 -1.047,4.617 -2.195,6.584 -0.341,0.587 -22.248,38.671 -30.786,53.513 l -0.012,0.02 -0.011,0.02 c -3.355,5.69 -5.823,8.601 -8.804,10.383 -3.322,1.987 -6.807,2.185 -10.692,2.185 H 16.626 c -9.1859,0 -16.63,-7.44 -16.63,-16.62 V 0.004 z" inkscape:connector-curvature="0" id="path26" style="fill:none;stroke:#713907"/></g></g></g><g transform="translate(9.1338,17.126)" id="g28"><path d="m 0,0 c 0,-4.414 3.578,-7.991 7.992,-7.991 h 456.37 c 5.935,0 7.173,0.037 12.048,8.303 1.185,2.06 30.41,52.868 30.798,53.533 0.641,1.1 0.97,1.653 0.963,2.234 -0.008,0.581 -0.322,1.134 -0.963,2.234 -0.388,0.665 -29.613,51.472 -30.798,53.532 -4.875,8.267 -6.113,8.304 -12.048,8.304 H 7.992 c -4.412,0 -7.99,-3.58 -7.99,-7.99 V -10e-4" inkscape:connector-curvature="0" id="path30" style="fill:#713907"/></g><g transform="translate(504.33,73.205)" id="g32"><path d="m 0,0 c -0.387,-0.664 -31.942,-55.342 -31.942,-55.342 h -25.684 c 0,0 31.555,54.678 31.942,55.342 -0.387,0.664 -31.942,55.342 -31.942,55.342 h 25.684 C -31.942,55.346 -0.387,0.668 0,0.004" inkscape:connector-curvature="0" id="path34" style="fill:#ffffff"/></g><g transform="translate(166.69,120.42)" id="g36"><path d="M 0,0 6.731,-12.919 13.417,0 h 6.279 L 9.306,-18.702 v -12.919 h -5.15 v 12.919 L -6.279,0 H 0" inkscape:connector-curvature="0" id="path38" style="fill:#ffffff"/></g><g transform="translate(187.06,100.09)" id="g40"><path d="m 0,0 c 0,7.092 4.11,12.062 10.841,12.062 6.686,0 10.661,-4.879 10.661,-12.062 0,-7.996 -5.24,-11.88 -10.661,-11.88 C 4.517,-11.88 0,-6.73 0,0" inkscape:connector-curvature="0" id="path42" style="fill:#ffffff"/></g><g transform="translate(203.73,100.09)" id="g44"><path d="m 0,0 c 0,4.337 -2.259,7.228 -5.873,7.228 -3.569,0 -5.692,-2.936 -5.692,-7.228 0,-4.201 2.123,-7.183 5.737,-7.183 C -2.304,-7.183 0,-4.156 0,0" inkscape:connector-curvature="0" id="path46" style="fill:#713907"/></g><g transform="translate(215,95.661)" id="g48"><path d="M 0,0 V 15.495 H 4.924 V 1.039 c 0,-1.355 0.678,-3.93 3.975,-3.93 2.44,0 4.608,2.62 4.608,4.878 v 13.508 h 5.06 V -6.866 h -5.06 v 2.032 C 11.926,-7.544 7.454,-7.544 7.454,-7.544 2.892,-7.544 0,-4.608 0,0" inkscape:connector-curvature="0" id="path50" style="fill:#ffffff"/></g><g transform="translate(243.03,111.38)" id="g52"><path d="M 0,0 V 7.183 L 4.924,9.17 V 0 h 5.827 V -4.065 H 4.924 v -11.61 c 0,-1.807 0.813,-2.575 2.213,-2.575 0,0 2.078,0 3.252,0.497 l 0.407,-4.427 C 8.447,-22.768 5.646,-22.768 5.646,-22.768 1.581,-22.768 0,-20.78 0,-15.901 V -4.065 H -3.975 V 0 H 0" inkscape:connector-curvature="0" id="path54" style="fill:#ffffff"/></g><g transform="translate(277.46,105.06)" id="g56"><path d="M 0,0 V -16.262 H -4.607 V -2.62 c 0,2.349 -1.491,4.653 -3.976,4.653 -3.433,0 -4.788,-2.891 -4.788,-4.653 v -13.642 h -4.924 v 31.666 h 4.924 V 4.247 C -11.88,6.912 -7.77,6.912 -7.77,6.912 -2.304,6.912 0,2.666 0,0" inkscape:connector-curvature="0" id="path58" style="fill:#ffffff"/></g><g transform="translate(319.67,107.86)" id="g60"><path d="m 0,0 v 12.377 h 5.239 v -31.44 H 0 v 14.41 h -14.321 v -14.41 h -5.466 v 31.44 h 5.466 V 0 H 0" inkscape:connector-curvature="0" id="path62" style="fill:#ffffff"/></g><g transform="translate(332.48,100.09)" id="g64"><path d="m 0,0 c 0,7.092 4.111,12.062 10.842,12.062 6.685,0 10.66,-4.879 10.66,-12.062 0,-7.996 -5.239,-11.88 -10.66,-11.88 C 4.518,-11.88 0,-6.73 0,0" inkscape:connector-curvature="0" id="path66" style="fill:#ffffff"/></g><g transform="translate(349.15,100.09)" id="g68"><path d="m 0,0 c 0,4.337 -2.258,7.228 -5.873,7.228 -3.568,0 -5.692,-2.936 -5.692,-7.228 0,-4.201 2.124,-7.183 5.738,-7.183 C -2.304,-7.183 0,-4.156 0,0" inkscape:connector-curvature="0" id="path70" style="fill:#713907"/></g><g transform="translate(363.99,105.15)" id="g72"><path d="m 0,0 c 0,-1.129 1.31,-1.988 3.298,-2.394 4.02,-0.814 3.478,-0.768 4.697,-1.265 2.485,-0.904 3.976,-2.801 3.976,-5.918 0,-3.749 -3.117,-7.318 -8.087,-7.318 -3.433,0 -5.691,0.678 -9.983,4.111 l 3.208,3.207 c 2.213,-2.032 3.93,-2.71 6.143,-2.71 2.394,0 3.704,0.723 3.704,2.394 0,1.671 -0.903,1.671 -5.601,3.027 -5.647,1.626 -6.144,4.607 -6.144,6.776 0,3.117 2.304,7.047 8.809,7.047 0,0 4.743,0 7.815,-3.253 L 9.125,0.271 C 6.821,2.575 3.93,2.575 3.93,2.575 1.581,2.575 0,1.491 0,0" inkscape:connector-curvature="0" id="path74" style="fill:#ffffff"/></g><g transform="translate(384.09,111.38)" id="g76"><path d="M 0,0 V 7.183 L 4.924,9.17 V 0 h 5.827 V -4.065 H 4.924 v -11.61 c 0,-1.807 0.813,-2.575 2.213,-2.575 0,0 2.078,0 3.253,0.497 l 0.406,-4.427 C 8.447,-22.768 5.646,-22.768 5.646,-22.768 1.581,-22.768 0,-20.78 0,-15.901 V -4.065 H -3.976 V 0 H 0" inkscape:connector-curvature="0" id="path78" style="fill:#ffffff"/></g><g transform="translate(398.68,100.13)" id="g80"><path d="m 0,0 c 0,7.092 4.292,11.745 10.616,11.745 6.053,0 9.803,-4.382 9.803,-12.739 V -1.807 H 5.285 c 0.542,-3.433 2.395,-5.24 5.692,-5.24 0,0 3.253,0 5.331,2.214 l 2.981,-3.75 c -3.207,-3.388 -8.221,-3.388 -8.221,-3.388 C 4.156,-11.971 0,-7.409 0,0" inkscape:connector-curvature="0" id="path82" style="fill:#ffffff"/></g><g transform="translate(403.97,102.12)" id="g84"><path d="M 0,0 H 10.119 C 9.939,3.388 8.267,5.466 5.376,5.466 2.575,5.466 0.362,3.795 0,0" inkscape:connector-curvature="0" id="path86" style="fill:#713907"/></g><g transform="translate(431.69,93.176)" id="g88"><path d="M 0,0 C 0,0 0.904,0 2.665,0.316 L 3.252,-4.11 C 1.175,-4.472 -1.22,-4.472 -1.22,-4.472 -5.918,-4.878 -7.047,-2.529 -7.047,2.892 v 24.303 h 4.969 V 3.163 C -2.078,0.813 -1.536,0 0,0" inkscape:connector-curvature="0" id="path90" style="fill:#ffffff"/></g><g transform="translate(216.77,30.455)" id="g92"><path d="m 0,0 v 4.879 l 4.02,2.846 c 7.95,5.601 11.745,8.628 11.745,14.003 0,3.343 -1.581,5.738 -5.195,5.738 -3.524,0 -5.285,-1.717 -5.285,-6.37 V 20.373 H 0.044 c 0.046,2.71 -0.271,3.343 0.227,4.788 1.445,4.157 5.059,7.003 10.209,7.003 7.001,0 10.615,-4.247 10.615,-10.616 0,-6.144 -2.665,-9.713 -12.693,-16.76 H 21.231 V 0 H 0" inkscape:connector-curvature="0" id="path94" style="fill:#ffffff"/></g><g transform="translate(256.55,29.687)" id="g96"><path d="m 0,0 c -7.725,0 -12.287,6.686 -12.287,16.534 0,9.802 4.517,16.804 12.287,16.804 7.318,0 12.784,-6.911 12.784,-16.804 C 12.784,9.487 9.486,0 0,0" inkscape:connector-curvature="0" id="path98" style="fill:#ffffff"/></g><g transform="translate(256.69,34.52)" id="g100"><path d="m 0,0 c 5.059,0 7.092,3.976 7.092,11.701 0,6.911 -2.349,11.88 -7.048,11.88 -4.336,0 -7.046,-4.065 -7.046,-11.88 C -7.002,4.428 -4.97,0 0,0" inkscape:connector-curvature="0" id="path102" style="fill:#713907"/></g><g transform="translate(286.85,29.687)" id="g104"><path d="m 0,0 c -7.724,0 -12.287,6.686 -12.287,16.534 0,9.802 4.517,16.804 12.287,16.804 7.319,0 12.784,-6.911 12.784,-16.804 C 12.784,9.487 9.487,0 0,0" inkscape:connector-curvature="0" id="path106" style="fill:#ffffff"/></g><g transform="translate(286.98,34.52)" id="g108"><path d="m 0,0 c 5.06,0 7.092,3.976 7.092,11.701 0,6.911 -2.349,11.88 -7.047,11.88 -4.337,0 -7.047,-4.065 -7.047,-11.88 C -7.002,4.428 -4.969,0 0,0" inkscape:connector-curvature="0" id="path110" style="fill:#713907"/></g><g transform="translate(332.78,52.996)" id="g112"><path d="m 0,0 -8.763,-26.697 c -1.13,-3.433 -4.744,-3.388 -5.738,-3.388 0,0 -2.077,0 -4.11,0.497 l 0.677,4.11 c 2.44,-0.225 3.298,-0.225 3.298,-0.225 0.497,-0.046 2.936,-0.136 1.581,3.885 L -20.193,0 h 5.376 L -10.119,-15.268 -5.376,0 H 0" inkscape:connector-curvature="0" id="path114" style="fill:#ffffff"/></g><g transform="translate(351.53,32.307)" id="g116"><path d="m 0,0 c -2.575,-2.168 -6.189,-2.168 -6.189,-2.168 -2.439,0 -9.667,2.394 -9.667,11.654 0,6.822 3.84,11.745 9.848,11.745 2.71,0 4.517,-0.722 6.008,-2.439 V 29.814 H 4.969 V -1.852 H 0 V 0" inkscape:connector-curvature="0" id="path118" style="fill:#ffffff"/></g><g transform="translate(351.53,39.941)" id="g120"><path d="m 0,0 v 4.066 c 0,2.62 -2.575,4.924 -5.014,4.924 -3.118,0 -5.692,-3.433 -5.692,-7.002 0,-3.794 2.71,-6.776 5.556,-6.776 C -2.891,-4.788 0,-2.665 0,0" inkscape:connector-curvature="0" id="path122" style="fill:#713907"/></g><g transform="translate(367.74,46.808)" id="g124"><path d="m 0,0 c 0,-1.129 1.31,-1.988 3.298,-2.395 4.021,-0.813 3.479,-0.767 4.698,-1.264 2.485,-0.904 3.975,-2.801 3.975,-5.918 0,-3.75 -3.117,-7.318 -8.086,-7.318 -3.433,0 -5.691,0.678 -9.983,4.111 l 3.207,3.207 c 2.214,-2.033 3.93,-2.711 6.144,-2.711 2.394,0 3.704,0.723 3.704,2.395 0,1.671 -0.904,1.671 -5.601,3.026 -5.647,1.627 -6.144,4.608 -6.144,6.777 0,3.116 2.304,7.047 8.809,7.047 0,0 4.743,0 7.815,-3.253 L 9.125,0.271 C 6.821,2.575 3.93,2.575 3.93,2.575 1.581,2.575 0,1.491 0,0" inkscape:connector-curvature="0" id="path126" style="fill:#ffffff"/></g><g transform="translate(51.983,39.065)" id="g128"><path d="m 0,0 v 14.341 l 18.241,-2.894 -6.793,12.58 4.529,-1.006 -6.29,12.328 4.151,-0.88 -18.744,34.217 -18.744,-34.217 4.151,0.88 -6.29,-12.328 4.529,1.006 -6.793,-12.58 18.241,2.894 V 0 h -18.367 v -5.535 h 114.86 v 39.878 h 5.786 L 55.231,74.473 17.994,34.343 h 5.787 L 23.776,0 H 0" inkscape:connector-curvature="0" id="path130" style="fill:#ffffff"/></g><path d="m 100.04,39.065 h 14.09 V 67.621 H 100.04 V 39.065 z" inkscape:connector-curvature="0" id="path132" style="fill:#713907"/></g></svg>