<?xml version="1.0" encoding="UTF-8" standalone="no"?>
<svg xmlns:dc="http://purl.org/dc/elements/1.1/" xmlns:cc="http://creativecommons.org/ns#" xmlns:rdf="http://www.w3.org/1999/02/22-rdf-syntax-ns#" xmlns:svg="http://www.w3.org/2000/svg" xmlns="http://www.w3.org/2000/svg" xmlns:sodipodi="http://sodipodi.sourceforge.net/DTD/sodipodi-0.dtd" xmlns:inkscape="http://www.inkscape.org/namespaces/inkscape" width="900.39984" height="900.39996" viewBox="-50 -30 90.039894 90.040005" id="svg2" version="1.1" inkscape:version="0.48.4 r9939" sodipodi:docname="AJAX.svg">
  <metadata id="metadata14">
    <rdf:RDF>
      <cc:Work rdf:about="">
        <dc:format>image/svg+xml</dc:format>
        <dc:type rdf:resource="http://purl.org/dc/dcmitype/StillImage"/>
        <dc:title/>
      </cc:Work>
    </rdf:RDF>
  </metadata>
  <defs id="defs12"/>
  <sodipodi:namedview pagecolor="#ffffff" bordercolor="#666666" borderopacity="1" objecttolerance="10" gridtolerance="10" guidetolerance="10" inkscape:pageopacity="0" inkscape:pageshadow="2" inkscape:window-width="1920" inkscape:window-height="1057" id="namedview10" showgrid="false" fit-margin-top="0.2" fit-margin-left="0.2" fit-margin-right="0.2" fit-margin-bottom="0.2" inkscape:zoom="0.90163935" inkscape:cx="673.45388" inkscape:cy="287.17443" inkscape:window-x="-8" inkscape:window-y="-8" inkscape:window-maximized="1" inkscape:current-layer="svg2" showguides="true" inkscape:guide-bbox="true" inkscape:showpageshadow="true" borderlayer="false" showborder="true"/>
  <path sodipodi:nodetypes="sssss" style="fill:#ec1d24;fill-opacity:1;stroke:none" d="m -4.980043,60.020007 c -24.852827,0 -45.000006,-20.147187 -45.000006,-45.000013 0,-24.852798 20.147179,-44.999994 45.000006,-44.999994 24.852804,0 44.999989,20.147196 44.999989,44.999994 0,24.852826 -20.147185,45.000013 -44.999989,45.000013 z" id="path4310" inkscape:connector-curvature="0"/>
  <path inkscape:connector-curvature="0" id="path4312" d="m -4.980046,-20.98 c -19.882258,0 -36.000002,16.117747 -36.000002,36.000013 0,19.88224 16.117744,35.999987 36.000002,35.999987 19.882247,0 35.999997,-16.117747 35.999997,-35.999987 0,-19.882266 -16.11775,-36.000013 -35.999997,-36.000013 z" style="fill:#ffffff;fill-opacity:1;stroke:none" sodipodi:nodetypes="sssss"/>
  <path id="path3822" d="m -25.222607,1.333913 5.817142,0 0,-4.84762 -3.878073,0 c 0,0 -1.116986,-0.0148 -1.228045,0.71099 z" style="fill:#000000;fill-rule:nonzero;stroke:none" inkscape:connector-curvature="0" sodipodi:nodetypes="cccccc"/>
  <path id="path3818" d="m 18.405898,11.028753 0,-18.29166 c 0,0 0.0212,-1.062438 -0.96954,-1.034158 l -30.442998,0 c -0.9823,-0.0282 -0.96968,1.034158 -0.96968,1.034158 l 0,8.59658 -2.00366,0 0,-5.30007 c 0,0 0.0141,-1.10267 -0.90495,-1.09879 l -6.65734,0 c 0,0 -2.098151,-0.1055 -2.520761,2.26222 l -1.0342,5.68787 c 0,0 -1.04724,0.25337 -1.03413,1.42197 -0.0141,0.24639 0.06346,0.51711 0.06346,0.51711 l 1.29271,6.20474 z" style="fill:#000000;fill-rule:nonzero;stroke:none" inkscape:connector-curvature="0" sodipodi:nodetypes="cccccccccccccccc"/>
  <path inkscape:connector-curvature="0" id="path3889" d="m 9.619508,14.906803 c -2.141769,0 -3.878002,-1.73624 -3.878002,-3.878 0,-2.14176 1.736233,-3.87801 3.878002,-3.87801 2.141763,0 3.878003,1.73625 3.878003,3.87801 0,2.14176 -1.73624,3.878 -3.878003,3.878 z" style="fill:#000000;fill-opacity:1;stroke:none" sodipodi:nodetypes="sssss"/>
  <path inkscape:connector-curvature="0" id="path3891" d="m 9.619508,12.932793 c -1.051555,0 -1.904001,-0.85245 -1.904001,-1.904 0,-1.05155 0.852446,-1.904 1.904001,-1.904 1.051553,0 1.904003,0.85245 1.904003,1.904 0,1.05155 -0.85245,1.904 -1.904003,1.904 z" style="fill:#ffffff;fill-opacity:1;stroke:none" sodipodi:nodetypes="sssss"/>
  <path sodipodi:nodetypes="sssss" style="fill:#ffffff;fill-opacity:1;stroke:none" d="m -20.930597,15.358293 c -2.391124,0 -4.329498,-1.93838 -4.329498,-4.3295 0,-2.39111 1.938374,-4.3295 4.329498,-4.3295 2.391117,0 4.329498,1.93839 4.329498,4.3295 0,2.39112 -1.938381,4.3295 -4.329498,4.3295 z" id="path3919" inkscape:connector-curvature="0"/>
  <path inkscape:connector-curvature="0" id="path3921" d="m -20.93062,14.906803 c -2.141768,0 -3.878001,-1.73624 -3.878001,-3.878 0,-2.14176 1.736233,-3.87801 3.878001,-3.87801 2.141761,0 3.878,1.73625 3.878,3.87801 0,2.14176 -1.736239,3.878 -3.878,3.878 z" style="fill:#000000;fill-opacity:1;stroke:none" sodipodi:nodetypes="sssss"/>
  <path inkscape:connector-curvature="0" id="path3923" d="m -20.93062,12.932793 c -1.051554,0 -1.904,-0.85245 -1.904,-1.904 0,-1.05155 0.852446,-1.904 1.904,-1.904 1.051551,0 1.904,0.85245 1.904,1.904 0,1.05155 -0.852449,1.904 -1.904,1.904 z" style="fill:#ffffff;fill-opacity:1;stroke:none" sodipodi:nodetypes="sssss"/>
  <path id="path3953" d="m -25.22305,1.333751 5.817143,0 0,-4.84762 -3.878074,0 c 0,0 -1.116985,-0.0148 -1.228044,0.71099 z" style="fill:#ffffff;fill-rule:nonzero;stroke:none" inkscape:connector-curvature="0" sodipodi:nodetypes="cccccc"/>
  <path sodipodi:nodetypes="ccccc" inkscape:connector-curvature="0" id="path4042" d="m -13.440103,36.167543 -11.984993,0 -1.1e-5,2.42299 11.985011,10e-6 z" style="fill:#000000;fill-opacity:1;stroke:none"/>
  <path style="fill:#000000;fill-opacity:1;stroke:none" d="m -24.449096,33.708005 -3.671,3.671 3.671,3.670998 3.634287,-2e-6 -3.670997,-3.670997 3.670984,-3.670999 z" id="path4044" inkscape:connector-curvature="0" sodipodi:nodetypes="ccccccc"/>
  <path style="fill:#000000;fill-opacity:1;stroke:none" d="m 3.479998,36.167543 11.985003,0 10e-6,2.42299 -11.98502,10e-6 z" id="path4119" inkscape:connector-curvature="0" sodipodi:nodetypes="ccccc"/>
  <path sodipodi:nodetypes="ccccccc" inkscape:connector-curvature="0" id="path4121" d="m 14.488998,33.708005 3.671,3.671 -3.671,3.670998 -3.63429,-2e-6 3.671,-3.670997 -3.67099,-3.670999 z" style="fill:#000000;fill-opacity:1;stroke:none"/>
  <path id="path4647" d="m 11.685516,25.26907 c -0.857355,0.01155 -1.267235,0.641191 -1.271261,1.422612 v 4.328324 H 8.3862659 v -4.267864 c -0.0029,-1.002889 -0.398274,-1.471524 -1.02912,-1.48313 -0.818499,0.01155 -1.316162,0.685075 -1.301535,1.422612 v 4.328325 h -1.96738 v -7.415788 h 1.96738 v 0.544826 c 0.600072,-0.551889 1.009952,-0.756952 1.695026,-0.756706 0.940078,-2.89e-4 1.247549,0.131413 1.997751,0.938314 0.7869871,-0.792023 1.3434181,-0.96783 2.1792831,-0.96859 1.594162,7.18e-4 2.780148,1.464792 2.784733,3.026862 v 4.631053 h -1.997752 v -4.267864 c 0.002,-1.002888 -0.393233,-1.471525 -1.029123,-1.483129" inkscape:connector-curvature="0" style="fill:#000000"/>
  <path id="path5959" inkscape:connector-curvature="0" d="m -24.672286,22.516345 c -0.01,-1.000804 0.22391,-1.877298 0.71259,-2.660367 0.7989,-1.327014 2.01507,-1.827812 3.80052,-1.805246 3.29379,-0.02249 5.02856,2.087913 5.03569,6.318366 -0.006,4.425229 -1.7419,6.642594 -5.17821,6.650908 -1.91093,-0.0082 -3.53844,-0.759312 -4.03805,-2.660363 l 2.37533,-0.855117 c 0.23436,0.556222 0.55623,1.164305 1.75774,1.187662 1.55267,-0.02344 2.55426,-1.328598 2.42283,-2.755376 -0.11877,0.08551 -1.10253,0.92598 -2.70787,0.902623 -2.56139,0.02344 -4.18887,-1.657976 -4.18057,-4.32309" style="fill:#000000"/>
  <path style="fill:#ffffff" id="path5961" inkscape:connector-curvature="0" d="m -22.059436,22.516345 c -0.01,1.198747 0.83019,2.057426 1.94777,2.042779 1.27913,0.01457 2.11958,-0.861847 2.13779,-2.137792 -0.019,-1.263673 -0.85866,-2.121957 -2.09028,-2.137792 -1.18292,0.01583 -2.00557,0.910145 -1.99528,2.232805"/>
  <path id="path5997" inkscape:connector-curvature="0" d="m -8.2834681,23.915482 c -0.0079,-0.836138 0.187072,-1.56842 0.595351,-2.222647 0.667455,-1.108676 1.683521,-1.527076 3.175206,-1.508223 2.751846,-0.01879 4.20119513,1.744382 4.20714913,5.278783 -0.0053,3.697131 -1.45530313,5.549665 -4.32621913,5.556611 -1.59652,-0.0069 -2.956249,-0.63438 -3.373657,-2.222644 l 1.984504,-0.714422 c 0.195805,0.464705 0.464718,0.972738 1.468533,0.992252 1.297204,-0.01958 2.134003,-1.109999 2.024194,-2.302024 -0.09923,0.07144 -0.921127,0.773625 -2.262334,0.754111 -2.139957,0.01958 -3.49966,-1.385184 -3.492727,-3.611797" style="fill:#000000"/>
  <path style="fill:#ffffff" id="path5999" inkscape:connector-curvature="0" d="m -6.1005141,23.915482 c -0.0079,1.001513 0.693597,1.718911 1.627293,1.706673 1.068669,0.01217 1.770839,-0.720044 1.786054,-1.786053 -0.01588,-1.055756 -0.717385,-1.772824 -1.746364,-1.786054 -0.988283,0.01323 -1.675582,0.760396 -1.666983,1.865434"/>
  <path sodipodi:nodetypes="sssss" style="fill:#000000;fill-opacity:1;stroke:none" d="m -11.691866,28.346004 c -0.73841,0 -1.337,0.598596 -1.337,1.337001 0,0.738405 0.59859,1.337 1.337,1.337 0.7384,0 1.337,-0.598595 1.337,-1.337 0,-0.738405 -0.5986,-1.337001 -1.337,-1.337001 z" id="path6035" inkscape:connector-curvature="0"/>
</svg>