<?xml version="1.0" encoding="UTF-8" standalone="no"?>
<!-- Created with Inkscape (http://www.inkscape.org/) -->
<svg xmlns:dc="http://purl.org/dc/elements/1.1/" xmlns:cc="http://creativecommons.org/ns#" xmlns:rdf="http://www.w3.org/1999/02/22-rdf-syntax-ns#" xmlns:svg="http://www.w3.org/2000/svg" xmlns="http://www.w3.org/2000/svg" xmlns:inkscape="http://www.inkscape.org/namespaces/inkscape" version="1.1" width="209.42" height="179.96001" id="svg2" xml:space="preserve"><metadata id="metadata8"><rdf:RDF><cc:Work rdf:about=""><dc:format>image/svg+xml</dc:format><dc:type rdf:resource="http://purl.org/dc/dcmitype/StillImage"/></cc:Work></rdf:RDF></metadata><defs id="defs6"><clipPath id="clipPath20"><path d="M 0.014999,143.97 H 167.555 V 0 H 0.014999 v 143.97 z" inkscape:connector-curvature="0" id="path22"/></clipPath></defs><g transform="matrix(1.25,0,0,-1.25,-0.018749,179.96)" id="g10"><g transform="translate(167.05,9.35)" id="g12"><path d="m 0,0 c 0,-4.888 -3.963,-8.85 -8.851,-8.85 h -148.85 c -4.888,0 -8.851,3.962 -8.851,8.85 v 125.28 c 0,4.889 3.963,8.851 8.851,8.851 H -8.851 C -3.963,134.131 0,130.169 0,125.28 L -10e-4,0" inkscape:connector-curvature="0" id="path14" style="fill:#ffffff"/></g><g id="g16"><g clip-path="url(#clipPath20)" id="g18"><g transform="translate(167.05,9.35)" id="g24"><path d="m 0,0 c 0,-4.888 -3.963,-8.85 -8.851,-8.85 h -148.85 c -4.888,0 -8.851,3.962 -8.851,8.85 v 125.28 c 0,4.889 3.963,8.851 8.851,8.851 H -8.851 C -3.963,134.131 0,130.169 0,125.28 L -10e-4,0 z" inkscape:connector-curvature="0" id="path26" style="fill:none;stroke:#0079c1"/></g></g></g><g transform="translate(162.46,9.35)" id="g28"><path d="m 0,0 c 0,-2.35 -1.906,-4.254 -4.255,-4.254 h -148.85 c -2.35,0 -4.255,1.904 -4.255,4.254 v 125.28 c 0,2.35 1.905,4.255 4.255,4.255 H -4.255 C -1.906,129.535 0,127.63 0,125.28 L -0.005,0" inkscape:connector-curvature="0" id="path30" style="fill:#0079c1"/></g><g transform="translate(17.656,40.299)" id="g32"><path d="m 0,0 h 25.2 v 23.899 h 67.965 c 4.598,0 8.333,-3.735 8.333,-8.333 v -41.065 h 25.2 v 114.6 h -25.2 V 48.036 c 0,-4.599 -3.735,-8.334 -8.333,-8.334 H 25.2 v 23.9 H 0 L -0.002,0" inkscape:connector-curvature="0" id="path34" style="fill:#ffffff"/></g><path d="m 19.356,42.032 h 22 v 60.132 h -22 V 42.032 z" inkscape:connector-curvature="0" id="path36" style="fill:#ec1d24"/></g></svg>