<?xml version="1.0" encoding="UTF-8" standalone="no"?>
<!-- Created with Inkscape (http://www.inkscape.org/) -->

<svg
   xmlns:dc="http://purl.org/dc/elements/1.1/"
   xmlns:cc="http://creativecommons.org/ns#"
   xmlns:rdf="http://www.w3.org/1999/02/22-rdf-syntax-ns#"
   xmlns:svg="http://www.w3.org/2000/svg"
   xmlns="http://www.w3.org/2000/svg"
   xmlns:inkscape="http://www.inkscape.org/namespaces/inkscape"
   version="1.1"
   width="340.88"
   height="340.88"
   id="svg2"
   xml:space="preserve"><defs
     id="defs20" /><metadata
     id="metadata8"><rdf:RDF><cc:Work
         rdf:about=""><dc:format>image/svg+xml</dc:format><dc:type
           rdf:resource="http://purl.org/dc/dcmitype/StillImage" /></cc:Work></rdf:RDF></metadata><g
     transform="matrix(1.25,0,0,-1.25,-208.28,674.78)"
     id="g10"><g
       transform="scale(0.1,0.1)"
       id="g12"><path
         d="m 3030.2,5398.2 c 752.66,0.03 1363,-610.34 1363,-1363 0.03,-753.16 -610.34,-1363.5 -1363,-1364 -753.16,0.47 -1363.5,610.84 -1364,1364 0.47,752.66 610.84,1363 1364,1363"
         inkscape:connector-curvature="0"
         id="path14"
         style="fill:#ec1d24" /><path
         d="m 3030.2,5127.2 c 602.7,-0.49 1091.5,-489.3 1092,-1092 -0.49,-603.2 -489.3,-1092 -1092,-1092 -603.2,0 -1092,488.8 -1092,1092 -0.01,602.7 488.8,1091.5 1092,1092"
         inkscape:connector-curvature="0"
         id="path16"
         style="fill:#ffffff" /><path
         d="m 2536.2,3925.2 c 50.65,0.15 91.68,-40.87 92,-91 -0.32,-51.08 -41.35,-92.11 -92,-92 -50.56,-0.11 -91.58,40.92 -92,92 0.42,50.13 41.44,91.15 92,91"
         inkscape:connector-curvature="0"
         id="path18" /><path
         d="m 3442.2,3925.2 c 51.08,0.15 92.11,-40.87 92,-91 0.11,-51.08 -40.92,-92.11 -92,-92 -50.13,-0.11 -91.15,40.92 -91,92 -0.15,50.13 40.87,91.15 91,91"
         inkscape:connector-curvature="0"
         id="path20" /><path
         d="m 2536.2,3879.2 c 25.22,0.11 45.63,-20.3 46,-45 -0.37,-25.65 -20.78,-46.06 -46,-46 -25.13,-0.06 -45.54,20.35 -46,46 0.46,24.7 20.87,45.11 46,45"
         inkscape:connector-curvature="0"
         id="path22"
         style="fill:#ffffff" /><path
         d="m 3442.2,3879.2 c 25.65,0.11 46.06,-20.3 46,-45 0.06,-25.65 -20.35,-46.06 -46,-46 -24.7,-0.06 -45.11,20.35 -45,46 -0.11,24.7 20.3,45.11 45,45"
         inkscape:connector-curvature="0"
         id="path24"
         style="fill:#ffffff" /><path
         d="m 3553.2,3805.2 c 2.43,9.28 3.66,18.72 4,29 -0.34,62.59 -51.46,113.71 -115,114 -62.59,-0.29 -113.71,-51.41 -114,-114 0.29,-10.23 1.51,-19.77 4,-29 h -685 c 2,9.28 3.23,18.72 3,29 0.23,62.59 -50.89,113.71 -114,114 -63.02,-0.29 -114.14,-51.41 -114,-114 -0.14,-10.23 1.08,-19.77 3,-29 h -247 c -51.81,0.2 -51,54 -51,54 0,0 0.19,160.51 0,180 0.19,20.38 24,22 24,22 l 8,232 c 1.07,44.97 35,40 35,40 h 1636 c 72,0.01 110.38,-69.77 110,-111 v -342 l -387,-75"
         inkscape:connector-curvature="0"
         id="path26" /><path
         d="m 2728.2,4084.2 c 14.03,-0.2 25.18,10.96 25,25 v 108 c 0.18,13.64 -10.97,24.8 -25,25 h -269 c -13.39,-0.2 -24.54,-11.36 -25,-25 v -108 c 0.46,-14.04 11.61,-25.2 25,-25 h 269"
         inkscape:connector-curvature="0"
         id="path28"
         style="fill:#ffffff" /><path
         d="m 2329.2,3861.2 c 13.99,0.35 25.15,11.51 25,25 v 331 c 0.15,13.64 -11.01,24.8 -25,25 h -64 c -13.52,-0.2 -24.68,-11.36 -25,-25 v -331 c 0.32,-13.49 11.48,-24.65 25,-25 h 64"
         inkscape:connector-curvature="0"
         id="path30"
         style="fill:#ffffff" /><path
         d="m 3104.2,4084.2 c 13.82,-0.2 24.98,10.96 25,25 v 108 c -0.02,13.64 -11.18,24.8 -25,25 h -269 c -13.59,-0.2 -24.75,-11.36 -25,-25 v -108 c 0.25,-14.04 11.41,-25.2 25,-25 h 269"
         inkscape:connector-curvature="0"
         id="path32"
         style="fill:#ffffff" /><path
         d="m 3477.2,4084.2 c 14.13,-0.2 25.29,10.96 25,25 v 108 c 0.29,13.64 -10.87,24.8 -25,25 h -269 c -13.29,-0.2 -24.45,-11.36 -24,-25 v -108 c -0.45,-14.04 10.71,-25.2 24,-25 h 269"
         inkscape:connector-curvature="0"
         id="path34"
         style="fill:#ffffff" /><path
         d="m 3848.2,4084.2 c 13.61,-0.2 24.77,10.96 25,25 v 61 c -0.23,40.07 -32.63,71.8 -70,72 h -222 c -13.98,-0.2 -25.14,-11.36 -25,-25 v -108 c -0.14,-14.04 11.02,-25.2 25,-25 h 267"
         inkscape:connector-curvature="0"
         id="path36"
         style="fill:#ffffff" /></g></g></svg>