<?xml version="1.0" encoding="UTF-8" standalone="no"?>
<svg
   xmlns:dc="http://purl.org/dc/elements/1.1/"
   xmlns:cc="http://creativecommons.org/ns#"
   xmlns:rdf="http://www.w3.org/1999/02/22-rdf-syntax-ns#"
   xmlns:svg="http://www.w3.org/2000/svg"
   xmlns="http://www.w3.org/2000/svg"
   xmlns:sodipodi="http://sodipodi.sourceforge.net/DTD/sodipodi-0.dtd"
   xmlns:inkscape="http://www.inkscape.org/namespaces/inkscape"
   viewBox="0 0 490 250"
   height="250"
   width="490"
   xml:space="preserve"
   version="1.1"
   id="svg2"
   inkscape:version="0.92.2 (5c3e80d, 2017-08-06)"
   sodipodi:docname="Traffic_signs_manual-chapter-4-_diagram_503_(2008).svg"><sodipodi:namedview
     pagecolor="#ffffff"
     bordercolor="#666666"
     borderopacity="1"
     objecttolerance="10"
     gridtolerance="10"
     guidetolerance="10"
     inkscape:pageopacity="0"
     inkscape:pageshadow="2"
     inkscape:window-width="1366"
     inkscape:window-height="705"
     id="namedview32"
     showgrid="false"
     inkscape:zoom="0.8563128"
     inkscape:cx="120.48917"
     inkscape:cy="57.455697"
     inkscape:window-x="-8"
     inkscape:window-y="-8"
     inkscape:window-maximized="1"
     inkscape:current-layer="g12"
     inkscape:pagecheckerboard="true" /><metadata
     id="metadata8"><rdf:RDF><cc:Work
         rdf:about=""><dc:format>image/svg+xml</dc:format><dc:type
           rdf:resource="http://purl.org/dc/dcmitype/StillImage" /><dc:title></dc:title></cc:Work></rdf:RDF></metadata><defs
     id="defs6" /><g
     id="g10"
     transform="matrix(1.25,0,0,-1.25,0,250)"><g
       id="g12"
       transform="scale(0.1)"><path
         id="path3456"
         style="fill:#ffffff;fill-opacity:1;fill-rule:evenodd;stroke:none;stroke-width:3.76193976"
         d="M 1960,1999.985 H 239.57815 C 107.27589,1999.985 3.6672e-5,1892.597 3.6672e-5,1760.1376 V 239.82851 C 3.6672e-5,107.38798 107.27589,-4.2614001e-6 239.57815,-4.2614001e-6 H 3680.4144 C 3812.7279,-4.2614001e-6 3920,107.38798 3920,239.82851 V 1760.1376 c 0,132.4594 -107.2721,239.8474 -239.5856,239.8474 H 1960"
         inkscape:connector-curvature="0" /><path
         style="fill:#000000;fill-opacity:1;fill-rule:evenodd;stroke:none;stroke-width:30.09551811"
         d="M 239.5504,2000 C 107.24815,2000 0.02823649,1892.5692 0.02823649,1760.1098 V 239.845 C 0.02823649,107.40446 107.24815,0.01362108 239.5504,0.01362108 h 3440.8474 c 132.3135,0 239.5811,107.39083892 239.5811,239.83137892 v 1520.2648 c 0,132.4594 -107.2676,239.8902 -239.5811,239.8902 H 1959.9741 Z m -0.64611,-120.6214 H 1959.3281 3679.7518 c 66.138,0 119.7902,-53.6935 119.7902,-119.9157 V 239.13923 c 0,-66.22215 -53.6522,-119.91565 -119.7902,-119.91565 H 238.90417 c -66.153,0 -119.79044,53.6935 -119.79044,119.91565 V 1759.4629 c 0,66.2222 53.63744,119.9157 119.79044,119.9157 z"
         id="path20"
         inkscape:connector-curvature="0" /><path
         d="m 2539.337,585.35878 c 0,-20.33261 0,-42.00518 0,-63.6928 0,-25.74135 -23.011,-65.02899 -71.7403,-65.02899 -47.3757,0 -74.4475,40.63888 -74.4475,101.62544 0,59.62026 32.4862,90.7741 73.0939,90.7741 41.9613,0 73.0939,-24.3901 73.0939,-63.67775 z m 0,109.75548 c 0,50.13899 0,100.2742 0,151.76443 27.0718,0 54.1437,0 82.5691,0 0,-149.05818 0,-298.11259 0,-448.50696 -27.0718,0 -54.1437,0 -82.5691,0 0,4.05749 0,8.13004 0,13.53877 0,0 -33.8398,-27.09635 -83.9226,-27.09635 -48.7293,0 -148.8951,42.00518 -148.8951,173.44828 0,132.77929 104.2266,169.37574 143.4807,169.37574 39.2542,0 56.8508,-9.49633 89.337,-32.52391"
         style="fill:#000000;fill-opacity:1;fill-rule:evenodd;stroke:none;stroke-width:3.76193976"
         id="path24"
         inkscape:connector-curvature="0" /><path
         d="m 2669.2818,451.2132 62.2652,54.19271 v 0 c 21.6574,-27.09636 71.7403,-50.13522 94.7513,-50.13522 20.3039,0 40.6078,16.26007 40.6078,32.52014 0,16.26384 -12.1823,24.39387 -23.0111,27.10012 -12.1823,2.71754 -54.1436,13.55382 -62.2652,16.26007 -9.4751,1.3663 -85.2762,14.90883 -85.2762,92.1404 0,79.95664 83.9226,100.2742 134.0055,100.2742 50.0829,0 94.7514,-14.90883 129.9448,-47.43273 v 0 l -52.7901,-56.89896 v 0 c -29.779,27.09636 -51.4364,37.93264 -77.1547,37.93264 -24.3646,0 -43.3149,-10.83628 -43.3149,-29.8026 0,-18.98138 13.5359,-21.68386 21.6575,-24.39011 6.7679,-1.35124 60.9116,-12.20258 73.0939,-16.26007 13.5359,-2.70625 75.8011,-21.68762 75.8011,-96.20166 0,-74.52908 -69.0332,-102.99174 -135.3591,-102.99174 -66.326,0 -131.2984,33.87515 -152.9558,63.69281"
         style="fill:#000000;fill-opacity:1;fill-rule:evenodd;stroke:none;stroke-width:3.76193976"
         id="path26"
         inkscape:connector-curvature="0" /><path
         d="m 2130.5525,346.88151 128.5912,373.97786 h -89.3371 l -63.6187,-197.83839 -63.6188,197.83839 h -89.337 l 106.9337,-307.59386 v 0 c 6.7679,-21.67257 -1.3536,-46.06644 -46.0221,-40.63889 v 0 l -28.4255,4.05749 -9.4751,-71.80778 48.7293,-6.7788 v 0 c 60.9116,-9.48504 92.0442,13.54253 105.5801,48.78398"
         style="fill:#000000;fill-opacity:1;fill-rule:evenodd;stroke:none;stroke-width:3.76193976"
         id="path28"
         inkscape:connector-curvature="0" /><path
         d="m 1589.116,765.57081 c 47.3757,0 94.7514,-28.4476 96.105,-144.98187 1.3536,-115.18303 -41.9613,-151.76443 -96.105,-151.76443 v 0 c -54.1361,0 -97.466,36.5814 -96.0974,151.76443 1.3498,116.53427 48.718,144.98187 96.0974,144.98187 z m 0,84.01036 c 63.6188,0 188.1492,-36.57763 188.1492,-231.69848 0,-193.76961 -117.7624,-233.06854 -188.1492,-233.06854 v 0 c -70.3792,0 -188.1454,39.29893 -188.1454,233.06854 0,195.12085 124.5191,231.69848 188.1454,231.69848"
         style="fill:#000000;fill-opacity:1;fill-rule:evenodd;stroke:none;stroke-width:3.76193976"
         id="path30"
         inkscape:connector-curvature="0" /><path
         d="m 1103.1693,701.89306 9.4902,65.03275 h 196.2669 v 79.95288 h -273.4367 l -37.89299,-230.3623 90.69439,-13.54253 v 0 c 14.8782,20.31756 37.893,37.93264 69.0294,37.93264 32.4899,0 78.5045,-25.74511 78.5045,-86.71662 0,-52.84146 -36.5394,-81.30788 -78.5045,-81.30788 -36.5395,0 -70.3793,29.81766 -78.5008,62.34157 v 0 L 993.52842,512.1847 h 0.015 c 21.64998,-115.16797 152.95588,-121.94677 170.54878,-121.94677 25.7182,0 165.1306,16.26384 165.1306,165.3032 0,155.83697 -124.5342,159.89446 -151.6022,159.89446 -27.0681,0 -50.0829,-4.05749 -74.4513,-13.54253"
         style="fill:#000000;fill-opacity:1;fill-rule:evenodd;stroke:none;stroke-width:3.76193976"
         id="path32"
         inkscape:connector-curvature="0" /><path
         d="M 1697.4033,1647.6797 H 1551.208 v -448.5108 h 303.2119 v 84.0142 h -215.221 v 98.9192 h 182.7348 v 84.0103 h -182.7348 v 97.5529 h 203.0387 v 84.0142 h -74.4475"
         style="fill:#000000;fill-opacity:1;fill-rule:evenodd;stroke:none;stroke-width:3.76193976"
         id="path34"
         inkscape:connector-curvature="0" /><path
         d="m 664.61705,1502.694 82.55778,37.9327 v 0.015 c -28.4179,55.5477 -93.39403,115.168 -185.44199,115.168 -92.02916,0 -211.14518,-67.7503 -211.14518,-227.6448 0,-158.5244 116.39756,-231.6985 211.14518,-231.6985 62.27647,0 104.2378,27.0964 112.35935,32.5202 v -29.8177 h 79.85435 v 256.0924 H 563.09771 v -73.159 h 110.99448 v 0 c 0,-44.7115 -39.25791,-105.698 -112.35935,-105.698 -71.73281,0 -117.74739,63.6928 -117.74739,150.4094 0,85.3654 51.43271,140.9244 113.69414,140.9244 62.26143,0 92.0442,-35.2264 106.93746,-65.0441"
         style="fill:#000000;fill-opacity:1;fill-rule:evenodd;stroke:none;stroke-width:3.76193976"
         id="path36"
         inkscape:connector-curvature="0" /><path
         d="m 893.37395,1200.5239 h 89.32875 v 447.1558 h -89.32875 z"
         style="fill:#000000;fill-opacity:1;fill-rule:evenodd;stroke:none;stroke-width:3.76193976"
         id="path38"
         inkscape:connector-curvature="0" /><path
         d="m 1273.7331,1199.1689 h 50.0866 l 124.5191,448.5108 h -94.7476 l -90.6944,-325.1977 -90.6831,325.1977 h -96.1125 l 125.884,-448.5108 h 41.9651"
         style="fill:#000000;fill-opacity:1;fill-rule:evenodd;stroke:none;stroke-width:3.76193976"
         id="path40"
         inkscape:connector-curvature="0" /><path
         d="m 2937.2928,1360.4146 h -37.9005 l 56.8508,174.8033 58.2044,-174.8033 h -37.9005 z m -10.8287,-79.9378 h -52.7901 l -25.7182,-81.3079 h -92.0442 l 143.4807,448.5108 h 113.7016 l 144.8343,-448.5108 h -92.0442 l -27.0718,81.3079 h -55.4973"
         style="fill:#000000;fill-opacity:1;fill-rule:evenodd;stroke:none;stroke-width:3.76193976"
         id="path42"
         inkscape:connector-curvature="0" /><path
         d="m 2401.2707,1647.6797 h -35.1933 l -60.9116,-299.4526 -69.0332,299.4526 h -94.7514 l 102.873,-447.1558 h 108.2872 l 63.6188,326.5602 66.326,-326.5602 h 108.2873 l 101.5193,447.1558 h -96.1049 l -66.326,-299.4526 -63.6188,299.4526 h -27.0718"
         style="fill:#000000;fill-opacity:1;fill-rule:evenodd;stroke:none;stroke-width:3.76193976"
         id="path44"
         inkscape:connector-curvature="0" /><path
         d="m 3260.8011,1647.6797 h -59.558 l 148.895,-266.9287 v -181.5821 h 87.9834 v 181.5821 l 147.5415,266.9287 h -101.5194 l -89.337,-174.8033 -92.0442,174.8033"
         style="fill:#000000;fill-opacity:1;fill-rule:evenodd;stroke:none;stroke-width:3.76193976"
         id="path46"
         inkscape:connector-curvature="0" /></g></g></svg>