<?xml version="1.0" encoding="UTF-8" standalone="no"?>
<!-- Created with Inkscape (http://www.inkscape.org/) -->

<svg
   xmlns:dc="http://purl.org/dc/elements/1.1/"
   xmlns:cc="http://creativecommons.org/ns#"
   xmlns:rdf="http://www.w3.org/1999/02/22-rdf-syntax-ns#"
   xmlns:svg="http://www.w3.org/2000/svg"
   xmlns="http://www.w3.org/2000/svg"
   xmlns:inkscape="http://www.inkscape.org/namespaces/inkscape"
   version="1.1"
   width="604.34998"
   height="169.71001"
   id="svg2"
   xml:space="preserve"><metadata
     id="metadata8"><rdf:RDF><cc:Work
         rdf:about=""><dc:format>image/svg+xml</dc:format><dc:type
           rdf:resource="http://purl.org/dc/dcmitype/StillImage" /></cc:Work></rdf:RDF></metadata><defs
     id="defs6"><clipPath
       id="clipPath16"><path
         d="M 0,135.78 H 483.48 V 0.01 H 0 v 135.77 z"
         inkscape:connector-curvature="0"
         id="path18" /></clipPath></defs><g
     transform="matrix(1.25,0,0,-1.25,0,169.73)"
     id="g10"><g
       id="g12"><g
         clip-path="url(#clipPath16)"
         id="g14"><g
           transform="translate(483.48,24.939)"
           id="g20"><path
             d="m 0,0 c 0,-13.773 -11.166,-24.939 -24.939,-24.939 h -403.56 c -5.826,0 -11.055,0.297 -16.038,3.277 -4.471,2.673 -8.173,7.04 -13.205,15.574 l -0.017,0.031 -0.018,0.029 c -12.808,22.264 -21.9,38.223 -22.412,39.103 -1.722,2.952 -3.292,6.106 -3.292,9.877 0,3.772 1.57,6.925 3.292,9.877 0.512,0.88 9.604,16.84 22.412,39.103 l 0.018,0.03 0.017,0.03 c 5.032,8.535 8.734,12.902 13.205,15.575 4.983,2.98 10.212,3.277 16.038,3.277 h 403.56 c 13.774,0 24.94,-11.162 24.94,-24.936 V 0.004"
             inkscape:connector-curvature="0"
             id="path22"
             style="fill:#559721" /></g></g></g><g
       transform="translate(59.095,80.949)"
       id="g24"><path
         d="M 0,0 V -33.292 H -6.647 V 0 h -10.852 v 6.022 h 28.35 V 0 H 0"
         inkscape:connector-curvature="0"
         id="path26"
         style="fill:#ffffff" /></g><g
       transform="translate(94.133,88.902)"
       id="g28"><path
         d="m 0,0 c 12.271,0 18.748,-8.806 18.748,-20.907 0,-12.043 -6.023,-21.076 -18.805,-21.076 -11.533,0 -18.634,8.066 -18.634,21.076 C -18.691,-9.09 -12.215,0 0,0"
         inkscape:connector-curvature="0"
         id="path30"
         style="fill:#ffffff" /></g><g
       transform="translate(82.316,68.053)"
       id="g32"><path
         d="m 0,0 c 0,-9.488 3.409,-14.942 11.817,-14.942 8.692,0 11.817,5.909 11.817,14.942 0,9.714 -4.375,14.601 -11.874,14.601 C 3.068,14.601 0,8.635 0,0"
         inkscape:connector-curvature="0"
         id="path34"
         style="fill:#559721" /></g><g
       transform="translate(118.93,87.482)"
       id="g36"><path
         d="M 0,0 H 7.044 L 13.805,-26.248 19.77,0 h 7.841 L 34.03,-26.248 40.336,0 h 6.875 L 38.12,-39.825 h -7.555 l -6.818,29.314 -6.59,-29.314 H 9.601 L 0,0"
         inkscape:connector-curvature="0"
         id="path38"
         style="fill:#ffffff" /></g><g
       transform="translate(175.03,87.198)"
       id="g40"><path
         d="M 0,0 H 7.385 L 26.929,-28.406 V 0 h 6.703 v -39.541 h -7.385 l -19.6,28.292 V -39.541 H 0 V 0"
         inkscape:connector-curvature="0"
         id="path42"
         style="fill:#ffffff" /></g><g
       transform="translate(264.5,71.632)"
       id="g44"><path
         d="M 0,0 V 15.566 H 6.59 V -23.975 H 0 v 18.123 h -18.01 v -18.123 h -6.873 v 39.541 h 6.873 V 0 H 0"
         inkscape:connector-curvature="0"
         id="path46"
         style="fill:#ffffff" /></g><g
       transform="translate(293.46,87.368)"
       id="g48"><path
         d="m 0,0 h 8.237 l 13.294,-39.711 h -6.703 l -2.5,7.384 H -3.863 l -2.387,-7.384 h -7.045 L 0,0"
         inkscape:connector-curvature="0"
         id="path50"
         style="fill:#ffffff" /></g><g
       transform="translate(297.49,79.358)"
       id="g52"><path
         d="M 0,0 -5.851,-18.634 H 6.25 L 0,0"
         inkscape:connector-curvature="0"
         id="path54"
         style="fill:#559721" /></g><g
       transform="translate(346.54,47.657)"
       id="g56"><path
         d="m 0,0 h -22.328 v 39.598 h 6.932 V 6.135 H 0 V 0"
         inkscape:connector-curvature="0"
         id="path58"
         style="fill:#ffffff" /></g><g
       transform="translate(377.01,47.657)"
       id="g60"><path
         d="m 0,0 h -22.328 v 39.598 h 6.931 V 6.135 H 0 V 0"
         inkscape:connector-curvature="0"
         id="path62"
         style="fill:#ffffff" /></g><g
       transform="translate(420.26,101.78)"
       id="g64"><path
         d="m 0,0 c -2.633,1.229 -4.417,3.945 -4.417,7.045 0,4.32 3.503,7.823 7.822,7.823 4.321,0 7.824,-3.503 7.824,-7.823 0,-1.794 -0.6,-3.451 -1.621,-4.768 C 9.449,2.071 8.519,0.537 10.565,0.304 12.609,0.072 18.513,-0.23 22,-3.856 c 7.079,-7.362 11.864,-16.09 13.062,-28.473 0.419,-0.186 1.814,-0.697 1.814,-2.231 0,-1.534 -2.883,-4.835 -6.973,-4.835 -0.992,0 -2.371,0.64 -2.371,2.186 0,0.79 0,1.348 0.232,1.999 0.233,0.65 0.372,2.417 0.372,5.345 0,2.929 -2.882,9.53 -6.973,12.365 0,0 -3.315,-26.585 24.336,-51.517 0,0 -4.301,-7.844 -4.44,-8.124 -0.914,-1.828 -2.793,-2.459 -3.742,-2.649 -0.465,-0.093 -3.51,-0.418 -3.719,-0.441 -0.209,-0.024 -1.231,-0.21 -1.231,0.535 0,0.743 0.282,0.912 0.558,1.068 0.729,0.418 1.706,0.812 2.161,2.696 0,0 1.231,4.579 1.278,5.183 0,0 -13.248,8.437 -22.918,28.659 0,0 -13.689,-15.736 -19.338,-42.79 l -14.921,6.52 c 0,0 -0.558,0.348 -0.558,0.871 0,0.523 0.592,0.767 0.976,0.838 0.383,0.068 8.681,0.905 8.786,0.905 0.105,0 0.523,0.07 0.523,0.488 0,5.895 2.357,15.658 4.288,21.128 0.419,1.185 0.837,2.371 1.325,3.137 6.513,10.235 8.792,17.762 5.648,30.054 0,0 -5.962,-13.737 -21.79,-15.201 0,0 -0.523,-0.733 -1.395,-0.733 -2.022,0 -2.685,5.422 -2.685,6.032 0,1.551 1.36,1.621 1.342,1.621 0.297,0 0.856,0.053 1.343,-0.767 0,0 11.987,3.478 15.398,15.416 1.391,4.867 4.331,9.25 7.624,11.993 C 0.57,-2.113 1.846,-0.862 0,0"
         inkscape:connector-curvature="0"
         id="path66"
         style="fill:#ffffff" /></g></g></svg>