<?xml version="1.0" encoding="UTF-8" standalone="no"?>
<!-- Created with Inkscape (http://www.inkscape.org/) -->

<svg
   xmlns:dc="http://purl.org/dc/elements/1.1/"
   xmlns:cc="http://creativecommons.org/ns#"
   xmlns:rdf="http://www.w3.org/1999/02/22-rdf-syntax-ns#"
   xmlns:svg="http://www.w3.org/2000/svg"
   xmlns="http://www.w3.org/2000/svg"
   xmlns:sodipodi="http://sodipodi.sourceforge.net/DTD/sodipodi-0.dtd"
   xmlns:inkscape="http://www.inkscape.org/namespaces/inkscape"
   version="1.1"
   width="360.26767"
   height="318.20004"
   id="svg2816"
   xml:space="preserve"
   inkscape:version="0.48.4 r9939"
   sodipodi:docname="AJAX.svg"><metadata
     id="metadata81"><rdf:RDF><cc:Work
         rdf:about=""><dc:format>image/svg+xml</dc:format><dc:type
           rdf:resource="http://purl.org/dc/dcmitype/StillImage" /><dc:title></dc:title></cc:Work></rdf:RDF></metadata><sodipodi:namedview
     pagecolor="#ffffff"
     bordercolor="#666666"
     borderopacity="1"
     objecttolerance="10"
     gridtolerance="10"
     guidetolerance="10"
     inkscape:pageopacity="0"
     inkscape:pageshadow="2"
     inkscape:window-width="1920"
     inkscape:window-height="1057"
     id="namedview79"
     showgrid="false"
     fit-margin-top="0.1"
     fit-margin-left="0.1"
     fit-margin-right="0.1"
     fit-margin-bottom="0.1"
     inkscape:zoom="1.4142136"
     inkscape:cx="160.12848"
     inkscape:cy="56.012157"
     inkscape:window-x="-8"
     inkscape:window-y="-8"
     inkscape:window-maximized="1"
     inkscape:current-layer="svg2816"
     showguides="true"
     inkscape:guide-bbox="true" /><defs
     id="defs2820"><clipPath
       id="clipPath2832"><path
         d="m -0.24,595.138 317.48,0 0,-595.276 -317.48,0 0,595.276 z"
         id="path2834"
         inkscape:connector-curvature="0" /></clipPath><clipPath
       id="clipPath2840"><path
         d="m 0.03,595.32 317.46,0 0,-595.32 -317.46,0 0,595.32 z"
         id="path2842"
         inkscape:connector-curvature="0" /></clipPath><clipPath
       id="clipPath2858"><path
         d="m -0.24,595.138 317.48,0 0,-595.276 -317.48,0 0,595.276 z"
         id="path2860"
         inkscape:connector-curvature="0" /></clipPath><clipPath
       id="clipPath2864"><path
         d="m 0.03,595.32 317.46,0 0,-595.32 -317.46,0 0,595.32 z"
         id="path2866"
         inkscape:connector-curvature="0" /></clipPath><clipPath
       id="clipPath3306"><path
         d="m 199.238,472.977 0,-29.74 29.744,0 0,29.74"
         id="path3308"
         inkscape:connector-curvature="0" /></clipPath><clipPath
       id="clipPath3322"><path
         d="m -0.24,595.138 317.48,0 0,-595.276 -317.48,0 0,595.276 z"
         id="path3324"
         inkscape:connector-curvature="0" /></clipPath><clipPath
       id="clipPath3330"><path
         d="m 0.03,595.32 317.46,0 0,-595.32 -317.46,0 0,595.32 z"
         id="path3332"
         inkscape:connector-curvature="0" /></clipPath><clipPath
       id="clipPath3344"><path
         d="m 88.233,387.221 0,-28.335 32.08,0 0,28.335"
         id="path3346"
         inkscape:connector-curvature="0" /></clipPath><clipPath
       id="clipPath3462"><path
         d="m -0.24,595.138 317.48,0 0,-595.276 -317.48,0 0,595.276 z"
         id="path3464"
         inkscape:connector-curvature="0" /></clipPath><clipPath
       id="clipPath3470"><path
         d="m 0.03,595.32 317.46,0 0,-595.32 -317.46,0 0,595.32 z"
         id="path3472"
         inkscape:connector-curvature="0" /></clipPath><clipPath
       id="clipPath3490"><path
         d="m -0.24,595.138 317.48,0 0,-595.276 -317.48,0 0,595.276 z"
         id="path3492"
         inkscape:connector-curvature="0" /></clipPath><clipPath
       id="clipPath3496"><path
         d="m 0.03,595.32 317.46,0 0,-595.32 -317.46,0 0,595.32 z"
         id="path3498"
         inkscape:connector-curvature="0" /></clipPath><clipPath
       id="clipPath3520"><path
         d="m 254.788,326.215 0,-28.309 28.326,0 0,28.309"
         id="path3522"
         inkscape:connector-curvature="0" /></clipPath><clipPath
       id="clipPath3544"><path
         d="m 145.049,326.142 0,-28.333 28.342,0 0,28.333"
         id="path3546"
         inkscape:connector-curvature="0" /></clipPath><clipPath
       id="clipPath3682"><path
         d="m -0.24,595.138 317.48,0 0,-595.276 -317.48,0 0,595.276 z"
         id="path3684"
         inkscape:connector-curvature="0" /></clipPath><clipPath
       id="clipPath3690"><path
         d="m 0.03,595.32 317.46,0 0,-595.32 -317.46,0 0,595.32 z"
         id="path3692"
         inkscape:connector-curvature="0" /></clipPath><clipPath
       id="clipPath3980"><path
         d="m -0.24,595.138 317.48,0 0,-595.276 -317.48,0 0,595.276 z"
         id="path3982"
         inkscape:connector-curvature="0" /></clipPath><clipPath
       id="clipPath3988"><path
         d="m 0.03,595.32 317.46,0 0,-595.32 -317.46,0 0,595.32 z"
         id="path3990"
         inkscape:connector-curvature="0" /></clipPath><clipPath
       id="clipPath4010"><path
         d="m -0.24,595.138 317.48,0 0,-595.276 -317.48,0 0,595.276 z"
         id="path4012"
         inkscape:connector-curvature="0" /></clipPath><clipPath
       id="clipPath4016"><path
         d="m 0.03,595.32 317.46,0 0,-595.32 -317.46,0 0,595.32 z"
         id="path4018"
         inkscape:connector-curvature="0" /></clipPath><clipPath
       id="clipPath4062"><path
         d="m 200.163,177.773 0,-28.284 28.283,0 0,28.284"
         id="path4064"
         inkscape:connector-curvature="0" /></clipPath><clipPath
       id="clipPath4090"><path
         d="m 34.886,177.515 0,-51.632 30.367,0 0,51.632"
         id="path4092"
         inkscape:connector-curvature="0" /></clipPath><clipPath
       id="clipPath4106"><path
         d="m 34.886,177.515 0,-51.632 30.367,0 0,51.632"
         id="path4108"
         inkscape:connector-curvature="0" /></clipPath><clipPath
       id="clipPath4272"><path
         d="m 34.886,177.515 0,-51.632 30.367,0 0,51.632"
         id="path4274"
         inkscape:connector-curvature="0" /></clipPath><clipPath
       id="clipPath4304"><path
         d="m 254.653,176.442 0,-48.167 28.317,0 0,48.167"
         id="path4306"
         inkscape:connector-curvature="0" /></clipPath><clipPath
       id="clipPath4310"><path
         d="m 253.565,177.983 31.181,0 0,-49.183 -31.181,0 0,49.183 z"
         id="path4312"
         inkscape:connector-curvature="0" /></clipPath><clipPath
       id="clipPath4316"><path
         d="m -0.24,595.138 317.48,0 0,-595.276 -317.48,0 0,595.276 z"
         id="path4318"
         inkscape:connector-curvature="0" /></clipPath><clipPath
       id="clipPath4322"><path
         d="m 0.03,595.32 317.46,0 0,-595.32 -317.46,0 0,595.32 z"
         id="path4324"
         inkscape:connector-curvature="0" /></clipPath><clipPath
       id="clipPath4456"><path
         d="m -0.24,595.138 317.48,0 0,-595.276 -317.48,0 0,595.276 z"
         id="path4458"
         inkscape:connector-curvature="0" /></clipPath><clipPath
       id="clipPath4464"><path
         d="m 0.03,595.32 317.46,0 0,-595.32 -317.46,0 0,595.32 z"
         id="path4466"
         inkscape:connector-curvature="0" /></clipPath></defs><path
     style="fill:#ec1d24;fill-opacity:1;fill-rule:evenodd;stroke:none"
     d="m 23.977595,318.10005 c -8.5855,0 -16.45648,-4.5216 -20.6875,-11.90625 -4.25346,-7.37342 -4.25346,-16.47912 0,-23.875 L 159.4463,11.975043 c 4.27596,-7.3733997 12.09806,-11.87498967 20.59376,-11.87498967 0.0312,0 0.0625,-1.2e-4 0.0937,0 0.0312,-1.2e-4 0.0625,0 0.0937,0 8.49572,0 16.31784,4.50157997 20.59375,11.87498967 L 356.97757,282.3188 c 4.25347,7.39588 4.25347,16.50158 0,23.875 -4.23102,7.38465 -12.10199,11.90625 -20.6875,11.90625 z"
     id="path3101"
     inkscape:connector-curvature="0"
     sodipodi:nodetypes="scccscscccss" /><path
     inkscape:connector-curvature="0"
     style="fill:#ffffff;fill-opacity:1;fill-rule:evenodd;stroke:none"
     id="path3121"
     d="m 37.755005,286.28316 284.757825,0 L 180.13381,39.806513 z"
     sodipodi:nodetypes="cccc" /><path
     inkscape:connector-curvature="0"
     style="fill:#000000;fill-rule:nonzero;stroke:none"
     d="m 77.249005,278.48316 0,-5.25 -13.13,0 0,5.25 z"
     id="path3971"
     sodipodi:nodetypes="ccccc" /><path
     sodipodi:nodetypes="ccccc"
     id="path4245"
     d="m 97.149005,278.48316 0,-5.25 -13.13,0 0,5.25 z"
     style="fill:#000000;fill-rule:nonzero;stroke:none"
     inkscape:connector-curvature="0" /><path
     sodipodi:nodetypes="ccccc"
     id="path4247"
     d="m 117.049,278.48316 0,-5.25 -13.12999,0 0,5.25 z"
     style="fill:#000000;fill-rule:nonzero;stroke:none"
     inkscape:connector-curvature="0" /><path
     inkscape:connector-curvature="0"
     style="fill:#000000;fill-rule:nonzero;stroke:none"
     d="m 136.949,278.48316 0,-5.25 -13.13,0 0,5.25 z"
     id="path4249"
     sodipodi:nodetypes="ccccc" /><path
     sodipodi:nodetypes="ccccc"
     id="path4251"
     d="m 156.849,278.48316 0,-5.25 -13.13,0 0,5.25 z"
     style="fill:#000000;fill-rule:nonzero;stroke:none"
     inkscape:connector-curvature="0" /><path
     inkscape:connector-curvature="0"
     style="fill:#000000;fill-rule:nonzero;stroke:none"
     d="m 176.749,278.48316 0,-5.25 -13.12999,0 0,5.25 z"
     id="path4253"
     sodipodi:nodetypes="ccccc" /><path
     inkscape:connector-curvature="0"
     style="fill:#000000;fill-rule:nonzero;stroke:none"
     d="m 196.64901,278.48316 0,-5.25 -13.13,0 0,5.25 z"
     id="path4255"
     sodipodi:nodetypes="ccccc" /><path
     sodipodi:nodetypes="ccccc"
     id="path4257"
     d="m 216.54901,278.48316 0,-5.25 -13.13,0 0,5.25 z"
     style="fill:#000000;fill-rule:nonzero;stroke:none"
     inkscape:connector-curvature="0" /><path
     inkscape:connector-curvature="0"
     style="fill:#000000;fill-rule:nonzero;stroke:none"
     d="m 236.449,278.48316 0,-5.25 -13.13,0 0,5.25 z"
     id="path4259"
     sodipodi:nodetypes="ccccc" /><path
     sodipodi:nodetypes="ccccc"
     id="path4261"
     d="m 256.349,278.48316 0,-5.25 -13.13,0 0,5.25 z"
     style="fill:#000000;fill-rule:nonzero;stroke:none"
     inkscape:connector-curvature="0" /><path
     sodipodi:nodetypes="ccccc"
     id="path4263"
     d="m 276.249,278.48316 0,-5.25 -13.12999,0 0,5.25 z"
     style="fill:#000000;fill-rule:nonzero;stroke:none"
     inkscape:connector-curvature="0" /><path
     inkscape:connector-curvature="0"
     style="fill:#000000;fill-rule:nonzero;stroke:none"
     d="m 296.149,278.48316 0,-5.25 -13.13,0 0,5.25 z"
     id="path4265"
     sodipodi:nodetypes="ccccc" /><path
     sodipodi:nodetypes="ccccc"
     id="path4289"
     d="m 97.149005,236.18316 0,-5.25 -13.13,0 0,5.25 z"
     style="fill:#000000;fill-rule:nonzero;stroke:none"
     inkscape:connector-curvature="0" /><path
     sodipodi:nodetypes="ccccc"
     id="path4315"
     d="m 136.949,236.18316 0,-5.25 -13.13,0 0,5.25 z"
     style="fill:#000000;fill-rule:nonzero;stroke:none"
     inkscape:connector-curvature="0" /><path
     inkscape:connector-curvature="0"
     style="fill:#000000;fill-rule:nonzero;stroke:none"
     d="m 156.849,236.18316 0,-5.25 -13.13,0 0,5.25 z"
     id="path4331"
     sodipodi:nodetypes="ccccc" /><path
     sodipodi:nodetypes="ccccc"
     id="path4333"
     d="m 176.749,236.18316 0,-5.25 -13.12999,0 0,5.25 z"
     style="fill:#000000;fill-rule:nonzero;stroke:none"
     inkscape:connector-curvature="0" /><path
     inkscape:connector-curvature="0"
     style="fill:#000000;fill-rule:nonzero;stroke:none"
     d="m 196.64901,236.18316 0,-5.25 -13.13,0 0,5.25 z"
     id="path4335"
     sodipodi:nodetypes="ccccc" /><path
     inkscape:connector-curvature="0"
     style="fill:#000000;fill-rule:nonzero;stroke:none"
     d="m 236.449,236.18316 0,-5.25 -13.13,0 0,5.25 z"
     id="path4339"
     sodipodi:nodetypes="ccccc" /><path
     sodipodi:nodetypes="ccccc"
     id="path4341"
     d="m 256.349,236.18316 0,-5.25 -13.13,0 0,5.25 z"
     style="fill:#000000;fill-rule:nonzero;stroke:none"
     inkscape:connector-curvature="0" /><path
     inkscape:connector-curvature="0"
     style="fill:#000000;fill-rule:nonzero;stroke:none"
     d="m 276.249,236.18316 0,-5.25 -13.12999,0 0,5.25 z"
     id="path4343"
     sodipodi:nodetypes="ccccc" /><path
     id="path4376"
     d="m 193.72222,104.72637 c 4.81151,-2.44463 8.15231,-7.528793 8.22279,-13.215203 -0.0705,-8.20446 -6.62638,-14.76038 -14.68356,-14.68355 -8.11823,-0.0768 -14.67533,6.47909 -14.68354,14.68355 0.008,3.24296 1.13238,6.34377 2.93671,8.810133 0.40409,0.38425 2.14497,3.25565 -1.76204,3.81773 -3.75076,0.30859 -14.80102,0.87409 -21.43799,7.63545 -13.14003,13.80595 -22.09817,30.14416 -24.37529,53.44873 -0.7491,0.22201 -3.36007,1.17821 -3.23039,4.11139 -0.12968,2.81103 5.26541,8.98869 12.92212,9.10381 1.85835,-0.11512 4.43913,-1.31212 4.40506,-4.11139 0.034,-1.57291 0.034,-2.6172 -0.29367,-3.81773 -0.5427,-1.23577 -0.80348,-4.54251 -0.88101,-9.98482 0.0775,-5.52219 5.47286,-17.87753 13.2152,-23.20001 0,0 6.11776,49.77842 -45.51961,96.32424 0,0 7.9303,14.80925 8.22279,15.2709 1.67944,3.48294 5.19657,4.66467 7.04811,4.99241 0.79503,0.20205 6.49541,0.81053 6.75502,0.88101 0.52273,0.0164 2.43747,0.36533 2.34937,-0.88101 0.088,-1.53884 -0.44168,-1.85483 -0.88101,-2.0557 -1.44134,-0.87279 -3.26997,-1.61049 -4.11198,-4.99241 0,0 -2.31496,-8.71733 -2.34937,-9.98482 0,0 24.74649,-15.65737 42.87657,-53.44826 0,0 25.5952,29.39425 36.12156,80.17234 l 27.89817,-12.33419 c 0,0 1.12417,-0.65782 1.17468,-1.76203 -0.0505,-0.85282 -1.16058,-1.31094 -1.76202,-1.46835 -0.83285,-0.1022 -16.3663,-1.66805 -16.445,-1.76203 -0.31246,0.094 -1.09599,-0.0376 -1.17468,-0.88101 0.0787,-10.97273 -4.33459,-29.24965 -7.92912,-39.35194 -0.80232,-2.35524 -1.58583,-4.57422 -2.64304,-5.87342 -12.04758,-19.29431 -16.31403,-33.38348 -10.57217,-56.38498 0,0 11.304,25.70563 40.81971,28.48611 0,0 1.0901,1.33092 2.64304,1.46835 3.86588,-0.13743 5.10518,-10.28436 4.99241,-11.45317 0.11277,-2.87916 -2.43278,-3.00837 -2.34937,-2.93672 -0.60497,-0.0717 -1.64926,-0.17033 -2.64304,1.46836 0,0 -22.35954,-6.61465 -28.77919,-29.07343 -2.56786,-8.99774 -8.07244,-17.20221 -14.09622,-22.3196 -1.18291,-0.88794 -3.57339,-3.22921 0,-4.69874 z"
     style="fill:#000000;fill-rule:nonzero;stroke:none"
     inkscape:connector-curvature="0" /></svg>