<?xml version="1.0" encoding="UTF-8" standalone="no"?>
<!-- Created with Inkscape (http://www.inkscape.org/) -->

<svg
   xmlns:dc="http://purl.org/dc/elements/1.1/"
   xmlns:cc="http://creativecommons.org/ns#"
   xmlns:rdf="http://www.w3.org/1999/02/22-rdf-syntax-ns#"
   xmlns:svg="http://www.w3.org/2000/svg"
   xmlns="http://www.w3.org/2000/svg"
   version="1.1"
   width="720"
   height="600"
   id="svg2"
   xml:space="preserve"><defs
     id="defs36" /><metadata
     id="metadata4"><rdf:RDF><cc:Work
         rdf:about=""><dc:format>image/svg+xml</dc:format><dc:type
           rdf:resource="http://purl.org/dc/dcmitype/StillImage" /><dc:title></dc:title></cc:Work></rdf:RDF></metadata><g
     transform="matrix(1.25,0,0,-1.25,-2.2875,600.71251)"
     id="g6"
     style="fill-rule:nonzero"><path
       d="m 1.83,0.57001 576,0 0,480 -576,0 0,-480 z"
       id="path8"
       style="fill:#000000" /><path
       d="m 568.39,18.788 c -0.0202,-4.8333 -3.9533,-8.7662 -8.7702,-8.7714 h -539.43 c -4.8843,0.0053 -8.8174,3.9382 -8.7702,8.7714 v 98.105 c -0.04722,4.8119 3.8859,8.7444 8.7702,8.7714 h 539.43 c 4.8169,-0.027 8.75,-3.9595 8.7702,-8.7714 V 18.788"
       id="path10"
       style="fill:#ffffff" /><path
       d="m 568.39,143.88 c -0.0202,-4.822 -3.9533,-8.7546 -8.7702,-8.7714 h -539.43 c -4.8843,0.0169 -8.8174,3.9494 -8.7702,8.7714 v 318.47 c -0.04722,4.8558 3.8859,8.7883 8.7702,8.7714 h 539.43 c 4.8169,0.0169 8.75,-3.9157 8.7702,-8.7714 V 143.88"
       id="path12"
       style="fill:#ffffff" /><path
       d="m 158.97,413.84 v 67.47 h 31.22 c 11.2,-0.07 22.12,-7.14 22.09,-20.06 0.03,-13.61 -6.71,-15.15 -9.81,-17.22 3.2,-2.53 6.75,-5.67 6.75,-12.97 -0.01,-11.66 -11.78,-17.22 -21.25,-17.22 h -29 z m 13.84,12.82 h 15.5 c 4.25,0 6.45,2.69 6.41,7.09 0.04,4.6 -1.88,7.1 -6.75,7.09 h -15.16 v -14.18 z m 0,24.62 H 189 c 5.01,-0.01 8.07,3.24 8.09,8.44 -0.02,4.96 -4.25,8.32 -8.28,8.28 h -16 v -16.72 z"
       transform="matrix(0.8,0,0,-0.8,0,428)"
       id="path14"
       style="fill:#000000" /><path
       d="m 199.9,43.213 c -1.6101,-0.75007 -3.3709,-0.90301 -5.2621,-0.94462 -8.3722,0.04161 -14.653,6.2457 -14.707,14.034 v 25.505 h 10.254 v -22.131 c -0.0135,-4.4206 2.1307,-7.6379 6.4765,-7.6919 4.9214,0.05398 8.0618,2.6584 8.0956,6.6123 v 23.211 h 10.254 v -38.864 h -10.659 v 2.8338 c -1.8496,-1.6283 -2.7694,-1.9353 -4.4526,-2.564"
       id="path16"
       style="fill:#000000" /><path
       d="m 239.3,67.503 6.3415,-0.94462 c 6.8509,-0.88502 10.91,-5.634 10.929,-11.74 -0.0191,-7.7593 -6.5293,-13.198 -15.786,-13.225 -8.0528,0.02699 -13.49,2.0186 -18.62,7.1521 l 7.6908,6.7473 c 3.1056,-3.2252 6.6294,-5.0638 10.389,-5.1279 3.0561,0.0641 5.5072,1.3674 5.532,3.3736 -0.0247,1.5935 -1.6326,3.1251 -4.8573,3.7785 l -6.7463,1.2145 c -5.9604,1.1965 -9.4831,5.7161 -9.4448,11.066 -0.0382,7.7492 6.0121,12.729 15.921,12.685 5.4859,0.04386 10.081,-0.87489 15.382,-5.6677 l -6.4765,-7.0172 c -2.73,3.1532 -5.5646,4.1496 -9.0401,4.1833 -3.0347,-0.03374 -5.1025,-1.7194 -5.1272,-3.6435 0.0247,-1.2932 0.71399,-2.4425 3.9129,-2.8338"
       id="path18"
       style="fill:#000000" /><path
       d="m 321.61,58.461 c 0.003,2.8451 -1.2222,4.7602 -7.0162,5.9376 l -9.175,1.8892 c -5.4049,1.0706 -12.528,5.743 -12.548,14.844 0.0202,8.5938 7.9089,16.943 20.509,17.003 0,0 14.208,-0.0596 21.318,-8.5015 l -7.8257,-7.6919 c -6.3314,5.4091 -13.897,5.3978 -13.897,5.3978 -4.8416,0.01125 -7.7526,-2.3627 -7.6908,-5.9376 -0.0618,-2.7832 2.007,-4.6219 11.334,-5.9376 10.204,-1.3652 17.173,-7.7234 17.271,-16.733 0.0562,-7.4591 -4.1568,-16.958 -22.803,-17.003 -10.688,0.04498 -15.667,2.8788 -23.072,10.256 l 9.3099,7.0171 c 4.9889,-4.8951 8.5116,-6.4268 14.302,-6.4774 6.0818,0.05061 9.9879,1.8892 9.9845,5.9376"
       id="path20"
       style="fill:#000000" /><path
       d="m 348.05,72.901 -6.0717,0 0,8.7714 6.0717,0 0,12.28 10.659,2.8338 0,-15.114 9.8496,0 0,-8.7714 -9.7147,0 0,-17.543 c 0.0551,-3.8561 1.51,-4.2395 3.1033,-4.1833 1.4707,-0.05623 2.6187,0.25077 5.6669,0.80967 l 2.4287,-8.6365 c -4.8641,-1.2674 -9.229,-1.7273 -12.008,-1.7543 -3.7318,0.02699 -9.9351,1.9421 -9.9845,9.1763 v 22.131"
       id="path22"
       style="fill:#000000" /><path
       d="m 491.22,430.72 c -11.55,0.07 -23.03,7.25 -23.1,26.81 0.07,15.39 9.07,25.44 23.79,25.47 13.24,-0.03 22.7,-10.95 22.75,-25.47 -0.05,-19.56 -13.07,-26.74 -23.44,-26.81 z m 0.69,11.97 c 5.67,-0.03 9.58,3.51 9.59,14.84 -0.01,7.92 -3.34,13.86 -9.59,13.85 -6.48,0.01 -10.31,-5.93 -10.29,-13.85 -0.02,-8.94 2.94,-14.87 10.29,-14.84 z"
       transform="matrix(0.8,0,0,-0.8,0,428)"
       id="path24"
       style="fill:#000000" /><path
       d="m 550.59,430.22 c -5.57,0 -8.16,1.44 -12.31,4.72 v -2.53 h -12.81 v 63.25 h 12.81 v -18.04 c 5.97,3.84 6.94,4.48 13.5,4.54 12.58,-0.06 20.82,-10.29 20.75,-24.78 0.07,-16.34 -7.5,-27.16 -21.94,-27.16 z m -2.03,11.81 c 7.84,-0.02 10.62,5.33 10.63,14.5 -0.01,8.45 -2.79,14.18 -10.13,14.16 -5.11,0.02 -10.74,-4.37 -10.78,-9.44 v -7.59 c 0.03,-3.34 0.89,-11.65 10.28,-11.63 z"
       transform="matrix(0.8,0,0,-0.8,0,428)"
       id="path26"
       style="fill:#000000" /><path
       d="m 198.59,193.72 c -16.68,0.02 -30.22,13.58 -30.18,30.37 -0.04,16.63 13.5,30.17 30.18,30.19 16.73,-0.02 30.3,-13.56 30.38,-30.19 -0.08,-16.79 -13.65,-30.35 -30.38,-30.37 z m 0,15.19 c 8.34,0.05 15.1,6.79 15.03,15.18 0.07,8.23 -6.69,14.96 -15.03,15 -8.28,-0.04 -15.01,-6.77 -15,-15 -0.01,-8.39 6.72,-15.13 15,-15.18 z"
       transform="matrix(0.8,0,0,-0.8,0,428)"
       id="path28"
       style="fill:#000000" /><path
       d="m 497.81,193.72 c -16.64,0.02 -30.18,13.58 -30.19,30.37 0.01,16.63 13.55,30.17 30.19,30.19 16.78,-0.02 30.31,-13.56 30.35,-30.19 -0.04,-16.79 -13.57,-30.35 -30.35,-30.37 z m 0,15.19 c 8.38,0.05 15.1,6.79 15.16,15.18 -0.06,8.23 -6.78,14.96 -15.16,15 -8.24,-0.04 -15,-6.77 -15.03,-15 0.03,-8.39 6.79,-15.13 15.03,-15.18 z"
       transform="matrix(0.8,0,0,-0.8,0,428)"
       id="path30"
       style="fill:#000000" /><path
       d="m 84.188,59.062 c -3.117,0.169 -9.806,1.868 -10.219,13.219 l -2.531,76.559 c 0,0 -7.777,0.59 -7.75,7.1 -0.027,6.65 0,59.87 0,59.87 0,0 -0.353,17.56 16.531,17.57 h 81.971 c -0.84,-2.99 -1.25,-6.15 -1.19,-9.29 -0.06,-20.9 16.8,-37.78 37.59,-37.78 20.85,0 37.73,16.88 37.79,37.78 -0.06,3.16 -0.45,6.28 -1.16,9.29 h 226.16 c -0.8,-2.99 -1.21,-6.15 -1.19,-9.29 -0.02,-20.9 16.87,-37.78 37.62,-37.78 20.89,0 37.77,16.88 37.78,37.78 -0.01,3.16 -0.43,6.28 -1.18,9.29 L 662.25,208.72 V 95.56 c 0,-13.427 -12.68,-36.468 -36.44,-36.437 H 85.78 c 0,0 -0.191,-0.046 -0.5,-0.063 -0.27,-0.014 -0.648,-0.024 -1.093,0 z m 25.032,30.063 h 21.09 c 4.6,0.059 8.27,3.759 8.25,8.281 v 109.12 c 0.02,4.59 -3.65,8.29 -8.25,8.28 h -21.09 c -4.53,0.01 -8.23,-3.69 -8.28,-8.28 V 97.406 c 0.05,-4.522 3.75,-8.222 8.28,-8.281 z m 64.09,0 h 88.72 c 4.61,0.059 8.28,3.759 8.25,8.281 v 35.754 c 0.03,4.51 -3.64,8.21 -8.25,8.28 h -88.72 c -4.53,-0.07 -8.23,-3.77 -8.28,-8.28 V 97.406 c 0.05,-4.522 3.75,-8.222 8.28,-8.281 z m 124.13,0 h 88.72 c 4.54,0.059 8.21,3.759 8.25,8.281 v 35.754 c -0.04,4.51 -3.71,8.21 -8.25,8.28 h -88.72 c -4.6,-0.07 -8.27,-3.77 -8.25,-8.28 V 97.406 c -0.02,-4.522 3.65,-8.222 8.25,-8.281 z m 123.12,0 h 88.88 c 4.49,0.059 8.17,3.759 8.09,8.281 v 35.754 c 0.08,4.51 -3.6,8.21 -8.09,8.28 h -88.88 c -4.48,-0.07 -8.16,-3.77 -8.09,-8.28 V 97.406 c -0.07,-4.522 3.61,-8.222 8.09,-8.281 z m 122.94,0 h 73.22 c 12.52,0.059 23.19,10.545 23.25,23.625 v 20.41 c -0.06,4.51 -3.73,8.21 -8.25,8.28 H 543.5 c -4.52,-0.07 -8.19,-3.77 -8.25,-8.28 V 97.406 c 0.06,-4.522 3.73,-8.222 8.25,-8.281 z"
       transform="matrix(0.8,0,0,-0.8,0,428)"
       id="path32"
       style="fill:#000000" /></g></svg>