<!-- Created with Inkscape (http://www.inkscape.org/) -->
<svg xmlns:rdf="http://www.w3.org/1999/02/22-rdf-syntax-ns#" xmlns="http://www.w3.org/2000/svg" xml:space="preserve" height="600" width="600" version="1.1" xmlns:cc="http://creativecommons.org/ns#" xmlns:dc="http://purl.org/dc/elements/1.1/"><metadata><rdf:RDF><cc:Work rdf:about=""><dc:format>image/svg+xml</dc:format><dc:type rdf:resource="http://purl.org/dc/dcmitype/StillImage"/><dc:title/></cc:Work></rdf:RDF></metadata><g fill-rule="nonzero" transform="matrix(1.25,0,0,-1.25,-1.5374482,600.26241)"><path fill="#808080" d="M241.23,480.21c132.47-0.04,239.93-107.5,240-240-0.07-132.61-107.53-240.07-240-240-132.64-0.06711-240.1,107.39-240,240-0.1023,132.5,107.36,239.96,240,240"/><path fill="#FFF" d="M241.23,432.46c106.07-0.09,192.12-86.15,192.04-192.25,0.08-106.21-85.97-192.26-192.04-192.25-106.24-0.01-192.3,86.044-192.25,192.25-0.046,106.1,86.013,192.16,192.25,192.25"/><path fill="#000" d="m104.75,42.675c-2.7218,1.8451-5.3732,3.7623-8.0282,5.7042l336.13,336.13c2.0158-2.588,3.9261-5.2306,5.7042-7.8169l-333.8-334.02"/><path fill="#000" d="m89.117,54.506c-2.5053,1.9683-4.9718,4.0739-7.3944,6.1268l338.88,338.88c2.1285-2.3574,4.2271-4.8151,6.338-7.3944l-337.82-337.61"/><path fill="#000" d="m74.751,67.182c-2.4014,2.3116-4.6761,4.5933-6.9718,6.9718l339.51,339.3c2.2447-2.2324,4.5334-4.5158,6.7606-6.7606l-339.3-339.51"/><path fill="#000" d="m61.441,80.914c-2.1144,2.5211-4.2183,4.993-6.338,7.6056l337.82,337.61c2.4648-2.0422,4.9349-4.1444,7.3944-6.338l-338.87-338.88"/><path fill="#000" d="m49.188,95.914c-1.912,2.6778-3.8239,5.3275-5.7042,8.0282l333.81,333.81c2.7782-1.8151,5.4349-3.7324,8.0282-5.7042l-336.13-336.14"/></g></svg>