<?xml version="1.0" encoding="UTF-8" standalone="no"?>
<!-- Created with Inkscape (http://www.inkscape.org/) -->
<svg xmlns:dc="http://purl.org/dc/elements/1.1/" xmlns:cc="http://creativecommons.org/ns#" xmlns:rdf="http://www.w3.org/1999/02/22-rdf-syntax-ns#" xmlns:svg="http://www.w3.org/2000/svg" xmlns="http://www.w3.org/2000/svg" xmlns:inkscape="http://www.inkscape.org/namespaces/inkscape" version="1.1" width="559.20001" height="400.17999" id="svg2" xml:space="preserve"><metadata id="metadata8"><rdf:RDF><cc:Work rdf:about=""><dc:format>image/svg+xml</dc:format><dc:type rdf:resource="http://purl.org/dc/dcmitype/StillImage"/></cc:Work></rdf:RDF></metadata><defs id="defs6"><clipPath id="clipPath16"><path d="M 0.014999,320.16 H 447.375 V 0.02 H 0.014999 v 320.14 z" inkscape:connector-curvature="0" id="path18"/></clipPath></defs><g transform="matrix(1.25,0,0,-1.25,-0.018749,400.2)" id="g10"><g id="g12"><g clip-path="url(#clipPath16)" id="g14"><g transform="translate(447.38,24.375)" id="g20"><path d="m 0,0 c 0,-13.462 -10.913,-24.375 -24.375,-24.375 h -398.62 c -13.462,0 -24.375,10.913 -24.375,24.375 v 271.41 c 0,13.462 10.913,24.375 24.375,24.375 h 398.62 c 13.467,0 24.38,-10.91 24.38,-24.37 V 0.005" inkscape:connector-curvature="0" id="path22" style="fill:#231f20"/></g></g></g><g transform="translate(434.72,24.375)" id="g24"><path d="m 0,0 c 0,-6.472 -5.247,-11.718 -11.718,-11.718 h -398.62 c -6.471,0 -11.717,5.246 -11.717,11.718 v 271.41 c 0,6.471 5.246,11.718 11.717,11.718 h 398.62 c 6.473,-0.01 11.72,-5.25 11.72,-11.72 V -0.002" inkscape:connector-curvature="0" id="path26" style="fill:#ffd421"/></g><g transform="translate(106.2,228.96)" id="g28"><path d="M 0,0 C 0,-16.309 -11.66,-27.512 -25.149,-27.512 H -44.583 V 26.14 h 20.806 C -10.135,26.14 0,15.394 0,0" inkscape:connector-curvature="0" id="path30" style="fill:#231f20"/></g><g transform="translate(95,228.89)" id="g32"><path d="M 0,0 C 0,13.185 -8.84,15.776 -13.413,15.776 H -22.1 v -32.313 h 7.544 C -5.563,-16.537 0,-10.974 0,0" inkscape:connector-curvature="0" id="path34" style="fill:#ffd421"/></g><path d="m 114.93,201.45 h 10.212 v 38.791 H 114.93 V 201.45 z" inkscape:connector-curvature="0" id="path36" style="fill:#231f20"/><g transform="translate(114.09,249.92)" id="g38"><path d="m 0,0 c 0,3.201 2.591,5.944 5.792,5.944 3.353,0 5.944,-2.743 5.944,-6.02 0,-3.201 -2.591,-5.868 -5.868,-5.868 C 2.591,-5.944 0,-3.277 0,0" inkscape:connector-curvature="0" id="path40" style="fill:#231f20"/></g><g transform="translate(151.67,215.86)" id="g42"><path d="M 0,0 7.926,24.082 H 18.595 L 5.716,-14.404 H -6.02 L -19.357,24.082 H -8.154 L 0,0" inkscape:connector-curvature="0" id="path44" style="fill:#231f20"/></g><g transform="translate(203.36,213.72)" id="g46"><path d="m 0,0 6.173,-6.707 c -4.954,-4.496 -8.231,-6.401 -15.242,-6.401 -11.965,0 -19.281,8.84 -19.281,20.653 0,10.516 6.782,19.738 17.223,19.738 11.356,0 18.367,-8.459 18.367,-21.11 V 3.506 h -25.454 c 0.228,-4.421 4.267,-7.621 9.373,-7.621 2.896,0 4.497,0.457 8.841,4.115" inkscape:connector-curvature="0" id="path48" style="fill:#231f20"/></g><g transform="translate(185.15,225.08)" id="g50"><path d="M 0,0 H 15.623 C 15.394,3.81 11.584,7.24 7.773,7.24 3.886,7.24 0.61,4.191 0,0" inkscape:connector-curvature="0" id="path52" style="fill:#ffd421"/></g><g transform="translate(230.05,236.28)" id="g54"><path d="m 0,0 c 2.286,3.048 6.173,4.497 10.136,4.497 0.534,0 0.991,0 1.905,-0.077 V -5.563 C 8.688,-5.716 7.697,-5.716 7.697,-5.716 3.354,-5.868 -0.228,-8.917 -0.228,-15.089 V -34.828 H -10.517 V 3.963 H -0.228 L 0,0" inkscape:connector-curvature="0" id="path56" style="fill:#231f20"/></g><g transform="translate(265.13,225.84)" id="g58"><path d="m 0,0 6.401,-0.914 c 6.783,-0.915 10.822,-5.64 10.822,-11.66 0,-7.774 -6.478,-13.185 -15.699,-13.185 -8.002,0 -13.413,1.982 -18.519,7.088 l 7.621,6.706 c 3.124,-3.2 6.63,-5.03 10.364,-5.03 3.049,0 5.487,1.296 5.487,3.277 0,1.601 -1.6,3.125 -4.801,3.735 l -6.707,1.296 c -5.944,1.143 -9.449,5.639 -9.449,10.898 0,7.772 6.02,12.727 15.927,12.727 5.412,0 9.984,-0.915 15.319,-5.716 L 10.212,2.287 C 7.544,5.411 4.724,6.402 1.219,6.402 -1.753,6.402 -3.811,4.725 -3.811,2.82 -3.811,1.524 -3.125,0.381 0,0" inkscape:connector-curvature="0" id="path60" style="fill:#231f20"/></g><path d="m 290.46,201.45 h 10.212 v 38.791 H 290.46 V 201.45 z" inkscape:connector-curvature="0" id="path62" style="fill:#231f20"/><g transform="translate(289.62,249.92)" id="g64"><path d="m 0,0 c 0,3.201 2.592,5.944 5.792,5.944 3.353,0 5.945,-2.743 5.945,-6.02 0,-3.201 -2.592,-5.868 -5.868,-5.868 C 2.592,-5.944 0,-3.277 0,0" inkscape:connector-curvature="0" id="path66" style="fill:#231f20"/></g><g transform="translate(308.91,220.28)" id="g68"><path d="m 0,0 c 0,15.623 9.145,21.338 18.291,21.338 8.307,0 18.671,-5.715 18.671,-21.338 0,-11.508 -7.545,-20.196 -18.138,-20.196 C 7.164,-20.196 0,-12.194 0,0" inkscape:connector-curvature="0" id="path70" style="fill:#231f20"/></g><g transform="translate(335.43,220.28)" id="g72"><path d="m 0,0 c 0,9.069 -3.124,11.889 -7.697,11.889 -5.791,0 -8.154,-4.725 -8.154,-11.889 0,-6.249 3.048,-10.974 8.154,-10.974 C -2.667,-10.974 0,-6.249 0,0" inkscape:connector-curvature="0" id="path74" style="fill:#ffd421"/></g><g transform="translate(369.91,240.17)" id="g76"><path d="m 0,0 c 1.601,0.762 3.506,0.991 5.335,0.991 8.383,0 14.709,-6.478 14.709,-14.251 V -38.715 H 9.908 v 22.101 c 0,4.344 -2.134,7.85 -6.326,7.85 -4.953,0 -8.154,-2.896 -8.154,-6.783 v -23.168 h -10.212 v 38.639 h 10.517 v -2.82 C -2.286,-1.219 -1.676,-0.61 0,0" inkscape:connector-curvature="0" id="path78" style="fill:#231f20"/></g><g transform="translate(137.18,104.8)" id="g80"><path d="M 0,0 42.956,42.957 H 85.749 L 57.493,14.7 h 114.99 V -14.536 H 57.493 L 85.749,-42.792 H 42.956 L 0.003,0" inkscape:connector-curvature="0" id="path82" style="fill:#231f20"/></g></g></svg>