<?xml version="1.0" encoding="UTF-8" standalone="no"?>
<!-- Created with Inkscape (http://www.inkscape.org/) -->

<svg
   xmlns:dc="http://purl.org/dc/elements/1.1/"
   xmlns:cc="http://creativecommons.org/ns#"
   xmlns:rdf="http://www.w3.org/1999/02/22-rdf-syntax-ns#"
   xmlns:svg="http://www.w3.org/2000/svg"
   xmlns="http://www.w3.org/2000/svg"
   xmlns:inkscape="http://www.inkscape.org/namespaces/inkscape"
   version="1.1"
   width="340.75"
   height="340.88"
   id="svg2"
   xml:space="preserve"><defs
     id="defs13" /><metadata
     id="metadata8"><rdf:RDF><cc:Work
         rdf:about=""><dc:format>image/svg+xml</dc:format><dc:type
           rdf:resource="http://purl.org/dc/dcmitype/StillImage" /></cc:Work></rdf:RDF></metadata><g
     transform="matrix(1.25,0,0,-1.25,-201.28,669.03)"
     id="g10"><g
       transform="scale(0.1,0.1)"
       id="g12"><path
         d="m 2973.2,5352.2 c 752.77,-0.4 1363.1,-610.77 1363,-1364 0.14,-752.59 -610.23,-1363 -1363,-1363 -753.04,0.04 -1363.4,610.41 -1363,1363 -0.42,753.23 609.96,1363.6 1363,1364"
         inkscape:connector-curvature="0"
         id="path14"
         style="fill:#ec1d24" /><path
         d="m 2973.2,5080.2 c 602.82,0.07 1091.6,-488.73 1092,-1092 -0.38,-602.63 -489.18,-1091.4 -1092,-1091 -603.09,-0.44 -1091.9,488.37 -1092,1091 0.11,603.27 488.91,1092.1 1092,1092"
         inkscape:connector-curvature="0"
         id="path16"
         style="fill:#ffffff" /><path
         d="m 2614.2,4498.2 v -1014 h -206 v 677 h -165 v 181 c 147.36,0.43 160.32,68.11 186,156 h 185"
         inkscape:connector-curvature="0"
         id="path18" /><path
         d="m 3305.2,3457.2 c -285.13,-0.15 -429.13,184.17 -429,525 -0.13,359 149.63,533.23 428,533 291.86,0.23 430.09,-188.41 430,-531 0.09,-339.95 -141.02,-527.15 -429,-527"
         inkscape:connector-curvature="0"
         id="path20" /><path
         d="m 3306.2,4322.2 c -150.78,0.27 -217.02,-110.6 -217,-337 -0.02,-209.91 70.54,-335.19 217,-335 148.74,-0.19 216.42,112.13 216,335 0.42,219.2 -67.26,337.27 -216,337"
         inkscape:connector-curvature="0"
         id="path22"
         style="fill:#ffffff" /></g></g></svg>