<?xml version="1.0" encoding="UTF-8" standalone="no"?>
<!-- Created with Inkscape (http://www.inkscape.org/) -->

<svg
   xmlns:dc="http://purl.org/dc/elements/1.1/"
   xmlns:cc="http://creativecommons.org/ns#"
   xmlns:rdf="http://www.w3.org/1999/02/22-rdf-syntax-ns#"
   xmlns:svg="http://www.w3.org/2000/svg"
   xmlns="http://www.w3.org/2000/svg"
   xmlns:inkscape="http://www.inkscape.org/namespaces/inkscape"
   version="1.1"
   width="342.04999"
   height="342.04999"
   id="svg2"
   xml:space="preserve"><defs
     id="defs10" /><metadata
     id="metadata8"><rdf:RDF><cc:Work
         rdf:about=""><dc:format>image/svg+xml</dc:format><dc:type
           rdf:resource="http://purl.org/dc/dcmitype/StillImage" /></cc:Work></rdf:RDF></metadata><g
     transform="matrix(1.25,0,0,-1.25,-2.7874,342.96)"
     id="g10"><path
       d="M 139.05,273.87 C 214.29,273.83 275.33,212.79 275.37,137.55 275.33,62.209 214.29,1.17 139.05,1.23 63.709,1.1719 2.67,62.209 2.73,137.55 2.6719,212.79 63.709,273.83 139.05,273.87"
       inkscape:connector-curvature="0"
       id="path12"
       style="fill:#ffffff" /><path
       d="M 139.05,273.87 C 214.29,273.83 275.33,212.79 275.37,137.55 275.33,62.209 214.29,1.17 139.05,1.23 63.709,1.1719 2.67,62.209 2.73,137.55 2.6719,212.79 63.709,273.83 139.05,273.87 z"
       inkscape:connector-curvature="0"
       id="path14"
       style="fill:none;stroke:#000000" /><path
       d="m 71.37,19.11 c -21.241,12.141 -38.933,29.894 -51,51.24 l 185.76,185.88 c 21.35,-12.151 39.113,-29.848 51.24,-51.12 l -186,-186"
       inkscape:connector-curvature="0"
       id="path16" /></g></svg>