<?xml version="1.0" encoding="UTF-8" standalone="no"?>
<!-- Created with Inkscape (http://www.inkscape.org/) -->
<svg xmlns:dc="http://purl.org/dc/elements/1.1/" xmlns:cc="http://creativecommons.org/ns#" xmlns:rdf="http://www.w3.org/1999/02/22-rdf-syntax-ns#" xmlns:svg="http://www.w3.org/2000/svg" xmlns="http://www.w3.org/2000/svg" xmlns:inkscape="http://www.inkscape.org/namespaces/inkscape" version="1.1" width="738.45001" height="212.25" id="svg2" xml:space="preserve"><defs id="defs24"/><metadata id="metadata8"><rdf:RDF><cc:Work rdf:about=""><dc:format>image/svg+xml</dc:format><dc:type rdf:resource="http://purl.org/dc/dcmitype/StillImage"/></cc:Work></rdf:RDF></metadata><g transform="matrix(1.25,0,0,-1.25,-1.3875,212.36)" id="g10"><path d="M 591.87,32.85 C 591.88,14.788 577.21,0.125 559.11,0.09 H 33.87 C 15.788,0.12501 1.125,14.788 1.11,32.85 v 104.28 c 0.0151,18.082 14.678,32.745 32.76,32.76 h 525.24 c 18.102,-0.015 32.765,-14.678 32.76,-32.76 V 32.85" inkscape:connector-curvature="0" id="path12"/><path d="m 574.83,32.85 c 0.038,-8.67 -7.01,-15.719 -15.72,-15.72 H 33.87 c -8.69,0.001 -15.738,7.05 -15.72,15.72 v 104.28 c -0.018,8.69 7.03,15.739 15.72,15.72 h 525.24 c 8.71,0.019 15.758,-7.03 15.72,-15.72 V 32.85" inkscape:connector-curvature="0" id="path14" style="fill:#ffffff"/><path d="M 86.67,78.21 H 73.47 V 55.17 H 60.03 v 63.72 h 25.32 c 19.322,-0.028 22.307,-16.309 22.32,-20.88 -0.013,-6.193 -5.35,-19.852 -21,-19.8" inkscape:connector-curvature="0" id="path16"/><path d="m 94.35,98.01 c 0.01,5.837 -3.698,8.731 -8.88,8.76 h -12 V 89.61 h 11.88 c 4.307,-0.055 9.01,3.202 9,8.4" inkscape:connector-curvature="0" id="path18" style="fill:#ffffff"/><path d="m 116.31,119.25 h 12.12 V 72.33 c 0.036,-4.936 0.85,-6.112 3.48,-6.24 1.531,-0.143 2.797,-0.053 4.56,0.36 l 1.08,-10.68 c -4.2,-1.04 -8.27,-1.763 -11.16,-1.8 -2.99,0.037 -10.045,1.032 -10.08,11.76 v 53.52" inkscape:connector-curvature="0" id="path20"/><path d="m 159.27,53.97 c -10.097,-0.054 -15.976,5.555 -15.96,14.28 -0.016,7.828 4.687,16.059 26.76,16.08 v 2.52 c -0.002,2.705 -2.716,4.424 -6.84,4.44 -3.564,-0.016 -9.534,-2.097 -13.92,-4.68 l -5.88,8.88 c 3.301,2.477 11.17,6.91 19.56,6.96 12.777,-0.05 19.38,-4.935 19.32,-13.8 V 69.57 c 0.06,-4.075 1.145,-5.251 5.4,-6 l -4.2,-9.6 c -2.226,0.037 -8.286,0.851 -11.4,4.8 -4.032,-3.949 -7.831,-4.854 -12.84,-4.8" inkscape:connector-curvature="0" id="path22"/><path d="m 163.11,64.17 c 5.058,-0.032 7.32,1.415 7.32,5.16 v 5.88 l -9.36,-1.44 c -4.027,-0.587 -4.841,-2.758 -4.8,-5.28 -0.041,-2.995 1.768,-4.352 6.84,-4.32" inkscape:connector-curvature="0" id="path24" style="fill:#ffffff"/><path d="m 217.35,48.93 c -1.556,-4.602 -4.451,-8.944 -10.56,-9 0,0 -3.298,0.056 -12.6,1.2 l 1.2,10.8 c 1.318,-0.365 4.484,-0.637 6.48,-0.6 2.165,-0.037 4.245,1.139 4.2,3.72 0.045,0.766 0.135,1.851 -0.36,3.12 l -14.88,42.24 h 12 l 10.08,-27.36 9.72,27.36 h 12.36 L 217.35,48.93" inkscape:connector-curvature="0" id="path26"/><path d="m 260.19,57.81 c -12.17,-0.004 -19.768,8.77 -19.8,21.48 0.032,13.341 7.992,22.205 20.16,22.2 2.666,0.005 5.741,0.096 10.2,-3.12 v 2.64 h 12.6 V 56.37 c -0.053,-9.057 -9.189,-16.112 -21.48,-16.08 -7.518,-0.032 -9.147,0.058 -20.52,5.4 l 5.52,9.96 c 4.949,-4.085 13.56,-4.08 13.56,-4.08 6.042,-0.005 11.289,0.718 10.2,8.64 -4.067,-2.766 -5.786,-2.404 -10.44,-2.4" inkscape:connector-curvature="0" id="path28"/><path d="m 262.35,68.85 c 5.66,-0.009 8.555,2.976 8.52,8.28 v 6.12 c 0.035,4.134 -3.584,7.391 -8.28,7.44 -6.248,-0.049 -9.776,-3.939 -9.72,-10.68 -0.056,-7.912 2.296,-11.169 9.48,-11.16" inkscape:connector-curvature="0" id="path30" style="fill:#ffffff"/><path d="m 308.31,96.57 c 2.673,3.568 7.286,5.287 12,5.28 0.623,0.007 1.165,0.007 2.28,-0.12 V 89.97 c -4.009,-0.234 -5.16,-0.24 -5.16,-0.24 -5.181,-0.175 -9.432,-3.793 -9.48,-11.16 v -23.4 h -12.12 v 46.08 h 12.12 l 0.36,-4.68" inkscape:connector-curvature="0" id="path32"/><path d="m 331.23,77.49 c 0.041,18.578 10.895,25.362 21.72,25.32 9.889,0.042 22.191,-6.742 22.2,-25.32 -0.009,-13.624 -8.964,-23.935 -21.48,-23.88 -13.897,-0.055 -22.399,9.442 -22.44,23.88" inkscape:connector-curvature="0" id="path34"/><path d="m 362.79,77.49 c -0.041,10.799 -3.75,14.146 -9.12,14.16 -6.932,-0.014 -9.736,-5.623 -9.72,-14.16 -0.016,-7.382 3.602,-12.99 9.72,-12.96 5.913,-0.03 9.079,5.578 9.12,12.96" inkscape:connector-curvature="0" id="path36" style="fill:#ffffff"/><path d="m 410.19,55.41 c -1.897,-0.861 -3.978,-1.041 -6.12,-1.08 -9.978,0.039 -17.396,7.365 -17.4,16.56 v 30.12 h 12 V 74.85 c 0.035,-5.195 2.568,-8.994 7.68,-9 5.832,0.006 9.541,3.082 9.6,7.68 v 27.48 h 12.12 V 55.17 h -12.6 v 3.36 c -2.202,-1.991 -3.288,-2.352 -5.28,-3.12" inkscape:connector-curvature="0" id="path38"/><path d="m 458.67,101.13 c 1.875,0.908 4.136,1.179 6.36,1.2 9.897,-0.021 17.405,-7.709 17.4,-16.92 V 55.17 h -12 v 26.28 c -0.026,5.12 -2.558,9.281 -7.56,9.24 -5.853,0.041 -9.652,-3.396 -9.6,-8.04 V 55.17 h -12.12 v 45.84 h 12.48 v -3.36 c 2.302,2.036 3.025,2.76 5.04,3.48" inkscape:connector-curvature="0" id="path40"/><path d="m 492.15,77.85 c -0.002,13.243 6.602,24.731 20.04,24.72 4.652,0.011 7.728,-0.622 12.6,-3.84 v 20.28 h 12.36 V 55.17 h -12.36 v 2.76 c -3.968,-3.29 -7.767,-3.833 -12.96,-3.84 -12.717,0.007 -19.682,9.505 -19.68,23.76" inkscape:connector-curvature="0" id="path42"/><path d="m 515.07,65.01 c 6.385,0.032 9.823,3.469 9.84,9.72 v 7.2 c -0.017,5.454 -3.726,9.706 -9.48,9.72 -7.271,-0.014 -10.889,-5.532 -10.92,-13.44 0.031,-8.102 3.649,-13.168 10.56,-13.2" inkscape:connector-curvature="0" id="path44" style="fill:#ffffff"/></g></svg>