<?xml version="1.0" encoding="UTF-8" standalone="no"?>
<!-- Created with Inkscape (http://www.inkscape.org/) -->
<svg xmlns:dc="http://purl.org/dc/elements/1.1/" xmlns:cc="http://creativecommons.org/ns#" xmlns:rdf="http://www.w3.org/1999/02/22-rdf-syntax-ns#" xmlns:svg="http://www.w3.org/2000/svg" xmlns="http://www.w3.org/2000/svg" xmlns:inkscape="http://www.inkscape.org/namespaces/inkscape" version="1.1" width="460.04999" height="372.29999" id="svg2" xml:space="preserve"><defs id="defs68"/><metadata id="metadata8"><rdf:RDF><cc:Work rdf:about=""><dc:format>image/svg+xml</dc:format><dc:type rdf:resource="http://purl.org/dc/dcmitype/StillImage"/></cc:Work></rdf:RDF></metadata><g transform="matrix(1.25,0,0,-1.25,-2.4375,372.41)" id="g10"><path d="M 369.99,16.41 C 370,7.3997 362.72,0.124 353.79,0.09 H 18.27 C 9.2755,0.1241 2,7.3997 1.95,16.41 v 265.2 c 0.0499,8.99 7.3255,16.266 16.32,16.32 h 335.52 c 8.934,-0.054 16.21,-7.33 16.2,-16.32 V 16.41" inkscape:connector-curvature="0" id="path12"/><path d="m 361.59,16.41 c -0.028,-4.35 -3.526,-7.8475 -7.8,-7.8 H 18.27 c -4.334,-0.0475 -7.832,3.45 -7.8,7.8 v 265.2 c -0.032,4.33 3.466,7.828 7.8,7.8 h 335.52 c 4.274,0.028 7.772,-3.47 7.8,-7.8 V 16.41" inkscape:connector-curvature="0" id="path14" style="fill:#ffffff"/><path d="m 72.63,272.97 h 6.96 l 14.52,-21.36 v 21.36 h 6.36 v -31.8 h -6.96 l -14.52,21.24 v -21.24 h -6.36 v 31.8" inkscape:connector-curvature="0" id="path16"/><path d="m 106.83,252.33 c 0.012,9.214 5.433,12.602 10.8,12.6 4.978,0.002 11.121,-3.386 11.16,-12.6 -0.039,-6.868 -4.511,-12.017 -10.8,-12 -6.901,-0.017 -11.148,4.726 -11.16,12" inkscape:connector-curvature="0" id="path18"/><path d="m 122.55,252.33 c 0.013,5.329 -1.84,7.001 -4.56,6.96 -3.423,0.041 -4.823,-2.76 -4.8,-6.96 -0.023,-3.751 1.783,-6.552 4.8,-6.6 2.991,0.048 4.573,2.849 4.56,6.6" inkscape:connector-curvature="0" id="path20" style="fill:#ffffff"/><path d="m 148.95,273.09 h 6 v -23.4 c 0.025,-2.466 0.432,-3.053 1.8,-3.12 0.71,-0.069 1.342,-0.024 2.16,0.24 l 0.6,-5.4 c -2.095,-0.51 -4.128,-0.872 -5.52,-0.84 -1.544,-0.032 -5.068,0.465 -5.04,5.76 v 26.76" inkscape:connector-curvature="0" id="path22"/><path d="m 162.03,252.33 c -0.056,9.214 5.365,12.602 10.8,12.6 4.91,0.002 11.053,-3.386 11.04,-12.6 0.013,-6.868 -4.459,-12.017 -10.68,-12 -6.97,-0.017 -11.216,4.726 -11.16,12" inkscape:connector-curvature="0" id="path24"/><path d="m 177.75,252.33 c -0.056,5.329 -1.908,7.001 -4.56,6.96 -3.491,0.041 -4.892,-2.76 -4.92,-6.96 0.028,-3.751 1.835,-6.552 4.92,-6.6 2.923,0.048 4.504,2.849 4.56,6.6" inkscape:connector-curvature="0" id="path26" style="fill:#ffffff"/><path d="m 196.23,240.45 c -5.051,0.043 -7.988,2.844 -8.04,7.2 0.052,3.911 2.401,8.021 13.44,8.04 v 1.2 c -0.016,1.402 -1.371,2.26 -3.48,2.28 -1.731,-0.02 -4.713,-1.059 -6.84,-2.4 l -3,4.56 c 1.649,1.163 5.579,3.376 9.84,3.36 6.31,0.016 9.607,-2.423 9.6,-6.84 v -9.6 c 0.007,-1.975 0.549,-2.562 2.64,-2.88 l -2.04,-4.8 c -1.135,-0.032 -4.161,0.375 -5.64,2.28 -2.09,-1.905 -3.987,-2.357 -6.48,-2.4" inkscape:connector-curvature="0" id="path28"/><path d="m 198.15,245.61 c 2.515,-0.012 3.644,0.71 3.6,2.64 v 2.88 l -4.56,-0.72 c -2.081,-0.295 -2.488,-1.379 -2.52,-2.64 0.032,-1.495 0.936,-2.172 3.48,-2.16" inkscape:connector-curvature="0" id="path30" style="fill:#ffffff"/><path d="m 212.79,252.45 c -0.041,6.61 3.257,12.347 9.96,12.36 2.332,-0.013 3.868,-0.33 6.36,-1.92 v 10.08 h 6.12 v -31.8 h -6.12 v 1.32 c -2.041,-1.636 -3.938,-1.907 -6.6,-1.92 -6.282,0.013 -9.761,4.757 -9.72,11.88" inkscape:connector-curvature="0" id="path32"/><path d="m 224.19,246.09 c 3.196,-0.041 4.912,1.676 4.92,4.8 v 3.6 c -0.008,2.717 -1.86,4.841 -4.8,4.8 -3.565,0.041 -5.372,-2.715 -5.4,-6.6 0.028,-4.111 1.835,-6.641 5.28,-6.6" inkscape:connector-curvature="0" id="path34" style="fill:#ffffff"/><path d="m 241.47,241.17 h 6.12 v 22.92 h -6.12 v -22.92 z" inkscape:connector-curvature="0" id="path36"/><path d="m 240.99,269.85 c -0.005,1.903 1.531,3.53 3.48,3.48 1.936,0.05 3.471,-1.577 3.48,-3.48 -0.009,-1.937 -1.544,-3.517 -3.48,-3.48 -1.949,-0.037 -3.485,1.543 -3.48,3.48" inkscape:connector-curvature="0" id="path38"/><path d="m 262.71,264.09 c 0.957,0.435 2.087,0.571 3.12,0.6 5.02,-0.029 8.769,-3.869 8.76,-8.52 v -15 h -6 v 13.08 c 0.001,2.551 -1.264,4.629 -3.72,4.68 -2.965,-0.051 -4.862,-1.768 -4.92,-4.08 v -13.68 h -6 v 22.8 h 6.24 v -1.56 c 1.173,0.941 1.535,1.302 2.52,1.68" inkscape:connector-curvature="0" id="path40"/><path d="m 289.35,242.49 c -6.06,-0.054 -9.855,4.328 -9.84,10.68 -0.015,6.657 3.961,11.084 9.96,11.04 1.409,0.044 2.945,0.09 5.16,-1.56 v 1.32 h 6.24 v -22.2 c 0.038,-4.575 -4.525,-8.098 -10.68,-8.04 -3.738,-0.058 -4.551,-0.013 -10.2,2.64 l 2.76,5.04 c 2.437,-2.091 6.72,-2.04 6.72,-2.04 3.035,-0.051 5.655,0.31 5.16,4.32 -2.08,-1.435 -2.938,-1.254 -5.28,-1.2" inkscape:connector-curvature="0" id="path42"/><path d="m 290.43,247.89 c 2.843,0.057 4.289,1.547 4.32,4.2 v 3 c -0.031,2.117 -1.838,3.744 -4.2,3.72 -3.104,0.024 -4.866,-1.919 -4.92,-5.28 0.054,-3.957 1.228,-5.583 4.8,-5.64" inkscape:connector-curvature="0" id="path44" style="fill:#ffffff"/><path d="m 97.23,184.05 v 31.8 h 8.4 l 7.8,-10.8 7.08,10.8 h 8.64 v -31.8 h -6.24 v 23.28 l -9.48,-13.68 -9.84,13.68 v -23.28 h -6.36" inkscape:connector-curvature="0" id="path46"/><path d="m 135.39,195.21 c -0.048,9.271 5.373,12.659 10.8,12.6 4.918,0.059 11.061,-3.329 11.04,-12.6 0.021,-6.811 -4.451,-11.961 -10.68,-12 -6.961,0.039 -11.208,4.782 -11.16,12" inkscape:connector-curvature="0" id="path48"/><path d="m 151.11,195.21 c -0.047,5.386 -1.899,7.057 -4.56,7.08 -3.483,-0.023 -4.883,-2.823 -4.92,-7.08 0.037,-3.694 1.844,-6.495 4.92,-6.48 2.932,-0.015 4.513,2.786 4.56,6.48" inkscape:connector-curvature="0" id="path50" style="fill:#ffffff"/><path d="m 171.51,206.97 c 0.942,0.492 2.072,0.628 3.12,0.6 5.005,0.028 8.754,-3.812 8.76,-8.4 v -15.12 h -6 v 13.08 c -0.014,2.608 -1.279,4.686 -3.72,4.68 -2.979,0.006 -4.877,-1.711 -4.92,-3.96 v -13.8 h -6 v 22.92 h 6.24 v -1.68 c 1.158,0.998 1.52,1.359 2.52,1.68" inkscape:connector-curvature="0" id="path52"/><path d="m 198.75,195.33 h 9.6 v 5.04 h -9.6 v -5.04 z" inkscape:connector-curvature="0" id="path54"/><path d="m 245.79,203.37 v -5.88 h -12.84 v -13.44 h -6.36 v 31.8 h 20.4 v -6 h -14.04 v -6.48 h 12.84" inkscape:connector-curvature="0" id="path56"/><path d="m 257.55,204.69 c 1.354,1.824 3.658,2.682 6,2.64 0.323,0.042 0.594,0.042 1.08,0 v -5.88 c -1.931,-0.131 -2.52,-0.12 -2.52,-0.12 -2.574,-0.102 -4.697,-1.909 -4.68,-5.52 v -11.76 h -6.12 v 23.04 h 6.12 l 0.12,-2.4" inkscape:connector-curvature="0" id="path58"/><path d="m 270.63,184.05 h 6 v 23.04 h -6 v -23.04 z" inkscape:connector-curvature="0" id="path60"/><path d="m 270.03,212.85 c 0.045,1.84 1.581,3.466 3.48,3.48 1.986,-0.014 3.522,-1.64 3.48,-3.6 0.042,-1.88 -1.494,-3.461 -3.48,-3.48 -1.899,0.019 -3.435,1.6 -3.48,3.6" inkscape:connector-curvature="0" id="path62"/><path d="m 29.07,142.05 c -0.057,3.283 1.254,5.496 4.44,6.96 -3.006,1.608 -4,3.596 -3.96,6.6 -0.04,4.314 4.026,9.147 11.4,9.12 7.895,0.027 11.328,-3.993 11.28,-9.24 0.048,-2.884 -0.901,-4.872 -3.84,-6.6 3.255,-1.479 4.385,-3.648 4.44,-6.96 -0.055,-6.174 -4.166,-10.104 -11.88,-10.08 -7.735,-0.024 -11.937,3.906 -11.88,10.2" inkscape:connector-curvature="0" id="path64"/><path d="m 45.63,155.25 c 0.053,2.28 -1.664,3.77 -4.68,3.72 -3.263,0.05 -4.98,-1.35 -4.92,-3.72 -0.06,-2.283 1.702,-3.729 4.92,-3.72 3.061,-0.009 4.733,1.392 4.68,3.72" inkscape:connector-curvature="0" id="path66" style="fill:#ffffff"/><path d="m 46.35,141.57 c 0.055,2.679 -1.797,4.305 -5.4,4.32 -3.534,-0.015 -5.522,-1.641 -5.52,-4.2 -0.002,-2.501 1.941,-4.082 5.52,-4.08 3.603,-0.002 5.455,1.579 5.4,3.96" inkscape:connector-curvature="0" id="path68" style="fill:#ffffff"/><path d="m 58.83,135.09 c -0.016,1.885 1.52,3.376 3.36,3.36 1.819,0.016 3.4,-1.475 3.36,-3.36 0.04,-1.819 -1.541,-3.355 -3.36,-3.36 -1.84,0.005 -3.376,1.496 -3.36,3.36" inkscape:connector-curvature="0" id="path70"/><path d="m 84.87,131.85 c -8.932,-0.024 -13.449,5.758 -13.44,16.44 -0.009,11.272 4.689,16.738 13.44,16.68 9.137,0.058 13.474,-5.859 13.44,-16.56 0.034,-10.712 -4.393,-16.584 -13.44,-16.56" inkscape:connector-curvature="0" id="path72"/><path d="m 84.87,158.97 c -4.686,0.005 -6.764,-3.473 -6.72,-10.56 -0.044,-6.601 2.17,-10.531 6.72,-10.56 4.711,0.029 6.834,3.553 6.84,10.56 -0.006,6.861 -2.129,10.565 -6.84,10.56" inkscape:connector-curvature="0" id="path74" style="fill:#ffffff"/><path d="m 117.87,131.85 c -8.946,-0.024 -13.463,5.758 -13.44,16.44 -0.023,11.272 4.675,16.738 13.44,16.68 9.124,0.058 13.461,-5.859 13.44,-16.56 0.021,-10.712 -4.406,-16.584 -13.44,-16.56" inkscape:connector-curvature="0" id="path76"/><path d="m 117.87,158.97 c -4.699,0.005 -6.777,-3.473 -6.72,-10.56 -0.057,-6.601 2.156,-10.531 6.72,-10.56 4.697,0.029 6.82,3.553 6.84,10.56 -0.02,6.861 -2.143,10.565 -6.84,10.56" inkscape:connector-curvature="0" id="path78" style="fill:#ffffff"/><path d="m 146.31,143.97 h 9.48 v 4.92 h -9.48 v -4.92 z" inkscape:connector-curvature="0" id="path80"/><path d="m 170.67,153.33 c -0.021,2.528 0.566,4.742 1.8,6.72 2.018,3.352 5.09,4.617 9.6,4.56 8.32,0.057 12.702,-5.274 12.72,-15.96 -0.018,-11.178 -4.4,-16.779 -13.08,-16.8 -4.827,0.021 -8.938,1.918 -10.2,6.72 l 6,2.16 c 0.592,-1.405 1.405,-2.941 4.44,-3 3.922,0.059 6.452,3.356 6.12,6.96 -0.3,-0.216 -2.785,-2.339 -6.84,-2.28 -6.47,-0.059 -10.581,4.188 -10.56,10.92" inkscape:connector-curvature="0" id="path82"/><path d="m 177.27,153.33 c -0.026,-3.028 2.097,-5.197 4.92,-5.16 3.231,-0.037 5.354,2.177 5.4,5.4 -0.046,3.192 -2.169,5.36 -5.28,5.4 -2.988,-0.04 -5.066,-2.299 -5.04,-5.64" inkscape:connector-curvature="0" id="path84" style="fill:#ffffff"/><path d="m 200.79,135.09 c -0.04,1.885 1.496,3.376 3.36,3.36 1.795,0.016 3.377,-1.475 3.36,-3.36 0.017,-1.819 -1.565,-3.355 -3.36,-3.36 -1.864,0.005 -3.4,1.496 -3.36,3.36" inkscape:connector-curvature="0" id="path86"/><path d="m 212.55,142.17 6.96,1.2 c 0.217,-3.684 3.243,-5.401 6.12,-5.4 3.177,-0.001 4.984,1.626 5.04,4.32 -0.056,2.681 -1.592,3.991 -4.8,3.96 h -3.12 v 5.76 c 7.592,0.054 7.56,3.48 7.56,3.48 0.032,2.627 -1.865,4.118 -5.28,4.08 -3.09,0.038 -5.077,-1.092 -5.52,-5.04 l -6.84,0.96 c 0.823,6.105 5.973,9.809 12.48,9.84 6.999,-0.031 11.652,-4.232 11.64,-9.48 0.012,-1.844 -0.078,-4.961 -3.48,-6.6 3.763,-1.93 3.583,-3.782 3.6,-7.08 -0.017,-6.459 -3.044,-10.164 -11.88,-10.2 -7.201,0.036 -11.402,3.424 -12.48,10.2" inkscape:connector-curvature="0" id="path88"/><path d="m 257.79,131.85 c -9.002,-0.024 -13.52,5.758 -13.56,16.44 0.04,11.272 4.738,16.738 13.44,16.68 9.187,0.058 13.524,-5.859 13.56,-16.56 -0.036,-10.712 -4.463,-16.584 -13.44,-16.56" inkscape:connector-curvature="0" id="path90"/><path d="m 257.79,158.97 c -4.756,0.005 -6.834,-3.473 -6.84,-10.56 0.006,-6.601 2.219,-10.531 6.84,-10.56 4.64,0.029 6.763,3.553 6.72,10.56 0.043,6.861 -2.08,10.565 -6.72,10.56" inkscape:connector-curvature="0" id="path92" style="fill:#ffffff"/><path d="m 292.35,132.09 c -5.005,-0.038 -7.941,2.762 -7.92,7.2 -0.021,3.829 2.328,7.94 13.32,7.92 v 1.32 c 0.03,1.32 -1.325,2.178 -3.36,2.16 -1.805,0.018 -4.786,-1.021 -6.96,-2.28 l -2.88,4.44 c 1.575,1.201 5.506,3.415 9.72,3.36 6.356,0.055 9.654,-2.385 9.6,-6.84 v -9.48 c 0.054,-2.056 0.596,-2.643 2.76,-3 l -2.16,-4.8 c -1.088,0.007 -4.115,0.413 -5.64,2.4 -2.044,-1.987 -3.941,-2.438 -6.48,-2.4" inkscape:connector-curvature="0" id="path94"/><path d="m 294.27,137.13 c 2.562,0.026 3.691,0.749 3.72,2.64 v 2.88 l -4.68,-0.72 c -2.035,-0.256 -2.441,-1.341 -2.4,-2.64 -0.041,-1.456 0.862,-2.134 3.36,-2.16" inkscape:connector-curvature="0" id="path96" style="fill:#ffffff"/><path d="m 334.23,150.33 c -2.682,0.017 -3.947,-1.926 -3.96,-4.32 v -13.32 h -6.24 v 13.08 c -0.026,3.131 -1.246,4.577 -3.24,4.56 -2.478,0.017 -4.014,-2.061 -3.96,-4.32 v -13.32 h -6.12 v 22.8 h 6.12 v -1.68 c 1.843,1.732 3.108,2.364 5.16,2.4 2.962,-0.036 3.911,-0.442 6.24,-2.88 2.414,2.393 4.131,2.935 6.72,2.88 4.91,0.055 8.569,-4.463 8.52,-9.24 v -14.28 h -6.12 v 13.08 c 0.025,3.131 -1.195,4.577 -3.12,4.56" inkscape:connector-curvature="0" id="path98"/><path d="m 53.31,92.97 h -3.96 v -5.4 h -6.48 v 5.4 H 25.71 v 5.88 l 15.36,20.52 h 8.28 v -20.4 h 3.96 v -6" inkscape:connector-curvature="0" id="path100"/><path d="m 33.03,98.97 h 9.84 v 13.32 L 33.03,98.97" inkscape:connector-curvature="0" id="path102" style="fill:#ffffff"/><path d="m 59.07,89.97 c -0.024,1.833 1.511,3.323 3.36,3.36 1.811,-0.037 3.392,-1.527 3.36,-3.36 0.032,-1.872 -1.549,-3.408 -3.36,-3.36 -1.849,-0.048 -3.384,1.443 -3.36,3.36" inkscape:connector-curvature="0" id="path104"/><path d="m 70.83,96.93 6.96,1.2 c 0.232,-3.617 3.258,-5.334 6.24,-5.28 3.072,-0.054 4.879,1.573 4.92,4.32 -0.041,2.628 -1.577,3.938 -4.8,3.96 h -3 v 5.76 c 7.488,0.001 7.44,3.48 7.44,3.48 0.048,2.574 -1.85,4.065 -5.28,4.08 -3.075,-0.015 -5.062,-1.145 -5.52,-5.16 l -6.84,1.08 c 0.838,6.052 5.988,9.756 12.48,9.72 7.015,0.036 11.667,-4.165 11.64,-9.36 0.027,-1.897 -0.063,-5.014 -3.36,-6.72 3.658,-1.863 3.478,-3.715 3.48,-7.08 C 95.188,90.538 92.161,86.833 83.31,86.85 76.124,86.833 71.923,90.221 70.83,96.93" inkscape:connector-curvature="0" id="path106"/><path d="m 116.07,86.61 c -8.987,0.043 -13.505,5.825 -13.56,16.56 0.055,11.219 4.753,16.685 13.44,16.68 9.202,0.005 13.539,-5.912 13.56,-16.68 -0.021,-10.645 -4.448,-16.517 -13.44,-16.56" inkscape:connector-curvature="0" id="path108"/><path d="m 116.07,113.85 c -4.741,-0.048 -6.819,-3.526 -6.84,-10.56 0.021,-6.654 2.234,-10.584 6.84,-10.56 4.655,-0.024 6.778,3.5 6.72,10.56 0.058,6.808 -2.065,10.512 -6.72,10.56" inkscape:connector-curvature="0" id="path110" style="fill:#ffffff"/><path d="m 144.39,98.85 h 9.6 v 4.92 h -9.6 v -4.92 z" inkscape:connector-curvature="0" id="path112"/><path d="m 192.63,98.85 c 0.029,-5.647 -2.049,-11.7 -10.8,-11.76 -8.37,0.06 -12.752,5.616 -12.72,16.44 -0.032,11.085 3.853,16.325 12.48,16.32 5.693,0.005 8.765,-1.892 10.44,-6.84 l -5.88,-2.16 c -0.629,1.507 -1.668,3.223 -5.16,3.24 -3.329,-0.017 -5.723,-3.043 -5.4,-6.84 0.987,0.905 3.878,2.261 6.84,2.28 6.434,-0.019 10.229,-3.95 10.2,-10.68" inkscape:connector-curvature="0" id="path114"/><path d="m 186.39,98.49 c -0.011,3.025 -2.088,5.238 -5.04,5.28 -3.147,-0.042 -5.315,-2.255 -5.28,-5.52 -0.035,-3.15 2.133,-5.273 5.16,-5.28 3.072,0.007 5.149,2.221 5.16,5.52" inkscape:connector-curvature="0" id="path116" style="fill:#ffffff"/><path d="m 198.51,89.97 c 0.057,1.833 1.593,3.323 3.36,3.36 1.892,-0.037 3.473,-1.527 3.48,-3.36 -0.007,-1.872 -1.588,-3.408 -3.36,-3.36 -1.887,-0.048 -3.423,1.443 -3.48,3.36" inkscape:connector-curvature="0" id="path118"/><path d="m 210.39,96.93 6.96,1.2 c 0.193,-3.617 3.22,-5.334 6.12,-5.28 3.153,-0.054 4.96,1.573 4.92,4.32 0.04,2.628 -1.496,3.938 -4.68,3.96 h -3.12 v 5.76 c 7.569,0.001 7.56,3.48 7.56,3.48 0.009,2.574 -1.888,4.065 -5.28,4.08 -3.113,-0.015 -5.101,-1.145 -5.64,-5.16 l -6.72,1.08 c 0.799,6.052 5.949,9.756 12.48,9.72 6.976,0.036 11.629,-4.165 11.64,-9.36 -0.011,-1.897 -0.102,-5.014 -3.48,-6.72 3.74,-1.863 3.559,-3.715 3.6,-7.08 -0.041,-6.392 -3.068,-10.097 -11.88,-10.08 -7.224,-0.017 -11.425,3.371 -12.48,10.08" inkscape:connector-curvature="0" id="path120"/><path d="m 255.51,86.61 c -8.906,0.043 -13.423,5.825 -13.44,16.56 0.017,11.219 4.715,16.685 13.44,16.68 9.163,0.005 13.5,-5.912 13.56,-16.68 -0.06,-10.645 -4.487,-16.517 -13.56,-16.56" inkscape:connector-curvature="0" id="path122"/><path d="m 255.63,113.85 c -4.78,-0.048 -6.858,-3.526 -6.84,-10.56 -0.018,-6.654 2.196,-10.584 6.84,-10.56 4.616,-0.024 6.74,3.5 6.72,10.56 0.02,6.808 -2.104,10.512 -6.72,10.56" inkscape:connector-curvature="0" id="path124" style="fill:#ffffff"/><path d="m 305.19,98.73 c 0.029,-6.792 -3.856,-11.626 -9.72,-11.64 -3.171,0.014 -3.623,0.331 -6.48,2.16 v -8.52 h -6 v 29.76 h 6 v -1.2 c 1.999,1.621 3.218,2.299 5.88,2.28 6.78,0.019 10.349,-5.086 10.32,-12.84" inkscape:connector-curvature="0" id="path126"/><path d="m 288.99,96.93 c 0.056,-2.372 2.722,-4.45 5.16,-4.44 3.434,-0.01 4.744,2.701 4.8,6.72 -0.056,4.293 -1.366,6.822 -5.04,6.84 -4.457,-0.018 -4.864,-3.948 -4.92,-5.52 v -3.6" inkscape:connector-curvature="0" id="path128" style="fill:#ffffff"/><path d="m 333.99,105.21 c -2.674,-0.036 -3.939,-1.978 -3.96,-4.44 v -13.2 h -6.24 v 13.08 c -0.018,3.078 -1.238,4.524 -3.24,4.56 -2.47,-0.036 -4.006,-2.114 -3.96,-4.44 v -13.2 h -6.12 v 22.8 h 6.12 v -1.68 c 1.852,1.679 3.117,2.311 5.16,2.28 2.971,0.031 3.919,-0.375 6.24,-2.88 2.423,2.46 4.139,3.002 6.72,3 4.918,0.002 8.577,-4.516 8.52,-9.36 V 87.57 h -6.12 v 13.08 c 0.033,3.078 -1.186,4.524 -3.12,4.56" inkscape:connector-curvature="0" id="path130"/><path d="m 141.15,45.21 22.68,22.8 h 22.68 l -14.88,-15 h 60.84 V 37.53 h -60.84 l 14.88,-14.88 h -22.68 l -22.68,22.56" inkscape:connector-curvature="0" id="path132"/></g></svg>