<?xml version="1.0" encoding="UTF-8" standalone="no"?>
<!-- Created with Inkscape (http://www.inkscape.org/) -->
<svg xmlns:dc="http://purl.org/dc/elements/1.1/" xmlns:cc="http://creativecommons.org/ns#" xmlns:rdf="http://www.w3.org/1999/02/22-rdf-syntax-ns#" xmlns:svg="http://www.w3.org/2000/svg" xmlns="http://www.w3.org/2000/svg" xmlns:sodipodi="http://sodipodi.sourceforge.net/DTD/sodipodi-0.dtd" xmlns:inkscape="http://www.inkscape.org/namespaces/inkscape" width="506.39999" height="863.87408" id="svg2" sodipodi:version="0.32" inkscape:version="0.48.4 r9939" version="1.0" sodipodi:docname="33.svg" inkscape:output_extension="org.inkscape.output.svg.inkscape">
  <defs id="defs4">
    <inkscape:perspective sodipodi:type="inkscape:persp3d" inkscape:vp_x="0 : 300.5 : 1" inkscape:vp_y="0 : 1000 : 0" inkscape:vp_z="601 : 300.5 : 1" inkscape:persp3d-origin="300.5 : 200.33333 : 1" id="perspective3380"/>
    <inkscape:perspective id="perspective3990" inkscape:persp3d-origin="375 : 250 : 1" inkscape:vp_z="750 : 375 : 1" inkscape:vp_y="0 : 1000 : 0" inkscape:vp_x="0 : 375 : 1" sodipodi:type="inkscape:persp3d"/>
  </defs>
  <sodipodi:namedview id="base" pagecolor="#ffffff" bordercolor="#666666" borderopacity="1.0" gridtolerance="10000" guidetolerance="10" objecttolerance="10" inkscape:pageopacity="0.0" inkscape:pageshadow="2" inkscape:zoom="0.41331893" inkscape:cx="79.568684" inkscape:cy="419.21012" inkscape:document-units="px" inkscape:current-layer="layer1" width="601px" height="601px" inkscape:window-width="1280" inkscape:window-height="1001" inkscape:window-x="-8" inkscape:window-y="-8" showgrid="false" fit-margin-top="3.2" fit-margin-left="3.2" fit-margin-right="3.2" fit-margin-bottom="3.2" inkscape:window-maximized="1" showguides="true" inkscape:guide-bbox="true"/>
  <metadata id="metadata7">
    <rdf:RDF>
      <cc:Work rdf:about="">
        <dc:format>image/svg+xml</dc:format>
        <dc:type rdf:resource="http://purl.org/dc/dcmitype/StillImage"/>
        <dc:title/>
      </cc:Work>
    </rdf:RDF>
  </metadata>
  <g inkscape:label="Layer 1" inkscape:groupmode="layer" id="layer1" transform="translate(2443.5706,3947.2933)">
    <rect style="color:#000000;fill:#000000;fill-opacity:1;fill-rule:nonzero;stroke:none;stroke-width:0.8735441;marker:none;visibility:visible;display:inline;overflow:visible" id="rect3653" width="0" height="27.202072" x="578.73834" y="298.1684" rx="249.48199" ry="27.202072"/>
    <path inkscape:connector-curvature="0" d="m -2392.6075,-3944.0933 c -26.2972,0 -47.7631,21.1722 -47.7631,47.4862 0,246.2024 0,515.9968 0,762.1992 0,26.314 21.4659,47.7887 47.7631,47.7887 134.8219,0 269.6519,0 404.4731,0 26.2972,0 47.7638,-21.4747 47.7638,-47.7887 0,-246.2024 0,-515.9968 0,-762.1992 0,-26.314 -21.4666,-47.4862 -47.7638,-47.4862 -134.8212,0 -269.6512,0 -404.4731,0 z" style="fill:#ffffff;fill-opacity:1;fill-rule:evenodd;stroke:#1478c7;stroke-opacity:1;stroke-width:6;stroke-miterlimit:4;stroke-dasharray:none" id="path7377"/>
    <path inkscape:connector-curvature="0" d="m -2392.6075,-3920.199 c -13.2995,0 -23.8775,10.5861 -23.8775,23.5919 0,246.2024 0,515.9968 0,762.1992 0,13.0058 10.578,23.8944 23.8775,23.8944 134.8219,0 269.6519,0 404.4731,0 13.3002,0 23.8775,-10.8886 23.8775,-23.8944 0,-246.2024 0,-515.9968 0,-762.1992 0,-13.0058 -10.5773,-23.5919 -23.8775,-23.5919 -134.8212,0 -269.6512,0 -404.4731,0" style="fill:#1478c7;fill-opacity:1;fill-rule:evenodd;stroke:none" id="path7379"/>
    <path inkscape:connector-curvature="0" d="m -2190.3706,-3879.9718 -160.6735,0 c -6.5869,0 -11.9391,5.3515 -11.9391,11.9472 l 0,261.9303 c 0,6.595 5.3522,11.9472 11.9391,11.9472 l 321.347,0 c 6.5869,0 11.9384,-5.3522 11.9384,-11.9472 l 0,-261.9303 c 0,-6.5957 -5.3515,-11.9472 -11.9384,-11.9472 l -160.6735,0" style="fill:#ffffff;fill-opacity:1;fill-rule:evenodd;stroke:none" id="path7381"/>
    <path inkscape:connector-curvature="0" d="m -2246.1409,-3856.0775 -63.1805,0 c -16.4505,0 -29.7755,13.3419 -29.7755,29.7924 l 0,178.7538 c 0,16.4505 13.325,29.7923 29.7755,29.7923 l 126.3611,0 c 16.4417,0 29.7755,-13.3418 29.7755,-29.7923 l 0,-178.7538 c 0,-16.4505 -13.3338,-29.7924 -29.7755,-29.7924 l -63.1806,0 z m -18.5932,115.5398 0,0 c 26.7005,0 48.3687,21.5418 48.3687,48.0911 0,26.5493 -21.6682,48.0911 -48.3687,48.0911 -26.7005,0 -48.368,-21.5418 -48.368,-48.0911 0,-26.5493 21.6675,-48.0911 48.368,-48.0911 z m 0,14.2156 0,0 c 18.8534,0 34.1612,15.1734 34.1612,33.8755 0,18.7021 -15.3078,33.8755 -34.1612,33.8755 -18.8533,0 -34.1612,-15.1734 -34.1612,-33.8755 0,-18.7021 15.3079,-33.8755 34.1612,-33.8755 z m 59.551,-113.4225 0,0 c 15.6863,0 28.4145,12.7369 28.4145,28.4312 0,15.6943 -12.7282,28.4313 -28.4145,28.4313 -15.6856,0 -28.4144,-12.737 -28.4144,-28.4313 0,-15.6943 12.7288,-28.4312 28.4144,-28.4312 z m 0,13.6107 0,0 c 8.1752,0 14.8125,6.6373 14.8125,14.8205 0,8.1832 -6.6373,14.8206 -14.8125,14.8206 -8.1745,0 -14.8118,-6.6374 -14.8118,-14.8206 0,-8.1832 6.6373,-14.8205 14.8118,-14.8205 z m 63.7855,144.8783 12.0903,0 0,-135.1996 -12.0903,0 0,135.1996 z m 23.8775,-126.4283 12.0904,0 0,126.4283 -12.0904,0 0,-126.4283 z m 23.8863,137.6193 0,-118.8667 12.3921,0 0,22.0795 39.5974,0 0,74.7077 -39.5974,0 0,37.2025 -60.1559,0 0,-15.123 47.7638,0" style="fill:#000000;fill-opacity:1;fill-rule:evenodd;stroke:none" id="path7383"/>
    <path inkscape:connector-curvature="0" d="m -2190.4129,-3522.4137 c 102.4586,0 185.6096,83.2014 185.6096,185.7105 0,102.5084 -83.151,185.7104 -185.6096,185.7104 -102.458,0 -185.6097,-83.202 -185.6097,-185.7104 0,-102.5091 83.1517,-185.7105 185.6097,-185.7105" style="fill:#ffffff;fill-opacity:1;fill-rule:evenodd;stroke:none" id="path7385"/>
    <path inkscape:connector-curvature="0" d="m -2190.4129,-3515.533 c 98.4507,0 178.3505,79.9502 178.3505,178.4514 0,98.5011 -79.8998,178.4514 -178.3505,178.4514 -98.4508,0 -178.3506,-79.9503 -178.3506,-178.4514 0,-98.5012 79.8998,-178.4514 178.3506,-178.4514" style="fill:#e22739;fill-opacity:1;fill-rule:evenodd;stroke:none" id="path7387"/>
    <path inkscape:connector-curvature="0" d="m -2190.2866,-3479.7164 c 78.7572,0 142.6852,63.9535 142.6852,142.7611 0,78.8077 -63.928,142.7612 -142.6852,142.7612 -78.7572,0 -142.6858,-63.9535 -142.6858,-142.7612 0,-78.8076 63.9286,-142.7611 142.6858,-142.7611" style="fill:#ffffff;fill-opacity:1;fill-rule:evenodd;stroke:none" id="path7389"/>
    <path inkscape:connector-curvature="0" d="m -2122.0482,-3379.7029 c 14.2068,0 28.1119,8.1664 28.7169,42.9493 0.3024,34.4804 -12.6953,45.0665 -28.7169,45.0665 -15.7199,0 -29.0281,-10.5861 -28.4232,-45.0665 0.3024,-34.7829 14.51,-42.9493 28.4232,-42.9493 z m 0,-25.1042 c 19.0381,-0.3025 56.2239,10.8885 56.2239,68.9609 0,57.7698 -35.0685,69.2633 -56.2239,69.2633 -21.1642,0 -55.9303,-11.4935 -55.9303,-69.2633 0,-58.0724 36.8833,-69.2634 55.9303,-68.9609" style="fill:#000000;fill-opacity:1;fill-rule:evenodd;stroke:none" id="path7391"/>
    <path inkscape:connector-curvature="0" d="m -2225.4392,-3339.1733 c 0.9074,0 15.4168,-6.3517 15.4168,-26.9189 0,-20.5673 -18.4333,-39.0174 -49.2674,-39.0174 -30.5317,0 -49.2754,15.123 -51.6951,40.8321 l 28.1119,2.7222 c 2.1173,-12.0984 8.1665,-19.6599 25.3899,-19.6599 17.2315,0 19.6511,12.0984 19.6511,16.6353 -0.3024,11.7959 -7.2503,16.0303 -29.6242,16.0303 l 0,22.3821 c 6.6541,0.3024 19.9543,0.3024 23.8775,2.7221 7.259,5.1418 7.259,8.7714 7.259,13.6107 0,3.0246 0,18.4501 -20.256,18.4501 -19.9456,0 -24.18,-10.8886 -26.2973,-21.1722 l -28.1119,5.1418 c 3.327,22.6845 19.0462,40.5296 54.1067,40.5296 34.7661,0 49.2754,-23.2894 49.2754,-41.7394 0,-18.1476 -11.1822,-29.0362 -17.8364,-30.5485" style="fill:#000000;fill-opacity:1;fill-rule:evenodd;stroke:none" id="path7393"/>
  </g>
</svg>