<?xml version="1.0" encoding="UTF-8" standalone="no"?>
<!-- Created with Inkscape (http://www.inkscape.org/) -->

<svg
   xmlns:dc="http://purl.org/dc/elements/1.1/"
   xmlns:cc="http://creativecommons.org/ns#"
   xmlns:rdf="http://www.w3.org/1999/02/22-rdf-syntax-ns#"
   xmlns:svg="http://www.w3.org/2000/svg"
   xmlns="http://www.w3.org/2000/svg"
   xmlns:sodipodi="http://sodipodi.sourceforge.net/DTD/sodipodi-0.dtd"
   xmlns:inkscape="http://www.inkscape.org/namespaces/inkscape"
   width="679.69598"
   height="600.79999"
   viewBox="0 0 679.69601 600.79995"
   id="svg4170"
   version="1.1"
   inkscape:version="0.91 r13725"
   sodipodi:docname="88.svg">
  <defs
     id="defs4172" />
  <sodipodi:namedview
     id="base"
     pagecolor="#ffffff"
     bordercolor="#666666"
     borderopacity="1.0"
     inkscape:pageopacity="0.0"
     inkscape:pageshadow="2"
     inkscape:zoom="0.90184107"
     inkscape:cx="427.71867"
     inkscape:cy="318.46125"
     inkscape:document-units="px"
     inkscape:current-layer="layer1"
     showgrid="false"
     units="px"
     inkscape:window-width="1920"
     inkscape:window-height="1057"
     inkscape:window-x="-8"
     inkscape:window-y="-8"
     inkscape:window-maximized="1"
     fit-margin-top="0"
     fit-margin-left="0"
     fit-margin-right="0"
     fit-margin-bottom="0" />
  <metadata
     id="metadata4175">
    <rdf:RDF>
      <cc:Work
         rdf:about="">
        <dc:format>image/svg+xml</dc:format>
        <dc:type
           rdf:resource="http://purl.org/dc/dcmitype/StillImage" />
        <dc:title></dc:title>
      </cc:Work>
    </rdf:RDF>
  </metadata>
  <g
     inkscape:label="Layer 1"
     inkscape:groupmode="layer"
     id="layer1"
     transform="translate(-1307.4511,1056.4094)">
    <path
       sodipodi:nodetypes="cccc"
       style="opacity:1;fill:none;fill-opacity:1;stroke:#ec1d24;stroke-width:90;stroke-linecap:butt;stroke-linejoin:round;stroke-miterlimit:4;stroke-dasharray:none;stroke-dashoffset:0;stroke-opacity:1"
       inkscape:transform-center-x="-0.00019827296"
       inkscape:transform-center-y="85.001303"
       d="m 1941.7507,-1011.0094 -588.9029,10e-5 294.4515,510.00434 z"
       id="path4703"
       inkscape:connector-curvature="0" />
    <path
       style="opacity:1;fill:#ffffff;fill-opacity:1;stroke:none;stroke-width:90;stroke-linecap:butt;stroke-linejoin:round;stroke-miterlimit:4;stroke-dasharray:none;stroke-dashoffset:0;stroke-opacity:1"
       d="m 1915.77,-996.00972 -536.9416,0 268.471,465.00521 z"
       id="rect4766"
       inkscape:connector-curvature="0"
       sodipodi:nodetypes="cccc" />
    <path
       inkscape:connector-curvature="0"
       style="fill:#000000;fill-rule:nonzero;stroke:none"
       d="m 1511.6955,-969.60832 c 0,0 31.8408,-0.1948 42.5424,25.6722 l -19.8042,10.26889 c -5.6101,-15.35459 -22.7382,-15.40329 -22.7382,-15.40329 -17.9134,0.049 -28.38,13.24565 -28.6062,35.20753 0.2263,21.1166 10.6928,34.61724 27.8727,34.47405 14.22,0.14319 24.5346,-9.71582 24.2052,-23.47169 l 0,-1.46698 -26.4057,0 0,-18.33727 47.6769,0 0,60.87972 -20.5378,0 0,-7.3349 c -10.263,10.50386 -26.4056,10.26886 -26.4056,10.26886 -27.0905,0.235 -49.0837,-23.58055 -49.1439,-55.74529 0.06,-30.93833 19.3228,-55.20663 51.3444,-55.01183 z"
       id="path15" />
    <path
       inkscape:connector-curvature="0"
       style="fill:#000000;fill-rule:nonzero;stroke:none"
       d="m 1586.5115,-861.77947 0,-107.00002 22,0 0,107.00002 z"
       id="path17"
       sodipodi:nodetypes="ccccc" />
    <path
       inkscape:connector-curvature="0"
       style="fill:#000000;fill-rule:nonzero;stroke:none"
       d="m 1810.9614,-925.59884 0,19.07187 -44.01,0 0,22.74181 52.08,0 0,22 -73.35,0 0,-106.99982 68.21,0 0,20.54 -46.94,0 0,22.64614 z"
       id="path21"
       sodipodi:nodetypes="ccccccccccccc" />
    <path
       inkscape:connector-curvature="0"
       style="fill:#000000;fill-rule:nonzero;stroke:none"
       d="m 1657.2112,-820.00946 18.4839,0 23.4,70.42011 -15.404,0 -3.596,-12.46996 -27.2839,0 -3.596,12.46996 -15.404,0 z"
       id="path25"
       sodipodi:nodetypes="ccccccccc" />
    <path
       inkscape:connector-curvature="0"
       style="fill:#ffffff;fill-rule:nonzero;stroke:none"
       d="m 1666.489,-804.52935 -9.5358,30 19,0 z"
       id="path27"
       sodipodi:nodetypes="cccc" />
    <path
       inkscape:connector-curvature="0"
       style="fill:#000000;fill-rule:nonzero;stroke:none"
       d="m 1719.6407,-820.00946 13.2104,24.93994 13.9296,-24.93994 16.87,0 -23.475,41.81 0,28.61011 -13.93,0 0,-28.61011 -23.475,-41.81 z"
       id="path29"
       sodipodi:nodetypes="cccccccccc" />
    <path
       sodipodi:nodetypes="cccccccccccccc"
       id="path4198"
       d="m 1627.9413,-820.00946 -15.4041,0 -11.0029,47.68011 -10.2694,-47.68011 -16.1378,1.1e-4 -10.269,47.68 -11.003,-47.68 -15.404,0 17.605,70.42 16.871,0 10.269,-47.68004 10.2694,47.68 16.8711,0 z"
       style="fill:#000000;fill-rule:nonzero;stroke:none"
       inkscape:connector-curvature="0" />
    <path
       inkscape:connector-curvature="0"
       style="fill:#000000;fill-rule:nonzero;stroke:none"
       d="m 1676.6924,-888.9016 22.7192,-79.88356 21.9863,0 -30.048,107 -30.0479,0 -32.2466,-107 23.4521,0 24.1849,79.88356 z"
       id="path4830" />
  </g>
</svg>
