<?xml version="1.0" encoding="UTF-8" standalone="no"?>
<!-- Created with Inkscape (http://www.inkscape.org/) -->
<svg xmlns:dc="http://purl.org/dc/elements/1.1/" xmlns:cc="http://creativecommons.org/ns#" xmlns:rdf="http://www.w3.org/1999/02/22-rdf-syntax-ns#" xmlns:svg="http://www.w3.org/2000/svg" xmlns="http://www.w3.org/2000/svg" xmlns:inkscape="http://www.inkscape.org/namespaces/inkscape" version="1.1" width="266.45001" height="80.25" id="svg2" xml:space="preserve"><metadata id="metadata8"><rdf:RDF><cc:Work rdf:about=""><dc:format>image/svg+xml</dc:format><dc:type rdf:resource="http://purl.org/dc/dcmitype/StillImage"/></cc:Work></rdf:RDF></metadata><defs id="defs6"><clipPath id="clipPath16"><path d="M 0.059998,64.2 H 213.22 V 0 H 0.059998 v 64.2 z" inkscape:connector-curvature="0" id="path18"/></clipPath><clipPath id="clipPath34"><path d="M 0.059998,64.2 H 213.22 V 0 H 0.059998 v 64.2 z" inkscape:connector-curvature="0" id="path36"/></clipPath></defs><g transform="matrix(1.25,0,0,-1.25,-0.074998,80.25)" id="g10"><g id="g12"><g clip-path="url(#clipPath16)" id="g14"><path d="M 24.922,0 C 20.172,0 15.992,2.5918 13.832,6.4785 9.5078,13.971 5.1875,21.4585 0.863,28.9505 0.28906,29.8165 0,30.9675 0,32.1195 c 0,1.152 0.28906,2.305 0.86328,3.172 4.3242,7.488 8.6445,14.98 12.969,22.469 2.16,3.892 6.34,6.484 11.09,6.484 h 175.48 c 7.055,0 12.821,-5.766 12.821,-12.82 v -38.604 c 0,-7.0603 -5.77,-12.82 -12.82,-12.82 h -175.48" inkscape:connector-curvature="0" id="path20" style="fill:#231f20;fill-rule:evenodd"/></g></g><path d="m 24.922,6.4785 c -2.305,0 -4.461,1.2968 -5.469,3.1699 -4.328,7.4906 -8.644,14.983 -12.969,22.471 4.325,7.492 8.641,14.981 12.969,22.473 1.008,1.871 3.164,3.168 5.469,3.168 h 175.33 c 3.605,0 6.484,-2.881 6.484,-6.336 v -38.604 c 0,-3.6052 -2.879,-6.4841 -6.484,-6.4841 -58.344,0 -116.84,0 -175.33,0.1426" inkscape:connector-curvature="0" id="path22" style="fill:#ffffff;fill-rule:evenodd"/><path d="m 51.719,25.496 3.605,3.311 c 4.754,-3.024 8.5,-3.311 9.364,-3.311 1.437,0 2.734,1.152 2.734,2.734 0,1.442 -1.149,2.305 -2.016,2.594 -0.863,0.143 -4.32,0.864 -5.617,1.151 -1.441,0.289 -6.055,1.441 -6.055,6.773 0,5.328 3.891,7.199 8.36,7.199 4.469,0 7.777,-1.295 10.804,-3.744 l -3.46,-3.168 c -1.868,1.297 -4.172,2.449 -7.633,2.449 -2.016,0 -2.45,-1.873 -2.45,-2.449 0,-0.576 0.575,-2.015 1.872,-2.305 1.296,-0.287 4.757,-1.15 5.336,-1.15 1.437,-0.144 6.335,-2.021 6.335,-7.061 0,-4.464 -3.171,-7.492 -8.929,-7.492 -5.766,0 -10.235,2.596 -12.25,4.469" inkscape:connector-curvature="0" id="path24" style="fill:#231f20;fill-rule:evenodd"/><path d="m 157.75,34.135 -4.32,-1.44 c -0.43,1.297 -1.582,2.741 -3.453,2.741 -2.024,0 -4.325,-1.877 -4.325,-5.477 0,-3.6 2.161,-5.471 4.18,-5.471 2.16,0 3.457,2.016 3.746,3.024 l 4.461,-1.008 c -0.578,-2.16 -3.312,-5.908 -7.922,-5.908 -4.754,0 -9.074,3.603 -9.074,9.508 0,5.763 4.754,9.22 8.645,9.22 4.031,0 7.199,-2.594 8.062,-5.189" inkscape:connector-curvature="0" id="path26" style="fill:#231f20;fill-rule:evenodd"/><path d="m 82.117,31.832 h 7.063 c 0,1.584 -1.301,3.459 -3.461,3.459 -2.305,0 -3.602,-1.732 -3.602,-3.459 m 0,-3.313 H 93.93 c 0.148,2.016 -0.719,10.661 -8.352,10.661 -6.633,0 -8.215,-6.916 -8.215,-9.076 0,-2.161 1.442,-9.221 8.789,-9.221 4.18,0 6.34,2.308 6.918,3.029 l -2.882,2.592 c 0,0 -1.297,-1.584 -4.036,-1.584 -2.589,0 -4.035,1.871 -4.035,3.599" inkscape:connector-curvature="0" id="path28" style="fill:#231f20;fill-rule:evenodd"/><g id="g30"><g clip-path="url(#clipPath34)" id="g32"><path d="M 134.56,21.463 V 38.604" inkscape:connector-curvature="0" id="path38" style="fill:none;stroke:#231f20;stroke-width:4.61199999;stroke-miterlimit:10"/></g></g><path d="m 134.41,45.479 c 1.434,0 2.594,-1.096 2.594,-2.448 0,-1.351 -1.16,-2.447 -2.594,-2.447 -1.43,0 -2.59,1.096 -2.59,2.447 0,1.352 1.16,2.448 2.59,2.448" inkscape:connector-curvature="0" id="path40" style="fill:#231f20;fill-rule:evenodd"/><path d="m 108.62,34.855 v 4.18 c -4.32,0 -5.039,-1.008 -6.047,-2.015 v 1.728 H 97.964 V 21.604 h 4.609 v 8.5 c 0,2.591 2.875,4.751 6.047,4.751" inkscape:connector-curvature="0" id="path42" style="fill:#231f20;fill-rule:evenodd"/><path d="m 179.22,24.344 3.601,2.879 c 1.153,-1.44 4.035,-2.735 5.188,-2.735 1.152,0 2.305,1.008 2.305,1.871 0,0.864 -0.719,1.153 -1.297,1.297 -0.578,0.287 -3.024,0.863 -3.453,0.863 -0.579,0.145 -4.758,0.864 -4.758,5.04 0,4.181 4.758,5.332 7.492,5.332 2.734,0 5.328,-0.864 7.203,-2.592 l -2.883,-3.028 c -1.73,1.44 -2.883,2.02 -4.32,2.02 -1.297,0 -2.449,-0.58 -2.449,-1.588 0,-1.008 0.722,-1.152 1.152,-1.295 0.43,0 3.453,-0.72 4.176,-0.865 0.722,-0.145 4.179,-1.152 4.179,-5.184 0,-3.892 -3.894,-5.476 -7.492,-5.476 -3.746,0 -7.347,1.877 -8.644,3.461" inkscape:connector-curvature="0" id="path44" style="fill:#231f20;fill-rule:evenodd"/><path d="m 121.3,21.459 h 1.871 l 6.195,17.145 h -5.328 l -3.746,-11.524 -3.746,11.524 h -5.043 l 6.195,-17.145 h 3.602" inkscape:connector-curvature="0" id="path46" style="fill:#231f20;fill-rule:evenodd"/><path d="m 165.1,31.832 h 7.058 c 0,1.584 -1.297,3.459 -3.597,3.459 -2.165,0 -3.461,-1.732 -3.461,-3.459 m -0.149,-3.313 h 11.82 c 0.29,2.016 -0.578,10.661 -8.21,10.661 -6.774,0 -8.215,-6.916 -8.215,-9.076 0,-2.161 1.441,-9.221 8.644,-9.221 4.321,0 6.481,2.308 7.059,3.029 l -2.883,2.592 c 0,0 -1.297,-1.584 -4.035,-1.584 -2.735,0 -4.18,1.871 -4.18,3.599" inkscape:connector-curvature="0" id="path48" style="fill:#231f20;fill-rule:evenodd"/><path d="m 24.922,12.963 -11.09,19.156 11.09,19.16 H 40.051 L 28.961,32.119 40.051,12.963 H 24.922" inkscape:connector-curvature="0" id="path50" style="fill:#231f20;fill-rule:evenodd"/></g></svg>