<?xml version="1.0" encoding="UTF-8" standalone="no"?>
<!-- Created with Inkscape (http://www.inkscape.org/) -->

<svg
   xmlns:dc="http://purl.org/dc/elements/1.1/"
   xmlns:cc="http://creativecommons.org/ns#"
   xmlns:rdf="http://www.w3.org/1999/02/22-rdf-syntax-ns#"
   xmlns:svg="http://www.w3.org/2000/svg"
   xmlns="http://www.w3.org/2000/svg"
   xmlns:inkscape="http://www.inkscape.org/namespaces/inkscape"
   version="1.1"
   width="491.70001"
   height="327"
   id="svg2"
   xml:space="preserve"><defs
     id="defs24" /><metadata
     id="metadata8"><rdf:RDF><cc:Work
         rdf:about=""><dc:format>image/svg+xml</dc:format><dc:type
           rdf:resource="http://purl.org/dc/dcmitype/StillImage" /></cc:Work></rdf:RDF></metadata><g
     transform="matrix(1.25,0,0,-1.25,-1.6875,327.26)"
     id="g10"><path
       d="M 394.71,32.73 C 394.66,14.784 380.11,0.233 362.19,0.21 H 33.87 C 15.892,0.23309 1.341,14.784 1.35,32.73 v 196.56 c -0.009,17.926 14.542,32.477 32.52,32.52 h 328.32 c 17.918,-0.043 32.469,-14.594 32.52,-32.52 V 32.73"
       inkscape:connector-curvature="0"
       id="path12" /><path
       d="m 377.79,32.73 c -0.008,-8.626 -7.003,-15.62 -15.6,-15.6 H 33.87 c -8.657,-0.02 -15.652,6.974 -15.6,15.6 v 196.56 c -0.052,8.605 6.943,15.6 15.6,15.6 h 328.32 c 8.597,0 15.592,-6.995 15.6,-15.6 V 32.73"
       inkscape:connector-curvature="0"
       id="path14"
       style="fill:#ffffff" /><path
       d="m 96.39,184.65 v -11.4 H 70.47 v -13.68 h 30.96 V 146.61 H 57.75 v 63.6 h 40.8 V 198.09 H 70.47 v -13.44 h 25.92"
       inkscape:connector-curvature="0"
       id="path16" /><path
       d="m 125.55,170.97 -14.28,21.36 h 13.44 l 7.56,-11.28 6.72,11.28 h 14.16 l -13.92,-21.36 16.08,-24.36 h -13.8 l -9.24,13.92 -9.12,-13.92 h -13.56 l 15.96,24.36"
       inkscape:connector-curvature="0"
       id="path18" /><path
       d="m 160.59,168.93 c 0.044,14.311 7.543,24.611 22.32,24.6 8.622,0.011 17.205,-5.681 20.4,-15 l -11.76,-4.44 c -1.554,5.086 -4.625,8.428 -9.36,8.4 -6.288,0.028 -8.817,-6.115 -8.76,-13.56 -0.057,-8.005 2.292,-13.245 9,-13.2 4.585,-0.045 7.024,2.485 9.12,8.28 l 12.12,-4.44 c -4.097,-10.299 -10.331,-14.726 -21.12,-14.76 -14.417,0.034 -21.916,9.52 -21.96,24.12"
       inkscape:connector-curvature="0"
       id="path20" /><path
       d="m 243.39,161.13 7.32,-7.92 c -5.854,-5.385 -9.739,-7.644 -18,-7.68 -14.236,0.036 -22.909,10.517 -22.92,24.48 0.011,12.508 8.052,23.441 20.4,23.4 13.491,0.041 21.803,-9.988 21.84,-24.96 v -3.24 h -30.24 c 0.298,-5.188 5.087,-8.983 11.16,-9 3.413,0.017 5.311,0.559 10.44,4.92"
       inkscape:connector-curvature="0"
       id="path22" /><path
       d="m 306.39,169.05 c 0.005,-13.636 -7.765,-23.303 -19.56,-23.28 -6.274,-0.023 -7.177,0.609 -12.72,4.2 v -16.92 h -12.12 v 59.64 h 12.12 v -2.52 c 3.826,3.19 6.265,4.545 11.52,4.56 13.628,-0.015 20.765,-10.224 20.76,-25.68"
       inkscape:connector-curvature="0"
       id="path24" /><path
       d="m 320.43,181.77 h -7.32 v 10.44 h 7.32 v 14.4 l 12.36,3.48 v -17.88 h 11.76 v -10.44 h -11.4 v -20.52 c -0.037,-4.661 1.679,-5.113 3.48,-5.16 1.813,0.047 3.168,0.408 6.84,1.08 l 2.76,-10.2 c -5.709,-1.494 -10.859,-2.036 -14.16,-2.04 -4.378,0.004 -11.696,2.263 -11.64,10.8 v 26.04"
       inkscape:connector-curvature="0"
       id="path26" /><path
       d="m 103.35,103.53 c -4.572,0.026 -7.734,-0.877 -12.72,-4.08 v 20.52 H 78.27 V 56.25 h 12.36 v 3.36 c 3.992,-3.396 7.787,-4.299 12.96,-4.32 12.625,0.021 20.124,9.327 20.16,23.4 -0.036,14.747 -7.173,24.866 -20.4,24.84"
       inkscape:connector-curvature="0"
       id="path28" /><path
       d="m 157.59,56.49 c -1.921,-0.908 -3.999,-1.089 -6.12,-1.08 -9.985,-0.009 -17.394,7.309 -17.4,16.56 v 30 h 12 V 75.93 c 0.022,-5.26 2.552,-9.055 7.56,-9 5.924,-0.055 9.628,3.017 9.6,7.68 v 27.36 h 12.24 V 56.25 h -12.6 v 3.36 c -2.232,-2.041 -3.316,-2.402 -5.28,-3.12"
       inkscape:connector-curvature="0"
       id="path30" /><path
       d="m 204.03,85.17 7.56,-1.08 c 8.014,-1.133 12.802,-6.734 12.84,-13.92 -0.038,-9.167 -7.717,-15.582 -18.6,-15.6 -9.536,0.018 -15.95,2.367 -21.96,8.4 l 9,7.92 c 3.695,-3.744 7.851,-5.912 12.24,-5.88 3.652,-0.032 6.543,1.504 6.6,3.84 -0.057,1.91 -1.954,3.717 -5.76,4.44 l -7.92,1.56 c -7.066,1.331 -11.222,6.662 -11.28,12.84 0.058,9.271 7.195,15.144 18.96,15.12 6.395,0.024 11.816,-1.061 18.12,-6.72 l -7.8,-8.28 c -3.112,3.73 -6.455,4.905 -10.56,4.92 -3.574,-0.015 -6.014,-2.003 -6,-4.32 -0.014,-1.478 0.8,-2.833 4.56,-3.24"
       inkscape:connector-curvature="0"
       id="path32" /><path
       d="m 264.99,70.77 7.32,-7.92 c -5.871,-5.371 -9.756,-7.63 -18.12,-7.68 -14.133,0.05 -22.806,10.531 -22.8,24.48 -0.006,12.523 8.035,23.455 20.4,23.4 13.474,0.055 21.786,-9.974 21.84,-24.96 v -3.12 h -30.24 c 0.281,-5.294 5.07,-9.088 11.16,-9.12 3.396,0.032 5.293,0.574 10.44,4.92"
       inkscape:connector-curvature="0"
       id="path34" /><path
       d="m 299.79,85.17 7.56,-1.08 c 8.07,-1.133 12.858,-6.734 12.84,-13.92 0.018,-9.167 -7.661,-15.582 -18.6,-15.6 -9.48,0.018 -15.894,2.367 -21.96,8.4 l 9,7.92 c 3.751,-3.744 7.907,-5.912 12.36,-5.88 3.588,-0.032 6.479,1.504 6.48,3.84 -0.001,1.91 -1.898,3.717 -5.64,4.44 l -8.04,1.56 c -7.01,1.331 -11.166,6.662 -11.16,12.84 -0.006,9.271 7.131,15.144 18.84,15.12 6.451,0.024 11.872,-1.061 18.24,-6.72 l -7.8,-8.28 c -3.176,3.73 -6.519,4.905 -10.68,4.92 -3.518,-0.015 -5.958,-2.003 -6,-4.32 0.042,-1.478 0.856,-2.833 4.56,-3.24"
       inkscape:connector-curvature="0"
       id="path36" /><path
       d="m 221.79,174.57 h 18.6 c -0.323,4.515 -4.84,8.581 -9.36,8.64 -4.605,-0.059 -8.49,-3.673 -9.24,-8.64"
       inkscape:connector-curvature="0"
       id="path38"
       style="fill:#ffffff" /><path
       d="m 274.11,165.45 c -0.059,-4.796 5.272,-8.952 10.08,-9 6.937,0.048 9.557,5.469 9.6,13.44 -0.043,8.653 -2.663,13.713 -10.08,13.68 -8.846,0.033 -9.659,-7.828 -9.6,-11.04 v -7.08"
       inkscape:connector-curvature="0"
       id="path40"
       style="fill:#ffffff" /><path
       d="m 100.71,66.21 c -6.359,-0.058 -9.792,3.376 -9.84,9.6 v 7.2 c 0.048,5.458 3.752,9.614 9.48,9.6 7.011,0.014 10.625,-5.407 10.68,-13.32 -0.055,-8.078 -3.578,-13.138 -10.32,-13.08"
       inkscape:connector-curvature="0"
       id="path42"
       style="fill:#ffffff" /><path
       d="m 243.39,84.21 h 18.48 c -0.22,4.529 -4.737,8.595 -9.24,8.64 -4.622,-0.045 -8.507,-3.659 -9.24,-8.64"
       inkscape:connector-curvature="0"
       id="path44"
       style="fill:#ffffff" /></g></svg>