<?xml version="1.0" encoding="UTF-8" standalone="no"?>
<!-- Created with Inkscape (http://www.inkscape.org/) -->
<svg xmlns:dc="http://purl.org/dc/elements/1.1/" xmlns:cc="http://creativecommons.org/ns#" xmlns:rdf="http://www.w3.org/1999/02/22-rdf-syntax-ns#" xmlns:svg="http://www.w3.org/2000/svg" xmlns="http://www.w3.org/2000/svg" xmlns:inkscape="http://www.inkscape.org/namespaces/inkscape" version="1.1" width="340.88" height="340.88" id="svg2" xml:space="preserve"><defs id="defs21"/><metadata id="metadata8"><rdf:RDF><cc:Work rdf:about=""><dc:format>image/svg+xml</dc:format><dc:type rdf:resource="http://purl.org/dc/dcmitype/StillImage"/></cc:Work></rdf:RDF></metadata><g transform="matrix(1.25,0,0,-1.25,-213.91,678.53)" id="g10"><g transform="scale(0.1,0.1)" id="g12"><path d="m 3075.2,5428.2 c 752.66,0.03 1363,-610.34 1363,-1363 0.03,-753.16 -610.34,-1363.5 -1363,-1364 -753.16,0.47 -1363.5,610.84 -1364,1364 0.47,752.66 610.84,1363 1364,1363" inkscape:connector-curvature="0" id="path14" style="fill:#808080"/><path d="m 3075.2,5157.2 c 602.7,-0.49 1091.5,-489.3 1092,-1092 -0.49,-603.2 -489.3,-1092 -1092,-1092 -603.2,0 -1092,488.8 -1092,1092 -0.01,602.7 488.8,1091.5 1092,1092" inkscape:connector-curvature="0" id="path16" style="fill:#ffffff"/><path d="m 2413.2,3917.2 c 82.96,-0.2 149.89,-67.13 150,-150 -0.11,-82.25 -67.04,-149.18 -150,-149 -82.16,-0.18 -149.1,66.75 -149,149 -0.1,82.87 66.84,149.8 149,150" inkscape:connector-curvature="0" id="path18" style="fill:#808080"/><path d="m 3596.2,3917.2 c 82.58,-0.2 149.52,-67.13 150,-150 -0.48,-82.25 -67.42,-149.18 -150,-149 -82.54,-0.18 -149.48,66.75 -149,149 -0.48,82.87 66.46,149.8 149,150" inkscape:connector-curvature="0" id="path20" style="fill:#808080"/><path d="m 2312.2,4392.2 c 0,0 -81.07,2.96 -97,-88 l -39,-220 c 0,0 -41.98,-10.57 -42,-55 0.02,-10.32 2,-22 2,-22 l 52,-239 h 60 c -0.11,91.19 73.99,164.82 165,165 91.81,-0.18 165.91,-74.28 166,-166 h 852 c -0.49,91.72 73.61,165.82 165,166 91.43,-0.18 165.53,-74.28 166,-166 h 173 v 708 c 0,0 1.11,42.03 -37,42 h -1178 c -38.2,0.03 -38,-42 -38,-42 v -331 h -76 v 204 c 0,0 -0.69,42.24 -36,42 l -258,2" inkscape:connector-curvature="0" id="path22" style="fill:#808080"/><path d="m 2413.2,3842.2 c 41.68,0.06 75.14,-33.41 75,-75 0.14,-40.97 -33.32,-74.44 -75,-74 -40.88,-0.44 -74.35,33.03 -74,74 -0.35,41.59 33.12,75.06 74,75" inkscape:connector-curvature="0" id="path24" style="fill:#ffffff"/><path d="m 3596.2,3842.2 c 41.3,0.06 74.77,-33.41 75,-75 -0.23,-40.97 -33.7,-74.44 -75,-74 -41.26,-0.44 -74.73,33.03 -75,74 0.27,41.59 33.74,75.06 75,75" inkscape:connector-curvature="0" id="path26" style="fill:#ffffff"/><path d="m 2246.2,4144.2 h 226 v 187 l -149,1 c 0,0 -44.1,-0.59 -48,-28 l -29,-160" inkscape:connector-curvature="0" id="path28" style="fill:#ffffff"/><path d="m 2300.2,2943.2 c -15.41,10.53 -30.47,21.42 -45,33 l 1909,1909 c 11.1,-15.05 21.95,-30.06 32,-45 l -1896,-1897" inkscape:connector-curvature="0" id="path30"/><path d="m 2211.2,3010.2 c -13.98,11.43 -27.99,23.39 -42,36 l 1925,1924 c 12.14,-13.54 24.05,-27.5 36,-42 l -1919,-1918" inkscape:connector-curvature="0" id="path32"/><path d="m 2129.2,3083.2 c -12.99,12.38 -25.91,25.34 -39,39 l 1928,1927 c 13.2,-12.63 26.2,-25.59 39,-39 l -1928,-1927" inkscape:connector-curvature="0" id="path34"/><path d="m 2054.2,3161.2 c -11.96,13.57 -23.91,27.61 -36,42 l 1919,1918 c 13.85,-11.55 27.88,-23.49 42,-36 l -1925,-1924" inkscape:connector-curvature="0" id="path36"/><path d="m 1985.2,3246.2 c -11.41,14.66 -22.27,29.71 -33,45 l 1897,1896 c 14.83,-10.26 29.93,-21.15 45,-32 l -1909,-1909" inkscape:connector-curvature="0" id="path38"/></g></g></svg>