<?xml version="1.0" encoding="UTF-8" standalone="no"?>
<svg xmlns:dc="http://purl.org/dc/elements/1.1/" xmlns:cc="http://creativecommons.org/ns#" xmlns:rdf="http://www.w3.org/1999/02/22-rdf-syntax-ns#" xmlns:svg="http://www.w3.org/2000/svg" xmlns="http://www.w3.org/2000/svg" xmlns:sodipodi="http://sodipodi.sourceforge.net/DTD/sodipodi-0.dtd" xmlns:inkscape="http://www.inkscape.org/namespaces/inkscape" width="900.3999" height="900.39996" viewBox="-50 -30 90.039898 90.040004" id="svg2" version="1.1" inkscape:version="0.48.4 r9939" sodipodi:docname="AJAX.svg">
  <metadata id="metadata14">
    <rdf:RDF>
      <cc:Work rdf:about="">
        <dc:format>image/svg+xml</dc:format>
        <dc:type rdf:resource="http://purl.org/dc/dcmitype/StillImage"/>
        <dc:title/>
      </cc:Work>
    </rdf:RDF>
  </metadata>
  <defs id="defs12"/>
  <sodipodi:namedview pagecolor="#ffffff" bordercolor="#666666" borderopacity="1" objecttolerance="10" gridtolerance="10" guidetolerance="10" inkscape:pageopacity="0" inkscape:pageshadow="2" inkscape:window-width="1920" inkscape:window-height="1057" id="namedview10" showgrid="false" fit-margin-top="0.2" fit-margin-left="0.2" fit-margin-right="0.2" fit-margin-bottom="0.2" inkscape:zoom="0.6375553" inkscape:cx="400.3105" inkscape:cy="310.25797" inkscape:window-x="-8" inkscape:window-y="-8" inkscape:window-maximized="1" inkscape:current-layer="svg2" showguides="true" inkscape:guide-bbox="true" inkscape:showpageshadow="true" borderlayer="false" showborder="true"/>
  <path sodipodi:nodetypes="sssss" style="fill:#ec1d24;fill-opacity:1;stroke:none" d="m -4.9800411,60.020007 c -24.8528299,0 -45.0000089,-20.147184 -45.0000089,-45.000013 0,-24.852798 20.147179,-44.999994 45.0000089,-44.999994 24.8528021,0 44.9999911,20.147196 44.9999911,44.999994 0,24.852829 -20.14719,45.000013 -44.9999911,45.000013 z" id="path4310" inkscape:connector-curvature="0"/>
  <path inkscape:connector-curvature="0" id="path4312" d="m -4.9800441,-20.98 c -19.8822609,0 -36.0000049,16.117747 -36.0000049,36.000013 0,19.88224 16.117744,35.99999 36.0000049,35.99999 19.8822421,0 35.9999961,-16.11775 35.9999961,-35.99999 C 31.019952,-4.862253 14.902197,-20.98 -4.9800441,-20.98 z" style="fill:#ffffff;fill-opacity:1;stroke:none" sodipodi:nodetypes="sssss"/>
  <path id="path3822" d="m -25.222605,1.333913 5.817142,0 0,-4.84762 -3.878073,0 c 0,0 -1.116986,-0.0148 -1.228045,0.71099 z" style="fill:#000000;fill-rule:nonzero;stroke:none" inkscape:connector-curvature="0" sodipodi:nodetypes="cccccc"/>
  <path id="path3818" d="m 18.405902,11.028753 0,-18.29166 c 0,0 0.02115,-1.062438 -0.96954,-1.034158 l -30.443,0 c -0.9823,-0.0282 -0.96968,1.034158 -0.96968,1.034158 l 0,8.59658 -2.00366,0 0,-5.30007 c 0,0 0.0141,-1.10267 -0.90495,-1.09879 l -6.65734,0 c 0,0 -2.098151,-0.1055 -2.520761,2.26222 l -1.0342,5.68787 c 0,0 -1.04724,0.25337 -1.03413,1.42197 -0.0141,0.24639 0.06346,0.51711 0.06346,0.51711 l 1.29271,6.20474 z" style="fill:#000000;fill-rule:nonzero;stroke:none" inkscape:connector-curvature="0" sodipodi:nodetypes="cccccccccccccccc"/>
  <path inkscape:connector-curvature="0" id="path3889" d="m 9.6195089,14.906803 c -2.141768,0 -3.878001,-1.73624 -3.878001,-3.878 0,-2.14176 1.736233,-3.87801 3.878001,-3.87801 2.1417621,0 3.8780021,1.73625 3.8780021,3.87801 0,2.14176 -1.73624,3.878 -3.8780021,3.878 z" style="fill:#000000;fill-opacity:1;stroke:none" sodipodi:nodetypes="sssss"/>
  <path inkscape:connector-curvature="0" id="path3891" d="m 9.6195089,12.932793 c -1.051554,0 -1.904,-0.85245 -1.904,-1.904 0,-1.05155 0.852446,-1.904 1.904,-1.904 1.0515521,0 1.9040011,0.85245 1.9040011,1.904 0,1.05155 -0.852449,1.904 -1.9040011,1.904 z" style="fill:#ffffff;fill-opacity:1;stroke:none" sodipodi:nodetypes="sssss"/>
  <path sodipodi:nodetypes="sssss" style="fill:#ffffff;fill-opacity:1;stroke:none" d="m -20.930595,15.358293 c -2.391124,0 -4.329498,-1.93838 -4.329498,-4.3295 0,-2.39111 1.938374,-4.3295 4.329498,-4.3295 2.391117,0 4.329498,1.93839 4.329498,4.3295 0,2.39112 -1.938381,4.3295 -4.329498,4.3295 z" id="path3919" inkscape:connector-curvature="0"/>
  <path inkscape:connector-curvature="0" id="path3921" d="m -20.930618,14.906803 c -2.141768,0 -3.878001,-1.73624 -3.878001,-3.878 0,-2.14176 1.736233,-3.87801 3.878001,-3.87801 2.141761,0 3.878,1.73625 3.878,3.87801 0,2.14176 -1.736239,3.878 -3.878,3.878 z" style="fill:#000000;fill-opacity:1;stroke:none" sodipodi:nodetypes="sssss"/>
  <path inkscape:connector-curvature="0" id="path3923" d="m -20.930618,12.932793 c -1.051554,0 -1.904,-0.85245 -1.904,-1.904 0,-1.05155 0.852446,-1.904 1.904,-1.904 1.051551,0 1.904,0.85245 1.904,1.904 0,1.05155 -0.852449,1.904 -1.904,1.904 z" style="fill:#ffffff;fill-opacity:1;stroke:none" sodipodi:nodetypes="sssss"/>
  <path id="path3953" d="m -25.223048,1.333751 5.817143,0 0,-4.84762 -3.878074,0 c 0,0 -1.116985,-0.0148 -1.228044,0.71099 z" style="fill:#ffffff;fill-rule:nonzero;stroke:none" inkscape:connector-curvature="0" sodipodi:nodetypes="cccccc"/>
  <path sodipodi:nodetypes="ccccc" inkscape:connector-curvature="0" id="path4042" d="m -13.440101,36.167543 -11.984993,0 -1.1e-5,2.422993 11.985011,1e-5 z" style="fill:#000000;fill-opacity:1;stroke:none"/>
  <path style="fill:#000000;fill-opacity:1;stroke:none" d="m -24.449094,33.708005 -3.671,3.671 3.671,3.671001 3.634287,-2e-6 -3.670997,-3.671 3.670984,-3.670999 z" id="path4044" inkscape:connector-curvature="0" sodipodi:nodetypes="ccccccc"/>
  <path style="fill:#000000;fill-opacity:1;stroke:none" d="m 3.4799999,36.167543 11.9849951,0 1.1e-5,2.422993 -11.9850131,1e-5 z" id="path4119" inkscape:connector-curvature="0" sodipodi:nodetypes="ccccc"/>
  <path sodipodi:nodetypes="ccccccc" inkscape:connector-curvature="0" id="path4121" d="m 14.488995,33.708005 3.671,3.671 -3.671,3.671001 -3.634288,-2e-6 3.670998,-3.671 -3.670985,-3.670999 z" style="fill:#000000;fill-opacity:1;stroke:none"/>
  <path id="path4152" d="m -22.080093,26.779033 2.308958,-0.412314 c 0.06677,1.243537 1.067216,1.81088 2.061569,1.814179 1.006539,-0.0034 1.603919,-0.540628 1.566972,-1.401865 0.03699,-0.915667 -0.470706,-1.348761 -1.566972,-1.319404 l -0.989555,0 0,-1.979104 c 2.503407,0.03857 2.474068,-1.072013 2.474068,-1.072013 0.02929,-0.890269 -0.59738,-1.383067 -1.731901,-1.401866 -1.015626,0.01873 -1.672773,0.392193 -1.814181,1.731716 l -2.226498,-0.32985 c 0.233014,-2.040127 1.934986,-3.264535 4.123138,-3.298508 2.27647,0.03396 3.814233,1.422646 3.79347,3.133583 0.02109,0.63331 -0.0106,1.663434 -1.154474,2.226489 1.264644,0.616822 1.205266,1.229022 1.236934,2.308957 -0.03169,2.145019 -1.032109,3.369427 -3.958389,3.380972 -2.374324,-0.01161 -3.762992,-1.131059 -4.123139,-3.380972 z" style="fill:#000000;fill-rule:nonzero;stroke:none" inkscape:connector-curvature="0"/>
  <path id="path4154" d="m -10.035944,23.148632 0,0.247478 -2.144789,0 0,-0.494954 c -0.0185,-2.505787 1.907541,-3.700605 3.8771329,-3.712152 1.436026,0.01161 4.03487,0.384744 4.04213,3.547169 -0.008,1.572632 -0.574804,2.842354 -2.804752,4.454583 l -0.9899,0.74243 3.547175,0 0,1.979819 -7.3418189,0 0,-1.979819 c 3.8480929,-2.474441 5.4309569,-3.475235 5.4444969,-5.114522 -0.0132,-0.989579 -0.685683,-1.676572 -1.732353,-1.649844 -1.148948,-0.02674 -1.8656419,0.765198 -1.8973219,1.979812 z" style="fill:#000000;fill-rule:nonzero;stroke:none" inkscape:connector-curvature="0"/>
  <path id="path4158" d="m 12.066087,26.203874 c -0.01059,1.840785 -0.69569,3.84083 -3.6268431,3.874131 -2.725405,-0.03328 -4.173186,-1.869148 -4.203842,-5.440268 0.03058,-3.667727 1.314236,-5.399048 4.121417,-5.357834 1.9238551,-0.04123 2.9390561,0.585568 3.4619821,2.225563 l -1.8958441,0.741855 c -0.224204,-0.531168 -0.567454,-1.098275 -1.730998,-1.071568 -1.090033,-0.02672 -1.88134,0.97331 -1.730988,2.225561 0.282547,-0.297073 1.237736,-0.744491 2.225559,-0.741853 2.1167531,-0.0026 3.3703251,1.295438 3.3795571,3.544413 z" style="fill:#000000;fill-rule:nonzero;stroke:none" inkscape:connector-curvature="0"/>
  <path id="path4160" d="m 10.005381,26.286303 c -0.02378,-0.988153 -0.7095411,-1.719127 -1.7309871,-1.730994 -0.993448,0.01187 -1.709895,0.742841 -1.730998,1.813422 0.02108,1.048814 0.73755,1.750443 1.730998,1.730993 1.021446,0.01951 1.707906,-0.71185 1.7309871,-1.813421 z" style="fill:#ffffff;fill-rule:nonzero;stroke:none" inkscape:connector-curvature="0"/>
  <path style="fill:#000000;fill-opacity:1;stroke:none" d="m -1.2090931,18.775955 2.227,0 -1.65000038,2.887 -2.22699962,0 z" id="rect4170" inkscape:connector-curvature="0" sodipodi:nodetypes="ccccc"/>
  <path sodipodi:nodetypes="ccccc" inkscape:connector-curvature="0" id="path4195" d="m 15.041909,18.775955 2.227,0 -1.65,2.887 -2.227,0 z" style="fill:#000000;fill-opacity:1;stroke:none"/>
  <path style="fill:#000000;fill-opacity:1;stroke:none" d="m 18.04191,18.775955 2.227,0 -1.65,2.887 -2.226998,0 z" id="path4197" inkscape:connector-curvature="0" sodipodi:nodetypes="ccccc"/>
  <path style="fill:#000000;fill-opacity:1;stroke:none" d="m 2.0905069,22.983005 0,1.897 -3.547,0 0,-1.897 z" id="path4247" inkscape:connector-curvature="0" sodipodi:nodetypes="ccccc"/>
</svg>