<?xml version="1.0" encoding="UTF-8" standalone="no"?>
<!-- Created with Inkscape (http://www.inkscape.org/) -->

<svg
   xmlns:dc="http://purl.org/dc/elements/1.1/"
   xmlns:cc="http://creativecommons.org/ns#"
   xmlns:rdf="http://www.w3.org/1999/02/22-rdf-syntax-ns#"
   xmlns:svg="http://www.w3.org/2000/svg"
   xmlns="http://www.w3.org/2000/svg"
   xmlns:inkscape="http://www.inkscape.org/namespaces/inkscape"
   version="1.1"
   width="604"
   height="352.5"
   id="svg2"
   xml:space="preserve"><defs
     id="defs46" /><metadata
     id="metadata8"><rdf:RDF><cc:Work
         rdf:about=""><dc:format>image/svg+xml</dc:format><dc:type
           rdf:resource="http://purl.org/dc/dcmitype/StillImage" /></cc:Work></rdf:RDF></metadata><g
     transform="matrix(1.25,0,0,-1.25,-78.031,677.53)"
     id="g10"><g
       transform="scale(0.1,0.1)"
       id="g12"><path
         d="m 5456.2,2860.2 c -0.39,-143.86 -116.8,-260.27 -260,-260 h -4312 c -143.7,-0.27 -260.11,116.14 -260,260 v 2300 c -0.109,143.36 116.3,259.77 260,260 h 4312 c 143.2,-0.23 259.61,-116.64 260,-260 v -2300"
         inkscape:connector-curvature="0"
         id="path14" /><path
         d="m 5321.2,2860.2 c -0.4,-69.3 -56.36,-125.26 -125,-125 h -4312 c -69.141,-0.26 -125.1,55.7 -125,125 v 2300 c -0.098,68.8 55.859,124.76 125,125 h 4312 c 68.64,-0.24 124.6,-56.2 125,-125 v -2300"
         inkscape:connector-curvature="0"
         id="path16"
         style="fill:#ffffff" /><path
         d="m 1290.2,5034.2 c 0,0 150.27,0.31 202,-122 l -95,-48 c -26.84,71.29 -110,71 -110,71 -83.8,0.29 -133.67,-62.59 -134,-166 0.33,-101.86 50.2,-166.18 131,-166 68.82,-0.18 117.96,46.8 118,111 v 8 h -127 v 88 h 225 v -290 h -95 v 35 c -50.02,-50.48 -126,-50 -126,-50 -130,-0.48 -234.81,113 -235,266 0.19,147.67 91.98,263.31 246,263"
         inkscape:connector-curvature="0"
         id="path18" /><path
         d="m 1609.2,4520.2 h 96 v 368 h -96 v -368 z"
         inkscape:connector-curvature="0"
         id="path20" /><path
         d="m 1601.2,4979.2 c -0.44,30.73 24.13,56.76 54,57 32.29,-0.24 56.87,-26.27 57,-57 -0.13,-30.7 -24.71,-56 -56,-56 -30.87,0 -55.44,25.3 -55,56"
         inkscape:connector-curvature="0"
         id="path22" /><path
         d="m 1957.2,4656.2 75,229 h 101 l -122,-365 h -111 l -127,365 h 107 l 77,-229"
         inkscape:connector-curvature="0"
         id="path24" /><path
         d="m 2447.2,4636.2 59,-64 c -47.25,-42.18 -78.32,-60.25 -145,-60 -113.29,-0.25 -182.68,83.59 -183,196 0.32,99.36 64.64,186.82 164,187 107.36,-0.18 173.85,-80.41 174,-200 v -26 h -242 c 2.61,-41.61 40.92,-71.96 89,-72 27.81,0.04 42.99,4.37 84,39"
         inkscape:connector-curvature="0"
         id="path26" /><path
         d="m 2274.2,4744.2 h 149 c -2.55,35.89 -38.69,68.42 -75,68 -36.69,0.42 -67.77,-28.49 -74,-68"
         inkscape:connector-curvature="0"
         id="path28"
         style="fill:#ffffff" /><path
         d="m 2796.2,4883.2 h 102 l 62,-226 55,226 h 107 l 56,-226 63,226 h 97 l -100,-363 h -116 l -54,225 -54,-225 h -115 l -103,363"
         inkscape:connector-curvature="0"
         id="path30" /><path
         d="m 3522.2,4510.2 c -80.16,-0.42 -127.14,44.39 -127,115 -0.14,61.66 37.45,127.43 214,127 v 21 c -0.2,21.35 -21.88,35.09 -55,35 -28.32,0.09 -76.02,-16.54 -111,-37 l -47,71 c 26.33,19.57 89.21,54.98 156,55 102.34,-0.02 155.1,-39.04 155,-110 v -152 c 0.1,-32.9 8.77,-42.3 43,-48 l -34,-77 c -17.57,0.3 -66,6.81 -91,38 -32.1,-31.19 -62.46,-38.42 -103,-38"
         inkscape:connector-curvature="0"
         id="path32" /><path
         d="m 3553.2,4591.2 c 40.62,0.25 58.69,11.82 59,42 v 46 l -75,-10 c -32.28,-5.47 -38.78,-22.82 -39,-43 0.22,-23.9 14.67,-34.75 55,-35"
         inkscape:connector-curvature="0"
         id="path34"
         style="fill:#ffffff" /><path
         d="m 3986.2,4470.2 c -11.84,-37.03 -34.96,-71.73 -84,-72 0,0 -26.13,0.27 -101,10 l 10,86 c 10.66,-3.21 35.96,-5.38 52,-5 17.2,-0.38 33.83,9.02 34,29 -0.17,6.76 0.55,15.43 -3,26 l -119,337 h 96 l 80,-219 78,219 h 98 l -141,-411"
         inkscape:connector-curvature="0"
         id="path36" /><path
         d="m 4459.2,4802.2 h -57 v 83 h 57 v 115 l 100,28 v -143 h 94 v -83 h -92 v -165 c 0.25,-37.07 13.98,-40.69 28,-41 14.9,0.31 25.74,3.2 55,9 l 22,-82 c -45.48,-11.97 -86.68,-16.31 -113,-16 -35.11,-0.31 -93.66,17.76 -94,86 v 209"
         inkscape:connector-curvature="0"
         id="path38" /><path
         d="m 4709.2,4698.2 c -0.06,148.39 86.67,202.6 173,203 79.18,-0.4 177.48,-54.61 177,-203 0.48,-108.91 -71.07,-191.31 -172,-191 -110.12,-0.31 -178.06,75.58 -178,191"
         inkscape:connector-curvature="0"
         id="path40" /><path
         d="m 4960.2,4698.2 c 0.46,86.23 -29.17,112.98 -73,113 -54.47,-0.02 -76.87,-44.84 -77,-113 0.13,-59.04 29.04,-103.86 77,-104 48.16,0.14 73.46,44.96 73,104"
         inkscape:connector-curvature="0"
         id="path42"
         style="fill:#ffffff" /><path
         d="m 1402.2,3975.2 c 0.1,148.64 86.83,202.84 174,203 78.35,-0.16 176.64,-54.36 177,-203 -0.36,-108.67 -71.91,-191.07 -172,-191 -110.96,-0.07 -178.9,75.82 -179,191"
         inkscape:connector-curvature="0"
         id="path44" /><path
         d="m 1654.2,3975.2 c -0.37,86.48 -30.01,113.22 -73,113 -55.3,0.22 -77.71,-44.59 -78,-113 0.29,-58.8 29.2,-103.61 78,-104 47.33,0.39 72.63,45.2 73,104"
         inkscape:connector-curvature="0"
         id="path46"
         style="fill:#ffffff" /><path
         d="m 1981.2,4164.2 c 14.86,7.34 32.93,9.51 50,10 79.77,-0.49 139.77,-61.93 140,-136 v -241 h -96 v 210 c -0.36,40.75 -20.6,73.99 -60,74 -47.33,-0.01 -77.69,-27.47 -78,-64 v -220 h -97 v 366 h 100 v -26 c 18.99,15.55 24.78,21.33 41,27"
         inkscape:connector-curvature="0"
         id="path48" /><path
         d="m 2251.2,3975.2 c 0.27,115.39 60.25,197.79 178,198 69.45,-0.21 138.12,-45.75 163,-120 l -94,-36 c -11.84,40.86 -36.41,67.61 -74,68 -50.59,-0.39 -70.82,-49.54 -71,-110 0.18,-63.14 18.97,-105.06 72,-105 37.31,-0.06 56.83,20.18 73,66 l 97,-35 c -32.22,-82.37 -82.09,-117.79 -168,-118 -115.75,0.21 -175.73,76.1 -176,192"
         inkscape:connector-curvature="0"
         id="path50" /><path
         d="m 2641.2,3975.2 c -0.02,148.64 86.72,202.84 173,203 79.23,-0.16 177.53,-54.36 178,-203 -0.47,-108.67 -72.03,-191.07 -172,-191 -111.07,-0.07 -179.02,75.82 -179,191"
         inkscape:connector-curvature="0"
         id="path52" /><path
         d="m 2893.2,3975.2 c -0.49,86.48 -30.13,113.22 -73,113 -55.42,0.22 -77.83,-44.59 -78,-113 0.17,-58.8 29.08,-103.61 78,-104 47.21,0.39 72.51,45.2 73,104"
         inkscape:connector-curvature="0"
         id="path54"
         style="fill:#ffffff" /><path
         d="m 3460.2,4080.2 c -43.13,-0.45 -63.36,-31.53 -63,-71 v -212 h -101 v 210 c 0.18,49.42 -19.34,72.55 -51,73 -39.89,-0.45 -64.47,-33.7 -64,-71 v -212 h -97 v 366 h 97 v -28 c 29.89,27.66 50.13,37.79 83,38 47.35,-0.21 62.53,-6.72 99,-46 39.42,38.55 66.89,47.23 108,47 78.86,0.23 137.41,-72.05 137,-149 v -228 h -98 v 210 c 0.11,49.42 -19.4,72.55 -50,73"
         inkscape:connector-curvature="0"
         id="path56" /><path
         d="m 3714.2,3797.2 h 97 v 368 h -97 v -368 z"
         inkscape:connector-curvature="0"
         id="path58" /><path
         d="m 3706.2,4257.2 c 0.28,29.98 24.85,56 55,56 32.01,0 56.58,-26.02 57,-57 -0.42,-30.45 -24.99,-55.75 -56,-56 -31.15,0.25 -55.72,25.55 -56,57"
         inkscape:connector-curvature="0"
         id="path60" /><path
         d="m 4054.2,4164.2 c 15.19,7.34 33.26,9.51 51,10 79.11,-0.49 139.1,-61.93 139,-136 v -241 h -96 v 210 c -0.03,40.75 -20.27,73.99 -60,74 -47,-0.01 -77.36,-27.47 -77,-64 v -220 h -97 v 366 h 100 v -26 c 18.33,15.55 24.11,21.33 40,27"
         inkscape:connector-curvature="0"
         id="path62" /><path
         d="m 4480.2,3818.2 c -96.86,-0.1 -157.57,70.01 -158,171 0.43,107.17 64.04,178 161,178 21.57,0 46.14,0.72 82,-25 v 21 h 100 v -357 c 0.02,-71.94 -72.97,-128.31 -171,-128 -60.26,-0.31 -73.27,0.41 -164,43 l 44,80 c 39.5,-32.96 108,-33 108,-33 48.59,0.04 90.51,5.82 82,69 -32.69,-21.99 -46.42,-19.1 -84,-19"
         inkscape:connector-curvature="0"
         id="path64" /><path
         d="m 4498.2,3906.2 c 44.88,0.08 68.01,23.93 68,66 v 49 c 0.01,33.25 -28.91,59.27 -66,59 -50.36,0.27 -78.55,-30.81 -79,-84 0.45,-63.9 19.25,-89.92 77,-90"
         inkscape:connector-curvature="0"
         id="path66"
         style="fill:#ffffff" /><path
         d="m 1838.2,3211.2 75,228 h 101 l -122,-365 h -111 l -127,365 h 106 l 78,-228"
         inkscape:connector-curvature="0"
         id="path68" /><path
         d="m 2328.2,3191.2 58,-64 c -46.53,-42.69 -77.61,-60.76 -144,-61 -113.58,0.24 -182.96,84.08 -183,196 0.04,99.85 64.36,187.3 163,187 108.07,0.3 174.57,-79.92 175,-200 v -25 h -242 c 2.33,-42.12 40.64,-72.48 89,-72 27.53,-0.48 42.71,3.86 84,39"
         inkscape:connector-curvature="0"
         id="path70" /><path
         d="m 2155.2,3298.2 h 148 c -1.84,36.38 -37.98,68.91 -74,69 -36.98,-0.09 -68.05,-29 -74,-69"
         inkscape:connector-curvature="0"
         id="path72"
         style="fill:#ffffff" /><path
         d="m 2671.2,3449.2 c 74.77,0.3 138.37,-66.19 138,-153 v -222 h -99 v 224 c 0.35,38.55 -19.88,59.51 -63,60 -45.79,-0.49 -68.91,-36.63 -69,-77 v -207 h -97 v 510 h 97 v -169 c 39.12,29.25 60.08,34.3 93,34"
         inkscape:connector-curvature="0"
         id="path74" /><path
         d="m 2909.2,3074.2 h 97 v 368 h -97 v -368 z"
         inkscape:connector-curvature="0"
         id="path76" /><path
         d="m 2901.2,3534.2 c 0.2,30.22 24.78,56.25 55,56 31.94,0.25 56.51,-25.78 57,-57 -0.49,-30.21 -25.06,-55.51 -56,-56 -31.22,0.49 -55.8,25.79 -56,57"
         inkscape:connector-curvature="0"
         id="path78" /><path
         d="m 3087.2,3253.2 c 0.04,114.63 60.03,197.03 178,197 69.23,0.03 137.89,-45.51 163,-120 l -94,-35 c -12.06,40.11 -36.63,66.85 -74,67 -50.81,-0.15 -71.05,-49.3 -71,-109 -0.05,-63.89 18.74,-105.81 72,-106 37.09,0.19 56.6,20.43 73,67 l 97,-36 c -32.45,-82.13 -82.32,-117.54 -168,-118 -115.97,0.46 -175.96,76.35 -176,193"
         inkscape:connector-curvature="0"
         id="path80" /><path
         d="m 3504.2,3586.2 h 96 v -375 c 0.35,-39.24 6.86,-48.63 28,-50 12.11,-0.8 22.22,-0.08 36,4 l 9,-86 c -33.62,-8.43 -66.14,-14.21 -89,-14 -24.12,-0.21 -80.5,7.74 -80,93 v 428"
         inkscape:connector-curvature="0"
         id="path82" /><path
         d="m 3985.2,3191.2 58,-64 c -46.63,-42.69 -77.7,-60.76 -144,-61 -113.68,0.24 -183.06,84.08 -183,196 -0.06,99.85 64.27,187.3 163,187 107.98,0.3 174.47,-79.92 174,-200 v -25 h -241 c 2.23,-42.12 40.54,-72.48 89,-72 27.43,-0.48 42.61,3.86 84,39"
         inkscape:connector-curvature="0"
         id="path84" /><path
         d="m 3812.2,3298.2 h 148 c -1.93,36.38 -38.07,68.91 -74,69 -37.07,-0.09 -68.15,-29 -74,-69"
         inkscape:connector-curvature="0"
         id="path86"
         style="fill:#ffffff" /><path
         d="m 4263.2,3305.2 61,-8 c 64.22,-8.87 102.52,-53.68 103,-111 -0.48,-73.5 -61.91,-124.82 -149,-125 -76.25,0.18 -127.57,18.97 -176,67 l 72,64 c 29.91,-30.36 63.16,-47.7 99,-48 28.48,0.3 51.61,12.58 52,31 -0.39,15.55 -15.56,30.01 -46,36 l -64,12 c -55.9,10.92 -89.15,53.56 -89,103 -0.15,74.16 56.95,121.14 151,121 51.23,0.14 94.59,-8.54 145,-54 l -62,-66 c -25.27,29.79 -52.01,39.19 -85,39 -28.45,0.19 -47.96,-15.71 -48,-34 0.04,-12.07 6.55,-22.91 36,-27"
         inkscape:connector-curvature="0"
         id="path88" /></g></g></svg>