<?xml version="1.0" encoding="UTF-8" standalone="no"?>
<!-- Created with Inkscape (http://www.inkscape.org/) -->
<svg xmlns:dc="http://purl.org/dc/elements/1.1/" xmlns:cc="http://creativecommons.org/ns#" xmlns:rdf="http://www.w3.org/1999/02/22-rdf-syntax-ns#" xmlns:svg="http://www.w3.org/2000/svg" xmlns="http://www.w3.org/2000/svg" xmlns:inkscape="http://www.inkscape.org/namespaces/inkscape" version="1.1" width="514.04999" height="439.20001" id="svg2" xml:space="preserve"><defs id="defs31"/><metadata id="metadata8"><rdf:RDF><cc:Work rdf:about=""><dc:format>image/svg+xml</dc:format><dc:type rdf:resource="http://purl.org/dc/dcmitype/StillImage"/></cc:Work></rdf:RDF></metadata><g transform="matrix(1.25,0,0,-1.25,-1.6875,439.61)" id="g10"><path d="M 412.59,24.69 C 412.62,11.211 401.7,0.298 388.23,0.33 H 25.71 C 12.299,0.29808 1.385,11.211 1.35,24.69 v 302.64 c 0.0353,13.459 10.949,24.372 24.36,24.36 h 362.52 c 13.471,0.012 24.385,-10.901 24.36,-24.36 V 24.69" inkscape:connector-curvature="0" id="path12"/><path d="M 399.99,24.69 C 399.957,18.202 394.711,12.956 388.23,12.93 H 25.71 c -6.421,0.026 -11.667,5.272 -11.64,11.76 v 302.64 c -0.027,6.468 5.219,11.714 11.64,11.76 h 362.52 c 6.481,-0.046 11.727,-5.292 11.76,-11.76 V 24.69" inkscape:connector-curvature="0" id="path14" style="fill:#ffffff"/><path d="m 94.23,42.57 h -22.2 v 47.76 h 20.64 c 6.656,-0.015 14.99,-3.945 15,-12.24 -0.01,-5.121 -2.517,-7.357 -4.8,-9.24 2.216,-1.369 6.959,-2.453 6.96,-12.12 -0.001,-9.102 -7.726,-14.116 -15.6,-14.16" inkscape:connector-curvature="0" id="path16"/><path d="M 92.79,81.21 H 81.87 v -9.96 h 10.8 c 3.404,-0.043 4.759,1.719 4.8,4.92 -0.041,3.168 -1.599,5.065 -4.68,5.04" inkscape:connector-curvature="0" id="path18" style="fill:#ffffff"/><path d="m 99.03,57.81 c 0.025,3.708 -2.143,6.012 -5.64,6 H 81.87 V 51.93 h 11.4 c 2.804,0.035 5.785,2.406 5.76,5.88" inkscape:connector-curvature="0" id="path20" style="fill:#ffffff"/><path d="m 136.47,42.81 c -1.461,-0.67 -3.019,-0.806 -4.68,-0.84 -7.418,0.034 -12.974,5.522 -12.96,12.48 v 22.56 h 9 V 57.33 c -0.003,-3.875 1.894,-6.721 5.64,-6.72 4.453,-10e-4 7.231,2.303 7.2,5.76 v 20.64 h 9.12 V 42.57 h -9.36 v 2.52 c -1.694,-1.46 -2.507,-1.731 -3.96,-2.28" inkscape:connector-curvature="0" id="path22"/><path d="m 171.27,64.29 5.64,-0.84 c 6.051,-0.78 9.642,-4.981 9.6,-10.32 0.042,-6.925 -5.717,-11.736 -13.92,-11.76 -7.11,0.024 -11.921,1.786 -16.44,6.36 l 6.72,5.88 c 2.813,-2.797 5.93,-4.424 9.24,-4.44 2.72,0.016 4.888,1.168 4.92,2.88 -0.032,1.473 -1.455,2.828 -4.32,3.36 l -6,1.2 c -5.228,0.978 -8.345,4.976 -8.4,9.6 0.055,6.962 5.408,11.366 14.16,11.4 4.867,-0.034 8.932,-0.847 13.68,-5.16 l -5.88,-6.12 c -2.323,2.777 -4.83,3.658 -7.92,3.6 -2.67,0.058 -4.499,-1.433 -4.44,-3.12 -0.059,-1.159 0.551,-2.175 3.36,-2.52" inkscape:connector-curvature="0" id="path24"/><path d="m 215.79,90.57 h 9.12 V 55.41 c -0.044,-3.649 0.566,-4.53 2.52,-4.68 1.162,-0.053 2.111,0.015 3.36,0.36 l 0.96,-8.04 c -3.225,-0.775 -6.274,-1.317 -8.4,-1.32 -2.279,0.003 -7.564,0.748 -7.56,8.76 v 40.08" inkscape:connector-curvature="0" id="path26"/><path d="m 247.95,41.61 c -7.572,0.055 -11.976,4.256 -12,10.8 0.024,5.856 3.548,12.022 20.04,12 v 1.92 c 0.04,2.032 -1.993,3.319 -5.16,3.36 -2.592,-0.041 -7.064,-1.599 -10.32,-3.6 l -4.44,6.72 c 2.479,1.853 8.374,5.173 14.64,5.16 9.589,0.013 14.535,-3.646 14.52,-10.32 V 53.37 c 0.015,-3.032 0.828,-3.913 3.96,-4.44 l -3.12,-7.2 c -1.638,0.003 -6.178,0.613 -8.52,3.48 -3.011,-2.867 -5.856,-3.545 -9.6,-3.6" inkscape:connector-curvature="0" id="path28"/><path d="m 250.83,49.29 c 3.777,0.032 5.471,1.116 5.52,3.96 v 4.32 l -7.08,-0.96 c -2.997,-0.512 -3.607,-2.139 -3.6,-4.08 -0.007,-2.192 1.348,-3.208 5.16,-3.24" inkscape:connector-curvature="0" id="path30" style="fill:#ffffff"/><path d="m 288.15,77.01 c 1.457,0.702 3.151,0.905 4.8,0.96 7.43,-0.055 13.054,-5.814 13.08,-12.72 V 42.57 h -9 v 19.68 c -0.038,3.876 -1.935,6.992 -5.64,6.96 -4.426,0.032 -7.272,-2.542 -7.32,-6 V 42.57 h -9 v 34.44 h 9.36 v -2.52 c 1.721,1.46 2.263,2.002 3.72,2.52" inkscape:connector-curvature="0" id="path32"/><path d="m 338.79,53.49 5.52,-5.88 c -4.399,-4.047 -7.313,-5.741 -13.56,-5.76 -10.624,0.019 -17.129,7.878 -17.16,18.36 0.031,9.371 6.061,17.57 15.36,17.52 10.08,0.05 16.313,-7.471 16.32,-18.72 v -2.4 h -22.68 c 0.246,-3.9 3.837,-6.746 8.4,-6.72 2.552,-0.026 3.974,0.381 7.8,3.6" inkscape:connector-curvature="0" id="path34"/><path d="m 322.59,63.57 h 13.92 c -0.19,3.436 -3.578,6.486 -6.96,6.48 -3.462,0.006 -6.375,-2.705 -6.96,-6.48" inkscape:connector-curvature="0" id="path36" style="fill:#ffffff"/><path d="m 112.95,240.93 c 9.539,0 17.277,-7.738 17.28,-17.28 -0.003,-9.547 -7.741,-17.285 -17.28,-17.28 -9.551,-0.005 -17.289,7.733 -17.28,17.28 -0.009,9.542 7.729,17.28 17.28,17.28" inkscape:connector-curvature="0" id="path38"/><path d="m 283.95,240.93 c 9.502,0 17.24,-7.738 17.28,-17.28 -0.04,-9.547 -7.778,-17.285 -17.28,-17.28 -9.587,-0.005 -17.325,7.733 -17.28,17.28 -0.045,9.542 7.693,17.28 17.28,17.28" inkscape:connector-curvature="0" id="path40"/><path d="m 112.95,232.29 c 4.742,-0.046 8.591,-3.895 8.64,-8.64 -0.049,-4.751 -3.898,-8.6 -8.64,-8.64 -4.754,0.04 -8.603,3.889 -8.64,8.64 0.037,4.745 3.886,8.594 8.64,8.64" inkscape:connector-curvature="0" id="path42" style="fill:#ffffff"/><path d="m 283.95,232.29 c 4.706,-0.046 8.555,-3.895 8.52,-8.64 0.035,-4.751 -3.814,-8.6 -8.52,-8.64 -4.79,0.04 -8.639,3.889 -8.64,8.64 10e-4,4.745 3.85,8.594 8.64,8.64" inkscape:connector-curvature="0" id="path44" style="fill:#ffffff"/><path d="m 304.83,218.25 c 0.381,1.767 0.614,3.548 0.6,5.4 0.014,11.892 -9.628,21.534 -21.48,21.48 -11.937,0.054 -21.579,-9.588 -21.6,-21.48 0.021,-1.841 0.251,-3.642 0.72,-5.4 H 133.83 c 0.418,1.767 0.651,3.548 0.6,5.4 0.051,11.892 -9.592,21.534 -21.48,21.48 -11.9,0.054 -21.543,-9.588 -21.6,-21.48 0.057,-1.841 0.288,-3.642 0.72,-5.4 h -46.8 c -9.629,0.055 -9.48,10.08 -9.48,10.08 0,0 0.039,30.397 0,34.2 0.039,3.717 4.44,4.08 4.44,4.08 l 1.56,43.68 c 0.24,8.501 6.6,7.56 6.6,7.56 h 308.64 c 13.55,0.006 20.789,-13.155 20.76,-20.88 v -64.56 l -72.96,-14.16" inkscape:connector-curvature="0" id="path46"/><path d="m 149.19,270.81 c 2.604,0.043 4.709,2.148 4.68,4.8 v 20.4 c 0.029,2.539 -2.076,4.643 -4.68,4.68 H 98.43 c -2.543,-0.037 -4.647,-2.141 -4.68,-4.68 v -20.4 c 0.033,-2.652 2.137,-4.757 4.68,-4.8 h 50.76" inkscape:connector-curvature="0" id="path48" style="fill:#ffffff"/><path d="m 73.95,228.93 c 2.582,-0.034 4.686,2.07 4.68,4.68 v 62.4 c 0.006,2.539 -2.098,4.643 -4.68,4.68 H 61.83 c -2.558,-0.037 -4.662,-2.141 -4.68,-4.68 v -62.4 c 0.018,-2.61 2.122,-4.714 4.68,-4.68 h 12.12" inkscape:connector-curvature="0" id="path50" style="fill:#ffffff"/><path d="m 220.11,270.81 c 2.564,0.043 4.669,2.148 4.68,4.8 v 20.4 c -0.011,2.539 -2.116,4.643 -4.68,4.68 h -50.76 c -2.583,-0.037 -4.688,-2.141 -4.68,-4.68 v -20.4 c -0.008,-2.652 2.097,-4.757 4.68,-4.8 h 50.76" inkscape:connector-curvature="0" id="path52" style="fill:#ffffff"/><path d="m 290.43,270.81 c 2.654,0.043 4.758,2.148 4.8,4.8 v 20.4 c -0.042,2.539 -2.146,4.643 -4.8,4.68 h -50.64 c -2.614,-0.037 -4.718,-2.141 -4.68,-4.68 v -20.4 c -0.038,-2.652 2.066,-4.757 4.68,-4.8 h 50.64" inkscape:connector-curvature="0" id="path54" style="fill:#ffffff"/><path d="m 360.39,270.81 c 2.571,0.043 4.675,2.148 4.68,4.8 v 11.52 c -0.005,7.538 -6.115,13.523 -13.2,13.56 h -41.88 c -2.592,-0.037 -4.696,-2.141 -4.68,-4.68 v -20.4 c -0.016,-2.652 2.088,-4.757 4.68,-4.8 h 50.4" inkscape:connector-curvature="0" id="path56" style="fill:#ffffff"/><path d="m 137.91,150.09 34.32,34.56 h 34.32 l -22.44,-22.68 h 92.28 v -23.52 h -92.28 l 22.44,-22.68 h -34.32 l -34.32,34.32" inkscape:connector-curvature="0" id="path58"/></g></svg>