<?xml version="1.0" encoding="UTF-8" standalone="no"?>
<svg xmlns:dc="http://purl.org/dc/elements/1.1/" xmlns:cc="http://creativecommons.org/ns#" xmlns:rdf="http://www.w3.org/1999/02/22-rdf-syntax-ns#" xmlns:svg="http://www.w3.org/2000/svg" xmlns="http://www.w3.org/2000/svg" xmlns:sodipodi="http://sodipodi.sourceforge.net/DTD/sodipodi-0.dtd" xmlns:inkscape="http://www.inkscape.org/namespaces/inkscape" width="900.40002" height="900.40009" viewBox="-50 -30 90.039923 90.040008" id="svg2" version="1.1" inkscape:version="0.48.4 r9939" sodipodi:docname="AJAX.svg">
  <metadata id="metadata14">
    <rdf:RDF>
      <cc:Work rdf:about="">
        <dc:format>image/svg+xml</dc:format>
        <dc:type rdf:resource="http://purl.org/dc/dcmitype/StillImage"/>
        <dc:title/>
      </cc:Work>
    </rdf:RDF>
  </metadata>
  <defs id="defs12"/>
  <sodipodi:namedview pagecolor="#ffffff" bordercolor="#666666" borderopacity="1" objecttolerance="10" gridtolerance="10" guidetolerance="10" inkscape:pageopacity="0" inkscape:pageshadow="2" inkscape:window-width="1920" inkscape:window-height="1057" id="namedview10" showgrid="false" fit-margin-top="0.2" fit-margin-left="0.2" fit-margin-right="0.2" fit-margin-bottom="0.2" inkscape:zoom="0.6375553" inkscape:cx="669.79466" inkscape:cy="130.88585" inkscape:window-x="-8" inkscape:window-y="-8" inkscape:window-maximized="1" inkscape:current-layer="svg2" showguides="true" inkscape:guide-bbox="true" inkscape:showpageshadow="true" borderlayer="false" showborder="true"/>
  <path sodipodi:nodetypes="sssss" style="fill:#ec1d24;fill-opacity:1;stroke:none" d="m -4.9800278,60.020006 c -24.8528372,0 -45.0000162,-20.147181 -45.0000162,-45.000012 0,-24.852798 20.147179,-44.999994 45.0000162,-44.999994 24.8527948,0 44.9999828,20.147196 44.9999828,44.999994 0,24.852831 -20.147189,45.000012 -44.9999828,45.000012 z" id="path4310" inkscape:connector-curvature="0"/>
  <path inkscape:connector-curvature="0" id="path4312" d="m -4.9800314,-20.98 c -19.8822676,0 -36.0000116,16.1177468 -36.0000116,36.000013 0,19.882243 16.117744,35.999994 36.0000116,35.999994 19.8822354,0 35.9999884,-16.117751 35.9999884,-35.999994 C 31.019957,-4.8622532 14.902203,-20.98 -4.9800314,-20.98 z" style="fill:#ffffff;fill-opacity:1;stroke:none" sodipodi:nodetypes="sssss"/>
  <path inkscape:connector-curvature="0" style="fill:#000000;fill-rule:nonzero;stroke:none" d="m 0.34046217,-3.4169701 c 1.35157483,-0.6867 2.29001373,-2.1148648 2.30981373,-3.7121936 -0.0198,-2.3046566 -1.86137979,-4.1462363 -4.1246545,-4.1246543 -2.2804467,-0.0216 -4.1223506,1.8199977 -4.1246546,4.1246543 0.00234,0.9109619 0.31806,1.7819818 0.8249399,2.4747927 0.11349,0.10791 0.6025499,0.9145259 -0.4949999,1.0724129 -1.0536027,0.0864 -4.1576483,0.24552 -6.0219978,2.1448167 -3.691071,3.8781355 -6.207435,8.4675855 -6.847091,15.0139144 -0.21042,0.0621 -0.943848,0.33093 -0.907425,1.154907 -0.036,0.78957 1.479068,2.524941 3.629861,2.557287 0.522,-0.0324 1.246968,-0.36855 1.237401,-1.154907 0.0099,-0.44181 0.0099,-0.73521 -0.0828,-1.072413 -0.15246,-0.34713 -0.22572,-1.276002 -0.2475,-2.804759 0.0216,-1.551204 1.537344,-5.0218559 3.712194,-6.5169629 0,0 1.7184955,13.9829119 -12.786596,27.0577769 0,0 2.22768,4.159961 2.30985,4.289642 0.4716,0.978363 1.459683,1.310319 1.979793,1.40238 0.22329,0.0567 1.824578,0.2277 1.897505,0.2475 0.14679,0.0045 0.68472,0.1026 0.65997,-0.2475 0.0252,-0.43227 -0.12411,-0.52101 -0.2475,-0.57744 -0.40491,-0.24516 -0.91854,-0.45243 -1.155068,-1.402389 0,0 -0.65025,-2.448719 -0.65997,-2.804759 0,0 6.951365,-4.39821 12.0441581,-15.01378 0,0 7.18976606,8.256932 10.1466527,22.520652 L 11.22902,37.747296 c 0,0 0.31581,-0.18477 0.32994,-0.495 -0.0144,-0.23958 -0.32598,-0.36828 -0.494999,-0.41247 -0.23391,-0.0288 -4.5973348,-0.46854 -4.6194478,-0.495 -0.0882,0.0261 -0.3078899,-0.0108 -0.3299399,-0.2475 0.0225,-3.082274 -1.2176008,-8.216314 -2.2273196,-11.054077 -0.22536,-0.66159 -0.4455,-1.284912 -0.7424099,-1.649862 -3.38419755,-5.419826 -4.5826554,-9.377522 -2.96974761,-15.8387109 0,0 3.17532561,7.2207889 11.46637581,8.0018359 0,0 0.30618,0.37386 0.74241,0.41247 1.08594,-0.0387 1.43406,-2.888909 1.40238,-3.217229 0.0315,-0.80874 -0.68337,-0.8451 -0.65997,-0.82494 -0.16992,-0.0198 -0.46332,-0.0477 -0.74241,0.41247 0,0 -6.2808647,-1.858077 -8.0841585,-8.1668149 -0.7213498,-2.527488 -2.2675766,-4.83214459 -3.95967533,-6.2696424 -0.33227995,-0.24948 -1.00376986,-0.9070919 0,-1.3198858 z" id="path15"/>
</svg>