<?xml version="1.0" encoding="UTF-8" standalone="no"?>
<!-- Created with Inkscape (http://www.inkscape.org/) -->
<svg xmlns:dc="http://purl.org/dc/elements/1.1/" xmlns:cc="http://creativecommons.org/ns#" xmlns:rdf="http://www.w3.org/1999/02/22-rdf-syntax-ns#" xmlns:svg="http://www.w3.org/2000/svg" xmlns="http://www.w3.org/2000/svg" xmlns:inkscape="http://www.inkscape.org/namespaces/inkscape" version="1.1" width="661.25" height="441.12" id="svg2" xml:space="preserve"><defs id="defs37"/><metadata id="metadata8"><rdf:RDF><cc:Work rdf:about=""><dc:format>image/svg+xml</dc:format><dc:type rdf:resource="http://purl.org/dc/dcmitype/StillImage"/></cc:Work></rdf:RDF></metadata><g transform="matrix(1.25,0,0,-1.25,-49.406,721.78)" id="g10"><g transform="scale(0.1,0.1)" id="g12"><path d="m 5685.2,2570.2 c -0.25,-179.01 -145.76,-324.52 -325,-325 h -4640 c -179.74,0.48 -325.25,145.99 -325,325 v 2879 c -0.254,179.51 145.26,325.02 325,325 h 4640 c 179.24,0.02 324.75,-145.49 325,-325 v -2879" inkscape:connector-curvature="0" id="path14"/><path d="m 5516.2,2570.2 c -0.02,-85.81 -69.96,-155.75 -156,-156 h -4640 c -86.535,0.25 -156.48,70.19 -156,156 v 2879 c -0.484,86.3 69.465,156.25 156,156 h 4640 c 86.04,0.25 155.98,-69.7 156,-156 v -2879" inkscape:connector-curvature="0" id="path16" style="fill:#ffffff"/><path d="m 2037.2,5007.2 v -115 h -260 v -137 h 309 v -130 h -437 v 636 h 409 v -121 h -281 v -133 h 260" inkscape:connector-curvature="0" id="path18"/><path d="m 2328.2,4869.2 -143,213 h 135 l 74,-112 68,112 h 142 l -139,-213 160,-244 h -137 l -94,139 -90,-139 h -136 l 160,244" inkscape:connector-curvature="0" id="path20"/><path d="m 2679.2,4848.2 c -0.43,144.06 74.55,247.06 222,247 86.55,0.06 172.39,-56.86 204,-150 l -117,-44 c -15.8,50.41 -46.52,83.84 -94,84 -62.75,-0.16 -88.04,-61.6 -88,-137 -0.04,-79.09 23.45,-131.5 90,-131 46.38,-0.5 70.77,24.8 92,83 l 121,-45 c -41.04,-102.64 -103.37,-146.91 -211,-147 -144.45,0.09 -219.43,94.95 -219,240" inkscape:connector-curvature="0" id="path22"/><path d="m 3506.2,4771.2 74,-80 c -59.21,-53.1 -98.06,-75.68 -181,-76 -142.02,0.32 -228.76,105.12 -229,245 0.24,124.84 80.65,234.16 204,234 135.04,0.16 218.16,-100.13 218,-250 v -32 h -302 c 3.11,-52.13 51,-90.07 112,-90 33.86,-0.07 52.84,5.35 104,49" inkscape:connector-curvature="0" id="path24"/><path d="m 3290.2,4905.2 h 186 c -3.09,45.5 -48.27,86.16 -93,86 -46.52,0.16 -85.37,-35.98 -93,-86" inkscape:connector-curvature="0" id="path26" style="fill:#ffffff"/><path d="m 4136.2,4850.2 c 0.18,-136.21 -77.52,-232.87 -196,-233 -62.21,0.13 -71.24,6.45 -127,43 v -170 h -121 v 596 h 121 v -24 c 38.59,31.25 62.98,44.8 115,45 136.81,-0.2 208.18,-102.29 208,-257" inkscape:connector-curvature="0" id="path28"/><path d="m 3813.2,4814.2 c -0.26,-47.8 53.05,-89.36 101,-89 69.5,-0.36 95.7,53.84 96,133 -0.3,87.08 -26.5,137.68 -101,138 -88.13,-0.32 -96.26,-78.92 -96,-111 v -71" inkscape:connector-curvature="0" id="path30" style="fill:#ffffff"/><path d="m 4276.2,4978.2 h -72 v 104 h 72 v 144 l 125,34 v -178 h 117 v -104 h -115 v -206 c 0.36,-46.46 17.52,-50.98 36,-51 17.66,0.02 31.21,3.64 67,11 l 28,-102 c -56.56,-15.59 -108.06,-21.01 -141,-21 -43.85,-0.01 -117.03,22.58 -117,108 v 261" inkscape:connector-curvature="0" id="path32"/><path d="m 1168.2,4195.2 c -44.86,0.21 -76.48,-8.82 -126,-41 v 206 h -124 v -638 h 124 v 33 c 39.58,-33.2 77.52,-42.24 129,-42 126.51,-0.24 201.5,92.82 201,234 0.5,147.03 -70.88,248.21 -204,248" inkscape:connector-curvature="0" id="path34"/><path d="m 1711.2,3725.2 c -18.95,-9.53 -39.73,-11.34 -61,-11 -99.8,-0.34 -173.89,72.84 -174,165 v 301 h 120 v -261 c 0.28,-52.65 25.57,-90.59 76,-91 58.89,0.41 95.94,31.12 96,77 v 275 h 122 v -458 h -126 v 33 c -22.27,-19.65 -33.11,-23.27 -53,-30" inkscape:connector-curvature="0" id="path36"/><path d="m 2175.2,4011.2 76,-11 c 80.39,-10.78 128.28,-66.79 128,-138 0.28,-92.32 -76.52,-156.46 -186,-156 -94.7,-0.46 -158.85,23.02 -219,84 l 90,79 c 37.01,-37.89 78.57,-59.57 123,-60 35.98,0.43 64.89,15.79 65,39 -0.11,19.25 -19.08,37.32 -57,45 l -80,15 c -70.01,13.46 -111.57,66.77 -112,129 0.43,92.26 71.81,150.99 189,151 64.41,-0.01 118.61,-10.86 182,-68 l -78,-82 c -31.46,37.05 -64.89,48.8 -106,49 -35.69,-0.2 -60.08,-20.08 -60,-43 -0.08,-15.02 8.05,-28.57 45,-33" inkscape:connector-curvature="0" id="path38"/><path d="m 2785.2,3867.2 73,-79 c -58.26,-53.55 -97.11,-76.14 -180,-76 -142.07,-0.14 -228.8,104.66 -229,245 0.2,124.38 80.61,233.7 204,234 135,-0.3 218.12,-100.59 218,-251 v -31 h -302 c 3.07,-52.59 50.95,-90.53 111,-91 34.82,0.47 53.79,5.89 105,49" inkscape:connector-curvature="0" id="path40"/><path d="m 2569.2,4002.2 h 186 c -3.14,45.05 -48.32,85.7 -93,86 -46.57,-0.3 -85.41,-36.44 -93,-86" inkscape:connector-curvature="0" id="path42" style="fill:#ffffff"/><path d="m 3133.2,4011.2 76,-11 c 80.55,-10.78 128.44,-66.79 128,-138 0.44,-92.32 -76.36,-156.46 -186,-156 -94.54,-0.46 -158.69,23.02 -219,84 l 90,79 c 37.17,-37.89 78.73,-59.57 123,-60 36.14,0.43 65.05,15.79 65,39 0.05,19.25 -18.93,37.32 -57,45 l -79,15 c -70.85,13.46 -112.41,66.77 -112,129 -0.41,92.26 70.97,150.99 188,151 64.57,-0.01 118.77,-10.86 182,-68 l -78,-82 c -31.3,37.05 -64.73,48.8 -106,49 -35.53,-0.2 -59.92,-20.08 -60,-43 0.08,-15.02 8.21,-28.57 45,-33" inkscape:connector-curvature="0" id="path44"/><path d="m 3861.2,3709.2 c -100.37,0.14 -159.1,56.16 -159,144 -0.1,77.5 46.88,159.71 267,160 v 25 c 0.33,27.11 -26.77,44.28 -68,44 -35.57,0.28 -95.2,-20.5 -139,-47 l -58,90 c 32.23,24.14 110.84,68.41 195,68 127.25,0.41 193.2,-48.38 193,-137 v -191 c 0.2,-40.21 11.05,-51.95 54,-59 l -43,-96 c -21.64,0.05 -82.17,8.18 -113,47 -40.55,-38.82 -78.49,-47.86 -129,-48" inkscape:connector-curvature="0" id="path46"/><path d="m 3900.2,3811.2 c 50.36,0.24 72.95,14.7 73,53 v 57 l -93,-13 c -40.77,-6.41 -48.9,-28.1 -49,-53 0.1,-30.21 18.17,-43.76 69,-44" inkscape:connector-curvature="0" id="path48" style="fill:#ffffff"/><path d="m 4398.2,4181.2 c 19.01,8.79 41.59,11.5 63,12 99.66,-0.5 174.65,-77.29 175,-169 v -302 h -121 v 262 c 0.48,51.3 -24.81,92.86 -75,93 -58.23,-0.14 -96.18,-34.47 -96,-81 v -274 h -121 v 458 h 124 v -34 c 23.93,20.3 31.16,27.53 51,35" inkscape:connector-curvature="0" id="path50"/><path d="m 4733.2,3948.2 c -0.34,132.47 65.61,247.21 199,247 47.31,0.21 78.03,-6.11 127,-39 v 204 h 124 v -638 h -124 v 28 c -39.94,-33.63 -77.88,-39.05 -130,-39 -126.77,-0.05 -196.34,94.82 -196,237" inkscape:connector-curvature="0" id="path52"/><path d="m 4962.2,3820.2 c 63.39,0.27 97.72,34.61 98,97 v 72 c -0.28,54.43 -37.32,96.89 -95,97 -72.42,-0.11 -108.56,-55.22 -109,-134 0.44,-81.13 36.58,-131.73 106,-132" inkscape:connector-curvature="0" id="path54" style="fill:#ffffff"/><path d="m 1727.2,3041.2 c -0.31,144.14 74.68,247.14 222,247 86.68,0.14 172.51,-56.78 204,-150 l -117,-44 c -15.68,50.49 -46.39,83.92 -93,84 -63.62,-0.08 -88.92,-61.52 -89,-137 0.08,-79.01 23.57,-131.41 90,-131 46.51,-0.41 70.9,24.88 92,83 l 121,-45 c -40.91,-102.56 -103.25,-146.83 -211,-147 -144.32,0.17 -219.31,95.04 -219,240" inkscape:connector-curvature="0" id="path56"/><path d="m 2463.2,2756.2 c -15.15,-46.08 -44.06,-89.45 -105,-89 0,0 -33.02,-0.45 -126,11 l 12,108 c 13.22,-3.8 44.84,-6.51 65,-7 21.4,0.49 42.18,12.23 42,38 0.18,7.66 1.08,18.5 -3,31 l -150,422 h 121 l 100,-274 98,274 h 122 l -176,-514" inkscape:connector-curvature="0" id="path58"/><path d="m 2697.2,3041.2 c -0.46,144.14 74.53,247.14 222,247 86.53,0.14 172.36,-56.78 204,-150 l -117,-44 c -15.83,50.49 -46.55,83.92 -94,84 -62.77,-0.08 -88.07,-61.52 -88,-137 -0.07,-79.01 23.43,-131.41 90,-131 46.36,-0.41 70.75,24.88 92,83 l 121,-45 c -41.06,-102.56 -103.4,-146.83 -211,-147 -144.47,0.17 -219.46,95.04 -219,240" inkscape:connector-curvature="0" id="path60"/><path d="m 3217.2,3458.2 h 121 v -469 c 0.2,-48.7 8.32,-60.44 35,-62 14.89,-1.15 27.54,-0.25 45,4 l 11,-106 c -42.02,-11.18 -82.68,-18.41 -112,-18 -29.4,-0.41 -99.87,9.53 -100,116 v 535" inkscape:connector-curvature="0" id="path62"/><path d="m 3819.2,2964.2 73,-80 c -58.77,-53.02 -97.62,-75.6 -181,-76 -141.59,0.4 -228.32,105.2 -228,245 -0.32,124.92 80.09,234.24 204,234 134.48,0.24 217.6,-100.05 218,-250 v -32 h -302 c 2.55,-52.05 50.44,-89.99 111,-90 34.3,0.01 53.27,5.43 105,49" inkscape:connector-curvature="0" id="path64"/><path d="m 3603.2,3098.2 h 185 c -2.66,45.59 -47.83,86.24 -93,86 -46.08,0.24 -84.93,-35.89 -92,-86" inkscape:connector-curvature="0" id="path66" style="fill:#ffffff"/><path d="m 4167.2,3107.2 76,-10 c 80.04,-11.23 127.93,-67.25 128,-139 -0.07,-91.78 -76.87,-155.93 -186,-156 -95.05,0.07 -159.2,23.56 -220,84 l 91,80 c 36.65,-38.34 78.21,-60.03 122,-60 36.63,-0.03 65.54,15.33 66,39 -0.46,18.8 -19.44,36.86 -57,44 l -80,15 c -70.36,14 -111.92,67.31 -112,130 0.08,91.8 71.45,150.53 189,151 64.05,-0.47 118.26,-11.31 182,-68 l -78,-82 c -31.82,36.59 -65.25,48.34 -107,48 -35.04,0.34 -59.43,-19.54 -59,-42 -0.43,-15.48 7.7,-29.04 45,-34" inkscape:connector-curvature="0" id="path68"/><path d="m 1143.2,3821.2 c -64.13,0.18 -98.46,34.51 -98,97 v 72 c -0.46,54.34 36.58,95.89 94,96 69.97,-0.11 106.11,-54.31 106,-133 0.11,-81.23 -35.13,-131.82 -102,-132" inkscape:connector-curvature="0" id="path70" style="fill:#ffffff"/></g></g></svg>