<?xml version="1.0" encoding="UTF-8" standalone="no"?>
<!-- Created with Inkscape (http://www.inkscape.org/) -->

<svg
   xmlns:dc="http://purl.org/dc/elements/1.1/"
   xmlns:cc="http://creativecommons.org/ns#"
   xmlns:rdf="http://www.w3.org/1999/02/22-rdf-syntax-ns#"
   xmlns:svg="http://www.w3.org/2000/svg"
   xmlns="http://www.w3.org/2000/svg"
   xmlns:inkscape="http://www.inkscape.org/namespaces/inkscape"
   version="1.1"
   width="519.59998"
   height="357.60001"
   id="svg2"
   xml:space="preserve"><defs
     id="defs32" /><metadata
     id="metadata8"><rdf:RDF><cc:Work
         rdf:about=""><dc:format>image/svg+xml</dc:format><dc:type
           rdf:resource="http://purl.org/dc/dcmitype/StillImage" /></cc:Work></rdf:RDF></metadata><g
     transform="matrix(1.25,0,0,-1.25,-1.4623,358.84)"
     id="g10"><path
       d="M 416.85,26.19 C 416.88,12.239 405.6,0.959 391.65,0.99 H 26.37 C 12.399,0.9586 1.119,12.239 1.17,26.19 v 235.68 c -0.0514,13.891 11.229,25.171 25.2,25.2 h 365.28 c 13.951,-0.029 25.231,-11.309 25.2,-25.2 V 26.19"
       inkscape:connector-curvature="0"
       id="path12" /><path
       d="m 403.77,26.19 c 0.028,-6.726 -5.394,-12.149 -12.12,-12.12 H 26.37 C 19.624,14.041 14.201,19.464 14.25,26.19 v 235.68 c -0.049,6.666 5.374,12.089 12.12,12.12 h 365.28 c 6.726,-0.031 12.148,-5.454 12.12,-12.12 V 26.19"
       inkscape:connector-curvature="0"
       id="path14"
       style="fill:#ffffff" /><path
       d="m 73.41,231.27 v 18.36 h 9.96 v -47.64 h -9.96 v 19.92 H 53.85 v -19.92 h -9.72 v 47.64 h 9.72 v -18.36 h 19.56"
       inkscape:connector-curvature="0"
       id="path16" /><path
       d="m 113.13,202.11 c -1.397,-0.626 -2.955,-0.761 -4.56,-0.72 -7.474,-0.041 -13.031,5.447 -13.08,12.36 v 22.56 h 9.12 v -19.56 c -0.059,-3.95 1.838,-6.796 5.64,-6.84 4.397,0.044 7.175,2.348 7.2,5.76 v 20.64 h 9.12 v -34.32 h -9.36 v 2.52 c -1.75,-1.535 -2.563,-1.806 -4.08,-2.4"
       inkscape:connector-curvature="0"
       id="path18" /><path
       d="m 171.93,228.51 c -3.98,-0.058 -5.877,-2.972 -5.88,-6.6 v -19.92 h -9.36 v 19.56 c -0.055,4.733 -1.884,6.902 -4.92,6.96 -3.672,-0.058 -5.976,-3.175 -6,-6.6 v -19.92 h -9 v 34.2 h 9 v -2.52 c 2.87,2.574 4.767,3.522 7.92,3.48 4.368,0.042 5.791,-0.568 9.24,-4.32 3.665,3.685 6.24,4.498 10.08,4.44 7.408,0.058 12.896,-6.718 12.84,-13.92 v -21.36 h -9.12 v 19.56 c -0.039,4.733 -1.868,6.902 -4.8,6.96"
       inkscape:connector-curvature="0"
       id="path20" /><path
       d="m 228.57,218.79 c 0.053,-10.191 -5.774,-17.441 -14.64,-17.4 -4.685,-0.041 -5.363,0.433 -9.6,3.12 v -12.72 h -9 v 44.76 h 9 v -1.92 c 2.95,2.427 4.779,3.443 8.76,3.48 10.181,-0.037 15.533,-7.694 15.48,-19.32"
       inkscape:connector-curvature="0"
       id="path22" /><path
       d="m 204.33,216.15 c 0.037,-3.621 4.034,-6.738 7.68,-6.72 5.163,-0.018 7.127,4.047 7.08,9.96 0.047,6.555 -1.917,10.349 -7.44,10.32 -6.674,0.029 -7.283,-5.866 -7.32,-8.28 v -5.28"
       inkscape:connector-curvature="0"
       id="path24"
       style="fill:#ffffff" /><path
       d="m 247.77,223.59 5.76,-0.72 c 5.974,-0.855 9.565,-5.056 9.6,-10.44 -0.035,-6.88 -5.795,-11.691 -14.04,-11.64 -7.068,-0.051 -11.878,1.711 -16.44,6.24 l 6.84,6 c 2.736,-2.873 5.852,-4.499 9.12,-4.44 2.763,-0.059 4.931,1.093 4.92,2.88 0.011,1.397 -1.412,2.753 -4.2,3.24 l -6,1.2 c -5.305,1.023 -8.422,5.021 -8.4,9.72 -0.022,6.887 5.331,11.291 14.16,11.28 4.79,0.011 8.855,-0.802 13.56,-5.04 l -5.76,-6.24 c -2.4,2.822 -4.907,3.702 -8.04,3.72 -2.627,-0.018 -4.456,-1.508 -4.44,-3.24 -0.016,-1.114 0.594,-2.13 3.36,-2.52"
       inkscape:connector-curvature="0"
       id="path26" /><path
       d="m 304.17,236.43 h 6.6 v -7.92 h -6.6 v -26.4 h -9.24 v 26.4 h -5.4 v 7.92 h 5.4 v 4.2 c 0.041,5.235 3.429,9.233 9,9.24 2.288,-0.007 6.76,-0.414 9.12,-0.84 l -1.68,-7.56 c -2.645,-0.009 -3.48,0 -3.48,0 -2.756,-0.009 -3.772,-0.009 -3.72,-3.36 v -1.68"
       inkscape:connector-curvature="0"
       id="path28" /><path
       d="m 316.89,218.67 c -0.005,13.915 8.126,18.996 16.2,18.96 7.442,0.036 16.657,-5.045 16.68,-18.96 -0.023,-10.207 -6.731,-17.931 -16.2,-17.88 -10.315,-0.051 -16.685,7.063 -16.68,17.88"
       inkscape:connector-curvature="0"
       id="path30" /><path
       d="m 340.41,218.67 c 0.055,8.088 -2.723,10.595 -6.84,10.56 -5.098,0.035 -7.199,-4.166 -7.2,-10.56 10e-4,-5.531 2.712,-9.732 7.2,-9.72 4.523,-0.012 6.895,4.189 6.84,9.72"
       inkscape:connector-curvature="0"
       id="path32"
       style="fill:#ffffff" /><path
       d="m 367.29,232.95 c 2.007,2.684 5.463,3.971 9,3.96 0.461,0.011 0.867,0.011 1.68,0 v -8.88 c -2.981,-0.188 -3.84,-0.24 -3.84,-0.24 -3.884,-0.084 -7.069,-2.794 -7.08,-8.28 v -17.52 h -9.12 v 34.44 h 9.12 l 0.24,-3.48"
       inkscape:connector-curvature="0"
       id="path34" /><path
       d="m 40.65,148.35 10.44,1.8 c 0.294,-5.449 4.833,-8.023 9.24,-8.04 4.673,0.017 7.383,2.456 7.44,6.48 -0.057,4.039 -2.361,6.004 -7.2,6 h -4.56 v 8.64 c 11.296,0.037 11.28,5.28 11.28,5.28 0.016,3.836 -2.829,6.072 -7.92,6.12 -4.666,-0.048 -7.648,-1.742 -8.4,-7.68 l -10.2,1.44 c 1.263,9.173 8.988,14.73 18.72,14.76 10.527,-0.03 17.506,-6.332 17.52,-14.16 -0.014,-2.81 -0.15,-7.485 -5.16,-9.96 5.552,-2.878 5.281,-5.656 5.28,-10.68 0.001,-9.611 -4.539,-15.167 -17.76,-15.12 -10.832,-0.047 -17.133,5.035 -18.72,15.12"
       inkscape:connector-curvature="0"
       id="path36" /><path
       d="m 108.45,132.87 c -13.475,0.042 -20.25,8.715 -20.28,24.72 0.03,16.924 7.076,25.123 20.16,25.08 13.748,0.043 20.253,-8.833 20.28,-24.96 -0.027,-15.99 -6.668,-24.798 -20.16,-24.84"
       inkscape:connector-curvature="0"
       id="path38" /><path
       d="m 108.45,173.67 c -7.106,-0.036 -10.222,-5.254 -10.2,-15.84 -0.022,-9.944 3.298,-15.839 10.2,-15.84 6.988,0.001 10.172,5.286 10.2,15.84 -0.028,10.248 -3.212,15.804 -10.2,15.84"
       inkscape:connector-curvature="0"
       id="path40"
       style="fill:#ffffff" /><path
       d="m 157.89,132.87 c -13.435,0.042 -20.211,8.715 -20.16,24.72 -0.051,16.924 6.996,25.123 20.04,25.08 13.787,0.043 20.292,-8.833 20.28,-24.96 0.012,-15.99 -6.628,-24.798 -20.16,-24.84"
       inkscape:connector-curvature="0"
       id="path42" /><path
       d="m 157.89,173.67 c -7.066,-0.036 -10.183,-5.254 -10.2,-15.84 0.017,-9.944 3.337,-15.839 10.2,-15.84 7.027,0.001 10.212,5.286 10.2,15.84 0.012,10.248 -3.173,15.804 -10.2,15.84"
       inkscape:connector-curvature="0"
       id="path44"
       style="fill:#ffffff" /><path
       d="m 225.09,129.51 c -1.137,-3.442 -3.305,-6.694 -7.92,-6.72 0,0 -2.432,0.026 -9.36,0.96 l 0.84,8.04 c 1.006,-0.301 3.378,-0.504 4.92,-0.48 1.575,-0.024 3.133,0.857 3.12,2.76 0.013,0.603 0.081,1.417 -0.24,2.4 l -11.16,31.56 h 9 l 7.44,-20.52 7.32,20.52 h 9.24 l -13.2,-38.52"
       inkscape:connector-curvature="0"
       id="path46" /><path
       d="m 254.85,133.23 c -7.501,0.021 -11.905,4.222 -11.88,10.8 -0.025,5.821 3.498,11.987 20.04,12 v 1.92 c -0.009,1.997 -2.042,3.284 -5.16,3.24 -2.641,0.044 -7.113,-1.514 -10.32,-3.48 l -4.44,6.72 c 2.43,1.818 8.324,5.138 14.64,5.16 9.54,-0.022 14.486,-3.681 14.52,-10.32 v -14.28 c -0.034,-3.067 0.779,-3.947 3.96,-4.44 l -3.24,-7.2 c -1.567,-0.032 -6.107,0.578 -8.4,3.48 -3.06,-2.902 -5.906,-3.579 -9.72,-3.6"
       inkscape:connector-curvature="0"
       id="path48" /><path
       d="m 257.73,140.91 c 3.848,-0.003 5.542,1.081 5.52,3.96 v 4.32 l -6.96,-1.08 c -3.046,-0.427 -3.656,-2.053 -3.6,-3.96 -0.056,-2.227 1.299,-3.243 5.04,-3.24"
       inkscape:connector-curvature="0"
       id="path50"
       style="fill:#ffffff" /><path
       d="m 291.33,165.15 c 1.994,2.724 5.45,4.012 9,3.96 0.448,0.052 0.854,0.052 1.68,0 v -8.88 c -2.994,-0.148 -3.84,-0.12 -3.84,-0.12 -3.897,-0.163 -7.082,-2.874 -7.08,-8.4 v -17.52 h -9.12 v 34.44 h 9.12 l 0.24,-3.48"
       inkscape:connector-curvature="0"
       id="path52" /><path
       d="m 308.49,151.11 c 0.033,9.989 4.979,18.594 15,18.6 3.531,-0.006 5.834,-0.481 9.48,-2.88 v 15.24 h 9.24 v -47.88 h -9.24 v 2.16 c -2.968,-2.557 -5.814,-2.964 -9.72,-3 -9.51,0.036 -14.727,7.151 -14.76,17.76"
       inkscape:connector-curvature="0"
       id="path54" /><path
       d="m 325.77,141.63 c 4.706,-0.045 7.281,2.529 7.32,7.2 v 5.4 c -0.039,4.09 -2.817,7.275 -7.2,7.32 -5.374,-0.045 -8.084,-4.178 -8.04,-10.08 -0.044,-6.091 2.666,-9.885 7.92,-9.84"
       inkscape:connector-curvature="0"
       id="path56"
       style="fill:#ffffff" /><path
       d="m 363.33,155.91 5.64,-0.84 c 6.027,-0.815 9.618,-5.016 9.6,-10.32 0.018,-6.96 -5.741,-11.771 -13.92,-11.76 -7.134,-0.011 -11.945,1.751 -16.44,6.24 l 6.72,6 c 2.789,-2.832 5.906,-4.458 9.24,-4.44 2.697,-0.018 4.865,1.133 4.92,2.88 -0.055,1.438 -1.478,2.793 -4.32,3.36 l -6,1.08 c -5.251,1.063 -8.368,5.061 -8.4,9.72 0.032,6.927 5.385,11.332 14.16,11.28 4.844,0.052 8.909,-0.761 13.68,-5.04 l -5.88,-6.12 c -2.347,2.742 -4.854,3.623 -7.92,3.6 -2.693,0.023 -4.522,-1.468 -4.56,-3.12 0.038,-1.194 0.647,-2.21 3.48,-2.52"
       inkscape:connector-curvature="0"
       id="path58" /><path
       d="m 244.41,36.15 h -33.6 l 22.2,22.32 h -90.36 v 22.92 h 90.36 l -22.2,22.2 h 33.6 L 278.25,69.87 244.41,36.15"
       inkscape:connector-curvature="0"
       id="path60" /></g></svg>