<?xml version="1.0" encoding="UTF-8" standalone="no"?>
<!-- Created with Inkscape (http://www.inkscape.org/) -->

<svg
   xmlns:dc="http://purl.org/dc/elements/1.1/"
   xmlns:cc="http://creativecommons.org/ns#"
   xmlns:rdf="http://www.w3.org/1999/02/22-rdf-syntax-ns#"
   xmlns:svg="http://www.w3.org/2000/svg"
   xmlns="http://www.w3.org/2000/svg"
   xmlns:sodipodi="http://sodipodi.sourceforge.net/DTD/sodipodi-0.dtd"
   xmlns:inkscape="http://www.inkscape.org/namespaces/inkscape"
   width="35mm"
   height="35mm"
   viewBox="0 0 124.01574 124.01574"
   id="svg4264"
   version="1.1"
   inkscape:version="0.91 r13725"
   sodipodi:docname="test.svg">
  <defs
     id="defs4266" />
  <sodipodi:namedview
     id="base"
     pagecolor="#ffffff"
     bordercolor="#666666"
     borderopacity="1.0"
     inkscape:pageopacity="0.0"
     inkscape:pageshadow="2"
     inkscape:zoom="0.38579873"
     inkscape:cx="410.92762"
     inkscape:cy="565.06148"
     inkscape:document-units="px"
     inkscape:current-layer="layer1"
     showgrid="false"
     inkscape:window-width="1920"
     inkscape:window-height="1017"
     inkscape:window-x="-8"
     inkscape:window-y="-8"
     inkscape:window-maximized="1" />
  <metadata
     id="metadata4269">
    <rdf:RDF>
      <cc:Work
         rdf:about="">
        <dc:format>image/svg+xml</dc:format>
        <dc:type
           rdf:resource="http://purl.org/dc/dcmitype/StillImage" />
        <dc:title></dc:title>
      </cc:Work>
    </rdf:RDF>
  </metadata>
  <g
     inkscape:label="Layer 1"
     inkscape:groupmode="layer"
     id="layer1"
     transform="translate(0,-928.34646)">
    <g
       transform="matrix(0.125,0,0,-0.125,-71.562816,1053.2235)"
       id="g5709">
      <path
         inkscape:connector-curvature="0"
         id="path34"
         transform="matrix(8,0,0,-8,0,970)"
         d="m 80.974609,2.3496094 c -3.645,0 -6.615234,2.9702812 -6.615234,6.6601562 l 0,102.9609344 c 0,3.64454 2.970234,6.61524 6.615234,6.61524 l 108.990231,0 c 3.645,0 6.61524,-2.9707 6.61524,-6.61524 l 0,-102.9609344 c 0,-3.689875 -2.97024,-6.6601562 -6.61524,-6.6601562 l -108.990231,0 z"
         style="fill:#ffd200;fill-opacity:1;fill-rule:evenodd;stroke:none" />
      <g
         id="g5666">
        <path
           inkscape:connector-curvature="0"
           style="fill:#000000;fill-opacity:1;fill-rule:evenodd;stroke:none"
           d="m 80.974609,2.3496094 c -3.645,0 -6.615234,2.9702812 -6.615234,6.6601562 l 0,102.9609344 c 0,3.64454 2.970234,6.61524 6.615234,6.61524 l 108.990231,0 c 3.645,0 6.61524,-2.9707 6.61524,-6.61524 l 0,-102.9609344 c 0,-3.689875 -2.97024,-6.6601562 -6.61524,-6.6601562 l -108.990231,0 z m 0,3.3300781 108.990231,0 c 1.845,0 3.33008,1.4852811 3.33008,3.2851563 l 0,103.0058562 c 0,1.84473 -1.48508,3.32813 -3.33008,3.32813 l -108.990231,0 c -1.84525,0 -3.330078,-1.4834 -3.330078,-3.32813 l 0,-103.0058562 c 0,-1.7998752 1.484828,-3.2851563 3.330078,-3.2851563 z"
           transform="matrix(8,0,0,-8,0,970)"
           id="path5533" />
        <g
           id="g5625">
          <g
             id="g5542">
            <path
               inkscape:connector-curvature="0"
               style="fill:#1478c7;fill-opacity:1;fill-rule:evenodd;stroke:none"
               d="m 135.42578,12.115234 c -4.37375,0 -7.91992,3.545922 -7.91992,7.919922 0,4.374 3.54617,7.919922 7.91992,7.919922 4.37375,0 7.91992,-3.545922 7.91992,-7.919922 0,-4.374 -3.54617,-7.919922 -7.91992,-7.919922 z"
               transform="matrix(8,0,0,-8,0,970)"
               id="path86" />
            <path
               inkscape:connector-curvature="0"
               style="fill:#e22739;fill-opacity:1;fill-rule:evenodd;stroke:none"
               d="m 130.51953,13.734375 -1.39453,1.394531 4.94727,4.927735 -4.94727,4.927734 1.39453,1.394531 4.93945,-4.939453 4.96094,4.939453 1.34961,-1.394531 -4.92773,-4.927734 4.92773,-4.927735 -1.34961,-1.394531 -4.96094,4.939453 -4.93945,-4.939453 z"
               transform="matrix(8,0,0,-8,0,970)"
               id="path88" />
            <path
               inkscape:connector-curvature="0"
               style="fill:#e22739;fill-opacity:1;fill-rule:evenodd;stroke:none"
               d="m 135.45312,11.181641 c -2.26687,0 -4.52828,0.865281 -6.23828,2.597656 -3.465,3.465375 -3.465,9.091765 0,12.556641 3.42,3.464749 9.04477,3.464749 12.50977,0 3.465,-3.464876 3.465,-9.091266 0,-12.556641 -1.7325,-1.732375 -4.00461,-2.597656 -6.27149,-2.597656 z m 0.0117,1.798828 c 1.81688,0 3.6275,0.686031 5,2.058593 2.79,2.790126 2.79,7.246985 0,10.03711 -2.745,2.744625 -7.24515,2.744625 -10.03515,0 -2.745,-2.790125 -2.745,-7.246984 0,-10.03711 1.395,-1.372562 3.21828,-2.058593 5.03515,-2.058593 z"
               transform="matrix(8,0,0,-8,0,970)"
               id="path92" />
          </g>
          <g
             id="g5547">
            <path
               inkscape:connector-curvature="0"
               style="fill:#231f20;fill-opacity:1;fill-rule:evenodd;stroke:none"
               d="m 85.205078,35.335938 0,12.417968 2.429688,0 0,-8.458984 5.580078,8.458984 2.833984,0 0,-12.417968 -2.427734,0 0,8.548828 -6.03125,-8.548828 -0.990235,0 -0.810547,0 -0.583984,0 z"
               transform="matrix(8,0,0,-8,0,970)"
               id="path38" />
            <path
               inkscape:connector-curvature="0"
               d="m 1424.32,572.48 8.64,15.122 0,0 c 3.6,-1.801 10.08,-6.122 23.04,-6.122 18,0 14.76,14.04 14.76,14.04 0,0 -6.12,-3.961 -14.04,-3.961 -31.32,0 -32.04,34.203 -32.04,34.203 0,0 0,15.476 10.8,24.84 5.76,5.398 12.24,7.918 21.24,7.918 2.88,0 9.72,-0.719 14.04,-3.239 l 0,3.598 18.72,0 0,-72 c 0,-16.199 -21.96,-22.32 -33.48,-22.32 -11.16,0 -24.48,3.601 -31.68,7.921 z m 46.44,52.918 c 0,7.563 -3.6,15.122 -12.96,15.122 -9.36,0 -12.6,-8.641 -12.6,-15.122 0,-6.476 2.52,-15.476 12.6,-15.476 l 0,0 c 9.72,0 12.96,7.918 12.96,15.476"
               style="fill:#231f20;fill-opacity:1;fill-rule:evenodd;stroke:none"
               id="path40" />
            <path
               inkscape:connector-curvature="0"
               d="m 1305.52,587.602 18,0 0,71.2773 -18,0 0,-71.2773 z"
               style="fill:#231f20;fill-opacity:1;fill-rule:evenodd;stroke:none"
               id="path42" />
            <path
               inkscape:connector-curvature="0"
               d="m 1314.16,686.961 c 5.77,0 10.44,-4.676 10.44,-10.441 0,-5.766 -4.67,-10.442 -10.44,-10.442 -5.77,0 -10.44,4.676 -10.44,10.442 0,5.765 4.67,10.441 10.44,10.441"
               style="fill:#231f20;fill-opacity:1;fill-rule:evenodd;stroke:none"
               id="path44" />
            <path
               inkscape:connector-curvature="0"
               d="m 1407.4,634.398 0,-46.437 -18.36,0 0,44.641 c 0,5.398 -4.32,10.437 -11.88,10.437 -7.92,0 -15.12,-6.48 -15.12,-16.199 l 0,-38.879 -18.36,0 0,70.918 18.36,0 0,-5.039 c 0,0 7.56,6.84 18,6.84 16.56,0 27.36,-13.321 27.36,-26.282"
               style="fill:#231f20;fill-opacity:1;fill-rule:evenodd;stroke:none"
               id="path46" />
            <path
               inkscape:connector-curvature="0"
               d="m 824.199,645.199 c -7.558,0 -16.199,-6.84 -16.199,-22.32 0,-15.481 8.641,-22.68 16.199,-22.68 l 0,0 c 7.563,0 16.563,7.199 16.563,22.68 0,15.48 -8.641,22.32 -16.563,22.32 z m 0,16.563 c -17.277,0 -34.558,-14.043 -34.558,-38.883 0,-24.481 17.281,-38.879 34.558,-38.879 l 0,0 c 17.641,0 34.563,14.398 34.563,38.879 0,24.84 -17.282,38.883 -34.563,38.883"
               style="fill:#231f20;fill-opacity:1;fill-rule:evenodd;stroke:none"
               id="path48" />
            <path
               inkscape:connector-curvature="0"
               d="m 1150.36,631.52 0,-12.961 c 0,-7.2 5.4,-14.758 15.84,-14.758 10.8,0 16.92,10.078 16.92,21.238 0,11.16 -6.12,20.883 -16.92,20.883 -10.8,0 -15.84,-7.922 -15.84,-14.402 z m 0,24.48 0,3.238 -18.36,0 0,-91.437 18.36,0 0,25.558 c 0,0 6.12,-7.199 19.44,-7.199 24.84,0 32.4,26.641 32.4,38.16 0,9 -3.6,19.078 -9,25.559 -5.4,6.121 -12.96,11.883 -24.12,11.883 -6.84,0 -13.68,-2.524 -18.72,-5.762"
               style="fill:#231f20;fill-opacity:1;fill-rule:evenodd;stroke:none"
               id="path50" />
            <path
               inkscape:connector-curvature="0"
               d="m 913.121,599.48 14.039,11.879 0,0 c 4.68,-5.757 15.84,-10.8 20.52,-10.8 5.039,0 9.359,3.601 9.359,7.203 0,3.597 -2.519,5.398 -5.039,5.758 -2.52,0.718 -12.238,3.242 -14.039,3.601 -1.801,0.359 -18.723,3.238 -18.723,20.52 0,17.64 18.723,22.32 29.524,22.32 11.16,0 21.238,-3.602 28.797,-10.801 l 0,0 -11.52,-12.238 0,0 c -6.84,5.758 -11.519,7.918 -16.918,7.918 -5.402,0 -10.082,-2.16 -10.082,-6.481 0,-4.32 3.242,-4.679 5.039,-5.039 1.442,-0.359 13.32,-2.879 16.203,-3.601 2.879,-0.719 16.918,-5.039 16.918,-21.239 0,-16.558 -15.48,-23.039 -29.879,-23.039 -14.761,0 -29.16,7.559 -34.199,14.039"
               style="fill:#231f20;fill-opacity:1;fill-rule:evenodd;stroke:none"
               id="path52" />
            <path
               inkscape:connector-curvature="0"
               d="m 1036.24,589.762 -3.24,15.476 0,0 c -12.96,-3.957 -16.56,-0.359 -16.56,2.524 l 0,35.277 18.36,0 0,16.199 -18.36,0 0,28.082 -18.362,-5.398 0,-22.684 -11.519,0 0,-16.199 11.519,0 0,-41.398 c 0,-9 5.762,-15.84 19.082,-15.84 10.08,0 16.92,3.238 19.08,3.961"
               style="fill:#231f20;fill-opacity:1;fill-rule:evenodd;stroke:none"
               id="path54" />
            <path
               inkscape:connector-curvature="0"
               d="m 1081.6,645.199 c -7.92,0 -16.56,-6.84 -16.56,-22.32 0,-15.481 8.64,-22.68 16.56,-22.68 l 0,0 c 7.56,0 16.2,7.199 16.2,22.68 0,15.48 -8.64,22.32 -16.2,22.32 z m 0,16.563 c -17.28,0 -34.92,-14.043 -34.92,-38.883 0,-24.481 17.28,-38.879 34.92,-38.879 l 0,0 c 17.28,0 34.56,14.398 34.56,38.879 0,24.84 -17.64,38.883 -34.56,38.883"
               style="fill:#231f20;fill-opacity:1;fill-rule:evenodd;stroke:none"
               id="path56" />
            <path
               inkscape:connector-curvature="0"
               d="m 1237.12,631.52 0,-12.961 c 0,-7.2 5.04,-14.758 15.84,-14.758 10.44,0 16.92,10.078 16.92,21.238 0,11.16 -6.12,20.883 -16.92,20.883 -10.8,0 -15.84,-7.922 -15.84,-14.402 z m 0,24.48 0,3.238 -18.36,0 0,-91.437 18.36,0 0,25.558 c 0,0 5.76,-7.199 19.44,-7.199 24.84,0 32.4,26.641 32.4,38.16 0,9 -3.6,19.078 -9.36,25.559 -5.04,6.121 -12.6,11.883 -24.12,11.883 -6.48,0 -13.68,-2.524 -18.36,-5.762"
               style="fill:#231f20;fill-opacity:1;fill-rule:evenodd;stroke:none"
               id="path58" />
            <path
               inkscape:connector-curvature="0"
               d="m 875.68,443.238 0,-13.679 c 0,-5.399 -10.442,-5.039 -11.879,-5.039 -1.801,0 -12.961,0 -12.961,8.64 0,9.36 13.32,9.719 24.84,10.078 z m 18.718,-13.316 0,37.078 c 0,9.719 -9.359,16.922 -28.796,16.922 -15.481,0 -25.922,-6.84 -29.883,-9 l 0,0 7.922,-14.043 0,0 c 6.121,4.32 19.078,6.84 24.48,6.84 5.399,0 7.559,-3.957 7.559,-6.117 l 0,-3.961 c -6.121,0 -21.961,-2.879 -28.078,-5.039 -5.762,-1.801 -15.481,-6.122 -15.481,-20.161 0,-14.043 14.399,-23.402 29.16,-23.402 12.239,0 16.559,7.199 16.559,7.199 0,0 6.121,-7.558 16.922,-7.918 l 0,0 7.558,14.758 0,0.004 c -8.64,1.797 -7.922,4.68 -7.922,6.84"
               style="fill:#231f20;fill-opacity:1;fill-rule:evenodd;stroke:none"
               id="path60" />
            <path
               inkscape:connector-curvature="0"
               d="m 1016.8,459.082 0,-48.602 -17.999,0 0,43.918 c 0,6.84 -5.403,11.883 -11.16,11.883 -5.762,0 -12.602,-5.402 -12.602,-14.402 l 0,-41.399 -18.359,0 0,43.918 c 0,6.84 -5.399,11.883 -10.442,11.883 -5.039,0 -12.957,-4.32 -12.957,-14.043 l 0,-41.758 -18.363,0 0,71.282 18.363,0 0,-3.961 c 0,0 6.481,5.039 18.719,5.039 10.801,0 17.281,-7.199 17.281,-7.199 -0.359,0 7.559,7.918 19.438,7.918 18.361,0 28.081,-12.598 28.081,-24.477"
               style="fill:#231f20;fill-opacity:1;fill-rule:evenodd;stroke:none"
               id="path62" />
            <path
               inkscape:connector-curvature="0"
               d="m 1062.52,445.762 30.9609,0 0,15.1172 -30.9609,0 0,-15.1172 z"
               style="fill:#231f20;fill-opacity:1;fill-rule:evenodd;stroke:none"
               id="path64" />
            <path
               inkscape:connector-curvature="0"
               d="m 760.48,492.199 15.122,0 -32.762,-81.359 20.879,0 32.761,81 0,18.359 -68.402,0 0,-18 18,0"
               style="fill:#231f20;fill-opacity:1;fill-rule:evenodd;stroke:none"
               id="path66" />
            <path
               inkscape:connector-curvature="0"
               d="m 1167.64,492.199 15.12,0 -33.12,-81.359 21.24,0 32.76,81 0,18.359 -68.76,0 0,-18 18.36,0"
               style="fill:#231f20;fill-opacity:1;fill-rule:evenodd;stroke:none"
               id="path68" />
            <path
               inkscape:connector-curvature="0"
               d="m 1260.52,454.398 0,-13.32 0,0.004 c 0,-6.844 5.4,-14.402 15.84,-14.402 10.8,0 16.92,9.718 16.92,21.242 0,11.16 -5.76,20.879 -16.92,20.879 -10.8,0 -15.84,-7.922 -15.84,-14.403 z m 0,24.481 0,2.883 -18.36,0 0,-91.442 18.36,0 0,25.918 c 0,0 6.12,-7.199 19.44,-7.199 25.2,0 32.76,26.641 32.76,38.16 0,9 -3.6,19.082 -9.36,25.563 -5.04,6.117 -12.6,11.879 -24.12,11.879 -6.48,0 -13.68,-2.52 -18.72,-5.762"
               style="fill:#231f20;fill-opacity:1;fill-rule:evenodd;stroke:none"
               id="path70" />
            <path
               inkscape:connector-curvature="0"
               d="m 1430.08,459.082 0,-48.602 -18.36,0 0,43.918 c 0,6.84 -5.4,11.883 -11.16,11.883 -5.76,0 -12.24,-5.402 -12.24,-14.402 l 0,-41.399 -18.36,0 0,43.918 c 0,6.84 -5.4,11.883 -10.44,11.883 -5.4,0 -12.96,-4.32 -12.96,-14.043 l 0,-41.758 -18.36,0 0,71.282 18.36,0 0,-3.961 c 0,0 6.48,5.039 18.72,5.039 10.8,0 17.28,-7.199 16.92,-7.199 0,0 7.92,7.918 19.8,7.918 18.36,0 28.08,-12.598 28.08,-24.477"
               style="fill:#231f20;fill-opacity:1;fill-rule:evenodd;stroke:none"
               id="path72" />
            <path
               inkscape:connector-curvature="0"
               d="m 1084.12,303.199 -16.92,-5.398 0,0 c -1.8,5.039 -6.48,11.519 -14.04,11.519 -7.56,0 -16.56,-7.922 -16.56,-22.679 0,-15.121 7.92,-23.039 16.56,-23.039 8.28,0 13.32,8.277 14.4,12.597 l 0,0 18,-3.961 0,0 c -2.16,-9 -13.32,-24.84 -31.68,-24.84 -18.36,0 -35.64,15.481 -35.64,39.243 0,24.121 18.72,38.519 34.2,38.519 15.48,0 28.08,-10.801 31.68,-21.961"
               style="fill:#231f20;fill-opacity:1;fill-rule:evenodd;stroke:none"
               id="path74" />
            <path
               inkscape:connector-curvature="0"
               d="m 881.801,294.199 28.078,0 0,0 c 0,6.84 -5.039,14.039 -14.039,14.039 -8.641,0 -14.039,-6.84 -14.039,-14.039 z m -0.36,-14.039 46.797,0 0,0 c 1.082,8.641 -2.519,44.281 -32.758,44.281 -26.281,0 -32.402,-28.441 -32.402,-37.441 0,-9 5.402,-37.801 34.563,-37.801 16.558,0 25.199,9.36 27.359,11.883 l 0,0 -11.16,11.156 0,0 c 0,0 -5.399,-6.84 -15.84,-6.84 -10.801,0 -16.559,7.563 -16.559,14.762"
               style="fill:#231f20;fill-opacity:1;fill-rule:evenodd;stroke:none"
               id="path76" />
            <path
               inkscape:connector-curvature="0"
               d="m 1001.68,251.719 7.92,0 -24.838,37.441 21.598,33.121 -21.239,0 -11.16,-16.922 -11.52,16.922 -20.882,0 21.601,-33.121 -24.48,-37.441 20.879,0 14.402,21.242 14.039,-21.242 6.48,0"
               style="fill:#231f20;fill-opacity:1;fill-rule:evenodd;stroke:none"
               id="path78" />
            <path
               inkscape:connector-curvature="0"
               d="m 1112.92,294.199 28.44,0 0,0 c 0,6.84 -5.4,14.039 -14.04,14.039 -9,0 -14.4,-6.84 -14.4,-14.039 z m 0,-14.039 46.8,0 0,0 c 0.72,8.641 -2.88,44.281 -32.76,44.281 -26.64,0 -32.4,-28.441 -32.4,-37.441 0,-9 5.4,-37.801 34.2,-37.801 16.92,0 25.56,9.36 27.72,11.883 l 0,0 -11.52,11.156 0,0 c 0,0 -5.04,-6.84 -15.84,-6.84 -10.44,0 -16.2,7.563 -16.2,14.762"
               style="fill:#231f20;fill-opacity:1;fill-rule:evenodd;stroke:none"
               id="path80" />
            <path
               inkscape:connector-curvature="0"
               d="m 1192.12,294.922 0,-13.32 c 0,-6.84 5.4,-14.403 15.84,-14.403 10.8,0 16.92,9.723 16.92,21.242 0,11.161 -6.12,20.879 -16.92,20.879 -10.8,0 -15.84,-7.922 -15.84,-14.398 z m 0,24.476 0,2.883 -18.36,0 0,-91.082 18.36,0 0,25.563 c 0,0 6.12,-7.203 19.44,-7.203 24.84,0 32.4,26.64 32.4,38.16 0,9 -3.6,19.082 -9,25.562 -5.4,6.117 -12.96,11.879 -24.12,11.879 -6.48,0 -13.68,-2.519 -18.72,-5.762"
               style="fill:#231f20;fill-opacity:1;fill-rule:evenodd;stroke:none"
               id="path82" />
            <path
               inkscape:connector-curvature="0"
               d="m 1304.8,253.16 -3.6,15.481 0,0 c -12.96,-3.961 -16.2,-0.36 -16.2,2.519 l 0,35.281 18.36,0 0,15.84 -18.36,0 0,28.438 -18.36,-5.399 0,-23.039 -11.52,0 0,-15.84 11.52,0 0,-41.402 c 0,-9 5.4,-15.84 19.08,-15.84 9.72,0 16.92,3.242 19.08,3.961"
               style="fill:#231f20;fill-opacity:1;fill-rule:evenodd;stroke:none"
               id="path84" />
            <path
               inkscape:connector-curvature="0"
               d="m 1100.68,150.922 0,-14.043 c 0,-5.758 5.4,-14.399 16.2,-14.399 10.44,0 16.56,9 16.56,22.321 0,13.32 -7.2,20.16 -16.2,20.16 -9.36,0 -16.56,-5.402 -16.56,-14.039 z m 0,24.476 0,33.122 -18.36,0 0,-99 18.36,0 0,3.242 c 0,0 7.56,-5.762 18.36,-5.762 11.16,0 33.48,8.641 33.48,38.16 0,29.16 -23.04,37.078 -31.68,37.078 -8.64,0 -12.6,-2.156 -20.16,-6.84"
               style="fill:#231f20;fill-opacity:1;fill-rule:evenodd;stroke:none"
               id="path94" />
            <path
               inkscape:connector-curvature="0"
               d="m 1216.24,114.922 0,-5.043 18.36,0 0,70.922 -18.36,0 0,-39.602 c 0,-10.437 -9,-15.84 -15.84,-15.84 -6.48,0 -10.8,5.039 -10.8,11.879 l 0,43.563 -18.36,0 0,-47.52 c 0,-13.32 10.8,-25.199 26.28,-25.199 9.36,0 16.56,4.316 18.72,6.84"
               style="fill:#231f20;fill-opacity:1;fill-rule:evenodd;stroke:none"
               id="path96" />
            <path
               inkscape:connector-curvature="0"
               d="m 1247.2,121.039 13.68,12.242 0,0 c 4.68,-6.121 15.84,-11.16 20.88,-11.16 4.68,0 9,3.598 9,7.199 0,3.602 -2.52,5.399 -5.04,6.121 -2.52,0.36 -11.88,2.879 -14.04,3.239 -1.8,0.359 -18.72,3.601 -18.72,20.519 0,18 18.72,22.321 29.88,22.321 10.8,0 20.88,-3.239 28.8,-10.438 l 0,0 -11.88,-12.602 0,0 c -6.48,5.758 -11.52,8.282 -16.92,8.282 -5.4,0 -9.72,-2.524 -9.72,-6.481 0,-4.32 3.24,-5.043 4.68,-5.402 1.44,-0.359 13.68,-2.879 16.2,-3.598 2.88,-0.722 16.92,-5.043 16.92,-21.242 0,-16.559 -15.48,-23.039 -29.88,-23.039 -14.76,0 -29.16,7.922 -33.84,14.039"
               style="fill:#231f20;fill-opacity:1;fill-rule:evenodd;stroke:none"
               id="path98" />
            <path
               inkscape:connector-curvature="0"
               d="m 1339,152.359 28.44,0 0,0 c 0,6.84 -5.4,14.403 -14.04,14.403 -9,0 -14.4,-7.203 -14.4,-14.403 z m 0,-14.039 46.8,0 0,0 c 0.72,9 -2.88,44.641 -32.76,44.641 -26.64,0 -32.4,-28.441 -32.4,-37.441 0,-9 5.4,-38.161 34.2,-38.161 16.92,0 25.56,9.723 27.72,12.243 l 0,0 -11.52,10.796 0,0 c 0,0 -5.04,-6.476 -15.84,-6.476 -10.44,0 -16.2,7.558 -16.2,14.398"
               style="fill:#231f20;fill-opacity:1;fill-rule:evenodd;stroke:none"
               id="path100" />
            <path
               inkscape:connector-curvature="0"
               d="m 1395.16,121.039 14.04,12.242 0,0 c 4.68,-6.121 15.84,-11.16 20.52,-11.16 5.04,0 9.36,3.598 9.36,7.199 0,3.602 -2.52,5.399 -5.4,6.121 -2.52,0.36 -11.88,2.879 -13.68,3.239 -1.8,0.359 -18.72,3.601 -18.72,20.519 0,18 18.72,22.321 29.52,22.321 11.16,0 21.24,-3.239 28.8,-10.438 l 0,0 -11.52,-12.602 0,0 c -6.84,5.758 -11.52,8.282 -16.92,8.282 -5.4,0 -10.08,-2.524 -10.08,-6.481 0,-4.32 3.24,-5.043 5.04,-5.402 1.44,-0.359 13.32,-2.879 16.2,-3.598 2.88,-0.722 16.92,-5.043 16.92,-21.242 0,-16.559 -15.48,-23.039 -30.24,-23.039 -14.4,0 -28.8,7.922 -33.84,14.039"
               style="fill:#231f20;fill-opacity:1;fill-rule:evenodd;stroke:none"
               id="path102" />
            <path
               inkscape:connector-curvature="0"
               d="m 746.078,109.52 -2.156,16.199 0,0 c -8.281,-1.797 -12.961,0 -12.961,3.961 l 0,78.84 -18,0 0,-86.399 c 0,-7.199 4.68,-14.762 18.359,-14.762 7.559,0 14.758,2.161 14.758,2.161"
               style="fill:#231f20;fill-opacity:1;fill-rule:evenodd;stroke:none"
               id="path104" />
            <path
               inkscape:connector-curvature="0"
               d="m 900.16,161.719 -16.922,-5.758 0,0 c -1.797,5.039 -6.476,11.519 -14.398,11.519 -7.559,0 -16.559,-7.921 -16.559,-22.679 0,-14.762 8.278,-22.68 16.559,-22.68 8.281,0 13.32,7.918 14.398,12.238 l 0,0 18,-3.961 0,0 c -2.16,-9 -13.316,-24.839 -31.679,-24.839 -18.36,0 -35.637,15.48 -35.637,39.242 0,24.121 18.719,38.519 34.199,38.519 15.481,0 28.078,-10.441 32.039,-21.601"
               style="fill:#231f20;fill-opacity:1;fill-rule:evenodd;stroke:none"
               id="path106" />
            <path
               inkscape:connector-curvature="0"
               d="m 953.078,141.922 0,-13.684 c 0,-5.039 -10.437,-5.039 -12.238,-5.039 -1.442,0 -12.602,0.36 -12.602,8.641 0,9.719 13.321,10.082 24.84,10.082 z m 18.723,-12.961 0,37.078 c 0,9.359 -9.36,16.563 -29.16,16.563 -15.121,0 -25.563,-6.84 -29.52,-9 l 0,0 7.918,-13.68 0,0 c 6.121,3.957 19.082,6.84 24.121,6.84 5.399,0 7.918,-4.321 7.918,-6.481 l 0,-3.961 c -6.476,0 -21.957,-2.879 -28.078,-4.679 -5.762,-2.161 -15.48,-6.481 -15.48,-20.52 0,-14.039 14.402,-23.402 29.16,-23.402 12.242,0 16.558,7.203 16.558,7.203 0,0 6.121,-7.563 16.922,-7.563 l 0,0 7.559,14.403 0,0 c -8.641,1.797 -7.918,4.679 -7.918,7.199"
               style="fill:#231f20;fill-opacity:1;fill-rule:evenodd;stroke:none"
               id="path108" />
            <path
               inkscape:connector-curvature="0"
               d="m 787.84,167.121 c -8.641,0 -16.918,-7.199 -16.918,-22.68 0,-15.48 8.277,-22.32 16.918,-22.32 l 0,0 c 6.84,0 16.558,6.84 16.558,22.32 0,15.481 -9.718,22.68 -16.558,22.68 z m 0,15.481 c -18,0 -34.559,-14.043 -34.559,-38.161 0,-24.839 16.559,-39.242 34.559,-39.242 l 0,0 c 17.64,0 34.199,14.403 34.199,39.242 0,24.118 -17.641,38.161 -34.199,38.161"
               style="fill:#231f20;fill-opacity:1;fill-rule:evenodd;stroke:none"
               id="path110" />
            <path
               inkscape:connector-curvature="0"
               d="m 1026.16,109.52 -2.16,16.199 0,0 c -8.64,-1.797 -12.96,0 -12.96,3.961 l 0,78.84 -18.36,0 0,-86.399 c 0,-7.199 4.679,-14.762 18.72,-14.762 7.2,0 14.76,2.161 14.76,2.161"
               style="fill:#231f20;fill-opacity:1;fill-rule:evenodd;stroke:none"
               id="path112" />
          </g>
        </g>
      </g>
    </g>
  </g>
</svg>
