<?xml version="1.0" encoding="UTF-8" standalone="no"?>
<!-- Created with Inkscape (http://www.inkscape.org/) -->

<svg
   xmlns:dc="http://purl.org/dc/elements/1.1/"
   xmlns:cc="http://creativecommons.org/ns#"
   xmlns:rdf="http://www.w3.org/1999/02/22-rdf-syntax-ns#"
   xmlns:svg="http://www.w3.org/2000/svg"
   xmlns="http://www.w3.org/2000/svg"
   xmlns:inkscape="http://www.inkscape.org/namespaces/inkscape"
   version="1.1"
   width="401.73999"
   height="355.04999"
   id="svg2"
   xml:space="preserve"><defs
     id="defs17" /><metadata
     id="metadata8"><rdf:RDF><cc:Work
         rdf:about=""><dc:format>image/svg+xml</dc:format><dc:type
           rdf:resource="http://purl.org/dc/dcmitype/StillImage" /></cc:Work></rdf:RDF></metadata><g
     transform="matrix(1.25,0,0,-1.25,-2.8766,355.61)"
     id="g10"><path
       d="m 302.85,0.45001 c 7.174,0.19849 14.112,4.0063 18,10.68 3.837,6.707 3.666,14.619 0.24,20.88 l -139.8,242.28 c -3.8,6.129 -10.566,10.234 -18.24,10.2 -7.777,0.034 -14.543,-4.071 -18.24,-10.2 L 4.89,32.01001 c -3.406,-6.261 -3.5771,-14.173 0.24,-20.88 3.9081,-6.6737 10.846,-10.482 18,-10.68 h 279.72"
       inkscape:connector-curvature="0"
       id="path12"
       style="fill:#ec1d24" /><path
       d="M 163.05,248.61 35.97,28.53 H 290.13 L 163.05,248.61"
       inkscape:connector-curvature="0"
       id="path14"
       style="fill:#ffffff" /><path
       d="m 137.37,185.01 25.68,-44.4 25.56,44.4 h -51.24"
       inkscape:connector-curvature="0"
       id="path16" /><path
       d="m 162.57,111.81 c 28.934,-0.011 54.807,-12.993 72.12,-33.48 l 0.12,-40.2 h 38.64 l -38.52,66.6 c -19.647,16.243 -44.848,26.02 -72.36,26.04 -27.455,-0.02 -52.656,-9.797 -72.24,-26.04 L 51.81,38.13 h 38.64 v 40.2 c 17.37,20.487 43.244,33.469 72.12,33.48"
       inkscape:connector-curvature="0"
       id="path18" /><path
       d="m 109.29,48.33 c -7.601,-0.003 -12.073,3.565 -13.2,10.68 l 7.32,1.2 c 0.277,-3.748 2.513,-5.603 6.6,-5.64 3.24,0.037 5.143,1.749 5.16,4.56 -0.017,2.851 -1.635,4.231 -5.04,4.2 h -3.24 v 6.12 h 2.88 c 3.67,-0.047 5.097,0.999 5.04,3.72 0.057,2.703 -1.941,4.273 -5.52,4.32 -3.272,-0.047 -5.365,-1.236 -5.88,-5.4 l -7.2,1.08 c 0.959,6.937 5.812,10.268 13.2,10.32 7.741,-0.052 12.546,-3.906 12.6,-9.96 -0.054,-3.128 -0.863,-5.126 -4.68,-7.08 3.865,-1.995 5.007,-4.041 5.04,-7.56 -0.033,-6.091 -4.458,-10.563 -13.08,-10.56"
       inkscape:connector-curvature="0"
       id="path20" /><path
       d="m 140.85,48.45 c -2.056,0.019 -3.768,1.637 -3.72,3.72 -0.048,2.008 1.664,3.674 3.6,3.72 2.061,-0.046 3.773,-1.712 3.72,-3.72 0.053,-2.036 -1.659,-3.701 -3.6,-3.72"
       inkscape:connector-curvature="0"
       id="path22" /><path
       d="m 165.81,48.45 c -8.204,-0.028 -13.294,4.111 -13.32,10.68 0.026,3.564 1.643,5.896 4.92,7.44 -3.087,1.691 -4.419,3.784 -4.44,6.96 0.021,5.34 4.351,9.908 12.84,9.96 8.305,-0.052 12.682,-4.572 12.72,-10.08 -0.038,-3.056 -1.37,-5.149 -4.44,-6.96 3.403,-1.567 4.973,-3.851 4.92,-7.32 0.053,-6.569 -5.085,-10.708 -13.2,-10.68"
       inkscape:connector-curvature="0"
       id="path24" /><path
       d="m 166.17,69.21 c 3.187,0.002 5.138,1.477 5.16,3.96 -0.022,2.37 -2.02,3.94 -5.16,3.96 -3.473,-0.02 -5.472,-1.495 -5.52,-3.96 0.048,-2.435 2.094,-3.958 5.52,-3.96"
       inkscape:connector-curvature="0"
       id="path26"
       style="fill:#ffffff" /><path
       d="m 165.81,54.93 c 3.738,0.057 6.069,1.722 6.12,4.32 -0.051,2.731 -2.382,4.444 -6.24,4.44 -3.659,0.004 -6.086,-1.709 -6.12,-4.44 0.034,-2.598 2.413,-4.263 6.24,-4.32"
       inkscape:connector-curvature="0"
       id="path28"
       style="fill:#ffffff" /><path
       d="m 223.65,62.85 c -0.042,3.318 -1.659,4.65 -3.72,4.68 -2.697,-0.03 -4.41,-2.314 -4.44,-5.64 V 49.17 h -6.36 v 13.68 c 0.015,3.318 -1.555,4.65 -3.6,4.68 -2.712,-0.03 -4.425,-2.314 -4.44,-5.64 V 49.17 h -6.36 v 23.76 h 6.36 v -1.8 c 2.346,2.079 3.535,2.459 6,2.4 3.054,0.059 4.719,-0.607 7.2,-3.24 2.515,2.586 4.275,3.299 6.96,3.24 5.07,0.059 8.638,-3.509 8.64,-8.52 V 49.17 h -6.24 v 13.68"
       inkscape:connector-curvature="0"
       id="path30" /></g></svg>