<?xml version="1.0" encoding="UTF-8" standalone="no"?>
<!-- Created with Inkscape (http://www.inkscape.org/) -->
<svg xmlns:dc="http://purl.org/dc/elements/1.1/" xmlns:cc="http://creativecommons.org/ns#" xmlns:rdf="http://www.w3.org/1999/02/22-rdf-syntax-ns#" xmlns:svg="http://www.w3.org/2000/svg" xmlns="http://www.w3.org/2000/svg" xmlns:sodipodi="http://sodipodi.sourceforge.net/DTD/sodipodi-0.dtd" xmlns:inkscape="http://www.inkscape.org/namespaces/inkscape" version="1.1" width="360.26767" height="318.20004" id="svg2816" xml:space="preserve" inkscape:version="0.48.4 r9939" sodipodi:docname="AJAX.svg"><metadata id="metadata81"><rdf:RDF><cc:Work rdf:about=""><dc:format>image/svg+xml</dc:format><dc:type rdf:resource="http://purl.org/dc/dcmitype/StillImage"/><dc:title/></cc:Work></rdf:RDF></metadata><sodipodi:namedview pagecolor="#ffffff" bordercolor="#666666" borderopacity="1" objecttolerance="10" gridtolerance="10" guidetolerance="10" inkscape:pageopacity="0" inkscape:pageshadow="2" inkscape:window-width="1920" inkscape:window-height="1057" id="namedview79" showgrid="false" fit-margin-top="0.1" fit-margin-left="0.1" fit-margin-right="0.1" fit-margin-bottom="0.1" inkscape:zoom="1.4142136" inkscape:cx="133.50916" inkscape:cy="116.44582" inkscape:window-x="-8" inkscape:window-y="-8" inkscape:window-maximized="1" inkscape:current-layer="svg2816"/><defs id="defs2820"><clipPath id="clipPath2832"><path d="m -0.24,595.138 317.48,0 0,-595.276 -317.48,0 0,595.276 z" id="path2834" inkscape:connector-curvature="0"/></clipPath><clipPath id="clipPath2840"><path d="m 0.03,595.32 317.46,0 0,-595.32 -317.46,0 0,595.32 z" id="path2842" inkscape:connector-curvature="0"/></clipPath><clipPath id="clipPath2858"><path d="m -0.24,595.138 317.48,0 0,-595.276 -317.48,0 0,595.276 z" id="path2860" inkscape:connector-curvature="0"/></clipPath><clipPath id="clipPath2864"><path d="m 0.03,595.32 317.46,0 0,-595.32 -317.46,0 0,595.32 z" id="path2866" inkscape:connector-curvature="0"/></clipPath><clipPath id="clipPath3306"><path d="m 199.238,472.977 0,-29.74 29.744,0 0,29.74" id="path3308" inkscape:connector-curvature="0"/></clipPath><clipPath id="clipPath3322"><path d="m -0.24,595.138 317.48,0 0,-595.276 -317.48,0 0,595.276 z" id="path3324" inkscape:connector-curvature="0"/></clipPath><clipPath id="clipPath3330"><path d="m 0.03,595.32 317.46,0 0,-595.32 -317.46,0 0,595.32 z" id="path3332" inkscape:connector-curvature="0"/></clipPath><clipPath id="clipPath3344"><path d="m 88.233,387.221 0,-28.335 32.08,0 0,28.335" id="path3346" inkscape:connector-curvature="0"/></clipPath><clipPath id="clipPath3462"><path d="m -0.24,595.138 317.48,0 0,-595.276 -317.48,0 0,595.276 z" id="path3464" inkscape:connector-curvature="0"/></clipPath><clipPath id="clipPath3470"><path d="m 0.03,595.32 317.46,0 0,-595.32 -317.46,0 0,595.32 z" id="path3472" inkscape:connector-curvature="0"/></clipPath><clipPath id="clipPath3490"><path d="m -0.24,595.138 317.48,0 0,-595.276 -317.48,0 0,595.276 z" id="path3492" inkscape:connector-curvature="0"/></clipPath><clipPath id="clipPath3496"><path d="m 0.03,595.32 317.46,0 0,-595.32 -317.46,0 0,595.32 z" id="path3498" inkscape:connector-curvature="0"/></clipPath><clipPath id="clipPath3520"><path d="m 254.788,326.215 0,-28.309 28.326,0 0,28.309" id="path3522" inkscape:connector-curvature="0"/></clipPath><clipPath id="clipPath3544"><path d="m 145.049,326.142 0,-28.333 28.342,0 0,28.333" id="path3546" inkscape:connector-curvature="0"/></clipPath><clipPath id="clipPath3682"><path d="m -0.24,595.138 317.48,0 0,-595.276 -317.48,0 0,595.276 z" id="path3684" inkscape:connector-curvature="0"/></clipPath><clipPath id="clipPath3690"><path d="m 0.03,595.32 317.46,0 0,-595.32 -317.46,0 0,595.32 z" id="path3692" inkscape:connector-curvature="0"/></clipPath><clipPath id="clipPath3980"><path d="m -0.24,595.138 317.48,0 0,-595.276 -317.48,0 0,595.276 z" id="path3982" inkscape:connector-curvature="0"/></clipPath><clipPath id="clipPath3988"><path d="m 0.03,595.32 317.46,0 0,-595.32 -317.46,0 0,595.32 z" id="path3990" inkscape:connector-curvature="0"/></clipPath><clipPath id="clipPath4010"><path d="m -0.24,595.138 317.48,0 0,-595.276 -317.48,0 0,595.276 z" id="path4012" inkscape:connector-curvature="0"/></clipPath><clipPath id="clipPath4016"><path d="m 0.03,595.32 317.46,0 0,-595.32 -317.46,0 0,595.32 z" id="path4018" inkscape:connector-curvature="0"/></clipPath><clipPath id="clipPath4062"><path d="m 200.163,177.773 0,-28.284 28.283,0 0,28.284" id="path4064" inkscape:connector-curvature="0"/></clipPath><clipPath id="clipPath4090"><path d="m 34.886,177.515 0,-51.632 30.367,0 0,51.632" id="path4092" inkscape:connector-curvature="0"/></clipPath><clipPath id="clipPath4106"><path d="m 34.886,177.515 0,-51.632 30.367,0 0,51.632" id="path4108" inkscape:connector-curvature="0"/></clipPath><clipPath id="clipPath4272"><path d="m 34.886,177.515 0,-51.632 30.367,0 0,51.632" id="path4274" inkscape:connector-curvature="0"/></clipPath><clipPath id="clipPath4304"><path d="m 254.653,176.442 0,-48.167 28.317,0 0,48.167" id="path4306" inkscape:connector-curvature="0"/></clipPath><clipPath id="clipPath4310"><path d="m 253.565,177.983 31.181,0 0,-49.183 -31.181,0 0,49.183 z" id="path4312" inkscape:connector-curvature="0"/></clipPath><clipPath id="clipPath4316"><path d="m -0.24,595.138 317.48,0 0,-595.276 -317.48,0 0,595.276 z" id="path4318" inkscape:connector-curvature="0"/></clipPath><clipPath id="clipPath4322"><path d="m 0.03,595.32 317.46,0 0,-595.32 -317.46,0 0,595.32 z" id="path4324" inkscape:connector-curvature="0"/></clipPath><clipPath id="clipPath4456"><path d="m -0.24,595.138 317.48,0 0,-595.276 -317.48,0 0,595.276 z" id="path4458" inkscape:connector-curvature="0"/></clipPath><clipPath id="clipPath4464"><path d="m 0.03,595.32 317.46,0 0,-595.32 -317.46,0 0,595.32 z" id="path4466" inkscape:connector-curvature="0"/></clipPath></defs><path style="fill:#ec1d24;fill-opacity:1;fill-rule:evenodd;stroke:none" d="m 23.977595,318.10005 c -8.5855,0 -16.45648,-4.5216 -20.6875,-11.90625 -4.25346,-7.37342 -4.25346,-16.47912 0,-23.875 L 159.44633,11.975053 c 4.27592,-7.3734197 12.09802,-11.87499967 20.59374,-11.87499967 0.0312,0 0.0625,-1.2e-4 0.0937,0 0.0312,-1.2e-4 0.0625,0 0.0937,0 8.49572,0 16.31784,4.50157997 20.59375,11.87499967 L 356.97757,282.3188 c 4.25347,7.39588 4.25347,16.50158 0,23.875 -4.23102,7.38465 -12.10199,11.90625 -20.6875,11.90625 z" id="path3101" inkscape:connector-curvature="0" sodipodi:nodetypes="scccscscccss"/><path inkscape:connector-curvature="0" style="fill:#ffffff;fill-opacity:1;fill-rule:evenodd;stroke:none" id="path3121" d="m 322.51283,286.28316 -284.757825,0 L 180.13399,39.806513 z" sodipodi:nodetypes="cccc"/><path inkscape:connector-curvature="0" style="fill:#000000;fill-rule:nonzero;stroke:none" d="m 185.08797,83.137527 c -8.01407,-0.01483 -14.00332,6.402737 -14.00449,14.296252 9.3e-4,4.987241 5.14197,12.111431 5.54345,12.545691 0.49949,0.64736 1.13086,2.99171 -0.58352,3.50113 -3.86524,1.3505 -9.78914,3.15042 -14.29626,6.12754 -1.30358,0.75858 -3.91892,2.02015 -4.3764,4.66816 l -15.46329,65.64606 c 0,0 -3.8279,0.33143 -3.79289,3.50112 -0.035,2.33175 0.58352,2.33408 0.58352,2.33408 0,0 -7.74216,0.74106 -10.21161,0 -2.40061,-0.61154 -3.41477,-2.09951 -1.45881,-4.08464 1.96647,-1.80192 3.25255,-4.37291 3.20937,-7.29401 0.0431,-2.76006 -3.33891,-9.65843 -9.62809,-9.62809 -6.56227,-0.0303 -10.0788,5.7185 -10.2122,9.62809 0.1334,3.66567 2.29768,6.64162 3.20995,7.58577 0.84611,0.81458 1.523,2.09834 -0.87587,3.20936 -9.16767,4.50827 -10.56836,9.55316 -11.67041,20.42299 -0.4046,3.28755 -0.60744,18.43691 -0.58352,19.54793 0.24731,1.32458 1.93752,4.02979 4.66817,4.08464 2.95063,-0.0549 4.23624,-1.81358 4.3764,-3.20936 -0.14016,-1.30943 -1.22293,-1.9863 -1.75056,-2.33408 -0.41943,-0.5987 -0.95965,-1.88361 -0.58352,-2.9176 0.2997,-0.99432 2.26115,-12.42432 2.33408,-13.42097 0.26551,-0.22175 1.41551,-2.18354 2.04232,-3.20937 3.72228,6.76301 1.06564,18.7135 -0.58352,27.42547 -0.11168,1.26389 -0.1789,2.0073 1.75056,2.62584 0.0318,0.53217 0,24.79962 0,24.79962 0,0 -0.17095,1.70154 -0.58352,2.04232 -0.39889,0.47265 -1.48154,1.41796 -1.4588,2.33408 -0.0228,0.97797 0.72147,1.38411 1.4588,1.4588 0.6154,-0.0747 1.02116,-0.41314 1.45939,-0.58352 0.37346,-0.36996 3.79289,-2.9176 3.79289,-2.9176 0,0 1.38178,-1.10519 1.75056,-2.9176 l 3.79288,-17.79738 c 0,0 0.0327,-0.94997 0.87528,-1.75056 0.77958,-0.68739 1.3211,-1.1612 1.75056,-1.4588 0.517,-0.10738 1.1939,-0.31043 1.16704,0.58352 0.0269,0.99899 0,21.2985 0,21.2985 0,0 0.0945,1.1402 0.58352,1.75056 0.72824,0.47265 6.54477,4.2597 6.71049,4.66817 0.24041,0.13303 1.18687,0.40262 1.4588,0.29176 0.26959,0.11086 1.48681,-0.29411 1.4588,-1.16705 0.028,-1.15654 -0.5135,-1.69805 -0.87528,-2.04232 -0.31393,-0.60219 -1.66654,-2.29324 -1.75056,-2.62584 -0.3221,-0.0736 -1.22539,-1.38061 -0.58352,-3.50112 0.12604,-0.6979 2.76355,-15.10386 2.9176,-16.63034 0.72589,-0.23225 6.81202,-2.86976 4.95993,-9.91984 l -7.87753,-31.51011 c 0,0 -0.7294,-1.79259 0.87528,-2.33408 7.36636,-2.72855 11.62724,-4.69034 17.50562,-9.3361 0.86826,-0.43297 2.98178,-2.38661 -0.87529,-4.95992 l 18.08914,-46.38988 -1.16704,50.47452 c 0,0 -0.21474,3.08683 0,5.54321 l 5.54344,65.93782 c 0,0 -0.28009,1.06551 -0.58352,1.4588 -0.37344,0.55317 -2.60482,3.8664 -2.91759,4.08464 -0.22874,0.32326 -0.6337,1.00015 -0.29177,1.4588 0.063,0.6232 0.73991,1.63735 1.4588,1.75057 0.90446,-0.11322 1.31059,-0.51934 2.04232,-0.87528 l 9.62809,-7.29401 c 0,0 1.47515,-0.66872 1.4588,-3.50112 0,0 0.48432,-20.27617 0.87528,-32.67715 0.49367,-14.539 1.37362,-18.32606 4.37641,-32.38516 l 2.33408,27.71699 c 0,0 0.41196,12.5842 0.29176,13.42098 0.12021,6.45022 0.2836,20.13846 -0.87528,26.55018 -0.22174,0.95113 0.11554,1.01882 0.29177,1.16704 0.36528,0.39213 6.58795,6.34403 7.00224,6.71049 0.12604,0.44464 1.14137,0.98614 1.75057,0.87528 0.33727,0.11086 2.36676,-0.49716 2.33408,-1.75057 0.0327,-0.36996 -0.0361,-0.97915 -0.58352,-1.4588 -0.26376,-0.73758 -1.00716,-2.02249 -1.16704,-2.33408 -0.11087,-0.0945 -0.38163,-0.43297 -0.29176,-1.4588 0.31626,-1.27325 5.32054,-43.29605 5.54344,-44.34756 0.3186,-1.29309 1.94196,-27.62363 2.04232,-30.63459 -0.10036,-2.94212 -4.60981,-48.30032 -4.66816,-49.01572 0,0 11.23977,14.19005 11.37865,34.42771 -0.13888,3.07865 -0.45398,7.77482 -0.58352,8.46105 -0.0957,0.66054 -0.18556,1.65253 -0.58352,2.33408 -0.14355,0.58118 -0.86478,2.56515 -0.87528,3.79288 0.0104,1.47631 1.18221,5.89566 6.12696,5.83497 2.63051,0.0607 5.38123,-3.23013 5.25169,-5.25145 0.12954,-2.30841 -0.45632,-3.6155 -0.58352,-4.08464 -0.4143,-0.25208 -0.68389,-1.9653 -0.29176,-3.79289 0.3291,-1.60001 1.14019,-13.50266 1.16703,-16.33857 -0.0269,-11.1184 -3.99477,-29.62767 -6.71048,-41.13819 -0.24391,-1.55099 -1.97347,-4.81288 -4.08465,-6.41873 -6.66497,-4.36123 -12.44649,-7.91347 -19.25618,-9.04514 -0.99664,-0.16981 -3.25138,-1.07135 -1.45879,-4.08465 1.99447,-2.93814 5.42206,-7.80797 5.54344,-12.837451 -0.12138,-5.250518 -3.81855,-13.727553 -13.71273,-13.712732 z" id="path15"/></svg>