<?xml version="1.0" encoding="UTF-8" standalone="no"?>
<!-- Created with Inkscape (http://www.inkscape.org/) -->
<svg xmlns:dc="http://purl.org/dc/elements/1.1/" xmlns:cc="http://creativecommons.org/ns#" xmlns:rdf="http://www.w3.org/1999/02/22-rdf-syntax-ns#" xmlns:svg="http://www.w3.org/2000/svg" xmlns="http://www.w3.org/2000/svg" xmlns:inkscape="http://www.inkscape.org/namespaces/inkscape" version="1.1" width="721.5" height="328.5" id="svg2" xml:space="preserve"><defs id="defs31"/><metadata id="metadata8"><rdf:RDF><cc:Work rdf:about=""><dc:format>image/svg+xml</dc:format><dc:type rdf:resource="http://purl.org/dc/dcmitype/StillImage"/></cc:Work></rdf:RDF></metadata><g transform="matrix(1.25,0,0,-1.25,-1.7625,329.29)" id="g10"><path d="M 578.61,33.03 C 578.59,15.124 564.04,0.573 546.09,0.63 H 33.93 C 15.957,0.57281 1.406,15.124 1.41,33.03 v 197.88 c -0.0039,17.966 14.547,32.517 32.52,32.52 h 512.16 c 17.953,-0.003 32.504,-14.554 32.52,-32.52 V 33.03" inkscape:connector-curvature="0" id="path12"/><path d="m 561.69,33.03 c 0.027,-8.586 -6.968,-15.581 -15.6,-15.6 H 33.93 c -8.652,0.019 -15.647,7.014 -15.6,15.6 v 197.88 c -0.047,8.646 6.948,15.64 15.6,15.6 h 512.16 c 8.632,0.04 15.627,-6.954 15.6,-15.6 V 33.03" inkscape:connector-curvature="0" id="path14" style="fill:#ffffff"/><path d="m 188.61,186.03 v -11.4 h -26.04 v -13.68 h 30.96 v -13.08 h -43.68 v 63.6 h 40.8 v -12 h -28.08 v -13.44 h 26.04" inkscape:connector-curvature="0" id="path16"/><path d="m 217.65,172.35 -14.28,21.24 h 13.56 l 7.44,-11.16 6.72,11.16 h 14.28 l -13.92,-21.24 15.96,-24.48 h -13.68 l -9.36,13.92 -9,-13.92 h -13.68 l 15.96,24.48" inkscape:connector-curvature="0" id="path18"/><path d="m 252.81,170.19 c -0.032,14.411 7.467,24.711 22.2,24.72 8.667,-0.009 17.25,-5.701 20.4,-15 l -11.76,-4.44 c -1.509,5.066 -4.581,8.409 -9.24,8.4 -6.363,0.009 -8.893,-6.135 -8.88,-13.68 -0.013,-7.904 2.336,-13.144 9,-13.2 4.629,0.056 7.069,2.585 9.12,8.4 l 12.12,-4.44 c -4.052,-10.319 -10.286,-14.746 -21,-14.76 -14.493,0.014 -21.992,9.5 -21.96,24" inkscape:connector-curvature="0" id="path20"/><path d="m 335.61,162.51 7.32,-8.04 c -5.93,-5.285 -9.815,-7.543 -18.12,-7.56 -14.191,0.017 -22.865,10.497 -22.92,24.48 0.055,12.489 8.096,23.421 20.52,23.4 13.416,0.021 21.728,-10.008 21.72,-24.96 v -3.24 h -30.12 c 0.223,-5.208 5.011,-9.002 11.04,-9 3.458,-0.002 5.355,0.54 10.56,4.92" inkscape:connector-curvature="0" id="path22"/><path d="m 314.01,175.95 h 18.48 c -0.278,4.495 -4.796,8.561 -9.36,8.52 -4.561,0.041 -8.446,-3.573 -9.12,-8.52" inkscape:connector-curvature="0" id="path24" style="fill:#ffffff"/><path d="m 398.49,170.43 c 0.05,-13.656 -7.72,-23.323 -19.56,-23.28 -6.23,-0.043 -7.133,0.59 -12.72,4.2 v -17.04 h -12.12 v 59.64 h 12.12 v -2.4 c 3.87,3.17 6.31,4.526 11.52,4.56 13.672,-0.034 20.81,-10.244 20.76,-25.68" inkscape:connector-curvature="0" id="path26"/><path d="m 366.21,166.83 c -0.015,-4.815 5.316,-8.971 10.08,-9 6.981,0.029 9.601,5.449 9.6,13.44 0.001,8.633 -2.619,13.693 -10.08,13.68 -8.801,0.013 -9.615,-7.847 -9.6,-11.04 v -7.08" inkscape:connector-curvature="0" id="path28" style="fill:#ffffff"/><path d="m 412.53,183.15 h -7.2 v 10.44 h 7.2 v 14.4 l 12.48,3.48 v -17.88 h 11.76 v -10.44 h -11.52 v -20.64 c 0.007,-4.561 1.724,-5.013 3.48,-5.04 1.857,0.027 3.213,0.389 6.84,1.08 l 2.76,-10.2 c -5.665,-1.514 -10.814,-2.056 -14.16,-2.04 -4.334,-0.016 -11.652,2.243 -11.64,10.8 v 26.04" inkscape:connector-curvature="0" id="path30"/><path d="M 50.97,121.59 H 63.09 V 74.67 c -0.057,-4.899 0.756,-6.073 3.36,-6.24 1.552,-0.104 2.817,-0.014 4.56,0.48 l 1.2,-10.68 C 67.912,57.123 63.846,56.4 60.93,56.43 57.973,56.4 50.926,57.394 50.97,68.07 v 53.52" inkscape:connector-curvature="0" id="path32"/><path d="m 77.01,79.95 c 0.02,18.462 10.861,25.238 21.72,25.2 9.831,0.038 22.118,-6.738 22.08,-25.2 0.038,-13.702 -8.906,-24.002 -21.48,-24 -13.808,-0.002 -22.3,9.485 -22.32,24" inkscape:connector-curvature="0" id="path34"/><path d="m 108.45,79.95 c 0.02,10.692 -3.684,14.034 -9.12,14.04 -6.851,-0.006 -9.652,-5.607 -9.6,-14.04 -0.052,-7.468 3.562,-13.07 9.6,-13.08 5.978,0.01 9.14,5.612 9.12,13.08" inkscape:connector-curvature="0" id="path36" style="fill:#ffffff"/><path d="m 129.09,79.95 c 0.025,14.306 7.524,24.605 22.2,24.6 8.724,0.005 17.307,-5.687 20.52,-15 l -11.76,-4.44 c -1.572,5.08 -4.644,8.423 -9.36,8.4 -6.306,0.023 -8.836,-6.121 -8.88,-13.56 0.044,-8.01 2.393,-13.25 9.12,-13.2 4.566,-0.05 7.006,2.479 9.12,8.28 l 12.12,-4.44 c -4.115,-10.305 -10.349,-14.732 -21.12,-14.76 -14.436,0.028 -21.935,9.514 -21.96,24.12" inkscape:connector-curvature="0" id="path38"/><path d="m 194.49,56.31 c -9.974,0 -15.846,5.601 -15.84,14.4 -0.006,7.735 4.692,15.956 26.76,15.96 v 2.52 c -0.023,2.717 -2.734,4.433 -6.84,4.44 -3.573,-0.007 -9.536,-2.085 -13.92,-4.68 l -5.88,8.88 c 3.307,2.479 11.167,6.906 19.56,6.96 12.748,-0.054 19.344,-4.933 19.32,-13.8 V 71.91 c 0.024,-4.036 1.108,-5.21 5.4,-5.88 l -4.32,-9.6 c -2.14,-0.03 -8.194,0.783 -11.28,4.68 -4.051,-3.897 -7.846,-4.8 -12.96,-4.8" inkscape:connector-curvature="0" id="path40"/><path d="m 198.45,66.51 c 5.039,0.009 7.298,1.454 7.32,5.28 v 5.76 l -9.36,-1.32 c -4.033,-0.676 -4.847,-2.845 -4.8,-5.4 -0.047,-2.956 1.76,-4.311 6.84,-4.32" inkscape:connector-curvature="0" id="path42" style="fill:#ffffff"/><path d="m 230.97,121.59 h 12.12 V 74.67 c 0.017,-4.899 0.83,-6.073 3.48,-6.24 1.506,-0.104 2.771,-0.014 4.44,0.48 l 1.2,-10.68 c -4.224,-1.107 -8.29,-1.83 -11.16,-1.8 -3.002,-0.03 -10.05,0.964 -10.08,11.64 v 53.52" inkscape:connector-curvature="0" id="path44"/><path d="m 314.73,104.91 c -4.5,0.007 -7.663,-0.897 -12.6,-4.2 v 20.64 H 289.77 V 57.63 h 12.36 v 3.24 c 3.944,-3.295 7.738,-4.199 12.84,-4.2 12.697,10e-4 20.195,9.307 20.16,23.4 0.035,14.728 -7.102,24.847 -20.4,24.84" inkscape:connector-curvature="0" id="path46"/><path d="m 368.97,57.87 c -1.85,-0.928 -3.928,-1.109 -6.12,-1.08 -9.914,-0.029 -17.323,7.29 -17.28,16.56 v 30 h 12 V 77.31 c -0.027,-5.28 2.503,-9.074 7.56,-9.12 5.875,0.046 9.58,3.117 9.6,7.68 v 27.48 h 12.12 V 57.63 h -12.48 v 3.24 c -2.281,-1.94 -3.365,-2.302 -5.4,-3" inkscape:connector-curvature="0" id="path48"/><path d="m 415.41,86.43 7.56,-1.08 c 8.085,-1.033 12.874,-6.634 12.84,-13.8 0.034,-9.187 -7.646,-15.602 -18.6,-15.6 -9.464,-0.002 -15.879,2.347 -21.96,8.4 l 9.12,7.92 c 3.647,-3.763 7.803,-5.932 12.24,-5.88 3.604,-0.052 6.495,1.484 6.48,3.84 0.015,1.89 -1.883,3.697 -5.64,4.44 l -8.04,1.56 c -6.995,1.311 -11.151,6.642 -11.16,12.84 0.009,9.251 7.146,15.124 18.84,15.12 6.466,0.004 11.887,-1.08 18.24,-6.72 l -7.8,-8.28 c -3.16,3.71 -6.503,4.885 -10.68,4.92 -3.503,-0.035 -5.942,-2.023 -6,-4.32 0.058,-1.497 0.871,-2.853 4.56,-3.36" inkscape:connector-curvature="0" id="path50"/><path d="m 476.49,72.15 7.32,-8.04 c -5.92,-5.271 -9.805,-7.529 -18.12,-7.56 -14.181,0.031 -22.855,10.511 -22.8,24.48 -0.055,12.503 7.986,23.435 20.4,23.4 13.426,0.035 21.737,-9.994 21.72,-24.96 v -3.24 h -30.12 c 0.232,-5.194 5.021,-8.988 11.04,-9 3.467,0.012 5.365,0.554 10.56,4.92" inkscape:connector-curvature="0" id="path52"/><path d="m 454.89,85.59 h 18.48 c -0.268,4.51 -4.786,8.575 -9.36,8.52 -4.551,0.055 -8.436,-3.559 -9.12,-8.52" inkscape:connector-curvature="0" id="path54" style="fill:#ffffff"/><path d="m 511.29,86.43 7.56,-1.08 c 8.021,-1.033 12.81,-6.634 12.84,-13.8 -0.03,-9.187 -7.71,-15.602 -18.6,-15.6 -9.528,-0.002 -15.943,2.347 -21.96,8.4 l 9,7.92 c 3.703,-3.763 7.859,-5.932 12.24,-5.88 3.66,-0.052 6.551,1.484 6.6,3.84 -0.049,1.89 -1.947,3.697 -5.76,4.44 l -7.92,1.56 c -7.059,1.311 -11.215,6.642 -11.16,12.84 -0.055,9.251 7.083,15.124 18.84,15.12 6.402,0.004 11.823,-1.08 18.12,-6.72 l -7.8,-8.28 c -3.105,3.71 -6.447,4.885 -10.56,4.92 -3.567,-0.035 -6.006,-2.023 -6,-4.32 -0.006,-1.497 0.807,-2.853 4.56,-3.36" inkscape:connector-curvature="0" id="path56"/><path d="m 312.21,67.47 c -6.408,0.043 -9.841,3.476 -9.84,9.72 v 7.2 c -10e-4,5.439 3.704,9.594 9.48,9.6 6.963,-0.006 10.576,-5.426 10.56,-13.32 0.016,-8.098 -3.507,-13.157 -10.2,-13.2" inkscape:connector-curvature="0" id="path58" style="fill:#ffffff"/></g></svg>