<?xml version="1.0" encoding="UTF-8" standalone="no"?>
<!-- Created with Inkscape (http://www.inkscape.org/) -->
<svg xmlns:dc="http://purl.org/dc/elements/1.1/" xmlns:cc="http://creativecommons.org/ns#" xmlns:rdf="http://www.w3.org/1999/02/22-rdf-syntax-ns#" xmlns:svg="http://www.w3.org/2000/svg" xmlns="http://www.w3.org/2000/svg" xmlns:inkscape="http://www.inkscape.org/namespaces/inkscape" version="1.1" width="301.26999" height="419.89001" id="svg2" xml:space="preserve"><metadata id="metadata8"><rdf:RDF><cc:Work rdf:about=""><dc:format>image/svg+xml</dc:format><dc:type rdf:resource="http://purl.org/dc/dcmitype/StillImage"/></cc:Work></rdf:RDF></metadata><defs id="defs6"><clipPath id="clipPath16"><path d="M 0,335.91 H 241.02 V 0 H 0 v 335.91 z" inkscape:connector-curvature="0" id="path18"/></clipPath></defs><g transform="matrix(1.25,0,0,-1.25,0,419.89)" id="g10"><g id="g12"><g clip-path="url(#clipPath16)" id="g14"><g transform="translate(12.824,335.92)" id="g20"><path d="m 0,0 c -7.0605,0 -12.824,-5.621 -12.824,-12.676 v -310.57 c 0,-7.055 5.7635,-12.676 12.824,-12.676 h 215.38 c 7.055,0 12.82,5.621 12.82,12.676 v 310.57 c 0,7.059 -5.77,12.68 -12.82,12.68 H 0" inkscape:connector-curvature="0" id="path22" style="fill:#ec1d24;fill-rule:evenodd"/></g></g></g><g transform="translate(12.824,238.11)" id="g24"><path d="m 0,0 c -3.6054,0 -6.4844,-2.882 -6.4844,-6.339 v -161.62 c 0,-3.597 2.879,-6.335 6.4844,-6.335 h 215.38 c 3.602,0 6.481,2.738 6.481,6.335 v 161.62 c 0,3.458 -2.88,6.34 -6.48,6.34 H 0.001" inkscape:connector-curvature="0" id="path26" style="fill:#ffffff;fill-rule:evenodd"/></g><g transform="translate(120.44,74.328)" id="g28"><path d="m 0,0 c 42.359,0 76.648,34.285 76.648,76.637 0,42.203 -34.289,76.488 -76.648,76.488 -42.211,0 -76.498,-34.285 -76.498,-76.488 C -76.498,34.29 -42.211,0.005 0,0.005" inkscape:connector-curvature="0" id="path30" style="fill:#ec1d24;fill-rule:evenodd"/></g><g transform="translate(120.44,89.746)" id="g32"><path d="m 0,0 c 33.859,0 61.375,27.367 61.375,61.219 0,33.848 -27.516,61.219 -61.375,61.219 -33.711,0 -61.227,-27.371 -61.227,-61.219 0,-33.854 27.516,-61.221 61.227,-61.221" inkscape:connector-curvature="0" id="path34" style="fill:#0079c1;fill-rule:evenodd"/></g><g transform="translate(175.18,193.75)" id="g36"><path d="M 0,0 -11.957,11.813 -109.34,-85.566 -97.389,-97.519 0,0" inkscape:connector-curvature="0" id="path38" style="fill:#ec1d24;fill-rule:evenodd"/></g><g transform="translate(77.795,205.56)" id="g40"><path d="M 0,0 -11.955,-11.813 85.432,-109.33 97.389,-97.379 0,0" inkscape:connector-curvature="0" id="path42" style="fill:#ec1d24;fill-rule:evenodd"/></g><g transform="translate(12.824,57.332)" id="g44"><path d="m 0,0 c -3.6054,0 -6.4844,-2.879 -6.4844,-6.336 v -38.32 c 0,-3.453 2.879,-6.336 6.4844,-6.336 h 215.38 c 3.602,0 6.481,2.883 6.481,6.336 v 38.32 c 0,3.457 -2.88,6.336 -6.48,6.336 H 0.001" inkscape:connector-curvature="0" id="path46" style="fill:#ffffff;fill-rule:evenodd"/></g><g transform="translate(27.084,45.09)" id="g48"><path d="M 0,0 H 1.875 L 13.543,-16.422 V 0 h 4.613 V -23.914 H 12.68 L 2.02,-7.637 V -23.914 H -2.736 V 0 H 0" inkscape:connector-curvature="0" id="path50" style="fill:#231f20;fill-rule:evenodd"/></g><g transform="translate(58.492,35.004)" id="g52"><path d="m 0,0 c -1.873,0 -3.889,-1.727 -3.889,-5.473 0,-3.742 2.16,-5.332 3.889,-5.332 1.871,0 3.887,1.59 3.887,5.332 C 3.887,-1.727 1.871,0 0,0 m 0,3.895 c -4.176,0 -8.357,-3.461 -8.357,-9.368 0,-5.761 4.181,-9.218 8.357,-9.218 4.324,0 8.356,3.457 8.356,9.218 C 8.356,0.434 4.18,3.895 0,3.895" inkscape:connector-curvature="0" id="path54" style="fill:#231f20;fill-rule:evenodd"/></g><g transform="translate(201.84,17.434)" id="g56"><path d="M 0,0 2.015,3.597 C 2.879,3.312 4.465,2.16 7.629,2.16 c 4.328,0 3.609,3.312 3.609,3.312 0,0 -1.445,-0.863 -3.461,-0.863 C 0.285,4.609 0,12.82 0,12.82 c 0,0 0.144,3.742 2.59,6.047 1.586,1.297 3.023,1.875 5.187,1.875 0.719,0 2.305,-0.285 3.461,-0.867 v 0.867 h 4.461 V 3.457 c 0,-3.891 -5.328,-5.328 -8.07,-5.328 C 4.894,-1.871 1.73,-1.008 0,0 m 11.238,12.675 c 0,1.872 -0.867,3.743 -3.172,3.743 -2.304,0 -3.027,-2.16 -3.027,-3.743 0,-1.441 0.574,-3.601 3.027,-3.601 2.305,0 3.172,1.875 3.172,3.601" inkscape:connector-curvature="0" id="path58" style="fill:#231f20;fill-rule:evenodd"/></g><g transform="translate(175.41,21.18)" id="g60"><path d="M 0,0 V 16.996" inkscape:connector-curvature="0" id="path62" style="fill:none;stroke:#231f20;stroke-width:4.46799994;stroke-miterlimit:10"/></g><g transform="translate(175.18,44.977)" id="g64"><path d="m 0,0 c 1.351,0 2.449,-1.094 2.449,-2.45 0,-1.351 -1.098,-2.445 -2.449,-2.445 -1.352,0 -2.449,1.094 -2.449,2.445 C -2.449,-1.094 -1.352,0 0,0" inkscape:connector-curvature="0" id="path66" style="fill:#231f20;fill-rule:evenodd"/></g><g transform="translate(197.94,32.414)" id="g68"><path d="m 0,0 v -11.238 h -4.461 v 10.66 c 0,1.297 -1.015,2.594 -2.882,2.594 -1.875,0 -3.602,-1.586 -3.602,-3.887 v -9.367 h -4.469 v 17 h 4.469 V 4.606 c 0,0 1.727,1.589 4.32,1.589 C -2.734,6.195 0,3.024 0,0" inkscape:connector-curvature="0" id="path70" style="fill:#231f20;fill-rule:evenodd"/></g><g transform="translate(136.43,31.692)" id="g72"><path d="m 0,0 v -3.168 c 0,-1.727 1.297,-3.602 3.89,-3.602 2.453,0 4.035,2.453 4.035,5.187 0,2.735 -1.441,5.04 -4.035,5.04 C 1.297,3.457 0,1.441 0,0 M 0,5.761 V 6.484 H -4.469 V -15.411 H 0 v 6.192 c 0,0 1.441,-1.727 4.758,-1.727 5.906,0 7.773,6.34 7.773,9.074 0,2.305 -0.859,4.754 -2.301,6.192 C 9.078,5.761 7.203,7.207 4.468,7.207 2.883,7.207 1.156,6.628 0,5.761" inkscape:connector-curvature="0" id="path74" style="fill:#231f20;fill-rule:evenodd"/></g><g transform="translate(79.811,23.914)" id="g76"><path d="M 0,0 3.316,2.883 C 4.469,1.442 7.205,0.285 8.357,0.285 c 1.157,0 2.164,0.868 2.164,1.735 0,0.863 -0.576,1.297 -1.152,1.441 -0.724,0.141 -2.885,0.719 -3.461,0.863 -0.431,0 -4.463,0.719 -4.463,4.895 0,4.176 4.463,5.332 7.2,5.332 2.595,0 5.044,-0.867 6.916,-2.594 L 12.682,9.074 c -1.584,1.297 -2.737,1.871 -4.037,1.871 -1.295,0 -2.448,-0.574 -2.448,-1.582 0,-1.007 0.864,-1.152 1.153,-1.152 0.431,-0.144 3.314,-0.719 4.035,-1.008 0.576,-0.144 4.031,-1.152 4.031,-5.039 0,-3.894 -3.742,-5.476 -7.203,-5.476 C 4.613,-3.312 1.156,-1.441 0,0" inkscape:connector-curvature="0" id="path78" style="fill:#231f20;fill-rule:evenodd"/></g><g transform="translate(109.35,21.609)" id="g80"><path d="M 0,0 -0.721,3.747 C -3.893,2.735 -4.756,3.602 -4.756,4.325 v 8.496 h 4.467 v 3.89 h -4.467 v 6.625 L -9.077,22.04 v -5.329 h -2.736 v -3.89 h 2.736 V 2.879 c 0,-2.16 1.297,-3.886 4.608,-3.886 2.309,0 4.037,0.863 4.469,1.007" inkscape:connector-curvature="0" id="path82" style="fill:#231f20;fill-rule:evenodd"/></g><g transform="translate(120.15,35.004)" id="g84"><path d="m 0,0 c -1.873,0 -3.888,-1.727 -3.888,-5.473 0,-3.742 2.015,-5.332 3.888,-5.332 1.727,0 3.891,1.59 3.891,5.332 C 3.891,-1.727 1.871,0 0,0 m 0,3.895 c -4.177,0 -8.357,-3.461 -8.357,-9.368 0,-5.761 4.037,-9.218 8.357,-9.218 4.18,0 8.356,3.457 8.356,9.218 C 8.356,0.434 4.18,3.895 0,3.895" inkscape:connector-curvature="0" id="path86" style="fill:#231f20;fill-rule:evenodd"/></g><g transform="translate(156.89,31.692)" id="g88"><path d="m 0,0 v -3.168 c 0,-1.727 1.301,-3.602 3.746,-3.602 2.594,0 4.035,2.453 4.035,5.187 0,2.735 -1.441,5.04 -4.035,5.04 C 1.152,3.457 0,1.441 0,0 M 0,5.761 V 6.484 H -4.465 V -15.411 H 0 v 6.192 c 0,0 1.445,-1.727 4.613,-1.727 6.051,0 7.781,6.34 7.781,9.074 0,2.305 -0.867,4.754 -2.164,6.192 C 8.933,5.761 7.207,7.207 4.468,7.207 2.886,7.207 1.152,6.628 0,5.761" inkscape:connector-curvature="0" id="path90" style="fill:#231f20;fill-rule:evenodd"/></g><g transform="translate(12.824,329.58)" id="g92"><path d="m 0,0 c -3.6054,0 -6.4844,-2.879 -6.4844,-6.336 v -72.312 c 0,-3.606 2.879,-6.485 6.4844,-6.485 h 215.38 c 3.602,0 6.481,2.879 6.481,6.485 v 72.312 c 0,3.457 -2.88,6.336 -6.48,6.336 H 0.001" inkscape:connector-curvature="0" id="path94" style="fill:#ffffff;fill-rule:evenodd"/></g><g transform="translate(30.975,311.72)" id="g96"><path d="M 0,0 H -5.043 V -5.766 H 0 c 2.305,0 3.168,1.727 3.168,2.879 C 3.168,-1.441 2.305,0 0,0 m 1.441,4.176 h -11.38 v -23.625 h 4.896 v 9.363 h 3.316 l 5.471,-9.363 h 5.19 l -5.477,9.363 c 1.729,0.289 5.188,2.594 5.188,7.199 0,4.903 -3.459,7.063 -7.204,7.063" inkscape:connector-curvature="0" id="path98" style="fill:#231f20;fill-rule:evenodd"/></g><g transform="translate(54.172,316.04)" id="g100"><path d="M 0,0 H -7.637 V -23.914 H 8.355 v 4.465 H -3.029 v 5.332 h 9.652 v 4.32 h -9.652 v 5.332 H 7.775 V 0 H 0" inkscape:connector-curvature="0" id="path102" style="fill:#231f20;fill-rule:evenodd"/></g><g transform="translate(77.652,311.58)" id="g104"><path d="M 0,0 H -3.457 V -15.129 H 0 c 3.027,0 6.627,1.875 6.627,7.637 C 6.627,-1.871 3.027,0 0,0 m 0.143,4.32 h -8.356 v -23.769 h 8.356 c 6.34,0 11.24,4.176 11.24,11.957 0,8.066 -5.619,11.812 -11.24,11.812" inkscape:connector-curvature="0" id="path106" style="fill:#231f20;fill-rule:evenodd"/></g><g transform="translate(115.69,311.72)" id="g108"><path d="M 0,0 H -5.188 V -5.766 H 0 c 2.304,0 3.167,1.727 3.167,2.879 C 3.167,-1.441 2.304,0 0,0 M 1.439,4.176 H -9.944 v -23.625 h 4.756 v 9.363 h 3.455 l 5.475,-9.363 h 5.047 l -5.334,9.363 c 1.728,0.289 5.189,2.594 5.189,7.199 0,4.903 -3.461,7.063 -7.205,7.063" inkscape:connector-curvature="0" id="path110" style="fill:#231f20;fill-rule:evenodd"/></g><g transform="translate(140.61,311.58)" id="g112"><path d="m 0,0 c -3.312,0 -6.336,-2.453 -6.336,-7.637 0,-5.183 3.165,-7.781 6.336,-7.781 3.024,0 6.196,2.598 6.196,7.781 C 6.196,-2.453 3.172,0 0,0 m 0,4.75 c -4.609,0 -11.238,-3.598 -11.238,-12.242 0,-8.645 6.484,-12.246 11.238,-12.246 4.754,0 11.239,3.601 11.239,12.246 C 11.239,1.152 4.469,4.75 0,4.75" inkscape:connector-curvature="0" id="path114" style="fill:#231f20;fill-rule:evenodd"/></g><g transform="translate(157.75,301.21)" id="g116"><path d="M 0,0 V 14.691 H 4.902 V 0 c 0,-2.449 2.016,-4.902 4.754,-4.902 3.024,0 4.754,2.453 4.754,4.902 v 14.691 h 4.899 V 0 c 0,-4.184 -3.457,-9.367 -9.653,-9.367 C 3.75,-9.367 0,-4.184 0,0" inkscape:connector-curvature="0" id="path118" style="fill:#231f20;fill-rule:evenodd"/></g><g transform="translate(195.79,311.58)" id="g120"><path d="M 0,0 H -2.594 V -19.449 H -7.351 V 0 h -6.77 V 4.32 H 4.031 V 0 H 0" inkscape:connector-curvature="0" id="path122" style="fill:#231f20;fill-rule:evenodd"/></g><g transform="translate(212.64,316.04)" id="g124"><path d="M 0,0 H -7.778 V -23.914 H 8.359 v 4.465 H -3.024 v 5.332 h 9.656 v 4.32 h -9.656 v 5.332 H 7.64 V 0 H 0" inkscape:connector-curvature="0" id="path126" style="fill:#231f20;fill-rule:evenodd"/></g><g transform="translate(45.672,274.99)" id="g128"><path d="m 0,0 -4.469,-2.016 c -1.008,2.45 -2.447,4.895 -5.908,4.895 -3.744,0 -6.191,-3.453 -6.191,-7.633 0,-4.465 2.447,-7.488 6.191,-7.488 3.461,0 5.19,2.734 5.908,4.465 L 0,-9.508 c -1.012,-2.734 -4.18,-7.637 -10.377,-7.637 -6.478,0 -11.379,5.477 -11.379,12.391 0,7.203 5.619,12.098 11.379,12.098 C -4.9,7.344 -1.445,3.457 0,0" inkscape:connector-curvature="0" id="path130" style="fill:#231f20;fill-rule:evenodd"/></g><g transform="translate(51.576,281.9)" id="g132"><path d="M 0,0 H 4.898 V -19.156 H 15.416 V -23.77 H 0 V 0" inkscape:connector-curvature="0" id="path134" style="fill:#231f20;fill-rule:evenodd"/></g><g transform="translate(79.523,281.9)" id="g136"><path d="M 0,0 H -7.775 V -23.77 H 8.356 v 4.469 H -3.168 v 5.184 h 9.797 v 4.465 h -9.797 v 5.187 H 7.637 V 0 H 0" inkscape:connector-curvature="0" id="path138" style="fill:#231f20;fill-rule:evenodd"/></g><g transform="translate(101.57,266.63)" id="g140"><path d="M 0,0 H -2.017 L 0.864,9.363 4.032,0 H 0 z m -0.576,-4.176 h -2.881 l -1.3,-4.324 h -5.039 l 7.779,23.77 H 3.887 L 11.668,-8.5 H 6.772 l -1.44,4.324 h -5.908" inkscape:connector-curvature="0" id="path142" style="fill:#231f20;fill-rule:evenodd"/></g><g transform="translate(128.94,277.58)" id="g144"><path d="M 0,0 H -5.04 V -5.621 H 0 c 2.304,0 3.171,1.73 3.171,2.883 C 3.171,-1.441 2.304,0 0,0 M 1.441,4.32 H -9.938 v -23.769 h 4.898 v 9.508 h 3.313 L 3.75,-19.449 H 8.933 L 3.46,-9.941 c 1.727,0.289 5.188,2.593 5.188,7.203 0,4.754 -3.461,7.058 -7.207,7.058" inkscape:connector-curvature="0" id="path146" style="fill:#231f20;fill-rule:evenodd"/></g><g transform="translate(155.88,281.9)" id="g148"><path d="M 0,0 H -1.871 L -5.039,-15.844 -8.785,0 h -5.043 l 5.472,-23.77 H -2.59 L 0.863,-6.336 4.324,-23.77 h 5.758 L 15.418,0 H 10.371 L 6.918,-15.844 3.461,0 H 0" inkscape:connector-curvature="0" id="path150" style="fill:#231f20;fill-rule:evenodd"/></g><g transform="translate(183.97,266.63)" id="g152"><path d="M 0,0 H -2.016 L 1.015,9.363 4.039,0 H 0 z M -0.574,-4.176 H -3.453 L -4.75,-8.5 h -4.899 l 7.633,23.77 h 5.91 L 11.672,-8.5 H 6.773 l -1.437,4.324 h -5.91" inkscape:connector-curvature="0" id="path154" style="fill:#231f20;fill-rule:evenodd"/></g><g transform="translate(201.12,281.9)" id="g156"><path d="m 0,0 h -3.172 l 7.926,-14.117 v -9.653 h 4.613 v 9.508 L 17.289,0 H 11.813 L 7.059,-9.223 2.305,0 H 0" inkscape:connector-curvature="0" id="path158" style="fill:#231f20;fill-rule:evenodd"/></g></g></svg>