<?xml version="1.0" encoding="UTF-8" standalone="no"?>
<!-- Created with Inkscape (http://www.inkscape.org/) -->

<svg
   xmlns:dc="http://purl.org/dc/elements/1.1/"
   xmlns:cc="http://creativecommons.org/ns#"
   xmlns:rdf="http://www.w3.org/1999/02/22-rdf-syntax-ns#"
   xmlns:svg="http://www.w3.org/2000/svg"
   xmlns="http://www.w3.org/2000/svg"
   xmlns:sodipodi="http://sodipodi.sourceforge.net/DTD/sodipodi-0.dtd"
   xmlns:inkscape="http://www.inkscape.org/namespaces/inkscape"
   version="1.1"
   width="360.26767"
   height="318.20004"
   id="svg2816"
   xml:space="preserve"
   inkscape:version="0.48.4 r9939"
   sodipodi:docname="AJAX.svg"><metadata
     id="metadata81"><rdf:RDF><cc:Work
         rdf:about=""><dc:format>image/svg+xml</dc:format><dc:type
           rdf:resource="http://purl.org/dc/dcmitype/StillImage" /><dc:title></dc:title></cc:Work></rdf:RDF></metadata><sodipodi:namedview
     pagecolor="#ffffff"
     bordercolor="#666666"
     borderopacity="1"
     objecttolerance="10"
     gridtolerance="10"
     guidetolerance="10"
     inkscape:pageopacity="0"
     inkscape:pageshadow="2"
     inkscape:window-width="1920"
     inkscape:window-height="1057"
     id="namedview79"
     showgrid="false"
     fit-margin-top="0.1"
     fit-margin-left="0.1"
     fit-margin-right="0.1"
     fit-margin-bottom="0.1"
     inkscape:zoom="1.130851"
     inkscape:cx="340.69112"
     inkscape:cy="157.20344"
     inkscape:window-x="-8"
     inkscape:window-y="-8"
     inkscape:window-maximized="1"
     inkscape:current-layer="svg2816"
     showguides="true"
     inkscape:guide-bbox="true" /><defs
     id="defs2820"><clipPath
       id="clipPath2832"><path
         d="m -0.24,595.138 317.48,0 0,-595.276 -317.48,0 0,595.276 z"
         id="path2834"
         inkscape:connector-curvature="0" /></clipPath><clipPath
       id="clipPath2840"><path
         d="m 0.03,595.32 317.46,0 0,-595.32 -317.46,0 0,595.32 z"
         id="path2842"
         inkscape:connector-curvature="0" /></clipPath><clipPath
       id="clipPath2858"><path
         d="m -0.24,595.138 317.48,0 0,-595.276 -317.48,0 0,595.276 z"
         id="path2860"
         inkscape:connector-curvature="0" /></clipPath><clipPath
       id="clipPath2864"><path
         d="m 0.03,595.32 317.46,0 0,-595.32 -317.46,0 0,595.32 z"
         id="path2866"
         inkscape:connector-curvature="0" /></clipPath><clipPath
       id="clipPath3306"><path
         d="m 199.238,472.977 0,-29.74 29.744,0 0,29.74"
         id="path3308"
         inkscape:connector-curvature="0" /></clipPath><clipPath
       id="clipPath3322"><path
         d="m -0.24,595.138 317.48,0 0,-595.276 -317.48,0 0,595.276 z"
         id="path3324"
         inkscape:connector-curvature="0" /></clipPath><clipPath
       id="clipPath3330"><path
         d="m 0.03,595.32 317.46,0 0,-595.32 -317.46,0 0,595.32 z"
         id="path3332"
         inkscape:connector-curvature="0" /></clipPath><clipPath
       id="clipPath3344"><path
         d="m 88.233,387.221 0,-28.335 32.08,0 0,28.335"
         id="path3346"
         inkscape:connector-curvature="0" /></clipPath><clipPath
       id="clipPath3462"><path
         d="m -0.24,595.138 317.48,0 0,-595.276 -317.48,0 0,595.276 z"
         id="path3464"
         inkscape:connector-curvature="0" /></clipPath><clipPath
       id="clipPath3470"><path
         d="m 0.03,595.32 317.46,0 0,-595.32 -317.46,0 0,595.32 z"
         id="path3472"
         inkscape:connector-curvature="0" /></clipPath><clipPath
       id="clipPath3490"><path
         d="m -0.24,595.138 317.48,0 0,-595.276 -317.48,0 0,595.276 z"
         id="path3492"
         inkscape:connector-curvature="0" /></clipPath><clipPath
       id="clipPath3496"><path
         d="m 0.03,595.32 317.46,0 0,-595.32 -317.46,0 0,595.32 z"
         id="path3498"
         inkscape:connector-curvature="0" /></clipPath><clipPath
       id="clipPath3520"><path
         d="m 254.788,326.215 0,-28.309 28.326,0 0,28.309"
         id="path3522"
         inkscape:connector-curvature="0" /></clipPath><clipPath
       id="clipPath3544"><path
         d="m 145.049,326.142 0,-28.333 28.342,0 0,28.333"
         id="path3546"
         inkscape:connector-curvature="0" /></clipPath><clipPath
       id="clipPath3682"><path
         d="m -0.24,595.138 317.48,0 0,-595.276 -317.48,0 0,595.276 z"
         id="path3684"
         inkscape:connector-curvature="0" /></clipPath><clipPath
       id="clipPath3690"><path
         d="m 0.03,595.32 317.46,0 0,-595.32 -317.46,0 0,595.32 z"
         id="path3692"
         inkscape:connector-curvature="0" /></clipPath><clipPath
       id="clipPath3980"><path
         d="m -0.24,595.138 317.48,0 0,-595.276 -317.48,0 0,595.276 z"
         id="path3982"
         inkscape:connector-curvature="0" /></clipPath><clipPath
       id="clipPath3988"><path
         d="m 0.03,595.32 317.46,0 0,-595.32 -317.46,0 0,595.32 z"
         id="path3990"
         inkscape:connector-curvature="0" /></clipPath><clipPath
       id="clipPath4010"><path
         d="m -0.24,595.138 317.48,0 0,-595.276 -317.48,0 0,595.276 z"
         id="path4012"
         inkscape:connector-curvature="0" /></clipPath><clipPath
       id="clipPath4016"><path
         d="m 0.03,595.32 317.46,0 0,-595.32 -317.46,0 0,595.32 z"
         id="path4018"
         inkscape:connector-curvature="0" /></clipPath><clipPath
       id="clipPath4062"><path
         d="m 200.163,177.773 0,-28.284 28.283,0 0,28.284"
         id="path4064"
         inkscape:connector-curvature="0" /></clipPath><clipPath
       id="clipPath4090"><path
         d="m 34.886,177.515 0,-51.632 30.367,0 0,51.632"
         id="path4092"
         inkscape:connector-curvature="0" /></clipPath><clipPath
       id="clipPath4106"><path
         d="m 34.886,177.515 0,-51.632 30.367,0 0,51.632"
         id="path4108"
         inkscape:connector-curvature="0" /></clipPath><clipPath
       id="clipPath4272"><path
         d="m 34.886,177.515 0,-51.632 30.367,0 0,51.632"
         id="path4274"
         inkscape:connector-curvature="0" /></clipPath><clipPath
       id="clipPath4304"><path
         d="m 254.653,176.442 0,-48.167 28.317,0 0,48.167"
         id="path4306"
         inkscape:connector-curvature="0" /></clipPath><clipPath
       id="clipPath4310"><path
         d="m 253.565,177.983 31.181,0 0,-49.183 -31.181,0 0,49.183 z"
         id="path4312"
         inkscape:connector-curvature="0" /></clipPath><clipPath
       id="clipPath4316"><path
         d="m -0.24,595.138 317.48,0 0,-595.276 -317.48,0 0,595.276 z"
         id="path4318"
         inkscape:connector-curvature="0" /></clipPath><clipPath
       id="clipPath4322"><path
         d="m 0.03,595.32 317.46,0 0,-595.32 -317.46,0 0,595.32 z"
         id="path4324"
         inkscape:connector-curvature="0" /></clipPath><clipPath
       id="clipPath4456"><path
         d="m -0.24,595.138 317.48,0 0,-595.276 -317.48,0 0,595.276 z"
         id="path4458"
         inkscape:connector-curvature="0" /></clipPath><clipPath
       id="clipPath4464"><path
         d="m 0.03,595.32 317.46,0 0,-595.32 -317.46,0 0,595.32 z"
         id="path4466"
         inkscape:connector-curvature="0" /></clipPath></defs><path
     style="fill:#ec1d24;fill-opacity:1;fill-rule:evenodd;stroke:none"
     d="m 336.29007,318.10005 c 8.5855,0 16.45648,-4.5216 20.6875,-11.90625 4.25346,-7.37342 4.25346,-16.47912 0,-23.875 L 200.82131,11.975053 C 196.54539,4.6016333 188.72329,0.10005333 180.22757,0.10005333 c -0.0312,0 -0.0625,-1.2e-4 -0.0937,0 -0.0312,-1.2e-4 -0.0625,0 -0.0937,0 -8.49572,0 -16.31784,4.50157997 -20.59375,11.87499967 L 3.2901025,282.3188 c -4.25347,7.39588 -4.25347,16.50158 0,23.875 4.23102,7.38465 12.1019905,11.90625 20.6875005,11.90625 z"
     id="path3101"
     inkscape:connector-curvature="0"
     sodipodi:nodetypes="scccscscccss" /><path
     inkscape:connector-curvature="0"
     style="fill:#ffffff;fill-opacity:1;fill-rule:evenodd;stroke:none"
     id="path3121"
     d="m 37.754833,286.28316 284.757827,0 L 180.13365,39.806513 z"
     sodipodi:nodetypes="cccc" /><path
     inkscape:connector-curvature="0"
     style="fill:#000000;fill-opacity:1;fill-rule:nonzero;stroke:none"
     d="m 216.60223,155.07768 c 4.78837,-2.06099 5.05679,-9.18228 4.95992,-11.08689 0.0969,-4.47676 -1.53466,-16.88007 -13.42097,-16.92208 -11.6138,0.042 -13.04927,13.81542 -13.12862,16.33856 0.0793,2.02249 -0.71891,9.70162 7.87693,11.96217 0.4925,0.23575 1.43897,0.88812 1.16705,1.75057 -0.18556,0.57418 -0.47966,0.80292 -1.45881,0.58352 -1.10985,-0.042 -3.16443,-0.36879 -4.08405,-0.58352 -0.64772,0.0187 -1.92096,-0.47032 -4.08464,0.87528 -0.85195,0.52166 -14.46899,7.48305 -23.34083,19.25617 -0.34545,0.51583 -1.58601,1.88711 -0.87528,4.37641 l 6.71049,19.25617 c 0,0 1.0655,1.95013 -0.29176,2.91761 -1.38529,0.86127 -6.21566,2.81956 -7.00225,2.9176 -0.77959,0.29292 -2.28157,0.88111 -3.79288,-1.4588 3.4521,5.20966 -12.01002,-19.92956 -17.50561,-25.38315 -0.50183,-0.54268 -0.95932,-1.78323 0.29176,-2.62584 1.18688,-1.02816 7.06176,-5.3147 7.00224,-12.54569 0.0595,-7.21815 -5.03228,-12.0497 -11.67041,-11.96217 -6.41757,-0.0875 -11.76962,4.91791 -11.67041,12.54569 -0.0992,5.34154 3.38209,9.43202 4.08464,10.21161 0.86361,0.87411 0.86361,2.96312 -1.4588,2.9176 -2.20337,-0.0852 -5.55395,-0.3898 -7.87753,0 -4.97977,1.27908 -12.32979,3.8594 -16.63092,8.75281 -1.88734,2.18003 -6.86092,9.82415 -8.16928,12.83745 -1.96029,4.74985 -2.262318,12.91798 -1.75057,17.50562 0.0205,0.72706 -0.0457,1.44479 -0.29176,2.04232 -0.210878,0.38161 -0.928848,0.87178 -0.875278,2.9176 -0.0536,2.0003 1.774488,4.41609 5.251688,4.37641 2.20185,0.0397 6.18392,-1.85327 6.12696,-5.83521 0.057,-1.83576 -1.085,-3.06232 -1.75056,-3.79288 -0.56987,-0.77843 -1.34373,-2.91645 -0.29176,-5.54345 2.31471,-5.27737 6.33645,-12.18275 14.88035,-15.46329 0,0 -0.0957,2.5278 0,3.20936 -0.0957,7.08393 -6.71048,28.67303 -17.21443,32.96891 l -21.882018,9.62809 c 0,0 4.18606,18.65048 4.376401,19.8397 0.331679,1.02933 1.115809,2.00848 2.04233,2.04232 1.03143,-0.0338 1.94545,-1.3386 2.042319,-2.33408 0.0331,-1.09352 0.686101,-7.42589 0.875281,-7.87753 -0.0582,-0.72358 0.267829,-2.6807 3.209359,-3.79288 2.80358,-0.84728 18.275278,-6.00444 19.256758,-6.41873 1.10635,-0.36879 5.0883,-1.544 8.46104,-5.25168 3.41593,-3.60267 9.35735,-10.4567 9.91986,-11.37865 0,0 12.05787,26.77192 14.58802,48.14044 l 16.63033,-3.79288 c 0,0 0.68388,-0.42947 1.4588,0 0.53216,0.52866 3.31672,1.96413 3.79288,2.33408 0.65471,0.2404 2.17887,0.50065 2.62585,-0.29176 0.50998,-0.51351 0.46681,-1.51366 0.29176,-2.33408 l -2.04232,-12.54569 c 0,0 -0.77726,-1.84626 0.87528,-2.9176 5.59128,-3.27357 22.23912,-17.69585 25.96666,-22.46555 0.96513,-1.20205 3.48886,-4.07532 7.29342,-4.08464 3.85473,0.009 8.64194,0.0968 11.67041,-0.58352 2.88959,-0.88579 4.80587,0.85543 4.95992,3.50112 0.43181,15.50063 5.50377,23.61157 7.58577,26.55019 4.0683,5.01943 4.50828,8.99554 4.95992,11.96217 0.18089,1.14252 0.61737,4.97159 4.08465,4.95992 1.42845,0.0117 1.6887,-0.38045 2.9176,-0.58352 0.99082,-0.31861 14.70005,-3.58281 15.46329,-3.79288 0.54151,-0.0502 1.78091,-0.83327 1.4588,-1.75056 -0.0677,-0.91146 -0.98148,-1.6292 -2.04232,-1.75056 -1.02816,-0.009 -7.94755,-0.66172 -8.75281,-0.87528 -2.64918,-0.36179 -3.79288,-0.62555 -4.66816,-4.08465 -0.59752,-1.38177 -9.67244,-33.9784 -9.91985,-37.05356 0,0 3.98895,-0.66638 6.12697,-2.62584 0,0 -11.18843,-15.53565 -15.75506,-37.92883 0,0 8.04675,16.91042 27.13371,25.38314 1.21722,0.70488 2.00264,0.96397 2.9176,1.4588 0.79942,0.7294 2.2804,1.55684 3.50112,1.4588 1.39112,0.098 5.00194,-1.29424 4.95993,-4.66816 0.042,-3.41476 -3.04715,-4.41725 -3.79289,-4.66816 -3.3389,-1.49849 -7.50757,-4.30406 -10.50337,-7.00225 -7.16446,-6.1363 -11.23277,-11.45101 -15.17153,-21.00674 -0.56135,-1.37594 -5.69633,-11.73343 -6.71048,-12.83745 -2.29441,-2.47996 -5.39524,-4.32155 -8.16929,-4.95992 -0.64071,-0.13888 -2.82774,-0.52984 -2.9176,-1.45881 0.0898,-1.062 0.7504,-1.27324 1.16704,-1.4588 z"
     id="path15" /><path
     inkscape:connector-curvature="0"
     style="fill:#ffffff;fill-opacity:1;fill-rule:nonzero;stroke:none"
     d="m 195.88784,174.91738 -11.08689,4.95992 c 0,0 -4.07532,1.08768 -2.62585,7.00225 0.44814,1.20204 1.31758,4.33556 1.45881,5.25169 0.38278,1.17286 1.77507,4.39274 2.33408,5.25168 0.48548,0.70838 2.13917,3.92943 1.75056,6.41873 -0.13422,2.21037 -2.13685,6.03943 -4.66816,7.00224 -2.69003,0.77842 -15.57184,4.8689 -16.33858,4.95993 -0.80059,0.25675 -6.19699,2.08549 -9.33633,-1.16704 -2.95261,-3.36225 -9.33633,-11.08689 -9.33633,-11.08689 l 0,4.3764 c 0,0 0.20307,5.9589 1.45881,10.21161 1.3561,4.45109 7.23332,28.75471 8.46104,40.55468 0.29292,3.41243 2.03416,6.98123 3.20937,7.00224 1.43545,-0.021 1.82758,-1.28258 1.4588,-2.04232 -0.24158,-0.98148 -2.2419,-6.37789 -2.33408,-7.00224 -0.25676,-0.50767 -1.12621,-2.42279 1.4588,-4.08465 2.37608,-1.558 4.15933,-2.90711 7.00224,-7.58577 2.72737,-4.89574 7.60211,-13.51317 22.46554,-21.00674 0,0 -2.33059,-0.42714 -5.8352,-3.79288 0,0 10.99002,-18.21985 10.50337,-45.22284 z"
     id="path17" /></svg>