<?xml version="1.0" encoding="UTF-8" standalone="no"?>
<!-- Created with Inkscape (http://www.inkscape.org/) -->

<svg
   xmlns:dc="http://purl.org/dc/elements/1.1/"
   xmlns:cc="http://creativecommons.org/ns#"
   xmlns:rdf="http://www.w3.org/1999/02/22-rdf-syntax-ns#"
   xmlns:svg="http://www.w3.org/2000/svg"
   xmlns="http://www.w3.org/2000/svg"
   xmlns:inkscape="http://www.inkscape.org/namespaces/inkscape"
   version="1.1"
   width="625.75"
   height="512.89001"
   id="svg2"
   xml:space="preserve"><metadata
     id="metadata8"><rdf:RDF><cc:Work
         rdf:about=""><dc:format>image/svg+xml</dc:format><dc:type
           rdf:resource="http://purl.org/dc/dcmitype/StillImage" /></cc:Work></rdf:RDF></metadata><defs
     id="defs6"><clipPath
       id="clipPath20"><path
         d="M 0.014999,410.31 H 500.615 V 0 H 0.014999 v 410.31 z"
         inkscape:connector-curvature="0"
         id="path22" /></clipPath></defs><g
     transform="matrix(1.25,0,0,-1.25,-0.018749,512.89)"
     id="g10"><g
       transform="translate(500.11,24.876)"
       id="g12"><path
         d="m 0,0 c 0,-13.462 -10.913,-24.376 -24.375,-24.376 h -450.86 c -13.461,0 -24.375,10.914 -24.375,24.376 v 360.57 c 0,13.461 10.914,24.375 24.375,24.375 h 450.86 c 13.467,0.01 24.38,-10.91 24.38,-24.37 V 0.005"
         inkscape:connector-curvature="0"
         id="path14"
         style="fill:#ffffff" /></g><g
       id="g16"><g
         clip-path="url(#clipPath20)"
         id="g18"><g
           transform="translate(500.11,24.876)"
           id="g24"><path
             d="m 0,0 c 0,-13.462 -10.913,-24.376 -24.375,-24.376 h -450.86 c -13.461,0 -24.375,10.914 -24.375,24.376 v 360.57 c 0,13.461 10.914,24.375 24.375,24.375 h 450.86 c 13.467,0.01 24.38,-10.91 24.38,-24.37 V 0.005 z"
             inkscape:connector-curvature="0"
             id="path26"
             style="fill:none;stroke:#0079c1" /></g></g></g><g
       transform="translate(487.46,24.876)"
       id="g28"><path
         d="m 0,0 c 0,-6.472 -5.246,-11.719 -11.718,-11.719 h -450.86 c -6.471,0 -11.717,5.247 -11.717,11.719 v 360.57 c 0,6.471 5.246,11.717 11.717,11.717 h 450.86 c 6.474,0 11.72,-5.25 11.72,-11.72 V -0.003"
         inkscape:connector-curvature="0"
         id="path30"
         style="fill:#0079c1" /></g><g
       transform="translate(156.06,222.05)"
       id="g32"><path
         d="m 0,0 c 9.545,0 17.282,-7.738 17.282,-17.283 0,-9.545 -7.737,-17.283 -17.282,-17.283 -9.545,0 -17.283,7.738 -17.283,17.283 C -17.283,-7.738 -9.545,0 0,0"
         inkscape:connector-curvature="0"
         id="path34"
         style="fill:#ffffff" /></g><g
       transform="translate(327.02,222.05)"
       id="g36"><path
         d="m 0,0 c 9.545,0 17.284,-7.738 17.284,-17.283 0,-9.545 -7.739,-17.283 -17.284,-17.283 -9.544,0 -17.283,7.738 -17.283,17.283 C -17.283,-7.738 -9.544,0 0,0"
         inkscape:connector-curvature="0"
         id="path38"
         style="fill:#ffffff" /></g><g
       transform="translate(156.06,213.37)"
       id="g40"><path
         d="m 0,0 c 4.748,0 8.597,-3.849 8.597,-8.597 0,-4.748 -3.849,-8.596 -8.597,-8.596 -4.748,0 -8.597,3.848 -8.597,8.596 C -8.597,-3.849 -4.748,0 0,0"
         inkscape:connector-curvature="0"
         id="path42"
         style="fill:#0079c1" /></g><g
       transform="translate(327.02,213.37)"
       id="g44"><path
         d="m 0,0 c 4.749,0 8.598,-3.849 8.598,-8.597 0,-4.748 -3.849,-8.596 -8.598,-8.596 -4.748,0 -8.597,3.848 -8.597,8.596 C -8.597,-3.849 -4.748,0 0,0"
         inkscape:connector-curvature="0"
         id="path46"
         style="fill:#0079c1" /></g><g
       transform="translate(347.89,199.43)"
       id="g48"><path
         d="m 0,0 c 0.438,1.712 0.672,3.493 0.672,5.342 0,11.894 -9.643,21.537 -21.538,21.537 -11.894,0 -21.537,-9.643 -21.537,-21.537 0,-1.839 0.231,-3.638 0.664,-5.342 h -129.22 c 0.438,1.712 0.672,3.493 0.672,5.342 0,11.894 -9.643,21.537 -21.537,21.537 -11.894,0 -21.537,-9.643 -21.537,-21.537 0,-1.839 0.23,-3.638 0.664,-5.342 h -46.748 c -9.683,0 -9.494,10.058 -9.494,10.058 v 34.124 c 0,3.76 4.418,4.136 4.418,4.136 l 1.504,43.712 c 0.279,8.456 6.674,7.521 6.674,7.521 h 308.62 c 13.536,0 20.776,-13.161 20.776,-20.869 V 14.101 L 0.017,0"
         inkscape:connector-curvature="0"
         id="path50"
         style="fill:#ffffff" /></g><g
       transform="translate(192.31,251.98)"
       id="g52"><path
         d="M 0,0 C 2.596,0 4.701,2.105 4.701,4.701 V 25.099 C 4.701,27.696 2.596,29.8 0,29.8 h -50.715 c -2.596,0 -4.701,-2.104 -4.701,-4.701 V 4.701 C -55.416,2.105 -53.311,0 -50.715,0 H 0"
         inkscape:connector-curvature="0"
         id="path54"
         style="fill:#0079c1" /></g><g
       transform="translate(117.05,210.02)"
       id="g56"><path
         d="m 0,0 c 2.595,0 4.7,2.104 4.7,4.7 v 62.356 c 0,2.597 -2.105,4.701 -4.7,4.701 h -12.068 c -2.596,0 -4.7,-2.104 -4.7,-4.701 V 4.7 c 0,-2.596 2.104,-4.7 4.7,-4.7 H 0"
         inkscape:connector-curvature="0"
         id="path58"
         style="fill:#0079c1" /></g><g
       transform="translate(263.19,251.98)"
       id="g60"><path
         d="M 0,0 C 2.596,0 4.701,2.105 4.701,4.701 V 25.099 C 4.701,27.696 2.596,29.8 0,29.8 h -50.715 c -2.596,0 -4.701,-2.104 -4.701,-4.701 V 4.701 C -55.416,2.105 -53.311,0 -50.715,0 H 0"
         inkscape:connector-curvature="0"
         id="path62"
         style="fill:#0079c1" /></g><g
       transform="translate(333.6,251.98)"
       id="g64"><path
         d="M 0,0 C 2.595,0 4.7,2.105 4.7,4.701 V 25.099 C 4.7,27.696 2.595,29.8 0,29.8 h -50.715 c -2.596,0 -4.701,-2.104 -4.701,-4.701 V 4.701 C -55.416,2.105 -53.311,0 -50.715,0 H 0"
         inkscape:connector-curvature="0"
         id="path66"
         style="fill:#0079c1" /></g><g
       transform="translate(403.48,251.98)"
       id="g68"><path
         d="M 0,0 C 2.597,0 4.702,2.105 4.702,4.701 V 16.31 c 0,7.505 -6.111,13.49 -13.241,13.49 H -50.37 c -2.595,0 -4.7,-2.104 -4.7,-4.701 V 4.701 C -55.07,2.105 -52.965,0 -50.37,0 H 0"
         inkscape:connector-curvature="0"
         id="path70"
         style="fill:#0079c1" /></g><g
       transform="translate(79.719,324.01)"
       id="g72"><path
         d="m 0,0 v 47.905 h 20.805 c 9.58,0 12.866,-4.927 12.866,-11.223 0,0 0,-7.186 -5.817,-10.403 8.76,-1.642 8.76,-11.771 8.76,-11.771 C 36.614,5.27 27.58,0 21.831,0 H 0"
         inkscape:connector-curvature="0"
         id="path74"
         style="fill:#ffffff" /></g><g
       transform="translate(99.703,364.73)"
       id="g76"><path
         d="M 0,0 H -11.908 V -11.566 H 0.068 c 2.943,0 6.022,2.738 6.022,5.749 C 6.09,-2.669 3.284,0 0,0"
         inkscape:connector-curvature="0"
         id="path78"
         style="fill:#0079c1" /></g><g
       transform="translate(100.87,346.59)"
       id="g80"><path
         d="M 0,0 H -13.071 V -15.261 H 0 c 3.49,0 7.596,4.242 7.596,7.664 C 7.596,-3.559 3.217,0 0,0"
         inkscape:connector-curvature="0"
         id="path82"
         style="fill:#0079c1" /></g><g
       transform="translate(149.34,330.37)"
       id="g84"><path
         d="m 0,0 c 7.665,0 10.402,7.323 10.402,12.387 v 29.222 h 7.939 V 11.019 C 18.341,1.232 11.155,-7.322 0,-7.322 c -10.95,0 -19.025,7.596 -19.025,18.341 v 30.59 h 8.075 V 12.387 C -10.95,5.612 -6.159,0 0,0"
         inkscape:connector-curvature="0"
         id="path86"
         style="fill:#ffffff" /></g><g
       transform="translate(189.37,358.71)"
       id="g88"><path
         d="m 0,0 c 0,-2.737 1.711,-4.859 6.433,-5.885 l 10.403,-2.259 c 5.611,-1.163 9.991,-5.68 9.991,-11.771 0,-9.033 -6.912,-15.808 -17.52,-15.808 -8.417,0 -12.523,2.258 -18.888,8.965 l 6.159,5.201 c 4.586,-4.996 8.144,-6.707 12.729,-6.707 5.954,0 9.719,1.985 9.719,6.433 0,2.943 -2.122,5.475 -5.955,6.296 l -9.649,2.053 c -7.049,1.506 -11.36,7.118 -11.36,13.14 0,8.623 6.638,14.098 17.109,14.098 0,0 12.181,0 16.767,-7.802 L 19.436,1.095 C 15.877,6.707 8.144,6.707 8.144,6.707 2.737,6.707 0,3.832 0,0"
         inkscape:connector-curvature="0"
         id="path90"
         style="fill:#ffffff" /></g><g
       transform="translate(279.87,324.01)"
       id="g92"><path
         d="m 0,0 h -26.895 v 47.7 h 8.35 V 7.391 H 0 V 0"
         inkscape:connector-curvature="0"
         id="path94"
         style="fill:#ffffff" /></g><g
       transform="translate(299.68,371.85)"
       id="g96"><path
         d="M 0,0 H 9.924 L 25.936,-47.836 H 17.861 L 14.85,-38.94 H -4.654 l -2.875,-8.896 h -8.485 L 0,0"
         inkscape:connector-curvature="0"
         id="path98"
         style="fill:#ffffff" /></g><g
       transform="translate(304.54,362.2)"
       id="g100"><path
         d="M 0,0 -7.048,-22.447 H 7.528 L 0,0"
         inkscape:connector-curvature="0"
         id="path102"
         style="fill:#0079c1" /></g><g
       transform="translate(336.79,371.64)"
       id="g104"><path
         d="M 0,0 H 8.898 L 32.44,-34.218 V 0 h 8.075 V -47.631 H 31.618 L 8.008,-13.55 V -47.631 H 0 V 0"
         inkscape:connector-curvature="0"
         id="path106"
         style="fill:#ffffff" /></g><g
       transform="translate(422.63,352)"
       id="g108"><path
         d="M 0,0 V -7.049 H -19.984 V -20.667 H 3.079 V -27.99 H -28.47 V 19.846 H 1.71 V 12.729 H -20.463 V 0 H 0"
         inkscape:connector-curvature="0"
         id="path110"
         style="fill:#ffffff" /></g><g
       transform="translate(82.242,110.14)"
       id="g112"><path
         d="m 0,0 h -26.895 v 47.7 h 8.349 V 7.392 H 0 V 0"
         inkscape:connector-curvature="0"
         id="path114"
         style="fill:#ffffff" /></g><g
       transform="translate(111.42,159.82)"
       id="g116"><path
         d="m 0,0 c 14.783,0 22.584,-10.607 22.584,-25.185 0,-14.508 -7.254,-25.389 -22.652,-25.389 -13.892,0 -22.447,9.718 -22.447,25.389 C -22.515,-10.949 -14.713,0 0,0"
         inkscape:connector-curvature="0"
         id="path118"
         style="fill:#ffffff" /></g><g
       transform="translate(97.186,134.71)"
       id="g120"><path
         d="m 0,0 c 0,-11.429 4.106,-17.998 14.234,-17.998 10.471,0 14.235,7.117 14.235,17.998 0,11.702 -5.269,17.589 -14.303,17.589 C 3.695,17.589 0,10.402 0,0"
         inkscape:connector-curvature="0"
         id="path122"
         style="fill:#0079c1" /></g><g
       transform="translate(165.04,159.82)"
       id="g124"><path
         d="m 0,0 c 14.781,0 22.583,-10.607 22.583,-25.185 0,-14.508 -7.254,-25.389 -22.652,-25.389 -13.892,0 -22.447,9.718 -22.447,25.389 C -22.516,-10.949 -14.714,0 0,0"
         inkscape:connector-curvature="0"
         id="path126"
         style="fill:#ffffff" /></g><g
       transform="translate(150.8,134.71)"
       id="g128"><path
         d="m 0,0 c 0,-11.429 4.106,-17.998 14.235,-17.998 10.47,0 14.234,7.117 14.234,17.998 0,11.702 -5.27,17.589 -14.303,17.589 C 3.696,17.589 0,10.402 0,0"
         inkscape:connector-curvature="0"
         id="path130"
         style="fill:#0079c1" /></g><g
       transform="translate(234.87,157.64)"
       id="g132"><path
         d="M 0,0 -15.398,-18.479 1.574,-47.496 H -7.46 l -13.345,22.31 -7.186,-9.033 0.343,-13.277 h -8.007 V 0 h 8.007 V -21.147 L -9.376,0 H 0"
         inkscape:connector-curvature="0"
         id="path134"
         style="fill:#ffffff" /></g><g
       transform="translate(266.89,110.14)"
       id="g136"><path
         d="m 0,0 v 47.906 h 20.804 c 9.581,0 12.867,-4.928 12.867,-11.224 0,0 0,-7.185 -5.818,-10.402 8.76,-1.643 8.76,-11.771 8.76,-11.771 C 36.613,5.27 27.58,0 21.831,0 H 0"
         inkscape:connector-curvature="0"
         id="path138"
         style="fill:#ffffff" /></g><g
       transform="translate(286.87,150.86)"
       id="g140"><path
         d="M 0,0 H -11.908 V -11.566 H 0.068 c 2.944,0 6.023,2.738 6.023,5.749 C 6.091,-2.67 3.285,0 0,0"
         inkscape:connector-curvature="0"
         id="path142"
         style="fill:#0079c1" /></g><g
       transform="translate(288.04,132.72)"
       id="g144"><path
         d="M 0,0 H -13.072 V -15.26 H 0 c 3.49,0 7.596,4.243 7.596,7.664 C 7.596,-3.558 3.216,0 0,0"
         inkscape:connector-curvature="0"
         id="path146"
         style="fill:#0079c1" /></g><g
       transform="translate(337.06,159.82)"
       id="g148"><path
         d="m 0,0 c 14.782,0 22.584,-10.607 22.584,-25.185 0,-14.508 -7.254,-25.389 -22.653,-25.389 -13.891,0 -22.446,9.718 -22.446,25.389 C -22.515,-10.949 -14.714,0 0,0"
         inkscape:connector-curvature="0"
         id="path150"
         style="fill:#ffffff" /></g><g
       transform="translate(322.82,134.71)"
       id="g152"><path
         d="m 0,0 c 0,-11.429 4.107,-17.998 14.235,-17.998 10.47,0 14.235,7.117 14.235,17.998 0,11.702 -5.271,17.589 -14.304,17.589 C 3.696,17.589 0,10.402 0,0"
         inkscape:connector-curvature="0"
         id="path154"
         style="fill:#0079c1" /></g><g
       transform="translate(385.68,150.24)"
       id="g156"><path
         d="M 0,0 V -40.104 H -8.006 V 0 H -21.078 V 7.254 H 13.071 V 0 H 0"
         inkscape:connector-curvature="0"
         id="path158"
         style="fill:#ffffff" /></g><g
       transform="translate(438.63,139.02)"
       id="g160"><path
         d="M 0,0 V 18.752 H 7.937 V -28.88 H 0 V -7.049 H -21.695 V -28.88 h -8.281 v 47.632 h 8.281 V 0 H 0"
         inkscape:connector-curvature="0"
         id="path162"
         style="fill:#ffffff" /></g><g
       transform="translate(155.77,89.678)"
       id="g164"><path
         d="M 0,0 H 8.485 L 16.63,-31.618 23.815,0 h 9.444 L 40.992,-31.618 48.589,0 H 56.87 L 45.92,-47.973 H 36.818 L 28.606,-12.66 20.667,-47.973 H 11.565 L 0,0"
         inkscape:connector-curvature="0"
         id="path166"
         style="fill:#ffffff" /></g><g
       transform="translate(233.26,89.541)"
       id="g168"><path
         d="M 0,0 H 9.923 L 25.937,-47.836 H 17.862 L 14.85,-38.94 H -4.654 l -2.874,-8.896 h -8.486 L 0,0"
         inkscape:connector-curvature="0"
         id="path170"
         style="fill:#ffffff" /></g><g
       transform="translate(238.12,79.892)"
       id="g172"><path
         d="M 0,0 -7.049,-22.447 H 7.528 L 0,0"
         inkscape:connector-curvature="0"
         id="path174"
         style="fill:#0079c1" /></g><g
       transform="translate(272.63,89.61)"
       id="g176"><path
         d="M 0,0 10.197,-19.573 20.325,0 h 9.513 L 14.098,-28.333 V -47.905 H 6.296 v 19.572 L -9.513,0 H 0"
         inkscape:connector-curvature="0"
         id="path178"
         style="fill:#ffffff" /></g><g
       transform="translate(318.05,76.401)"
       id="g180"><path
         d="m 0,0 c 0,-2.737 1.711,-4.858 6.432,-5.885 l 10.403,-2.258 c 5.611,-1.163 9.992,-5.68 9.992,-11.771 0,-9.034 -6.912,-15.809 -17.521,-15.809 -8.417,0 -12.523,2.258 -18.887,8.965 l 6.159,5.202 c 4.585,-4.996 8.143,-6.707 12.728,-6.707 5.954,0 9.718,1.984 9.718,6.432 0,2.943 -2.121,5.476 -5.953,6.297 l -9.649,2.053 c -7.05,1.506 -11.361,7.117 -11.361,13.139 0,8.623 6.638,14.099 17.109,14.099 0,0 12.182,0 16.766,-7.803 L 19.435,1.096 C 15.877,6.707 8.143,6.707 8.143,6.707 2.737,6.707 0,3.833 0,0"
         inkscape:connector-curvature="0"
         id="path182"
         style="fill:#ffffff" /></g></g></svg>