<?xml version="1.0" encoding="UTF-8" standalone="no"?>
<!-- Generator: Adobe Illustrator 14.0.0, SVG Export Plug-In . SVG Version: 6.00 Build 43363)  -->
<svg xmlns:dc="http://purl.org/dc/elements/1.1/" xmlns:cc="http://creativecommons.org/ns#" xmlns:rdf="http://www.w3.org/1999/02/22-rdf-syntax-ns#" xmlns:svg="http://www.w3.org/2000/svg" xmlns="http://www.w3.org/2000/svg" xmlns:sodipodi="http://sodipodi.sourceforge.net/DTD/sodipodi-0.dtd" xmlns:inkscape="http://www.inkscape.org/namespaces/inkscape" version="1.0" id="svg4231" x="0px" y="0px" width="75.472603" height="56.619999" viewBox="0 0 456 608" enable-background="new 0 0 456 608" xml:space="preserve" sodipodi:version="0.32" inkscape:version="0.46" sodipodi:docname="youth_hostel.svg" inkscape:output_extension="org.inkscape.output.svg.inkscape"><sodipodi:namedview inkscape:window-height="801" inkscape:window-width="1294" inkscape:pageshadow="2" inkscape:pageopacity="0.0" guidetolerance="10.0" gridtolerance="10.0" objecttolerance="10.0" borderopacity="1.0" bordercolor="#666666" pagecolor="#ffffff" id="base" showgrid="false" showguides="false" inkscape:zoom="4.9019851" inkscape:cx="41.56668" inkscape:cy="30.243524" inkscape:window-x="176" inkscape:window-y="88" inkscape:current-layer="svg4231"/><metadata id="metadata2498"><rdf:RDF><cc:Work rdf:about=""><dc:format>image/svg+xml</dc:format><dc:type rdf:resource="http://purl.org/dc/dcmitype/StillImage"/></cc:Work></rdf:RDF></metadata><defs id="defs2496"><inkscape:perspective id="perspective2500" inkscape:persp3d-origin="228 : 202.66667 : 1" inkscape:vp_z="456 : 304 : 1" inkscape:vp_y="0 : 1000 : 0" inkscape:vp_x="0 : 304 : 1" sodipodi:type="inkscape:persp3d"/></defs>











<g id="g3376" transform="matrix(1.331,0,0,1.331,-32.414127,670.05829)"/><path style="fill:#000000;fill-opacity:1;stroke:#000000;stroke-width:0.28749603" d="M 634.22506,570.77428 L 634.22506,35.935894 C 634.22506,16.483328 618.41279,0.66971764 598.86306,0.66971764 L -137.70303,0.66971764 C -157.25276,0.66971764 -173.16087,16.483328 -173.16087,35.935894 L -173.16087,570.77428 C -173.16087,590.13234 -157.25276,606.04045 -137.70303,606.04045 L -137.70303,606.04045 L 598.86306,606.04045 C 618.31696,606.13628 634.22506,590.22817 634.22506,570.77428 L 634.22506,570.58261 L 634.22506,570.77428 z" id="path4239"/><path style="fill:#553100;fill-opacity:1" d="M 618.98794,570.77279 L 618.98794,35.934403 C 618.98794,24.722059 609.8839,15.715182 598.76739,15.715182 L -137.7987,15.715182 C -149.01104,15.715182 -158.01792,24.72339 -158.01792,35.934403 L -158.01792,570.77279 C -158.01792,581.79347 -149.00971,590.89751 -137.7987,590.89751 L -137.7987,590.89751 L 598.76739,590.89751 C 609.8839,590.99334 618.98794,581.79347 618.98794,570.77279 L 618.98794,570.77279 z" id="path4241"/><path id="path3058" style="fill:#ffffff;fill-opacity:1;fill-rule:evenodd;stroke:none" d="M -19.100096,473.14976 L -19.100096,512.40751 L 490.0122,512.40751 L 490.0122,473.14976 L 461.95215,473.14976 L 461.95215,260.13039 L 495.6769,260.13039 L 324.5237,75.013021 L 153.68666,260.13039 L 187.25334,260.13039 L 187.25334,473.14976 L 91.9018,473.14976 L 91.9018,405.83197 L 104.73302,410.46912 L 117.85407,414.3422 L 131.00148,417.31944 L 144.41232,419.559 L 157.98128,420.90272 L 171.55025,421.48235 L 161.56455,413.44639 L 143.35843,395.5301 L 127.57631,375.37427 L 114.58699,353.42683 L 104.44323,330.00393 L 97.566523,305.21096 L 95.326995,292.66955 L 115.16665,307.45047 L 130.36913,315.35472 L 160.37892,327.44819 L 139.80154,305.36902 L 121.75351,281.18204 L 106.52467,255.20343 L 93.983278,227.74934 L 84.603567,199.08331 L 76.251422,154.5824 L 68.05735,199.08331 L 58.493219,227.74934 L 46.109902,255.20343 L 30.749323,281.18204 L 12.701289,305.36902 L -7.9024192,327.44819 L 19.182777,318.01583 L 37.309851,307.45047 L 57.149504,292.66955 L 51.932693,317.75234 L 43.422445,341.93931 L 31.934964,364.7826 L 17.417505,388.52168 L -19.047404,421.50873 L 8.090485,419.559 L 34.806841,414.3422 L 47.769793,410.46912 L 60.601015,405.83197 L 60.601015,473.14976 L -19.07375,473.14976"/><path id="path3513" style="fill:#542f00;fill-opacity:1;fill-rule:evenodd;stroke:none" d="M 361.06765,473.14976 L 361.06765,361.04127 L 288.11148,361.04127 L 288.11148,473.14976 L 361.06765,473.14976 z"/></svg>